<?xml version="1.0" encoding="utf-8"?>
<!-- Generator: Adobe Illustrator 16.0.0, SVG Export Plug-In . SVG Version: 6.00 Build 0)  -->
<!DOCTYPE svg PUBLIC "-//W3C//DTD SVG 1.1//EN" "http://www.w3.org/Graphics/SVG/1.1/DTD/svg11.dtd">
<svg version="1.1" id="Layer_3" xmlns="http://www.w3.org/2000/svg" xmlns:xlink="http://www.w3.org/1999/xlink" x="0px" y="0px"
	 width="150px" height="250px" viewBox="0 0 150 250" enable-background="new 0 0 150 250" xml:space="preserve">
<g>
	<path fill-rule="evenodd" clip-rule="evenodd" fill="#A27556" d="M23.629,192.948c-0.734,0-1.45-0.207-2.072-0.598l-0.848-0.533
		l1.1-1.743l-2.057,0.009l-0.006-0.998c-0.008-1.352,0.706-2.63,1.863-3.334c0.608-0.372,1.307-0.568,2.017-0.568
		c1.368,0,2.609,0.698,3.319,1.867c0.539,0.886,0.7,1.928,0.454,2.936c-0.246,1.008-0.87,1.859-1.756,2.397
		C25.038,192.752,24.341,192.948,23.629,192.948z"/>
	<path fill="#4F392A" d="M23.626,186.183c0.973,0,1.922,0.493,2.465,1.387c0.826,1.358,0.395,3.133-0.966,3.959
		c-0.46,0.28-0.978,0.42-1.496,0.42c-0.535,0-1.069-0.148-1.54-0.444l1.538-2.438l-2.881,0.013c-0.006-1.01,0.521-1.949,1.383-2.475
		C22.598,186.318,23.116,186.183,23.626,186.183 M23.626,184.183c-0.895,0-1.772,0.247-2.539,0.715
		c-1.453,0.886-2.351,2.492-2.341,4.193l0.012,1.997l1.232-0.006l-0.661,1.049l1.696,1.066c0.781,0.491,1.682,0.751,2.604,0.751
		c0.896,0,1.773-0.246,2.537-0.712c1.112-0.676,1.896-1.746,2.206-3.014c0.309-1.268,0.106-2.579-0.571-3.692
		C26.907,185.061,25.347,184.183,23.626,184.183L23.626,184.183z"/>
</g>
<g>
	<path fill-rule="evenodd" clip-rule="evenodd" fill="#A27556" d="M75.261,193.113c-0.507,0-1.002-0.097-1.472-0.289l-0.926-0.379
		l0.78-1.903l-2.021,0.366l-0.179-0.982c-0.243-1.331,0.238-2.713,1.255-3.608c0.711-0.624,1.622-0.967,2.565-0.967
		c1.117,0,2.179,0.48,2.915,1.319c1.412,1.604,1.256,4.062-0.352,5.479C77.113,192.771,76.204,193.113,75.261,193.113z"/>
	<path fill="#4F392A" d="M75.262,186.351c0.8,0,1.595,0.331,2.163,0.979c1.054,1.196,0.936,3.015-0.261,4.069
		c-0.536,0.469-1.214,0.715-1.903,0.715c-0.369,0-0.74-0.07-1.094-0.215l1.092-2.665l-2.834,0.513
		c-0.181-0.993,0.173-2.01,0.932-2.678C73.906,186.587,74.585,186.351,75.262,186.351 M75.262,184.351L75.262,184.351
		c-1.186,0-2.331,0.432-3.224,1.215c-1.281,1.127-1.885,2.866-1.58,4.54l0.358,1.964l1.209-0.219l-0.468,1.142l1.853,0.758
		c0.59,0.241,1.213,0.363,1.851,0.363c1.185,0,2.329-0.43,3.22-1.21c2.025-1.786,2.223-4.877,0.444-6.896
		C78.003,184.955,76.666,184.351,75.262,184.351L75.262,184.351z"/>
</g>
<g>
	<path fill-rule="evenodd" clip-rule="evenodd" fill="#A27556" d="M126.897,192.997c-0.275,0-0.552-0.029-0.822-0.088l-0.979-0.211
		l0.438-2.015l-1.928,0.714l-0.347-0.939c-0.468-1.269-0.234-2.713,0.609-3.77c0.738-0.926,1.843-1.458,3.03-1.458
		c0.878,0,1.741,0.304,2.429,0.854c0.809,0.646,1.316,1.571,1.431,2.603c0.113,1.029-0.181,2.043-0.827,2.852
		C129.189,192.466,128.084,192.997,126.897,192.997z"/>
	<path fill="#4F392A" d="M126.899,186.23c0.633,0,1.271,0.208,1.804,0.635c1.241,0.993,1.44,2.808,0.447,4.049
		c-0.554,0.692-1.386,1.083-2.253,1.083c-0.203,0-0.407-0.021-0.611-0.065l0.614-2.82l-2.702,1.001
		c-0.35-0.948-0.179-2.01,0.452-2.8C125.218,186.601,126.054,186.23,126.899,186.23 M126.899,184.23
		c-1.494,0-2.884,0.669-3.813,1.836c-1.059,1.326-1.353,3.143-0.765,4.737l0.693,1.88l1.154-0.428l-0.264,1.209l1.96,0.422
		c0.339,0.073,0.687,0.11,1.032,0.11c1.492,0,2.883-0.669,3.814-1.834c1.682-2.102,1.341-5.179-0.759-6.859
		C129.089,184.612,128.004,184.23,126.899,184.23L126.899,184.23z"/>
</g>
<g>
	<path fill-rule="evenodd" clip-rule="evenodd" fill="#A27556" d="M12.715,241.1c-1.473-0.199-2.683-1.196-3.158-2.604
		c-0.331-0.98-0.261-2.033,0.198-2.962c0.46-0.93,1.254-1.624,2.236-1.955c0.402-0.137,0.822-0.207,1.246-0.207
		c1.664,0,3.141,1.062,3.675,2.641c0.435,1.283,0.159,2.722-0.719,3.752l-0.647,0.76l-1.565-1.328l-0.276,2.038L12.715,241.1z"/>
	<path fill="#4F392A" d="M13.238,234.371c1.201,0,2.321,0.759,2.728,1.961c0.324,0.956,0.122,2.015-0.533,2.783l-2.197-1.863
		l-0.387,2.856c-1.086-0.146-1.994-0.896-2.344-1.933c-0.509-1.506,0.299-3.142,1.807-3.65
		C12.619,234.421,12.931,234.371,13.238,234.371 M13.238,232.371c-0.534,0-1.062,0.088-1.57,0.261
		c-1.231,0.415-2.23,1.289-2.808,2.458c-0.578,1.168-0.667,2.491-0.249,3.727c0.596,1.769,2.118,3.024,3.971,3.274l1.981,0.267
		l0.165-1.218l0.934,0.792l1.294-1.52c1.105-1.297,1.452-3.106,0.905-4.722C17.188,233.705,15.331,232.371,13.238,232.371
		L13.238,232.371z"/>
</g>
<g>
	<path fill-rule="evenodd" clip-rule="evenodd" fill="#A27556" d="M62.713,241.1c-1.471-0.199-2.68-1.196-3.155-2.604
		c-0.333-0.98-0.263-2.032,0.197-2.961c0.46-0.931,1.254-1.625,2.237-1.957c0.402-0.137,0.822-0.207,1.246-0.207
		c1.664,0,3.141,1.062,3.675,2.641c0.433,1.287,0.157,2.725-0.72,3.752l-0.647,0.76l-1.566-1.329l-0.277,2.039L62.713,241.1z"/>
	<path fill="#4F392A" d="M63.238,234.371c1.201,0,2.321,0.759,2.728,1.961c0.321,0.956,0.122,2.015-0.533,2.783l-2.197-1.863
		l-0.389,2.856c-1.084-0.146-1.992-0.896-2.342-1.933c-0.511-1.506,0.299-3.142,1.807-3.65
		C62.619,234.421,62.931,234.371,63.238,234.371 M63.238,232.371c-0.534,0-1.062,0.088-1.57,0.261
		c-1.232,0.416-2.231,1.29-2.81,2.46c-0.578,1.169-0.666,2.492-0.247,3.727c0.597,1.768,2.118,3.022,3.968,3.272l1.98,0.267
		l0.166-1.22l0.936,0.793l1.294-1.518c1.103-1.294,1.45-3.102,0.907-4.718C67.189,233.705,65.332,232.371,63.238,232.371
		L63.238,232.371z"/>
</g>
<g>
	<path fill-rule="evenodd" clip-rule="evenodd" fill="#A27556" d="M112.716,241.1c-1.472-0.198-2.682-1.196-3.157-2.604
		c-0.332-0.981-0.262-2.034,0.197-2.963c0.459-0.93,1.254-1.624,2.237-1.955c0.401-0.137,0.821-0.207,1.245-0.207
		c1.666,0,3.144,1.062,3.676,2.642c0.433,1.286,0.157,2.724-0.72,3.751l-0.646,0.76l-1.565-1.328l-0.276,2.038L112.716,241.1z"/>
	<path fill="#4F392A" d="M113.238,234.371c1.201,0,2.323,0.759,2.729,1.961c0.321,0.956,0.122,2.015-0.533,2.783l-2.197-1.863
		l-0.387,2.856c-1.086-0.146-1.993-0.896-2.344-1.933c-0.509-1.506,0.297-3.142,1.807-3.65
		C112.619,234.421,112.932,234.371,113.238,234.371 M113.238,232.371c-0.534,0-1.063,0.088-1.57,0.261
		c-1.231,0.415-2.23,1.289-2.809,2.459c-0.577,1.168-0.665,2.49-0.248,3.726c0.598,1.77,2.12,3.024,3.971,3.274l1.981,0.267
		l0.165-1.218l0.933,0.791l1.294-1.518c1.104-1.294,1.451-3.102,0.907-4.718C117.192,233.706,115.334,232.371,113.238,232.371
		L113.238,232.371z"/>
</g>
<g>
	<path fill-rule="evenodd" clip-rule="evenodd" fill="#A27556" d="M35.872,239.196l-1.565,1.327l-0.647-0.76
		c-0.879-1.03-1.154-2.468-0.72-3.752c0.532-1.579,2.009-2.641,3.675-2.641c0.424,0,0.844,0.07,1.248,0.208
		c0.98,0.33,1.774,1.024,2.234,1.954c0.459,0.929,0.529,1.981,0.198,2.963c-0.474,1.407-1.684,2.404-3.157,2.604l-0.991,0.134
		L35.872,239.196z"/>
	<path fill="#4F392A" d="M36.615,234.371c0.307,0,0.619,0.05,0.926,0.154c1.508,0.509,2.315,2.145,1.807,3.65
		c-0.35,1.037-1.257,1.786-2.344,1.933l-0.386-2.856l-2.197,1.863c-0.655-0.769-0.857-1.827-0.533-2.783
		C34.293,235.13,35.414,234.371,36.615,234.371 M36.615,232.371L36.615,232.371c-2.096,0-3.953,1.335-4.623,3.322
		c-0.546,1.613-0.199,3.423,0.907,4.72l1.294,1.518l0.932-0.791l0.165,1.218l1.981-0.267c1.853-0.25,3.375-1.506,3.972-3.276
		c0.417-1.233,0.328-2.557-0.25-3.725c-0.578-1.169-1.577-2.043-2.813-2.459C37.677,232.459,37.149,232.371,36.615,232.371
		L36.615,232.371L36.615,232.371z"/>
</g>
<g>
	<path fill-rule="evenodd" clip-rule="evenodd" fill="#A27556" d="M85.872,239.193l-1.567,1.33l-0.647-0.76
		c-0.878-1.031-1.151-2.471-0.713-3.755c0.531-1.576,2.007-2.638,3.671-2.638c0.424,0,0.844,0.07,1.247,0.208
		c0.981,0.33,1.777,1.025,2.237,1.957c0.459,0.929,0.527,1.981,0.193,2.962c-0.473,1.404-1.682,2.402-3.152,2.602l-0.989,0.134
		L85.872,239.193z"/>
	<path fill="#4F392A" d="M86.615,234.371c0.307,0,0.618,0.05,0.925,0.154c1.51,0.509,2.319,2.145,1.807,3.65
		c-0.35,1.037-1.257,1.786-2.34,1.933l-0.391-2.856l-2.197,1.863c-0.654-0.769-0.854-1.827-0.528-2.783
		C84.296,235.13,85.416,234.371,86.615,234.371 M86.615,232.371L86.615,232.371c-2.094,0-3.95,1.335-4.62,3.322
		c-0.549,1.609-0.204,3.42,0.901,4.719l1.294,1.52l0.938-0.796l0.167,1.223l1.979-0.269c1.85-0.25,3.37-1.505,3.967-3.275
		c0.418-1.229,0.331-2.552-0.246-3.722c-0.578-1.171-1.579-2.045-2.817-2.463C87.677,232.459,87.148,232.371,86.615,232.371
		L86.615,232.371L86.615,232.371z"/>
</g>
<g>
	<path fill-rule="evenodd" clip-rule="evenodd" fill="#A27556" d="M135.871,239.195l-1.565,1.328l-0.646-0.76
		c-0.877-1.027-1.152-2.465-0.721-3.75c0.537-1.582,2.015-2.643,3.677-2.643c0.424,0,0.844,0.07,1.248,0.208
		c0.98,0.33,1.775,1.024,2.234,1.954c0.459,0.929,0.529,1.981,0.197,2.963c-0.475,1.407-1.685,2.405-3.157,2.604l-0.99,0.134
		L135.871,239.195z"/>
	<path fill="#4F392A" d="M136.615,234.371c0.307,0,0.619,0.05,0.926,0.154c1.51,0.509,2.315,2.145,1.807,3.65
		c-0.35,1.037-1.257,1.786-2.344,1.933l-0.387-2.856l-2.197,1.863c-0.655-0.769-0.854-1.827-0.533-2.783
		C134.295,235.13,135.416,234.371,136.615,234.371 M136.615,232.371L136.615,232.371c-2.091,0-3.948,1.334-4.622,3.318
		c-0.546,1.622-0.198,3.43,0.905,4.724l1.294,1.518l0.933-0.791l0.165,1.218l1.981-0.267c1.853-0.25,3.374-1.505,3.972-3.276
		c0.416-1.233,0.328-2.556-0.249-3.724c-0.578-1.17-1.577-2.044-2.814-2.461C137.678,232.459,137.149,232.371,136.615,232.371
		L136.615,232.371L136.615,232.371z"/>
</g>
<g>
	<path fill-rule="evenodd" clip-rule="evenodd" fill="#A27556" d="M12.717,41.102c-1.451-0.193-2.691-1.214-3.159-2.602
		c-0.685-2.03,0.407-4.238,2.434-4.922c0.402-0.136,0.821-0.205,1.244-0.205c1.665,0,3.142,1.06,3.677,2.639
		c0.434,1.286,0.159,2.725-0.719,3.754l-0.646,0.759l-1.566-1.327l-0.276,2.035L12.717,41.102z"/>
	<path fill="#4F392A" d="M13.235,34.373c1.202,0,2.323,0.758,2.73,1.959c0.324,0.958,0.122,2.017-0.533,2.785l-2.197-1.861
		l-0.387,2.854c-1.086-0.145-1.994-0.896-2.344-1.931c-0.509-1.508,0.299-3.146,1.807-3.654
		C12.618,34.422,12.929,34.373,13.235,34.373 M13.235,32.373c-0.532,0-1.059,0.087-1.565,0.259
		c-1.234,0.416-2.233,1.291-2.811,2.461c-0.577,1.168-0.666,2.492-0.249,3.727c0.59,1.746,2.15,3.031,3.975,3.273l1.978,0.263
		l0.165-1.215l0.934,0.792l1.293-1.518c1.104-1.296,1.451-3.105,0.905-4.722C17.187,33.706,15.329,32.373,13.235,32.373
		L13.235,32.373z"/>
</g>
<g>
	<path fill-rule="evenodd" clip-rule="evenodd" fill="#A27556" d="M34.872,36.197l-1.566,1.328l-0.647-0.759
		c-0.876-1.029-1.151-2.467-0.718-3.753c0.533-1.579,2.01-2.64,3.676-2.64c0.422,0,0.841,0.069,1.244,0.206
		c0.981,0.331,1.775,1.026,2.235,1.956c0.46,0.931,0.53,1.984,0.198,2.967c-0.474,1.403-1.682,2.401-3.153,2.603l-0.992,0.136
		L34.872,36.197z"/>
	<path fill="#4F392A" d="M35.617,31.372c0.306,0,0.617,0.049,0.923,0.153c1.508,0.509,2.317,2.146,1.807,3.654
		c-0.35,1.036-1.257,1.784-2.341,1.933l-0.389-2.856l-2.197,1.862c-0.655-0.769-0.854-1.827-0.531-2.786
		C33.294,32.13,34.416,31.372,35.617,31.372 M35.617,29.372L35.617,29.372c-2.095,0-3.953,1.334-4.624,3.32
		c-0.546,1.618-0.199,3.428,0.904,4.723l1.294,1.518l0.936-0.793l0.167,1.226l1.983-0.271c1.849-0.253,3.369-1.508,3.965-3.274
		c0.418-1.234,0.33-2.559-0.249-3.729c-0.579-1.169-1.578-2.043-2.813-2.46C36.675,29.458,36.149,29.372,35.617,29.372
		L35.617,29.372z"/>
</g>
<g>
	<path fill-rule="evenodd" clip-rule="evenodd" fill="#A27556" d="M62.715,41.102c-1.448-0.193-2.688-1.214-3.157-2.602
		c-0.333-0.982-0.263-2.036,0.198-2.966c0.46-0.93,1.254-1.625,2.236-1.956c0.402-0.136,0.821-0.206,1.244-0.206
		c1.665,0,3.143,1.06,3.678,2.639c0.432,1.29,0.156,2.728-0.72,3.755l-0.646,0.758l-1.567-1.327l-0.277,2.036L62.715,41.102z"/>
	<path fill="#4F392A" d="M63.236,34.373c1.202,0,2.323,0.758,2.73,1.959c0.321,0.958,0.122,2.017-0.533,2.785l-2.197-1.861
		l-0.389,2.854c-1.084-0.145-1.992-0.896-2.342-1.931c-0.511-1.508,0.299-3.146,1.807-3.654
		C62.618,34.422,62.93,34.373,63.236,34.373 M63.236,32.373c-0.532,0-1.059,0.087-1.565,0.258c-1.233,0.417-2.232,1.291-2.811,2.46
		c-0.579,1.17-0.667,2.495-0.248,3.73c0.59,1.744,2.149,3.029,3.972,3.271l1.977,0.264l0.166-1.217l0.936,0.792l1.293-1.517
		c1.102-1.293,1.45-3.101,0.908-4.719C67.188,33.706,65.33,32.373,63.236,32.373L63.236,32.373z"/>
</g>
<g>
	<path fill-rule="evenodd" clip-rule="evenodd" fill="#A27556" d="M85.872,39.196l-1.568,1.329l-0.646-0.759
		c-0.877-1.031-1.15-2.47-0.713-3.756c0.532-1.577,2.009-2.637,3.673-2.637c0.423,0,0.842,0.069,1.244,0.206
		c0.982,0.331,1.777,1.026,2.237,1.957s0.529,1.984,0.194,2.966c-0.468,1.386-1.706,2.407-3.154,2.6l-0.987,0.132L85.872,39.196z"/>
	<path fill="#4F392A" d="M86.617,34.373c0.307,0,0.617,0.049,0.923,0.153c1.51,0.509,2.319,2.146,1.807,3.654
		c-0.35,1.035-1.257,1.786-2.34,1.931l-0.391-2.854l-2.197,1.861c-0.654-0.769-0.854-1.827-0.528-2.785
		C84.296,35.131,85.417,34.373,86.617,34.373 M86.617,32.373L86.617,32.373c-2.094,0-3.951,1.334-4.621,3.32
		c-0.549,1.613-0.205,3.423,0.9,4.721l1.293,1.519l0.939-0.795l0.167,1.219l1.976-0.264c1.822-0.243,3.381-1.528,3.97-3.273
		c0.419-1.232,0.332-2.557-0.246-3.728c-0.579-1.171-1.579-2.045-2.816-2.462C87.677,32.459,87.149,32.373,86.617,32.373
		L86.617,32.373z"/>
</g>
<g>
	<path fill-rule="evenodd" clip-rule="evenodd" fill="#A27556" d="M113.711,38.102c-1.469-0.202-2.676-1.199-3.151-2.603
		c-0.334-0.981-0.265-2.035,0.195-2.965s1.255-1.626,2.239-1.958c0.401-0.136,0.819-0.205,1.242-0.205
		c1.663,0,3.142,1.06,3.678,2.637c0.434,1.291,0.157,2.729-0.719,3.756l-0.646,0.759l-1.567-1.329l-0.279,2.042L113.711,38.102z"/>
	<path fill="#4F392A" d="M114.236,31.372c1.201,0,2.323,0.758,2.731,1.959c0.321,0.958,0.122,2.017-0.533,2.786l-2.197-1.862
		l-0.391,2.856c-1.082-0.148-1.989-0.897-2.34-1.933c-0.513-1.508,0.297-3.146,1.807-3.654
		C113.619,31.421,113.931,31.372,114.236,31.372 M114.236,29.372c-0.532,0-1.059,0.087-1.564,0.259
		c-1.234,0.416-2.234,1.29-2.813,2.461c-0.578,1.17-0.665,2.496-0.245,3.731c0.597,1.763,2.115,3.017,3.962,3.27l1.981,0.272
		l0.168-1.228l0.938,0.795l1.294-1.518c1.102-1.293,1.449-3.101,0.907-4.719C118.187,30.704,116.328,29.372,114.236,29.372
		L114.236,29.372z"/>
</g>
<g>
	<path fill-rule="evenodd" clip-rule="evenodd" fill="#A27556" d="M135.871,39.198l-1.565,1.326l-0.646-0.758
		c-0.876-1.027-1.152-2.465-0.721-3.752c0.538-1.582,2.017-2.642,3.68-2.642c0.423,0,0.841,0.069,1.244,0.206
		c0.981,0.331,1.776,1.026,2.235,1.957c0.459,0.929,0.529,1.982,0.197,2.964c-0.476,1.409-1.687,2.406-3.159,2.602l-0.989,0.131
		L135.871,39.198z"/>
	<path fill="#4F392A" d="M136.618,34.373c0.306,0,0.617,0.049,0.923,0.153c1.51,0.509,2.315,2.146,1.807,3.654
		c-0.35,1.035-1.257,1.786-2.344,1.931l-0.387-2.854l-2.197,1.861c-0.655-0.769-0.854-1.827-0.533-2.785
		C134.295,35.131,135.417,34.373,136.618,34.373 M136.618,32.373L136.618,32.373c-2.092,0-3.95,1.332-4.625,3.315
		c-0.545,1.626-0.197,3.434,0.905,4.727l1.293,1.517l0.934-0.791l0.165,1.215l1.978-0.263c1.854-0.246,3.376-1.5,3.975-3.273
		c0.417-1.236,0.329-2.559-0.247-3.727c-0.578-1.171-1.578-2.046-2.815-2.463C137.677,32.459,137.15,32.373,136.618,32.373
		L136.618,32.373z"/>
</g>
<g>
	<path fill-rule="evenodd" clip-rule="evenodd" fill="#A27556" d="M26.375,142.949c-0.712,0-1.411-0.195-2.02-0.566
		c-1.828-1.111-2.411-3.504-1.299-5.333c0.711-1.168,1.952-1.864,3.32-1.864c0.709,0,1.405,0.195,2.013,0.564
		c1.159,0.703,1.873,1.981,1.864,3.335l-0.006,0.999l-2.055-0.01l1.099,1.74l-0.844,0.534
		C27.826,142.742,27.11,142.949,26.375,142.949z"/>
	<path fill="#4F392A" d="M26.376,136.186c0.51,0,1.026,0.135,1.494,0.419c0.865,0.525,1.39,1.465,1.383,2.475l-2.881-0.013
		l1.54,2.438c-0.469,0.297-1.003,0.445-1.537,0.445c-0.519,0-1.039-0.141-1.5-0.421c-1.359-0.826-1.79-2.601-0.964-3.959
		C24.454,136.678,25.403,136.186,26.376,136.186 M26.376,134.186c-1.72,0-3.28,0.876-4.174,2.344
		c-1.399,2.302-0.666,5.311,1.633,6.708c0.766,0.466,1.644,0.712,2.54,0.712c0.924,0,1.826-0.261,2.607-0.756l1.688-1.068
		l-0.659-1.043l1.229,0.006l0.013-1.996c0.011-1.703-0.888-3.312-2.345-4.196C28.143,134.431,27.268,134.186,26.376,134.186
		L26.376,134.186z"/>
</g>
<g>
	<path fill-rule="evenodd" clip-rule="evenodd" fill="#A27556" d="M74.738,143.115c-0.942,0-1.852-0.343-2.562-0.965
		c-0.78-0.686-1.245-1.632-1.312-2.668c-0.066-1.035,0.274-2.034,0.959-2.813c0.737-0.837,1.8-1.317,2.916-1.317
		c0.943,0,1.853,0.343,2.562,0.965c1.017,0.895,1.498,2.276,1.259,3.606l-0.178,0.985l-2.025-0.366l0.778,1.9l-0.922,0.381
		C75.743,143.017,75.247,143.115,74.738,143.115z"/>
	<path fill="#4F392A" d="M74.739,136.352c0.676,0,1.354,0.236,1.902,0.717c0.759,0.668,1.112,1.685,0.934,2.678l-2.836-0.513
		l1.092,2.665c-0.354,0.146-0.725,0.217-1.093,0.217c-0.689,0-1.368-0.248-1.903-0.717c-1.194-1.05-1.313-2.873-0.261-4.069
		C73.144,136.683,73.939,136.352,74.739,136.352 M74.739,134.352c-1.403,0-2.74,0.604-3.666,1.656
		c-0.862,0.98-1.291,2.237-1.207,3.539c0.084,1.302,0.669,2.493,1.648,3.354c0.895,0.784,2.039,1.215,3.224,1.215
		c0.64,0,1.265-0.124,1.856-0.368l1.844-0.761l-0.465-1.136l1.216,0.22l0.354-1.97c0.301-1.673-0.305-3.41-1.581-4.533
		C77.068,134.782,75.925,134.352,74.739,134.352L74.739,134.352z"/>
</g>
<g>
	<path fill-rule="evenodd" clip-rule="evenodd" fill="#A27556" d="M123.101,142.997c-1.186,0-2.29-0.531-3.032-1.458
		c-0.646-0.806-0.941-1.818-0.828-2.848c0.113-1.032,0.621-1.958,1.432-2.606c0.687-0.55,1.548-0.853,2.425-0.853
		c1.186,0,2.29,0.529,3.032,1.454c0.846,1.059,1.079,2.503,0.611,3.771l-0.347,0.938l-1.931-0.712l0.437,2.013l-0.979,0.212
		C123.651,142.968,123.376,142.997,123.101,142.997z"/>
	<path fill="#4F392A" d="M123.097,136.232c0.846,0,1.683,0.37,2.253,1.08c0.631,0.79,0.802,1.852,0.452,2.8l-2.702-0.997l0.61,2.816
		c-0.203,0.044-0.407,0.065-0.609,0.065c-0.865,0-1.697-0.391-2.251-1.083c-0.997-1.241-0.793-3.056,0.447-4.049
		C121.829,136.438,122.465,136.232,123.097,136.232 M123.097,134.232c-1.104,0-2.187,0.381-3.05,1.071
		c-1.019,0.816-1.658,1.98-1.801,3.278c-0.143,1.296,0.229,2.568,1.044,3.585c0.93,1.161,2.319,1.83,3.811,1.83
		c0.346,0,0.693-0.037,1.032-0.11l1.955-0.423l-0.262-1.211l1.16,0.429l0.692-1.878c0.588-1.595,0.294-3.411-0.767-4.739
		C125.976,134.898,124.587,134.232,123.097,134.232L123.097,134.232z"/>
</g>
<path fill-rule="evenodd" clip-rule="evenodd" fill="#4F392A" d="M114.168,89.481l-0.26,1.892c-1.229-0.168-2.178-0.201-3.203-1.047
	c-2.763-2.285-1.424-6.865,2.242-7.18l-0.838,1.457l0.203-0.078c1.607-0.545,3.316,0.407,3.724,2.051l0.789-1.375
	c1.266,2.231,0.204,3.859-1.204,5.516L114.168,89.481z"/>
<path fill-rule="evenodd" clip-rule="evenodd" fill="#A27556" d="M113.289,87.193l-0.387,2.856
	c-1.086-0.146-1.993-0.897-2.344-1.933c-0.508-1.507,0.302-3.145,1.807-3.654c1.51-0.508,3.146,0.299,3.654,1.807
	c0.321,0.958,0.122,2.016-0.533,2.785L113.289,87.193z"/>
<path fill-rule="evenodd" clip-rule="evenodd" fill="#4F392A" d="M85.742,89.545l-1.457,1.235c-1.408-1.66-2.458-3.259-1.213-5.501
	l0.745,1.298c0.439-1.778,2.246-2.616,3.927-1.973l-0.802-1.394c1.412,0.112,2.677,0.955,3.316,2.246
	c0.46,0.93,0.565,2.041,0.207,3.101c-0.248,0.729-0.691,1.359-1.266,1.833c-1.025,0.846-1.969,0.879-3.202,1.047L85.742,89.545z"/>
<path fill-rule="evenodd" clip-rule="evenodd" fill="#A27556" d="M86.621,87.256l0.386,2.854c1.087-0.146,1.994-0.896,2.344-1.931
	c0.509-1.508-0.301-3.146-1.807-3.654c-1.509-0.511-3.145,0.299-3.653,1.807c-0.326,0.957-0.122,2.017,0.528,2.785L86.621,87.256z"
	/>
<path fill-rule="evenodd" clip-rule="evenodd" fill="#4F392A" d="M64.115,89.545l-0.256,1.892c-1.233-0.168-2.177-0.199-3.205-1.047
	c-2.818-2.33-1.359-6.879,2.258-7.18l-0.801,1.394c1.68-0.643,3.485,0.195,3.924,1.973l0.747-1.3
	c1.249,2.238,0.195,3.845-1.211,5.503L64.115,89.545z"/>
<path fill-rule="evenodd" clip-rule="evenodd" fill="#A27556" d="M63.236,87.256c-0.129,0.952-0.258,1.903-0.387,2.854
	c-3.256-0.44-3.173-5.131-0.075-5.699c0.437-0.08,0.901-0.04,1.323,0.094c1.9,0.6,2.7,3.011,1.338,4.612
	C64.702,88.497,63.969,87.876,63.236,87.256z"/>
<path fill-rule="evenodd" clip-rule="evenodd" fill="#4F392A" d="M16.118,87.585l-0.256,1.892c-1.231-0.167-2.177-0.199-3.203-1.048
	c-2.813-2.325-1.355-6.868,2.228-7.178l-0.775,1.349c1.681-0.641,3.485,0.197,3.923,1.973l0.506-0.879v3.965
	c-0.283,0.395-0.649,0.788-0.966,1.16L16.118,87.585z"/>
<path fill-rule="evenodd" clip-rule="evenodd" fill="#A27556" d="M15.241,85.297l-0.389,2.856c-1.084-0.146-1.992-0.897-2.342-1.933
	c-0.511-1.507,0.299-3.143,1.807-3.652c1.508-0.511,3.144,0.297,3.652,1.807c0.325,0.956,0.124,2.014-0.531,2.785L15.241,85.297z"/>
<path fill-rule="evenodd" clip-rule="evenodd" fill="#4F392A" d="M133.753,87.602l-1.457,1.235c-0.325-0.381-0.7-0.781-0.984-1.185
	l0.008-3.947l0.501,0.869c0.435-1.776,2.241-2.614,3.922-1.973l-0.769-1.335c2.628,0.226,4.346,2.863,3.503,5.347
	c-0.248,0.729-0.691,1.359-1.266,1.833c-1.025,0.846-1.973,0.879-3.202,1.047L133.753,87.602z"/>
<path fill-rule="evenodd" clip-rule="evenodd" fill="#A27556" d="M134.628,85.313l0.391,2.854c1.082-0.146,1.989-0.896,2.344-1.931
	c0.509-1.507-0.302-3.145-1.812-3.654c-1.505-0.511-3.141,0.299-3.649,1.807c-0.325,0.957-0.126,2.016,0.529,2.785L134.628,85.313z"
	/>
<path fill-rule="evenodd" clip-rule="evenodd" fill="#4F392A" d="M35.924,89.823l-1.457,1.235c-1.399-1.65-2.451-3.247-1.223-5.481
	l0.574,0.999c0.438-1.778,2.242-2.616,3.925-1.973L37.1,83.486c2.651,0.197,4.396,2.844,3.548,5.349
	c-0.751,2.216-2.405,2.6-4.466,2.881L35.924,89.823z"/>
<path fill-rule="evenodd" clip-rule="evenodd" fill="#A27556" d="M36.803,87.535l0.387,2.854c1.084-0.146,1.992-0.896,2.344-1.931
	c0.508-1.507-0.301-3.145-1.809-3.654c-1.505-0.511-3.143,0.299-3.652,1.807c-0.323,0.957-0.122,2.016,0.531,2.785L36.803,87.535z"
	/>
</svg>
