<svg xmlns="http://www.w3.org/2000/svg" width="150" height="250" viewBox="0 0 150 250"><g id="Layer_3"><g><g><path fill-rule="evenodd" clip-rule="evenodd" fill="#BBB" d="M23.629 192.948c-.734 0-1.45-.207-2.072-.598l-.848-.533 1.1-1.743-2.057.009-.006-.998a3.897 3.897 0 011.863-3.334 3.867 3.867 0 012.017-.568c1.368 0 2.609.698 3.319 1.867.539.886.7 1.928.454 2.936a3.855 3.855 0 01-1.756 2.397 3.868 3.868 0 01-2.014.565z"/></g><g><path fill="#484848" d="M23.626 186.183a2.881 2.881 0 11-1.537 5.322l1.538-2.438-2.881.013a2.882 2.882 0 012.88-2.897m0-2c-.895 0-1.772.247-2.539.715a4.904 4.904 0 00-2.341 4.193l.012 1.997 1.232-.006-.661 1.049 1.696 1.066a4.888 4.888 0 005.141.039 4.852 4.852 0 002.206-3.014 4.848 4.848 0 00-.571-3.692 4.852 4.852 0 00-4.175-2.347z"/></g></g><g><g><path fill-rule="evenodd" clip-rule="evenodd" fill="#BBB" d="M75.261 193.113a3.873 3.873 0 01-1.472-.289l-.926-.379.78-1.903-2.021.366-.179-.982a3.898 3.898 0 011.255-3.608 3.887 3.887 0 012.565-.967c1.117 0 2.179.48 2.915 1.319a3.888 3.888 0 01-.352 5.479 3.898 3.898 0 01-2.565.964z"/></g><g><path fill="#484848" d="M75.262 186.351c.8 0 1.595.331 2.163.979a2.88 2.88 0 01-3.258 4.569l1.092-2.665-2.834.513a2.881 2.881 0 012.837-3.396m0-2a4.89 4.89 0 00-3.224 1.215 4.906 4.906 0 00-1.58 4.54l.358 1.964 1.209-.219-.468 1.142 1.853.758a4.888 4.888 0 005.071-.847c2.025-1.786 2.223-4.877.444-6.896a4.87 4.87 0 00-3.663-1.657z"/></g></g><g><g><path fill-rule="evenodd" clip-rule="evenodd" fill="#BBB" d="M126.897 192.997a3.86 3.86 0 01-.822-.088l-.979-.211.438-2.015-1.928.714-.347-.939a3.91 3.91 0 01.609-3.77 3.855 3.855 0 013.03-1.458c.878 0 1.741.304 2.429.854a3.853 3.853 0 011.431 2.603 3.868 3.868 0 01-.827 2.852 3.866 3.866 0 01-3.034 1.458z"/></g><g><path fill="#484848" d="M126.899 186.23a2.882 2.882 0 11-.613 5.702l.614-2.82-2.702 1.001a2.885 2.885 0 012.701-3.883m0-2a4.848 4.848 0 00-3.813 1.836 4.912 4.912 0 00-.765 4.737l.693 1.88 1.154-.428-.264 1.209 1.96.422c.339.073.687.11 1.032.11a4.885 4.885 0 00.003-9.766z"/></g></g><g><g><path fill-rule="evenodd" clip-rule="evenodd" fill="#BBB" d="M12.715 241.1a3.856 3.856 0 01-3.158-2.604 3.86 3.86 0 01.198-2.962 3.85 3.85 0 012.236-1.955 3.88 3.88 0 014.202 6.186l-.647.76-1.565-1.328-.276 2.038-.99-.135z"/></g><g><path fill="#484848" d="M13.238 234.371c1.201 0 2.321.759 2.728 1.961a2.872 2.872 0 01-.533 2.783l-2.197-1.863-.387 2.856a2.879 2.879 0 01-.537-5.583c.307-.104.619-.154.926-.154m0-2a4.86 4.86 0 00-1.57.261 4.841 4.841 0 00-2.808 2.458 4.846 4.846 0 00-.249 3.727 4.848 4.848 0 003.971 3.274l1.981.267.165-1.218.934.792 1.294-1.52a4.881 4.881 0 00-3.718-8.041z"/></g></g><g><g><path fill-rule="evenodd" clip-rule="evenodd" fill="#BBB" d="M62.713 241.1a3.855 3.855 0 01-3.155-2.604 3.843 3.843 0 01.197-2.961 3.852 3.852 0 012.237-1.957 3.88 3.88 0 014.201 6.186l-.647.76-1.566-1.329-.277 2.039-.99-.134z"/></g><g><path fill="#484848" d="M63.238 234.371a2.88 2.88 0 012.195 4.744l-2.197-1.863-.389 2.856a2.88 2.88 0 01-2.342-1.933 2.877 2.877 0 011.807-3.65c.307-.104.619-.154.926-.154m0-2a4.86 4.86 0 00-1.57.261 4.848 4.848 0 00-2.81 2.46 4.842 4.842 0 00-.247 3.727 4.848 4.848 0 003.968 3.272l1.98.267.166-1.22.936.793 1.294-1.518a4.88 4.88 0 00-3.717-8.042z"/></g></g><g><g><path fill-rule="evenodd" clip-rule="evenodd" fill="#BBB" d="M112.716 241.1a3.855 3.855 0 01-3.157-2.604 3.857 3.857 0 01.197-2.963 3.846 3.846 0 012.237-1.955 3.877 3.877 0 014.921 2.435 3.892 3.892 0 01-.72 3.751l-.646.76-1.565-1.328-.276 2.038-.991-.134z"/></g><g><path fill="#484848" d="M113.238 234.371a2.88 2.88 0 012.196 4.744l-2.197-1.863-.387 2.856a2.88 2.88 0 01.388-5.737m0-2c-.534 0-1.063.088-1.57.261a4.844 4.844 0 00-2.809 2.459 4.852 4.852 0 00-.248 3.726 4.852 4.852 0 003.971 3.274l1.981.267.165-1.218.933.791 1.294-1.518a4.897 4.897 0 00.907-4.718 4.876 4.876 0 00-4.624-3.324z"/></g></g><g><g><path fill-rule="evenodd" clip-rule="evenodd" fill="#BBB" d="M35.872 239.196l-1.565 1.327-.647-.76a3.889 3.889 0 01-.72-3.752 3.876 3.876 0 014.923-2.433 3.847 3.847 0 012.234 1.954c.459.929.529 1.981.198 2.963a3.857 3.857 0 01-3.157 2.604l-.991.134-.275-2.037z"/></g><g><path fill="#484848" d="M36.615 234.371a2.88 2.88 0 01.389 5.737l-.386-2.856-2.197 1.863a2.88 2.88 0 012.194-4.744m0-2a4.875 4.875 0 00-4.623 3.322 4.894 4.894 0 00.907 4.72l1.294 1.518.932-.791.165 1.218 1.981-.267a4.851 4.851 0 003.972-3.276 4.846 4.846 0 00-.25-3.725 4.84 4.84 0 00-2.813-2.459 4.833 4.833 0 00-1.565-.26z"/></g></g><g><g><path fill-rule="evenodd" clip-rule="evenodd" fill="#BBB" d="M85.872 239.193l-1.567 1.33-.647-.76a3.885 3.885 0 012.958-6.393c.424 0 .844.07 1.247.208a3.848 3.848 0 012.237 1.957c.459.929.527 1.981.193 2.962a3.855 3.855 0 01-3.152 2.602l-.989.134-.28-2.04z"/></g><g><path fill="#484848" d="M86.615 234.371c.307 0 .618.05.925.154a2.876 2.876 0 011.807 3.65 2.88 2.88 0 01-2.34 1.933l-.391-2.856-2.197 1.863a2.868 2.868 0 01-.528-2.783 2.878 2.878 0 012.724-1.961m0-2a4.874 4.874 0 00-4.62 3.322 4.887 4.887 0 00.901 4.719l1.294 1.52.938-.796.167 1.223 1.979-.269a4.847 4.847 0 003.967-3.275 4.84 4.84 0 00-.246-3.722 4.849 4.849 0 00-2.817-2.463 4.843 4.843 0 00-1.563-.259z"/></g></g><g><g><path fill-rule="evenodd" clip-rule="evenodd" fill="#BBB" d="M135.871 239.195l-1.565 1.328-.646-.76a3.896 3.896 0 01-.721-3.75 3.885 3.885 0 013.677-2.643c.424 0 .844.07 1.248.208a3.844 3.844 0 012.234 1.954c.459.929.529 1.981.197 2.963a3.858 3.858 0 01-3.157 2.604l-.99.134-.277-2.038z"/></g><g><path fill="#484848" d="M136.615 234.371c.307 0 .619.05.926.154a2.879 2.879 0 01-.537 5.583l-.387-2.856-2.197 1.863a2.88 2.88 0 012.195-4.744m0-2a4.883 4.883 0 00-4.622 3.318 4.902 4.902 0 00.905 4.724l1.294 1.518.933-.791.165 1.218 1.981-.267a4.85 4.85 0 003.972-3.276 4.853 4.853 0 00-.249-3.724 4.843 4.843 0 00-2.814-2.461 4.855 4.855 0 00-1.565-.259z"/></g></g><g><g><path fill-rule="evenodd" clip-rule="evenodd" fill="#BBB" d="M12.717 41.102A3.898 3.898 0 019.558 38.5a3.887 3.887 0 013.678-5.127 3.88 3.88 0 012.958 6.393l-.646.759-1.566-1.327-.276 2.035-.989-.131z"/></g><g><path fill="#484848" d="M13.235 34.373c1.202 0 2.323.758 2.73 1.959a2.874 2.874 0 01-.533 2.785l-2.197-1.861-.387 2.854a2.882 2.882 0 01.387-5.737m0-2c-.532 0-1.059.087-1.565.259a4.843 4.843 0 00-2.811 2.461 4.855 4.855 0 00-.249 3.727 4.906 4.906 0 003.975 3.273l1.978.263.165-1.215.934.792 1.293-1.518a4.88 4.88 0 00-3.72-8.042z"/></g></g><g><g><path fill-rule="evenodd" clip-rule="evenodd" fill="#BBB" d="M34.872 36.197l-1.566 1.328-.647-.759a3.898 3.898 0 01-.718-3.753 3.878 3.878 0 014.92-2.434 3.853 3.853 0 012.235 1.956c.46.931.53 1.984.198 2.967a3.863 3.863 0 01-3.153 2.603l-.992.136-.277-2.044z"/></g><g><path fill="#484848" d="M35.617 31.372a2.882 2.882 0 01.389 5.74l-.389-2.856-2.197 1.862a2.878 2.878 0 01-.531-2.786 2.88 2.88 0 012.728-1.96m0-2a4.878 4.878 0 00-4.624 3.32 4.902 4.902 0 00.904 4.723l1.294 1.518.936-.793.167 1.226 1.983-.271a4.855 4.855 0 003.965-3.274 4.848 4.848 0 00-.249-3.729 4.852 4.852 0 00-2.813-2.46 4.786 4.786 0 00-1.563-.26z"/></g></g><g><g><path fill-rule="evenodd" clip-rule="evenodd" fill="#BBB" d="M62.715 41.102a3.901 3.901 0 01-3.157-2.602 3.85 3.85 0 01.198-2.966 3.852 3.852 0 012.236-1.956 3.877 3.877 0 014.922 2.433 3.903 3.903 0 01-.72 3.755l-.646.758-1.567-1.327-.277 2.036-.989-.131z"/></g><g><path fill="#484848" d="M63.236 34.373a2.882 2.882 0 012.197 4.744l-2.197-1.861-.389 2.854a2.88 2.88 0 01.389-5.737m0-2c-.532 0-1.059.087-1.565.258a4.854 4.854 0 00-2.811 2.46 4.845 4.845 0 00-.248 3.73 4.906 4.906 0 003.972 3.271l1.977.264.166-1.217.936.792 1.293-1.517a4.908 4.908 0 00.908-4.719 4.887 4.887 0 00-4.628-3.322z"/></g></g><g><g><path fill-rule="evenodd" clip-rule="evenodd" fill="#BBB" d="M85.872 39.196l-1.568 1.329-.646-.759a3.89 3.89 0 01-.713-3.756 3.875 3.875 0 014.917-2.431c.982.331 1.777 1.026 2.237 1.957s.529 1.984.194 2.966a3.897 3.897 0 01-3.154 2.6l-.987.132-.28-2.038z"/></g><g><path fill="#484848" d="M86.617 34.373a2.879 2.879 0 012.73 3.807 2.877 2.877 0 01-2.34 1.931l-.391-2.854-2.197 1.861a2.87 2.87 0 01-.528-2.785 2.879 2.879 0 012.726-1.96m0-2a4.874 4.874 0 00-4.621 3.32 4.888 4.888 0 00.9 4.721l1.293 1.519.939-.795.167 1.219 1.976-.264a4.905 4.905 0 003.97-3.273 4.845 4.845 0 00-.246-3.728 4.848 4.848 0 00-2.816-2.462 4.844 4.844 0 00-1.562-.257z"/></g></g><g><g><path fill-rule="evenodd" clip-rule="evenodd" fill="#BBB" d="M113.711 38.102a3.862 3.862 0 01-3.151-2.603c-.334-.981-.265-2.035.195-2.965s1.255-1.626 2.239-1.958a3.886 3.886 0 014.92 2.432 3.899 3.899 0 01-.719 3.756l-.646.759-1.567-1.329-.279 2.042-.992-.134z"/></g><g><path fill="#484848" d="M114.236 31.372c1.201 0 2.323.758 2.731 1.959a2.884 2.884 0 01-.533 2.786l-2.197-1.862-.391 2.856a2.885 2.885 0 01-2.34-1.933 2.878 2.878 0 012.73-3.806m0-2c-.532 0-1.059.087-1.564.259a4.846 4.846 0 00-2.813 2.461 4.847 4.847 0 00-.245 3.731 4.855 4.855 0 003.962 3.27l1.981.272.168-1.228.938.795 1.294-1.518a4.907 4.907 0 00.907-4.719 4.888 4.888 0 00-4.628-3.323z"/></g></g><g><g><path fill-rule="evenodd" clip-rule="evenodd" fill="#BBB" d="M135.871 39.198l-1.565 1.326-.646-.758a3.901 3.901 0 01-.721-3.752 3.888 3.888 0 014.924-2.436 3.848 3.848 0 012.235 1.957c.459.929.529 1.982.197 2.964a3.852 3.852 0 01-3.159 2.602l-.989.131-.276-2.034z"/></g><g><path fill="#484848" d="M136.618 34.373a2.882 2.882 0 01.386 5.738l-.387-2.854-2.197 1.861a2.882 2.882 0 012.198-4.745m0-2a4.885 4.885 0 00-4.625 3.315 4.91 4.91 0 00.905 4.727l1.293 1.517.934-.791.165 1.215 1.978-.263a4.842 4.842 0 003.975-3.273 4.859 4.859 0 00-.247-3.727 4.845 4.845 0 00-2.815-2.463 4.86 4.86 0 00-1.563-.257z"/></g></g><g><g><path fill-rule="evenodd" clip-rule="evenodd" fill="#BBB" d="M26.375 142.949a3.882 3.882 0 01-3.319-5.899 3.857 3.857 0 013.32-1.864 3.88 3.88 0 013.877 3.899l-.006.999-2.055-.01 1.099 1.74-.844.534a3.86 3.86 0 01-2.072.601z"/></g><g><path fill="#484848" d="M26.376 136.186c.51 0 1.026.135 1.494.419a2.872 2.872 0 011.383 2.475l-2.881-.013 1.54 2.438a2.87 2.87 0 01-1.537.445 2.883 2.883 0 11.001-5.764m0-2a4.85 4.85 0 00-4.174 2.344 4.887 4.887 0 001.633 6.708 4.885 4.885 0 005.147-.044l1.688-1.068-.659-1.043 1.229.006.013-1.996a4.897 4.897 0 00-2.345-4.196 4.864 4.864 0 00-2.532-.711z"/></g></g><g><g><path fill-rule="evenodd" clip-rule="evenodd" fill="#BBB" d="M74.738 143.115a3.888 3.888 0 01-2.562-.965 3.859 3.859 0 01-1.312-2.668 3.86 3.86 0 01.959-2.813 3.886 3.886 0 015.478-.352 3.908 3.908 0 011.259 3.606l-.178.985-2.025-.366.778 1.9-.922.381c-.47.194-.966.292-1.475.292z"/></g><g><path fill="#484848" d="M74.739 136.352c.676 0 1.354.236 1.902.717a2.89 2.89 0 01.934 2.678l-2.836-.513 1.092 2.665a2.887 2.887 0 01-2.996-.5 2.884 2.884 0 011.904-5.047m0-2c-1.403 0-2.74.604-3.666 1.656a4.851 4.851 0 00-1.207 3.539 4.853 4.853 0 001.648 3.354 4.89 4.89 0 003.224 1.215c.64 0 1.265-.124 1.856-.368l1.844-.761-.465-1.136 1.216.22.354-1.97a4.913 4.913 0 00-1.581-4.533 4.875 4.875 0 00-3.223-1.216z"/></g></g><g><g><path fill-rule="evenodd" clip-rule="evenodd" fill="#BBB" d="M123.101 142.997a3.863 3.863 0 01-3.032-1.458 3.854 3.854 0 01-.828-2.848 3.849 3.849 0 011.432-2.606 3.895 3.895 0 012.425-.853c1.186 0 2.29.529 3.032 1.454a3.906 3.906 0 01.611 3.771l-.347.938-1.931-.712.437 2.013-.979.212c-.27.06-.545.089-.82.089z"/></g><g><path fill="#484848" d="M123.097 136.232a2.881 2.881 0 012.705 3.88l-2.702-.997.61 2.816a2.885 2.885 0 01-2.413-5.067 2.87 2.87 0 011.8-.632m0-2a4.903 4.903 0 00-3.05 1.071 4.851 4.851 0 00-1.801 3.278 4.845 4.845 0 001.044 3.585 4.86 4.86 0 003.811 1.83 4.91 4.91 0 001.032-.11l1.955-.423-.262-1.211 1.16.429.692-1.878a4.912 4.912 0 00-.767-4.739 4.863 4.863 0 00-3.814-1.832z"/></g></g><path fill-rule="evenodd" clip-rule="evenodd" fill="#484848" d="M114.168 89.481l-.26 1.892c-1.229-.168-2.178-.201-3.203-1.047-2.763-2.285-1.424-6.865 2.242-7.18l-.838 1.457.203-.078a2.882 2.882 0 013.724 2.051l.789-1.375c1.266 2.231.204 3.859-1.204 5.516l-1.453-1.236z"/><path fill-rule="evenodd" clip-rule="evenodd" fill="#BBB" d="M113.289 87.193l-.387 2.856a2.882 2.882 0 112.584-.995l-2.197-1.861z"/><path fill-rule="evenodd" clip-rule="evenodd" fill="#484848" d="M85.742 89.545l-1.457 1.235c-1.408-1.66-2.458-3.259-1.213-5.501l.745 1.298c.439-1.778 2.246-2.616 3.927-1.973l-.802-1.394a4.057 4.057 0 012.257 7.18c-1.025.846-1.969.879-3.202 1.047l-.255-1.892z"/><path fill-rule="evenodd" clip-rule="evenodd" fill="#BBB" d="M86.621 87.256l.386 2.854a2.879 2.879 0 002.344-1.931 2.884 2.884 0 00-1.807-3.654 2.88 2.88 0 00-3.653 1.807 2.88 2.88 0 00.528 2.785l2.202-1.861z"/><path fill-rule="evenodd" clip-rule="evenodd" fill="#484848" d="M64.115 89.545l-.256 1.892c-1.233-.168-2.177-.199-3.205-1.047-2.818-2.33-1.359-6.879 2.258-7.18l-.801 1.394c1.68-.643 3.485.195 3.924 1.973l.747-1.3c1.249 2.238.195 3.845-1.211 5.503l-1.456-1.235z"/><path fill-rule="evenodd" clip-rule="evenodd" fill="#BBB" d="M63.236 87.256l-.387 2.854c-3.256-.44-3.173-5.131-.075-5.699.437-.08.901-.04 1.323.094 1.9.6 2.7 3.011 1.338 4.612l-2.199-1.861z"/><path fill-rule="evenodd" clip-rule="evenodd" fill="#484848" d="M16.118 87.585l-.256 1.892c-1.231-.167-2.177-.199-3.203-1.048-2.813-2.325-1.355-6.868 2.228-7.178l-.775 1.349c1.681-.641 3.485.197 3.923 1.973l.506-.879v3.965c-.283.395-.649.788-.966 1.16l-1.457-1.234z"/><path fill-rule="evenodd" clip-rule="evenodd" fill="#BBB" d="M15.241 85.297l-.389 2.856a2.88 2.88 0 01-.535-5.585 2.877 2.877 0 013.652 1.807 2.874 2.874 0 01-.531 2.785l-2.197-1.863z"/><path fill-rule="evenodd" clip-rule="evenodd" fill="#484848" d="M133.753 87.602l-1.457 1.235c-.325-.381-.7-.781-.984-1.185l.008-3.947.501.869c.435-1.776 2.241-2.614 3.922-1.973l-.769-1.335c2.628.226 4.346 2.863 3.503 5.347a4.073 4.073 0 01-1.266 1.833c-1.025.846-1.973.879-3.202 1.047l-.256-1.891z"/><path fill-rule="evenodd" clip-rule="evenodd" fill="#BBB" d="M134.628 85.313l.391 2.854a2.892 2.892 0 002.344-1.931 2.884 2.884 0 00-1.812-3.654 2.877 2.877 0 00-3.649 1.807 2.872 2.872 0 00.529 2.785l2.197-1.861z"/><path fill-rule="evenodd" clip-rule="evenodd" fill="#484848" d="M35.924 89.823l-1.457 1.235c-1.399-1.65-2.451-3.247-1.223-5.481l.574.999c.438-1.778 2.242-2.616 3.925-1.973l-.643-1.117c2.651.197 4.396 2.844 3.548 5.349-.751 2.216-2.405 2.6-4.466 2.881l-.258-1.893z"/><path fill-rule="evenodd" clip-rule="evenodd" fill="#BBB" d="M36.803 87.535l.387 2.854a2.886 2.886 0 002.344-1.931 2.885 2.885 0 00-1.809-3.654 2.88 2.88 0 00-3.121 4.592l2.199-1.861z"/></g></svg>