<?xml version="1.0" encoding="utf-8"?>
<!-- Generator: Adobe Illustrator 16.0.0, SVG Export Plug-In . SVG Version: 6.00 Build 0)  -->
<!DOCTYPE svg PUBLIC "-//W3C//DTD SVG 1.1//EN" "http://www.w3.org/Graphics/SVG/1.1/DTD/svg11.dtd">
<svg version="1.1" id="Layer_3" xmlns="http://www.w3.org/2000/svg" xmlns:xlink="http://www.w3.org/1999/xlink" x="0px" y="0px"
	 width="150px" height="250px" viewBox="0 0 150 250" enable-background="new 0 0 150 250" xml:space="preserve">
<g>
	<polygon fill-rule="evenodd" clip-rule="evenodd" fill="#A27556" points="13.5,39.2 13.5,36.9 25.1,37.2 25.1,39.6 	"/>
	<path fill="#4F4335" d="M14.5,37.9l9.6,0.3l0,0.4l-9.6-0.3L14.5,37.9 M12.6,35.9l-0.1,2l0,0.4l-0.1,2l2,0.1l9.6,0.3l2,0.1l0-2
		l0-0.4l0-2l-2-0.1l-9.6-0.3L12.6,35.9L12.6,35.9z"/>
</g>
<g>
	<polygon fill-rule="evenodd" clip-rule="evenodd" fill="#E8AD0B" points="21.6,40.9 18.8,41 19.8,38.2 18.9,35.5 21.7,35.7 
		24,33.9 24.7,36.8 26.9,38.4 24.6,40 23.8,42.9 	"/>
	<path fill="#5C5109" d="M23.4,35.6l0.4,1.7l1.4,1l-1.4,1l-0.5,1.7l-1.3-1.2l-1.7,0l0.6-1.7l-0.5-1.7l1.7,0.1L23.4,35.6 M24.6,32.1
		L22.2,34l-0.8,0.6l-0.9-0.1l-2.9-0.2l0.9,2.8l0.3,1l-0.4,1l-1,2.7l2.9,0l0.9,0l0.7,0.6l2.3,2.1l0.9-3l0.3-1l0.8-0.6l2.3-1.6
		l-2.3-1.7l-0.8-0.6l-0.3-1L24.6,32.1L24.6,32.1z"/>
</g>
<g>
	<polygon fill-rule="evenodd" clip-rule="evenodd" fill="#A27556" points="26.4,139.8 26.5,137.5 38.1,137.8 38,140.1 	"/>
	<path fill="#4F4335" d="M27.5,138.5l9.6,0.3l0,0.4l-9.6-0.3L27.5,138.5 M25.5,136.4l0,2l0,0.4l0,2l2,0.1l9.6,0.3l2,0.1l0-2l0-0.4
		l0-2l-2-0.1l-9.6-0.3L25.5,136.4L25.5,136.4z"/>
</g>
<g>
	<polygon fill-rule="evenodd" clip-rule="evenodd" fill="#E8AD0B" points="34.5,141.5 31.7,141.5 32.8,138.8 31.9,136 34.7,136.2 
		37,134.4 37.7,137.3 39.9,139 37.6,140.6 36.7,143.4 	"/>
	<path fill="#5C5109" d="M36.4,136.2l0.4,1.8l1.4,1l-1.4,1l-0.5,1.7l-1.3-1.2l-1.7,0l0.6-1.7l-0.5-1.7l1.7,0.1L36.4,136.2
		 M37.6,132.7l-2.5,1.9l-0.8,0.6l-0.9-0.1l-2.9-0.2l0.9,2.8l0.3,1l-0.4,1l-1,2.7l2.9,0l0.9,0l0.7,0.6l2.3,2.1l0.9-3l0.3-1l0.8-0.6
		l2.3-1.6l-2.3-1.7l-0.8-0.6l-0.3-1L37.6,132.7L37.6,132.7z"/>
</g>
<g>
	<polygon fill-rule="evenodd" clip-rule="evenodd" fill="#A27556" points="12.4,237.9 14.4,236.7 20.1,245.6 18.1,246.9 	"/>
	<path fill="#4F4335" d="M14.1,238l4.7,7.3l-0.3,0.2l-4.7-7.3L14.1,238 M14.7,235.3l-1.7,1l-0.3,0.2l-1.7,1.1l1.1,1.7l4.7,7.3
		l1.1,1.7l1.7-1.1l0.3-0.2l1.7-1.1l-1.1-1.7l-4.7-7.3L14.7,235.3L14.7,235.3z"/>
</g>
<g>
	<polygon fill-rule="evenodd" clip-rule="evenodd" fill="#E8AD0B" points="17.5,246.8 14.7,247.7 15,244.8 13.5,242.5 16.3,241.8 
		18.1,239.5 19.5,241.9 22.3,242.8 20.2,245 20.1,247.8 	"/>
	<path fill="#5C5109" d="M18,241.3l0.9,1.5l1.7,0.5l-1.2,1.3l-0.1,1.7l-1.6-0.7l-1.7,0.5l0.2-1.7l-1-1.4l1.7-0.4L18,241.3
		 M18.2,237.8l-1.8,2.3l-0.7,0.9l-1.1,0.3l-2.9,0.7l1.7,2.4L14,245l-0.1,1l-0.4,3.1l3-0.9l1-0.3l0.9,0.4l2.6,1.1l0.1-2.8l0.1-1
		l0.7-0.8l2.1-2.3l-3-1l-0.9-0.3l-0.5-0.8L18.2,237.8L18.2,237.8z"/>
</g>
<g>
	<polygon fill-rule="evenodd" clip-rule="evenodd" fill="#A27556" points="62.4,237.9 64.4,236.7 70.1,245.6 68.1,246.9 	"/>
	<path fill="#4F4335" d="M64.1,238l4.7,7.3l-0.3,0.2l-4.7-7.3L64.1,238 M64.7,235.3l-1.7,1l-0.3,0.2l-1.7,1.1l1.1,1.7l4.7,7.3
		l1.1,1.7l1.7-1.1l0.3-0.2l1.7-1.1l-1.1-1.7l-4.7-7.3L64.7,235.3L64.7,235.3z"/>
</g>
<g>
	<polygon fill-rule="evenodd" clip-rule="evenodd" fill="#E8AD0B" points="67.5,246.8 64.6,247.7 65,244.8 63.4,242.5 66.3,241.8 
		68.1,239.5 69.5,241.9 72.3,242.8 70.2,245 70.1,247.8 	"/>
	<path fill="#5C5109" d="M68,241.3l0.9,1.5l1.7,0.5l-1.2,1.3l-0.1,1.7l-1.6-0.7l-1.7,0.5l0.2-1.7l-1-1.4l1.7-0.4L68,241.3
		 M68.2,237.8l-1.8,2.3l-0.7,0.9l-1.1,0.3l-2.9,0.7l1.7,2.4L64,245l-0.1,1l-0.4,3.1l3-0.9l1-0.3l0.9,0.4l2.6,1.1l0.1-2.8l0.1-1
		l0.7-0.8l2.1-2.3l-3-1l-0.9-0.3l-0.5-0.8L68.2,237.8L68.2,237.8z"/>
</g>
<g>
	<polygon fill-rule="evenodd" clip-rule="evenodd" fill="#A27556" points="112.4,237.9 114.4,236.7 120.1,245.6 118.1,246.9 	"/>
	<path fill="#4F4335" d="M114.1,238l4.7,7.3l-0.3,0.2l-4.7-7.3L114.1,238 M114.7,235.3l-1.7,1.1l-0.3,0.2l-1.7,1.1l1.1,1.7l4.7,7.3
		l1.1,1.7l1.7-1.1l0.3-0.2l1.7-1.1l-1.1-1.7l-4.7-7.3L114.7,235.3L114.7,235.3z"/>
</g>
<g>
	<polygon fill-rule="evenodd" clip-rule="evenodd" fill="#E8AD0B" points="117.5,246.8 114.7,247.7 115,244.8 113.5,242.5 
		116.3,241.8 118.1,239.5 119.5,241.9 122.3,242.8 120.2,245 120.1,247.8 	"/>
	<path fill="#5C5109" d="M118,241.3l0.9,1.5l1.7,0.5l-1.2,1.3l-0.1,1.7l-1.6-0.7l-1.7,0.5l0.2-1.7l-1-1.4l1.7-0.4L118,241.3
		 M118.2,237.8l-1.8,2.3l-0.7,0.9l-1.1,0.3l-2.9,0.7l1.7,2.4l0.5,0.8l-0.1,1l-0.4,3.1l3-0.9l1-0.3l0.9,0.4l2.6,1.1l0.2-2.8l0.1-1
		l0.7-0.8l2.1-2.3l-3-1l-0.9-0.3l-0.5-0.8L118.2,237.8L118.2,237.8z"/>
</g>
<g>
	<polygon fill-rule="evenodd" clip-rule="evenodd" fill="#E8AD0B" points="12.6,190.2 10.3,188.5 12.6,187 13.5,184.1 15.7,186 
		18.5,186 17.5,188.7 18.3,191.5 15.6,191.3 13.3,193.1 	"/>
	<path fill="#5C5109" d="M14,185.9l1.3,1.1l1.7,0l-0.6,1.7l0.5,1.7l-1.7-0.1l-1.4,1.1l-0.4-1.7l-1.4-1l1.4-1L14,185.9 M13,182.3
		l-0.9,3l-0.3,1l-0.8,0.6l-2.3,1.6l2.3,1.7l0.8,0.6l0.3,1l0.7,3l2.4-1.9l0.8-0.6l0.9,0.1l2.9,0.2l-0.9-2.8l-0.3-1l0.4-1l1-2.7
		l-2.9,0l-0.9,0l-0.7-0.6L13,182.3L13,182.3z"/>
</g>
<g>
	<polygon fill-rule="evenodd" clip-rule="evenodd" fill="#A27556" points="59.1,189.8 59.2,187.4 69,187.7 68.9,190 	"/>
	<path fill="#4F4335" d="M60.2,188.4l7.8,0.2l0,0.4l-7.8-0.2L60.2,188.4 M58.2,186.4l0,2l0,0.4l0,2l2,0.1l7.8,0.2l2,0.1l0.1-2l0-0.4
		l0.1-2l-2-0.1l-7.8-0.2L58.2,186.4L58.2,186.4z"/>
</g>
<g>
	<polygon fill-rule="evenodd" clip-rule="evenodd" fill="#E8AD0B" points="59.6,190.2 57.3,188.5 59.6,187 60.5,184.1 62.7,186 
		65.5,186 64.5,188.7 65.3,191.5 62.6,191.3 60.3,193.1 	"/>
	<path fill="#5C5109" d="M61,185.9l1.3,1.1l1.7,0l-0.6,1.7l0.5,1.7l-1.7-0.1l-1.4,1.1l-0.4-1.7l-1.4-1l1.4-1L61,185.9 M60,182.3
		l-0.9,3l-0.3,1l-0.8,0.6l-2.3,1.6l2.3,1.7l0.8,0.6l0.3,1l0.7,3l2.4-1.9l0.8-0.6l0.9,0.1l2.9,0.2l-0.9-2.8l-0.3-1l0.4-1l1-2.8
		l-2.9,0l-0.9,0l-0.7-0.6L60,182.3L60,182.3z"/>
</g>
<g>
	<polygon fill-rule="evenodd" clip-rule="evenodd" fill="#A27556" points="107.2,189.8 107.2,187.4 116.9,187.7 116.8,190 	"/>
	<path fill="#4F4335" d="M108.2,188.4l7.7,0.2l0,0.4l-7.7-0.2L108.2,188.4 M106.2,186.4l0,2l0,0.4l0,2l2,0.1l7.7,0.2l2,0.1l0-2
		l0-0.4l0-2l-2-0.1l-7.7-0.2L106.2,186.4L106.2,186.4z"/>
</g>
<g>
	<polygon fill-rule="evenodd" clip-rule="evenodd" fill="#E8AD0B" points="107.6,190.2 105.3,188.5 107.6,187 108.5,184.1 
		110.7,186 113.5,186 112.5,188.7 113.3,191.5 110.6,191.3 108.3,193.1 	"/>
	<path fill="#5C5109" d="M109,185.9l1.3,1.1l1.7,0l-0.6,1.7l0.5,1.7l-1.7-0.1l-1.4,1.1l-0.4-1.7l-1.4-1l1.4-1L109,185.9 M108,182.3
		l-0.9,3l-0.3,1l-0.8,0.6l-2.3,1.6l2.3,1.7l0.8,0.6l0.3,1l0.7,3l2.5-1.9l0.8-0.6l0.9,0.1l2.9,0.2l-0.9-2.8l-0.3-1l0.4-1l1-2.7
		l-2.9,0l-0.9,0l-0.7-0.6L108,182.3L108,182.3z"/>
</g>
<g>
	<polygon fill-rule="evenodd" clip-rule="evenodd" fill="#A27556" points="74.7,140.3 74.7,138 86.3,138.3 86.3,140.7 	"/>
	<path fill="#4F4335" d="M75.7,139l9.6,0.3l0,0.4l-9.6-0.3L75.7,139 M73.8,137l0,2l0,0.4l0,2l2,0.1l9.6,0.3l2,0.1l0-2l0-0.4l0-2
		l-2-0.1l-9.6-0.3L73.8,137L73.8,137z"/>
</g>
<g>
	<polygon fill-rule="evenodd" clip-rule="evenodd" fill="#E8AD0B" points="82.8,142 80,142.1 81,139.3 80.1,136.6 82.9,136.7 
		85.2,134.9 85.9,137.9 88.1,139.5 85.8,141.1 85,143.9 	"/>
	<path fill="#5C5109" d="M84.6,136.7l0.4,1.7l1.4,1l-1.4,1l-0.5,1.7l-1.3-1.2l-1.7,0l0.6-1.7l-0.5-1.7l1.7,0.1L84.6,136.7
		 M85.8,133.2l-2.5,1.9l-0.8,0.6l-0.9-0.1l-2.9-0.2l0.9,2.8l0.3,1l-0.4,1l-1,2.7l2.9,0l0.9,0l0.7,0.6l2.3,2.1l0.9-3l0.3-1l0.8-0.6
		l2.3-1.6l-2.2-1.7l-0.8-0.6l-0.3-1L85.8,133.2L85.8,133.2z"/>
</g>
<g>
	<polygon fill-rule="evenodd" clip-rule="evenodd" fill="#A27556" points="123.2,140.2 123.3,137.8 134.8,138.1 134.8,140.5 	"/>
	<path fill="#4F4335" d="M124.2,138.8l9.6,0.3l0,0.4l-9.6-0.3L124.2,138.8 M122.3,136.8l0,2l0,0.4l0,2l2,0.1l9.6,0.3l2,0.1l0-2
		l0-0.4l0-2l-2-0.1l-9.6-0.3L122.3,136.8L122.3,136.8z"/>
</g>
<g>
	<polygon fill-rule="evenodd" clip-rule="evenodd" fill="#E8AD0B" points="131.3,141.8 128.5,141.9 129.5,139.2 128.7,136.4 
		131.4,136.6 133.7,134.8 134.4,137.7 136.6,139.4 134.3,140.9 133.5,143.8 	"/>
	<path fill="#5C5109" d="M133.1,136.5l0.4,1.7l1.4,1l-1.4,1L133,142l-1.3-1.2l-1.7,0l0.6-1.7l-0.5-1.7l1.7,0.1L133.1,136.5
		 M134.3,133l-2.5,1.9l-0.8,0.6l-0.9-0.1l-2.9-0.2l0.9,2.8l0.3,1.1l-0.4,1l-1,2.7l2.9,0l0.9,0l0.7,0.6l2.3,2.1l0.9-3l0.3-1l0.8-0.6
		l2.3-1.6l-2.2-1.7l-0.8-0.6l-0.3-1L134.3,133L134.3,133z"/>
</g>
<g>
	<polygon fill-rule="evenodd" clip-rule="evenodd" fill="#A27556" points="62.1,38.6 63,36.4 72.8,40.4 71.8,42.6 	"/>
	<path fill="#4F4335" d="M63.5,37.7l7.9,3.2l-0.1,0.3L63.4,38L63.5,37.7 M62.5,35.1l-0.8,1.8l-0.1,0.3l-0.8,1.9l1.9,0.8l7.9,3.2
		l1.8,0.7l0.8-1.8l0.1-0.3l0.8-1.9l-1.9-0.8l-7.9-3.2L62.5,35.1L62.5,35.1z"/>
</g>
<g>
	<polygon fill-rule="evenodd" clip-rule="evenodd" fill="#E8AD0B" points="68.1,42.6 65.5,41.6 67.4,39.4 67.6,36.5 70.2,37.7 
		72.9,36.9 72.5,39.8 74,42.2 71.3,42.8 69.4,45.2 	"/>
	<path fill="#5C5109" d="M68.5,38l1.5,0.7l1.7-0.5L71.5,40l0.9,1.5l-1.7,0.4l-1.1,1.4l-0.8-1.5l-1.6-0.6l1.2-1.3L68.5,38 M66.7,35
		l-0.2,2.9L66.5,39l-0.7,0.8l-2,2.2l2.7,1l0.9,0.3l0.4,0.9l1.4,2.8l1.9-2.5l0.7-0.8l1-0.2l2.8-0.6l-1.5-2.4l-0.5-0.9l0.1-1.1
		l0.4-3.1l-3,0.9l-0.9,0.3l-0.8-0.4L66.7,35L66.7,35z"/>
</g>
<g>
	<polygon fill-rule="evenodd" clip-rule="evenodd" fill="#A27556" points="113,34.2 115,33 120,42 118,43.2 	"/>
	<path fill="#4F4335" d="M114.6,34.4l4,7.2l-0.3,0.2l-4-7.2L114.6,34.4 M115.4,31.7l-1.7,1l-0.3,0.2l-1.7,1l1,1.7l4,7.2l1,1.8l1.7-1
		l0.3-0.2l1.7-1l-1-1.7l-4-7.2L115.4,31.7L115.4,31.7z"/>
</g>
<g>
	<polygon fill-rule="evenodd" clip-rule="evenodd" fill="#E8AD0B" points="117.4,43 114.5,43.7 115,40.9 113.6,38.5 116.4,38 
		118.4,35.8 119.6,38.3 122.4,39.3 120.2,41.4 119.9,44.2 	"/>
	<path fill="#5C5109" d="M118.1,37.5l0.8,1.5l1.6,0.6l-1.3,1.3l-0.2,1.7l-1.6-0.7l-1.7,0.4l0.3-1.7l-0.9-1.5l1.8-0.3L118.1,37.5
		 M118.6,34l-1.9,2.2l-0.7,0.8l-1.1,0.2l-2.9,0.5l1.5,2.5l0.5,0.8l-0.2,1l-0.6,3.1l3-0.8l1-0.3l0.9,0.4l2.5,1.2l0.3-2.8l0.1-1
		l0.8-0.8l2.2-2.2l-2.9-1.1l-0.9-0.3l-0.4-0.8L118.6,34L118.6,34z"/>
</g>
</svg>
