<svg version="1.1" id="Layer_3" xmlns="http://www.w3.org/2000/svg" x="0" y="0" width="150" height="250" viewBox="0 0 150 250" xml:space="preserve"><g><g><path fill-rule="evenodd" clip-rule="evenodd" fill="#A27556" d="M25.4 245.5l-.2-.8c-.1-.5-.1-1.5-.1-2.8h-.3c0 1.2 0 2.2-.1 2.8l-.2.8h-5.9l-.2-.8c-.2-.6-.1-1.9-.1-3.6v-.6c-.7-.9-.9-1.9-.9-2.8v-1h14.8v1c0 .9-.1 1.9-.9 2.8v.6c0 1.6.1 2.9-.1 3.6l-.2.8h-5.6z"/></g><g><path fill="#4F392A" d="M31.3 237.7c0 1-.1 1.7-.9 2.4 0 .9.1 3.6 0 4.3h-4.3c-.2-.7 0-2.7 0-3.5h-2.3c0 .8.1 2.9 0 3.5h-4.3c-.2-.7 0-3.4 0-4.3-.7-.7-.9-1.5-.9-2.4h12.7m2-2H16.5v2c0 1 .1 2.1.9 3.1v.2c-.1 2.1 0 3.1.1 3.8l.4 1.5H32l.4-1.5c.2-.7.2-1.7.1-3.8v-.2c.7-1.1.9-2.2.9-3.1v-2h-.1z"/></g></g><g><g><path fill-rule="evenodd" clip-rule="evenodd" fill="#A27556" d="M75.3 245.5l-.2-.8c-.1-.5-.1-1.5-.1-2.8h-.3c0 1.2 0 2.2-.1 2.8l-.2.8h-5.9l-.2-.8c-.2-.6-.1-1.9-.1-3.6v-.6c-.7-.9-.9-1.9-.9-2.8v-1h14.8v1c0 .9-.1 1.9-.9 2.8v.6c0 1.6.1 2.9-.1 3.6l-.2.8h-5.6z"/></g><g><path fill="#4F392A" d="M81.3 237.7c0 1-.1 1.7-.9 2.4 0 .9.1 3.6 0 4.3h-4.3c-.2-.7 0-2.7 0-3.5h-2.3c0 .8.1 2.9 0 3.5h-4.3c-.2-.7 0-3.4 0-4.3-.7-.7-.9-1.5-.9-2.4h12.7m2-2H66.5v2c0 1 .1 2.1.9 3.1v.2c-.1 2.1 0 3.1.1 3.8l.4 1.5H82l.4-1.5c.2-.7.2-1.7.1-3.8v-.2c.7-1.1.9-2.2.9-3.1v-2h-.1z"/></g></g><g><g><path fill-rule="evenodd" clip-rule="evenodd" fill="#A27556" d="M75.3 95.5l-.2-.8c-.1-.5-.1-1.5-.1-2.8h-.3c0 1.2 0 2.2-.1 2.8l-.2.8h-5.9l-.2-.8c-.2-.6-.1-1.9-.1-3.6v-.6c-.7-.9-.9-1.9-.9-2.8v-1h14.8v1c0 .9-.1 1.9-.9 2.8v.6c0 1.6.1 2.9-.1 3.6l-.2.8h-5.6z"/></g><g><path fill="#4F392A" d="M81.3 87.7c0 1-.1 1.7-.9 2.4 0 .9.1 3.6 0 4.3h-4.3c-.2-.7 0-2.7 0-3.5h-2.3c0 .8.1 2.9 0 3.5h-4.3c-.2-.7 0-3.4 0-4.3-.7-.7-.9-1.5-.9-2.4h12.7m2-2H66.5v2c0 1 .1 2.1.9 3.1v.2c-.1 2.1 0 3.1.1 3.8l.4 1.5H82l.4-1.5c.2-.7.2-1.7.1-3.8v-.2c.7-1.1.9-2.2.9-3.1v-2h-.1z"/></g></g><g><g><path fill-rule="evenodd" clip-rule="evenodd" fill="#A27556" d="M75.3 45.5l-.2-.8c-.1-.5-.1-1.5-.1-2.8h-.3c0 1.2 0 2.2-.1 2.8l-.2.8h-5.9l-.2-.8c-.2-.6-.1-1.9-.1-3.6v-.6c-.7-.9-.9-1.9-.9-2.8v-1h14.8v1c0 .9-.1 1.9-.9 2.8v.6c0 1.6.1 2.9-.1 3.6l-.2.8h-5.6z"/></g><g><path fill="#4F392A" d="M81.3 37.7c0 1-.1 1.7-.9 2.4 0 .9.1 3.6 0 4.3h-4.3c-.2-.7 0-2.7 0-3.5h-2.3c0 .8.1 2.9 0 3.5h-4.3c-.2-.7 0-3.4 0-4.3-.7-.7-.9-1.5-.9-2.4h12.7m2-2H66.5v2c0 1 .1 2.1.9 3.1v.2c-.1 2.1 0 3.1.1 3.8l.4 1.5H82l.4-1.5c.2-.7.2-1.7.1-3.8v-.2c.7-1.1.9-2.2.9-3.1v-2h-.1z"/></g></g><g><g><path fill-rule="evenodd" clip-rule="evenodd" fill="#A27556" d="M125.3 245.5l-.2-.8c-.1-.5-.1-1.5-.1-2.8h-.3c0 1.2 0 2.2-.1 2.8l-.2.8h-5.9l-.2-.8c-.2-.6-.1-1.9-.1-3.6v-.6c-.8-.9-.9-1.9-.9-2.8v-1h14.8v1c0 .9-.1 1.9-.9 2.8v.6c0 1.6.1 2.9-.1 3.6l-.2.8h-5.6z"/></g><g><path fill="#4F392A" d="M131.3 237.7c0 1-.1 1.7-.9 2.4 0 .9.1 3.6 0 4.3h-4.3c-.2-.7 0-2.7 0-3.5h-2.3c0 .8.1 2.9 0 3.5h-4.3c-.2-.7 0-3.4 0-4.3-.7-.7-.9-1.5-.9-2.4h12.7m2-2h-16.8v2c0 1 .1 2.1.9 3.1v.2c-.1 2.1-.1 3.1.1 3.8l.4 1.5h14.2l.4-1.5c.2-.7.2-1.7.1-3.8v-.2c.7-1.1.9-2.2.9-3.1v-2h-.2z"/></g></g><g><path fill-rule="evenodd" clip-rule="evenodd" fill="#A27556" d="M25.4 45.5l-.2-.7c-.1-.2-.1-.4-.1-.6V42h-.5l-.1.5h-5.9l-.2-.8c0-.2-.1-.4-.1-.6v-.5c-.6-.7-.9-1.6-.9-2.5v-1.3h14.8v1.3c0 .9-.3 1.8-.9 2.5v3.6c0 .2 0 .4-.1.6l-.2.8h-5.6z"/><g><path fill="#4F392A" d="M31.3 37.7v.3c0 .8-.3 1.6-.9 2.1v4.3h-4.3v-3.5h-2.3v.5h-4.3v-1.2c-.5-.5-.9-1.3-.9-2.1v-.3h12.7m2-2.1H16.5V38c0 1 .3 2 .9 2.8v.2c0 .3 0 .5.1.8l.4 1.5h6.3v.7c0 .3 0 .6.1.9l.4 1.5H32l.4-1.5c.1-.3.1-.6.1-.8v-3.2c.6-.8.9-1.8.9-2.8v-2.4h-.1z"/></g></g><g><g><path fill-rule="evenodd" clip-rule="evenodd" fill="#A27556" d="M125.4 95.5l-.2-.8c0-.2-.1-.4-.1-.6v-2.2h-.5l-.1.5h-5.9l-.2-.8c0-.2-.1-.4-.1-.6v-.5c-.6-.7-.9-1.6-.9-2.5v-1.3h14.8V88c0 .9-.3 1.8-.9 2.5v3.6c0 .2 0 .4-.1.6l-.2.8h-5.6z"/></g><g><path fill="#4F392A" d="M131.3 87.7v.3c0 .8-.3 1.6-.9 2.1v4.3h-4.3v-3.5h-2.3v.5h-4.3v-1.2c-.5-.5-.9-1.3-.9-2.1v-.3h12.7m2-2.1h-16.8V88c0 1 .3 2 .9 2.8v.2c0 .3 0 .5.1.8l.3 1.6h6.3v.7c0 .3 0 .6.1.8l.4 1.5h7.5l.4-1.5c.1-.3.1-.6.1-.8v-3.2c.6-.8.9-1.8.9-2.8v-2.4h-.2z"/></g></g><g><g><path fill-rule="evenodd" clip-rule="evenodd" fill="#A27556" d="M118.6 45.5l-.2-.8c0-.2-.1-.4-.1-.6v-3.6c-.6-.7-.9-1.6-.9-2.5v-1.3h14.8V38c0 .9-.3 1.8-.9 2.5v.5c0 .2 0 .4-.1.6l-.2.8h-5.9l-.1-.5h-.5v2.2c0 .2 0 .4-.1.6l-.2.8h-5.6z"/></g><g><path fill="#4F392A" d="M131.3 37.7v.3c0 .8-.3 1.6-.9 2.1v1.2h-4.3v-.5h-2.3v3.5h-4.3V40c-.5-.5-.9-1.3-.9-2.1v-.3h12.7m2-1.9h-16.8V38c0 1 .3 2 .9 2.8V44c0 .3 0 .5.1.8l.3 1.6h7.5l.3-1.6c.1-.3.1-.5.1-.8v-.7h6.3l.4-1.5c.1-.3.1-.6.1-.8v-.2c.6-.8.9-1.8.9-2.8v-2.3h-.1z"/></g></g><g><g><path fill-rule="evenodd" clip-rule="evenodd" fill="#A27556" d="M18.6 95.5l-.2-.8c0-.2-.1-.4-.1-.6v-3.6c-.6-.7-.9-1.6-.9-2.5v-1.3h14.8V88c0 .9-.3 1.8-.9 2.5v.5c0 .2 0 .4-.1.6l-.2.8h-5.9l-.1-.5h-.5v2.2c0 .2 0 .4-.1.6l-.2.8h-5.6z"/></g><g><path fill="#4F392A" d="M31.3 87.7v.3c0 .8-.3 1.6-.9 2.1v1.2h-4.3v-.5h-2.3v3.5h-4.3V90c-.5-.5-.9-1.3-.9-2.1v-.3h12.7m2-1.9H16.5V88c0 1 .3 2 .9 2.8V94c0 .3 0 .5.1.8l.4 1.5h7.5l.4-1.5c.1-.3.1-.5.1-.8v-.7H32l.4-1.5c.1-.3.1-.6.1-.8v-.2c.6-.8.9-1.8.9-2.8v-2.3h-.1z"/></g></g><path fill-rule="evenodd" clip-rule="evenodd" fill="#4F392A" d="M131.1 141.6l.6.9-6 4.2-.7-1.1-.8 1.1c-1.9-1.3-3.8-2.6-5.6-4l1-1.2c-2.9-2.4-2.5-2.1-2.5-5.3h4c-1 3-.8 2-.8 5.1 1.1.3 2.4.8 3.5.6l-.6-2.8c3.5 1.3 3.6 1.5 2.1-2.9h7.7c-.2 2.2 0 3.9-1.9 5.4z"/><path fill-rule="evenodd" clip-rule="evenodd" fill="#A27556" d="M128.8 140.9l.8 1.2-3.6 2.5-1-1.4.4-.1-.3-1.5 1.5.4c.6-1.5 1.1-2.6.6-4.3h4.1c0 1.6-.7 3.1-2.5 3.2zm-5 3.7c1.7-2.4.5-.7-1.8-1.2l1.8 1.2zm-5.1-5.4c-.2-.5-.2-.9-.2-1.4h.4c-.1.3-.2.7-.2 1.1v.3z"/><path fill-rule="evenodd" clip-rule="evenodd" fill="#4F392A" d="M118.7 191.6l-.6.9 6 4.2.7-1.1.8 1.1 1.2-.9 1.8-1.2 2.6-1.9-1-1.2c2.9-2.4 2.5-2.1 2.5-5.3h-4c1 3 .8 2 .8 5.1-1.1.3-2.4.8-3.5.6l.6-2.8-2.6.9-.1.1c-.5-1.3.2-2.6.6-3.9h-7.7c0 1.8-.2 3.3 1.1 4.8.4.2.6.4.8.6z"/><path fill-rule="evenodd" clip-rule="evenodd" fill="#A27556" d="M121 190.9l-.8 1.2 3.6 2.5 1-1.4-.4-.1.3-1.6-1.5.6c-.6-1.5-1.1-2.6-.6-4.3h-4.1c0 1.5.8 3 2.5 3.1zm4.1 2.3l1 1.4 1.8-1.2c-1.1.2-1.8 0-2.8-.2zm6-4c.2-.5.2-.9.2-1.4h-.4c.2.4.2.9.2 1.4z"/><g><g><path fill-rule="evenodd" clip-rule="evenodd" fill="#A27556" d="M71.7 145.4v-3.3l-1.3-.3c-1.9-.4-3-1.9-3-4.1v-1H72l-.5 1.3c-.3.8-.3 1.6 0 2.4l.5 1.2 1.1.6c.5.3.9.4 1.4.4.6 0 1.2-.2 2.1-.6l1-.4.2-.9c.1-.8.2-2.2 0-2.7l-.4-1.3h4.9v1c0 2.3-1.3 4-3.4 4.2l-.8.1v3.4h-6.4z"/></g><g><path fill="#4F392A" d="M81.3 137.7c0 1.6-.8 3-2.5 3.2.1-.8.2-2.4 0-3.2h2.5m-10.7 0c-.4 1-.3 2.1.1 3.1-1.6-.3-2.2-1.7-2.2-3.1h2.1m6.5 5.3v1.4h-4.4v-1.3c.7.3 1.3.5 1.9.5.8 0 1.6-.2 2.5-.6m6.2-7.3H76l.9 2.6c.1.3.1 1.5 0 2.2l-.1.4-.5.2c-.8.3-1.3.5-1.8.5-.3 0-.6-.1-1-.3l-.8-.4-.3-.8c-.2-.5-.2-1.1 0-1.7l1-2.7h-6.9v2c0 2.6 1.4 4.6 3.8 5.1l.5.1v3.5h8.4v-3.5c2.5-.3 4.2-2.3 4.2-5.1v-2.1h-.1z"/></g></g><g><g><path fill-rule="evenodd" clip-rule="evenodd" fill="#A27556" d="M71.7 195.4V192l-.8-.1c-2.1-.2-3.4-1.8-3.4-4.2v-1h4.9L72 188c-.3 1-.2 1.4 0 2.5l.2 1.1 1 .4c1 .4 1.6.6 2.1.6s.9-.1 1.4-.4l1.1-.6.5-1.2c.3-.8.3-1.6 0-2.4l-.5-1.3h4.5v1c0 2.2-1.1 3.7-3 4.1l-1.3.3v3.3h-6.3z"/></g><g><path fill="#4F392A" d="M81.3 187.7c0 1.5-.6 2.8-2.2 3.1.4-1 .4-2.1.1-3.1h2.1m-10.3 0c-.4 1.3-.3 1.9 0 3.2-1.7-.1-2.5-1.6-2.5-3.2H71m1.7 5.3c.9.4 1.7.6 2.5.6.6 0 1.2-.1 1.9-.5v1.3h-4.4V193m10.6-7.3h-6.9l1 2.7c.2.5.2 1.2 0 1.7l-.3.8-.8.4c-.3.2-.6.3-1 .3s-.9-.1-1.8-.5l-.5-.2-.1-.4v-.2c-.2-1.1-.2-1.3 0-2l.8-2.6h-7.2v2c0 2.8 1.7 4.9 4.2 5.1v3.5h8.4v-3.5l.5-.1c2.3-.5 3.7-2.4 3.7-5.1v-1.9z"/></g></g><path fill-rule="evenodd" clip-rule="evenodd" fill="#4F392A" d="M25.7 146.7l-.7-1.1-.8 1.1-6-4.2.6-.8c-.3-.2-.5-.4-.7-.7-1.2-1.4-1-3-1-4.7h7.2l-.6 1.9c-.8 2.5 1.8 4.6 4.3 3.3l-.1-.1-1.5-2.3h2.7c.3 0 .1-.7 0-.9l-.6-1.9h4.3c0 5.6-4.1 3.2-1.8 6.7-1.7 1.2-3.5 2.4-5.3 3.7z"/><path fill-rule="evenodd" clip-rule="evenodd" fill="#A27556" d="M28.4 142.9l-2.4 1.7-.9-1.3c1.1.3 2.3.2 3.3-.4zm-3.6.3l-1 1.4-3.6-2.5.8-1.2c-1.8-.1-2.5-1.6-2.5-3.2h3.7c-.7 2.3.5 4.6 2.6 5.5zm5.7-5.5h.8c0 .8-.1 1.4-.6 2.1 0-.7.1-1.3-.2-2.1zm-.6 2.9c-.4.2-.6.4-.8 0h.8z"/><path fill-rule="evenodd" clip-rule="evenodd" fill="#4F392A" d="M24.2 196.7l.7-1.1.8 1.1 6-4.2-.6-.8c.3-.2.5-.4.7-.7 1.2-1.4 1-3 1-4.7h-7.2l.6 1.9c.8 2.5-1.9 4.6-4.1 3.4l-.2-.1.1-.1 1.5-2.3h-2.9c0-.9.5-2 .7-2.8H17v1.5c0 3.6 4.2 1.5 1.8 5.2 1.8 1.2 3.6 2.4 5.4 3.7z"/><path fill-rule="evenodd" clip-rule="evenodd" fill="#A27556" d="M21.4 192.9l2.4 1.7.9-1.3c-1.1.3-2.3.2-3.3-.4zm3.6.3l1 1.4 3.6-2.5-.8-1.2c1.7-.1 2.5-1.6 2.5-3.2h-3.7c.8 2.3-.4 4.6-2.6 5.5zm-5.7-5.5h-.8c0 .8.1 1.4.6 2.1 0-.7 0-1.3.2-2.1zm.6 2.9c.4.2.6.4.8 0h-.8z"/></svg>