<?xml version="1.0" encoding="utf-8"?>
<!-- Generator: Adobe Illustrator 16.0.0, SVG Export Plug-In . SVG Version: 6.00 Build 0)  -->
<!DOCTYPE svg PUBLIC "-//W3C//DTD SVG 1.1//EN" "http://www.w3.org/Graphics/SVG/1.1/DTD/svg11.dtd">
<svg version="1.1" id="Layer_3" xmlns="http://www.w3.org/2000/svg" xmlns:xlink="http://www.w3.org/1999/xlink" x="0px" y="0px"
	 width="150px" height="250px" viewBox="0 0 150 250" enable-background="new 0 0 150 250" xml:space="preserve">
<g>
	<g>
		<path fill-rule="evenodd" clip-rule="evenodd" fill="#BBBBBB" d="M25.351,245.458l-0.186-0.764
			c-0.133-0.545-0.125-1.538-0.094-2.784h-0.289c0.032,1.246,0.041,2.239-0.093,2.785l-0.186,0.763h-5.87l-0.186-0.764
			c-0.152-0.626-0.132-1.929-0.09-3.567c0.005-0.213,0.011-0.412,0.014-0.586c-0.748-0.907-0.86-1.878-0.86-2.801v-1h14.832v1
			c0,0.922-0.112,1.892-0.859,2.8c0.003,0.172,0.008,0.368,0.014,0.579c0.042,1.642,0.061,2.948-0.092,3.575l-0.186,0.764H25.351z"
			/>
	</g>
	<g>
		<path fill="#484848" d="M31.342,237.74c0,0.964-0.14,1.709-0.864,2.417c0,0.928,0.134,3.564-0.045,4.301h-4.297
			c-0.161-0.659-0.045-2.742-0.045-3.548H23.76c0,0.806,0.118,2.889-0.043,3.548h-4.299c-0.179-0.736-0.042-3.373-0.042-4.301
			c-0.727-0.708-0.865-1.457-0.865-2.417H31.342 M33.342,235.74h-2H18.511h-2v2c0,0.971,0.115,2.072,0.852,3.127
			c-0.002,0.076-0.004,0.154-0.006,0.234c-0.054,2.091-0.05,3.14,0.118,3.828l0.371,1.528h1.573h4.299h1.57h0.85h4.297h1.572
			l0.372-1.527c0.167-0.689,0.172-1.741,0.12-3.837c-0.002-0.078-0.004-0.154-0.005-0.228c0.736-1.056,0.852-2.156,0.852-3.126
			V235.74L33.342,235.74z"/>
	</g>
</g>
<g>
	<g>
		<path fill-rule="evenodd" clip-rule="evenodd" fill="#BBBBBB" d="M75.349,245.458l-0.186-0.764
			c-0.133-0.545-0.125-1.538-0.093-2.784h-0.289c0.032,1.245,0.04,2.238-0.091,2.782l-0.185,0.766h-5.872l-0.186-0.764
			c-0.152-0.627-0.133-1.934-0.092-3.575c0.005-0.211,0.01-0.407,0.014-0.579c-0.748-0.908-0.86-1.878-0.86-2.8v-1h14.833v1
			c0,0.924-0.112,1.895-0.861,2.801c0.004,0.176,0.009,0.377,0.015,0.592c0.043,1.636,0.063,2.937-0.089,3.563l-0.187,0.763H75.349z
			"/>
	</g>
	<g>
		<path fill="#484848" d="M81.343,237.74c0,0.964-0.138,1.709-0.866,2.417c0,0.928,0.139,3.564-0.041,4.301h-4.301
			c-0.161-0.659-0.043-2.742-0.043-3.548H73.76c0,0.806,0.116,2.889-0.042,3.548h-4.299c-0.179-0.736-0.045-3.373-0.045-4.301
			c-0.724-0.708-0.865-1.457-0.865-2.417H81.343 M83.343,235.74h-2H68.509h-2v2c0,0.97,0.115,2.07,0.852,3.126
			c-0.001,0.073-0.003,0.149-0.005,0.228c-0.053,2.096-0.048,3.147,0.12,3.837l0.372,1.527h1.572h4.299h1.576h0.841h4.301h1.57
			l0.373-1.525c0.168-0.689,0.172-1.737,0.117-3.825c-0.002-0.082-0.005-0.162-0.007-0.239c0.738-1.055,0.854-2.156,0.854-3.128
			V235.74L83.343,235.74z"/>
	</g>
</g>
<g>
	<g>
		<path fill-rule="evenodd" clip-rule="evenodd" fill="#BBBBBB" d="M75.35,95.46l-0.186-0.763c-0.133-0.544-0.125-1.537-0.093-2.783
			h-0.289c0.032,1.246,0.04,2.238-0.091,2.781l-0.185,0.765h-5.872l-0.186-0.764c-0.152-0.627-0.133-1.933-0.092-3.576
			c0.005-0.211,0.01-0.407,0.014-0.579c-0.748-0.91-0.86-1.879-0.86-2.799v-1h14.833v1c0,0.922-0.112,1.893-0.861,2.8
			c0.004,0.176,0.009,0.377,0.015,0.593c0.043,1.635,0.063,2.936-0.089,3.562l-0.187,0.763H75.35z"/>
	</g>
	<g>
		<path fill="#484848" d="M81.343,87.742c0,0.962-0.138,1.707-0.866,2.417c0,0.928,0.139,3.564-0.041,4.301h-4.301
			c-0.161-0.657-0.043-2.745-0.043-3.546H73.76c0,0.801,0.116,2.889-0.042,3.546h-4.299c-0.179-0.736-0.045-3.373-0.045-4.301
			c-0.724-0.71-0.865-1.457-0.865-2.417H81.343 M83.343,85.742h-2H68.509h-2v2c0,0.969,0.115,2.068,0.852,3.125
			c-0.001,0.074-0.003,0.15-0.005,0.228c-0.053,2.096-0.048,3.147,0.12,3.837l0.372,1.527h1.572h4.299h1.575h0.842h4.301h1.57
			l0.373-1.526c0.168-0.689,0.172-1.737,0.117-3.825c-0.002-0.082-0.005-0.162-0.007-0.24c0.738-1.056,0.854-2.156,0.854-3.127
			V85.742L83.343,85.742z"/>
	</g>
</g>
<g>
	<g>
		<path fill-rule="evenodd" clip-rule="evenodd" fill="#BBBBBB" d="M75.35,45.46l-0.186-0.763c-0.133-0.544-0.125-1.537-0.093-2.783
			h-0.289c0.032,1.246,0.04,2.238-0.091,2.781l-0.185,0.765h-5.871l-0.187-0.763c-0.152-0.626-0.133-1.933-0.092-3.576
			c0.005-0.211,0.01-0.407,0.014-0.58c-0.748-0.91-0.86-1.878-0.86-2.797v-1h14.833v1c0,0.921-0.112,1.891-0.861,2.798
			c0.004,0.176,0.009,0.377,0.015,0.593c0.043,1.637,0.063,2.938-0.089,3.563l-0.187,0.762H75.35z"/>
	</g>
	<g>
		<path fill="#484848" d="M81.343,37.744c0,0.96-0.138,1.705-0.866,2.415c0,0.928,0.139,3.566-0.041,4.301h-4.301
			c-0.161-0.657-0.043-2.745-0.043-3.546H73.76c0,0.801,0.116,2.889-0.042,3.546h-4.299c-0.179-0.734-0.045-3.373-0.045-4.301
			c-0.724-0.71-0.865-1.455-0.865-2.415H81.343 M83.343,35.744h-2H68.509h-2v2c0,0.968,0.115,2.066,0.852,3.124
			c-0.001,0.074-0.003,0.15-0.005,0.228c-0.053,2.098-0.048,3.149,0.12,3.838l0.372,1.526h1.571h4.299h1.575h0.842h4.301h1.569
			l0.373-1.524c0.169-0.688,0.173-1.737,0.118-3.826c-0.002-0.083-0.005-0.163-0.007-0.24c0.738-1.056,0.854-2.156,0.854-3.125
			V35.744L83.343,35.744z"/>
	</g>
</g>
<g>
	<g>
		<path fill-rule="evenodd" clip-rule="evenodd" fill="#BBBBBB" d="M125.349,245.458l-0.185-0.766
			c-0.132-0.544-0.125-1.536-0.094-2.782h-0.29c0.032,1.245,0.041,2.237-0.089,2.781l-0.185,0.767h-5.876l-0.186-0.764
			c-0.151-0.625-0.131-1.925-0.088-3.559c0.006-0.216,0.011-0.418,0.015-0.595c-0.75-0.907-0.862-1.878-0.862-2.801v-1h14.834v1
			c0,0.921-0.112,1.89-0.861,2.8c0.004,0.173,0.009,0.37,0.015,0.581c0.042,1.643,0.063,2.949-0.094,3.577l-0.188,0.76H125.349z"/>
	</g>
	<g>
		<path fill="#484848" d="M131.344,237.74c0,0.964-0.143,1.709-0.866,2.417c0,0.928,0.138,3.564-0.045,4.301h-4.297
			c-0.159-0.659-0.045-2.742-0.045-3.548h-2.332c0,0.806,0.118,2.889-0.04,3.548h-4.302c-0.179-0.736-0.04-3.373-0.04-4.301
			c-0.729-0.708-0.867-1.457-0.867-2.417H131.344 M133.344,235.74h-2H118.51h-2v2c0,0.972,0.115,2.073,0.854,3.128
			c-0.002,0.078-0.005,0.159-0.007,0.241c-0.055,2.086-0.051,3.133,0.116,3.82l0.371,1.528h1.572h4.302h1.577h0.84h4.297h1.564
			l0.377-1.519c0.172-0.693,0.177-1.746,0.122-3.844c-0.002-0.079-0.004-0.155-0.006-0.229c0.738-1.058,0.854-2.157,0.854-3.126
			V235.74L133.344,235.74z"/>
	</g>
</g>
<g>
	<g>
		<path fill-rule="evenodd" clip-rule="evenodd" fill="#BBBBBB" d="M25.365,45.46l-0.196-0.746
			c-0.052-0.197-0.078-0.397-0.078-0.598v-2.202h-0.465l-0.121,0.502h-5.878l-0.182-0.771c-0.047-0.197-0.069-0.385-0.069-0.573
			v-0.53c-0.554-0.688-0.865-1.563-0.865-2.463v-1.336h14.832v1.336c0,0.898-0.311,1.773-0.864,2.462v3.574
			c0,0.197-0.026,0.396-0.077,0.593l-0.193,0.75H25.365z"/>
	</g>
	<g>
		<path fill="#484848" d="M31.342,37.744v0.336c0,0.817-0.333,1.558-0.864,2.079v3.957c0,0.118-0.017,0.234-0.045,0.344h-4.297
			c-0.029-0.11-0.045-0.228-0.045-0.344v-3.202H23.76v0.159c0,0.116-0.016,0.232-0.043,0.344h-4.299
			c-0.026-0.112-0.042-0.226-0.042-0.344v-0.914c-0.531-0.519-0.865-1.259-0.865-2.079v-0.336H31.342 M33.342,35.744h-2H18.511h-2v2
			v0.336c0,1.002,0.308,1.98,0.865,2.792v0.2c0,0.263,0.032,0.533,0.096,0.803l0.363,1.541h1.583h4.299h0.375v0.7
			c0,0.286,0.037,0.572,0.11,0.851l0.392,1.493h1.543h4.297h1.55l0.387-1.501c0.072-0.278,0.108-0.562,0.108-0.843v-3.245
			c0.556-0.813,0.864-1.791,0.864-2.791v-0.336V35.744L33.342,35.744z"/>
	</g>
</g>
<g>
	<g>
		<path fill-rule="evenodd" clip-rule="evenodd" fill="#BBBBBB" d="M125.357,95.46l-0.191-0.754
			c-0.05-0.198-0.075-0.397-0.075-0.591v-2.2h-0.457l-0.109,0.502h-5.913l-0.171-0.787c-0.043-0.194-0.063-0.377-0.063-0.56v-0.526
			c-0.556-0.688-0.867-1.563-0.867-2.464v-1.338h14.834v1.338c0,0.898-0.312,1.774-0.866,2.462v3.572
			c0,0.197-0.024,0.391-0.075,0.591l-0.191,0.754H125.357z"/>
	</g>
	<g>
		<path fill="#484848" d="M131.344,87.742v0.338c0,0.817-0.334,1.558-0.866,2.079v3.955c0,0.12-0.017,0.234-0.045,0.346h-4.297
			c-0.028-0.112-0.045-0.23-0.045-0.346v-3.2h-2.332v0.156c0,0.118-0.016,0.234-0.04,0.346h-4.302
			c-0.024-0.112-0.04-0.226-0.04-0.346v-0.911c-0.533-0.519-0.867-1.259-0.867-2.079v-0.338H131.344 M133.344,85.742h-2H118.51h-2v2
			v0.338c0,1.003,0.309,1.982,0.867,2.794v0.196c0,0.255,0.028,0.507,0.086,0.773l0.344,1.573h1.61h4.302h0.372v0.698
			c0,0.277,0.036,0.559,0.106,0.837l0.382,1.509h1.557h4.297h1.557l0.382-1.509c0.07-0.278,0.106-0.56,0.106-0.837v-3.242
			c0.558-0.813,0.866-1.792,0.866-2.792v-0.338V85.742L133.344,85.742z"/>
	</g>
</g>
<g>
	<g>
		<path fill-rule="evenodd" clip-rule="evenodd" fill="#BBBBBB" d="M118.615,45.46l-0.175-0.783
			c-0.042-0.19-0.063-0.379-0.063-0.561v-3.573c-0.556-0.688-0.867-1.564-0.867-2.463v-1.336h14.834v1.336
			c0,0.9-0.312,1.776-0.866,2.463v0.529c0,0.193-0.025,0.392-0.075,0.589l-0.191,0.754h-5.854l-0.127-0.502h-0.472v2.202
			c0,0.182-0.021,0.37-0.063,0.561l-0.175,0.783H118.615z"/>
	</g>
	<g>
		<path fill="#484848" d="M131.344,37.744v0.336c0,0.82-0.334,1.56-0.866,2.079v0.914c0,0.118-0.017,0.232-0.045,0.344h-4.297
			c-0.028-0.112-0.045-0.228-0.045-0.344v-0.159h-2.332v3.202c0,0.116-0.016,0.234-0.04,0.344h-4.302
			c-0.024-0.11-0.04-0.226-0.04-0.344v-3.957c-0.533-0.521-0.867-1.262-0.867-2.079v-0.336H131.344 M133.344,35.744h-2H118.51h-2v2
			v0.336c0,1.001,0.31,1.98,0.867,2.793v3.243c0,0.254,0.029,0.516,0.088,0.778l0.348,1.566h1.604h4.302h1.604l0.348-1.566
			c0.059-0.262,0.088-0.523,0.088-0.778v-0.7h0.377h4.297h1.557l0.382-1.509c0.07-0.278,0.106-0.559,0.106-0.835v-0.2
			c0.558-0.812,0.866-1.791,0.866-2.793v-0.336V35.744L133.344,35.744z"/>
	</g>
</g>
<g>
	<g>
		<path fill-rule="evenodd" clip-rule="evenodd" fill="#BBBBBB" d="M18.626,95.46l-0.182-0.771
			c-0.047-0.197-0.069-0.386-0.069-0.575v-3.571c-0.555-0.688-0.867-1.564-0.867-2.463v-1.338h14.833v1.338
			c0,0.898-0.311,1.773-0.864,2.462v0.528c0,0.197-0.025,0.391-0.076,0.592l-0.191,0.754h-5.85l-0.129-0.502H24.76v2.2
			c0,0.189-0.024,0.384-0.071,0.579l-0.184,0.767H18.626z"/>
	</g>
	<g>
		<path fill="#484848" d="M31.342,87.742v0.338c0,0.82-0.335,1.56-0.864,2.079v0.911c0,0.12-0.017,0.234-0.045,0.346h-4.297
			c-0.029-0.112-0.045-0.228-0.045-0.346v-0.156H23.76v3.2c0,0.116-0.016,0.234-0.043,0.346h-4.299
			c-0.026-0.112-0.042-0.226-0.042-0.346v-3.955c-0.533-0.521-0.867-1.262-0.867-2.079v-0.338H31.342 M33.342,85.742h-2H18.509h-2v2
			v0.338c0,1.001,0.309,1.98,0.867,2.793v3.241c0,0.268,0.031,0.531,0.096,0.805l0.363,1.541h1.583h4.299h1.576l0.369-1.533
			c0.065-0.271,0.098-0.545,0.098-0.813v-0.698h0.376h4.297h1.557l0.382-1.509c0.07-0.278,0.106-0.56,0.106-0.837v-0.199
			c0.556-0.813,0.864-1.791,0.864-2.791v-0.338V85.742L33.342,85.742z"/>
	</g>
</g>
<path fill-rule="evenodd" clip-rule="evenodd" fill="#484848" d="M131.124,141.569l0.606,0.87l-6.039,4.229l-0.744-1.066
	l-0.757,1.086c-1.884-1.318-3.768-2.637-5.647-3.955l0.964-1.2c-2.901-2.404-2.494-2.096-2.494-5.29c1.33,0,2.665,0,3.996,0
	c-0.977,2.971-0.79,2.039-0.811,5.123c1.083,0.269,2.405,0.806,3.512,0.566l-0.606-2.809c3.532,1.295,3.553,1.53,2.08-2.881
	c2.551,0,5.106,0,7.662,0C132.846,138.358,133,140.145,131.124,141.569z"/>
<path fill-rule="evenodd" clip-rule="evenodd" fill="#BBBBBB" d="M128.837,140.906l0.818,1.167l-3.593,2.515l-0.993-1.42l0.427-0.09
	l-0.321-1.465l1.51,0.42c0.565-1.518,1.127-2.637,0.574-4.289h4.085C131.344,139.314,130.566,140.788,128.837,140.906
	L128.837,140.906z M123.824,144.608c1.709-2.445,0.541-0.667-1.778-1.245L123.824,144.608L123.824,144.608z M118.722,139.172
	c-0.208-0.508-0.212-0.902-0.212-1.428h0.432c-0.114,0.342-0.184,0.695-0.212,1.054
	C118.722,138.924,118.718,139.046,118.722,139.172z"/>
<path fill-rule="evenodd" clip-rule="evenodd" fill="#484848" d="M118.729,191.569l-0.606,0.87l6.039,4.229l0.744-1.066l0.761,1.086
	l1.222-0.854l1.777-1.245l2.646-1.855l-0.965-1.2c2.901-2.404,2.499-2.096,2.499-5.29c-1.335,0-2.666,0-4,0
	c0.977,2.971,0.789,2.039,0.81,5.119c-1.082,0.272-2.4,0.81-3.512,0.57l0.606-2.809l-2.556,0.937l-0.139,0.053l-0.004-0.008
	c-0.488-1.323,0.204-2.612,0.623-3.862c-2.556,0-5.111,0-7.662,0c0,1.767-0.203,3.284,1.106,4.762
	C118.307,191.211,118.51,191.402,118.729,191.569z"/>
<path fill-rule="evenodd" clip-rule="evenodd" fill="#BBBBBB" d="M121.017,190.906l-0.813,1.167l3.593,2.515l0.992-1.42l-0.427-0.09
	l0.35-1.615l-1.542,0.57c-0.562-1.522-1.123-2.637-0.569-4.293h-4.09C118.51,189.314,119.287,190.788,121.017,190.906
	L121.017,190.906z M125.069,193.229l0.964,1.379l1.778-1.245C126.767,193.624,126.063,193.445,125.069,193.229L125.069,193.229z
	 M131.137,189.172c0.203-0.508,0.207-0.902,0.207-1.432h-0.427C131.067,188.2,131.145,188.692,131.137,189.172z"/>
<g>
	<g>
		<path fill-rule="evenodd" clip-rule="evenodd" fill="#BBBBBB" d="M71.741,145.401v-3.299l-1.272-0.267
			c-1.853-0.389-2.959-1.918-2.959-4.092v-1h4.534l-0.484,1.34c-0.281,0.779-0.266,1.632,0.042,2.401l0.475,1.183l1.121,0.574
			c0.489,0.25,0.937,0.367,1.41,0.367c0,0,0,0,0,0c0.564,0,1.185-0.16,2.139-0.554l0.986-0.405l0.164-0.924
			c0.134-0.754,0.164-2.21,0.012-2.665l-0.441-1.317h4.875v1c0,2.348-1.325,3.978-3.376,4.153l-0.839,0.072v3.432H71.741z"/>
	</g>
	<g>
		<path fill="#484848" d="M81.343,137.744c0,1.555-0.752,3.011-2.461,3.157c0.134-0.753,0.22-2.429-0.024-3.157H81.343
			 M70.619,137.744c-0.364,1.009-0.344,2.12,0.055,3.113c-1.556-0.326-2.165-1.66-2.165-3.113H70.619 M77.128,142.98v1.421h-4.387
			v-1.27c0.658,0.337,1.265,0.478,1.866,0.478C75.421,143.609,76.224,143.353,77.128,142.98 M83.343,135.744h-2h-2.485h-2.779
			l0.883,2.636c0.088,0.333,0.063,1.54-0.048,2.172l-0.068,0.383l-0.478,0.196c-0.826,0.34-1.335,0.479-1.76,0.479
			c-0.313,0-0.607-0.08-0.955-0.258l-0.788-0.403l-0.335-0.836c-0.217-0.541-0.228-1.141-0.03-1.688l0.967-2.68h-2.849h-2.11h-2v2
			c0,2.643,1.438,4.585,3.754,5.07l0.478,0.101v0.217v1.27v2h2h4.387h2v-2v-1.421v-0.094c2.524-0.253,4.215-2.311,4.215-5.143
			V135.744L83.343,135.744z"/>
	</g>
</g>
<g>
	<g>
		<path fill-rule="evenodd" clip-rule="evenodd" fill="#BBBBBB" d="M71.729,195.396v-3.427l-0.839-0.072
			c-2.052-0.176-3.378-1.808-3.378-4.157v-1h4.853l-0.416,1.304c-0.307,0.961-0.223,1.414-0.021,2.509l0.202,1.099l0.98,0.404
			c0.954,0.394,1.573,0.554,2.138,0.554c0.473,0,0.922-0.117,1.413-0.368l1.125-0.575l0.468-1.178
			c0.309-0.775,0.323-1.631,0.042-2.408l-0.484-1.34h4.532v1c0,2.177-1.104,3.708-2.955,4.096l-1.272,0.268v3.293H71.729z"/>
	</g>
	<g>
		<path fill="#484848" d="M81.343,187.74c0,1.457-0.605,2.791-2.16,3.117c0.395-0.993,0.419-2.104,0.053-3.117H81.343
			 M70.996,187.74c-0.401,1.257-0.25,1.908-0.021,3.161c-1.709-0.146-2.464-1.603-2.464-3.161H70.996 M72.729,192.98
			c0.903,0.372,1.705,0.629,2.519,0.629c0.601,0,1.208-0.141,1.868-0.478v1.265h-4.386V192.98 M83.343,185.74h-2h-2.107h-2.85
			l0.969,2.68c0.198,0.548,0.188,1.151-0.03,1.699l-0.329,0.828l-0.791,0.404c-0.348,0.178-0.644,0.258-0.957,0.258
			c-0.424,0-0.933-0.139-1.756-0.478l-0.477-0.197l-0.072-0.395l-0.031-0.169c-0.194-1.052-0.24-1.301-0.01-2.023l0.832-2.607
			h-2.737h-2.484h-2v2c0,2.834,1.692,4.893,4.218,5.146v0.094v1.416v2h2h4.386h2v-2v-1.265v-0.217l0.479-0.101
			c2.313-0.484,3.749-2.43,3.749-5.074V185.74L83.343,185.74z"/>
	</g>
</g>
<path fill-rule="evenodd" clip-rule="evenodd" fill="#484848" d="M25.695,146.668l-0.747-1.066l-0.759,1.086
	c-2.012-1.407-4.024-2.819-6.036-4.228l0.592-0.842c-0.26-0.2-0.492-0.428-0.696-0.68c-1.162-1.448-1.04-2.982-1.04-4.696
	c2.413,0,4.826,0,7.237,0l-0.621,1.949c-0.806,2.523,1.847,4.614,4.291,3.316l-0.09-0.139l-1.455-2.307l2.726,0.017
	c0.315,0.004,0.083-0.68,0.017-0.892l-0.61-1.945c1.446,0,2.893,0,4.339,0c0,5.615-4.134,3.17-1.786,6.67
	C29.269,144.161,27.481,145.414,25.695,146.668z"/>
<path fill-rule="evenodd" clip-rule="evenodd" fill="#BBBBBB" d="M28.423,142.932l-2.364,1.656l-0.925-1.326
	C26.228,143.587,27.412,143.469,28.423,142.932L28.423,142.932z M24.834,143.164l-1.013,1.444l-3.591-2.515l0.83-1.184
	c-1.752-0.094-2.549-1.579-2.549-3.166h3.692C21.495,139.97,22.665,142.346,24.834,143.164L24.834,143.164z M30.545,137.744h0.797
	c0,0.818-0.071,1.428-0.598,2.111C30.749,139.1,30.779,138.488,30.545,137.744L30.545,137.744z M29.924,140.576
	c-0.378,0.212-0.572,0.407-0.832-0.004L29.924,140.576z"/>
<path fill-rule="evenodd" clip-rule="evenodd" fill="#484848" d="M24.161,196.668l0.745-1.066l0.761,1.086l6.035-4.228l-0.59-0.842
	c0.261-0.2,0.491-0.428,0.696-0.68c1.162-1.448,1.038-2.982,1.038-4.696c-2.411,0-4.824,0-7.237,0l0.623,1.949
	c0.79,2.475-1.888,4.59-4.1,3.418l-0.191-0.102l0.089-0.139l1.453-2.307l-2.875,0.017c0.026-0.888,0.474-1.978,0.742-2.837
	c-1.444,0-2.891,0-4.337,0v1.498c0,3.634,4.215,1.55,1.786,5.172C20.586,194.161,22.374,195.414,24.161,196.668z"/>
<path fill-rule="evenodd" clip-rule="evenodd" fill="#BBBBBB" d="M21.432,192.932l2.362,1.656l0.928-1.326
	C23.627,193.587,22.441,193.469,21.432,192.932L21.432,192.932z M25.021,193.164l1.011,1.444l3.591-2.515l-0.828-1.184
	c1.75-0.094,2.549-1.579,2.549-3.17h-3.693C28.36,189.966,27.188,192.346,25.021,193.164L25.021,193.164z M19.31,187.74h-0.799
	c0,0.822,0.073,1.432,0.6,2.115C19.107,189.1,19.074,188.488,19.31,187.74L19.31,187.74z M19.931,190.576
	c0.376,0.212,0.572,0.407,0.832-0.004L19.931,190.576z"/>
</svg>
