<svg version="1.1" id="Layer_3" xmlns="http://www.w3.org/2000/svg" x="0" y="0" width="150" height="250" viewBox="0 0 150 250" xml:space="preserve"><g><g><path fill-rule="evenodd" clip-rule="evenodd" fill="#BBB" d="M25.351 245.458l-.186-.764c-.133-.545-.125-1.538-.094-2.784h-.289c.032 1.246.041 2.239-.093 2.785l-.186.763h-5.87l-.186-.764c-.152-.626-.132-1.929-.09-3.567.005-.213.011-.412.014-.586-.748-.907-.86-1.878-.86-2.801v-1h14.832v1c0 .922-.112 1.892-.859 2.8.003.172.008.368.014.579.042 1.642.061 2.948-.092 3.575l-.186.764h-5.869z"/></g><g><path fill="#484848" d="M31.342 237.74c0 .964-.14 1.709-.864 2.417 0 .928.134 3.564-.045 4.301h-4.297c-.161-.659-.045-2.742-.045-3.548H23.76c0 .806.118 2.889-.043 3.548h-4.299c-.179-.736-.042-3.373-.042-4.301-.727-.708-.865-1.457-.865-2.417h12.831m2-2H16.511v2c0 .971.115 2.072.852 3.127l-.006.234c-.054 2.091-.05 3.14.118 3.828l.371 1.528h14.161l.372-1.527c.167-.689.172-1.741.12-3.837l-.005-.228c.736-1.056.852-2.156.852-3.126v-1.999h-.004z"/></g></g><g><g><path fill-rule="evenodd" clip-rule="evenodd" fill="#BBB" d="M75.349 245.458l-.186-.764c-.133-.545-.125-1.538-.093-2.784h-.289c.032 1.245.04 2.238-.091 2.782l-.185.766h-5.872l-.186-.764c-.152-.627-.133-1.934-.092-3.575l.014-.579c-.748-.908-.86-1.878-.86-2.8v-1h14.833v1c0 .924-.112 1.895-.861 2.801l.015.592c.043 1.636.063 2.937-.089 3.563l-.187.763h-5.871z"/></g><g><path fill="#484848" d="M81.343 237.74c0 .964-.138 1.709-.866 2.417 0 .928.139 3.564-.041 4.301h-4.301c-.161-.659-.043-2.742-.043-3.548H73.76c0 .806.116 2.889-.042 3.548h-4.299c-.179-.736-.045-3.373-.045-4.301-.724-.708-.865-1.457-.865-2.417h12.834m2-2H66.509v2c0 .97.115 2.07.852 3.126l-.005.228c-.053 2.096-.048 3.147.12 3.837l.372 1.527h14.159l.373-1.525c.168-.689.172-1.737.117-3.825l-.007-.239c.738-1.055.854-2.156.854-3.128v-2.001h-.001z"/></g></g><g><g><path fill-rule="evenodd" clip-rule="evenodd" fill="#BBB" d="M75.35 95.46l-.186-.763c-.133-.544-.125-1.537-.093-2.783h-.289c.032 1.246.04 2.238-.091 2.781l-.185.765h-5.872l-.186-.764c-.152-.627-.133-1.933-.092-3.576l.014-.579c-.748-.91-.86-1.879-.86-2.799v-1h14.833v1c0 .922-.112 1.893-.861 2.8l.015.593c.043 1.635.063 2.936-.089 3.562l-.187.763H75.35z"/></g><g><path fill="#484848" d="M81.343 87.742c0 .962-.138 1.707-.866 2.417 0 .928.139 3.564-.041 4.301h-4.301c-.161-.657-.043-2.745-.043-3.546H73.76c0 .801.116 2.889-.042 3.546h-4.299c-.179-.736-.045-3.373-.045-4.301-.724-.71-.865-1.457-.865-2.417h12.834m2-2H66.509v2c0 .969.115 2.068.852 3.125l-.005.228c-.053 2.096-.048 3.147.12 3.837l.372 1.527h14.159l.373-1.526c.168-.689.172-1.737.117-3.825l-.007-.24c.738-1.056.854-2.156.854-3.127v-1.999h-.001z"/></g></g><g><g><path fill-rule="evenodd" clip-rule="evenodd" fill="#BBB" d="M75.35 45.46l-.186-.763c-.133-.544-.125-1.537-.093-2.783h-.289c.032 1.246.04 2.238-.091 2.781l-.185.765h-5.871l-.187-.763c-.152-.626-.133-1.933-.092-3.576l.014-.58c-.748-.91-.86-1.878-.86-2.797v-1h14.833v1c0 .921-.112 1.891-.861 2.798l.015.593c.043 1.637.063 2.938-.089 3.563l-.187.762H75.35z"/></g><g><path fill="#484848" d="M81.343 37.744c0 .96-.138 1.705-.866 2.415 0 .928.139 3.566-.041 4.301h-4.301c-.161-.657-.043-2.745-.043-3.546H73.76c0 .801.116 2.889-.042 3.546h-4.299c-.179-.734-.045-3.373-.045-4.301-.724-.71-.865-1.455-.865-2.415h12.834m2-2H66.509v2c0 .968.115 2.066.852 3.124l-.005.228c-.053 2.098-.048 3.149.12 3.838l.372 1.526h14.157l.373-1.524c.169-.688.173-1.737.118-3.826l-.007-.24c.738-1.056.854-2.156.854-3.125v-2.001z"/></g></g><g><g><path fill-rule="evenodd" clip-rule="evenodd" fill="#BBB" d="M125.349 245.458l-.185-.766c-.132-.544-.125-1.536-.094-2.782h-.29c.032 1.245.041 2.237-.089 2.781l-.185.767h-5.876l-.186-.764c-.151-.625-.131-1.925-.088-3.559l.015-.595c-.75-.907-.862-1.878-.862-2.801v-1h14.834v1c0 .921-.112 1.89-.861 2.8l.015.581c.042 1.643.063 2.949-.094 3.577l-.188.76h-5.866z"/></g><g><path fill="#484848" d="M131.344 237.74c0 .964-.143 1.709-.866 2.417 0 .928.138 3.564-.045 4.301h-4.297c-.159-.659-.045-2.742-.045-3.548h-2.332c0 .806.118 2.889-.04 3.548h-4.302c-.179-.736-.04-3.373-.04-4.301-.729-.708-.867-1.457-.867-2.417h12.834m2-2H116.51v2c0 .972.115 2.073.854 3.128l-.007.241c-.055 2.086-.051 3.133.116 3.82l.371 1.528h14.152l.377-1.519c.172-.693.177-1.746.122-3.844l-.006-.229c.738-1.058.854-2.157.854-3.126v-1.999h.001z"/></g></g><g><g><path fill-rule="evenodd" clip-rule="evenodd" fill="#BBB" d="M25.365 45.46l-.196-.746a2.337 2.337 0 01-.078-.598v-2.202h-.465l-.121.502h-5.878l-.182-.771a2.443 2.443 0 01-.069-.573v-.53a3.942 3.942 0 01-.865-2.463v-1.336h14.832v1.336a3.95 3.95 0 01-.864 2.462v3.574c0 .197-.026.396-.077.593l-.193.75h-5.844z"/></g><g><path fill="#484848" d="M31.342 37.744v.336a2.91 2.91 0 01-.864 2.079v3.957c0 .118-.017.234-.045.344h-4.297a1.364 1.364 0 01-.045-.344v-3.202H23.76v.159c0 .116-.016.232-.043.344h-4.299a1.514 1.514 0 01-.042-.344v-.914a2.902 2.902 0 01-.865-2.079v-.336h12.831m2-2H16.511v2.336c0 1.002.308 1.98.865 2.792v.2c0 .263.032.533.096.803l.363 1.541h6.257v.7c0 .286.037.572.11.851l.392 1.493h7.39l.387-1.501c.072-.278.108-.562.108-.843v-3.245a4.962 4.962 0 00.864-2.791v-2.336h-.001z"/></g></g><g><g><path fill-rule="evenodd" clip-rule="evenodd" fill="#BBB" d="M125.357 95.46l-.191-.754a2.418 2.418 0 01-.075-.591v-2.2h-.457l-.109.502h-5.913l-.171-.787a2.557 2.557 0 01-.063-.56v-.526a3.933 3.933 0 01-.867-2.464v-1.338h14.834v1.338c0 .898-.312 1.774-.866 2.462v3.572c0 .197-.024.391-.075.591l-.191.754h-5.856z"/></g><g><path fill="#484848" d="M131.344 87.742v.338c0 .817-.334 1.558-.866 2.079v3.955c0 .12-.017.234-.045.346h-4.297a1.44 1.44 0 01-.045-.346v-3.2h-2.332v.156c0 .118-.016.234-.04.346h-4.302a1.638 1.638 0 01-.04-.346v-.911a2.895 2.895 0 01-.867-2.079v-.338h12.834m2-2H116.51v2.338a4.95 4.95 0 00.867 2.794v.196c0 .255.028.507.086.773l.344 1.573h6.284v.698c0 .277.036.559.106.837l.382 1.509h7.411l.382-1.509c.07-.278.106-.56.106-.837v-3.242a4.952 4.952 0 00.866-2.792v-2.338z"/></g></g><g><g><path fill-rule="evenodd" clip-rule="evenodd" fill="#BBB" d="M118.615 45.46l-.175-.783a2.608 2.608 0 01-.063-.561v-3.573a3.934 3.934 0 01-.867-2.463v-1.336h14.834v1.336c0 .9-.312 1.776-.866 2.463v.529c0 .193-.025.392-.075.589l-.191.754h-5.854l-.127-.502h-.472v2.202c0 .182-.021.37-.063.561l-.175.783h-5.906z"/></g><g><path fill="#484848" d="M131.344 37.744v.336c0 .82-.334 1.56-.866 2.079v.914c0 .118-.017.232-.045.344h-4.297a1.424 1.424 0 01-.045-.344v-.159h-2.332v3.202c0 .116-.016.234-.04.344h-4.302a1.619 1.619 0 01-.04-.344v-3.957a2.904 2.904 0 01-.867-2.079v-.336h12.834m2-2H116.51v2.336c0 1.001.31 1.98.867 2.793v3.243c0 .254.029.516.088.778l.348 1.566h7.51l.348-1.566c.059-.262.088-.523.088-.778v-.7h6.231l.382-1.509c.07-.278.106-.559.106-.835v-.2a4.948 4.948 0 00.866-2.793v-2.335z"/></g></g><g><g><path fill-rule="evenodd" clip-rule="evenodd" fill="#BBB" d="M18.626 95.46l-.182-.771a2.453 2.453 0 01-.069-.575v-3.571a3.94 3.94 0 01-.867-2.463v-1.338h14.833v1.338a3.95 3.95 0 01-.864 2.462v.528c0 .197-.025.391-.076.592l-.191.754h-5.85l-.129-.502h-.471v2.2c0 .189-.024.384-.071.579l-.184.767h-5.879z"/></g><g><path fill="#484848" d="M31.342 87.742v.338c0 .82-.335 1.56-.864 2.079v.911c0 .12-.017.234-.045.346h-4.297a1.38 1.38 0 01-.045-.346v-.156H23.76v3.2c0 .116-.016.234-.043.346h-4.299a1.517 1.517 0 01-.042-.346v-3.955a2.904 2.904 0 01-.867-2.079v-.338h12.833m2-2H16.509v2.338c0 1.001.309 1.98.867 2.793v3.241c0 .268.031.531.096.805l.363 1.541h7.458l.369-1.533c.065-.271.098-.545.098-.813v-.698h6.23l.382-1.509c.07-.278.106-.56.106-.837v-.199a4.962 4.962 0 00.864-2.791v-2.338z"/></g></g><path fill-rule="evenodd" clip-rule="evenodd" fill="#484848" d="M131.124 141.569l.606.87-6.039 4.229-.744-1.066-.757 1.086a5523.605 5523.605 0 01-5.647-3.955l.964-1.2c-2.901-2.404-2.494-2.096-2.494-5.29h3.996c-.977 2.971-.79 2.039-.811 5.123 1.083.269 2.405.806 3.512.566l-.606-2.809c3.532 1.295 3.553 1.53 2.08-2.881h7.662c0 2.116.154 3.903-1.722 5.327z"/><path fill-rule="evenodd" clip-rule="evenodd" fill="#BBB" d="M128.837 140.906l.818 1.167-3.593 2.515-.993-1.42.427-.09-.321-1.465 1.51.42c.565-1.518 1.127-2.637.574-4.289h4.085c0 1.57-.778 3.044-2.507 3.162zm-5.013 3.702c1.709-2.445.541-.667-1.778-1.245l1.778 1.245zm-5.102-5.436c-.208-.508-.212-.902-.212-1.428h.432a4.411 4.411 0 00-.212 1.054 3.89 3.89 0 00-.008.374z"/><path fill-rule="evenodd" clip-rule="evenodd" fill="#484848" d="M118.729 191.569l-.606.87 6.039 4.229.744-1.066.761 1.086 1.222-.854 1.777-1.245 2.646-1.855-.965-1.2c2.901-2.404 2.499-2.096 2.499-5.29h-4c.977 2.971.789 2.039.81 5.119-1.082.272-2.4.81-3.512.57l.606-2.809-2.556.937-.139.053-.004-.008c-.488-1.323.204-2.612.623-3.862h-7.662c0 1.767-.203 3.284 1.106 4.762.189.205.392.396.611.563z"/><path fill-rule="evenodd" clip-rule="evenodd" fill="#BBB" d="M121.017 190.906l-.813 1.167 3.593 2.515.992-1.42-.427-.09.35-1.615-1.542.57c-.562-1.522-1.123-2.637-.569-4.293h-4.09c-.001 1.574.776 3.048 2.506 3.166zm4.052 2.323l.964 1.379 1.778-1.245c-1.044.261-1.748.082-2.742-.134zm6.068-4.057c.203-.508.207-.902.207-1.432h-.427c.15.46.228.952.22 1.432z"/><g><g><path fill-rule="evenodd" clip-rule="evenodd" fill="#BBB" d="M71.741 145.401v-3.299l-1.272-.267c-1.853-.389-2.959-1.918-2.959-4.092v-1h4.534l-.484 1.34a3.373 3.373 0 00.042 2.401l.475 1.183 1.121.574c.489.25.937.367 1.41.367.564 0 1.185-.16 2.139-.554l.986-.405.164-.924c.134-.754.164-2.21.012-2.665l-.441-1.317h4.875v1c0 2.348-1.325 3.978-3.376 4.153l-.839.072v3.432h-6.387z"/></g><g><path fill="#484848" d="M81.343 137.744c0 1.555-.752 3.011-2.461 3.157.134-.753.22-2.429-.024-3.157h2.485m-10.724 0a4.377 4.377 0 00.055 3.113c-1.556-.326-2.165-1.66-2.165-3.113h2.11m6.509 5.236v1.421h-4.387v-1.27c.658.337 1.265.478 1.866.478.814 0 1.617-.256 2.521-.629m6.215-7.236h-7.264l.883 2.636c.088.333.063 1.54-.048 2.172l-.068.383-.478.196c-.826.34-1.335.479-1.76.479-.313 0-.607-.08-.955-.258l-.788-.403-.335-.836a2.367 2.367 0 01-.03-1.688l.967-2.68h-6.959v2c0 2.643 1.438 4.585 3.754 5.07l.478.101v3.487h8.387v-3.515c2.524-.253 4.215-2.311 4.215-5.143v-2.001h.001z"/></g></g><g><g><path fill-rule="evenodd" clip-rule="evenodd" fill="#BBB" d="M71.729 195.396v-3.427l-.839-.072c-2.052-.176-3.378-1.808-3.378-4.157v-1h4.853l-.416 1.304c-.307.961-.223 1.414-.021 2.509l.202 1.099.98.404c.954.394 1.573.554 2.138.554.473 0 .922-.117 1.413-.368l1.125-.575.468-1.178a3.388 3.388 0 00.042-2.408l-.484-1.34h4.532v1c0 2.177-1.104 3.708-2.955 4.096l-1.272.268v3.293h-6.388z"/></g><g><path fill="#484848" d="M81.343 187.74c0 1.457-.605 2.791-2.16 3.117a4.398 4.398 0 00.053-3.117h2.107m-10.347 0c-.401 1.257-.25 1.908-.021 3.161-1.709-.146-2.464-1.603-2.464-3.161h2.485m1.733 5.24c.903.372 1.705.629 2.519.629.601 0 1.208-.141 1.868-.478v1.265H72.73v-1.416m10.613-7.24h-6.957l.969 2.68a2.392 2.392 0 01-.03 1.699l-.329.828-.791.404c-.348.178-.644.258-.957.258-.424 0-.933-.139-1.756-.478l-.477-.197-.072-.395-.031-.169c-.194-1.052-.24-1.301-.01-2.023l.832-2.607h-7.221v2c0 2.834 1.692 4.893 4.218 5.146v3.51h8.386v-3.482l.479-.101c2.313-.484 3.749-2.43 3.749-5.074v-1.999h-.002z"/></g></g><path fill-rule="evenodd" clip-rule="evenodd" fill="#484848" d="M25.695 146.668l-.747-1.066-.759 1.086c-2.012-1.407-4.024-2.819-6.036-4.228l.592-.842a4.15 4.15 0 01-.696-.68c-1.162-1.448-1.04-2.982-1.04-4.696h7.237l-.621 1.949c-.806 2.523 1.847 4.614 4.291 3.316l-.09-.139-1.455-2.307 2.726.017c.315.004.083-.68.017-.892l-.61-1.945h4.339c0 5.615-4.134 3.17-1.786 6.67-1.788 1.25-3.576 2.503-5.362 3.757z"/><path fill-rule="evenodd" clip-rule="evenodd" fill="#BBB" d="M28.423 142.932l-2.364 1.656-.925-1.326a4.368 4.368 0 003.289-.33zm-3.589.232l-1.013 1.444-3.591-2.515.83-1.184c-1.752-.094-2.549-1.579-2.549-3.166h3.692a4.379 4.379 0 002.631 5.421zm5.711-5.42h.797c0 .818-.071 1.428-.598 2.111.005-.755.035-1.367-.199-2.111zm-.621 2.832c-.378.212-.572.407-.832-.004l.832.004z"/><path fill-rule="evenodd" clip-rule="evenodd" fill="#484848" d="M24.161 196.668l.745-1.066.761 1.086 6.035-4.228-.59-.842c.261-.2.491-.428.696-.68 1.162-1.448 1.038-2.982 1.038-4.696h-7.237l.623 1.949c.79 2.475-1.888 4.59-4.1 3.418l-.191-.102.089-.139 1.453-2.307-2.875.017c.026-.888.474-1.978.742-2.837h-4.337v1.498c0 3.634 4.215 1.55 1.786 5.172a4361.77 4361.77 0 015.362 3.757z"/><path fill-rule="evenodd" clip-rule="evenodd" fill="#BBB" d="M21.432 192.932l2.362 1.656.928-1.326a4.37 4.37 0 01-3.29-.33zm3.589.232l1.011 1.444 3.591-2.515-.828-1.184c1.75-.094 2.549-1.579 2.549-3.17h-3.693a4.384 4.384 0 01-2.63 5.425zm-5.711-5.424h-.799c0 .822.073 1.432.6 2.115-.004-.755-.037-1.367.199-2.115zm.621 2.836c.376.212.572.407.832-.004l-.832.004z"/></svg>