<?xml version="1.0" encoding="utf-8"?>
<!-- Generator: Adobe Illustrator 16.0.0, SVG Export Plug-In . SVG Version: 6.00 Build 0)  -->
<!DOCTYPE svg PUBLIC "-//W3C//DTD SVG 1.1//EN" "http://www.w3.org/Graphics/SVG/1.1/DTD/svg11.dtd">
<svg version="1.1" id="Layer_3" xmlns="http://www.w3.org/2000/svg" xmlns:xlink="http://www.w3.org/1999/xlink" x="0px" y="0px"
	 width="150px" height="250px" viewBox="0 0 150 250" enable-background="new 0 0 150 250" xml:space="preserve">
<g>
	<g>
		<path fill-rule="evenodd" clip-rule="evenodd" fill="#BBBBBB" d="M13.4,229.5c-1.1,0-2-0.5-2.7-1.5c-1.2-1.7-1.6-4.8-0.8-7.3l1-3
			l1,3c0.5,1.7,2.7,3.2,4.3,4.3c1.7,1.2,2.8,2,2.4,3.1C18.1,229.2,16.9,229.5,13.4,229.5z"/>
		<path fill="#231F20" d="M10.8,221c1.5,4.7,12.5,7.5,2.5,7.5C10.7,228.5,9.8,224.1,10.8,221 M10.8,214.5l-1.9,5.9
			c-0.9,2.8-0.5,6.2,0.9,8.2c0.9,1.2,2.1,1.9,3.5,1.9c3.2,0,5.4-0.1,6-2c0.6-1.8-1-3-2.8-4.2c-1.4-1-3.5-2.5-3.9-3.8L10.8,214.5
			L10.8,214.5z"/>
	</g>
	<g>
		<path fill-rule="evenodd" clip-rule="evenodd" fill="#BBBBBB" d="M36.5,229.5c-3.6,0-4.8-0.3-5.1-1.3c-0.4-1.1,0.7-1.9,2.4-3.1
			c1.6-1.1,3.7-2.7,4.3-4.3l1-3l1,3c0.8,2.5,0.5,5.6-0.8,7.3C38.5,229,37.6,229.5,36.5,229.5z"/>
		<path fill="#231F20" d="M39,221c1,3,0.1,7.5-2.5,7.5C26.5,228.5,37.5,225.8,39,221 M39,214.5l-1.9,5.9c-0.4,1.3-2.5,2.8-3.9,3.8
			c-1.7,1.2-3.4,2.4-2.8,4.2c0.6,1.9,2.9,2,6,2c1.4,0,2.7-0.7,3.5-1.9c1.6-2.2,1.7-5.8,0.9-8.2L39,214.5L39,214.5z"/>
	</g>
</g>
<g>
	<g>
		<path fill-rule="evenodd" clip-rule="evenodd" fill="#BBBBBB" d="M13.4,79.5c-1.1,0-2-0.5-2.7-1.5c-1.2-1.7-1.6-4.8-0.8-7.3l1-3
			l1,3c0.5,1.7,2.7,3.2,4.3,4.3c1.7,1.2,2.8,2,2.4,3.1C18.1,79.2,16.9,79.5,13.4,79.5z"/>
		<path fill="#231F20" d="M10.8,71c1.5,4.7,12.5,7.5,2.5,7.5C10.7,78.5,9.8,74.1,10.8,71 M10.8,64.5l-1.9,5.9
			c-0.9,2.8-0.5,6.2,0.9,8.2c0.9,1.2,2.1,1.9,3.5,1.9c3.2,0,5.4-0.1,6-2c0.6-1.8-1-3-2.8-4.2c-1.4-1-3.5-2.5-3.9-3.8L10.8,64.5
			L10.8,64.5z"/>
	</g>
	<g>
		<path fill-rule="evenodd" clip-rule="evenodd" fill="#BBBBBB" d="M36.5,79.5c-3.6,0-4.8-0.3-5.1-1.3c-0.4-1.1,0.7-1.9,2.4-3.1
			c1.6-1.1,3.7-2.7,4.3-4.3l1-3l1,3c0.8,2.5,0.5,5.6-0.8,7.3C38.5,79,37.6,79.5,36.5,79.5z"/>
		<path fill="#231F20" d="M39,71c1,3,0.1,7.5-2.5,7.5C26.5,78.5,37.5,75.8,39,71 M39,64.5l-1.9,5.9c-0.4,1.3-2.5,2.8-3.9,3.8
			c-1.7,1.2-3.4,2.4-2.8,4.2c0.6,1.9,2.9,2,6,2c1.4,0,2.7-0.7,3.5-1.9c1.4-2,1.8-5.4,0.9-8.2L39,64.5L39,64.5z"/>
	</g>
</g>
<g>
	<g>
		<path fill-rule="evenodd" clip-rule="evenodd" fill="#BBBBBB" d="M13.4,29.5c-1.1,0-2-0.5-2.7-1.5c-1.2-1.7-1.6-4.8-0.8-7.3l1-3
			l1,3c0.5,1.7,2.7,3.2,4.3,4.3c1.7,1.2,2.8,2,2.4,3.1C18.1,29.2,16.9,29.5,13.4,29.5z"/>
		<path fill="#231F20" d="M10.8,21c1.5,4.7,12.5,7.5,2.5,7.5C10.7,28.5,9.8,24.1,10.8,21 M10.8,14.5l-1.9,5.9
			c-0.9,2.8-0.5,6.2,0.9,8.2c0.9,1.2,2.1,1.9,3.5,1.9c3.2,0,5.4-0.1,6-2c0.6-1.8-1-3-2.8-4.2c-1.4-1-3.5-2.5-3.9-3.8L10.8,14.5
			L10.8,14.5z"/>
	</g>
	<g>
		<path fill-rule="evenodd" clip-rule="evenodd" fill="#BBBBBB" d="M36.5,29.5c-3.6,0-4.8-0.3-5.1-1.3c-0.4-1.1,0.7-1.9,2.4-3.1
			c1.6-1.1,3.7-2.7,4.3-4.3l1-3l1,3c0.8,2.5,0.5,5.6-0.8,7.3C38.5,29,37.6,29.5,36.5,29.5z"/>
		<path fill="#231F20" d="M39,21c1,3,0.1,7.5-2.5,7.5C26.5,28.5,37.5,25.8,39,21 M39,14.5l-1.9,5.9c-0.4,1.3-2.5,2.8-3.9,3.8
			c-1.7,1.2-3.4,2.4-2.8,4.2c0.6,1.9,2.9,2,6,2c1.4,0,2.7-0.7,3.5-1.9c1.4-2,1.8-5.4,0.9-8.2L39,14.5L39,14.5z"/>
	</g>
</g>
<g>
	<g>
		<path fill-rule="evenodd" clip-rule="evenodd" fill="#BBBBBB" d="M63.4,229.5c-1.1,0-2-0.5-2.7-1.5c-1.2-1.7-1.6-4.8-0.8-7.3l1-3
			l1,3c0.5,1.7,2.7,3.2,4.3,4.3c1.7,1.2,2.8,2,2.4,3.1C68.1,229.2,66.9,229.5,63.4,229.5z"/>
		<path fill="#231F20" d="M60.8,221c1.5,4.7,12.5,7.5,2.5,7.5C60.7,228.5,59.8,224.1,60.8,221 M60.8,214.5l-1.9,5.9
			c-0.8,2.4-0.7,6,0.9,8.2c0.9,1.2,2.1,1.9,3.5,1.9c3.2,0,5.4-0.1,6-2c0.6-1.8-1-3-2.8-4.2c-1.4-1-3.5-2.5-3.9-3.8L60.8,214.5
			L60.8,214.5z"/>
	</g>
	<g>
		<path fill-rule="evenodd" clip-rule="evenodd" fill="#BBBBBB" d="M86.5,229.5c-3.6,0-4.8-0.3-5.1-1.3c-0.4-1.1,0.7-1.9,2.4-3.1
			c1.6-1.1,3.7-2.7,4.3-4.3l1-3l1,3c0.8,2.5,0.5,5.6-0.8,7.3C88.5,229,87.6,229.5,86.5,229.5z"/>
		<path fill="#231F20" d="M89,221c1,3,0.1,7.5-2.5,7.5C76.5,228.5,87.5,225.8,89,221 M89,214.5l-1.9,5.9c-0.4,1.3-2.5,2.8-3.9,3.8
			c-1.7,1.2-3.4,2.4-2.8,4.2c0.6,1.9,2.9,2,6,2c1.4,0,2.7-0.7,3.5-1.9c1.6-2.2,1.7-5.8,0.9-8.2L89,214.5L89,214.5z"/>
	</g>
</g>
<g>
	<g>
		<path fill-rule="evenodd" clip-rule="evenodd" fill="#BBBBBB" d="M63.4,79.5c-1.1,0-2-0.5-2.7-1.5c-1.2-1.7-1.6-4.8-0.8-7.3l1-3
			l1,3c0.5,1.7,2.7,3.2,4.3,4.3c1.7,1.2,2.8,2,2.4,3.1C68.1,79.2,66.9,79.5,63.4,79.5z"/>
		<path fill="#231F20" d="M60.8,71c1.5,4.7,12.5,7.5,2.5,7.5C60.7,78.5,59.8,74.1,60.8,71 M60.8,64.5l-1.9,5.9
			c-0.9,2.8-0.5,6.2,0.9,8.2c0.9,1.2,2.1,1.9,3.5,1.9c3.2,0,5.4-0.1,6-2c0.6-1.8-1-3-2.8-4.2c-1.4-1-3.5-2.5-3.9-3.8L60.8,64.5
			L60.8,64.5z"/>
	</g>
	<g>
		<path fill-rule="evenodd" clip-rule="evenodd" fill="#BBBBBB" d="M86.5,79.5c-3.6,0-4.8-0.3-5.1-1.3c-0.4-1.1,0.7-1.9,2.4-3.1
			c1.6-1.1,3.7-2.7,4.3-4.3l1-3l1,3c0.8,2.5,0.5,5.6-0.8,7.3C88.5,79,87.6,79.5,86.5,79.5z"/>
		<path fill="#231F20" d="M89,71c1,3,0.1,7.5-2.5,7.5C76.5,78.5,87.5,75.8,89,71 M89,64.5l-1.9,5.9c-0.4,1.3-2.5,2.8-3.9,3.8
			c-1.7,1.2-3.4,2.4-2.8,4.2c0.6,1.9,2.9,2,6,2c1.4,0,2.7-0.7,3.5-1.9c1.4-2,1.8-5.4,0.9-8.2L89,64.5L89,64.5z"/>
	</g>
</g>
<g>
	<g>
		<path fill-rule="evenodd" clip-rule="evenodd" fill="#BBBBBB" d="M63.4,29.5c-1.1,0-2-0.5-2.7-1.5c-1.2-1.7-1.6-4.8-0.8-7.3l1-3
			l1,3c0.5,1.7,2.7,3.2,4.3,4.3c1.7,1.2,2.8,2,2.4,3.1C68.1,29.2,66.9,29.5,63.4,29.5z"/>
		<path fill="#231F20" d="M60.8,21c1.5,4.7,12.5,7.5,2.5,7.5C60.7,28.5,59.8,24.1,60.8,21 M60.8,14.5l-1.9,5.9
			c-0.9,2.8-0.5,6.2,0.9,8.2c0.9,1.2,2.1,1.9,3.5,1.9c3.2,0,5.4-0.1,6-2c0.6-1.8-1-3-2.8-4.2c-1.4-1-3.5-2.5-3.9-3.8L60.8,14.5
			L60.8,14.5z"/>
	</g>
	<g>
		<path fill-rule="evenodd" clip-rule="evenodd" fill="#BBBBBB" d="M86.5,29.5c-3.6,0-4.8-0.3-5.1-1.3c-0.4-1.1,0.7-1.9,2.4-3.1
			c1.6-1.1,3.7-2.7,4.3-4.3l1-3l1,3c0.8,2.5,0.5,5.6-0.8,7.3C88.5,29,87.6,29.5,86.5,29.5z"/>
		<path fill="#231F20" d="M89,21c1,3,0.1,7.5-2.5,7.5C76.5,28.5,87.5,25.8,89,21 M89,14.5l-1.9,5.9c-0.4,1.3-2.5,2.8-3.9,3.8
			c-1.7,1.2-3.4,2.4-2.8,4.2c0.6,1.9,2.9,2,6,2c1.4,0,2.7-0.7,3.5-1.9c1.4-2,1.8-5.4,0.9-8.2L89,14.5L89,14.5z"/>
	</g>
</g>
<g>
	<g>
		<path fill-rule="evenodd" clip-rule="evenodd" fill="#BBBBBB" d="M113.4,229.5c-1.1,0-2-0.5-2.7-1.5c-1.3-1.7-1.6-4.8-0.8-7.3l1-3
			l1,3c0.5,1.7,2.7,3.2,4.3,4.3c1.7,1.2,2.8,2,2.4,3.1C118.1,229.2,116.9,229.5,113.4,229.5z"/>
		<path fill="#231F20" d="M110.8,221c1.5,4.7,12.5,7.5,2.5,7.5C110.7,228.5,109.8,224.1,110.8,221 M110.8,214.5l-1.9,5.9
			c-0.8,2.4-0.7,6,0.9,8.2c0.9,1.2,2.1,1.9,3.5,1.9c3.2,0,5.4-0.1,6-2c0.6-1.8-1-3-2.8-4.2c-1.4-1-3.5-2.5-3.9-3.8L110.8,214.5
			L110.8,214.5z"/>
	</g>
	<g>
		<path fill-rule="evenodd" clip-rule="evenodd" fill="#BBBBBB" d="M136.5,229.5c-3.6,0-4.8-0.3-5.1-1.3c-0.4-1.1,0.7-1.9,2.4-3.1
			c1.6-1.1,3.7-2.7,4.3-4.3l1-3l1,3c0.8,2.5,0.5,5.6-0.8,7.3C138.5,229,137.6,229.5,136.5,229.5z"/>
		<path fill="#231F20" d="M139,221c1,3,0.1,7.5-2.5,7.5C126.5,228.5,137.5,225.8,139,221 M139,214.5l-1.9,5.9
			c-0.4,1.3-2.5,2.8-3.9,3.8c-1.7,1.2-3.4,2.4-2.8,4.2c0.6,1.9,2.9,2,6,2c1.4,0,2.7-0.7,3.5-1.9c1.6-2.2,1.7-5.8,0.9-8.2L139,214.5
			L139,214.5z"/>
	</g>
</g>
<g>
	<g>
		<path fill-rule="evenodd" clip-rule="evenodd" fill="#BBBBBB" d="M113.4,79.5c-1.1,0-2-0.5-2.7-1.5c-1.2-1.7-1.6-4.8-0.8-7.3l1-3
			l1,3c0.5,1.7,2.7,3.2,4.3,4.3c1.7,1.2,2.8,2,2.4,3.1C118.1,79.2,116.9,79.5,113.4,79.5z"/>
		<path fill="#231F20" d="M110.8,71c1.5,4.7,12.5,7.5,2.5,7.5C110.7,78.5,109.8,74.1,110.8,71 M110.8,64.5l-1.9,5.9
			c-0.9,2.8-0.5,6.2,0.9,8.2c0.9,1.2,2.1,1.9,3.5,1.9c3.2,0,5.4-0.1,6-2c0.6-1.8-1-3-2.8-4.2c-1.4-1-3.5-2.5-3.9-3.8L110.8,64.5
			L110.8,64.5z"/>
	</g>
	<g>
		<path fill-rule="evenodd" clip-rule="evenodd" fill="#BBBBBB" d="M136.5,79.5c-3.6,0-4.8-0.3-5.1-1.3c-0.4-1.1,0.7-1.9,2.4-3.1
			c1.6-1.1,3.7-2.7,4.3-4.3l1-3l1,3c0.8,2.5,0.5,5.6-0.8,7.3C138.5,79,137.6,79.5,136.5,79.5z"/>
		<path fill="#231F20" d="M139,71c1,3,0.1,7.5-2.5,7.5C126.5,78.5,137.5,75.8,139,71 M139,64.5l-1.9,5.9c-0.4,1.3-2.5,2.8-3.9,3.8
			c-1.7,1.2-3.4,2.4-2.8,4.2c0.6,1.9,2.9,2,6,2c1.4,0,2.7-0.7,3.5-1.9c1.4-2,1.8-5.4,0.9-8.2L139,64.5L139,64.5z"/>
	</g>
</g>
<g>
	<g>
		<path fill-rule="evenodd" clip-rule="evenodd" fill="#BBBBBB" d="M113.4,29.5c-1.1,0-2-0.5-2.7-1.5c-1.2-1.7-1.6-4.8-0.8-7.3l1-3
			l1,3c0.5,1.7,2.7,3.2,4.3,4.3c1.7,1.2,2.8,2,2.4,3.1C118.1,29.2,116.9,29.5,113.4,29.5z"/>
		<path fill="#231F20" d="M110.8,21c1.5,4.7,12.5,7.5,2.5,7.5C110.7,28.5,109.8,24.1,110.8,21 M110.8,14.5l-1.9,5.9
			c-0.9,2.8-0.5,6.2,0.9,8.2c0.9,1.2,2.1,1.9,3.5,1.9c3.2,0,5.4-0.1,6-2c0.6-1.8-1-3-2.8-4.2c-1.4-1-3.5-2.5-3.9-3.8L110.8,14.5
			L110.8,14.5z"/>
	</g>
	<g>
		<path fill-rule="evenodd" clip-rule="evenodd" fill="#BBBBBB" d="M136.5,29.5c-3.6,0-4.8-0.3-5.1-1.3c-0.4-1.1,0.7-1.9,2.4-3.1
			c1.6-1.1,3.7-2.7,4.3-4.3l1-3l1,3c0.8,2.5,0.5,5.6-0.8,7.3C138.5,29,137.6,29.5,136.5,29.5z"/>
		<path fill="#231F20" d="M139,21c1,3,0.1,7.5-2.5,7.5C126.5,28.5,137.5,25.8,139,21 M139,14.5l-1.9,5.9c-0.4,1.3-2.5,2.8-3.9,3.8
			c-1.7,1.2-3.4,2.4-2.8,4.2c0.6,1.9,2.9,2,6,2c1.4,0,2.7-0.7,3.5-1.9c1.4-2,1.8-5.4,0.9-8.2L139,14.5L139,14.5z"/>
	</g>
</g>
<g>
	<path fill-rule="evenodd" clip-rule="evenodd" fill="#A27556" d="M12.6,229.5l0.5-1.4c1.9-4.9,6.5-8.1,11.7-8.1
		c5.2,0,9.8,3.2,11.7,8.1l0.5,1.4H12.6z"/>
	<path fill="#4C4134" d="M24.9,221c4.9,0,9.1,3.1,10.8,7.5H14.1C15.8,224.1,20,221,24.9,221 M24.9,219c-5.6,0-10.6,3.4-12.7,8.8
		l-1.1,2.7h2.9h21.6h2.9l-1.1-2.7C35.5,222.4,30.5,219,24.9,219L24.9,219z"/>
</g>
<g>
	<path fill-rule="evenodd" clip-rule="evenodd" fill="#A27556" d="M12.6,79.5l0.5-1.4c1.9-4.9,6.5-8.1,11.7-8.1
		c5.2,0,9.8,3.2,11.7,8.1l0.5,1.4H12.6z"/>
	<path fill="#4C4134" d="M24.9,71c4.9,0,9.1,3.1,10.8,7.5H14.1C15.8,74.1,20,71,24.9,71 M24.9,69c-5.6,0-10.6,3.4-12.7,8.8l-1.1,2.7
		h2.9h21.6h2.9l-1.1-2.7C35.5,72.4,30.6,69,24.9,69L24.9,69z"/>
</g>
<g>
	<path fill-rule="evenodd" clip-rule="evenodd" fill="#A27556" d="M12.6,29.5l0.5-1.4c1.9-4.9,6.5-8.1,11.7-8.1
		c5.2,0,9.8,3.2,11.7,8.1l0.5,1.4H12.6z"/>
	<path fill="#4C4134" d="M24.9,21c4.9,0,9.1,3.1,10.8,7.5H14.1C15.8,24.1,20,21,24.9,21 M24.9,19c-5.6,0-10.6,3.4-12.7,8.8l-1.1,2.7
		h2.9h21.6h2.9l-1.1-2.7C35.5,22.4,30.6,19,24.9,19L24.9,19z"/>
</g>
<g>
	<path fill-rule="evenodd" clip-rule="evenodd" fill="#A27556" d="M62.7,229.5l0.5-1.4c1.9-4.9,6.5-8.1,11.7-8.1
		c5.2,0,9.8,3.2,11.7,8.1l0.5,1.4H62.7z"/>
	<path fill="#4C4134" d="M74.9,221c4.9,0,9.1,3.1,10.8,7.5H64.1C65.8,224.1,70,221,74.9,221 M74.9,219c-5.6,0-10.6,3.4-12.7,8.8
		l-1.1,2.7h2.9h21.6h2.9l-1.1-2.7C85.5,222.4,80.5,219,74.9,219L74.9,219z"/>
</g>
<g>
	<path fill-rule="evenodd" clip-rule="evenodd" fill="#A27556" d="M62.7,79.5l0.5-1.4c1.9-4.9,6.5-8.1,11.7-8.1
		c5.2,0,9.8,3.2,11.7,8.1l0.5,1.4H62.7z"/>
	<path fill="#4C4134" d="M74.9,71c4.9,0,9.1,3.1,10.8,7.5H64.1C65.8,74.1,70,71,74.9,71 M74.9,69c-5.6,0-10.6,3.4-12.7,8.8l-1.1,2.7
		h2.9h21.6h2.9l-1.1-2.7C85.5,72.4,80.6,69,74.9,69L74.9,69z"/>
</g>
<g>
	<path fill-rule="evenodd" clip-rule="evenodd" fill="#A27556" d="M62.7,29.5l0.5-1.4c1.9-4.9,6.5-8.1,11.7-8.1
		c5.2,0,9.8,3.2,11.7,8.1l0.5,1.4H62.7z"/>
	<path fill="#4C4134" d="M74.9,21c4.9,0,9.1,3.1,10.8,7.5H64.1C65.8,24.1,70,21,74.9,21 M74.9,19c-5.6,0-10.6,3.4-12.7,8.8l-1.1,2.7
		h2.9h21.6h2.9l-1.1-2.7C85.5,22.4,80.6,19,74.9,19L74.9,19z"/>
</g>
<g>
	<path fill-rule="evenodd" clip-rule="evenodd" fill="#A27556" d="M112.6,229.5l0.5-1.4c1.9-4.9,6.5-8.1,11.7-8.1s9.8,3.2,11.7,8.1
		l0.5,1.4H112.6z"/>
	<path fill="#4C4134" d="M124.9,221c4.9,0,9.1,3.1,10.8,7.5h-21.6C115.8,224.1,120,221,124.9,221 M124.9,219
		c-5.6,0-10.6,3.4-12.7,8.8l-1.1,2.7h2.9h21.6h2.9l-1.1-2.7C135.5,222.4,130.6,219,124.9,219L124.9,219z"/>
</g>
<g>
	<path fill-rule="evenodd" clip-rule="evenodd" fill="#A27556" d="M112.6,79.5l0.5-1.4c1.9-4.9,6.5-8.1,11.7-8.1s9.8,3.2,11.7,8.1
		l0.5,1.4H112.6z"/>
	<path fill="#4C4134" d="M124.9,71c4.9,0,9.1,3.1,10.8,7.5h-21.6C115.8,74.1,120,71,124.9,71 M124.9,69c-5.6,0-10.6,3.4-12.7,8.8
		l-1.1,2.7h2.9h21.6h2.9l-1.1-2.7C135.5,72.4,130.6,69,124.9,69L124.9,69z"/>
</g>
<g>
	<path fill-rule="evenodd" clip-rule="evenodd" fill="#A27556" d="M112.6,29.5l0.5-1.4c1.9-4.9,6.5-8.1,11.7-8.1s9.8,3.2,11.7,8.1
		l0.5,1.4H112.6z"/>
	<path fill="#4C4134" d="M124.9,21c4.9,0,9.1,3.1,10.8,7.5h-21.6C115.8,24.1,120,21,124.9,21 M124.9,19c-5.6,0-10.6,3.4-12.7,8.8
		l-1.1,2.7h2.9h21.6h2.9l-1.1-2.7C135.5,22.4,130.6,19,124.9,19L124.9,19z"/>
</g>
<g>
	<path fill-rule="evenodd" clip-rule="evenodd" fill="#A27556" d="M19.4,229.5l0.2-1.2c0.8-5.2,2.8-8.3,5.3-8.3
		c2.5,0,4.5,3.2,5.3,8.4l0.2,1.2H19.4z"/>
	<path fill="#4C4134" d="M24.9,221c2,0,3.6,3.1,4.3,7.5h-8.6C21.3,224.1,23,221,24.9,221 M24.9,219c-3,0-5.4,3.4-6.3,9.2l-0.4,2.3
		h2.3h8.6h2.3l-0.4-2.3C30.3,222.4,28,219,24.9,219L24.9,219z"/>
</g>
<g>
	<path fill-rule="evenodd" clip-rule="evenodd" fill="#A27556" d="M19.4,79.5l0.2-1.2c0.8-5.1,2.8-8.3,5.3-8.3
		c2.5,0,4.5,3.2,5.3,8.3l0.2,1.2H19.4z"/>
	<path fill="#4C4134" d="M24.9,71c2,0,3.6,3.1,4.3,7.5h-8.6C21.3,74.1,23,71,24.9,71 M24.9,69c-3,0-5.4,3.4-6.3,9.2l-0.4,2.3h2.3
		h8.6h2.3l-0.4-2.3C30.3,72.4,28,69,24.9,69L24.9,69z"/>
</g>
<g>
	<path fill-rule="evenodd" clip-rule="evenodd" fill="#A27556" d="M19.4,29.5l0.2-1.2c0.8-5.2,2.8-8.4,5.3-8.4
		c2.5,0,4.5,3.2,5.3,8.4l0.2,1.2H19.4z"/>
	<path fill="#4C4134" d="M24.9,21c2,0,3.6,3.1,4.3,7.5h-8.6C21.3,24.1,23,21,24.9,21 M24.9,19c-3,0-5.4,3.4-6.3,9.2l-0.4,2.3h2.3
		h8.6h2.3l-0.4-2.3C30.3,22.4,28,19,24.9,19L24.9,19z"/>
</g>
<g>
	<path fill-rule="evenodd" clip-rule="evenodd" fill="#A27556" d="M69.4,229.5l0.2-1.2c0.8-5.2,2.8-8.4,5.3-8.4
		c2.5,0,4.5,3.2,5.3,8.4l0.2,1.2H69.4z"/>
	<path fill="#4C4134" d="M74.9,221c2,0,3.6,3.1,4.3,7.5h-8.6C71.3,224.1,73,221,74.9,221 M74.9,219c-3,0-5.4,3.4-6.3,9.2l-0.4,2.3
		h2.3h8.6h2.3l-0.4-2.3C80.3,222.4,78,219,74.9,219L74.9,219z"/>
</g>
<g>
	<path fill-rule="evenodd" clip-rule="evenodd" fill="#A27556" d="M69.4,79.5l0.2-1.2c0.8-5.2,2.8-8.3,5.3-8.3
		c2.5,0,4.5,3.2,5.3,8.3l0.2,1.2H69.4z"/>
	<path fill="#4C4134" d="M74.9,71c2,0,3.6,3.1,4.3,7.5h-8.6C71.3,74.1,73,71,74.9,71 M74.9,69c-3.1,0-5.4,3.4-6.3,9.2l-0.4,2.3h2.3
		h8.6h2.3l-0.4-2.3C80.3,72.4,78,69,74.9,69L74.9,69z"/>
</g>
<g>
	<path fill-rule="evenodd" clip-rule="evenodd" fill="#A27556" d="M69.4,29.5l0.2-1.2c0.8-5.2,2.8-8.4,5.3-8.4
		c2.5,0,4.5,3.2,5.3,8.4l0.2,1.2H69.4z"/>
	<path fill="#4C4134" d="M74.9,21c2,0,3.6,3.1,4.3,7.5h-8.6C71.3,24.1,73,21,74.9,21 M74.9,19c-3.1,0-5.4,3.4-6.3,9.2l-0.4,2.3h2.3
		h8.6h2.3l-0.4-2.3C80.3,22.4,78,19,74.9,19L74.9,19z"/>
</g>
<g>
	<path fill-rule="evenodd" clip-rule="evenodd" fill="#A27556" d="M119.4,229.5l0.2-1.2c0.8-5.2,2.8-8.4,5.3-8.4
		c2.5,0,4.5,3.2,5.3,8.4l0.2,1.2H119.4z"/>
	<path fill="#4C4134" d="M124.9,221c2,0,3.6,3.1,4.3,7.5h-8.6C121.3,224.1,123,221,124.9,221 M124.9,219c-3,0-5.4,3.4-6.3,9.2
		l-0.4,2.3h2.3h8.6h2.3l-0.4-2.3C130.3,222.4,128,219,124.9,219L124.9,219z"/>
</g>
<g>
	<path fill-rule="evenodd" clip-rule="evenodd" fill="#A27556" d="M119.4,79.5l0.2-1.2c0.8-5.2,2.8-8.3,5.3-8.3
		c2.5,0,4.5,3.2,5.3,8.3l0.2,1.2H119.4z"/>
	<path fill="#4C4134" d="M124.9,71c2,0,3.6,3.1,4.3,7.5h-8.6C121.3,74.1,123,71,124.9,71 M124.9,69c-3,0-5.4,3.4-6.3,9.2l-0.4,2.3
		h2.3h8.6h2.3l-0.4-2.3C130.3,72.4,128,69,124.9,69L124.9,69z"/>
</g>
<g>
	<path fill-rule="evenodd" clip-rule="evenodd" fill="#A27556" d="M119.4,29.5l0.2-1.2c0.8-5.2,2.8-8.4,5.3-8.4
		c2.5,0,4.5,3.2,5.3,8.4l0.2,1.2H119.4z"/>
	<path fill="#4C4134" d="M124.9,21c2,0,3.6,3.1,4.3,7.5h-8.6C121.3,24.1,123,21,124.9,21 M124.9,19c-3,0-5.4,3.4-6.3,9.2l-0.4,2.3
		h2.3h8.6h2.3l-0.4-2.3C130.3,22.4,128,19,124.9,19L124.9,19z"/>
</g>
<g>
	<g>
		<path fill-rule="evenodd" clip-rule="evenodd" fill="#A27556" d="M12.6,129.5l0.5-1.4c1.9-4.9,6.5-8.1,11.7-8.1
			c5.2,0,9.8,3.2,11.7,8.1l0.5,1.4H12.6z"/>
	</g>
	<g>
		<path fill="#4C4134" d="M24.9,121c4.9,0,9.1,3.1,10.8,7.5H14.1C15.8,124.1,20,121,24.9,121 M24.9,119c-5.6,0-10.6,3.4-12.7,8.8
			l-1.1,2.7h2.9h21.6h2.9l-1.1-2.7C35.5,122.4,30.6,119,24.9,119L24.9,119z"/>
	</g>
</g>
<g>
	<g>
		<path fill-rule="evenodd" clip-rule="evenodd" fill="#A27556" d="M62.7,129.5l0.5-1.4c1.9-4.9,6.5-8.1,11.7-8.1
			c5.2,0,9.8,3.2,11.7,8.1l0.5,1.4H62.7z"/>
	</g>
	<g>
		<path fill="#4C4134" d="M74.9,121c4.9,0,9.1,3.1,10.8,7.5H64.1C65.8,124.1,70,121,74.9,121 M74.9,119c-5.6,0-10.6,3.4-12.7,8.8
			l-1.1,2.7h2.9h21.6h2.9l-1.1-2.7C85.5,122.4,80.6,119,74.9,119L74.9,119z"/>
	</g>
</g>
<g>
	<g>
		<path fill-rule="evenodd" clip-rule="evenodd" fill="#A27556" d="M112.6,129.5l0.5-1.4c1.9-4.9,6.5-8.1,11.7-8.1s9.8,3.2,11.7,8.1
			l0.5,1.4H112.6z"/>
	</g>
	<g>
		<path fill="#4C4134" d="M124.9,121c4.9,0,9.1,3.1,10.8,7.5h-21.6C115.8,124.1,120,121,124.9,121 M124.9,119
			c-5.6,0-10.6,3.4-12.7,8.8l-1.1,2.7h2.9h21.6h2.9l-1.1-2.7C135.5,122.4,130.6,119,124.9,119L124.9,119z"/>
	</g>
</g>
<g>
	<g>
		<path fill-rule="evenodd" clip-rule="evenodd" fill="#A27556" d="M12.6,179.5l0.5-1.4c1.9-4.9,6.5-8.1,11.7-8.1s9.8,3.2,11.7,8.1
			l0.5,1.4H12.6z"/>
	</g>
	<g>
		<path fill="#4C4134" d="M24.9,171c4.9,0,9.1,3.1,10.8,7.5H14.1C15.8,174.1,20,171,24.9,171 M24.9,169c-5.6,0-10.6,3.4-12.7,8.8
			l-1.1,2.7h2.9h21.6h2.9l-1.1-2.7C35.5,172.4,30.5,169,24.9,169L24.9,169z"/>
	</g>
</g>
<g>
	<g>
		<path fill-rule="evenodd" clip-rule="evenodd" fill="#A27556" d="M62.6,179.5l0.5-1.4c1.9-4.9,6.5-8.1,11.7-8.1s9.8,3.2,11.7,8.1
			l0.5,1.4H62.6z"/>
	</g>
	<g>
		<path fill="#4C4134" d="M74.9,171c4.9,0,9.1,3.1,10.8,7.5H64.1C65.8,174.1,70,171,74.9,171 M74.9,169c-5.6,0-10.6,3.4-12.7,8.8
			l-1.1,2.7h2.9h21.6h2.9l-1.1-2.7C85.5,172.4,80.5,169,74.9,169L74.9,169z"/>
	</g>
</g>
<g>
	<g>
		<path fill-rule="evenodd" clip-rule="evenodd" fill="#A27556" d="M112.6,179.5l0.5-1.4c1.9-4.9,6.5-8.1,11.7-8.1
			c5.2,0,9.8,3.2,11.7,8.1l0.5,1.4H112.6z"/>
	</g>
	<g>
		<path fill="#4C4134" d="M124.9,171c4.9,0,9.1,3.1,10.8,7.5h-21.6C115.8,174.1,120,171,124.9,171 M124.9,169
			c-5.6,0-10.6,3.4-12.7,8.8l-1.1,2.7h2.9h21.6h2.9l-1.1-2.7C135.5,172.4,130.5,169,124.9,169L124.9,169z"/>
	</g>
</g>
<g>
	<g>
		<path fill-rule="evenodd" clip-rule="evenodd" fill="#A27556" d="M19.4,129.5l0.2-1.2c0.8-5.2,2.8-8.4,5.3-8.4
			c2.5,0,4.5,3.2,5.3,8.4l0.2,1.2H19.4z"/>
	</g>
	<g>
		<path fill="#4C4134" d="M24.9,121c2,0,3.6,3.1,4.3,7.5h-8.6C21.3,124.1,23,121,24.9,121 M24.9,119c-3,0-5.4,3.4-6.3,9.2l-0.4,2.3
			h2.3h8.6h2.3l-0.4-2.3C30.3,122.4,28,119,24.9,119L24.9,119z"/>
	</g>
</g>
<g>
	<g>
		<path fill-rule="evenodd" clip-rule="evenodd" fill="#A27556" d="M69.4,129.5l0.2-1.2c0.8-5.2,2.8-8.4,5.3-8.4
			c2.5,0,4.5,3.2,5.3,8.4l0.2,1.2H69.4z"/>
	</g>
	<g>
		<path fill="#4C4134" d="M74.9,121c2,0,3.6,3.1,4.3,7.5h-8.6C71.3,124.1,73,121,74.9,121 M74.9,119c-3.1,0-5.4,3.4-6.3,9.2
			l-0.4,2.3h2.3h8.6h2.3l-0.4-2.3C80.3,122.4,78,119,74.9,119L74.9,119z"/>
	</g>
</g>
<g>
	<g>
		<path fill-rule="evenodd" clip-rule="evenodd" fill="#A27556" d="M119.4,129.5l0.2-1.2c0.8-5.2,2.8-8.4,5.3-8.4
			c2.5,0,4.5,3.2,5.3,8.4l0.2,1.2H119.4z"/>
	</g>
	<g>
		<path fill="#4C4134" d="M124.9,121c2,0,3.6,3.1,4.3,7.5h-8.6C121.3,124.1,123,121,124.9,121 M124.9,119c-3,0-5.4,3.4-6.3,9.2
			l-0.4,2.3h2.3h8.6h2.3l-0.4-2.3C130.3,122.4,128,119,124.9,119L124.9,119z"/>
	</g>
</g>
<g>
	<path fill-rule="evenodd" clip-rule="evenodd" fill="#BBBBBB" d="M23.4,129.5c-1.1,0-2-0.5-2.7-1.5c-1.2-1.7-1.6-4.8-0.8-7.3l1-3
		l1,3c0.5,1.7,2.7,3.2,4.3,4.3c1.7,1.2,2.8,2,2.4,3.1C28.1,129.2,26.9,129.5,23.4,129.5z"/>
	<path fill="#231F20" d="M20.8,121c1.5,4.7,12.5,7.5,2.5,7.5C20.7,128.5,19.8,124.1,20.8,121 M20.8,114.5l-1.9,5.9
		c-0.8,2.4-0.7,6,0.9,8.2c0.9,1.2,2.1,1.9,3.5,1.9c3.2,0,5.4-0.1,6-2c0.6-1.8-1-3-2.8-4.2c-1.4-1-3.5-2.5-3.9-3.8L20.8,114.5
		L20.8,114.5z"/>
</g>
<g>
	<path fill-rule="evenodd" clip-rule="evenodd" fill="#BBBBBB" d="M73.4,129.5c-1.1,0-2-0.5-2.7-1.5c-1.2-1.7-1.6-4.8-0.8-7.3l1-3
		l1,3c0.5,1.7,2.7,3.2,4.3,4.3c1.7,1.2,2.8,2,2.4,3.1C78.1,129.2,76.9,129.5,73.4,129.5z"/>
	<path fill="#231F20" d="M70.8,121c1.5,4.7,12.5,7.5,2.5,7.5C70.7,128.5,69.8,124.1,70.8,121 M70.8,114.5l-1.9,5.9
		c-0.9,2.8-0.5,6.2,0.9,8.2c0.9,1.2,2.1,1.9,3.5,1.9c3.2,0,5.4-0.1,6-2c0.6-1.8-1-3-2.8-4.2c-1.4-1-3.5-2.5-3.9-3.8L70.8,114.5
		L70.8,114.5z"/>
</g>
<g>
	<path fill-rule="evenodd" clip-rule="evenodd" fill="#BBBBBB" d="M123.4,129.5c-1.1,0-2-0.5-2.7-1.5c-1.2-1.7-1.6-4.8-0.8-7.3l1-3
		l1,3c0.5,1.7,2.7,3.2,4.3,4.3c1.7,1.2,2.8,2,2.4,3.1C128.1,129.2,126.9,129.5,123.4,129.5z"/>
	<path fill="#231F20" d="M120.8,121c1.5,4.7,12.5,7.5,2.5,7.5C120.7,128.5,119.8,124.1,120.8,121 M120.8,114.5l-1.9,5.9
		c-0.8,2.4-0.7,6,0.9,8.2c0.9,1.2,2.1,1.9,3.5,1.9c3.2,0,5.4-0.1,6-2c0.6-1.8-1-3-2.8-4.2c-1.4-1-3.5-2.5-3.9-3.8L120.8,114.5
		L120.8,114.5z"/>
</g>
<g>
	<g>
		<path fill-rule="evenodd" clip-rule="evenodd" fill="#A27556" d="M19.4,179.5l0.2-1.2c0.8-5.2,2.8-8.4,5.3-8.4
			c2.5,0,4.5,3.2,5.3,8.4l0.2,1.2H19.4z"/>
	</g>
	<g>
		<path fill="#4C4134" d="M24.9,171c2,0,3.6,3.1,4.3,7.5h-8.6C21.3,174.1,23,171,24.9,171 M24.9,169c-3,0-5.4,3.4-6.3,9.2l-0.4,2.3
			h2.3h8.6h2.3l-0.4-2.3C30.3,172.4,28,169,24.9,169L24.9,169z"/>
	</g>
</g>
<g>
	<g>
		<path fill-rule="evenodd" clip-rule="evenodd" fill="#A27556" d="M69.4,179.5l0.2-1.2c0.8-5.2,2.8-8.4,5.3-8.4
			c2.5,0,4.5,3.2,5.3,8.4l0.2,1.2H69.4z"/>
	</g>
	<g>
		<path fill="#4C4134" d="M74.9,171c2,0,3.6,3.1,4.3,7.5h-8.6C71.3,174.1,73,171,74.9,171 M74.9,169c-3,0-5.4,3.4-6.3,9.2l-0.4,2.3
			h2.3h8.6h2.3l-0.4-2.3C80.3,172.4,78,169,74.9,169L74.9,169z"/>
	</g>
</g>
<g>
	<g>
		<path fill-rule="evenodd" clip-rule="evenodd" fill="#A27556" d="M119.4,179.5l0.2-1.2c0.8-5.2,2.8-8.4,5.3-8.4s4.5,3.2,5.3,8.4
			l0.2,1.2H119.4z"/>
	</g>
	<g>
		<path fill="#4C4134" d="M124.9,171c2,0,3.6,3.1,4.3,7.5h-8.7C121.3,174.1,123,171,124.9,171 M124.9,169c-3,0-5.4,3.4-6.3,9.2
			l-0.4,2.3h2.3h8.7h2.3l-0.4-2.3C130.3,172.4,128,169,124.9,169L124.9,169z"/>
	</g>
</g>
<g>
	<path fill-rule="evenodd" clip-rule="evenodd" fill="#BBBBBB" d="M26.5,179.5c-3.6,0-4.8-0.3-5.1-1.3c-0.4-1.1,0.7-1.9,2.4-3.1
		c1.6-1.1,3.7-2.7,4.3-4.3l1-3l1,3c0.8,2.5,0.5,5.6-0.8,7.3C28.5,179,27.6,179.5,26.5,179.5z"/>
	<path fill="#231F20" d="M29,171c1,3,0.1,7.5-2.5,7.5C16.5,178.5,27.5,175.8,29,171 M29,164.5l-1.9,5.9c-0.4,1.3-2.5,2.8-3.9,3.8
		c-1.7,1.2-3.4,2.4-2.8,4.2c0.6,1.9,2.9,2,6,2c1.4,0,2.7-0.7,3.5-1.9c1.4-2,1.8-5.4,0.9-8.2L29,164.5L29,164.5z"/>
</g>
<g>
	<path fill-rule="evenodd" clip-rule="evenodd" fill="#BBBBBB" d="M76.5,179.5c-3.6,0-4.8-0.3-5.1-1.3c-0.4-1.1,0.7-1.9,2.4-3.1
		c1.6-1.1,3.7-2.7,4.3-4.3l0.9-3l1,3c0.8,2.5,0.5,5.6-0.8,7.3C78.5,179,77.6,179.5,76.5,179.5z"/>
	<path fill="#231F20" d="M79,171c1,3,0.1,7.5-2.5,7.5C66.5,178.5,77.5,175.8,79,171 M79,164.5l-1.9,5.9c-0.4,1.3-2.5,2.8-3.9,3.8
		c-1.7,1.2-3.3,2.4-2.8,4.2c0.6,1.9,2.9,2,6,2c1.4,0,2.7-0.7,3.5-1.9c1.4-2,1.8-5.4,0.9-8.2L79,164.5L79,164.5z"/>
</g>
<g>
	<path fill-rule="evenodd" clip-rule="evenodd" fill="#BBBBBB" d="M126.5,179.5c-3.6,0-4.8-0.3-5.1-1.3c-0.4-1.1,0.7-1.9,2.4-3.1
		c1.6-1.1,3.7-2.7,4.3-4.3l0.9-3l1,3c0.8,2.5,0.5,5.6-0.8,7.3C128.5,179,127.6,179.5,126.5,179.5z"/>
	<path fill="#231F20" d="M129,171c1,3,0.1,7.5-2.5,7.5C116.5,178.5,127.5,175.8,129,171 M129,164.5l-1.9,5.9
		c-0.4,1.3-2.5,2.8-3.9,3.8c-1.7,1.2-3.3,2.4-2.8,4.2c0.6,1.9,2.9,2,6,2c1.4,0,2.7-0.7,3.5-1.9c1.4-2,1.8-5.4,0.9-8.2L129,164.5
		L129,164.5z"/>
</g>
</svg>
