<?xml version="1.0" encoding="utf-8"?>
<!-- Generator: Adobe Illustrator 16.0.0, SVG Export Plug-In . SVG Version: 6.00 Build 0)  -->
<!DOCTYPE svg PUBLIC "-//W3C//DTD SVG 1.1//EN" "http://www.w3.org/Graphics/SVG/1.1/DTD/svg11.dtd">
<svg version="1.1" id="Layer_3" xmlns="http://www.w3.org/2000/svg" xmlns:xlink="http://www.w3.org/1999/xlink" x="0px" y="0px"
	 width="150px" height="250px" viewBox="0 0 150 250" enable-background="new 0 0 150 250" xml:space="preserve">
<path fill-rule="evenodd" clip-rule="evenodd" fill="#CCCCCC" d="M67,187.5h-5.3l1.6,2.6h4.9l-0.1-0.1l0,0
	C67.6,189.4,67.1,188.5,67,187.5z"/>
<path fill-rule="evenodd" clip-rule="evenodd" fill="#484848" d="M67,186.1c0,2.7,0.9,5.4,4.2,5.4h0.2v0.3h-3.1h-5.8
	c-1.1-1.9-2.3-3.8-3.4-5.6H67z"/>
<path fill-rule="evenodd" clip-rule="evenodd" fill="#BBBBBB" d="M68.2,190.1L68.2,190.1c-0.2-0.2-0.3-0.4-0.4-0.5c0,0,0,0,0,0
	c-0.1-0.2-0.2-0.3-0.3-0.5c0-0.1-0.1-0.1-0.1-0.2c-0.1-0.1-0.1-0.3-0.2-0.5c0-0.1,0-0.1-0.1-0.2c-0.1-0.2-0.1-0.4-0.1-0.7h-5.3
	l1.6,2.6L68.2,190.1L68.2,190.1z"/>
<path fill-rule="evenodd" clip-rule="evenodd" fill="#484848" d="M17,185.6c0,2.1,0,3.7,1.8,5l-0.4,0.6h-7.6l-3.4-5.6H17z"/>
<path fill-rule="evenodd" clip-rule="evenodd" fill="#CCCCCC" d="M17,187.2h-7l1.6,2.6h6.4C17.4,189,17,188.1,17,187.2z"/>
<path fill-rule="evenodd" clip-rule="evenodd" fill="#BBBBBB" d="M17.9,189.7L17.9,189.7L17.9,189.7L17.9,189.7L17.9,189.7l-0.1-0.1
	l0,0l0,0l0,0l0,0l0,0c-0.3-0.5-0.6-1.1-0.7-1.7l0,0c0-0.2-0.1-0.4-0.1-0.6h-7l1.6,2.6L17.9,189.7L17.9,189.7z"/>
<path fill-rule="evenodd" clip-rule="evenodd" fill="#484848" d="M117,186v0.8v0.3c0,1.2,0.5,2.2,1.2,3c0.2,0.2,0.4,0.4,0.6,0.6
	c-0.2,0.3-0.5,0.6-0.7,1h-3.5c-1.1-1.9-2.3-3.7-3.4-5.6H117z"/>
<path fill-rule="evenodd" clip-rule="evenodd" fill="#BBBBBB" d="M118.2,190.1c-0.3-0.3-0.5-0.7-0.7-1.1c-0.1-0.2-0.1-0.3-0.2-0.5
	c0-0.1-0.1-0.2-0.1-0.2c-0.1-0.3-0.1-0.5-0.1-0.8h-3.1l1.6,2.6L118.2,190.1L118.2,190.1z"/>
<g>
	
		<rect x="60.8" y="35.4" transform="matrix(-0.4224 0.9064 -0.9064 -0.4224 125.4527 -5.9523)" fill-rule="evenodd" clip-rule="evenodd" fill="#A27556" width="7.7" height="3.1"/>
	<path fill="#4C4134" d="M65.3,34.2l1,0.5l-2.4,5.2l-1-0.5L65.3,34.2 M64.4,31.5l-0.8,1.8l-2.4,5.2l-0.8,1.8l1.8,0.8l1,0.5l1.8,0.8
		l0.8-1.8l2.4-5.2l0.8-1.8l-1.8-0.8l-1-0.5L64.4,31.5L64.4,31.5z"/>
</g>
<g>
	<polygon fill-rule="evenodd" clip-rule="evenodd" fill="#BBBBBB" points="65,39.7 67,35.5 77.6,40.5 73.1,43.5 	"/>
	<path fill="#4C4C4C" d="M67.4,36.9l8.2,3.8l-2.6,1.7l-6.7-3.1L67.4,36.9 M66.5,34.2L65.6,36l-1.1,2.4l-0.8,1.8l1.8,0.8l6.7,3.1
		l1,0.5l0.9-0.6l2.6-1.7l3-2l-3.2-1.5L68.3,35L66.5,34.2L66.5,34.2z"/>
</g>
<g>
	
		<rect x="60.3" y="236.9" transform="matrix(-0.8662 0.4996 -0.4996 -0.8662 238.8967 413.0337)" fill-rule="evenodd" clip-rule="evenodd" fill="#A27556" width="7.7" height="3.1"/>
	<path fill="#4C4134" d="M66.4,236.6l0.5,0.9l-5,2.9l-0.5-0.9L66.4,236.6 M67.1,233.9l-1.7,1l-5,2.9l-1.7,1l1,1.7l0.5,0.9l1,1.7
		l1.7-1l5-2.9l1.7-1l-1-1.7l-0.5-0.9L67.1,233.9L67.1,233.9z"/>
</g>
<g>
	<polygon fill-rule="evenodd" clip-rule="evenodd" fill="#BBBBBB" points="67.4,248.7 62.9,240.9 66.9,238.6 72.8,248.8 	"/>
	<path fill="#4C4C4C" d="M66.5,240l4.5,7.8l-3.1-0.1l-3.7-6.4L66.5,240 M67.3,237.3l-1.7,1l-2.3,1.3l-1.7,1l1,1.7l3.7,6.4l0.6,1
		l1.1,0l3.1,0.1l3.6,0.1l-1.8-3.1l-4.5-7.8L67.3,237.3L67.3,237.3z"/>
</g>
<g>
	
		<rect x="10.3" y="236.9" transform="matrix(-0.8661 0.4998 -0.4998 -0.8661 145.6326 437.9836)" fill-rule="evenodd" clip-rule="evenodd" fill="#A27556" width="7.7" height="3.1"/>
	<path fill="#4C4134" d="M16.4,236.6l0.5,0.9l-5,2.9l-0.5-0.9L16.4,236.6 M17.1,233.9l-1.7,1l-5,2.9l-1.7,1l1,1.7l0.5,0.9l1,1.7
		l1.7-1l5-2.9l1.7-1l-1-1.7l-0.5-0.9L17.1,233.9L17.1,233.9z"/>
</g>
<g>
	<polygon fill-rule="evenodd" clip-rule="evenodd" fill="#BBBBBB" points="17.4,248.7 12.9,240.9 16.9,238.6 22.8,248.8 	"/>
	<path fill="#4C4C4C" d="M16.5,240l4.5,7.8l-3.1-0.1l-3.7-6.4L16.5,240 M17.3,237.3l-1.7,1l-2.3,1.3l-1.7,1l1,1.7l3.7,6.4l0.6,1
		l1.1,0l3.1,0.1l3.6,0.1l-1.8-3.1l-4.5-7.8L17.3,237.3L17.3,237.3z"/>
</g>
<g>
	<polygon fill-rule="evenodd" clip-rule="evenodd" fill="#A27556" points="110,239.1 116.7,235.2 118.3,237.9 111.6,241.8 	"/>
	<path fill="#4C4134" d="M116.4,236.6l0.5,0.9l-5,2.9l-0.5-0.9L116.4,236.6 M117.1,233.9l-1.7,1l-4.9,2.9l-1.7,1l1,1.7l0.5,0.9
		l1,1.7l1.7-1l5-2.9l1.7-1l-1-1.7l-0.5-0.9L117.1,233.9L117.1,233.9z"/>
</g>
<g>
	<polygon fill-rule="evenodd" clip-rule="evenodd" fill="#BBBBBB" points="117.4,248.7 112.9,240.9 116.9,238.6 122.8,248.8 	"/>
	<path fill="#4C4C4C" d="M116.5,240l4.5,7.8l-3.1-0.1l-3.7-6.4L116.5,240 M117.3,237.3l-1.7,1l-2.3,1.3l-1.7,1l1,1.7l3.7,6.4l0.6,1
		l1.1,0l3.1,0.1l3.6,0.1l-1.8-3.1l-4.5-7.8L117.3,237.3L117.3,237.3z"/>
</g>
<g>
	<rect x="13.2" y="32.8" fill-rule="evenodd" clip-rule="evenodd" fill="#A27556" width="3.1" height="7.7"/>
	<path fill="#4C4134" d="M15.3,33.8v5.7h-1.1v-5.7H15.3 M17.3,31.8h-2h-1.1h-2v2v5.7v2h2h1.1h2v-2v-5.7V31.8L17.3,31.8z"/>
</g>
<g>
	<polygon fill-rule="evenodd" clip-rule="evenodd" fill="#BBBBBB" points="16.3,39 16.3,34.3 28.1,34.3 25.2,39 	"/>
	<path fill="#4C4C4C" d="M26.3,35.3L24.7,38h-7.4v-2.6H26.3 M29.8,33.3h-3.6h-9h-2v2V38v2h2h7.4h1.1l0.6-1l1.6-2.6L29.8,33.3
		L29.8,33.3z"/>
</g>
<g>
	<polygon fill-rule="evenodd" clip-rule="evenodd" fill="#A27556" points="111,35.3 117.7,31.5 119.2,34.1 112.5,38 	"/>
	<path fill="#4C4134" d="M117.3,32.8l0.5,0.9l-4.9,2.9l-0.5-0.9L117.3,32.8 M118,30.1l-1.7,1l-5,2.9l-1.7,1l1,1.7l0.5,0.9l1,1.7
		l1.7-1l4.9-2.9l1.7-1l-1-1.7l-0.5-0.9L118,30.1L118,30.1z"/>
</g>
<g>
	<polygon fill-rule="evenodd" clip-rule="evenodd" fill="#BBBBBB" points="118.3,45 113.8,37.2 117.8,34.9 123.7,45.1 	"/>
	<path fill="#4C4C4C" d="M117.5,36.2L122,44l-3.1-0.1l-3.7-6.4L117.5,36.2 M118.2,33.5l-1.7,1l-2.3,1.3l-1.7,1l1,1.7l3.7,6.4l0.6,1
		l1.1,0l3.1,0.1l3.6,0.1l-1.8-3.1l-4.5-7.8L118.2,33.5L118.2,33.5z"/>
</g>
<g>
	<rect x="75.2" y="135" fill-rule="evenodd" clip-rule="evenodd" fill="#A27556" width="3.1" height="7.7"/>
	<path fill="#4C4134" d="M77.3,136v5.7h-1.1V136H77.3 M79.3,134h-2h-1.1h-2v2v5.7v2h2h1.1h2v-2V136V134L79.3,134z"/>
</g>
<g>
	<polygon fill-rule="evenodd" clip-rule="evenodd" fill="#BBBBBB" points="78.2,141.2 78.2,136.6 90,136.6 87.2,141.2 	"/>
	<path fill="#4C4C4C" d="M88.3,137.6l-1.6,2.6h-7.4v-2.6H88.3 M91.8,135.6h-3.6h-9h-2v2v2.6v2h2h7.4h1.1l0.6-1l1.6-2.6L91.8,135.6
		L91.8,135.6z"/>
</g>
<g>
	<rect x="27" y="134.6" fill-rule="evenodd" clip-rule="evenodd" fill="#A27556" width="3.1" height="7.7"/>
	<path fill="#4C4134" d="M29.1,135.6v5.7H28v-5.7H29.1 M31.1,133.6h-2H28h-2v2v5.7v2h2h1.1h2v-2v-5.7V133.6L31.1,133.6z"/>
</g>
<g>
	<polygon fill-rule="evenodd" clip-rule="evenodd" fill="#BBBBBB" points="30,140.8 30,136.2 41.8,136.2 39,140.8 	"/>
	<path fill="#4C4C4C" d="M40,137.2l-1.6,2.6H31v-2.6H40 M43.6,135.2H40h-9h-2v2v2.6v2h2h7.4h1.1l0.6-1l1.6-2.6L43.6,135.2
		L43.6,135.2z"/>
</g>
<g>
	<rect x="123" y="134.9" fill-rule="evenodd" clip-rule="evenodd" fill="#A27556" width="3.1" height="7.7"/>
	<path fill="#4C4134" d="M125.1,135.9v5.7H124v-5.7H125.1 M127.1,133.9h-2H124h-2v2v5.7v2h2h1.1h2v-2v-5.7V133.9L127.1,133.9z"/>
</g>
<g>
	<polygon fill-rule="evenodd" clip-rule="evenodd" fill="#BBBBBB" points="126,141.1 126,136.5 137.8,136.5 135,141.1 	"/>
	<path fill="#4C4C4C" d="M136.1,137.5l-1.6,2.6H127v-2.6H136.1 M139.6,135.5h-3.6h-9h-2v2v2.6v2h2h7.4h1.1l0.6-1l1.6-2.6
		L139.6,135.5L139.6,135.5z"/>
</g>
</svg>
