<svg version="1.1" id="Layer_3" xmlns="http://www.w3.org/2000/svg" x="0" y="0" width="150" height="250" viewBox="0 0 150 250" xml:space="preserve"><path fill-rule="evenodd" clip-rule="evenodd" fill="#FFF" d="M30.7 112.4h1.8c.9 0 1.7.7 1.7 1.7v6.2c0 .9-.7 1.7-1.7 1.7h-1.8c-.9 0-1.7-.7-1.7-1.7v-6.2c0-.9.8-1.7 1.7-1.7z"/><path fill-rule="evenodd" clip-rule="evenodd" fill="#FFF" d="M80.7 112.4h1.8c.9 0 1.7.7 1.7 1.7v6.2c0 .9-.7 1.7-1.7 1.7h-1.8c-.9 0-1.7-.7-1.7-1.7v-6.2c0-.9.8-1.7 1.7-1.7z"/><path fill-rule="evenodd" clip-rule="evenodd" fill="#FFF" d="M130.7 112.4h1.8c.9 0 1.7.7 1.7 1.7v6.2c0 .9-.7 1.7-1.7 1.7h-1.8c-.9 0-1.7-.7-1.7-1.7v-6.2c0-.9.8-1.7 1.7-1.7z"/><path fill-rule="evenodd" clip-rule="evenodd" fill="#FFF" d="M20.3 12.4h1.8c.9 0 1.7.7 1.7 1.7v6.2c0 .9-.7 1.7-1.7 1.7h-1.8c-.9 0-1.7-.7-1.7-1.7v-6.2c.1-.9.8-1.7 1.7-1.7z"/><path fill-rule="evenodd" clip-rule="evenodd" fill="#FFF" d="M70.3 12.4h1.8c.9 0 1.7.7 1.7 1.7v6.2c0 .9-.7 1.7-1.7 1.7h-1.8c-.9 0-1.7-.7-1.7-1.7v-6.2c.1-.9.8-1.7 1.7-1.7z"/><path fill-rule="evenodd" clip-rule="evenodd" fill="#FFF" d="M120.3 12.4h1.8c.9 0 1.7.7 1.7 1.7v6.2c0 .9-.7 1.7-1.7 1.7h-1.8c-.9 0-1.7-.7-1.7-1.7v-6.2c.1-.9.8-1.7 1.7-1.7z"/><path fill-rule="evenodd" clip-rule="evenodd" fill="#FFF" d="M27.7 12.4h1.8c.9 0 1.7.7 1.7 1.7v6.2c0 .9-.7 1.7-1.7 1.7h-1.8c-.9 0-1.7-.7-1.7-1.7v-6.2c0-.9.8-1.7 1.7-1.7z"/><path fill-rule="evenodd" clip-rule="evenodd" fill="#FFF" d="M77.7 12.4h1.8c.9 0 1.7.7 1.7 1.7v6.2c0 .9-.7 1.7-1.7 1.7h-1.8c-.9 0-1.7-.7-1.7-1.7v-6.2c0-.9.8-1.7 1.7-1.7z"/><path fill-rule="evenodd" clip-rule="evenodd" fill="#FFF" d="M127.7 12.4h1.8c.9 0 1.7.7 1.7 1.7v6.2c0 .9-.7 1.7-1.7 1.7h-1.8c-.9 0-1.7-.7-1.7-1.7v-6.2c0-.9.8-1.7 1.7-1.7z"/><path fill-rule="evenodd" clip-rule="evenodd" fill="#FFF" d="M19.3 162.4h-1.8c-.9 0-1.7.7-1.7 1.7v6.2c0 .9.7 1.7 1.7 1.7h1.8c.9 0 1.7-.7 1.7-1.7v-6.2c0-.9-.8-1.7-1.7-1.7z"/><path fill-rule="evenodd" clip-rule="evenodd" fill="#FFF" d="M23.8 218.8v1.5c0 .9-.7 1.7-1.7 1.7h-1.8c-.9 0-1.7-.7-1.7-1.7v-1.5h5.2z"/><path fill-rule="evenodd" clip-rule="evenodd" fill="#FFF" d="M73.8 218.8v1.5c0 .9-.7 1.7-1.7 1.7h-1.8c-.9 0-1.7-.7-1.7-1.7v-1.5h5.2z"/><path fill-rule="evenodd" clip-rule="evenodd" fill="#FFF" d="M123.8 218.8v1.5c0 .9-.7 1.7-1.7 1.7h-1.8c-.9 0-1.7-.7-1.7-1.7v-1.5h5.2z"/><path fill-rule="evenodd" clip-rule="evenodd" fill="#FFF" d="M31.2 218.8v1.5c0 .9-.7 1.7-1.7 1.7h-1.8c-.9 0-1.7-.7-1.7-1.7v-1.5h5.2z"/><path fill-rule="evenodd" clip-rule="evenodd" fill="#FFF" d="M81.2 218.8v1.5c0 .9-.7 1.7-1.7 1.7h-1.8c-.9 0-1.7-.7-1.7-1.7v-1.5h5.2z"/><path fill-rule="evenodd" clip-rule="evenodd" fill="#FFF" d="M131.2 218.8v1.5c0 .9-.7 1.7-1.7 1.7h-1.8c-.9 0-1.7-.7-1.7-1.7v-1.5h5.2z"/><path fill-rule="evenodd" clip-rule="evenodd" fill="#FFF" d="M69.3 162.4h-1.8c-.9 0-1.7.7-1.7 1.7v6.2c0 .9.7 1.7 1.7 1.7h1.8c.9 0 1.7-.7 1.7-1.7v-6.2c0-.9-.8-1.7-1.7-1.7z"/><path fill-rule="evenodd" clip-rule="evenodd" fill="#FFF" d="M119.3 162.4h-1.8c-.9 0-1.7.7-1.7 1.7v6.2c0 .9.7 1.7 1.7 1.7h1.8c.9 0 1.7-.7 1.7-1.7v-6.2c0-.9-.8-1.7-1.7-1.7z"/></svg>