<?xml version="1.0" encoding="utf-8"?>
<!-- Generator: Adobe Illustrator 16.0.0, SVG Export Plug-In . SVG Version: 6.00 Build 0)  -->
<!DOCTYPE svg PUBLIC "-//W3C//DTD SVG 1.1//EN" "http://www.w3.org/Graphics/SVG/1.1/DTD/svg11.dtd">
<svg version="1.1" id="Layer_6" xmlns="http://www.w3.org/2000/svg" xmlns:xlink="http://www.w3.org/1999/xlink" x="0px" y="0px"
	 width="1251.125px" height="1524.152px" viewBox="0 0 1251.125 1524.152" enable-background="new 0 0 1251.125 1524.152"
	 xml:space="preserve">


<style>
.animation{
    animation: animation 10s infinite linear;
}

.animation2{
    animation: animation2 2s infinite linear;
}

@keyframes animation {
	0%,
	2%,
	4%,
	40%,
	42%,
	44%,
	60%,
	62%,
	64%
	{
		transform: translate(0px, 0px);
	}


	1% {
		transform: translate(0px, 30px);
	}
	3% {
		transform: translate(0px, 15px);
	}


	41% {
		transform: translate(30px, 0px);
	}
	43% {
		transform: translate(15px, 0px);
	}


	61% {
		transform: translate(0px, -110px);
	}
	63% {
		transform: translate(0px, -15px);
	}
}

@keyframes animation2 {
	0%,
	100%,
	90%{
		opacity: 1;
		transform: scaleY(1.0);
	}

	95% {
		opacity: 0;
		transform: scaleY(0.2);
	}
}
</style>


<g>
	<g>
		<path fill="#FCE4BF" d="M403.296,1495.348c-28.73,0-52.116-23.37-52.131-52.097l-0.078-137.58
			c-0.002-3.894,0.425-7.727,1.273-11.469c-12.078-14.891-18.642-33.274-18.652-52.679l-0.059-106.11l-39.788,69.218
			c4.514,26.332-2.843,53.647-20.228,74.149c-2.967,3.499-7.193,5.299-11.448,5.299c-3.424,0-6.865-1.166-9.683-3.551
			l-34.426-29.138c-0.938-0.324-1.868-0.675-2.786-1.053l-6.345,46.964c-1.018,7.527-7.454,12.992-14.847,12.993
			c-0.668,0-1.343-0.045-2.022-0.137c-34.46-4.646-62.799-27.999-73.957-60.946c-7.411-21.875-6.258-45.514,3.249-66.561
			c8.73-19.328,23.74-34.831,42.593-44.124l82.813-144.069c9.261-16.107,26.609-26.113,45.277-26.113
			c9.072,0,18.03,2.393,25.903,6.918l15.641,8.991c0.552-21.458,9.15-41.6,24.358-56.931c15.768-15.895,36.685-24.656,58.896-24.668
			l190.542-0.106c41.293,0,75.653,30.313,82.24,69.953l121.407-69.969c1.201-2.31,2.488-4.549,3.849-6.692
			c16.766-26.417,45.441-42.188,76.708-42.188c0.745,0,1.491,0.009,2.239,0.027c8.276,0.204,14.822,7.074,14.627,15.35
			l-1.148,48.533l41.551-25.156c2.428-1.47,5.108-2.171,7.754-2.171c5.074,0,10.023,2.574,12.845,7.231
			c18.015,29.74,17.626,66.459-1.013,95.83c-16.774,26.429-45.504,42.208-76.848,42.208c-0.004,0-0.003,0-0.007,0
			c-5.709,0-11.4-0.538-16.989-1.604l-143.521,82.713c-7.862,4.533-16.818,6.93-25.899,6.93c-4.882,0-9.709-0.697-14.338-2.023
			l0.068,119.801c0.01,19.406-6.535,37.799-18.598,52.703c0.852,3.74,1.282,7.57,1.285,11.462l0.076,137.584
			c0.014,28.741-23.357,52.137-52.098,52.153l-41.289,0.02c-28.752,0-52.135-23.368-52.154-52.091l-0.065-117.927l-31.435,0.018
			l0.065,117.926c0.009,13.885-5.419,26.968-15.281,36.838c-9.86,9.868-22.936,15.308-36.816,15.315l-41.285,0.023
			C403.32,1495.348,403.298,1495.348,403.296,1495.348z"/>
		<g>
			<path fill="#4F392A" d="M891.597,868.655c0.621,0,1.246,0.007,1.87,0.023l-1.796,75.893l64.963-39.331
				c14.953,24.686,14.601,55.679-0.848,80.021c-14.463,22.787-39.055,35.246-64.188,35.246c-6.484,0-13.011-0.83-19.401-2.526
				l-148.601,85.64c-5.792,3.34-12.136,4.926-18.409,4.926c-11.2,0-22.173-5.06-29.354-14.231l0.084,147.018
				c0.01,19.174-7.879,36.579-20.549,49.098c2.069,4.611,3.232,9.71,3.236,15.069l0.076,137.582
				c0.01,20.424-16.691,37.133-37.106,37.145l-41.287,0.02c-0.009,0-0.015,0-0.022,0c-20.401,0-37.111-16.685-37.125-37.101
				l-0.073-132.925l-61.436,0.033l0.074,132.927c0.013,20.425-16.69,37.133-37.106,37.145l-41.285,0.023c-0.006,0-0.012,0-0.018,0
				c-20.406,0-37.12-16.686-37.131-37.104l-0.078-137.581c-0.002-5.359,1.156-10.46,3.222-15.075
				c-12.679-12.499-20.59-29.891-20.601-49.072l-0.089-162.241l-70.595,122.81c5.708,23.441-0.048,48.383-15.831,66.996
				l-36.757-31.11c-3.013-0.811-5.968-2.014-8.792-3.637l-13.295-7.643l-9.269,68.604c-28.604-3.856-52.506-23.586-61.754-50.893
				c-12.84-37.9,5.988-78.885,42.251-94.242l85.201-148.225c6.845-11.906,19.393-18.589,32.272-18.588
				c6.271,0,12.622,1.585,18.428,4.923l35.783,20.57c0.799,0.46,1.565,0.954,2.318,1.463l-0.014-23.799
				c-0.023-37.864,30.689-68.825,68.292-68.846l190.542-0.106c0.016,0,0.027,0,0.043,0c37.605,0.002,68.307,30.949,68.328,68.771
				l0.006,11.479l146.729-84.563c1.448-3.188,3.116-6.318,5.046-9.359C841.489,881.924,865.667,868.655,891.597,868.655
				 M891.597,838.655L891.597,838.655c-17.768,0-35.393,4.526-50.971,13.089c-15.589,8.568-28.867,21.038-38.401,36.059
				c-0.795,1.253-1.567,2.532-2.317,3.835L698.83,949.891c-14.475-36.481-49.988-62.337-91.383-62.34c-0.006,0-0.056,0-0.062,0
				l-190.542,0.106c-26.239,0.015-50.935,10.351-69.538,29.104c-12.245,12.345-20.854,27.337-25.287,43.666
				c-9.283-4.642-19.564-7.081-29.965-7.082c-24.021-0.002-46.353,12.887-58.282,33.636l-80.631,140.274
				c-20.004,10.99-35.927,28.156-45.441,49.221c-11.075,24.521-12.42,52.063-3.785,77.55c6.331,18.693,17.725,35.21,32.948,47.762
				c15.236,12.562,33.637,20.597,53.211,23.236c1.36,0.183,2.712,0.272,4.047,0.272c14.784,0,27.657-10.931,29.692-25.987
				l2.838-21.011l16.163,13.68c5.635,4.77,12.52,7.102,19.366,7.102c8.51,0,16.962-3.601,22.896-10.599
				c19.039-22.454,27.756-51.922,24.367-80.857l9.238-16.071l0.027,49.979c0.012,20.528,6.239,40.084,17.802,56.562
				c-0.282,2.503-0.424,5.032-0.423,7.58l0.078,137.587c0.02,36.992,30.134,67.088,67.131,67.088l41.32-0.023
				c17.887-0.011,34.727-7.011,47.418-19.713c12.696-12.706,19.682-29.558,19.671-47.45l-0.058-102.925h1.436l0.057,102.925
				c0.024,36.992,30.137,67.084,67.124,67.084l41.325-0.02c37.014-0.021,67.109-30.148,67.092-67.159l-0.076-137.584
				c-0.002-2.55-0.146-5.078-0.431-7.581c11.546-16.492,17.754-36.055,17.743-56.585l-0.059-102.773
				c11.477-0.116,22.776-3.198,32.722-8.934l138.899-80.048c4.672,0.629,9.391,0.945,14.118,0.945
				c17.501,0,34.894-4.375,50.296-12.651c15.928-8.559,29.49-21.187,39.222-36.519c10.577-16.667,16.28-35.904,16.493-55.633
				c0.214-19.747-5.082-39.114-15.315-56.007c-5.641-9.313-15.54-14.461-25.688-14.461c-5.292,0-10.651,1.4-15.509,4.341
				l-18.139,10.982l0.5-21.171c0.393-16.555-12.703-30.296-29.257-30.701C893.333,838.666,892.463,838.655,891.597,838.655
				L891.597,838.655L891.597,838.655z"/>
		</g>
	</g>
	<path fill-rule="evenodd" clip-rule="evenodd" fill="#333333" d="M509.694,1141.358c1.959-0.002,36.535-58.871,73.851-107.037
		c33.609-4.779,94.687-23.933,94.687-23.933l-2.32,141.34l-327.565-3.18l-1.042-140.375c0,0,53.063,21.119,85.648,25.86
		C470.324,1082.186,505.803,1141.362,509.694,1141.358z"/>
	<g>
		<path fill-rule="evenodd" clip-rule="evenodd" fill="#FCE4BF" d="M511.903,1030.154c-77.803,0-151.167-17.771-206.575-50.038
			c-57.958-33.752-89.893-79.527-89.92-128.895c-0.012-21.142,5.854-41.711,17.453-61.274
			c-31.796-51.554-48.568-110.656-48.604-171.571c-0.049-87.545,33.991-169.867,95.852-231.8
			c61.858-61.932,144.133-96.067,231.667-96.115h0.188c87.5,0,169.771,34.063,231.654,95.915
			c61.889,61.854,95.999,144.116,96.049,231.632c0.032,60.914-16.674,120.035-48.411,171.625
			c11.621,19.549,17.509,40.112,17.521,61.257c0.026,49.396-31.893,95.227-89.877,129.05
			c-55.438,32.337-128.849,50.171-206.709,50.216H511.903z"/>
		<g>
			<path fill="#4F392A" d="M511.963,305.46c172.63-0.011,312.604,139.879,312.703,312.555
				c0.034,63.381-18.818,122.353-51.206,171.649c13.057,18.905,20.304,39.583,20.316,61.232
				c0.049,90.638-126.01,164.167-281.595,164.257c-0.085,0-0.193,0-0.279,0c-155.463,0-281.444-73.354-281.495-163.941
				c-0.012-21.649,7.213-42.333,20.248-61.253c-32.444-49.261-51.362-108.214-51.398-171.592
				c-0.097-172.73,139.826-312.812,312.527-312.907C511.837,305.46,511.911,305.46,511.963,305.46 M511.984,275.46v30l-0.008-30
				h-0.191c-46.269,0.026-91.147,9.116-133.406,27.019c-40.804,17.286-77.437,42.013-108.883,73.497
				c-31.445,31.483-56.131,68.147-73.37,108.974c-17.854,42.283-26.894,87.178-26.868,133.436
				c0.035,60.736,15.987,119.759,46.295,171.856c-10.071,19.523-15.156,39.965-15.145,60.988
				c0.016,28.604,9.393,56.006,27.87,81.446c16.645,22.917,40.028,43.24,69.501,60.403c57.665,33.582,133.709,52.076,214.124,52.076
				h0.279c80.489-0.046,156.581-18.605,214.275-52.259c29.483-17.198,52.868-37.551,69.507-60.496
				c18.471-25.472,27.828-52.898,27.813-81.518c-0.013-21.027-5.12-41.463-15.213-60.975
				c30.249-52.132,46.135-111.172,46.103-171.908c-0.026-46.241-9.11-91.11-26.998-133.36
				c-17.272-40.795-41.981-77.423-73.44-108.869c-31.46-31.445-68.098-56.136-108.896-73.386
				C603.08,284.519,558.214,275.46,511.984,275.46L511.984,275.46z"/>
		</g>
	</g>
	<path opacity="0.1" fill-rule="evenodd" clip-rule="evenodd" fill="#000001" d="M747.35,941.221
		c-50.358,44.501-136.859,73.866-235.171,73.92c-155.571,0.089-281.717-73.287-281.768-163.942
		c-0.01-21.628,7.197-42.328,20.257-61.227c-32.455-49.277-51.377-108.24-51.414-171.604
		c-0.071-129.275,78.29-240.235,190.113-287.944c-71.234,57.366-116.84,145.308-116.785,243.897
		c0.036,63.364,18.959,122.328,51.414,171.605c-13.06,18.896-20.269,39.597-20.255,61.227
		c0.05,90.653,126.191,164.03,281.766,163.941C645.757,971.064,701.552,960.013,747.35,941.221z"/>
	<path opacity="0.3" fill-rule="evenodd" clip-rule="evenodd" fill="#FFFFFF" d="M511.785,305.46
		c172.675-0.097,312.783,139.826,312.882,312.555c0.034,63.381-18.818,122.353-51.206,171.678
		c13.057,18.876,20.304,39.555,20.316,61.204c0.046,84.97-110.749,154.903-252.822,163.384
		c138.771-8.564,223.529-78.456,192.035-163.351c-8.017-21.644-22.926-42.315-42.989-61.189
		c54.44-189.91-41.924-449.465-304.7-457.549C423.974,315.023,466.752,305.485,511.785,305.46z"/>
	<path class="animation2" fill-rule="evenodd" clip-rule="evenodd" fill="#FFFFFF" d="M391.102,566.217l48.621-0.026
		c24.042-0.014,43.734,19.642,43.75,43.694l0.09,162.031c0.015,24.053-19.659,43.73-43.699,43.743l-48.623,0.027
		c-24.04,0.013-43.734-19.644-43.747-43.693l-0.092-162.032C347.389,585.909,367.06,566.232,391.102,566.217z"/>
	<path class="animation2" fill-rule="evenodd" clip-rule="evenodd" fill="#FFFFFF" d="M584.111,566.11l48.625-0.027
		c24.041-0.013,43.732,19.642,43.748,43.694l0.09,162.032c0.014,24.05-19.657,43.728-43.699,43.743l-48.622,0.027
		c-24.041,0.013-43.735-19.644-43.75-43.696l-0.089-162.03C540.4,585.801,560.07,566.123,584.111,566.11z"/>
	<path class="animation" fill-rule="evenodd" clip-rule="evenodd" fill="#C8AA96" d="M457.319,714.953l0.028,49.794
		c0.008,14.793-12.065,26.881-26.86,26.89l-29.888,0.016c-14.793,0.009-26.879-12.067-26.889-26.859l-0.028-49.794L457.319,714.953z
		"/>
	<path class="animation" fill-rule="evenodd" clip-rule="evenodd" fill="#C8AA96" d="M650.33,714.846l0.027,49.791
		c0.011,14.797-12.063,26.883-26.858,26.89l-29.886,0.017c-14.796,0.006-26.881-12.065-26.891-26.861l-0.027-49.791L650.33,714.846z
		"/>
	<g>
		<path fill-rule="evenodd" clip-rule="evenodd" fill="#A27556" d="M366.724,1424.776c-6.906,0-12.921-4.716-14.567-11.424
			c-1.066-4.344-1.586-8.483-1.589-12.654l-0.056-98.285c-14.575-16.526-22.833-38.308-22.845-60.734l-0.007-8.865
			c-0.003-3.979,1.575-7.796,4.387-10.611s6.626-4.398,10.604-4.4c0,0,338.137-0.188,338.139-0.188c8.28,0,14.994,6.709,15,14.99
			l0.006,8.868c0.011,22.443-8.211,44.232-22.747,60.758l0.056,98.286c-0.001,4.175-0.516,8.308-1.572,12.647
			c-1.636,6.718-7.651,11.447-14.566,11.451l-113.257,0.061c-6.904,0-12.917-4.713-14.566-11.418
			c-1.053-4.283-1.588-8.542-1.591-12.659l-0.038-69.369l-31.434,0.017l0.038,69.371c0.003,4.104-0.527,8.363-1.576,12.655
			c-1.64,6.713-7.652,11.437-14.563,11.44C479.98,1424.711,366.727,1424.776,366.724,1424.776z"/>
		<path fill="#4F392A" d="M680.791,1232.613l0.006,8.868c0.011,21.601-8.786,41.119-22.75,54.787l0.059,104.256
			c-0.001,3.142-0.434,6.162-1.146,9.09l-113.249,0.061c-0.719-2.923-1.155-6.037-1.157-9.087l-0.047-84.367l-61.433,0.032
			l0.046,84.371c0.002,3.051-0.433,6.161-1.147,9.088l-113.247,0.064c-0.719-2.928-1.154-5.944-1.156-9.088l-0.059-104.254
			c-14.014-13.687-22.83-33.194-22.842-54.764l-0.007-8.869L680.791,1232.613 M680.791,1202.613c-0.006,0-0.011,0-0.017,0
			l-338.13,0.188c-7.958,0.004-15.588,3.17-21.211,8.801s-8.779,13.265-8.772,21.223l0.007,8.869
			c0.008,14.592,2.893,28.751,8.572,42.078c3.717,8.718,8.497,16.782,14.276,24.096l0.052,92.837
			c0.003,5.315,0.684,10.773,2.021,16.224c3.293,13.416,15.322,22.848,29.135,22.848c0.006,0,0.011,0,0.018,0l113.246-0.064
			c13.821-0.008,25.848-9.456,29.127-22.883c1.333-5.458,2.008-10.916,2.004-16.224l-0.029-54.368l1.433-0.001l0.03,54.368
			c0.004,5.323,0.685,10.784,2.025,16.234c3.297,13.409,15.324,22.836,29.132,22.836c0.006,0,0.01,0,0.017,0l113.248-0.061
			c13.829-0.008,25.861-9.467,29.133-22.902c1.324-5.439,1.996-10.883,1.998-16.18l-0.053-92.901
			c14.589-18.611,22.756-42.073,22.744-66.164l-0.006-8.873C710.78,1216.032,697.35,1202.613,680.791,1202.613L680.791,1202.613z"/>
	</g>
	<path fill-rule="evenodd" clip-rule="evenodd" fill="#4F392A" d="M265.873,541.183c-5.279,19.393-8.35,39.56-8.991,60.131
		c-0.917,30.437,3.522,61.96,13.965,93.23l4.334,12.945l-7.757,156.633l-37.138-16.626l-0.092,3.704
		c0.033,55.115,46.68,103.823,118.181,133.535l-0.031,1.773l0.014,23.747l-0.561-0.373l-0.125-0.063l-0.436-0.281l-0.373-0.217
		l-0.218-0.154l-0.591-0.344l-35.802-20.549c-17.714-10.196-40.521-4.056-50.688,13.659l-49.217,85.642L194,1072.333
		c-23.949-26.252-66.127-382.625-53.707-488.878l0.092-0.717v-0.03l-0.094-0.341l-50.327-8.841l69.545-75.352
		c0,0,168.138-235.868,340.361-240.414c2.01-0.054,4.026-0.089,6.041-0.111c2.018,0.02,4.031,0.052,6.045,0.105
		c172.229,4.354,358.596,256.794,363.702,262.55l46.557,52.756l-50.317,8.896l-0.093,0.341l-0.002,0.032l0.096,0.714
		c7.261,61.52-3.692,206.919-18.845,323.527c-8.635-1.817-17.926-0.604-26.125,4.12c0,0-162.104,93.438-162.62,93.773
		c0,0,118.018-98.46,117.987-153.573l-37.214,12.968l6.091-67.039c1.021-11.423-14.023-89.591-14.023-89.591
		s19.131-75.758,18.179-106.192c-0.664-20.572-3.757-40.736-9.059-60.123l-6.567,1.001L265.873,541.183z"/>
	<g>
		<g>
			<path fill-rule="evenodd" clip-rule="evenodd" fill="#6B60A7" d="M36.135,583.66c-3.914,0-7.743-1.533-10.599-4.384
				c-3.964-3.956-5.394-9.791-3.708-15.131c11.438-36.236,55.167-52.817,97.458-68.852c39.167-14.851,79.667-30.208,89.442-58.29
				c11.965-34.389,45.461-114.321,109.478-155.958c-25.266-28.631-47.104-56.176-47.119-79.753
				c-0.014-23.283,18.659-56.653,35.878-81.103c-11.701,0.536-22.601,0.806-32.609,0.807c-55.813,0.002-85.251-7.874-95.449-25.536
				c-5.033-8.718-4.745-19.218,0.792-28.809c4.579-7.933,16.292-19.669,26.889-19.669c1.582,0,3.141,0.23,4.633,0.686
				c0.122,0.038,0.243,0.076,0.364,0.116l6.392,2.135c26.432,8.842,47.31,15.825,66.339,15.825c17.499,0,33.959-5.957,53.369-19.313
				c0.059-0.041,0.118-0.081,0.178-0.121c17.026-11.361,33.923-17.122,50.219-17.122c44.617,0,74.885,40.725,104.156,80.108
				c18.561,24.973,37.727,50.761,58.164,61.71c79.247,3.734,128.053,10.078,157.983,31.969
				c30.1,22.015,39.283,55.871,54.497,111.962c7.895,29.106,17.72,65.329,33.152,109.53c9.806,28.068,50.322,43.38,89.506,58.187
				c42.309,15.988,86.057,32.52,97.534,68.743c1.691,5.338,0.268,11.175-3.691,15.135c-2.856,2.858-6.69,4.396-10.61,4.396
				c-1.512,0-3.037-0.229-4.523-0.7c-85.976-27.205-235.53-42.809-410.317-42.809c-205.593,0-407.058,21.799-513.256,55.536
				C39.184,583.429,37.653,583.66,36.135,583.66z"/>
			<path fill="#413968" d="M388.081,44.188c65.14,0,100.923,114.482,158.438,141.653c214.21,9.809,163.174,36.825,235.354,243.57
				c23.622,67.618,167.849,66.38,186.902,126.517c-94.069-29.767-251.482-43.508-414.844-43.508
				c-197.646,0-404.024,20.097-517.797,56.24c18.989-60.158,163.217-59.082,186.762-126.726
				c17.387-49.972,55.481-125.368,118.694-157.051c-15.721-18.401-55.486-58.83-55.502-83.601
				c-0.017-28.5,37.962-82.335,53.794-98.186c-25.881,2.015-47.521,2.898-65.526,2.898c-127.186,0-73.95-44.014-67.768-44.014
				c0.098,0,0.184,0.011,0.257,0.034c30.913,10.297,54.386,18.729,77.471,18.729c19.483,0,38.688-6.002,61.872-21.957
				C361.52,48.556,375.365,44.188,388.081,44.188 M388.081,14.187c-19.312,0-39.009,6.61-58.545,19.645
				c-0.119,0.08-0.237,0.16-0.355,0.241c-21.346,14.689-34.658,16.67-44.865,16.67c-16.588,0-35.461-6.313-61.583-15.051
				c-2.101-0.703-4.235-1.417-6.407-2.141c-0.24-0.08-0.48-0.157-0.723-0.23c-2.914-0.889-5.947-1.34-9.015-1.34
				c-12.896,0-23.723,8.188-30.535,15.057c-10.154,10.24-15.747,22.691-15.747,35.062c0,9.432,3.573,32.653,36.679,44.533
				c17.556,6.3,42.864,9.363,77.371,9.363c1.516,0,3.05-0.006,4.604-0.018c-15.395,26.328-22.883,47.728-22.872,65.323
				c0.01,15.993,7.111,33.384,22.35,54.733c5.523,7.739,11.678,15.378,17.624,22.402c-20.293,15.798-38.997,36.318-55.874,61.339
				c-23.064,34.192-37.542,69.067-45.626,92.302c-7.472,21.466-46.318,36.196-80.592,49.191
				c-20.77,7.875-42.245,16.018-60.311,26.524c-24.538,14.271-39.628,31.227-46.134,51.837c-3.372,10.681-0.513,22.351,7.415,30.263
				c5.712,5.701,13.371,8.769,21.197,8.769c3.036,0,6.096-0.461,9.08-1.409c104.853-33.309,304.534-54.832,508.715-54.832
				c173.314,0,321.22,15.349,405.792,42.11c2.973,0.941,6.023,1.399,9.048,1.399c7.839,0,15.506-3.076,21.22-8.792
				c7.919-7.921,10.765-19.593,7.382-30.271c-6.528-20.604-21.637-37.543-46.19-51.787c-18.077-10.487-39.563-18.605-60.34-26.458
				c-34.288-12.957-73.151-27.643-80.649-49.105c-15.254-43.693-25.002-79.63-32.834-108.507
				c-15.521-57.221-25.774-95.023-60.119-120.143c-32.688-23.907-80.72-30.697-162.511-34.672
				c-16.586-10.281-33.779-33.414-50.453-55.848c-14.327-19.277-29.142-39.209-46.121-54.978
				C435.56,24.387,412.638,14.187,388.081,14.187L388.081,14.187z"/>
		</g>
		<path opacity="0.2" fill-rule="evenodd" clip-rule="evenodd" fill="#FFFFFF" d="M331.406,103.723
			c-201.094,14.241-129.859-43.311-124.568-41.695c57.023,18.983,88.713,31.6,139.359-3.252
			c93.854-62.636,131.569,94.596,200.331,127.08c214.212,9.807,163.158,36.817,235.351,243.543
			c23.625,67.644,167.84,66.381,186.888,126.527c-59.482-18.827-144.355-31.196-239.993-37.803
			c-40.002-21.139-111.18-27.76-107.908-75.812c14.198-208.176,76.516-241.137-133.545-230.905
			c-55.161-27.199-27.21-187.146-147.2-113.012L331.406,103.723z"/>
		<path opacity="0.2" fill-rule="evenodd" clip-rule="evenodd" fill="#000001" d="M36.142,568.647
			c18.609-58.954,157.533-59.094,185.195-122.782c244.328-2.688,587.43,41.031,747.429,110.062
			C760.905,490.159,243.93,502.648,36.142,568.647z"/>
	</g>
	<g>
		<path fill-rule="evenodd" clip-rule="evenodd" fill="#E8AD0B" d="M849.641,1044.521c-2.573,0-5.179-0.662-7.56-2.055
			l-14.745-8.624c-3.434-2.009-5.93-5.3-6.938-9.148s-0.445-7.94,1.563-11.375l281.248-480.726c2.009-3.434,5.301-5.929,9.149-6.937
			c1.25-0.327,2.526-0.489,3.798-0.489c2.641,0,5.258,0.697,7.576,2.054l14.741,8.626c7.149,4.184,9.554,13.371,5.371,20.521
			l-281.244,480.723C859.812,1041.862,854.794,1044.521,849.641,1044.521z"/>
		<g>
			<path fill="#4F392A" d="M1116.158,540.168l14.741,8.626l-281.244,480.723l-14.745-8.624L1116.158,540.168 M1116.158,510.168
				c-2.543,0-5.095,0.323-7.596,0.978c-7.698,2.015-14.28,7.005-18.299,13.873l-281.248,480.726
				c-4.018,6.868-5.143,15.051-3.127,22.749c2.016,7.697,7.007,14.279,13.875,18.296l14.745,8.624
				c4.761,2.784,9.975,4.109,15.118,4.109c10.309,0,20.342-5.316,25.922-14.855l281.244-480.724
				c8.366-14.3,3.558-32.674-10.742-41.042l-14.74-8.626C1126.673,511.563,1121.438,510.168,1116.158,510.168L1116.158,510.168z"/>
		</g>
	</g>
	<g>
		<g>
			<path fill-rule="evenodd" clip-rule="evenodd" fill="#E8AD0B" d="M1101.227,759.122c-4.357,0-8.533-1.899-11.4-5.252
				l-52.722-61.663L957.5,676.454c-4.866-0.963-8.942-4.27-10.887-8.833c-1.945-4.564-1.508-9.794,1.168-13.971l41.156-64.259
				l-12.83-77.134c-0.839-5.047,0.951-10.173,4.75-13.6c2.79-2.517,6.382-3.862,10.048-3.862c1.324,0,2.657,0.175,3.967,0.535
				l78.242,21.463l71.271-32.201c1.968-0.89,4.074-1.331,6.175-1.331c2.627,0,5.245,0.689,7.576,2.054
				c4.196,2.455,6.942,6.792,7.367,11.634l6.84,77.886l57.059,57.705c3.597,3.638,5.092,8.858,3.966,13.848
				c-1.125,4.99-4.717,9.063-9.527,10.804l-73.504,26.6l-35.867,67.378c-2.331,4.379-6.677,7.322-11.607,7.862
				C1102.315,759.092,1101.769,759.122,1101.227,759.122z"/>
			<path fill="#4F392A" d="M1150.561,498.261l7.313,83.274l60.862,61.552l-78.929,28.563l-38.579,72.472l-56.104-65.619
				l-84.711-16.764l44.269-69.118l-13.776-82.826l83.458,22.895L1150.561,498.261 M1150.56,468.261
				c-4.202,0-8.414,0.882-12.352,2.661l-66.341,29.974l-73.026-20.033c-2.618-0.718-5.287-1.069-7.935-1.069
				c-7.332,0-14.515,2.689-20.096,7.724c-7.598,6.853-11.179,17.105-9.499,27.198l11.883,71.442l-38.045,59.4
				c-5.352,8.355-6.226,18.815-2.335,27.943c3.89,9.127,12.041,15.74,21.774,17.667l74.498,14.743l49.339,57.707
				c5.732,6.705,14.085,10.504,22.798,10.504c1.087,0,2.178-0.059,3.271-0.179c9.862-1.08,18.553-6.967,23.215-15.725l33.157-62.285
				l68.078-24.637c9.621-3.482,16.804-11.626,19.056-21.607c2.251-9.98-0.738-20.421-7.933-27.696l-53.256-53.859l-6.366-72.498
				c-0.851-9.686-6.342-18.358-14.733-23.269C1161.049,469.64,1155.813,468.261,1150.56,468.261L1150.56,468.261z"/>
		</g>
		<g>
			<path fill-rule="evenodd" clip-rule="evenodd" fill="#E8AD0B" d="M1101.227,759.122c-4.357,0-8.533-1.899-11.4-5.252
				l-52.722-61.663L957.5,676.454c-4.866-0.963-8.942-4.27-10.887-8.833c-1.945-4.564-1.508-9.794,1.168-13.971l41.156-64.259
				l-12.83-77.134c-0.839-5.047,0.951-10.173,4.75-13.6c2.79-2.517,6.382-3.862,10.048-3.862c1.324,0,2.657,0.175,3.967,0.535
				l78.242,21.463l71.271-32.201c1.968-0.89,4.074-1.331,6.175-1.331c2.627,0,5.245,0.689,7.576,2.054
				c4.196,2.455,6.942,6.792,7.367,11.634l6.84,77.886l57.059,57.705c3.597,3.638,5.092,8.858,3.966,13.848
				c-1.125,4.99-4.717,9.063-9.527,10.804l-73.504,26.6l-35.867,67.378c-2.331,4.379-6.677,7.322-11.607,7.862
				C1102.315,759.092,1101.769,759.122,1101.227,759.122z"/>
			<path fill="#4F392A" d="M1150.561,498.261l7.313,83.274l60.862,61.552l-78.929,28.563l-38.579,72.472l-56.104-65.619
				l-84.711-16.764l44.269-69.118l-13.776-82.826l83.458,22.895L1150.561,498.261 M1150.56,468.261
				c-4.202,0-8.414,0.882-12.352,2.661l-66.341,29.974l-73.026-20.033c-2.618-0.718-5.287-1.069-7.935-1.069
				c-7.332,0-14.515,2.689-20.096,7.724c-7.598,6.853-11.179,17.105-9.499,27.198l11.883,71.442l-38.045,59.4
				c-5.352,8.355-6.226,18.815-2.335,27.943c3.89,9.127,12.041,15.74,21.774,17.667l74.498,14.743l49.339,57.707
				c5.732,6.705,14.085,10.504,22.798,10.504c1.087,0,2.178-0.059,3.271-0.179c9.862-1.08,18.553-6.967,23.215-15.725l33.157-62.285
				l68.078-24.637c9.621-3.482,16.804-11.626,19.056-21.607c2.251-9.98-0.738-20.421-7.933-27.696l-53.256-53.859l-6.366-72.498
				c-0.851-9.686-6.342-18.358-14.733-23.269C1161.049,469.64,1155.813,468.261,1150.56,468.261L1150.56,468.261z"/>
		</g>
	</g>
	<path opacity="0.2" fill-rule="evenodd" clip-rule="evenodd" fill="#FFFFFF" d="M1150.561,498.261l-76.202,34.439l-83.466-22.91
		l6.865,41.218l87.693,24.064l69.111-31.236L1150.561,498.261z"/>
	<path opacity="0.2" fill-rule="evenodd" clip-rule="evenodd" fill="#000001" d="M982.889,626.64l-22.484,35.106l84.708,16.755
		l56.113,65.632l38.569-72.48l78.95-28.556l-32.593-32.957l-62.99,22.813l-32.354,60.783l-47.064-55.057L982.889,626.64z"/>
</g>
</svg>
