<?xml version="1.0" encoding="utf-8"?>
<!-- Generator: Adobe Illustrator 16.0.0, SVG Export Plug-In . SVG Version: 6.00 Build 0)  -->
<!DOCTYPE svg PUBLIC "-//W3C//DTD SVG 1.1//EN" "http://www.w3.org/Graphics/SVG/1.1/DTD/svg11.dtd">
<svg version="1.1" id="Layer_8" xmlns="http://www.w3.org/2000/svg" xmlns:xlink="http://www.w3.org/1999/xlink" x="0px" y="0px"
	 width="1101.334px" height="1356px" viewBox="0 0 1101.334 1356" enable-background="new 0 0 1101.334 1356" xml:space="preserve">


<style>
.animation{
    animation: animation 10s infinite linear;
}

.animation2{
    animation: animation2 2s infinite linear;
}

@keyframes animation {
	0%,
	2%,
	4%,
	40%,
	42%,
	44%,
	60%,
	62%,
	64%
	{
		transform: translate(0px, 0px);
	}

	1% {
		transform: translate(0px, -110px);
	}
	3% {
		transform: translate(0px, -15px);
	}


	41% {
		transform: translate(-30px, 0px);
	}
	43% {
		transform: translate(-15px, 0px);
	}


	61% {
		transform: translate(0px, 30px);
	}
	63% {
		transform: translate(0px, 15px);
	}
}

@keyframes animation2 {
	0%,
	100%,
	90%{
		opacity: 1;
		transform: scaleY(1.0);
	}

	95% {
		opacity: 0;
		transform: scaleY(0.2);
	}
}
</style>

<g>
	<g>
		<path fill-rule="evenodd" clip-rule="evenodd" fill="#BBBBBB" d="M669.344,825.47c-82.553,0-172.896-21.529-357.143-73.03
			l-14.867-4.156l8.705-27.998c33.264-106.84,67.66-217.317,64.517-324.933l-0.449-15.389l615.953-1.958l-0.352,15.391
			c-2.459,107.637,32.641,217.897,66.584,324.527l9.118,28.68l-15.794,3.69c-51.727,12.086-95.292,22.919-133.729,32.478
			C804.813,809.398,740.182,825.47,669.344,825.47z"/>
		<path fill="#666666" d="M970.712,393.055c-2.622,114.742,36.701,233.129,71.491,342.633
			c-197.155,46.065-279.249,74.782-372.86,74.782c-81.332,0-171.355-21.673-353.104-72.477
			c34.091-109.718,72.661-228.355,69.311-343.078l128.599-0.41l361.7-1.149L970.712,393.055 M1001.408,362.957l-30.791,0.098
			l-94.863,0.301l-361.7,1.149l-128.599,0.41l-30.791,0.098l0.899,30.777c3.069,105.112-30.948,214.373-63.846,320.037
			c-1.381,4.436-2.757,8.857-4.127,13.265l-9.161,29.482l29.733,8.312c185.643,51.892,276.856,73.584,361.181,73.584
			c72.675,0,137.978-16.239,246.166-43.142c38.388-9.546,81.897-20.366,133.52-32.428l31.588-7.381l-9.822-30.916
			c-1.396-4.396-2.801-8.806-4.209-13.229c-33.57-105.456-68.284-214.503-65.882-319.634L1001.408,362.957L1001.408,362.957z"/>
	</g>
	<g >
		<path fill="#FCE4BF" d="M571.837,1338.551c-28.65,0-52.034-23.307-52.126-51.955l-0.437-137.585
			c-0.012-3.892,0.404-7.725,1.242-11.469c-12.117-14.859-18.728-33.226-18.789-52.63l-0.387-121.803
			c-6.33,2.662-13.218,4.099-20.301,4.099c-9.012,0-17.912-2.362-25.736-6.832L317.47,881.625
			c-5.161,0.901-10.399,1.356-15.638,1.356c-21.413,0-42.212-7.598-58.567-21.394c-6.328-5.338-7.135-14.793-1.804-21.126
			l29.049-34.505c0.322-0.938,0.67-1.867,1.045-2.785l-46.981-6.221c-8.211-1.087-13.987-8.625-12.902-16.836
			c4.556-34.469,27.835-62.87,60.752-74.119c9.519-3.252,19.405-4.901,29.385-4.901c34.729,0,66.137,19.638,81.42,50.455
			l118.333,67.609c2.265-18.252,10.439-35.182,23.588-48.508c15.726-15.937,36.62-24.753,58.833-24.824l190.807-0.606
			c45.053,0,81.96,36.264,83.295,81.294l15.618-9.056c7.916-4.59,16.932-7.016,26.073-7.016c18.588,0,35.899,9.943,45.178,25.948
			l81.638,140.797c44.672,17.604,68.282,67.44,52.884,113.456c-11.033,32.985-39.284,56.444-73.727,61.221
			c-0.698,0.098-1.394,0.145-2.079,0.145c-7.369,0-13.796-5.432-14.838-12.938l-6.685-48.109l-36.937,31.498
			c-2.824,2.408-6.284,3.587-9.726,3.587c-4.235,0-8.443-1.783-11.41-5.255c-15.933-18.645-23.589-42.844-21.404-67.133
			l-44.074-76.015l0.337,106.134c0.061,19.404-6.436,37.813-18.46,52.749c0.862,3.739,1.302,7.57,1.314,11.462l0.439,137.579
			c0.092,28.738-23.217,52.195-51.959,52.289l-41.454,0.132c-28.654,0-52.038-23.308-52.126-51.958l-0.376-117.928l-31.434,0.101
			l0.375,117.927c0.045,13.884-5.349,26.98-15.187,36.878c-9.836,9.895-22.896,15.367-36.776,15.41L571.837,1338.551z"/>
		<path fill="#4F392A" d="M301.809,716.094c29.765,0.001,57.681,17.652,69.816,46.101l144.34,82.468l-0.047-14.808
			c-0.122-37.865,30.51-68.908,68.113-69.028l190.542-0.606c0.074,0,0.144,0,0.217,0c37.527,0.002,68.211,30.83,68.333,68.596
			l0.075,23.8c0.754-0.515,1.522-1.014,2.324-1.478l35.706-20.704c5.838-3.385,12.231-4.992,18.549-4.992
			c12.829,0,25.337,6.631,32.201,18.471l84.404,145.568c0.317,0.103,0.635,0.187,0.953,0.292
			c39.764,13.307,61.223,56.346,47.917,96.11c-9.146,27.34-32.975,47.158-61.563,51.123l-9.892-71.191l-16.488,9.559l-41.832,35.673
			c-14.43-16.885-20.57-39.046-17.322-60.584l-74.739-128.901l0.516,162.265c0.06,19.172-7.783,36.597-20.419,49.147
			c2.08,4.605,3.257,9.699,3.273,15.062l0.439,137.581c0.065,20.426-16.596,37.175-37.008,37.241l-41.287,0.132
			c-0.04,0-0.078,0-0.118,0c-20.36,0-37.063-16.621-37.126-37.004l-0.424-132.93l-61.434,0.196l0.423,132.927
			c0.066,20.423-16.597,37.178-37.009,37.24l-41.288,0.131c-0.04,0-0.078,0-0.118,0c-20.358,0-37.061-16.621-37.126-37.003
			l-0.437-137.585c-0.017-5.359,1.127-10.461,3.18-15.081c-12.71-12.466-20.666-29.835-20.727-49.017l-0.497-156.317l-2.836,4.962
			c-6.843,11.98-19.442,18.698-32.355,18.698c-6.229,0-12.533-1.564-18.296-4.856l-142.77-81.571
			c-5.992,1.476-12.081,2.201-18.143,2.201c-17.635,0-35.012-6.148-48.896-17.859l31.015-36.84c0.802-3.014,1.999-5.971,3.614-8.8
			l7.607-13.315l-68.63-9.087c3.783-28.616,23.45-52.567,50.732-61.891C285.402,717.412,293.673,716.094,301.809,716.094
			 M301.811,686.094C301.811,686.094,301.811,686.094,301.811,686.094c-11.633,0-23.151,1.919-34.236,5.706
			c-18.68,6.384-35.166,17.821-47.676,33.076c-12.522,15.27-20.51,33.691-23.098,53.273c-2.171,16.423,9.381,31.498,25.804,33.672
			l21.018,2.783l-13.636,16.197c-10.664,12.667-9.049,31.577,3.606,42.253c19.057,16.075,43.292,24.928,68.239,24.928
			c4.241,0,8.481-0.256,12.691-0.765L447.862,973.4c10.088,5.763,21.56,8.808,33.178,8.808c1.798,0,3.586-0.072,5.361-0.214
			l0.327,102.967c0.064,20.526,6.344,40.066,17.949,56.514c-0.276,2.505-0.41,5.034-0.402,7.583l0.437,137.586
			c0.118,36.894,30.23,66.907,67.125,66.907h0.166h-0.047c0.032,0,0.063,0,0.095,0l41.288-0.131
			c17.883-0.055,34.706-7.1,47.365-19.836c12.664-12.74,19.606-29.609,19.548-47.502l-0.327-102.926l1.434-0.004l0.328,102.93
			c0.114,36.893,30.228,66.908,67.127,66.908h0.165h-0.047c0.032,0,0.064,0,0.096,0l41.287-0.132
			c37.015-0.121,67.031-30.328,66.912-67.338l-0.438-137.58c-0.008-2.548-0.158-5.076-0.45-7.578
			c11.503-16.521,17.66-36.101,17.596-56.629l-0.159-50.006l13.629,23.506c-1.152,26.628,7.778,52.838,25.269,73.305
			c5.933,6.942,14.352,10.511,22.821,10.511c6.885,0,13.803-2.356,19.452-7.174l16.112-13.74l2.918,21.002
			c2.085,15.01,14.94,25.875,29.677,25.875c1.373,0,2.761-0.095,4.159-0.288c19.563-2.714,37.933-10.817,53.122-23.437
			c15.176-12.608,26.508-29.167,32.77-47.886c17.363-51.889-7.851-107.95-56.646-130.071L957.93,828.866
			c-11.951-20.615-34.234-33.423-58.153-33.423c-10.5,0-20.87,2.483-30.221,7.209c-11.533-41.704-49.693-72.43-94.764-72.432
			l-0.332,0l-190.523,0.605c-26.24,0.083-50.908,10.485-69.462,29.288c-10.292,10.43-17.996,22.731-22.792,36.122l-97.209-55.539
			c-8.328-15.067-20.191-27.849-34.754-37.348C342.414,692.062,322.39,686.095,301.811,686.094L301.811,686.094L301.811,686.094z"/>
	</g>
	<g>
		<path fill-rule="evenodd" clip-rule="evenodd" fill="#FCE4BF" d="M678.048,873.08c-77.532,0-150.63-17.672-205.831-49.76
			c-57.76-33.576-89.655-79.177-89.812-128.403c-0.069-21.141,5.741-41.725,17.291-61.318
			c-31.93-51.471-48.857-110.529-49.051-171.442c-0.277-87.545,33.548-169.956,95.246-232.05
			c61.697-62.094,143.881-96.444,231.416-96.723l1.06-0.001c87.314,0,169.463,33.951,231.315,95.598
			c61.867,61.662,96.091,143.732,96.368,231.093c0.194,60.913-16.358,120.077-47.96,171.749
			c11.673,19.52,17.614,40.066,17.682,61.208c0.156,49.396-31.642,95.311-89.539,129.286
			c-55.354,32.484-128.717,50.511-206.576,50.761L678.048,873.08z"/>
		<path fill="#4F392A" d="M678.367,148.383c172.238-0.001,312.136,139.347,312.683,311.738
			c0.202,63.378-18.496,122.4-50.755,171.781c13.107,18.873,20.408,39.531,20.477,61.177
			c0.287,90.637-125.581,164.5-281.162,164.999c-0.513,0.001-1.049,0.002-1.562,0.002c-154.876,0-280.355-72.872-280.642-163.211
			c-0.071-21.646,7.099-42.35,20.086-61.303c-32.572-49.177-51.645-108.081-51.847-171.457
			c-0.547-172.729,139.008-313.176,311.709-313.725C677.691,148.383,678.029,148.383,678.367,148.383 M678.369,118.383
			L678.369,118.383c-0.001,0-0.001,0-0.001,0h-0.003l0,0l-1.104,0.001c-46.253,0.147-91.108,9.355-133.321,27.369
			c-40.758,17.393-77.326,42.216-108.689,73.781c-31.363,31.566-55.953,68.294-73.085,109.165
			c-17.744,42.33-26.667,87.248-26.52,133.505c0.193,60.735,16.3,119.715,46.743,171.734c-10.021,19.55-15.051,40.004-14.982,61.029
			c0.09,28.524,9.49,55.836,27.939,81.173c16.622,22.829,39.949,43.065,69.333,60.147c57.454,33.398,133.23,51.792,213.369,51.792
			c0.542,0,1.111-0.001,1.654-0.003c80.474-0.258,156.517-19.018,214.123-52.823c29.438-17.275,52.77-37.691,69.348-60.68
			c18.404-25.521,27.689-52.972,27.599-81.591c-0.066-21.024-5.228-41.446-15.372-60.932c30.113-52.21,45.844-111.291,45.65-172.026
			c-0.146-46.165-9.32-90.942-27.266-133.09c-17.327-40.693-42.062-77.223-73.518-108.575
			c-31.45-31.347-68.055-55.958-108.798-73.149c-42.188-17.802-86.969-26.828-133.1-26.828H678.369L678.369,118.383z"/>
	</g>

	<g>
		<path fill-rule="evenodd" clip-rule="evenodd" fill="#A27556" d="M537.929,1267.826c-6.892,0-12.898-4.696-14.559-11.39
			c-1.077-4.344-1.608-8.479-1.623-12.641l-0.313-98.293c-14.599-16.473-22.9-38.229-22.973-60.668l-0.027-8.873
			c-0.025-8.283,6.668-15.02,14.952-15.046c0,0,338.159-1.072,338.175-1.072c8.261,0,14.972,6.683,14.999,14.95l0.029,8.869
			c0.071,22.425-8.105,44.235-22.618,60.815l0.313,98.283c0.01,4.182-0.494,8.32-1.543,12.661
			c-1.623,6.716-7.623,11.455-14.532,11.478c0,0-113.282,0.364-113.298,0.364c-6.893,0-12.901-4.699-14.56-11.394
			c-1.061-4.283-1.606-8.535-1.621-12.639l-0.218-69.374l-31.433,0.1l0.219,69.368c0.014,4.101-0.504,8.361-1.54,12.658
			c-1.621,6.72-7.623,11.462-14.535,11.483C651.225,1267.468,537.945,1267.826,537.929,1267.826z"/>
		<path fill="#4F392A" d="M851.561,1074.844l0.029,8.869c0.068,21.567-8.678,41.106-22.637,54.843l0.332,104.254
			c0.008,3.145-0.417,6.164-1.124,9.091l-113.25,0.364c-0.725-2.926-1.17-6.036-1.181-9.085l-0.266-84.369l-61.433,0.195
			l0.267,84.367c0.011,3.051-0.415,6.163-1.122,9.095l-113.248,0.358c-0.726-2.926-1.171-5.941-1.182-9.084l-0.332-104.256
			c-14.015-13.618-22.884-33.101-22.954-54.699l-0.027-8.871L851.561,1074.844 M851.563,1044.844c-0.033,0-0.064,0-0.097,0
			l-338.126,1.072c-16.567,0.053-29.956,13.525-29.905,30.093l0.028,8.871c0.077,24.09,8.333,47.522,22.99,66.08l0.295,92.878
			c0.02,5.388,0.694,10.685,2.063,16.208c3.319,13.386,15.334,22.78,29.118,22.78c0.032,0,0.064,0,0.096,0l113.248-0.358
			c13.823-0.044,25.827-9.527,29.069-22.966c1.317-5.464,1.977-10.926,1.958-16.233l-0.172-54.358l1.433-0.004l0.171,54.368
			c0.019,5.309,0.712,10.757,2.061,16.202c3.316,13.389,15.333,22.788,29.119,22.788c0.033,0,0.065,0,0.098,0l113.249-0.364
			c13.819-0.045,25.819-9.522,29.065-22.955c1.315-5.444,1.976-10.899,1.962-16.211l-0.295-92.857
			c5.75-7.334,10.5-15.414,14.183-24.144c5.632-13.349,8.464-27.518,8.418-42.115l-0.029-8.874
			C881.506,1058.211,868.084,1044.844,851.563,1044.844L851.563,1044.844z"/>
	</g>
	<g >
		<path fill-rule="evenodd" clip-rule="evenodd" fill="#E8AD0B" d="M232.855,844.295c-3.151,0-6.245-0.993-8.825-2.871
			l-23.308-16.958c-6.699-4.874-8.178-14.255-3.304-20.954l88.625-121.811c2.936-4.035,7.507-6.176,12.142-6.176
			c3.061,0,6.148,0.933,8.812,2.871l23.309,16.957c3.217,2.34,5.373,5.863,5.993,9.793c0.62,3.93-0.347,7.945-2.688,11.162
			L244.984,838.12c-2.34,3.217-5.863,5.373-9.793,5.992C234.414,844.234,233.632,844.295,232.855,844.295z"/>
		<g>
			<path fill="#4F392A" d="M298.172,690.526l23.309,16.957l-88.626,121.813l-23.308-16.958L298.172,690.526 M298.197,660.523
				c-9.271,0-18.412,4.283-24.283,12.353l-88.625,121.812c-9.748,13.397-6.789,32.16,6.609,41.908l23.308,16.958
				c5.16,3.754,11.348,5.741,17.65,5.741c1.555,0,3.118-0.121,4.673-0.366c7.859-1.239,14.904-5.55,19.585-11.984l88.626-121.813
				c4.681-6.434,6.615-14.464,5.375-22.324c-1.24-7.86-5.551-14.905-11.985-19.586l-23.309-16.957
				C310.493,662.391,304.317,660.523,298.197,660.523L298.197,660.523z"/>
		</g>
	</g>
	<g>
		<polygon fill-rule="evenodd" clip-rule="evenodd" fill="#BBBBBB" points="18.346,641.363 27.975,525.804 253.688,690.02 
			195.379,770.165 		"/>
		<path fill="#666666" d="M40.709,553.619l192.024,139.706l-40.659,55.886L33.995,634.199L40.709,553.619 M15.241,497.989
			l-4.428,53.138l-6.715,80.58l-1.401,16.82l13.648,9.93l158.08,115.012l24.259,17.65l17.649-24.259l40.66-55.886l17.649-24.259
			l-24.259-17.649L58.359,529.359L15.241,497.989L15.241,497.989z"/>
	</g>
	<path opacity="0.1" fill-rule="evenodd" clip-rule="evenodd" fill="#000001" d="M914.581,783.529
		c-50.243,44.632-136.665,74.222-234.974,74.533c-155.574,0.496-281.908-72.549-282.196-163.204
		c-0.07-21.629,7.085-42.347,20.096-61.277c-32.584-49.193-51.663-108.108-51.863-171.468
		c-0.411-129.276,77.661-240.44,189.358-288.44c-71.084,57.55-116.459,145.612-116.146,244.201
		c0.2,63.363,19.278,122.275,51.862,171.469c-13.011,18.934-20.166,39.651-20.096,61.281
		c0.287,90.654,126.624,163.696,282.196,163.203C813.068,813.635,868.833,802.438,914.581,783.529z"/>
	<path opacity="0.3" fill-rule="evenodd" clip-rule="evenodd" fill="#FFFFFF" d="M677.354,148.384
		c172.672-0.549,313.147,139.008,313.696,311.737c0.202,63.378-18.496,122.4-50.755,171.811
		c13.108,18.842,20.408,39.5,20.477,61.146c0.269,84.969-110.342,155.194-252.397,164.05
		c138.751-8.931,223.326-79.042,191.609-163.855c-8.072-21.623-23.036-42.255-43.148-61.078
		c53.943-190.049-43.102-449.351-305.896-456.748C589.567,158.178,632.319,148.528,677.354,148.384z"/>
	<path class="animation2" fill-rule="evenodd" clip-rule="evenodd" fill="#FFFFFF" d="M557.351,409.457l48.623-0.154
		c24.042-0.075,43.787,19.526,43.864,43.579l0.515,162.03c0.077,24.054-19.544,43.782-43.584,43.857l-48.625,0.156
		c-24.039,0.075-43.784-19.528-43.86-43.583l-0.517-162.027C513.69,429.263,533.311,409.534,557.351,409.457z"/>
	<path class="animation2" fill-rule="evenodd" clip-rule="evenodd" fill="#FFFFFF" d="M750.361,408.845l48.623-0.154
		c24.041-0.077,43.787,19.527,43.865,43.579l0.511,162.03c0.078,24.051-19.542,43.779-43.583,43.857l-48.623,0.154
		c-24.042,0.078-43.787-19.525-43.862-43.579l-0.516-162.03C706.701,428.649,726.322,408.921,750.361,408.845z"/>
	<path class="animation" fill-rule="evenodd" clip-rule="evenodd" fill="#C8AA96" d="M623.959,558.018l0.156,49.792
		c0.048,14.797-11.993,26.914-26.789,26.963l-29.886,0.093c-14.795,0.049-26.913-11.993-26.959-26.789l-0.16-49.791L623.959,558.018
		z"/>
	<path class="animation" fill-rule="evenodd" clip-rule="evenodd" fill="#C8AA96" d="M816.969,557.405l0.158,49.793
		c0.049,14.793-11.994,26.913-26.789,26.959l-29.885,0.096c-14.794,0.046-26.914-11.995-26.96-26.788l-0.158-49.794L816.969,557.405
		z"/>
	<path fill-rule="evenodd" clip-rule="evenodd" fill="#B2B1B1" d="M677.008,38.672c149.455-0.474,277.554,93.782,330.119,227.532
		l-658.82,2.093C400.02,134.216,527.517,39.147,677.008,38.672z"/>
	<g>
		<path fill-rule="evenodd" clip-rule="evenodd" fill="#BBBBBB" d="M334.299,258.953c26.812-69.515,72.796-128.901,132.982-171.738
			c61.697-43.912,134.199-67.25,209.667-67.49l1.171-0.002c75.221,0,147.608,22.986,209.338,66.473
			c60.233,42.433,106.437,101.416,133.616,170.573l8.024,20.417l-702.693,2.234L334.299,258.953z"/>
		<path fill="#666666" d="M678.12,34.724c148.974,0,276.562,94.118,328.994,227.533l-658.819,2.095
			C400.009,130.27,527.506,35.201,676.997,34.726C677.371,34.725,677.746,34.724,678.12,34.724 M678.123,4.724L678.123,4.724
			C678.122,4.724,678.122,4.724,678.123,4.724h-0.003l0,0l-1.223,0.002c-78.582,0.25-154.075,24.549-218.313,70.269
			c-30.889,21.984-58.421,48.424-81.833,78.583c-23.589,30.387-42.58,64.024-56.447,99.978l-15.789,40.935l43.874-0.14l658.82-2.095
			l43.874-0.139l-16.048-40.833c-14.058-35.771-33.203-69.211-56.903-99.389c-23.52-29.949-51.121-56.178-82.037-77.957
			C831.82,28.658,756.446,4.724,678.123,4.724L678.123,4.724L678.123,4.724z"/>
	</g>
	<g>
		<path fill-rule="evenodd" clip-rule="evenodd" fill="#BBBBBB" d="M531.17,265.409c10.439-68.48,28.592-127.18,52.495-169.753
			c26.378-46.981,58.639-71.873,93.295-71.983h0.228c34.598,0,66.959,24.73,93.585,71.517
			c24.136,42.412,42.635,100.95,53.498,169.288l2.75,17.299l-298.489,0.949L531.17,265.409z"/>
		<path fill="#666666" d="M677.188,38.671c59.691-0.005,111.014,94.443,132.269,228.16l-263.458,0.838
			c20.424-133.981,71.228-228.807,131.009-228.997C677.067,38.672,677.13,38.671,677.188,38.671 M677.195,8.672L677.195,8.672
			c-0.002,0-0.002,0-0.002,0h0l0,0h-0.287c-28.15,0.09-69.454,13.979-106.32,79.64c-24.778,44.132-43.536,104.589-54.245,174.836
			l-5.279,34.632l35.032-0.111l263.458-0.838l35.032-0.112l-5.5-34.598c-11.142-70.096-30.255-130.385-55.273-174.349
			C746.606,22.395,705.296,8.672,677.193,8.672H677.195L677.195,8.672z"/>
	</g>
	<g>
		
			<rect x="313.547" y="289.323" transform="matrix(-1 0.0032 -0.0032 -1 1357.1108 696.1536)" fill-rule="evenodd" clip-rule="evenodd" fill="#B2B1B1" width="728.911" height="119.661"/>
		<path fill="#666666" d="M1027.315,303.214l0.284,89.661l-698.909,2.219l-0.284-89.662L1027.315,303.214 M1057.22,273.119
			l-30,0.095l-698.908,2.219l-30,0.096l0.095,29.999l0.284,89.662l0.095,30l30-0.096l698.909-2.219l30-0.096l-0.095-29.999
			l-0.284-89.662L1057.22,273.119L1057.22,273.119z"/>
	</g>
	<path opacity="0.5" fill-rule="evenodd" clip-rule="evenodd" fill="#FFFFFF" d="M1027.439,341.959l0.16,50.916l-698.906,2.22
		l-0.163-50.916L1027.439,341.959z"/>
	<polyline fill-rule="evenodd" clip-rule="evenodd" fill="#FFFFFF" points="40.709,553.619 33.995,634.199 192.074,749.211 	"/>
</g>
</svg>
