<?xml version="1.0" encoding="utf-8"?>
<!-- Generator: Adobe Illustrator 16.0.0, SVG Export Plug-In . SVG Version: 6.00 Build 0)  -->
<!DOCTYPE svg PUBLIC "-//W3C//DTD SVG 1.1//EN" "http://www.w3.org/Graphics/SVG/1.1/DTD/svg11.dtd">
<svg version="1.1" id="Layer_13" xmlns="http://www.w3.org/2000/svg" xmlns:xlink="http://www.w3.org/1999/xlink" x="0px" y="0px"
	 width="1337px" height="1040px" viewBox="0 0 1337 1040" enable-background="new 0 0 1337 1040" xml:space="preserve">

<style>
.animation{
    animation: animation 10s infinite linear;
}

<!-- .animation2{
    animation: animation2 5s infinite linear;
} -->

@keyframes animation {
	0%,
	2%,
	4%,
	60%,
	62%,
	64%
	{
		opacity: 1;
	}

	1%,
	3%,
	61%,
	63%
	{
		opacity: 0;
	}

	0%,
	100%,
	4%,
	16%,
	36%
	{
		transform: translate(0px, 0px);
	}

	8%,
	12%
	{
		transform: translate(20px, 25px);
	}

	48%,
	52%
	{
		transform: translate(0px, -25px);
	}
}

@keyframes animation2 {
	0%, 
	4%, 
	8%, 
	12%, 
	100% 
	 	{
            transform: translate(0px, 0px);
        }

    2% {
           transform: translate(0px, -75px);
        }

    6% {
           transform: translate(0px, -50px);
        }

    10% {
           transform: translate(0px, -25px);
        }

      
}
</style>

<g>
	<path fill-rule="evenodd" clip-rule="evenodd" fill="#F49C14" d="M668.953,886.799c-115.595,0-224.386-33.283-306.331-93.72
		c-40.138-29.603-71.691-64.144-93.782-102.664c-23.032-40.16-34.71-82.866-34.71-126.931s11.678-86.771,34.71-126.931
		c22.091-38.521,53.644-73.062,93.782-102.664c81.945-60.436,190.735-93.719,306.331-93.719
		c115.595,0,224.385,33.283,306.329,93.719c40.139,29.603,71.691,64.144,93.782,102.664c23.032,40.16,34.71,82.866,34.71,126.931
		s-11.678,86.771-34.71,126.931c-22.091,38.521-53.644,73.062-93.782,102.664C893.338,853.516,784.548,886.799,668.953,886.799z"/>
	<g>
		<path fill="#9B6107" d="M668.953,250.171c234.622,0,424.821,140.274,424.821,313.313S903.575,876.799,668.953,876.799
			c-234.624,0-424.822-140.275-424.822-313.314S434.329,250.171,668.953,250.171 M668.953,230.171
			c-59.373,0-117.012,8.589-171.316,25.529c-52.717,16.444-100.14,40.044-140.95,70.142
			c-41.261,30.432-73.736,66.006-96.521,105.736c-23.911,41.694-36.035,86.073-36.035,131.906s12.124,90.212,36.035,131.906
			c22.785,39.73,55.26,75.306,96.521,105.736c40.81,30.099,88.232,53.698,140.95,70.143c54.305,16.94,111.943,25.529,171.316,25.529
			c59.372,0,117.012-8.589,171.315-25.529c52.717-16.444,100.14-40.044,140.949-70.143c41.262-30.431,73.736-66.006,96.521-105.736
			c23.911-41.694,36.035-86.073,36.035-131.906s-12.124-90.212-36.035-131.906c-22.785-39.73-55.26-75.305-96.521-105.736
			c-40.81-30.098-88.232-53.697-140.949-70.142C785.965,238.76,728.325,230.171,668.953,230.171L668.953,230.171z"/>
	</g>
</g>
<g>
	<path fill-rule="evenodd" clip-rule="evenodd" fill="#F49C14" d="M668.953,915.269c-46.359,0-91.334-9.314-133.676-27.686
		c-40.875-17.734-77.579-43.116-109.09-75.44c-64.764-66.433-100.43-154.741-100.43-248.658s35.667-182.226,100.43-248.658
		c31.512-32.324,68.215-57.706,109.09-75.44c42.342-18.371,87.317-27.686,133.676-27.686c46.358,0,91.333,9.314,133.675,27.686
		c40.875,17.734,77.578,43.116,109.09,75.44c64.764,66.433,100.431,154.741,100.431,248.658S976.481,745.71,911.718,812.143
		c-31.512,32.324-68.215,57.706-109.09,75.44C760.286,905.954,715.312,915.269,668.953,915.269z"/>
	<path fill="#CB7F0A" d="M668.953,221.7c184.018,0,333.195,153.021,333.195,341.784S852.971,905.269,668.953,905.269
		c-184.021,0-333.196-153.021-333.196-341.784S484.933,221.7,668.953,221.7 M668.953,201.7c-47.736,0-94.051,9.593-137.656,28.512
		c-42.073,18.254-79.847,44.374-112.271,77.634c-32.389,33.224-57.816,71.907-75.575,114.977
		c-18.377,44.567-27.694,91.893-27.694,140.662s9.317,96.095,27.694,140.662c17.759,43.069,43.186,81.753,75.575,114.977
		c32.424,33.26,70.197,59.38,112.271,77.634c43.605,18.919,89.92,28.512,137.656,28.512c47.735,0,94.05-9.593,137.654-28.512
		c42.074-18.254,79.847-44.374,112.271-77.634c32.39-33.224,57.817-71.907,75.576-114.977
		c18.377-44.567,27.694-91.893,27.694-140.662s-9.317-96.095-27.694-140.662c-17.759-43.069-43.187-81.753-75.576-114.977
		c-32.424-33.26-70.196-59.38-112.271-77.634C763.003,211.293,716.688,201.7,668.953,201.7L668.953,201.7z"/>
</g>
<g>
	<path fill-rule="evenodd" clip-rule="evenodd" fill="#F49C14" d="M668.953,898.688c-29.912,0-58.847-9.162-86.001-27.23
		c-25.785-17.158-48.867-41.603-68.605-72.655c-40.049-63.006-62.105-146.576-62.105-235.317c0-88.74,22.056-172.311,62.105-235.316
		c19.738-31.052,42.82-55.496,68.605-72.654c27.154-18.068,56.089-27.23,86.001-27.23s58.847,9.162,86.001,27.23
		c25.785,17.158,48.867,41.603,68.605,72.654c40.049,63.006,62.104,146.576,62.104,235.316c0,88.741-22.056,172.312-62.104,235.317
		c-19.738,31.053-42.82,55.497-68.605,72.655C727.8,889.525,698.865,898.688,668.953,898.688z"/>
	<path fill="#CB7F0A" d="M668.953,238.283c114.163,0,206.711,145.598,206.711,325.201c0,179.604-92.548,325.203-206.711,325.203
		c-114.164,0-206.712-145.599-206.712-325.203C462.241,383.881,554.789,238.283,668.953,238.283 M668.953,218.283
		c-31.918,0-62.717,9.726-91.541,28.905c-26.956,17.937-51.013,43.377-71.505,75.615c-41.055,64.589-63.666,150.064-63.666,240.681
		c0,90.617,22.61,176.093,63.666,240.682c20.492,32.238,44.55,57.68,71.505,75.616c28.824,19.181,59.623,28.905,91.541,28.905
		s62.717-9.725,91.541-28.905c26.955-17.937,51.013-43.378,71.505-75.616c41.055-64.589,63.665-150.064,63.665-240.682
		c0-90.616-22.61-176.092-63.666-240.681c-20.491-32.238-44.549-57.679-71.504-75.615
		C731.67,228.009,700.871,218.283,668.953,218.283L668.953,218.283z"/>
</g>
<g>
	<g>
		<g>
			<path fill-rule="evenodd" clip-rule="evenodd" fill="#4B9A49" d="M678.682,373.826c-6.242,0-11.809-2.706-15.674-7.62
				c-6.145-7.811-10.354-14.878-14.066-21.112c-8.37-14.054-13.422-22.536-34.406-28.618c-12.91-3.741-25.566-5.638-37.618-5.638
				c-21.512,0-41.561,6.032-59.59,17.928c-0.813,0.537-1.713,1.18-2.674,1.864c-5.608,3.99-12.588,8.957-20.462,8.957
				c-5.407,0-10.224-2.416-13.563-6.804c-9.242-12.138,0.893-44.878,0.999-45.203c3.929-11.996,12.197-22.049,25.276-30.731
				c2.598-1.725,5.465-3.32,8.206-4.782c-5.663-1.104-11.952-1.643-19.176-1.643c-9.492,0-19.379,0.939-28.102,1.769
				c-0.47,0.059-2.202,0.422-3.466,0.688c-4.625,0.972-10.96,2.303-16.339,2.303c-4.768,0-8.452-1.069-11.262-3.269
				c-3.101-2.428-4.539-6.329-3.754-10.182c1.141-5.608,5.873-8.238,12.961-11.61c4.116-1.958,9.673-4.366,16.518-7.157
				c10.514-4.288,23.904-9.376,26.531-10.082c23.964-6.439,44.958-9.569,64.184-9.569c10.807,0,21.168,1.021,30.817,3.035
				c3.025-0.226,7.144-1.493,10.817-2.624c2.159-0.665,4.392-1.352,6.543-1.885c3.436-0.851,6.873-1.373,9.904-1.834
				c11.256-1.711,11.334-2.479,11.625-5.336c2.179-21.45,6.424-49.235,20.024-73.902c12.403-22.5,34.209-38.549,53.45-52.71
				c2.284-1.681,4.548-3.347,6.771-5.004c2.15-1.604,4.358-3.27,6.617-4.974c23.37-17.634,52.456-39.58,83.033-42.542
				c0.515-0.05,1.043-0.075,1.567-0.075c9.817,0,20.543,8.397,35.863,28.077c13.295,17.077,25.276,36.81,29.811,44.5
				c3.148,5.342,5.836,10.15,7.771,13.907c2.79,5.416,5.2,10.093,2.33,15.28c-0.453,0.818-1.019,1.568-1.679,2.229
				c-9.837,9.836-28.503,13.114-50.086,16.107c-3.533,0.49-6.584,0.913-9.023,1.339c-5.05,0.883-10.17,1.728-15.122,2.545
				c-16.047,2.647-32.64,5.384-48.358,9.71c-29.843,8.211-56.134,21.832-75.474,38.734c10.938-1.148,22.225-1.727,33.772-1.727
				c61.702,0,123.816,16.586,165.171,29.062c0.394,0.114,1.141,0.291,2.109,0.528c12.949,3.166,26.312,6.433,28.003,16.18
				c0.118,0.614,0.18,1.247,0.18,1.896c0,0,0,0.264,0,0.265c-0.002,0.866-0.113,1.706-0.321,2.507
				c-2.124,8.509-11.458,8.509-16.511,8.509c-7.192,0-18.587-0.827-30.246-1.742c10.411,4.485,20.43,10.473,25.883,21.365
				c5.801,7.422,5.064,13.332,3.35,17.047c-4.39,9.515-17.331,9.515-22.203,9.515c-17.81,0-46.788-6.147-62.356-9.449
				c-3.919-0.831-7.972-1.691-8.952-1.817l-0.472-0.061c-3.233-0.416-10.803-1.391-17.81-1.391c-1.675,0-3.064,0.057-4.21,0.142
				c0.423,0.873,0.807,1.938,0.995,3.189c0.104,0.217,0.247,0.503,0.363,0.732c0.997,1.982,2.505,4.979,2.505,8.955
				c-0.002,20.427-22.042,36.59-38.134,48.393c-3.092,2.268-6.012,4.408-8.203,6.183c-1.172,0.948-2.928,2.542-4.96,4.388
				C704.852,362.819,691.652,373.826,678.682,373.826z"/>
			<path fill="#295528" d="M794.374,25.461c19.329,0,68.284,84.646,67.024,86.922c-10.22,10.219-40.111,12.281-53.76,14.667
				c-21.547,3.768-43.279,6.648-64.412,12.464c-36.932,10.162-76.591,30.844-99.465,62.657c19.779-4.193,40.013-6.009,60.417-6.009
				c54.957,0.002,111.073,13.187,162.282,28.636c2.823,0.854,23.181,4.994,23.181,9.275c-0.158,0.742-2.719,1.034-6.832,1.034
				c-15.45,0-52.782-4.132-66.815-4.132c-3.847,0-5.944,0.311-5.358,1.103c13.287,17.948,49.538,16.455,59.303,38.042
				c7.145,8.377,1.087,11.172-10.346,11.172c-22.119,0-64.356-10.459-70.041-11.186c-2.996-0.383-11.521-1.532-19.55-1.532
				c-8.463,0-16.377,1.277-16.684,6.073c-0.155,2.438,2.539,4.539,2.434,6.574c-0.036,0.704,1.104,1.514,1.157,2.256
				c0.198,2.66,2.747,5.119,2.747,8.115c-0.002,18.852-29.8,36.419-42.628,46.802c-7.064,5.719-25.662,25.431-38.347,25.431
				c-3.018,0-5.701-1.116-7.814-3.803c-19.812-25.186-18.66-43.041-53.548-53.152c-13.616-3.945-27.139-6.033-40.401-6.033
				c-22.748,0-44.729,6.142-65.098,19.581c-4.649,3.068-11.822,9.168-17.629,9.168c-2.112,0-4.043-0.807-5.606-2.86
				c-4.546-5.971,0.408-29.51,2.545-36.032c3.646-11.131,11.844-19.234,21.304-25.515c13.896-9.225,39.122-15.588,5.97-22.646
				c-7.3-1.554-14.862-2.109-22.471-2.109c-9.766,0-19.606,0.916-29.048,1.813c-2.776,0.263-12.408,2.945-18.859,2.945
				c-2.205,0-4.038-0.313-5.099-1.144c-2.914-2.281,45.374-20.608,48.688-21.499c19.698-5.292,40.771-9.226,61.589-9.226
				c10.097,0,20.134,0.925,29.925,3.069c6.548,0,14.417-3.292,20.657-4.837c13.129-3.25,27.581-1.188,29.074-15.865
				c2.438-23.997,7.064-48.741,18.833-70.086c12.723-23.081,36.797-39.129,57.441-54.526c23.651-17.642,54.067-42.618,84.636-45.579
				C793.969,25.471,794.169,25.461,794.374,25.461 M889.457,233.523c0.082,0.121,0.122,0.182,0.122,0.182
				S889.539,233.645,889.457,233.523L889.457,233.523L889.457,233.523L889.457,233.523L889.457,233.523L889.457,233.523
				L889.457,233.523c0.001,0.001,0.002,0.001,0.002,0.002c0.002,0.002,0.004,0.004,0.006,0.006c0.001,0,0.002,0.001,0.002,0.002
				c0.001,0,0.002,0.001,0.002,0.002c0.001,0,0.001,0.001,0.002,0.001c0.001,0.001,0.002,0.002,0.003,0.003
				c0,0.001,0.001,0.001,0.001,0.002c0.001,0,0.001,0,0.002,0.001v0.001c0.001,0,0.001,0.001,0.002,0.001l0,0
				c0,0.001,0,0.001,0.001,0.001l0.001,0.001c0,0.001,0.001,0.001,0.001,0.001s0,0.001,0.001,0.001
				c0.002,0.002,0.002,0.003,0.002,0.003s-0.001-0.002-0.002-0.003c-0.001,0-0.001-0.001-0.001-0.001s-0.001,0-0.001-0.001
				l-0.001-0.001c-0.001,0-0.001,0-0.001-0.001l0,0c-0.001,0-0.001-0.001-0.002-0.001v-0.001c-0.001-0.001-0.001-0.001-0.002-0.001
				c0-0.001-0.001-0.001-0.001-0.002c-0.001-0.001-0.002-0.002-0.003-0.003c-0.001,0-0.001-0.001-0.002-0.001
				c0-0.001-0.001-0.002-0.002-0.002c0-0.001-0.001-0.002-0.002-0.002c-0.003-0.003-0.005-0.005-0.006-0.006
				C889.459,233.524,889.458,233.524,889.457,233.523L889.457,233.523C889.458,233.524,889.458,233.524,889.457,233.523
				L889.457,233.523L889.457,233.523L889.457,233.523L889.457,233.523 M889.642,233.828c0,0,0,0.082,0,0.246
				C889.642,233.91,889.642,233.828,889.642,233.828 M794.374,5.461c-0.846,0-1.698,0.041-2.533,0.122
				c-33.383,3.234-63.717,26.122-88.091,44.513c-2.244,1.693-4.437,3.348-6.573,4.941c-2.205,1.645-4.451,3.298-6.718,4.966
				c-20.07,14.771-42.817,31.512-56.281,55.937c-13.602,24.669-18.366,51.833-20.779,73.603c-1.228,0.213-2.544,0.413-3.615,0.576
				c-3.245,0.493-6.923,1.052-10.804,2.013c-2.424,0.6-4.792,1.329-7.083,2.034c-2.138,0.658-5.426,1.67-7.484,2.058
				c-9.845-1.932-20.327-2.911-31.208-2.911c-20.113,0-41.957,3.241-66.778,9.911c-3.661,0.984-18.608,6.767-27.713,10.48
				c-7.019,2.862-12.751,5.348-17.038,7.387c-6.854,3.262-16.242,7.728-18.465,18.646c-1.545,7.59,1.286,15.272,7.389,20.05
				c4.64,3.632,10.339,5.396,17.427,5.396c6.418,0,13.341-1.454,18.396-2.517c0.921-0.193,2.148-0.451,2.712-0.553
				c5.533-0.525,11.527-1.09,17.511-1.415c-6.814,7.132-11.676,15.081-14.521,23.771c-1.449,4.42-3.511,13.176-4.616,21.95
				c-1.915,15.216-0.322,25.215,5.164,32.422c5.198,6.828,13.042,10.745,21.52,10.745c11.069,0,20.211-6.505,26.261-10.81
				c0.913-0.65,1.776-1.264,2.386-1.666c16.364-10.798,34.561-16.273,54.08-16.273c11.109,0,22.829,1.764,34.835,5.243
				c17.194,4.983,20.532,10.588,28.597,24.129c3.869,6.496,8.253,13.858,14.798,22.179c5.802,7.375,14.16,11.438,23.534,11.438
				c16.538,0,31.385-12.235,46.399-25.866c1.84-1.67,3.578-3.248,4.531-4.02c2.005-1.623,4.831-3.695,7.823-5.89
				c17.817-13.067,42.218-30.963,42.221-56.455c0-0.867-0.045-1.705-0.125-2.512c2.95,0.278,5.486,0.605,7.005,0.801l0.375,0.048
				c1.09,0.175,4.891,0.981,8.25,1.693c22.05,4.677,47.03,9.667,64.432,9.667c5.988,0,24.212,0,31.283-15.324
				c2.326-5.041,4.716-14.956-3.938-26.592c-0.793-1.506-1.649-2.93-2.563-4.281c2.414-0.039,4.391-0.177,6.132-0.423
				c7.903-1.117,13.06-5.181,15.996-9.838c1.986-3.106,3.139-6.8,3.139-10.761v-0.246c0-2.962-0.644-5.772-1.799-8.301
				c-1.623-3.763-4.662-7.922-10.292-11.275c-2.5-1.489-5.529-2.843-9.26-4.139c-5.244-1.822-11.012-3.232-14.458-4.075
				c-0.733-0.179-1.331-0.322-1.733-0.429c-41.799-12.604-104.45-29.309-167.153-29.445c13.075-7.115,27.791-13.02,43.586-17.366
				c15.213-4.186,30.813-6.76,47.331-9.485c4.977-0.821,10.122-1.669,15.221-2.561c2.265-0.396,5.378-0.828,8.674-1.285
				c23.401-3.246,43.752-6.911,55.782-18.941c1.322-1.322,2.452-2.823,3.357-4.458c5.457-9.861,0.856-18.792-2.188-24.702
				c-2.021-3.922-4.803-8.903-8.046-14.404c-4.633-7.858-16.882-28.029-30.534-45.566C820.471,14.713,807.795,5.461,794.374,5.461
				L794.374,5.461z"/>
		</g>
	</g>
	<g>
		<g>
			<path fill-rule="evenodd" clip-rule="evenodd" fill="#75BD73" d="M843.177,250.341c-12.415-4.821-25.605-8.894-32.541-18.262
				c-3.293-4.447,78.091,6.286,79.006,1.995c0-4.281-20.357-8.422-23.181-9.275c-57.02-17.201-120.113-31.598-180.932-28.11"/>
		</g>
		<g>
			<path fill-rule="evenodd" clip-rule="evenodd" fill="#75BD73" d="M512.434,297.458c13.896-9.226,39.122-15.589,5.97-22.647
				c-5.13-1.09-10.398-1.648-15.713-1.908c-5.119,4.924-9.254,10.748-11.562,17.792c-2.137,6.522-7.091,30.062-2.545,36.032
				c0.374,0.49,0.769,0.906,1.181,1.261c0.498-2.089,0.977-3.836,1.364-5.016C494.775,311.841,502.974,303.737,512.434,297.458z"/>
		</g>
		<g>
			<path fill-rule="evenodd" clip-rule="evenodd" fill="#75BD73" d="M466.885,242.237c16.799-1.597,34.85-3.252,51.519,0.296
				c6.848,1.459,11.175,2.888,13.657,4.318c17.124-1.947,34.449-1.83,51.068,1.81c6.548,0,14.417-3.292,20.657-4.837
				c13.129-3.251,27.581-1.189,29.074-15.865c2.438-23.997,7.064-48.742,18.833-70.086c12.723-23.081,36.797-39.127,57.441-54.526
				c23.651-17.642,54.067-42.618,84.636-45.58c12.411-1.202,38.259,35.695,54.165,61.797c5.598-1.823,10.413-4.133,13.463-7.181
				c1.273-2.301-48.738-88.723-67.628-86.894c-30.568,2.961-60.984,27.938-84.636,45.579
				c-20.645,15.397-44.719,31.446-57.441,54.526c-11.769,21.345-16.396,46.089-18.833,70.086
				c-1.493,14.677-15.944,12.615-29.074,15.865c-6.24,1.545-14.109,4.837-20.657,4.837c-29.979-6.565-62.262-1.703-91.514,6.156
				c-3.314,0.891-51.602,19.218-48.688,21.499C447.093,247.299,463.16,242.59,466.885,242.237z"/>
		</g>
	</g>
</g>
<g>
	<path fill-rule="evenodd" clip-rule="evenodd" fill="#CB7F0A" d="M559.639,708.478c-37.529,0-75.901-18.331-100.142-47.84
		c-21.648-26.352-30.055-58.628-23.671-90.884c6.875-34.744,31.027-81.769,61.529-119.802c21.5-26.807,64.794-71.777,113.198-71.777
		c53.527,0,67.417,92.58,70.905,132.384c2.16,24.685,2.758,61.652-6.664,97.593c-9.842,37.545-28.269,65.345-54.77,82.627
		C602.268,702.357,581.387,708.478,559.639,708.478z"/>
	<g>
		<path fill="#9B6107" d="M610.553,388.175c46.052,0,58.224,92.227,60.943,123.257c5.102,58.289-3.123,135.877-56.935,170.971
			c-17.014,11.095-35.993,16.075-54.923,16.075c-64.108,0-127.805-57.044-114.003-126.782
			C458.155,508.426,536.865,388.175,610.553,388.175 M610.553,368.175c-21.464,0-43.798,7.828-66.382,23.267
			c-18.668,12.763-37.044,30.343-54.617,52.255c-31.434,39.193-56.375,87.912-63.539,124.116
			c-6.975,35.246,2.171,70.466,25.754,99.174c12.789,15.567,29.429,28.553,48.12,37.55c18.947,9.12,39.608,13.941,59.749,13.941
			c23.693,0,46.463-6.682,65.848-19.322c28.646-18.682,48.489-48.446,58.981-88.469c9.785-37.327,9.182-75.526,6.952-100.999
			c-1.462-16.683-5.381-48.99-15.206-77.947c-5.887-17.351-13.212-31.321-21.77-41.523
			C639.162,371.999,622.141,368.175,610.553,368.175L610.553,368.175z"/>
	</g>
</g>
<g>
	<path fill-rule="evenodd" clip-rule="evenodd" fill="#CB7F0A" d="M798.684,711.195c-16.422-0.001-32.373-4.415-46.131-12.764
		c-54.281-32.939-54.028-110.894-51.4-142.881c2.635-32.118,13.533-106.824,57.714-106.824c36.315,0,68.389,30.25,88.9,55.626
		c23.131,28.619,42.33,64.77,48.91,92.098c6.348,26.352,0.296,52.984-17.042,74.992c-19.316,24.521-50.333,39.753-80.943,39.753
		C798.688,711.195,798.688,711.195,798.684,711.195z"/>
	<g>
		<path fill="#9B6107" d="M758.866,458.727c57.178,0,116.453,91.745,128.089,140.064c13.352,55.43-37.011,102.404-88.271,102.404
			c-14.006,0-28.086-3.51-40.943-11.313c-43.417-26.347-50.388-87.686-46.622-133.513
			C713.123,531.942,722.485,458.727,758.866,458.727 M758.866,438.727c-17.295,0-41.003,9.251-55.733,53.321
			c-7.846,23.474-10.853,49.351-11.946,62.688c-1.681,20.447-1.957,51.101,6.267,81c8.972,32.622,25.766,56.593,49.912,71.245
			c15.323,9.3,33.069,14.215,51.319,14.215c16.742,0,33.861-4.101,49.508-11.859c15.376-7.626,28.967-18.592,39.302-31.712
			c19.271-24.464,25.984-54.124,18.904-83.517c-6.9-28.658-26.863-66.357-50.855-96.041c-13.834-17.116-28.282-30.842-42.942-40.796
			C794.479,444.966,776.399,438.727,758.866,438.727L758.866,438.727z"/>
	</g>
</g>
<path class="animation" fill-rule="evenodd" clip-rule="evenodd" fill="#FACF8E" d="M581.66,607.989c72.229,0,72.242-112.106,0-112.106
	C509.409,495.883,509.422,607.989,581.66,607.989z"/>
<path class="" fill-rule="evenodd" clip-rule="evenodd" fill="#F6B145" d="M539.915,484.853c21.121,0,21.132-32.716,0-32.716
	C518.843,452.137,518.852,484.853,539.915,484.853z"/>
<path class="animation" fill-rule="evenodd" clip-rule="evenodd" fill="#FACF8E" d="M763.619,617.063c56.454,0,56.454-87.581,0-87.581
	C707.17,529.482,707.166,617.063,763.619,617.063z"/>
<path class="" fill-rule="evenodd" clip-rule="evenodd" fill="#F6B145" d="M796.194,520.873c16.551,0,16.539-25.596,0-25.596
	C779.668,495.277,779.652,520.873,796.194,520.873z"/>
<g>
	<path fill-rule="evenodd" clip-rule="evenodd" fill="#B37008" d="M614.562,642.402c-63.403,41.346-153.875-2.268-168.715-71.707
		c-0.069,0.332-0.146,0.671-0.211,1c-17.876,90.331,94.292,159.377,168.926,110.707c51.095-33.322,61.087-104.953,57.6-162
		C669.096,567.662,654.192,616.557,614.562,642.402z"/>
</g>
<g>
	<path fill-rule="evenodd" clip-rule="evenodd" fill="#B37008" d="M886.426,596.695c-14.062,50.794-80.062,82.695-128.685,53.188
		c-31.27-18.976-43.632-56.102-46.696-92.511c-3.583,45.716,3.593,106.354,46.696,132.511
		c59.913,36.359,146.214-20.517,129.214-91.092C886.789,598.102,886.611,597.402,886.426,596.695z"/>
</g>
<g>
	<g>
		<path fill-rule="evenodd" clip-rule="evenodd" fill="#CB7F0A" d="M634.181,757.108c-4.002,0-7.62-2.387-9.194-6.066
			s-0.803-7.944,1.961-10.839l49.349-51.687c1.887-1.977,4.5-3.095,7.232-3.095s5.346,1.118,7.232,3.095l49.351,51.688
			c2.765,2.895,3.536,7.159,1.962,10.839c-1.575,3.68-5.192,6.066-9.194,6.066L634.181,757.108z"/>
		<path fill="#9B6107" d="M683.529,695.422l49.351,51.688l-98.699-0.001L683.529,695.422 M683.529,675.422
			c-5.465,0-10.691,2.236-14.466,6.188l-49.349,51.687c-5.528,5.79-7.071,14.318-3.922,21.679
			c3.148,7.359,10.382,12.133,18.388,12.133l98.699,0.001c8.005,0,15.239-4.773,18.388-12.133c3.148-7.36,1.605-15.889-3.922-21.679
			l-49.352-51.688C694.221,677.658,688.994,675.422,683.529,675.422L683.529,675.422z"/>
	</g>
	<polygon fill-rule="evenodd" clip-rule="evenodd" fill="#B37008" points="683.529,713.361 727.623,747.109 732.88,747.109 
		683.529,695.422 634.181,747.108 639.437,747.108 	"/>
</g>
<g class="animation2">
	<g>
		<path fill-rule="evenodd" clip-rule="evenodd" fill="#4B9A49" d="M399.185,1022.394c-5.538,0.001-10.279-1.962-13.709-5.676
			c-3.456-3.742-5.208-8.855-5.208-15.196c0-10.235,2.926-19.56,5.755-28.576c0.938-2.992,1.85-5.897,2.623-8.737
			c-0.895-0.469-1.766-0.962-2.613-1.482c-0.099,0.317-0.214,0.629-0.344,0.936c-4.006,9.405-11.399,10.422-14.392,10.422
			c-2.513,0-5.08-0.629-7.657-1.874c0.219,2.781,0.374,5.766,0.375,8.64c0.001,4.799-0.42,8.607-1.288,11.646
			c-2.917,10.215-10.685,11.013-12.996,11.014c-0.002,0-0.004,0-0.006,0c-2.8,0-5.578-0.904-8.258-2.688
			c-9.914-6.594-7.958-19.971-6.231-31.773c0.287-1.963,0.653-4.465,0.922-6.895c-5.65,1.169-11.354,1.759-17.058,1.759
			c-32.086,0.001-61.664-18.813-77.878-47.771c-16.63,27.586-43.831,47.742-74.927,54.533c-2.348,0.513-6.378,0.699-16.459,1.063
			c-4.285,0.155-10.49,0.38-14.879,0.668c0.028,3.689,0.799,8.995,1.281,12.313c1.685,11.601,3.594,24.748-6.32,31.358
			c-2.674,1.783-5.449,2.688-8.248,2.688c-0.002,0-0.004,0-0.006,0c-4.658,0.001-8.744-2.448-11.211-6.72
			c-1.895-3.278-3.909-9.034-2.685-24.572c-2.35,2.149-5.305,3.428-8.584,3.698c-0.089,5.7-1.333,10.986-4.443,15.37
			c-2.829,3.99-8.388,8.813-18.804,9.132c-0.481,0.015-0.956,0.022-1.419,0.022c-12.443,0-19.196-5.329-22.669-9.801
			c-10.618-13.665-4.935-35.941-0.369-53.841c1.226-4.804,2.592-10.162,2.938-13.115c-1.767-4.729-7.341-11.308-12.306-17.165
			c-6.679-7.882-13.586-16.031-17.044-25.042c-11.552-30.112-11.554-66.113-0.004-96.303c9.285-24.272,25.051-44.071,45.594-57.258
			c18.81-12.074,41.143-18.456,64.584-18.456c48.887,0,101.485,28.99,118.24,84.694c16.99-17.323,41.519-28.043,66.567-28.043
			c1.908,0,3.83,0.065,5.712,0.194c17.643,0.956,19.286,24.309,20.17,36.867c0.152,2.166,0.296,4.212,0.457,5.253
			c0.723,4.68,1.218,11.528-2.808,16.969c-4.17,5.637-10.53,6.555-15.64,7.293c-2.229,0.321-4.533,0.654-6.871,1.314
			c-11.056,3.12-16.154,13.563-16.213,21.945c-0.03,4.237,1.256,14.496,13.807,18.229c3.09,0.938,5.866,1.405,8.306,1.405
			c6.156,0,9.603-2.79,14.718-7.343c4.288-3.816,9.623-8.566,17.276-8.566c3.649,0,7.048,1.117,10.221,2.962
			c0.199-4.406,0.059-8.58-0.97-10.344c-0.257,0.014-0.514,0.02-0.768,0.02c-5.282,0.001-14.581-2.635-17.514-20.287
			c-1.066-6.414-1.247-14.345-0.496-21.758c0.865-8.541,2.663-16.786,9.893-19.258c6.489-2.219,7.254-4.381,7.543-5.195
			c0.972-2.748,0.554-7.658,0.07-13.344c-0.351-4.127-0.75-8.805-0.75-13.993c0-17.435,10.969-27.843,29.341-27.843
			c15.666,0,33.298,7.264,39.092,9.65c0.233,0.097,0.432,0.179,0.595,0.245c4.042,1.283,6.971,5.066,6.971,9.533
			c0,5.862-0.643,11.626-1.21,16.711c-0.668,5.988-1.678,15.039,0.051,16.972c0.484,0.54,2.593,1.456,7.431,1.456
			c0.674,0,1.373-0.018,2.105-0.053c1.002-0.04,1.901-0.059,2.766-0.059c10.235,0,17.573,2.623,22.435,8.018
			c4.076,4.522,5.599,9.953,5.938,15.908c18.413-20.729,45.623-33.32,72.924-33.32c20.208,0,38.068,6.738,52.124,19.191
			c-1.857-15.914-3.887-30.746-6.122-44.776c-1.434-8.998-2.049-18.259,3.116-25.035c5.251-6.891,13.246-7.776,22.503-8.802
			c3.328-0.368,7.099-0.786,11.258-1.506c1.836-0.321,3.585-0.641,5.234-0.942c6.406-1.171,11.466-2.096,15.991-2.096
			c20.842,0,21.142,20.24,21.285,29.968l0.009,1.765c0.096,23.596,0.817,37.288,1.564,45.187c5.005-4.308,9.756-8.314,14.686-9.997
			c7.435-2.536,15.622-3.822,24.338-3.822c6.923,0,13.799,0.814,20.437,2.422c19.177,4.644,35.446,17.207,46.109,34.969
			c15.466-23.143,41.794-37.226,71.859-37.226c22.653,0,42.898,8.176,57.748,22.325c0.309-0.563,0.655-1.12,1.043-1.672
			c4.888-6.95,13.892-9.433,30.971-12.036c1.879-0.377,4.168-0.943,6.586-1.542c6.589-1.63,14.057-3.477,20.633-3.477
			c4.933,0,10.885,2.893,12.797,11.012c0.445,1.891,0.634,3.897,0.726,5.851c1.964-1.038,4.019-2.237,5.888-3.328
			c8.301-4.844,17.71-10.335,28.471-10.335c5.501,0,10.211,2.057,13.621,5.946c7.692,8.776,5.768,23.341,4.069,36.189
			c-0.469,3.543-0.953,7.205-0.902,8.904c0.295,9.163-1.853,16.03-6.564,20.967c-7.047,7.381-17.181,7.523-25.322,7.639
			c-12.922,0.183-13.826,0.81-13.826,9.581c0,5.876-0.137,12.012-0.27,17.945c-0.47,21.059-0.955,42.834,4.163,60.985
			c3.168,11.236,2.671,28.491-5.907,39.824c-5.278,6.974-12.756,10.66-21.622,10.661c-0.005,0-0.01,0-0.015,0
			c-0.317,0-0.634-0.005-0.957-0.015c-10.689-0.327-16.284-5.204-19.097-9.237c-3.632-5.21-4.537-11.555-4.041-18.138
			c-3.454-0.354-6.602-2.184-8.967-5.242c-3.18-4.112-4.725-10.267-4.489-17.162c-2.821-1.405-5.338-3.35-7.48-5.801
			c-0.902-1.032-1.723-2.137-2.467-3.305c-1.834,4.339-3.668,14.811-4.509,19.608c-0.711,4.063-1.326,7.572-2.028,10.405
			c-1.914,7.713-5.843,11.626-11.677,11.633c-0.004,0-0.008,0-0.012,0c-2.08,0-4.107-0.613-5.864-1.774
			c-8.489-5.608-8.192-16.457-6.483-26.792c-8.375,2.061-17.152,3.124-26.003,3.125c-19.294,0-38.464-5.113-53.977-14.4
			c-10.922-6.538-19.906-14.965-26.616-24.87c-13.354,19.727-34.676,32.435-59.179,34.409c-0.917,0.074-1.874,0.112-2.836,0.112
			c-3.123,0-5.953-0.398-8.227-0.719c-1.28-0.18-2.5-0.352-3.4-0.397c-0.948,2.777,0.315,11.368,0.938,15.6
			c1.702,11.572,3.631,24.689-6.313,31.346c-2.023,1.354-4.324,2.07-6.655,2.071c-11.906,0.003-13.666-14.983-14.329-20.625
			c-0.718-6.11-1.045-14.071-0.93-22.054c-3.009,5.754-5.51,9.614-7.943,12.083c1.351,7.004,0.215,15.048-8.379,22.155
			c-4.934,4.08-10.531,6.236-16.187,6.236c-6.985,0-13.892-3.307-19.447-9.312c-7.29-7.879-11.674-19.75-10.911-29.539
			c0.251-3.222,0.172-4.94,0.085-5.751c-3.836-3.739-6.185-8.264-6.123-18.571c0.02-3.326-0.005-6.658-0.067-9.999
			c-6.448,7.797-14.267,14.373-23.126,19.313c0.58,2.465,1.426,5.384,2.083,7.651c3.47,11.971,7.788,26.868-2.453,35.356
			c-5.25,4.354-10.099,6.472-14.821,6.472c-4.359,0-8.359-1.84-11.263-5.181c-5.15-5.924-6.743-16.145-5.055-34.142
			c-4.466,0.607-8.984,0.913-13.523,0.913c-27.49,0-52.202-11.057-68.55-29.559c-2.45,6.429-5.92,11.692-10.477,15.991
			c-8.569,8.084-20.619,12.311-37.615,13.123c2.604,8.817,4.356,18.863,0.625,29.159
			C428.445,1011.235,411.91,1022.393,399.185,1022.394z M862.425,908.754c2.166,0.311,4.195,0.44,5.861,0.44
			c2.159,0,4.194-0.251,6.138-0.678C870.521,908.634,866.515,908.708,862.425,908.754z M440.521,876.389
			c0.036,2.051-0.041,4.228-0.123,6.53c-0.241,6.798-0.604,17.07,3.217,18.638c0.469,0.192,1.179,0.293,2.055,0.293
			c2.584,0,6.063-0.852,9.428-1.675c1.713-0.42,3.451-0.845,5.206-1.2c-1.738-10.238-1.782-20.356-0.17-30.118
			c-0.957-0.047-1.937-0.108-2.941-0.171c-2.193-0.137-4.46-0.277-6.626-0.277C441.392,868.408,440.53,870.479,440.521,876.389z
			 M548.069,861.216c-8.163,0-17.694,5.196-17.694,19.841c0,14.802,9.519,20.056,17.669,20.058c0.001,0,0.002,0,0.003,0
			c4.623,0,8.89-1.666,12.016-4.692c3.648-3.53,5.576-8.844,5.576-15.365C565.64,866.412,556.175,861.216,548.069,861.216z
			 M706.261,859.731c-5.406,0-10.462,2.113-13.87,5.798c-3.569,3.86-5.186,9.368-4.673,15.93
			c1.183,13.677,10.219,18.581,18.278,18.582c0.001,0,0.003,0,0.003,0c5.365,0,10.392-2.114,13.792-5.802
			c3.603-3.907,5.221-9.479,4.681-16.112C723.385,864.561,714.352,859.731,706.261,859.731z M98.96,865.272
			c0.803,2.459,1.787,4.87,2.954,7.211c7.297,14.635,19.805,23.029,34.317,23.029c4.066,0,8.331-0.651,12.675-1.937
			c20.347-6.019,29.102-25.204,30.509-41.152c0.649-7.356-0.104-14.439-2.07-20.868c-0.073,7.739-1.684,15.132-6.104,20.96
			c-3.47,4.575-10.17,10.029-22.385,10.029c-0.459,0-0.924-0.008-1.399-0.022c-10.204-0.332-15.703-5.083-18.52-9.009
			c-3.157-4.403-4.428-9.781-4.534-15.612c-3.34-0.306-6.374-1.686-8.758-3.98c0.236,2.892,0.407,6.022,0.408,9.029
			c0.001,4.792-0.422,8.598-1.292,11.634c-2.924,10.194-10.688,10.989-12.999,10.99c-0.002,0-0.004,0-0.006,0
			C100.821,865.574,99.889,865.474,98.96,865.272z M841.84,859.49c0.807,0.087,1.83,0.149,3.108,0.149
			c6.436,0,14.491-1.521,20.428-2.931c-2.629-4.382-7.463-7.274-11.813-7.274c-3.061,0-5.615,1.364-7.809,4.171
			C843.731,856.21,842.54,858.141,841.84,859.49z"/>
	</g>
	<g>
		<path fill="#295528" d="M135.243,734.717c52.75,0,105.97,35.355,112.908,98.656c13.447-25.506,43.153-42.004,71.9-42.004
			c1.71,0,3.412,0.058,5.112,0.176c11.015,0.533,10.184,26.164,11.344,33.666c2.289,14.822-6.175,11.043-18.153,14.424
			c-28.156,7.946-33.401,50.205-2.54,59.383c4.212,1.279,7.899,1.82,11.156,1.82c17.679,0,22.81-15.908,31.994-15.908
			c4.464,0,9.882,3.755,18.167,14.924c0.383-11.149,8.35-42.319-9.104-42.319c-0.197,0.022-0.39,0.032-0.58,0.032
			c-11.609,0-9.229-40.354-4.882-41.84c21.042-7.196,13.63-20.749,13.63-41.995c0-13.715,8.755-17.843,19.341-17.843
			c16.003,0,36.192,9.433,36.65,9.433c0.005,0,0.008-0.001,0.008-0.004c0,22.66-10.778,45.139,16.271,45.139
			c0.825,0,1.681-0.021,2.578-0.063c0.792-0.031,1.558-0.048,2.293-0.048c26.906,0,16.456,21.036,16.456,45.319
			c0,2.648-2.586,3.283-6.428,3.283c-3.542,0-8.153-0.539-12.795-0.539c-9.953,0-20.045,2.479-20.045,18.073
			c0.202,10.32-3.144,29.225,9.301,34.327c1.823,0.748,3.795,1.041,5.849,1.041c7.35,0,15.757-3.748,22.242-3.748
			c1.898,0,3.63,0.321,5.124,1.151c-19.157-61.614,32.5-108.302,81.596-108.302c26.704,0,52.651,13.812,66.034,46.546
			c-2.554-27.99-5.734-55.944-10.156-83.705c-3.968-24.897,5.548-19.909,28.707-23.916c8.532-1.491,14.88-2.892,19.521-2.892
			c8.167,0,11.053,4.331,11.286,20.115c0.052,8.57-0.038,62.892,5.748,62.892c0.02,0,0.038-0.001,0.057-0.002
			c5.41-0.638,16.92-14.311,23.684-16.619c6.6-2.252,13.861-3.286,21.107-3.286c6.178,0,12.344,0.751,18.084,2.141
			c24.115,5.84,41.029,25.708,47.994,48.865c11.104-33.623,41.889-50.841,72.327-50.841c30.158,0,59.975,16.896,69.987,51.479
			c-2.701-33.939-15.718-37.357,21.503-43.01c7.106-1.399,17.806-4.871,25.49-4.871c6.571,0,0.911,19.537,6.398,19.537
			c11.624,0,26.362-16.338,41.482-16.338c15.695,0,6.491,31.111,6.792,41.334c1.172,36.392-45.717-0.174-45.717,37.893
			c0,26.474-2.793,56.599,4.269,81.645c3.651,12.951,0.903,37.771-17.905,37.771c-0.221,0-0.441-0.003-0.666-0.01
			c-25.024-0.766-8.339-34.866-5.43-46.872c-1.106,0.004-2.213,0.005-3.32,0.005c-3.454,0-6.908-0.018-10.36-0.056
			c1.941,13.924-0.454,19.606-3.091,19.606c-3.138,0-6.618-8.037-3.552-19.803c-27.265-1.048-14.911-54.242-14.911-74.207
			c-8.193,18.071-79.77,13.538-95.515,14.715c3.208,14.968,20.563,20.126,33.807,20.126c17.09,0,27.226-11.391,36.39-11.391
			c4.779,0,9.293,3.095,14.395,12.521c7.11,13.139,11.295,18.196-1.219,27.724c-7.457,5.68-8.814,40.389-12.264,40.389
			c-0.115,0-0.231-0.038-0.352-0.117c-7.136-4.714,0.916-26.89,0.597-33.253c-11.946,5.305-25.264,7.928-38.598,7.928
			c-34.418,0-68.974-17.472-80.538-51.427c-9.359,26.363-32.086,44.347-60.035,46.599c-0.688,0.056-1.366,0.08-2.033,0.08
			c-4.541,0-8.585-1.128-12.055-1.128c-3.142,0-5.812,0.924-7.957,4.445c-6.598,10.737,6.416,38.197-2.554,44.202
			c-0.385,0.258-0.75,0.381-1.095,0.381c-7.062,0-5.924-51.466-2.996-52.162c-3.677-2.91-7.659-5.225-11.949-6.944
			c-0.023-0.029-0.054-0.044-0.092-0.044c-0.005,0-0.011,0-0.016,0.001c0.035,0.015,0.071,0.028,0.107,0.043
			c1.061,1.32-13.057,32.269-16.672,32.269c-1.438,0-1.213-4.903,2.296-18.533c-29.852,3.329,10.069,23.76-8.63,39.225
			c-3.344,2.766-6.666,3.942-9.814,3.942c-11.854,0-21.276-16.673-20.388-28.073c1.522-19.535-6.113-7.525-6.007-25.039
			c0.099-16.574-0.89-33.167-1.961-49.695c-4.706,23.147-20.028,43.41-41.779,53.047c-1.487,9.943,12.325,34.141,3.796,41.21
			c-3.524,2.923-6.289,4.171-8.44,4.171c-11.817,0-5.155-37.641-4.705-41.986c-8.208,2.396-16.701,3.577-25.136,3.577
			c-31.436,0-62.055-16.409-74.022-47.52c-0.552,34.848-14.78,47.221-48.942,47.221c-2.387,0-4.867-0.061-7.451-0.178
			c3.469,11.298,9.369,23.719,4.997,35.784c-2.537,6.996-15.135,15.934-23.982,15.934c-5.076,0-8.916-2.939-8.916-10.873
			c0-14.824,7.693-28.917,9.939-43.404c-13.482-3.942-22.313-13.792-23.522-27.949c-9.734,7.571-0.196,19.843-0.196,29.575
			c-1.232,2.894-2.963,4.34-5.192,4.34c-1.389,0-2.972-0.562-4.75-1.686c-8.08-7.837-0.399-15.953,0-24.554
			c-15.867,10.998-14.662,2.479-14.662,21.062c0-0.009,0.001-0.013,0.002-0.013c0.127,0,5.917,34.616-2.16,34.616
			c-0.773,0-1.673-0.317-2.719-1.013c-8.616-5.73,3.468-33.026-1.964-43.236c-8.748,3.175-17.472,4.652-25.943,4.652
			c-35.745,0-67.047-26.282-77.248-62.177c-12.441,34.245-41.954,61.365-77.691,69.17c-4.214,0.92-36.099,0.931-37.263,2.676
			c-6.507,10.664,6.363,38.249-2.528,44.177c-1.039,0.692-1.936,1.01-2.705,1.01c-8.049,0-2.279-34.57-2.15-34.57
			c0.001,0,0.002,0.004,0.002,0.013c0-17.491-4.262-11.63-18.305-16.19c0.846,3.43,5.854,23.208-3.357,23.208
			c-1.048,0-2.28-0.256-3.723-0.821c-4.804-3.486-5.233-8.075-1.285-13.768c5.844-11.44,1.251-17.807-13.779-19.102
			c1.31,13.094,24.178,57.296-3.438,58.143c-0.377,0.012-0.75,0.018-1.113,0.018c-35.114,0-10.015-52.962-10.015-67.951
			c-3.34-13.639-24.19-29.204-30.097-44.596c-10.705-27.903-10.675-61.242,0-89.146C52.534,756.611,93.745,734.717,135.243,734.717
			 M125.835,827.966c-10.968,0-3.054-29.482-3.266-34.156c-16.246,5.335-18.65,10.276-18.65,27.212c0-0.008,0-0.012,0.002-0.012
			c0.121,0,5.934,34.564-2.163,34.564c-0.773,0-1.672-0.314-2.717-1.005c-8.246-5.45,2.885-32.293-1.322-41.864
			c-26.393,35.025-4.739,92.807,38.511,92.807c4.906,0,10.088-0.742,15.511-2.347c46.134-13.646,51.385-85.362,8.914-106.601
			c3.734,14.067,17.94,55.98-11.799,55.98c-0.353,0-0.709-0.006-1.074-0.018c-27.739-0.902-3.995-47.054-3.265-60.733
			c-0.99-0.114-4.208-0.565-7.092-0.565c-2.086,0-3.998,0.236-4.769,1.007c-9.501,9.108,6.327,31.159-3.394,34.979
			C127.955,827.729,126.819,827.966,125.835,827.966 M844.947,869.64c13.682,0,32.395-5.661,32.395-6.001
			c0-13.559-11.879-24.204-23.779-24.204c-5.646,0-11.297,2.396-15.688,8.013C824.262,864.977,832.533,869.64,844.947,869.64
			 M705.995,910.041c15.075,0,30.179-11.417,28.443-32.726c-1.498-18.698-14.814-27.584-28.178-27.584
			c-15.056,0-30.171,11.278-28.513,32.507C679.38,901.123,692.677,910.041,705.995,910.041 M548.042,911.113
			c13.806,0,27.597-9.999,27.597-30.057c0-19.922-13.776-29.84-27.57-29.84c-13.838,0-27.694,9.975-27.694,29.84
			C520.375,901.075,534.216,911.113,548.042,911.113 M432.192,765.317h0.005 M135.243,714.717c-25.361,0-49.562,6.93-69.986,20.04
			c-22.352,14.348-39.479,35.821-49.532,62.102C3.318,829.287,3.32,867.963,15.731,900.314
			c4.067,10.599,11.869,19.805,18.752,27.926c2.921,3.447,7.418,8.753,9.533,12.176c-0.559,2.633-1.485,6.264-2.226,9.168
			c-4.836,18.955-11.459,44.916,2.161,62.446c4.843,6.235,14.078,13.667,30.565,13.667c0.563,0,1.139-0.009,1.721-0.027
			c12.679-0.389,20.326-6.015,24.503-10.651c4.721,10.052,13.871,13.748,20.925,13.748c4.809,0,9.452-1.47,13.8-4.368
			c5.377-3.585,11.85-10.77,12.147-24.635c0.118-5.49-0.693-11.078-1.478-16.48c-0.063-0.434-0.131-0.901-0.202-1.393
			c1.567-0.061,3.037-0.114,4.267-0.158c11.172-0.405,15.05-0.594,18.227-1.287c28.789-6.287,54.494-23.093,72.627-46.43
			c18.841,24.574,47.401,39.896,78.047,39.896c1.797,0,3.593-0.053,5.388-0.156c-0.433,3.492-0.738,7.015-0.682,10.493
			c0.229,14.067,6.72,21.306,12.125,24.9c4.346,2.892,8.988,4.359,13.794,4.359c6.868,0,15.725-3.503,20.549-12.964
			c-0.005,0.324-0.007,0.65-0.007,0.977c0,18.178,11.89,30.873,28.916,30.873c16.866,0,37.258-13.878,42.784-29.115
			c3.023-8.344,3.222-16.373,2.19-23.719c11.031-1.754,22.789-5.764,32.262-14.701c2.299-2.168,4.307-4.473,6.063-6.873
			c3.543,2.96,7.337,5.681,11.363,8.141c16.091,9.83,35.019,15.026,54.739,15.026c0.958,0,1.917-0.013,2.873-0.037
			c-0.154,12.644,1.973,22.712,8.157,29.827c4.833,5.558,11.513,8.619,18.811,8.619c7.148,0,14.085-2.871,21.206-8.775
			c5.349-4.434,11.387-12.873,9.757-27.885c-0.67-6.175-2.484-12.432-4.084-17.951c-0.027-0.096-0.055-0.191-0.083-0.289
			c0.943-0.64,1.874-1.298,2.791-1.973c0.983,4.004,2.597,7.395,4.944,10.455c-0.02,0.351-0.046,0.74-0.08,1.171
			c-0.981,12.588,4.333,27.153,13.539,37.104c7.47,8.075,16.983,12.522,26.788,12.522c8.01,0,15.811-2.949,22.559-8.528
			c1.582-1.309,3.02-2.697,4.31-4.16c5.714,13.782,17.346,14.893,20.897,14.893c4.32,0,8.548-1.301,12.223-3.763
			c5.373-3.597,11.842-10.79,12.139-24.626c0.118-5.502-0.703-11.085-1.497-16.484c-0.132-0.897-0.286-1.944-0.438-3.043
			c0.405,0.01,0.817,0.016,1.234,0.016c1.23,0,2.458-0.049,3.649-0.146c22.991-1.853,43.49-12.086,58.379-28.287
			c6.118,6.646,13.312,12.479,21.467,17.36c17.288,10.35,37.729,15.82,59.111,15.82c5.068,0,10.119-0.32,15.099-0.951
			c0.631,12.781,6.649,19.51,11.879,22.964c3.387,2.241,7.324,3.43,11.375,3.43c8.167,0,15.503-4.828,19.144-12.602
			c0.88-1.878,1.595-3.982,2.249-6.622c0.302-1.213,0.586-2.525,0.862-3.91c0.734,1.376,1.565,2.668,2.491,3.866
			c1.96,2.536,4.314,4.604,6.924,6.131c0.479,5.901,2.176,11.663,5.796,16.856c3.375,4.842,11.37,13.036,26.993,13.514
			c0.43,0.014,0.854,0.02,1.277,0.02c11.945,0,22.456-5.193,29.595-14.623c10.699-14.133,11.506-34.58,7.56-48.576
			c-4.711-16.711-4.242-37.726-3.789-58.048c0.13-5.819,0.264-11.83,0.271-17.659c1.341-0.055,2.794-0.075,3.967-0.092
			c8.948-0.126,22.471-0.317,32.414-10.732c6.551-6.861,9.688-16.322,9.328-28.12c0.008-1.205,0.477-4.751,0.819-7.345
			c1.879-14.216,4.218-31.907-6.463-44.092c-5.288-6.033-12.796-9.355-21.141-9.355c-10.83,0-20.141,4.197-28.017,8.551
			c-4.063-7.313-11.311-11.75-19.864-11.75c-7.795,0-15.891,2.003-23.034,3.77c-2.209,0.547-4.305,1.064-5.938,1.401
			c-13.031,1.989-23.51,4.062-31.108,9.687c-0.999-0.748-2.015-1.477-3.049-2.185c-15.537-10.646-34.159-16.271-53.852-16.271
			c-19.632,0-38.454,5.574-54.432,16.12c-6.302,4.159-11.989,8.997-16.999,14.43c-11.562-13.948-26.808-23.805-44.184-28.013
			c-7.408-1.793-15.075-2.702-22.791-2.702c-9.816,0-19.092,1.466-27.566,4.357c-0.865,0.296-1.714,0.633-2.548,1.007
			c-0.249-6.947-0.429-15.718-0.474-26.778l-0.008-1.69c-0.001-0.059-0.001-0.117-0.002-0.176
			c-0.178-11.997-1.731-19.447-5.363-25.712c-3.055-5.269-10.484-14.107-25.921-14.107c-5.431,0-11.158,1.047-17.789,2.259
			c-1.626,0.297-3.35,0.612-5.176,0.932c-3.824,0.661-7.278,1.044-10.62,1.415c-10.082,1.116-21.509,2.383-29.356,12.679
			c-7.466,9.796-6.736,22.013-5.037,32.671c1.177,7.394,2.297,15.013,3.365,22.901c-12.032-5.841-25.491-8.89-39.493-8.89
			c-24.544,0-49.007,9.203-68.202,24.964c-0.924-1.455-1.994-2.873-3.232-4.247c-6.771-7.514-16.818-11.323-29.864-11.323
			c-1.001,0-2.042,0.021-3.096,0.063c-0.013,0.001-0.025,0.002-0.038,0.002c0.175-2.385,0.479-5.12,0.72-7.273
			c0.585-5.242,1.247-11.171,1.271-17.454c0.002-0.121,0.003-0.243,0.003-0.365c0-8.789-5.668-16.255-13.549-18.938
			c-0.066-0.027-0.137-0.057-0.21-0.087c-16.995-7.001-31.028-10.404-42.901-10.404c-23.898,0-39.341,14.854-39.341,37.843
			c0,5.613,0.417,10.517,0.786,14.842c0.211,2.482,0.48,5.64,0.487,7.713c-0.373,0.155-0.828,0.329-1.375,0.517
			c-0.979,0.335-1.9,0.723-2.765,1.155c-0.127-0.527-0.261-1.052-0.402-1.574c-5.72-21.18-20.222-24.423-26.509-24.8
			c-2.1-0.143-4.241-0.215-6.365-0.215c-22.472,0-44.585,7.818-62.204,21.024c-1.615-3.707-3.404-7.327-5.365-10.856
			c-7.854-14.134-18.301-26.514-31.048-36.797C197.433,725.379,166.823,714.717,135.243,714.717L135.243,714.717z M326.97,880.838
			c-1.434,0-3.282-0.331-5.343-0.957c-0.038-0.012-0.075-0.022-0.112-0.033c-5.942-1.768-6.68-5.51-6.658-8.574
			c0.033-4.763,2.842-10.672,8.93-12.391c1.704-0.48,3.589-0.753,5.584-1.041c3.2-0.463,7.582-1.096,11.984-3.056
			c1.493,5.367,3.604,9.478,6.004,12.624c-5.278,2.348-9.276,5.906-12.319,8.615C330.44,880.118,329.234,880.838,326.97,880.838
			L326.97,880.838z M113.367,872.313c3.677-2.197,7.057-5.613,9.367-10.56c5.865,6.644,14.412,10.438,24.398,10.763
			c0.588,0.02,1.16,0.028,1.725,0.028c5.763,0,10.638-0.949,14.746-2.457c-3.766,6.267-9.46,11.511-17.533,13.898
			c-3.423,1.013-6.733,1.525-9.838,1.525C124.521,885.512,117.248,878.082,113.367,872.313L113.367,872.313z M697.681,880.596
			c-0.277-3.72,0.413-6.504,2.052-8.276c1.498-1.62,3.939-2.587,6.528-2.587c7.506,0,8.06,6.91,8.241,9.181
			c0.314,3.854-0.38,6.721-2.062,8.545c-1.491,1.617-3.9,2.583-6.445,2.583C701.04,890.041,698.243,886.863,697.681,880.596
			L697.681,880.596z M548.042,891.113c-3.498,0-7.667-1.744-7.667-10.057c0-8.133,4.184-9.84,7.694-9.84
			c3.454,0,7.57,1.707,7.57,9.84C555.64,889.369,551.508,891.113,548.042,891.113L548.042,891.113z"/>
	</g>
</g>
<g class="animation2">
	<path fill-rule="evenodd" clip-rule="evenodd" fill="#FF3AFF" d="M1138.561,1020.097c-2.8,0-5.575-0.904-8.252-2.688
		c-13.917-9.282-9.607-24.73-7.033-33.961c0.874-3.131,2.499-8.959,1.871-10.497c0,0.001,0,0.001,0,0.001
		c-0.026,0-1.474-1.396-7.428-2.12l-0.784-0.095c-36.829-4.395-45.636-11.206-49.394-17.29c-2.409-3.898-2.887-8.406-1.346-12.69
		c0.013-0.033,0.024-0.067,0.037-0.101c0.463-1.244,1.239-4.285,1.99-7.227c4.173-16.347,9.367-36.692,24.311-36.692
		c1.726,0,3.444,0.311,5.11,0.921l0.351,0.129c8.938,3.276,23.896,8.759,36.091,8.759c9.844,0,12.85-3.473,14.369-6.497
		c0.941-1.874,1.307-3.084,1.447-3.759c-3.021-1.678-12.239-2.779-17.919-3.459c-15.315-1.831-34.376-4.109-43.474-18.062
		c-5.525-8.472-6.229-19.64-2.095-33.193c0.03-0.1,0.062-0.198,0.095-0.297c1.351-3.978,4.521-8.546,11.858-10.409
		c-0.964-2.418-1.661-5.141-1.866-8.145c-1.523,0.201-2.905,0.312-4.233,0.312c-9.215,0-13.015-5.829-14.459-9.304
		c-1.497-3.601-1.96-7.859-2.66-14.305c-0.304-2.792-0.647-5.955-1.135-9.661c-1.091-7.56,0.83-14.447,5.559-19.923
		c11.253-13.031,36.016-14.702,56.33-14.702c1.51,0,2.925,0.008,4.219,0.015c1.055,0.006,2.027,0.012,2.901,0.012
		c31.692,0,64.281,19.932,76.568,45.296c2.647-9.249,8.719-19.125,17.354-27.881c12.41-12.585,27.395-20.099,40.081-20.099
		c2.329,0,4.612,0.243,6.788,0.723c17.374,3.824,26.633,6.827,32.264,13.547c6.195,7.395,5.72,16.376,5.061,28.807
		c-0.232,4.403-0.497,9.394-0.577,15.309c-0.399,29.682-0.215,59.916-0.037,89.155c0.1,16.358,0.202,33.274,0.202,49.925
		c0,4.665-2.052,13.104-15.796,17.208c-7.283,2.175-16.079,2.632-22.175,2.632c-4.888,0-29.663-0.406-37.439-8.415
		c-1.138-1.171-2.007-2.508-2.581-3.941c-5.744-9.849-4.014-28.788-0.558-57.728c0.572-4.79,1.126-9.43,1.498-13.279
		c-1.498,0.67-3.122,1.021-4.795,1.022c-0.002,0-0.004,0-0.006,0c-2.44,0-4.884-0.768-7.066-2.22
		c-2.418-1.609-4.017-4.19-4.381-7.072c-0.027-0.217-0.047-0.435-0.061-0.651c-0.195-1.558-1.169-7.993-2.111-14.227
		c-1.489-9.854-2.758-18.335-3.796-25.464c-2.938,7.131-7.844,13.813-14.596,19.809c14.88,10.722,24.106,27.939,24.106,46.757
		c0,14.462-4.015,23.895-7.241,31.474c-3.742,8.79-6.214,14.598-2.62,27.285c3.453,12.182-0.278,30.745-8.317,41.379
		c-6.365,8.42-13.687,10.188-18.707,10.188c-5.825,0-11.623-2.357-17.233-7.006c-3.276-2.716-5.363-5.971-6.574-9.545
		c-0.682,0.492-1.424,0.897-2.207,1.204c-2.666,1.045-5.132,1.553-7.538,1.553h-0.001c-2.822,0-5.451-0.724-7.708-2.089
		c-0.073,4.16-0.492,7.53-1.274,10.271C1148.634,1019.304,1140.87,1020.097,1138.561,1020.097z M1125.09,831.848
		c2.225,0.229,4.365,0.386,6.274,0.386c3.369,0,4.612-0.491,4.891-0.627c0.017-0.016,0.033-0.032,0.049-0.048
		c2.6-2.557,3.225-4.202,3.238-4.577c-0.585-1.938-6.185-5.021-12.706-6.688C1126.728,824.144,1126.264,828.28,1125.09,831.848z"/>
	<path fill="#870087" d="M1277.025,762.485c1.587,0,3.137,0.158,4.638,0.488c36.927,8.129,29.397,10.753,28.898,47.762
		c-0.624,46.398,0.164,92.813,0.164,139.215c0,7.218-13.763,9.84-27.971,9.84c-15.214,0-30.938-3.005-30.833-6.593
		c-7.662-9.398,2.215-59.066,2.215-73.912c0.171-14.782,0-29.578,0-44.363c0-3.325-2.01-8.428-5.598-8.428
		c-1.664-0.001-3.667,1.096-5.968,3.977c-0.218,3.614,3.603,46.979-3.696,46.979c-0.463,0-0.971-0.174-1.527-0.545h0.001
		c0.246,0-9.142-58.762-9.245-66.265C1227.83,791.047,1255.666,762.487,1277.025,762.485 M1135.903,765.143
		c2.744,0,5.171,0.026,7.119,0.026c50.154,0,106.151,58.8,44.73,93.792c19.704,6.57,33.217,24.313,33.217,45.42
		c0,28.471-17.565,32.953-9.482,61.484c3.431,12.104-3.266,38.841-17.403,38.841c-3.238,0-6.867-1.403-10.854-4.706
		c-11.301-9.366,2.595-35.205,4.916-46.016c-13.35,6.268-28.685,0.061-23.054,20.158c4.86,6.55,4.638,11.854-0.672,15.906
		c-1.513,0.593-2.8,0.863-3.89,0.863c-10.563,0-2.648-25.398-2.648-29.104c-2.013,0.188-3.789,0.248-5.359,0.248
		c-2.849,0-5.016-0.199-6.662-0.199c-4.644,0-5.152,1.584-5.152,13.68c0-0.009,0.001-0.013,0.002-0.013
		c0.129,0.001,5.899,34.572-2.15,34.572c-0.77,0-1.666-0.316-2.705-1.009c-18.211-12.145,18.918-43.818-16.928-48.183
		c-6.334-0.772-47.469-5.236-43.322-16.764c2.773-7.46,7.565-37.407,16.928-37.403c0.54,0,1.097,0.1,1.667,0.309
		c9.359,3.43,25.738,9.499,39.886,9.499c9.939,0,18.778-2.997,23.305-12.01c19.7-39.229-79.605-0.401-61.412-60.042
		c1.172-3.454,4.949-4.481,9.942-4.48c7.337,0,17.294,2.22,25.443,2.22c5.009,0,9.336-0.839,11.952-3.546
		c19.104-18.791-10.525-29.559-24.997-29.559c-0.729,0-1.423,0.027-2.067,0.083c0.219,1.091,2.402,22.916-3.889,22.916
		c-0.727,0-1.565-0.291-2.533-0.938c-4.354-6.31-4.479-13.323-0.369-21.045c-8.531,1.615-13.814,2.892-17.193,2.892
		c-6.981,0-5.823-5.453-8.348-24.641C1080.694,766.492,1116.4,765.142,1135.903,765.143 M1277.027,742.485c-0.001,0-0.003,0-0.003,0
		c-15.536,0.002-32.741,8.414-47.203,23.081c-4.592,4.656-8.53,9.564-11.741,14.572c-5.405-6.358-12.009-12.216-19.631-17.339
		c-16.917-11.369-36.602-17.631-55.427-17.631c-0.857,0-1.811-0.006-2.845-0.012c-1.312-0.007-2.745-0.015-4.274-0.015l0,0l0,0
		c-23.84-0.001-50.075,2.157-63.899,18.167c-6.569,7.607-9.371,17.481-7.896,27.821c0.468,3.57,0.803,6.653,1.1,9.378
		c0.766,7.045,1.318,12.135,3.368,17.063c2.506,6.027,6.884,10.544,12.44,13.094c-2.143,2.781-3.338,5.521-3.976,7.399
		c-0.067,0.196-0.131,0.395-0.191,0.593c-5.039,16.519-3.935,30.506,3.283,41.574c1.82,2.791,3.906,5.211,6.194,7.317
		c-4.35,1.142-9.586,3.771-14.255,9.558c-2.612,3.238-4.884,7.263-6.944,12.304c-2.913,7.125-4.954,15.12-6.594,21.545
		c-0.574,2.248-1.36,5.327-1.686,6.247c-0.024,0.066-0.037,0.102-0.062,0.169c-2.557,7.106-1.737,14.881,2.247,21.331
		c7.146,11.566,22.555,17.712,54.705,21.719c-0.032,0.116-0.064,0.229-0.095,0.34c-1.516,5.433-3.233,11.591-3.135,18.459
		c0.16,11.071,5.221,20.485,14.25,26.507c4.352,2.9,8.994,4.369,13.802,4.369c7.958,0,18.636-4.721,22.537-18.027
		c0.112-0.384,0.219-0.774,0.32-1.172c1.396-0.047,2.813-0.204,4.242-0.471c1.537,1.993,3.193,3.634,4.808,4.972
		c7.455,6.177,15.399,9.308,23.616,9.308c10.306,0,19.783-5.028,26.684-14.157c9.858-13.04,14.234-35.063,9.962-50.137
		c-1.449-5.116-1.702-8.352-1.049-11.606c0.716,5.185,2.04,9.504,4.128,13.202c1.04,2.302,2.495,4.441,4.332,6.334
		c4.631,4.77,11.441,7.728,22.083,9.593c6.826,1.196,14.828,1.855,22.531,1.855c9.837,0,18.26-1.026,25.036-3.05
		c21.281-6.354,22.935-22.111,22.935-26.79c0-16.681-0.103-33.612-0.202-49.986c-0.178-29.19-0.361-59.376,0.036-88.96
		c0.077-5.717,0.336-10.602,0.564-14.912c0.721-13.601,1.343-25.346-7.382-35.76c-8.178-9.759-20.816-13.156-37.779-16.891
		C1283.083,742.808,1280.076,742.485,1277.027,742.485L1277.027,742.485z"/>
</g>
<g class="animation2">
	<g>
		<path fill-rule="evenodd" clip-rule="evenodd" fill="#75BD73" d="M451.041,827.753c13.115-0.527,18.31,3.356,20.021,9.993
			c1.693-16.441,2.242-28.248-20.021-27.354c-13.191,0.624-18.465-3.417-20.219-10.102
			C429.063,816.338,428.56,828.814,451.041,827.753z"/>
	</g>
	<g>
		<path fill-rule="evenodd" clip-rule="evenodd" fill="#75BD73" d="M430.903,782.178c0.595-5.364,1.289-11.107,1.289-16.86
			c0,0.367-55.999-26.273-55.999,8.414c0,4.219,0.291,8.126,0.595,11.746C382.181,762.01,423.119,778.974,430.903,782.178z"/>
	</g>
	<g>
		<path fill-rule="evenodd" clip-rule="evenodd" fill="#75BD73" d="M439.822,928.17c10.262,4.211,25.192-6.015,33.214-1.559
			c-1.963-6.311-3.161-12.459-3.716-18.423c-8.368-0.813-20.659,6.248-29.499,2.62c-6.437-2.639-8.636-8.976-9.301-15.902
			C430.511,905.412,427.785,923.231,439.822,928.17z"/>
	</g>
	<g>
		<path fill-rule="evenodd" clip-rule="evenodd" fill="#75BD73" d="M315.813,899.018c-10.889-3.236-17.265-10.601-19.744-19.115
			c-3.963,14.496,1.731,31.119,19.744,36.477c38.19,11.599,32.85-37.543,61.316,0.834c0.238-6.967,3.441-21.758,1.547-31.869
			c-0.593,5.738-1.429,11.075-1.547,14.51C348.664,861.474,354.004,910.618,315.813,899.018z"/>
	</g>
	<g>
		<path fill-rule="evenodd" clip-rule="evenodd" fill="#75BD73" d="M362.563,833.086c16.896-5.778,15.446-15.659,14.219-30.329
			c-1.367,5.576-5.142,9.866-14.219,12.97c-2.606,0.891-4.501,15.745-3.104,27.506C360.073,837.706,361.224,833.543,362.563,833.086
			z"/>
	</g>
	<g>
		<path fill-rule="evenodd" clip-rule="evenodd" fill="#75BD73" d="M575.64,898.417c0-3.144-0.377-6.009-1.009-8.652
			c-6.752,28.465-46.458,28.387-53.237,0.009c-0.639,2.645-1.019,5.506-1.019,8.644C520.375,938.425,575.64,938.562,575.64,898.417z
			"/>
	</g>
	<g>
		<path fill-rule="evenodd" clip-rule="evenodd" fill="#75BD73" d="M950.515,826.08c7.106-1.4,17.806-4.873,25.49-4.873
			c6.571,0,0.911,19.537,6.398,19.537c11.624,0,26.362-16.338,41.482-16.338c4.962,0,7.432,3.115,8.503,7.695
			c1.381-11.982,1.671-25.055-8.503-25.055c-15.12,0-29.858,16.338-41.482,16.338c-5.487,0,0.173-19.537-6.398-19.537
			c-7.685,0-18.384,3.472-25.49,4.871c-29.096,4.418-27.493,7.473-24.118,24.805C929.273,830.119,936.137,828.262,950.515,826.08z"
			/>
	</g>
	<g>
		<path fill-rule="evenodd" clip-rule="evenodd" fill="#75BD73" d="M469.79,873.024c0,0.526-0.126,0.954-0.319,1.331
			c-0.651,5.682-0.704,11.588-0.042,17.698c8.058-73.317,118.115-108.21,151.237-27.198c-0.679-7.424-1.403-14.846-2.181-22.264
			c-34.996-73.566-138.209-40.657-148.677,29.076C469.802,872.12,469.79,872.572,469.79,873.024z"/>
	</g>
	<g>
		<path fill-rule="evenodd" clip-rule="evenodd" fill="#75BD73" d="M877.342,880.998c0-5.955-2.301-11.337-5.879-15.514
			c-9.388,2.504-27.56,6.247-36.041,2.688C813.551,900.393,877.342,881.625,877.342,880.998z"/>
	</g>
	<g>
		<path fill-rule="evenodd" clip-rule="evenodd" fill="#75BD73" d="M610.753,765.369c3.08-6.873,12.554-5.381,28.463-8.135
			c23.545-4.116,30.441-7.531,30.807,17.226c0.052,8.597-0.039,63.243,5.805,62.89c5.41-0.638,16.92-14.313,23.684-16.62
			c12.227-4.173,26.719-4.166,39.191-1.146c24.115,5.841,41.029,25.709,47.994,48.865c22.104-66.935,122.196-68.851,142.314,0.638
			c-1.125-14.13-4.027-22.96-4.359-28.874c-27.276-57.514-117.15-52.121-137.955,10.877c-6.965-23.157-23.879-43.025-47.994-48.865
			c-12.473-3.02-26.965-3.026-39.191,1.146c-6.764,2.309-18.273,15.981-23.684,16.619c-5.844,0.354-5.753-54.292-5.805-62.89
			c-0.366-24.755-7.262-21.34-30.807-17.224c-23.159,4.007-32.674-0.981-28.707,23.916
			C610.593,764.316,610.669,764.842,610.753,765.369z"/>
	</g>
	<g>
		<path fill-rule="evenodd" clip-rule="evenodd" fill="#75BD73" d="M734.438,894.677c-0.161-2.012-0.494-3.88-0.915-5.667
			c-6.968,27.338-47.631,29.02-54.823-1.05c-0.9,3.473-1.288,7.338-0.952,11.638C681.228,939.86,737.706,934.809,734.438,894.677z"
			/>
	</g>
	<g>
		<path fill-rule="evenodd" clip-rule="evenodd" fill="#75BD73" d="M912.979,911.676c-7.891,1.98-17.628,3.093-27.612,3.71
			c-4.884,2.097-10.457,3.809-17.08,3.809c-5.493,0-11.688-0.908-17.292-3.015c-7.266,0.007-13.161-0.002-16.515,0.248
			c3.208,14.967,20.563,20.127,33.807,20.127c26.003,0,35.901-26.367,50.784,1.13c1.249,2.309,2.397,4.354,3.392,6.23
			c6.5-7.142,2.622-12.48-3.392-23.591C916.959,916.425,914.949,913.638,912.979,911.676z"/>
	</g>
	<g>
		<path fill-rule="evenodd" clip-rule="evenodd" fill="#75BD73" d="M151.742,920.525c27.884-8.248,40.802-37.703,37.307-64.412
			c-2.752,21.027-15.417,40.577-37.307,47.052c-35.547,10.515-60.807-15.962-64.92-46.327
			C81.777,893.271,109.495,933.021,151.742,920.525z"/>
	</g>
	<g>
		<path fill-rule="evenodd" clip-rule="evenodd" fill="#75BD73" d="M34.404,821.362c41.174-107.636,201.351-83.729,213.747,29.37
			c14.247-27.023,46.74-43.933,77.012-41.827c8.286,0.399,9.87,14.999,10.639,25.403c1.097-1.793,1.404-4.576,0.706-9.098
			c-1.16-7.502-0.329-33.133-11.344-33.666c-30.272-2.105-62.765,14.805-77.012,41.828
			c-12.396-113.1-172.572-137.005-213.747-29.369c-6.352,16.602-8.904,35.125-7.7,53.286
			C27.526,844.904,30.073,832.683,34.404,821.362z"/>
	</g>
</g>
<g class="animation2">
	<g>
		<path fill="#FF87FF" d="M1116.592,840.905c-0.523,5.88-2.225,10.677-6.762,7.644c-1.871-2.711-2.956-5.555-3.266-8.526
			c-5.308-0.09-9.363,0.872-10.586,4.472c-2.764,9.06-2.805,15.836-0.975,20.971c0.28-1.167,0.594-2.358,0.975-3.611
			c3.954-11.646,37.566,4.303,47.338-5.807c8.418-8.277,7.357-14.992,2.319-19.923c-0.684,0.839-1.432,1.69-2.319,2.563
			C1138.288,843.889,1126.955,842.193,1116.592,840.905z"/>
	</g>
	<g>
		<path fill="#FF87FF" d="M1084.961,797.17c7.218-15.952,44.359-14.641,58.062-14.641c30.91,0,64.027,22.334,70.522,47.665
			c8.551-31.49-32.646-65.025-70.522-65.025c-15.798,0-62.782-1.759-59.103,23.228
			C1084.359,791.724,1084.684,794.624,1084.961,797.17z"/>
	</g>
	<g>
		<path fill="#FF87FF" d="M1281.663,780.332c21.343,4.7,27.822,7.571,29.406,16.291c1.243-23.763,2.134-26.707-29.406-33.649
			c-21.708-4.779-53.854,26.618-53.56,47.666c0.022,1.526,0.431,5.194,1.061,10.038
			C1234.83,800.429,1262.359,776.085,1281.663,780.332z"/>
	</g>
	<g>
		<path fill="#FF87FF" d="M1109.461,827.504c-0.525,0.102-1.024,0.197-1.525,0.294c0.206,0.475,0.439,0.942,0.689,1.411
			C1108.882,828.645,1109.156,828.077,1109.461,827.504z"/>
	</g>
	<g>
		<path fill="#FF87FF" d="M1310.693,950.204c0.004-0.086,0.032-0.165,0.032-0.254c0-30.116-0.328-60.237-0.389-90.356
			C1310.273,889.796,1310.588,920.002,1310.693,950.204z"/>
	</g>
	<g>
		<path fill="#FF87FF" d="M1078.56,950.736c3.192-12.364,8.017-29.127,15.641-26.331c15.935,5.842,52.222,19.333,63.19-2.511
			c4.045-8.053,3.067-12.813-0.874-15.813c-11.895,19.615-46.775,6.66-62.316,0.965c-10.469-3.84-15.661,29.205-18.595,37.095
			C1074.695,946.668,1075.962,948.854,1078.56,950.736z"/>
	</g>
</g>
</svg>
