<?xml version="1.0" encoding="utf-8"?>
<!DOCTYPE svg PUBLIC "-//W3C//DTD SVG 1.1//EN" "http://www.w3.org/Graphics/SVG/1.1/DTD/svg11.dtd">
<svg version="1.1" xmlns="http://www.w3.org/2000/svg" xmlns:xlink="http://www.w3.org/1999/xlink" x="0px" y="0px"
	 width="50.333px" height="50.5px" viewBox="0 0 50.333 50.5" enable-background="new 0 0 50.333 50.5" xml:space="preserve">

<style>
g{
	display: none;
}
g:target{
	display: block;
}

</style>
		<g id="twitter">
			<path fill="#00acee" d="M48.932,12.746c-1.625,0.721-3.373,1.208-5.205,1.426c1.871-1.121,3.307-2.896,3.985-5.012
				c-1.751,1.039-3.69,1.792-5.755,2.198c-1.652-1.76-4.008-2.861-6.615-2.861c-5.004,0-9.063,4.058-9.063,9.062
				c0,0.71,0.081,1.401,0.236,2.065c-7.531-0.378-14.208-3.985-18.678-9.469c-0.779,1.338-1.227,2.896-1.227,4.556
				c0,3.144,1.601,5.918,4.031,7.542C9.158,22.206,7.76,21.8,6.539,21.119c-0.001,0.038-0.001,0.077-0.001,0.115
				c0,4.39,3.125,8.052,7.27,8.884c-0.76,0.207-1.561,0.318-2.387,0.318c-0.586,0-1.152-0.057-1.705-0.162
				c1.152,3.6,4.498,6.219,8.465,6.293c-3.103,2.432-7.009,3.879-11.256,3.879c-0.729,0-1.452-0.043-2.16-0.127
				c4.009,2.572,8.773,4.072,13.89,4.072c16.668,0,25.783-13.807,25.783-25.784c0-0.393-0.009-0.783-0.026-1.172
				C46.182,16.159,47.717,14.563,48.932,12.746L48.932,12.746z M48.932,12.746"/>
		</g>
		<g id="instagram">
			<path fill="#f11651" d="M35.506,1.925H14.777c-7.033,0-12.735,5.702-12.735,12.735V35.39c0,7.035,5.702,12.736,12.735,12.736
				h20.729c7.033,0,12.735-5.701,12.735-12.736V14.661C48.242,7.627,42.54,1.925,35.506,1.925z M44.508,35.337
				c0,5.002-4.054,9.055-9.055,9.055H14.83c-5.001,0-9.055-4.053-9.055-9.055V14.713c0-5.001,4.054-9.055,9.055-9.055h20.624
				c5.001,0,9.055,4.054,9.055,9.055V35.337z"/>
			<path fill="#f11651" d="M25.141,12.85c-6.724,0-12.175,5.451-12.175,12.176c0,6.723,5.451,12.174,12.175,12.174
				c6.725,0,12.176-5.451,12.176-12.174C37.317,18.301,31.866,12.85,25.141,12.85z M25.141,32.966c-4.386,0-7.94-3.555-7.94-7.939
				c0-4.386,3.555-7.942,7.94-7.942s7.941,3.556,7.941,7.942C33.083,29.411,29.527,32.966,25.141,32.966z"/>
			<circle fill="#f11651" cx="37.73" cy="12.446" r="2.731"/>
		</g>
		<g id="facebook">
			<path fill="#4267b2" d="M32.533,26.879h-6.745v21.705h-9.999V26.879h-4.755v-8.497h4.755v-5.499
				c0-3.932,1.868-10.089,10.089-10.089l7.406,0.032v8.248h-5.375c-0.881,0-2.121,0.44-2.121,2.316v5.001h7.618L32.533,26.879z
				M33.698,27.134"/>
		</g>
		<g id="youtube">
			<path fill-rule="evenodd" clip-rule="evenodd" fill="#ff0000" d="M47.254,16.748c0-3.684-2.983-6.668-6.666-6.668H9.319
				c-3.684,0-6.667,2.985-6.667,6.668v17.883c0,3.683,2.983,6.669,6.667,6.669h31.27c3.683,0,6.666-2.986,6.666-6.669V16.748z
				M20.493,33.234V16.438l12.738,8.396L20.493,33.234z M20.493,33.234"/>
		</g>
</svg>