<svg xmlns="http://www.w3.org/2000/svg" width="50.333" height="50.5" viewBox="0 0 50.333 50.5"><style>g{ display: none; } g:target{ display: block; }</style><g id="twitter"><path fill="#00acee" d="M48.932 12.746a18.084 18.084 0 01-5.205 1.426 9.091 9.091 0 003.985-5.012 18.116 18.116 0 01-5.755 2.198 9.052 9.052 0 00-6.615-2.861c-5.004 0-9.063 4.058-9.063 9.062 0 .71.081 1.401.236 2.065-7.531-.378-14.208-3.985-18.678-9.469a9.032 9.032 0 00-1.227 4.556 9.059 9.059 0 004.031 7.542 8.993 8.993 0 01-4.102-1.134l-.001.115c0 4.39 3.125 8.052 7.27 8.884a9.075 9.075 0 01-4.092.156 9.07 9.07 0 008.465 6.293 18.178 18.178 0 01-11.256 3.879c-.729 0-1.452-.043-2.16-.127a25.637 25.637 0 0013.89 4.072c16.668 0 25.783-13.807 25.783-25.784 0-.393-.009-.783-.026-1.172a18.388 18.388 0 004.52-4.689zm0 0"/></g><g id="instagram"><path fill="#f11651" d="M35.506 1.925H14.777c-7.033 0-12.735 5.702-12.735 12.735v20.73c0 7.035 5.702 12.736 12.735 12.736h20.729c7.033 0 12.735-5.701 12.735-12.736V14.661c.001-7.034-5.701-12.736-12.735-12.736zm9.002 33.412a9.054 9.054 0 01-9.055 9.055H14.83a9.054 9.054 0 01-9.055-9.055V14.713a9.055 9.055 0 019.055-9.055h20.624a9.055 9.055 0 019.055 9.055v20.624z"/><path fill="#f11651" d="M25.141 12.85c-6.724 0-12.175 5.451-12.175 12.176 0 6.723 5.451 12.174 12.175 12.174 6.725 0 12.176-5.451 12.176-12.174 0-6.725-5.451-12.176-12.176-12.176zm0 20.116a7.941 7.941 0 11.002-15.88 7.941 7.941 0 01-.002 15.88z"/><circle fill="#f11651" cx="37.73" cy="12.446" r="2.731"/></g><g id="facebook"><path fill="#4267b2" d="M32.533 26.879h-6.745v21.705h-9.999V26.879h-4.755v-8.497h4.755v-5.499c0-3.932 1.868-10.089 10.089-10.089l7.406.032v8.248h-5.375c-.881 0-2.121.44-2.121 2.316v5.001h7.618l-.873 8.488zm1.165.255"/></g><g id="youtube"><path fill-rule="evenodd" clip-rule="evenodd" fill="red" d="M47.254 16.748a6.665 6.665 0 00-6.666-6.668H9.319a6.666 6.666 0 00-6.667 6.668v17.883A6.667 6.667 0 009.319 41.3h31.27a6.667 6.667 0 006.666-6.669V16.748zM20.493 33.234V16.438l12.738 8.396-12.738 8.4zm0 0"/></g></svg>