<svg version="1.1" id="Layer_3" xmlns="http://www.w3.org/2000/svg" x="0" y="0" width="150" height="250" viewBox="0 0 150 250" xml:space="preserve"><path fill-rule="evenodd" clip-rule="evenodd" fill="#4F392A" d="M22.9 18.1V20c0 .6-.5 1-1 1h-1.1c-.6 0-1-.5-1-1v-1.9h3.1z"/><path fill-rule="evenodd" clip-rule="evenodd" fill="#4F392A" d="M72.9 18.1V20c0 .6-.5 1-1 1h-1.1c-.6 0-1-.5-1-1v-1.9h3.1z"/><path fill-rule="evenodd" clip-rule="evenodd" fill="#4F392A" d="M122.9 18.1V20c0 .6-.5 1-1 1h-1.1c-.6 0-1-.5-1-1v-1.9h3.1z"/><path fill-rule="evenodd" clip-rule="evenodd" fill="#4F392A" d="M30.2 18.1V20c0 .6-.5 1-1 1H28c-.6 0-1-.5-1-1v-1.9h3.2z"/><path fill-rule="evenodd" clip-rule="evenodd" fill="#4F392A" d="M33.7 118.1v1.9c0 .6-.5 1-1 1h-.1c-.6 0-1-.5-1-1v-1.9h2.1z"/><path fill-rule="evenodd" clip-rule="evenodd" fill="#4F392A" d="M83.7 118.1v1.9c0 .6-.5 1-1 1h-.1c-.6 0-1-.5-1-1v-1.9h2.1z"/><path fill-rule="evenodd" clip-rule="evenodd" fill="#4F392A" d="M133.7 118.1v1.9c0 .6-.5 1-1 1h-.1c-.6 0-1-.5-1-1v-1.9h2.1z"/><path fill-rule="evenodd" clip-rule="evenodd" fill="#4F392A" d="M80.2 18.1V20c0 .6-.5 1-1 1H78c-.6 0-1-.5-1-1v-1.9h3.2z"/><path fill-rule="evenodd" clip-rule="evenodd" fill="#4F392A" d="M130.2 18.1V20c0 .6-.5 1-1 1H128c-.6 0-1-.5-1-1v-1.9h3.2z"/><path fill-rule="evenodd" clip-rule="evenodd" fill="#4F392A" d="M18.5 168.1v1.9c0 .6-.5 1-1 1h-.1c-.6 0-1-.5-1-1v-1.9h2.1z"/><path fill-rule="evenodd" clip-rule="evenodd" fill="#4F392A" d="M22.9 219.9c0 .6-.5 1.1-1 1.1h-1.1c-.6 0-1-.5-1-1v-.1h3.1z"/><path fill-rule="evenodd" clip-rule="evenodd" fill="#4F392A" d="M72.9 219.9c0 .6-.5 1.1-1 1.1h-1.1c-.6 0-1-.5-1-1v-.1h3.1z"/><path fill-rule="evenodd" clip-rule="evenodd" fill="#4F392A" d="M122.9 219.9c0 .6-.5 1.1-1 1.1h-1.1c-.6 0-1-.5-1-1v-.1h3.1z"/><path fill-rule="evenodd" clip-rule="evenodd" fill="#4F392A" d="M30.2 219.9c0 .6-.5 1.1-1 1.1H28c-.6 0-1-.5-1-1v-.1h3.2z"/><path fill-rule="evenodd" clip-rule="evenodd" fill="#4F392A" d="M80.2 219.9c0 .6-.5 1.1-1 1.1H78c-.6 0-1-.5-1-1v-.1h3.2z"/><path fill-rule="evenodd" clip-rule="evenodd" fill="#4F392A" d="M130.2 219.9c0 .6-.5 1.1-1 1.1H128c-.6 0-1-.5-1-1v-.1h3.2z"/><path fill-rule="evenodd" clip-rule="evenodd" fill="#4F392A" d="M118.5 168.1v1.9c0 .6-.5 1-1 1h-.1c-.6 0-1-.5-1-1v-1.9h2.1z"/><path fill-rule="evenodd" clip-rule="evenodd" fill="#4F392A" d="M68.5 168.1v1.9c0 .6-.5 1-1 1h-.1c-.6 0-1-.5-1-1v-1.9h2.1z"/></svg>