<?xml version="1.0" encoding="utf-8"?>
<!-- Generator: Adobe Illustrator 16.0.0, SVG Export Plug-In . SVG Version: 6.00 Build 0)  -->
<!DOCTYPE svg PUBLIC "-//W3C//DTD SVG 1.1//EN" "http://www.w3.org/Graphics/SVG/1.1/DTD/svg11.dtd">
<svg version="1.1" id="Layer_3" xmlns="http://www.w3.org/2000/svg" xmlns:xlink="http://www.w3.org/1999/xlink" x="0px" y="0px"
	 width="150px" height="250px" viewBox="0 0 150 250" enable-background="new 0 0 150 250" xml:space="preserve">
<g>
	<path fill-rule="evenodd" clip-rule="evenodd" fill="#A27556" d="M17.5,88.8V78.4l1.4,0.5c1.8,0.7,3.9,1.1,6,1.1c0,0,0,0,0,0
		c2.1,0,4.2-0.4,6-1.1l1.4-0.5l0,10.4H17.5z"/>
	<path fill="#4F392A" d="M31.3,79.9l0,7.9H18.5v-7.9c2,0.7,4.2,1.1,6.4,1.1C27.1,81,29.4,80.6,31.3,79.9 M33.3,77l-2.7,1
		c-1.7,0.6-3.7,1-5.7,1c-2,0-4-0.3-5.7-1l-2.7-1v2.9v7.9v2h2h12.8h2l0-2l0-7.9L33.3,77L33.3,77z"/>
</g>
<g>
	<path fill-rule="evenodd" clip-rule="evenodd" fill="#A27556" d="M67.5,88.8V78.4l1.4,0.5c1.8,0.7,3.9,1.1,6,1.1h0
		c2.1,0,4.2-0.4,6-1.1l1.4-0.5l0,10.4H67.5z"/>
	<path fill="#4F392A" d="M81.3,79.9l0,7.9H68.5v-7.9c2,0.7,4.2,1.1,6.4,1.1C77.2,81,79.4,80.6,81.3,79.9 M83.3,77l-2.7,1
		c-1.7,0.6-3.7,1-5.7,1c-2,0-4-0.3-5.7-1l-2.7-1v2.9v7.9v2h2h12.8h2l0-2l0-7.9L83.3,77L83.3,77z"/>
</g>
<g>
	<path fill-rule="evenodd" clip-rule="evenodd" fill="#A27556" d="M117.5,88.8V78.4l1.4,0.5c1.8,0.7,3.9,1.1,6,1.1h0
		c2.1,0,4.2-0.4,6-1.1l1.4-0.5l0,10.4H117.5z"/>
	<path fill="#4F392A" d="M131.3,79.9l0,7.9h-12.8v-7.9c2,0.7,4.2,1.1,6.4,1.1C127.2,81,129.4,80.6,131.3,79.9 M133.3,77l-2.7,1
		c-1.7,0.6-3.7,1-5.7,1c-2,0-4-0.3-5.7-1l-2.7-1v2.9v7.9v2h2h12.8h2l0-2l0-7.9L133.3,77L133.3,77z"/>
</g>
<path fill-rule="evenodd" clip-rule="evenodd" fill="#91694D" d="M21.8,87.8h-3.3v-7.9h0L21.8,87.8z"/>
<path fill-rule="evenodd" clip-rule="evenodd" fill="#91694D" d="M71.8,87.8h-3.3v-7.9h0L71.8,87.8z"/>
<path fill-rule="evenodd" clip-rule="evenodd" fill="#91694D" d="M121.8,87.8h-3.3v-7.9h0L121.8,87.8z"/>
<path fill-rule="evenodd" clip-rule="evenodd" fill="#BF9D86" d="M31.3,79.9l0,7.9l-3-7.1C29.4,80.5,30.4,80.2,31.3,79.9z"/>
<path fill-rule="evenodd" clip-rule="evenodd" fill="#BF9D86" d="M81.3,79.9l0,7.9l-3-7.1C79.4,80.5,80.4,80.2,81.3,79.9z"/>
<path fill-rule="evenodd" clip-rule="evenodd" fill="#BF9D86" d="M131.3,79.9l0,7.9l-3-7.1C129.4,80.5,130.4,80.2,131.3,79.9z"/>
<g>
	<path fill-rule="evenodd" clip-rule="evenodd" fill="#A27556" d="M17.4,38.9V28.6l1.3,0.5c1.1,0.4,2.2,0.7,3.3,0.8l0.4,0.1l0.2,0.3
		c0.7,0.9,1.3,1.7,1.8,2.5c0.1,0.1,0.2,0.2,0.3,0.4c0.5-0.8,1.3-1.8,2-2.8L27,30l0.4-0.1c1.1-0.2,2.2-0.4,3.4-0.9l1.3-0.5l0,10.3
		H17.4z"/>
	<path fill="#4F392A" d="M31.2,30l0,7.9H18.4v-7.9c1.1,0.4,2.2,0.7,3.5,0.9c1.4,1.8,2.8,3.9,2.9,3.9c0.1,0,1.4-2,2.8-3.9
		C28.8,30.8,30.1,30.4,31.2,30 M33.2,27.2l-2.7,1c-1.1,0.4-2.2,0.7-3.2,0.8l-0.8,0.1L26,29.7c-0.4,0.6-0.9,1.2-1.3,1.7
		c-0.4-0.5-0.8-1.1-1.3-1.7l-0.5-0.6L22.1,29c-1-0.1-2-0.4-3.1-0.8l-2.7-1v2.8v7.9v2h2h12.8h2l0-2l0-7.9L33.2,27.2L33.2,27.2z"/>
</g>
<g>
	<path fill-rule="evenodd" clip-rule="evenodd" fill="#A27556" d="M17.5,238.8v-10.3l1.3,0.5c1.1,0.4,2.2,0.7,3.3,0.8l0.4,0.1
		l0.2,0.3c0.7,0.8,1.3,1.7,1.8,2.5c0.1,0.1,0.2,0.2,0.3,0.4c0.5-0.8,1.3-1.8,2-2.8l0.2-0.3l0.4-0.1c1.1-0.2,2.2-0.4,3.4-0.9l1.3-0.5
		l0,10.3H17.5z"/>
	<path fill="#4F392A" d="M31.3,229.9l0,7.9H18.5v-7.9c1.1,0.4,2.2,0.7,3.5,0.9c1.4,1.8,2.8,3.9,2.9,3.9c0.1,0,1.4-2,2.8-3.9
		C29,230.6,30.2,230.3,31.3,229.9 M33.3,227l-2.7,1c-1.1,0.4-2.2,0.7-3.2,0.8l-0.8,0.1l-0.5,0.6c-0.4,0.6-0.9,1.2-1.3,1.7
		c-0.4-0.5-0.8-1.1-1.3-1.7l-0.5-0.6l-0.8-0.1c-1-0.2-2.1-0.4-3.1-0.8l-2.7-1v2.8v7.9v2h2h12.8h2l0-2l0-7.9L33.3,227L33.3,227z"/>
</g>
<path fill-rule="evenodd" clip-rule="evenodd" fill="#91694D" d="M21.8,37.8h-3.3v-7.9h0L21.8,37.8z"/>
<path fill-rule="evenodd" clip-rule="evenodd" fill="#91694D" d="M21.8,237.8h-3.3v-7.9h0L21.8,237.8z"/>
<path fill-rule="evenodd" clip-rule="evenodd" fill="#BF9D86" d="M27.7,30.9l0.1-0.1c1.3-0.2,2.5-0.5,3.6-0.9l0,7.9L27.7,30.9z"/>
<path fill-rule="evenodd" clip-rule="evenodd" fill="#BF9D86" d="M27.7,230.9l0.1-0.1c1.3-0.2,2.5-0.5,3.6-0.9l0,7.9L27.7,230.9z"/>
<g>
	<path fill-rule="evenodd" clip-rule="evenodd" fill="#A27556" d="M67.4,38.9V28.6l1.3,0.5c1.1,0.4,2.2,0.7,3.3,0.8l0.4,0.1l0.2,0.3
		c0.7,0.9,1.3,1.8,1.8,2.5c0.1,0.1,0.2,0.2,0.3,0.4c0.5-0.8,1.3-1.8,2.1-2.8L77,30l0.4-0.1c1.1-0.2,2.2-0.4,3.4-0.9l1.3-0.5l0,10.3
		H67.4z"/>
	<path fill="#4F392A" d="M81.2,30l0,7.9H68.4v-7.9c1.1,0.4,2.2,0.7,3.5,0.9c1.4,1.8,2.8,3.9,2.9,3.9c0.1,0,1.4-2,2.8-3.9
		C78.8,30.8,80.1,30.4,81.2,30 M83.2,27.2l-2.7,1c-1.1,0.4-2.2,0.7-3.2,0.8l-0.8,0.1L76,29.7c-0.4,0.6-0.9,1.2-1.3,1.7
		c-0.4-0.5-0.8-1.1-1.3-1.7l-0.5-0.6L72.1,29c-1-0.1-2-0.4-3.1-0.8l-2.7-1v2.8v7.9v2h2h12.8h2l0-2l0-7.9L83.2,27.2L83.2,27.2z"/>
</g>
<g>
	<path fill-rule="evenodd" clip-rule="evenodd" fill="#A27556" d="M67.5,238.8v-10.3l1.3,0.5c1.1,0.4,2.2,0.7,3.3,0.8l0.4,0.1
		l0.2,0.3c0.7,0.9,1.3,1.8,1.8,2.5c0.1,0.1,0.2,0.2,0.3,0.4c0.5-0.8,1.3-1.8,2.1-2.8l0.2-0.3l0.4-0.1c1.1-0.2,2.2-0.4,3.4-0.9
		l1.3-0.5l0,10.3H67.5z"/>
	<path fill="#4F392A" d="M81.3,229.9l0,7.9H68.5v-7.9c1.1,0.4,2.2,0.7,3.5,0.9c1.4,1.8,2.8,3.9,2.9,3.9c0.1,0,1.4-2,2.8-3.9
		C79,230.6,80.2,230.3,81.3,229.9 M83.3,227l-2.7,1c-1.1,0.4-2.2,0.7-3.2,0.8l-0.8,0.1l-0.5,0.6c-0.4,0.6-0.9,1.2-1.3,1.7
		c-0.4-0.5-0.8-1.1-1.3-1.7l-0.5-0.6l-0.8-0.1c-1-0.2-2.1-0.4-3.1-0.8l-2.7-1v2.8v7.9v2h2h12.8h2l0-2l0-7.9L83.3,227L83.3,227z"/>
</g>
<g>
	<path fill-rule="evenodd" clip-rule="evenodd" fill="#A27556" d="M117.5,38.8V28.5l1.3,0.5c1.1,0.4,2.2,0.7,3.3,0.8l0.4,0.1
		l0.2,0.3c0.7,0.8,1.3,1.7,1.8,2.5c0.1,0.1,0.2,0.2,0.3,0.4c0.5-0.8,1.3-1.8,2.1-2.8l0.2-0.3l0.4-0.1c1.1-0.2,2.2-0.4,3.4-0.9
		l1.3-0.5l0,10.3H117.5z"/>
	<path fill="#4F392A" d="M131.3,29.9l0,7.9h-12.8v-7.9c1.1,0.4,2.2,0.7,3.5,0.9c1.4,1.8,2.8,3.9,2.9,3.9c0.1,0,1.4-2,2.8-3.9
		C129,30.6,130.2,30.3,131.3,29.9 M133.3,27l-2.7,1c-1.1,0.4-2.2,0.7-3.2,0.8l-0.8,0.1l-0.5,0.6c-0.4,0.6-0.9,1.2-1.3,1.7
		c-0.4-0.5-0.8-1.1-1.3-1.7l-0.5-0.6l-0.8-0.1c-1-0.1-2-0.4-3.1-0.8l-2.7-1v2.8v7.9v2h2h12.8h2l0-2l0-7.9L133.3,27L133.3,27z"/>
</g>
<g>
	<path fill-rule="evenodd" clip-rule="evenodd" fill="#A27556" d="M117.5,238.8v-10.3l1.3,0.5c1.1,0.4,2.2,0.7,3.3,0.8l0.4,0.1
		l0.2,0.3c0.7,0.8,1.3,1.7,1.8,2.5c0.1,0.1,0.2,0.2,0.3,0.4c0.5-0.8,1.3-1.8,2.1-2.8l0.2-0.3l0.4-0.1c1.1-0.2,2.2-0.4,3.4-0.9
		l1.3-0.5l0,10.3H117.5z"/>
	<path fill="#4F392A" d="M131.3,229.9l0,7.9h-12.8v-7.9c1.1,0.4,2.2,0.7,3.5,0.9c1.4,1.8,2.8,3.9,2.9,3.9c0.1,0,1.4-2,2.8-3.9
		C129,230.6,130.2,230.3,131.3,229.9 M133.3,227l-2.7,1c-1.1,0.4-2.2,0.7-3.2,0.8l-0.8,0.1l-0.5,0.6c-0.4,0.6-0.9,1.2-1.3,1.7
		c-0.4-0.5-0.8-1.1-1.3-1.7l-0.5-0.6l-0.8-0.1c-1-0.2-2.1-0.4-3.1-0.8l-2.7-1v2.8v7.9v2h2h12.8h2l0-2l0-7.9L133.3,227L133.3,227z"/>
</g>
<g>
	<path fill-rule="evenodd" clip-rule="evenodd" fill="#A27556" d="M78.2,138.8l-0.2-0.7c-0.1-0.3-0.2-0.6-0.4-0.8l-0.2-0.3l0-6.6
		l1.7-0.7l3.4,3.4l0,5.7H78.2z M67.5,138.8v-10.3l1.3,0.5c0.9,0.3,1.7,0.6,2.4,1l0.6,0.3l0,0.9l0,6.3l-0.1,0.2
		c-0.1,0.2-0.2,0.4-0.3,0.6l-0.2,0.7H67.5z"/>
	<path fill="#4F392A" d="M68.5,129.9c0.9,0.3,1.7,0.6,2.4,0.9l0,0.2l0,6c-0.1,0.2-0.2,0.5-0.3,0.7h-2.1V129.9 M78.7,130.9l2.6,2.6
		l0,4.3h-2.4c-0.1-0.4-0.3-0.7-0.6-1.1l0-5.7L78.7,130.9 M66.5,127v2.8v7.9v2h2h2.1H72l0.5-1.3c0-0.1,0.1-0.3,0.2-0.4l0.3-0.5l0-0.5
		l0-6l0-0.2l0-1.4l-1.3-0.5c-0.7-0.3-1.6-0.6-2.5-1L66.5,127L66.5,127z M79.2,128.5l-1.2,0.5l-0.4,0.2l-1.2,0.5l0,1.3l0,5.7l0,0.6
		l0.4,0.5c0.1,0.2,0.2,0.4,0.3,0.6l0.5,1.3h1.4h2.4h2l0-2l0-4.3l0-0.8l-0.6-0.6l-2.6-2.6L79.2,128.5L79.2,128.5z"/>
</g>
<g>
	<path fill-rule="evenodd" clip-rule="evenodd" fill="#A27556" d="M78.6,188.8l-0.2-0.7c-0.1-0.2-0.2-0.4-0.3-0.6l-0.1-0.2l0-7.2
		l0.6-0.3c0.7-0.3,1.6-0.6,2.4-1l1.3-0.5v10.3H78.6z M67.6,188.8l0-5.7l3.4-3.4l1.7,0.7l0,6.6l-0.2,0.3c-0.2,0.3-0.3,0.5-0.4,0.8
		l-0.2,0.7H67.6z"/>
	<path fill="#4F392A" d="M81.3,179.9v7.9h-2.1c-0.1-0.2-0.2-0.5-0.3-0.7l0-6.2C79.6,180.5,80.4,180.2,81.3,179.9 M71.1,180.9
		l0.4,0.2l0,5.7c-0.2,0.3-0.4,0.7-0.6,1.1h-2.4l0-4.3L71.1,180.9 M83.3,177l-2.7,1c-0.9,0.3-1.7,0.7-2.5,1l-1.2,0.5l0,1.3l0,6.2v0.5
		l0.3,0.5c0.1,0.1,0.1,0.3,0.2,0.4l0.5,1.3h1.4h2.1h2v-2v-7.9V177L83.3,177z M70.7,178.5l-1,1l-2.6,2.6l-0.6,0.6l0,0.8l0,4.3l0,2h2
		H71h1.4l0.5-1.3c0.1-0.2,0.2-0.4,0.3-0.6l0.4-0.5l0-0.6l0-5.7l0-1.3l-1.2-0.5l-0.4-0.2L70.7,178.5L70.7,178.5z"/>
</g>
<g>
	<path fill-rule="evenodd" clip-rule="evenodd" fill="#A27556" d="M126.5,138.8l-0.2-0.7c0-0.1-0.1-0.3-0.2-0.4l-0.1-0.3l0.1-0.3
		c0.1-0.5,0.2-1.1,0.4-1.8c0.3-1.4,0.6-3.1,0.7-4.2l0-0.6l1.9-0.8l3.4,3.4l0,5.7H126.5z M117.5,138.8v-10.3l1.3,0.5
		c0.8,0.3,1.6,0.6,2.2,0.9l0.7,0.3l-1.2,6.7l-0.2,0.2c-0.3,0.3-0.5,0.7-0.6,1.1l-0.2,0.7H117.5z"/>
	<path fill="#4F392A" d="M118.5,129.9c0.8,0.3,1.5,0.6,2.2,0.8l-1,5.6c-0.4,0.4-0.6,0.9-0.8,1.5h-0.4V129.9 M128.7,130.9l2.6,2.6
		l0,4.3h-4c-0.1-0.2-0.1-0.3-0.2-0.5c0.3-1.8,1-4.4,1-6.1L128.7,130.9 M116.5,127v2.8v7.9v2h2h0.4h1.5l0.4-1.4
		c0.1-0.3,0.2-0.6,0.4-0.8l0.3-0.4l0.1-0.5l1-5.6l0.3-1.6l-1.5-0.6c-0.7-0.3-1.5-0.6-2.3-0.9L116.5,127L116.5,127z M129.2,128.5
		l-1.2,0.5l-0.6,0.3l-1.2,0.5l0,1.3c0,1-0.3,2.6-0.6,4c-0.1,0.7-0.3,1.3-0.4,1.8l-0.1,0.6l0.3,0.6c0,0.1,0.1,0.2,0.1,0.3l0.4,1.4
		h1.5h4h2l0-2l0-4.3l0-0.8l-0.6-0.6l-2.6-2.6L129.2,128.5L129.2,128.5z"/>
</g>
<g>
	<path fill-rule="evenodd" clip-rule="evenodd" fill="#A27556" d="M130.2,188.8l-0.2-0.7c-0.1-0.4-0.3-0.8-0.6-1.1l-0.2-0.2
		l-1.2-6.7l0.7-0.3c0.6-0.3,1.4-0.6,2.2-0.9l1.3-0.5v10.3H130.2z M117.6,188.8l0-5.7l3.4-3.4l1.9,0.8l0,0.6c0,1.1,0.4,2.7,0.6,4.1
		c0.1,0.7,0.3,1.3,0.4,1.8l0.1,0.3l-0.1,0.3c-0.1,0.1-0.1,0.3-0.2,0.4l-0.2,0.7H117.6z"/>
	<path fill="#4F392A" d="M131.3,179.9v7.9h-0.4c-0.2-0.5-0.4-1-0.8-1.5l-1-5.6C129.8,180.5,130.5,180.2,131.3,179.9 M121.1,180.9
		l0.6,0.3c0,1.7,0.7,4.4,1,6.1c-0.1,0.2-0.1,0.3-0.2,0.5h-4l0-4.3L121.1,180.9 M133.3,177l-2.7,1c-0.8,0.3-1.6,0.6-2.3,0.9l-1.5,0.6
		l0.3,1.6l1,5.6l0.1,0.5l0.3,0.4c0.2,0.2,0.3,0.5,0.4,0.8l0.4,1.4h1.5h0.4h2v-2v-7.9V177L133.3,177z M120.7,178.5l-1,1l-2.6,2.6
		l-0.6,0.6l0,0.8l0,4.3l0,2h2h4h1.4l0.5-1.4c0-0.1,0.1-0.2,0.1-0.3l0.3-0.6l-0.1-0.6c-0.1-0.5-0.2-1.2-0.4-1.8
		c-0.3-1.4-0.6-3-0.6-3.9l0-1.3l-1.2-0.5l-0.6-0.3L120.7,178.5L120.7,178.5z"/>
</g>
<g>
	<path fill-rule="evenodd" clip-rule="evenodd" fill="#A27556" d="M29.5,138.8l-0.2-0.7c-0.1-0.3-0.3-0.7-0.5-0.9l-0.2-0.2l-1.2-6.7
		l1.5-0.7l3.4,3.4l0,5.7H29.5z M17.5,138.8v-10.3l1.3,0.5c1,0.4,1.9,0.7,2.7,1.1l0.7,0.3l-0.1,0.7c-0.1,0.8,0.5,3.4,0.8,5
		c0.1,0.6,0.2,1.2,0.3,1.6l0.2,1.2H17.5z"/>
	<path fill="#4F392A" d="M18.5,129.9c1,0.4,1.9,0.7,2.6,1c-0.1,1.3,0.9,5.4,1.1,6.9h-3.7V129.9 M28.7,130.9l2.6,2.6l0,4.3h-1.1
		c-0.1-0.4-0.4-0.9-0.6-1.2l-1-5.6L28.7,130.9 M16.5,127v2.8v7.9v2h2h3.7h2.4l-0.4-2.3c-0.1-0.4-0.2-1-0.3-1.6
		c-0.2-1.2-0.8-4.1-0.8-4.7l0.1-1.4l-1.3-0.6c-0.8-0.3-1.7-0.7-2.7-1.1L16.5,127L16.5,127z M29.2,128.5l-1.2,0.5l-0.2,0.1l-1.5,0.6
		l0.3,1.6l1,5.6l0.1,0.5l0.3,0.4c0.1,0.1,0.3,0.4,0.3,0.6l0.5,1.4h1.4h1.1h2l0-2l0-4.3l0-0.8l-0.6-0.6l-2.6-2.6L29.2,128.5
		L29.2,128.5z"/>
</g>
<g>
	<path fill-rule="evenodd" clip-rule="evenodd" fill="#A27556" d="M26.4,188.8l0.2-1.2c0.1-0.4,0.2-0.9,0.3-1.6
		c0.3-1.6,0.9-4.3,0.8-5.1l-0.1-0.7l0.7-0.3c0.8-0.3,1.7-0.7,2.7-1.1l1.3-0.5v10.3H26.4z M17.6,188.8l0-5.7l3.4-3.4l1.5,0.7
		l-1.2,6.6l-0.2,0.2c-0.2,0.3-0.4,0.6-0.5,0.9l-0.2,0.7H17.6z"/>
	<path fill="#4F392A" d="M31.3,179.9v7.9h-3.7c0.3-1.5,1.2-5.6,1.1-6.9C29.4,180.6,30.3,180.2,31.3,179.9 M21.1,180.9l0.2,0.1
		l-1,5.6c-0.3,0.4-0.5,0.8-0.6,1.2h-1.1l0-4.3L21.1,180.9 M33.3,177l-2.7,1c-1,0.4-2,0.7-2.7,1.1l-1.3,0.6l0.1,1.4
		c0,0.7-0.5,3.6-0.8,4.8c-0.1,0.6-0.2,1.2-0.3,1.6l-0.4,2.4h2.4h3.7h2v-2v-7.9V177L33.3,177z M20.7,178.5l-1,1l-2.6,2.6l-0.6,0.6
		l0,0.8l0,4.3l0,2h2h1.1h1.4l0.5-1.4c0.1-0.2,0.2-0.4,0.3-0.6l0.3-0.4l0.1-0.5l1-5.6l0.3-1.6l-1.5-0.6l-0.2-0.1L20.7,178.5
		L20.7,178.5z"/>
</g>
<path fill-rule="evenodd" clip-rule="evenodd" fill="#91694D" d="M71.8,37.8h-3.3v-7.9h0L71.8,37.8z"/>
<path fill-rule="evenodd" clip-rule="evenodd" fill="#91694D" d="M71.8,237.8h-3.3v-7.9h0L71.8,237.8z"/>
<path fill-rule="evenodd" clip-rule="evenodd" fill="#91694D" d="M121.8,37.8h-3.3v-7.9h0L121.8,37.8z"/>
<path fill-rule="evenodd" clip-rule="evenodd" fill="#91694D" d="M121.8,237.8h-3.3v-7.9h0L121.8,237.8z"/>
<path fill-rule="evenodd" clip-rule="evenodd" fill="#BF9D86" d="M77.7,30.9l0.1-0.1c1.3-0.2,2.5-0.5,3.6-0.9l0,7.9L77.7,30.9z"/>
<path fill-rule="evenodd" clip-rule="evenodd" fill="#BF9D86" d="M77.7,230.9l0.1-0.1c1.3-0.2,2.5-0.5,3.6-0.9l0,7.9L77.7,230.9z"/>
<path fill-rule="evenodd" clip-rule="evenodd" fill="#BF9D86" d="M127.7,30.9l0.1-0.1c1.3-0.2,2.5-0.5,3.6-0.9l0,7.9L127.7,30.9z"/>
<path fill-rule="evenodd" clip-rule="evenodd" fill="#BF9D86" d="M127.7,230.9l0.1-0.1c1.3-0.2,2.5-0.5,3.6-0.9l0,7.9L127.7,230.9z"
	/>
</svg>
