<svg version="1.1" id="Layer_12" xmlns="http://www.w3.org/2000/svg" x="0" y="0" width="150" height="250" viewBox="0 0 150 250" xml:space="preserve"><line fill="none" stroke="#4F392A" stroke-width="2" stroke-miterlimit="10" x1="11.4" y1="17.4" x2="11.4" y2="17.4"/><g><path fill-rule="evenodd" clip-rule="evenodd" fill="#35BFDC" d="M27.7 22.6c-1 0-1.8-.8-1.8-1.8v-3.1c0-.5.2-.9.6-1.3.3-.3.8-.5 1.2-.5h3.1c1 0 1.8.8 1.8 1.7v3.1c0 1-.8 1.8-1.8 1.8l-3.1.1z"/><g><path fill="#484848" d="M30.8 17c.5 0 .8.3.8.7v3.1c0 .5-.3.8-.8.8h-3.1c-.4 0-.8-.3-.8-.8v-3.1c0-.4.4-.7.8-.7h3.1m0-2h-3.1c-.7 0-1.3.2-1.9.7-.6.5-.9 1.3-.9 2v3.1c0 1.5 1.3 2.8 2.8 2.8h3.1c1.6 0 2.8-1.2 2.8-2.8v-3.1c0-1.5-1.2-2.7-2.8-2.7z"/></g></g><line fill="#35BFDC" stroke="#484848" stroke-width="2" stroke-miterlimit="22.926" x1="32.3" y1="19.6" x2="37.1" y2="18.1"/><g><path fill-rule="evenodd" clip-rule="evenodd" fill="#35BFDC" d="M19 22.7c-1 0-1.8-.8-1.8-1.8v-3.1c0-1 .8-1.7 1.8-1.7h3.1c.4 0 .9.2 1.2.5.4.3.6.8.6 1.3V21c0 1-.8 1.8-1.8 1.8l-3.1-.1z"/><g><path fill="#484848" d="M19 17.1h3.1c.4 0 .8.3.8.7v3.1c0 .5-.4.8-.8.8H19c-.5 0-.8-.3-.8-.8v-3.1c.1-.4.4-.7.8-.7m.1-2c-1.6 0-2.8 1.2-2.8 2.7v3.1c0 1.6 1.2 2.8 2.8 2.8h3.1c1.5 0 2.8-1.3 2.8-2.8v-3.1c0-.8-.3-1.5-.9-2-.5-.4-1.2-.7-1.9-.7h-3.1z"/></g></g><line fill="#35BFDC" stroke="#484848" stroke-width="2" stroke-miterlimit="22.926" x1="17.4" y1="19.6" x2="12.7" y2="18.1"/><g><g><path fill-rule="evenodd" clip-rule="evenodd" fill="#35BFDC" d="M77.7 22.6c-1 0-1.8-.8-1.8-1.8v-3.1c0-.5.2-.9.6-1.3.3-.3.8-.5 1.2-.5h3.1c1 0 1.8.8 1.8 1.7v3.1c0 1-.8 1.8-1.8 1.8l-3.1.1z"/><g><path fill="#484848" d="M80.8 17c.5 0 .8.3.8.7v3.1c0 .5-.3.8-.8.8h-3.1c-.4 0-.8-.3-.8-.8v-3.1c0-.4.4-.7.8-.7h3.1m0-2h-3.1c-.7 0-1.3.2-1.9.7-.6.5-.9 1.3-.9 2v3.1c0 1.5 1.3 2.8 2.8 2.8h3.1c1.6 0 2.8-1.2 2.8-2.8v-3.1c0-1.5-1.2-2.7-2.8-2.7z"/></g></g><line fill="#35BFDC" stroke="#484848" stroke-width="2" stroke-miterlimit="22.926" x1="82.3" y1="19.6" x2="87.1" y2="18.1"/><g><path fill-rule="evenodd" clip-rule="evenodd" fill="#35BFDC" d="M69 22.7c-1 0-1.8-.8-1.8-1.8v-3.1c0-1 .8-1.7 1.8-1.7h3.1c.4 0 .9.2 1.2.5.4.3.6.8.6 1.3V21c0 1-.8 1.8-1.8 1.8l-3.1-.1z"/><g><path fill="#484848" d="M69 17.1h3.1c.4 0 .8.3.8.7v3.1c0 .5-.4.8-.8.8H69c-.5 0-.8-.3-.8-.8v-3.1c.1-.4.4-.7.8-.7m.1-2c-1.6 0-2.8 1.2-2.8 2.7v3.1c0 1.6 1.2 2.8 2.8 2.8h3.1c1.5 0 2.8-1.3 2.8-2.8v-3.1c0-.8-.3-1.5-.9-2-.5-.4-1.2-.7-1.9-.7h-3.1z"/></g></g><line fill="#35BFDC" stroke="#484848" stroke-width="2" stroke-miterlimit="22.926" x1="67.4" y1="19.6" x2="62.7" y2="18.1"/></g><g><g><path fill-rule="evenodd" clip-rule="evenodd" fill="#35BFDC" d="M127.7 22.6c-1 0-1.8-.8-1.8-1.8v-3.1c0-.5.2-.9.6-1.3.3-.3.8-.5 1.2-.5h3.1c1 0 1.8.8 1.8 1.7v3.1c0 1-.8 1.8-1.8 1.8l-3.1.1z"/><g><path fill="#484848" d="M130.8 17c.5 0 .8.3.8.7v3.1c0 .5-.3.8-.8.8h-3.1c-.4 0-.8-.3-.8-.8v-3.1c0-.4.4-.7.8-.7h3.1m0-2h-3.1c-.7 0-1.3.2-1.9.7-.6.5-.9 1.3-.9 2v3.1c0 1.5 1.3 2.8 2.8 2.8h3.1c1.6 0 2.8-1.2 2.8-2.8v-3.1c0-1.5-1.2-2.7-2.8-2.7z"/></g></g><line fill="#35BFDC" stroke="#484848" stroke-width="2" stroke-miterlimit="22.926" x1="132.3" y1="19.6" x2="137.1" y2="18.1"/><g><path fill-rule="evenodd" clip-rule="evenodd" fill="#35BFDC" d="M119 22.7c-1 0-1.8-.8-1.8-1.8v-3.1c0-1 .8-1.7 1.8-1.7h3.1c.4 0 .9.2 1.2.5.4.3.6.8.6 1.3V21c0 1-.8 1.8-1.8 1.8l-3.1-.1z"/><g><path fill="#484848" d="M119 17.1h3.1c.4 0 .8.3.8.7v3.1c0 .5-.4.8-.8.8H119c-.5 0-.8-.3-.8-.8v-3.1c.1-.4.4-.7.8-.7m.1-2c-1.6 0-2.8 1.2-2.8 2.7v3.1c0 1.6 1.2 2.8 2.8 2.8h3.1c1.5 0 2.8-1.3 2.8-2.8v-3.1c0-.8-.3-1.5-.9-2-.5-.4-1.2-.7-1.9-.7h-3.1z"/></g></g><line fill="#35BFDC" stroke="#484848" stroke-width="2" stroke-miterlimit="22.926" x1="117.4" y1="19.6" x2="112.7" y2="18.1"/></g><g><g><path fill-rule="evenodd" clip-rule="evenodd" fill="#35BFDC" d="M27.7 222.6c-1 0-1.8-.8-1.8-1.8v-3.1c0-.5.2-.9.6-1.3.3-.3.8-.5 1.2-.5h3.1c1 0 1.8.8 1.8 1.7v3.1c0 1-.8 1.8-1.8 1.8l-3.1.1z"/><g><path fill="#484848" d="M30.8 217c.5 0 .8.3.8.7v3.1c0 .5-.3.8-.8.8h-3.1c-.4 0-.8-.3-.8-.8v-3.1c0-.4.4-.7.8-.7h3.1m0-2h-3.1c-.7 0-1.3.2-1.9.7-.6.5-.9 1.3-.9 2v3.1c0 1.5 1.3 2.8 2.8 2.8h3.1c1.6 0 2.8-1.2 2.8-2.8v-3.1c0-1.5-1.2-2.7-2.8-2.7z"/></g></g><line fill="#35BFDC" stroke="#484848" stroke-width="2" stroke-miterlimit="22.926" x1="32.3" y1="219.6" x2="37.1" y2="218.1"/><g><path fill-rule="evenodd" clip-rule="evenodd" fill="#35BFDC" d="M19 222.7c-1 0-1.8-.8-1.8-1.8v-3.1c0-1 .8-1.7 1.8-1.7h3.1c.4 0 .9.2 1.2.5.4.3.6.8.6 1.3v3.1c0 1-.8 1.8-1.8 1.8l-3.1-.1z"/><g><path fill="#484848" d="M19 217.1h3.1c.4 0 .8.3.8.7v3.1c0 .5-.4.8-.8.8H19c-.5 0-.8-.3-.8-.8v-3.1c.1-.4.4-.7.8-.7m.1-2c-1.6 0-2.8 1.2-2.8 2.7v3.1c0 1.6 1.2 2.8 2.8 2.8h3.1c1.5 0 2.8-1.3 2.8-2.8v-3.1c0-.8-.3-1.5-.9-2-.5-.4-1.2-.7-1.9-.7h-3.1z"/></g></g><line fill="#35BFDC" stroke="#484848" stroke-width="2" stroke-miterlimit="22.926" x1="17.4" y1="219.6" x2="12.7" y2="218.1"/></g><g><g><path fill-rule="evenodd" clip-rule="evenodd" fill="#35BFDC" d="M77.7 222.6c-1 0-1.8-.8-1.8-1.8v-3.1c0-.5.2-.9.6-1.3.3-.3.8-.5 1.2-.5h3.1c1 0 1.8.8 1.8 1.7v3.1c0 1-.8 1.8-1.8 1.8l-3.1.1z"/><g><path fill="#484848" d="M80.8 217c.5 0 .8.3.8.7v3.1c0 .5-.3.8-.8.8h-3.1c-.4 0-.8-.3-.8-.8v-3.1c0-.4.4-.7.8-.7h3.1m0-2h-3.1c-.7 0-1.3.2-1.9.7-.6.5-.9 1.3-.9 2v3.1c0 1.5 1.3 2.8 2.8 2.8h3.1c1.6 0 2.8-1.2 2.8-2.8v-3.1c0-1.5-1.2-2.7-2.8-2.7z"/></g></g><line fill="#35BFDC" stroke="#484848" stroke-width="2" stroke-miterlimit="22.926" x1="82.3" y1="219.6" x2="87.1" y2="218.1"/><g><path fill-rule="evenodd" clip-rule="evenodd" fill="#35BFDC" d="M69 222.7c-1 0-1.8-.8-1.8-1.8v-3.1c0-1 .8-1.7 1.8-1.7h3.1c.4 0 .9.2 1.2.5.4.3.6.8.6 1.3v3.1c0 1-.8 1.8-1.8 1.8l-3.1-.1z"/><g><path fill="#484848" d="M69 217.1h3.1c.4 0 .8.3.8.7v3.1c0 .5-.4.8-.8.8H69c-.5 0-.8-.3-.8-.8v-3.1c.1-.4.4-.7.8-.7m.1-2c-1.6 0-2.8 1.2-2.8 2.7v3.1c0 1.6 1.2 2.8 2.8 2.8h3.1c1.5 0 2.8-1.3 2.8-2.8v-3.1c0-.8-.3-1.5-.9-2-.5-.4-1.2-.7-1.9-.7h-3.1z"/></g></g><line fill="#35BFDC" stroke="#484848" stroke-width="2" stroke-miterlimit="22.926" x1="67.4" y1="219.6" x2="62.7" y2="218.1"/></g><g><g><path fill-rule="evenodd" clip-rule="evenodd" fill="#35BFDC" d="M127.7 222.6c-1 0-1.8-.8-1.8-1.8v-3.1c0-.5.2-.9.6-1.3.3-.3.8-.5 1.2-.5h3.1c1 0 1.8.8 1.8 1.7v3.1c0 1-.8 1.8-1.8 1.8l-3.1.1z"/><g><path fill="#484848" d="M130.8 217c.5 0 .8.3.8.7v3.1c0 .5-.3.8-.8.8h-3.1c-.4 0-.8-.3-.8-.8v-3.1c0-.4.4-.7.8-.7h3.1m0-2h-3.1c-.7 0-1.3.2-1.9.7-.6.5-.9 1.3-.9 2v3.1c0 1.5 1.3 2.8 2.8 2.8h3.1c1.6 0 2.8-1.2 2.8-2.8v-3.1c0-1.5-1.2-2.7-2.8-2.7z"/></g></g><line fill="#35BFDC" stroke="#484848" stroke-width="2" stroke-miterlimit="22.926" x1="132.3" y1="219.6" x2="137.1" y2="218.1"/><g><path fill-rule="evenodd" clip-rule="evenodd" fill="#35BFDC" d="M119 222.7c-1 0-1.8-.8-1.8-1.8v-3.1c0-1 .8-1.7 1.8-1.7h3.1c.4 0 .9.2 1.2.5.4.3.6.8.6 1.3v3.1c0 1-.8 1.8-1.8 1.8l-3.1-.1z"/><g><path fill="#484848" d="M119 217.1h3.1c.4 0 .8.3.8.7v3.1c0 .5-.4.8-.8.8H119c-.5 0-.8-.3-.8-.8v-3.1c.1-.4.4-.7.8-.7m.1-2c-1.6 0-2.8 1.2-2.8 2.7v3.1c0 1.6 1.2 2.8 2.8 2.8h3.1c1.5 0 2.8-1.3 2.8-2.8v-3.1c0-.8-.3-1.5-.9-2-.5-.4-1.2-.7-1.9-.7h-3.1z"/></g></g><line fill="#35BFDC" stroke="#484848" stroke-width="2" stroke-miterlimit="22.926" x1="117.4" y1="219.6" x2="112.7" y2="218.1"/></g><g><g><path fill-rule="evenodd" clip-rule="evenodd" fill="#35BFDC" d="M34 121.7c-1 0-1.8-.8-1.8-1.8v-3.1c0-1 .8-1.7 1.8-1.7h1.1c.4 0 .9.2 1.2.5.4.3.6.8.6 1.3v3.1c0 1-.8 1.8-1.8 1.8l-1.1-.1z"/><g><path fill="#484848" d="M34 116.1h1.1c.4 0 .8.3.8.7v3.1c0 .5-.4.8-.8.8H34c-.5 0-.8-.3-.8-.8v-3.1c.1-.4.4-.7.8-.7m.1-2c-1.6 0-2.8 1.2-2.8 2.7v3.1c0 1.6 1.2 2.8 2.8 2.8h1.1c1.5 0 2.8-1.3 2.8-2.8v-3.1c0-.8-.3-1.5-.9-2-.5-.4-1.2-.7-1.9-.7h-1.1z"/></g></g><line fill="#35BFDC" stroke="#484848" stroke-width="2" stroke-miterlimit="22.926" x1="32.6" y1="117.9" x2="23.1" y2="115.7"/></g><g><g><path fill-rule="evenodd" clip-rule="evenodd" fill="#35BFDC" d="M84 121.7c-1 0-1.8-.8-1.8-1.8v-3.1c0-1 .8-1.7 1.8-1.7h1.1c.4 0 .9.2 1.2.5.4.3.6.8.6 1.3v3.1c0 1-.8 1.8-1.8 1.8l-1.1-.1z"/><g><path fill="#484848" d="M84 116.1h1.1c.4 0 .8.3.8.7v3.1c0 .5-.4.8-.8.8H84c-.5 0-.8-.3-.8-.8v-3.1c.1-.4.4-.7.8-.7m.1-2c-1.6 0-2.8 1.2-2.8 2.7v3.1c0 1.6 1.2 2.8 2.8 2.8h1.1c1.5 0 2.8-1.3 2.8-2.8v-3.1c0-.8-.3-1.5-.9-2-.5-.4-1.2-.7-1.9-.7h-1.1z"/></g></g><line fill="#35BFDC" stroke="#484848" stroke-width="2" stroke-miterlimit="22.926" x1="82.6" y1="117.9" x2="73.1" y2="115.7"/></g><g><g><path fill-rule="evenodd" clip-rule="evenodd" fill="#35BFDC" d="M134 121.7c-1 0-1.8-.8-1.8-1.8v-3.1c0-1 .8-1.7 1.8-1.7h1.1c.4 0 .9.2 1.2.5.4.3.6.8.6 1.3v3.1c0 1-.8 1.8-1.8 1.8l-1.1-.1z"/><g><path fill="#484848" d="M134 116.1h1.1c.4 0 .8.3.8.7v3.1c0 .5-.4.8-.8.8H134c-.5 0-.8-.3-.8-.8v-3.1c.1-.4.4-.7.8-.7m.1-2c-1.6 0-2.8 1.2-2.8 2.7v3.1c0 1.6 1.2 2.8 2.8 2.8h1.1c1.5 0 2.8-1.3 2.8-2.8v-3.1c0-.8-.3-1.5-.9-2-.5-.4-1.2-.7-1.9-.7h-1.1z"/></g></g><line fill="#35BFDC" stroke="#484848" stroke-width="2" stroke-miterlimit="22.926" x1="132.6" y1="117.9" x2="123.1" y2="115.7"/></g><g><g><path fill-rule="evenodd" clip-rule="evenodd" fill="#35BFDC" d="M114.9 171.7c-1 0-1.8-.8-1.8-1.8v-3.1c0-.5.2-.9.6-1.3.3-.3.8-.5 1.2-.5h1.1c1 0 1.8.8 1.8 1.7v3.1c0 1-.8 1.8-1.8 1.8l-1.1.1z"/><g><path fill="#484848" d="M116 166.1c.5 0 .8.3.8.7v3.1c0 .5-.3.8-.8.8h-1.1c-.4 0-.8-.3-.8-.8v-3.1c0-.4.4-.7.8-.7h1.1m0-2h-1.1c-.7 0-1.3.2-1.9.7-.6.5-.9 1.3-.9 2v3.1c0 1.5 1.3 2.8 2.8 2.8h1.1c1.6 0 2.8-1.2 2.8-2.8v-3.1c0-1.5-1.3-2.7-2.8-2.7z"/></g></g><line fill="#35BFDC" stroke="#484848" stroke-width="2" stroke-miterlimit="22.926" x1="117.4" y1="167.9" x2="127" y2="165.7"/></g><g><g><path fill-rule="evenodd" clip-rule="evenodd" fill="#35BFDC" d="M64.9 171.7c-1 0-1.8-.8-1.8-1.8v-3.1c0-.5.2-.9.6-1.3.3-.3.8-.5 1.2-.5H66c1 0 1.8.8 1.8 1.7v3.1c0 1-.8 1.8-1.8 1.8l-1.1.1z"/><g><path fill="#484848" d="M66 166.1c.5 0 .8.3.8.7v3.1c0 .5-.3.8-.8.8h-1.1c-.4 0-.8-.3-.8-.8v-3.1c0-.4.4-.7.8-.7H66m0-2h-1.1c-.7 0-1.3.2-1.9.7-.6.5-.9 1.3-.9 2v3.1c0 1.5 1.3 2.8 2.8 2.8H66c1.6 0 2.8-1.2 2.8-2.8v-3.1c0-1.5-1.3-2.7-2.8-2.7z"/></g></g><line fill="#35BFDC" stroke="#484848" stroke-width="2" stroke-miterlimit="22.926" x1="67.4" y1="167.9" x2="77" y2="165.7"/></g><g><g><path fill-rule="evenodd" clip-rule="evenodd" fill="#35BFDC" d="M14.9 171.7c-1 0-1.8-.8-1.8-1.8v-3.1c0-.5.2-.9.6-1.3.3-.3.8-.5 1.2-.5H16c1 0 1.8.8 1.8 1.7v3.1c0 1-.8 1.8-1.8 1.8l-1.1.1z"/><g><path fill="#484848" d="M16 166.1c.5 0 .8.3.8.7v3.1c0 .5-.3.8-.8.8h-1.1c-.4 0-.8-.3-.8-.8v-3.1c0-.4.4-.7.8-.7H16m0-2h-1.1c-.7 0-1.3.2-1.9.7-.6.5-.9 1.3-.9 2v3.1c0 1.5 1.3 2.8 2.8 2.8H16c1.6 0 2.8-1.2 2.8-2.8v-3.1c0-1.5-1.3-2.7-2.8-2.7z"/></g></g><line fill="#35BFDC" stroke="#484848" stroke-width="2" stroke-miterlimit="22.926" x1="17.4" y1="167.9" x2="27" y2="165.7"/></g></svg>