<svg version="1.1" id="Layer_3" xmlns="http://www.w3.org/2000/svg" x="0" y="0" width="150" height="250" viewBox="0 0 150 250" xml:space="preserve"><g><path fill-rule="evenodd" clip-rule="evenodd" fill="#A27556" d="M27.5 48.1c-1.4 0-2.4-1.1-2.4-2.5v-1h6.4v1c0 1.4-1 2.5-2.4 2.5h-1.6z"/><path fill="#4F392A" d="M30.5 45.6c0 .8-.5 1.5-1.4 1.5h-1.6c-.9 0-1.4-.7-1.4-1.5h4.4m2-2h-8.4v2c0 2 1.5 3.5 3.4 3.5h1.6c1.9 0 3.4-1.5 3.4-3.5v-2z"/></g><g><path fill-rule="evenodd" clip-rule="evenodd" fill="#A27556" d="M20.8 45.1c-1.4 0-2.4-1.1-2.4-2.5v-1h6.4v1c0 1.4-1 2.5-2.4 2.5h-1.6z"/><path fill="#4F392A" d="M23.8 42.6c0 .8-.5 1.5-1.4 1.5h-1.6c-.9 0-1.4-.7-1.4-1.5h4.4m2-2h-8.4v2c0 2 1.5 3.5 3.4 3.5h1.6c1.9 0 3.4-1.5 3.4-3.5v-2z"/></g><g><path fill-rule="evenodd" clip-rule="evenodd" fill="#A27556" d="M70.8 48.1c-1.4 0-2.4-1.1-2.4-2.5v-1h6.4v1c0 1.4-1 2.5-2.4 2.5h-1.6z"/><path fill="#4F392A" d="M73.8 45.6c0 .8-.5 1.5-1.4 1.5h-1.6c-.9 0-1.4-.7-1.4-1.5h4.4m2-2h-8.4v2c0 2 1.5 3.5 3.4 3.5h1.6c1.9 0 3.4-1.5 3.4-3.5v-2z"/></g><g><path fill-rule="evenodd" clip-rule="evenodd" fill="#A27556" d="M70.8 98.1c-1.4 0-2.4-1.1-2.4-2.5v-1h6.4v1c0 1.4-1 2.5-2.4 2.5h-1.6z"/><path fill="#4F392A" d="M73.8 95.6c0 .8-.5 1.5-1.4 1.5h-1.6c-.9 0-1.4-.7-1.4-1.5h4.4m2-2h-8.4v2c0 2 1.5 3.5 3.4 3.5h1.6c1.9 0 3.4-1.5 3.4-3.5v-2z"/></g><g><path fill-rule="evenodd" clip-rule="evenodd" fill="#A27556" d="M70.8 248.1c-1.4 0-2.4-1.1-2.4-2.5v-1h6.4v1c0 1.4-1 2.5-2.4 2.5h-1.6z"/><path fill="#4F392A" d="M73.8 245.6c0 .8-.5 1.5-1.4 1.5h-1.6c-.9 0-1.4-.7-1.4-1.5h4.4m2-2h-8.4v2c0 2 1.5 3.5 3.4 3.5h1.6c1.9 0 3.4-1.5 3.4-3.5v-2z"/></g><g><path fill-rule="evenodd" clip-rule="evenodd" fill="#A27556" d="M120.8 248.1c-1.4 0-2.4-1.1-2.4-2.5v-1h6.4v1c0 1.4-1 2.5-2.4 2.5h-1.6z"/><path fill="#4F392A" d="M123.8 245.6c0 .8-.5 1.5-1.4 1.5h-1.6c-.9 0-1.4-.7-1.4-1.5h4.4m2-2h-8.4v2c0 2 1.5 3.5 3.4 3.5h1.6c1.9 0 3.4-1.5 3.4-3.5v-2z"/></g><g><path fill-rule="evenodd" clip-rule="evenodd" fill="#A27556" d="M20.8 248.1c-1.4 0-2.4-1.1-2.4-2.5v-1h6.4v1c0 1.4-1 2.5-2.4 2.5h-1.6z"/><path fill="#4F392A" d="M23.8 245.6c0 .8-.5 1.5-1.4 1.5h-1.6c-.9 0-1.4-.7-1.4-1.5h4.4m2-2h-8.4v2c0 2 1.5 3.5 3.4 3.5h1.6c1.9 0 3.4-1.5 3.4-3.5v-2z"/></g><g><path fill-rule="evenodd" clip-rule="evenodd" fill="#A27556" d="M77.5 48.1c-1.4 0-2.4-1.1-2.4-2.5v-1h6.4v1c0 1.4-1 2.5-2.4 2.5h-1.6z"/><path fill="#4F392A" d="M80.5 45.6c0 .8-.5 1.5-1.4 1.5h-1.6c-.9 0-1.4-.7-1.4-1.5h4.4m2-2h-8.4v2c0 2 1.5 3.5 3.4 3.5h1.6c1.9 0 3.4-1.5 3.4-3.5v-2z"/></g><g><path fill-rule="evenodd" clip-rule="evenodd" fill="#A27556" d="M77.5 98.1c-1.4 0-2.4-1.1-2.4-2.5v-1h6.4v1c0 1.4-1 2.5-2.4 2.5h-1.6z"/><path fill="#4F392A" d="M80.5 95.6c0 .8-.5 1.5-1.4 1.5h-1.6c-.9 0-1.4-.7-1.4-1.5h4.4m2-2h-8.4v2c0 2 1.5 3.5 3.4 3.5h1.6c1.9 0 3.4-1.5 3.4-3.5v-2z"/></g><g><path fill-rule="evenodd" clip-rule="evenodd" fill="#A27556" d="M77.5 248.1c-1.4 0-2.4-1.1-2.4-2.5v-1h6.4v1c0 1.4-1 2.5-2.4 2.5h-1.6z"/><path fill="#4F392A" d="M80.5 245.6c0 .8-.5 1.5-1.4 1.5h-1.6c-.9 0-1.4-.7-1.4-1.5h4.4m2-2h-8.4v2c0 2 1.5 3.5 3.4 3.5h1.6c1.9 0 3.4-1.5 3.4-3.5v-2z"/></g><g><path fill-rule="evenodd" clip-rule="evenodd" fill="#A27556" d="M127.5 248.1c-1.4 0-2.4-1.1-2.4-2.5v-1h6.4v1c0 1.4-1 2.5-2.4 2.5h-1.6z"/><path fill="#4F392A" d="M130.5 245.6c0 .8-.5 1.5-1.4 1.5h-1.6c-.9 0-1.4-.7-1.4-1.5h4.4m2-2h-8.4v2c0 2 1.5 3.5 3.4 3.5h1.6c1.9 0 3.4-1.5 3.4-3.5v-2z"/></g><g><path fill-rule="evenodd" clip-rule="evenodd" fill="#A27556" d="M27.5 248.1c-1.4 0-2.4-1.1-2.4-2.5v-1h6.4v1c0 1.4-1 2.5-2.4 2.5h-1.6z"/><path fill="#4F392A" d="M30.5 245.6c0 .8-.5 1.5-1.4 1.5h-1.6c-.9 0-1.4-.7-1.4-1.5h4.4m2-2h-8.4v2c0 2 1.5 3.5 3.4 3.5h1.6c1.9 0 3.4-1.5 3.4-3.5v-2z"/></g><g><path fill-rule="evenodd" clip-rule="evenodd" fill="#A27556" d="M120.8 48.1c-1.4 0-2.4-1.1-2.4-2.5v-1h6.4v1c0 1.4-1 2.5-2.4 2.5h-1.6z"/><path fill="#4F392A" d="M123.8 45.6c0 .8-.5 1.5-1.4 1.5h-1.6c-.9 0-1.4-.7-1.4-1.5h4.4m2-2h-8.4v2c0 2 1.5 3.5 3.4 3.5h1.6c1.9 0 3.4-1.5 3.4-3.5v-2z"/></g><g><path fill-rule="evenodd" clip-rule="evenodd" fill="#A27556" d="M127.5 45.1c-1.4 0-2.4-1.1-2.4-2.5v-1h6.4v1c0 1.4-1 2.5-2.4 2.5h-1.6z"/><path fill="#4F392A" d="M130.5 42.6c0 .8-.5 1.5-1.4 1.5h-1.6c-.9 0-1.4-.7-1.4-1.5h4.4m2-2h-8.4v2c0 2 1.5 3.5 3.4 3.5h1.6c1.9 0 3.4-1.5 3.4-3.5v-2z"/></g><g><path fill-rule="evenodd" clip-rule="evenodd" fill="#A27556" d="M74.1 148.1c-1.4 0-2.4-1.1-2.4-2.5v-1h6.4v1c0 1.4-1 2.5-2.4 2.5h-1.6z"/><path fill="#4F392A" d="M77.1 145.6c0 .8-.5 1.5-1.4 1.5h-1.6c-.9 0-1.4-.7-1.4-1.5h4.4m2-2h-8.4v2c0 2 1.5 3.5 3.4 3.5h1.6c1.9 0 3.4-1.5 3.4-3.5v-2z"/></g><g><path fill-rule="evenodd" clip-rule="evenodd" fill="#A27556" d="M74.1 198.1c-1.4 0-2.4-1.1-2.4-2.5v-1h6.4v1c0 1.4-1 2.5-2.4 2.5h-1.6z"/><path fill="#4F392A" d="M77.1 195.6c0 .8-.5 1.5-1.4 1.5h-1.6c-.9 0-1.4-.7-1.4-1.5h4.4m2-2h-8.4v2c0 2 1.5 3.5 3.4 3.5h1.6c1.9 0 3.4-1.5 3.4-3.5v-2z"/></g><g><path fill-rule="evenodd" clip-rule="evenodd" fill="#A27556" d="M27.5 95.1c-1.4 0-2.4-1.1-2.4-2.5v-1h6.4v1c0 1.4-1 2.5-2.4 2.5h-1.6z"/><path fill="#4F392A" d="M30.5 92.6c0 .8-.5 1.5-1.4 1.5h-1.6c-.9 0-1.4-.7-1.4-1.5h4.4m2-2h-8.4v2c0 2 1.5 3.5 3.4 3.5h1.6c1.9 0 3.4-1.5 3.4-3.5v-2z"/></g><g><path fill-rule="evenodd" clip-rule="evenodd" fill="#A27556" d="M120.8 95.1c-1.4 0-2.4-1.1-2.4-2.5v-1h6.4v1c0 1.4-1 2.5-2.4 2.5h-1.6z"/><path fill="#4F392A" d="M123.8 92.6c0 .8-.5 1.5-1.4 1.5h-1.6c-.9 0-1.4-.7-1.4-1.5h4.4m2-2h-8.4v2c0 2 1.5 3.5 3.4 3.5h1.6c1.9 0 3.4-1.5 3.4-3.5v-2z"/></g><g><path fill-rule="evenodd" clip-rule="evenodd" fill="#A27556" d="M20.8 98.1c-1.4 0-2.4-1.1-2.4-2.5v-1h6.4v1c0 1.4-1 2.5-2.4 2.5h-1.6z"/><path fill="#4F392A" d="M23.8 95.6c0 .8-.5 1.5-1.4 1.5h-1.6c-.9 0-1.4-.7-1.4-1.5h4.4m2-2h-8.4v2c0 2 1.5 3.5 3.4 3.5h1.6c1.9 0 3.4-1.5 3.4-3.5v-2z"/></g><g><path fill-rule="evenodd" clip-rule="evenodd" fill="#A27556" d="M21.8 147.5c-.5 0-1-.2-1.4-.4l-1.3-.9c-1.1-.8-1.4-2.3-.5-3.4l.6-.8 5.2 3.7-.6.8c-.4.6-1.2 1-2 1z"/><path fill="#4F392A" d="M19.4 143.3l3.6 2.5c-.3.4-.8.7-1.2.7-.3 0-.5-.1-.8-.3l-1.3-.9c-.7-.5-.7-1.3-.3-2m-.5-2.8l-1.1 1.6c-1.1 1.6-.8 3.7.8 4.8l1.3.9c.6.4 1.3.6 1.9.6 1.1 0 2.2-.6 2.9-1.5l1.1-1.6-1.6-1.1-3.6-2.5-1.7-1.2z"/></g><g><path fill-rule="evenodd" clip-rule="evenodd" fill="#A27556" d="M21.8 197.5c-.5 0-1-.2-1.4-.4l-1.3-.9c-1.1-.8-1.4-2.3-.5-3.4l.6-.8 5.2 3.7-.6.8c-.4.6-1.2 1-2 1z"/><path fill="#4F392A" d="M19.4 193.3l3.6 2.5c-.3.4-.8.7-1.2.7-.3 0-.5-.1-.8-.3l-1.3-.9c-.7-.5-.7-1.3-.3-2m-.5-2.8l-1.1 1.6c-1.1 1.6-.8 3.7.8 4.8l1.3.9c.6.4 1.3.6 1.9.6 1.1 0 2.2-.6 2.9-1.5l1.1-1.6-1.6-1.1-3.6-2.5-1.7-1.2z"/></g><g><path fill-rule="evenodd" clip-rule="evenodd" fill="#A27556" d="M121.8 147.5c-.5 0-1-.2-1.4-.4l-1.3-.9c-1.1-.8-1.4-2.3-.5-3.4l.6-.8 5.2 3.7-.6.8c-.4.6-1.2 1-2 1z"/><path fill="#4F392A" d="M119.4 143.3l3.6 2.5c-.3.4-.8.7-1.2.7-.3 0-.5-.1-.8-.3l-1.3-.9c-.7-.5-.7-1.3-.3-2m-.4-2.8l-1.1 1.6c-1.1 1.6-.8 3.7.8 4.8l1.3.9c.6.4 1.3.6 1.9.6 1.1 0 2.2-.6 2.9-1.5l1.1-1.6-1.6-1.1-3.6-2.5-1.7-1.2z"/></g><g><path fill-rule="evenodd" clip-rule="evenodd" fill="#A27556" d="M121.8 197.5c-.5 0-1-.2-1.4-.4l-1.3-.9c-1.1-.8-1.4-2.3-.5-3.4l.6-.8 5.2 3.7-.6.8c-.4.6-1.2 1-2 1z"/><path fill="#4F392A" d="M119.4 193.3l3.6 2.5c-.3.4-.8.7-1.2.7-.3 0-.5-.1-.8-.3l-1.3-.9c-.7-.5-.7-1.3-.3-2m-.4-2.8l-1.1 1.6c-1.1 1.6-.8 3.7.8 4.8l1.3.9c.6.4 1.3.6 1.9.6 1.1 0 2.2-.6 2.9-1.5l1.1-1.6-1.6-1.1-3.6-2.5-1.7-1.2z"/></g><g><path fill-rule="evenodd" clip-rule="evenodd" fill="#A27556" d="M28.2 147.5c-.8 0-1.6-.4-2-1.1l-.6-.8 5.2-3.7.6.8c.4.6.6 1.3.5 1.9-.1.6-.5 1.2-1 1.5l-1.3.9c-.5.3-1 .5-1.4.5z"/><path fill="#4F392A" d="M30.5 143.3c.5.7.4 1.6-.3 2l-1.3.9c-.3.2-.5.3-.8.3-.5 0-.9-.3-1.2-.7l3.6-2.5m.5-2.8l-1.6 1.1-3.6 2.5-1.6 1.1 1.1 1.6c.7 1 1.7 1.5 2.9 1.5.7 0 1.4-.2 1.9-.6l1.3-.9c.7-.5 1.2-1.3 1.4-2.2.2-.9-.1-1.9-.6-2.7l-1.2-1.4z"/></g><g><path fill-rule="evenodd" clip-rule="evenodd" fill="#A27556" d="M28.2 197.5c-.8 0-1.6-.4-2-1.1l-.6-.8 5.2-3.7.6.8c.4.6.6 1.3.5 1.9-.1.6-.5 1.2-1 1.5l-1.3.9c-.5.3-1 .5-1.4.5z"/><path fill="#4F392A" d="M30.5 193.3c.5.7.4 1.6-.3 2l-1.3.9c-.3.2-.5.3-.8.3-.5 0-.9-.3-1.2-.7l3.6-2.5m.5-2.8l-1.6 1.1-3.6 2.5-1.6 1.1 1.1 1.6c.7 1 1.7 1.5 2.9 1.5.7 0 1.4-.2 1.9-.6l1.3-.9c.7-.5 1.2-1.3 1.4-2.2.2-.9-.1-1.9-.6-2.7l-1.2-1.4z"/></g><g><path fill-rule="evenodd" clip-rule="evenodd" fill="#A27556" d="M128.2 147.5c-.8 0-1.6-.4-2-1.1l-.6-.8 5.2-3.7.6.8c.8 1.2.6 2.7-.5 3.4l-1.3.9c-.5.3-1 .5-1.4.5z"/><path fill="#4F392A" d="M130.5 143.3c.5.7.4 1.6-.3 2l-1.3.9c-.3.2-.5.3-.8.3-.5 0-.9-.3-1.2-.7l3.6-2.5m.5-2.8l-1.6 1.2-3.6 2.5-1.6 1.1 1.2 1.6c.7 1 1.7 1.5 2.9 1.5.7 0 1.4-.2 1.9-.6l1.3-.9c1.6-1.1 1.9-3.2.8-4.8l-1.3-1.6z"/></g><g><path fill-rule="evenodd" clip-rule="evenodd" fill="#A27556" d="M128.2 197.5c-.8 0-1.6-.4-2-1.1l-.6-.8 5.2-3.7.6.8c.8 1.2.6 2.7-.5 3.4l-1.3.9c-.5.3-1 .5-1.4.5z"/><path fill="#4F392A" d="M130.5 193.3c.5.7.4 1.6-.3 2l-1.3.9c-.3.2-.5.3-.8.3-.5 0-.9-.3-1.2-.7l3.6-2.5m.5-2.8l-1.6 1.2-3.6 2.5-1.6 1.1 1.2 1.6c.7 1 1.7 1.5 2.9 1.5.7 0 1.4-.2 1.9-.6l1.3-.9c1.6-1.1 1.9-3.2.8-4.8l-1.3-1.6z"/></g><g><path fill-rule="evenodd" clip-rule="evenodd" fill="#A27556" d="M127.5 98.1c-1.4 0-2.4-1.1-2.4-2.5v-1h6.4v1c0 1.4-1 2.5-2.4 2.5h-1.6z"/><path fill="#4F392A" d="M130.5 95.6c0 .8-.5 1.5-1.4 1.5h-1.6c-.9 0-1.4-.7-1.4-1.5h4.4m2-2h-8.4v2c0 2 1.5 3.5 3.4 3.5h1.6c1.9 0 3.4-1.5 3.4-3.5v-2z"/></g></svg>