<?xml version="1.0" encoding="utf-8"?>
<!-- Generator: Adobe Illustrator 16.0.0, SVG Export Plug-In . SVG Version: 6.00 Build 0)  -->
<!DOCTYPE svg PUBLIC "-//W3C//DTD SVG 1.1//EN" "http://www.w3.org/Graphics/SVG/1.1/DTD/svg11.dtd">
<svg version="1.1" id="Layer_3" xmlns="http://www.w3.org/2000/svg" xmlns:xlink="http://www.w3.org/1999/xlink" x="0px" y="0px"
	 width="150px" height="250px" viewBox="0 0 150 250" enable-background="new 0 0 150 250" xml:space="preserve">
<g>
	<g>
		<path fill-rule="evenodd" clip-rule="evenodd" fill="#BBBBBB" d="M27.499,48.14c-1.373,0-2.408-1.08-2.408-2.512v-1h6.387v1
			c0,1.432-1.035,2.512-2.408,2.512H27.499z"/>
	</g>
	<g>
		<path fill="#484848" d="M30.478,45.628c0,0.828-0.543,1.512-1.408,1.512h-1.571c-0.862,0-1.408-0.684-1.408-1.512H30.478
			 M32.478,43.628h-2h-4.387h-2v2c0,1.969,1.497,3.512,3.408,3.512h1.571c1.911,0,3.408-1.542,3.408-3.512V43.628L32.478,43.628z"/>
	</g>
</g>
<g>
	<g>
		<path fill-rule="evenodd" clip-rule="evenodd" fill="#BBBBBB" d="M20.783,45.139c-1.373,0-2.408-1.081-2.408-2.514v-1h6.384v1
			c0,1.433-1.035,2.514-2.408,2.514H20.783z"/>
	</g>
	<g>
		<path fill="#484848" d="M23.76,42.625c0,0.83-0.543,1.514-1.408,1.514h-1.569c-0.865,0-1.408-0.686-1.408-1.514H23.76
			 M25.76,40.625h-2h-4.384h-2v2c0,1.97,1.497,3.514,3.408,3.514h1.569c1.911,0,3.408-1.543,3.408-3.514V40.625L25.76,40.625z"/>
	</g>
</g>
<g>
	<g>
		<path fill-rule="evenodd" clip-rule="evenodd" fill="#BBBBBB" d="M70.782,48.14c-1.373,0-2.408-1.08-2.408-2.512v-1h6.386v1
			c0,1.432-1.035,2.512-2.408,2.512H70.782z"/>
	</g>
	<g>
		<path fill="#484848" d="M73.76,45.628c0,0.828-0.543,1.512-1.408,1.512h-1.571c-0.862,0-1.408-0.684-1.408-1.512H73.76
			 M75.76,43.628h-2h-4.386h-2v2c0,1.969,1.497,3.512,3.408,3.512h1.571c1.911,0,3.408-1.542,3.408-3.512V43.628L75.76,43.628z"/>
	</g>
</g>
<g>
	<g>
		<path fill-rule="evenodd" clip-rule="evenodd" fill="#BBBBBB" d="M70.782,98.14c-1.373,0-2.408-1.081-2.408-2.514v-1h6.386v1
			c0,1.433-1.035,2.514-2.408,2.514H70.782z"/>
	</g>
	<g>
		<path fill="#484848" d="M73.76,95.626c0,0.83-0.543,1.514-1.408,1.514h-1.571c-0.862,0-1.408-0.686-1.408-1.514H73.76
			 M75.76,93.626h-2h-4.386h-2v2c0,1.97,1.497,3.514,3.408,3.514h1.571c1.911,0,3.408-1.543,3.408-3.514V93.626L75.76,93.626z"/>
	</g>
</g>
<g>
	<g>
		<path fill-rule="evenodd" clip-rule="evenodd" fill="#BBBBBB" d="M70.782,248.14c-1.373,0-2.408-1.081-2.408-2.514v-1h6.386v1
			c0,1.433-1.035,2.514-2.408,2.514H70.782z"/>
	</g>
	<g>
		<path fill="#484848" d="M73.76,245.626c0,0.83-0.543,1.514-1.408,1.514h-1.571c-0.862,0-1.408-0.688-1.408-1.514H73.76
			 M75.76,243.626h-2h-4.386h-2v2c0,1.971,1.497,3.514,3.408,3.514h1.571c1.911,0,3.408-1.543,3.408-3.514V243.626L75.76,243.626z"
			/>
	</g>
</g>
<g>
	<g>
		<path fill-rule="evenodd" clip-rule="evenodd" fill="#BBBBBB" d="M120.784,248.14c-1.372,0-2.407-1.081-2.407-2.514v-1h6.382v1
			c0,1.433-1.035,2.514-2.407,2.514H120.784z"/>
	</g>
	<g>
		<path fill="#484848" d="M123.759,245.626c0,0.83-0.541,1.514-1.407,1.514h-1.567c-0.866,0-1.407-0.688-1.407-1.514H123.759
			 M125.759,243.626h-2h-4.382h-2v2c0,1.971,1.497,3.514,3.407,3.514h1.567c1.91,0,3.407-1.543,3.407-3.514V243.626L125.759,243.626
			z"/>
	</g>
</g>
<g>
	<g>
		<path fill-rule="evenodd" clip-rule="evenodd" fill="#BBBBBB" d="M20.783,248.14c-1.373,0-2.408-1.081-2.408-2.514v-1h6.384v1
			c0,1.433-1.035,2.514-2.408,2.514H20.783z"/>
	</g>
	<g>
		<path fill="#484848" d="M23.76,245.626c0,0.83-0.543,1.514-1.408,1.514h-1.569c-0.865,0-1.408-0.688-1.408-1.514H23.76
			 M25.76,243.626h-2h-4.384h-2v2c0,1.971,1.497,3.514,3.408,3.514h1.569c1.911,0,3.408-1.543,3.408-3.514V243.626L25.76,243.626z"
			/>
	</g>
</g>
<g>
	<g>
		<path fill-rule="evenodd" clip-rule="evenodd" fill="#BBBBBB" d="M77.498,48.14c-1.373,0-2.408-1.08-2.408-2.512v-1h6.387v1
			c0,1.432-1.035,2.512-2.408,2.512H77.498z"/>
	</g>
	<g>
		<path fill="#484848" d="M80.477,45.628c0,0.828-0.545,1.512-1.408,1.512h-1.57c-0.863,0-1.408-0.684-1.408-1.512H80.477
			 M82.477,43.628h-2H76.09h-2v2c0,1.969,1.497,3.512,3.408,3.512h1.57c1.911,0,3.408-1.542,3.408-3.512V43.628L82.477,43.628z"/>
	</g>
</g>
<g>
	<g>
		<path fill-rule="evenodd" clip-rule="evenodd" fill="#BBBBBB" d="M77.498,98.14c-1.373,0-2.408-1.081-2.408-2.514v-1h6.387v1
			c0,1.433-1.035,2.514-2.408,2.514H77.498z"/>
	</g>
	<g>
		<path fill="#484848" d="M80.477,95.626c0,0.83-0.545,1.514-1.408,1.514h-1.57c-0.863,0-1.408-0.686-1.408-1.514H80.477
			 M82.477,93.626h-2H76.09h-2v2c0,1.97,1.497,3.514,3.408,3.514h1.57c1.911,0,3.408-1.543,3.408-3.514V93.626L82.477,93.626z"/>
	</g>
</g>
<g>
	<g>
		<path fill-rule="evenodd" clip-rule="evenodd" fill="#BBBBBB" d="M77.498,248.14c-1.373,0-2.408-1.081-2.408-2.514v-1h6.387v1
			c0,1.433-1.035,2.514-2.408,2.514H77.498z"/>
	</g>
	<g>
		<path fill="#484848" d="M80.477,245.626c0,0.83-0.545,1.514-1.408,1.514h-1.57c-0.863,0-1.408-0.688-1.408-1.514H80.477
			 M82.477,243.626h-2H76.09h-2v2c0,1.971,1.497,3.514,3.408,3.514h1.57c1.911,0,3.408-1.543,3.408-3.514V243.626L82.477,243.626z"
			/>
	</g>
</g>
<g>
	<g>
		<path fill-rule="evenodd" clip-rule="evenodd" fill="#BBBBBB" d="M127.499,248.14c-1.373,0-2.408-1.081-2.408-2.514v-1h6.387v1
			c0,1.433-1.035,2.514-2.408,2.514H127.499z"/>
	</g>
	<g>
		<path fill="#484848" d="M130.478,245.626c0,0.83-0.546,1.514-1.408,1.514h-1.57c-0.863,0-1.408-0.688-1.408-1.514H130.478
			 M132.478,243.626h-2h-4.387h-2v2c0,1.971,1.497,3.514,3.408,3.514h1.57c1.911,0,3.408-1.543,3.408-3.514V243.626L132.478,243.626
			z"/>
	</g>
</g>
<g>
	<g>
		<path fill-rule="evenodd" clip-rule="evenodd" fill="#BBBBBB" d="M27.499,248.14c-1.373,0-2.408-1.081-2.408-2.514v-1h6.384v1
			c0,1.433-1.035,2.514-2.408,2.514H27.499z"/>
	</g>
	<g>
		<path fill="#484848" d="M30.476,245.626c0,0.83-0.543,1.514-1.408,1.514h-1.569c-0.864,0-1.408-0.688-1.408-1.514H30.476
			 M32.476,243.626h-2h-4.384h-2v2c0,1.971,1.497,3.514,3.408,3.514h1.569c1.911,0,3.408-1.543,3.408-3.514V243.626L32.476,243.626z
			"/>
	</g>
</g>
<g>
	<g>
		<path fill-rule="evenodd" clip-rule="evenodd" fill="#BBBBBB" d="M120.784,48.14c-1.372,0-2.407-1.08-2.407-2.512v-1h6.382v1
			c0,1.432-1.035,2.512-2.407,2.512H120.784z"/>
	</g>
	<g>
		<path fill="#484848" d="M123.759,45.628c0,0.828-0.541,1.512-1.407,1.512h-1.567c-0.866,0-1.407-0.684-1.407-1.512H123.759
			 M125.759,43.628h-2h-4.382h-2v2c0,1.969,1.497,3.512,3.407,3.512h1.567c1.91,0,3.407-1.542,3.407-3.512V43.628L125.759,43.628z"
			/>
	</g>
</g>
<g>
	<g>
		<path fill-rule="evenodd" clip-rule="evenodd" fill="#BBBBBB" d="M127.499,45.139c-1.373,0-2.408-1.081-2.408-2.514v-1h6.387v1
			c0,1.433-1.035,2.514-2.408,2.514H127.499z"/>
	</g>
	<g>
		<path fill="#484848" d="M130.478,42.625c0,0.83-0.542,1.514-1.408,1.514h-1.57c-0.863,0-1.408-0.686-1.408-1.514H130.478
			 M132.478,40.625h-2h-4.387h-2v2c0,1.97,1.497,3.514,3.408,3.514h1.57c1.911,0,3.408-1.543,3.408-3.514V40.625L132.478,40.625z"/>
	</g>
</g>
<g>
	<g>
		<path fill-rule="evenodd" clip-rule="evenodd" fill="#BBBBBB" d="M74.143,148.14c-1.374,0-2.41-1.081-2.41-2.514v-1h6.386v1
			c0,1.433-1.035,2.514-2.408,2.514H74.143z"/>
	</g>
	<g>
		<path fill="#484848" d="M77.119,145.626c0,0.83-0.543,1.514-1.408,1.514h-1.568c-0.865,0-1.41-0.684-1.41-1.514H77.119
			 M79.119,143.626h-2h-4.386h-2v2c0,1.971,1.498,3.514,3.41,3.514h1.568c1.911,0,3.408-1.543,3.408-3.514V143.626L79.119,143.626z"
			/>
	</g>
</g>
<g>
	<g>
		<path fill-rule="evenodd" clip-rule="evenodd" fill="#BBBBBB" d="M74.143,198.14c-1.374,0-2.41-1.081-2.41-2.514v-1h6.386v1
			c0,1.433-1.035,2.514-2.408,2.514H74.143z"/>
	</g>
	<g>
		<path fill="#484848" d="M77.119,195.626c0,0.83-0.543,1.514-1.408,1.514h-1.568c-0.865,0-1.41-0.688-1.41-1.514H77.119
			 M79.119,193.626h-2h-4.386h-2v2c0,1.971,1.498,3.514,3.41,3.514h1.568c1.911,0,3.408-1.543,3.408-3.514V193.626L79.119,193.626z"
			/>
	</g>
</g>
<g>
	<g>
		<path fill-rule="evenodd" clip-rule="evenodd" fill="#BBBBBB" d="M27.499,95.139c-1.373,0-2.408-1.081-2.408-2.514v-1h6.387v1
			c0,1.433-1.035,2.514-2.408,2.514H27.499z"/>
	</g>
	<g>
		<path fill="#484848" d="M30.478,92.625c0,0.83-0.543,1.514-1.408,1.514h-1.571c-0.862,0-1.408-0.686-1.408-1.514H30.478
			 M32.478,90.625h-2h-4.387h-2v2c0,1.97,1.497,3.514,3.408,3.514h1.571c1.911,0,3.408-1.543,3.408-3.514V90.625L32.478,90.625z"/>
	</g>
</g>
<g>
	<g>
		<path fill-rule="evenodd" clip-rule="evenodd" fill="#BBBBBB" d="M120.784,95.139c-1.372,0-2.407-1.081-2.407-2.514v-1h6.382v1
			c0,1.433-1.035,2.514-2.407,2.514H120.784z"/>
	</g>
	<g>
		<path fill="#484848" d="M123.759,92.625c0,0.828-0.541,1.514-1.407,1.514h-1.567c-0.866,0-1.407-0.684-1.407-1.514H123.759
			 M125.759,90.625h-2h-4.382h-2v2c0,1.97,1.497,3.514,3.407,3.514h1.567c1.91,0,3.407-1.543,3.407-3.514V90.625L125.759,90.625z"/>
	</g>
</g>
<g>
	<g>
		<path fill-rule="evenodd" clip-rule="evenodd" fill="#BBBBBB" d="M20.783,98.14c-1.373,0-2.408-1.081-2.408-2.514v-1h6.384v1
			c0,1.433-1.035,2.514-2.408,2.514H20.783z"/>
	</g>
	<g>
		<path fill="#484848" d="M23.76,95.626c0,0.83-0.543,1.514-1.408,1.514h-1.569c-0.865,0-1.408-0.686-1.408-1.514H23.76
			 M25.76,93.626h-2h-4.384h-2v2c0,1.97,1.497,3.514,3.408,3.514h1.569c1.911,0,3.408-1.543,3.408-3.514V93.626L25.76,93.626z"/>
	</g>
</g>
<g>
	<g>
		<path fill-rule="evenodd" clip-rule="evenodd" fill="#BBBBBB" d="M21.81,147.493c-0.482,0-0.955-0.153-1.367-0.442l-1.284-0.898
			c-1.122-0.788-1.352-2.266-0.534-3.438l0.573-0.822l5.234,3.662l-0.574,0.819C23.366,147.075,22.601,147.493,21.81,147.493
			L21.81,147.493z"/>
	</g>
	<g>
		<path fill="#484848" d="M19.444,143.286l3.593,2.515c-0.304,0.435-0.757,0.692-1.228,0.692c-0.266,0-0.538-0.082-0.792-0.261
			l-1.286-0.899C19.023,144.836,18.971,143.966,19.444,143.286 M18.949,140.498l-1.146,1.645c-1.142,1.639-0.807,3.714,0.779,4.827
			l1.289,0.901c0.578,0.406,1.25,0.622,1.939,0.622c1.117,0,2.188-0.577,2.866-1.545l1.148-1.639l-1.639-1.147l-3.594-2.515
			L18.949,140.498L18.949,140.498z"/>
	</g>
</g>
<g>
	<g>
		<path fill-rule="evenodd" clip-rule="evenodd" fill="#BBBBBB" d="M21.81,197.493c-0.482,0-0.955-0.153-1.367-0.442l-1.284-0.898
			c-1.122-0.788-1.352-2.266-0.534-3.438l0.573-0.822l5.234,3.662l-0.574,0.819C23.366,197.075,22.601,197.493,21.81,197.493
			L21.81,197.493z"/>
	</g>
	<g>
		<path fill="#484848" d="M19.444,193.286l3.593,2.515c-0.304,0.435-0.757,0.692-1.228,0.692c-0.266,0-0.538-0.082-0.792-0.261
			l-1.286-0.899C19.023,194.836,18.971,193.966,19.444,193.286 M18.949,190.498l-1.146,1.645c-1.142,1.639-0.807,3.714,0.779,4.827
			l1.289,0.901c0.578,0.406,1.25,0.622,1.939,0.622c1.117,0,2.188-0.577,2.866-1.545l1.148-1.639l-1.639-1.147l-3.594-2.515
			L18.949,190.498L18.949,190.498z"/>
	</g>
</g>
<g>
	<g>
		<path fill-rule="evenodd" clip-rule="evenodd" fill="#BBBBBB" d="M121.811,147.493c-0.482,0-0.955-0.152-1.368-0.441l-1.285-0.899
			c-1.124-0.789-1.352-2.268-0.529-3.44l0.573-0.818l5.231,3.662l-0.575,0.819C123.367,147.075,122.602,147.493,121.811,147.493
			L121.811,147.493z"/>
	</g>
	<g>
		<path fill="#484848" d="M119.446,143.286l3.593,2.515c-0.305,0.435-0.757,0.692-1.229,0.692c-0.267,0-0.539-0.082-0.794-0.261
			l-1.286-0.899C119.022,144.836,118.97,143.966,119.446,143.286 M118.956,140.502l-1.147,1.636
			c-1.13,1.612-0.791,3.734,0.772,4.832l1.289,0.901c0.581,0.407,1.252,0.622,1.94,0.622c1.116,0,2.188-0.577,2.866-1.544
			l1.149-1.639l-1.641-1.148l-3.593-2.515L118.956,140.502L118.956,140.502z"/>
	</g>
</g>
<g>
	<g>
		<path fill-rule="evenodd" clip-rule="evenodd" fill="#BBBBBB" d="M121.811,197.493c-0.482,0-0.955-0.152-1.368-0.441l-1.285-0.899
			c-1.124-0.789-1.352-2.268-0.529-3.44l0.573-0.818l5.231,3.662l-0.575,0.819C123.367,197.075,122.602,197.493,121.811,197.493
			L121.811,197.493z"/>
	</g>
	<g>
		<path fill="#484848" d="M119.446,193.286l3.593,2.515c-0.305,0.435-0.757,0.692-1.229,0.692c-0.267,0-0.539-0.082-0.794-0.261
			l-1.286-0.899C119.022,194.836,118.97,193.966,119.446,193.286 M118.956,190.502l-1.147,1.636
			c-1.13,1.612-0.791,3.734,0.772,4.832l1.289,0.901c0.581,0.407,1.252,0.622,1.94,0.622c1.116,0,2.188-0.577,2.866-1.544
			l1.149-1.639l-1.641-1.148l-3.593-2.515L118.956,190.502L118.956,190.502z"/>
	</g>
</g>
<g>
	<g>
		<path fill-rule="evenodd" clip-rule="evenodd" fill="#BBBBBB" d="M28.151,147.461c-0.791,0-1.556-0.418-2.047-1.118l-0.574-0.819
			l5.232-3.667l0.574,0.821c0.409,0.585,0.569,1.268,0.453,1.922c-0.109,0.611-0.46,1.15-0.989,1.518l-1.282,0.9
			C29.107,147.308,28.634,147.461,28.151,147.461z"/>
	</g>
	<g>
		<path fill="#484848" d="M30.517,143.25c0.474,0.679,0.421,1.554-0.287,2.046l-1.286,0.903c-0.254,0.18-0.527,0.262-0.792,0.262
			c-0.471,0-0.924-0.259-1.228-0.692L30.517,143.25 M31.009,140.463l-1.64,1.149l-3.593,2.519l-1.638,1.148l1.149,1.638
			c0.678,0.967,1.749,1.544,2.865,1.544c0.69,0,1.362-0.217,1.944-0.626l1.284-0.902c0.74-0.515,1.238-1.282,1.394-2.157
			c0.164-0.918-0.055-1.866-0.617-2.671L31.009,140.463L31.009,140.463z"/>
	</g>
</g>
<g>
	<g>
		<path fill-rule="evenodd" clip-rule="evenodd" fill="#BBBBBB" d="M28.151,197.461c-0.791,0-1.556-0.418-2.047-1.118l-0.574-0.819
			l5.232-3.667l0.574,0.821c0.409,0.585,0.569,1.268,0.453,1.922c-0.109,0.611-0.46,1.15-0.989,1.518l-1.282,0.9
			C29.107,197.308,28.634,197.461,28.151,197.461z"/>
	</g>
	<g>
		<path fill="#484848" d="M30.517,193.25c0.474,0.679,0.421,1.554-0.287,2.046l-1.286,0.903c-0.254,0.18-0.527,0.262-0.792,0.262
			c-0.471,0-0.924-0.259-1.228-0.692L30.517,193.25 M31.009,190.463l-1.64,1.149l-3.593,2.519l-1.638,1.148l1.149,1.638
			c0.678,0.967,1.749,1.544,2.865,1.544c0.69,0,1.362-0.217,1.944-0.626l1.284-0.902c0.74-0.515,1.238-1.282,1.394-2.157
			c0.164-0.918-0.055-1.866-0.617-2.671L31.009,190.463L31.009,190.463z"/>
	</g>
</g>
<g>
	<g>
		<path fill-rule="evenodd" clip-rule="evenodd" fill="#BBBBBB" d="M128.152,147.461c-0.79,0-1.555-0.418-2.046-1.118l-0.575-0.818
			l5.233-3.669l0.573,0.823c0.818,1.175,0.59,2.651-0.531,3.437l-1.29,0.903C129.108,147.307,128.635,147.461,128.152,147.461z"/>
	</g>
	<g>
		<path fill="#484848" d="M130.518,143.25c0.473,0.679,0.419,1.554-0.284,2.046l-1.29,0.903c-0.254,0.18-0.525,0.262-0.791,0.262
			c-0.471,0-0.923-0.259-1.228-0.692L130.518,143.25 M131.013,140.461l-1.644,1.151l-3.593,2.519l-1.639,1.148l1.15,1.639
			c0.679,0.966,1.749,1.543,2.864,1.543c0.69,0,1.363-0.217,1.944-0.628l1.284-0.898c1.561-1.093,1.902-3.213,0.778-4.827
			L131.013,140.461L131.013,140.461z"/>
	</g>
</g>
<g>
	<g>
		<path fill-rule="evenodd" clip-rule="evenodd" fill="#BBBBBB" d="M128.152,197.461c-0.79,0-1.555-0.418-2.046-1.118l-0.575-0.818
			l5.233-3.669l0.573,0.823c0.818,1.175,0.59,2.651-0.531,3.437l-1.29,0.903C129.108,197.307,128.635,197.461,128.152,197.461z"/>
	</g>
	<g>
		<path fill="#484848" d="M130.518,193.25c0.473,0.679,0.419,1.554-0.284,2.046l-1.29,0.903c-0.254,0.18-0.525,0.262-0.791,0.262
			c-0.471,0-0.923-0.259-1.228-0.692L130.518,193.25 M131.013,190.461l-1.644,1.151l-3.593,2.519l-1.639,1.148l1.15,1.639
			c0.679,0.966,1.749,1.543,2.864,1.543c0.69,0,1.363-0.217,1.944-0.628l1.284-0.898c1.561-1.093,1.902-3.213,0.778-4.827
			L131.013,190.461L131.013,190.461z"/>
	</g>
</g>
<g>
	<g>
		<path fill-rule="evenodd" clip-rule="evenodd" fill="#BBBBBB" d="M127.499,98.14c-1.373,0-2.408-1.081-2.408-2.514v-1h6.387v1
			c0,1.433-1.035,2.514-2.408,2.514H127.499z"/>
	</g>
	<g>
		<path fill="#484848" d="M130.478,95.626c0,0.828-0.546,1.514-1.408,1.514h-1.57c-0.863,0-1.408-0.684-1.408-1.514H130.478
			 M132.478,93.626h-2h-4.387h-2v2c0,1.97,1.497,3.514,3.408,3.514h1.57c1.911,0,3.408-1.543,3.408-3.514V93.626L132.478,93.626z"/>
	</g>
</g>
</svg>
