<svg version="1.1" id="Layer_3" xmlns="http://www.w3.org/2000/svg" x="0" y="0" width="150" height="250" viewBox="0 0 150 250" xml:space="preserve"><path fill-rule="evenodd" clip-rule="evenodd" fill="#4F392A" d="M35 25.3c-1.4 2.4-5.4 10.8-10.1 10.8v-6.7c1.8 0 3.5-.5 3.5-1.6s-1.8-1.6-3.5-1.6v-1.8c1.8 0 4.4.2 4.8 1.9 2.4-.3 3.6-.1 5.3-1zM24.9 36.1c-4.7 0-8.7-8.3-10.1-10.8 1.8 1 2.9.7 5.3 1.1.4-1.7 3-1.9 4.8-1.9v1.8c-1.8 0-3.5.5-3.5 1.6s1.8 1.6 3.5 1.6v6.6z"/><path fill-rule="evenodd" clip-rule="evenodd" fill="#4F392A" d="M35 225.3c-1.4 2.5-5.4 10.8-10.1 10.8v-6.7c1.8 0 3.5-.5 3.5-1.6s-1.8-1.6-3.5-1.6v-1.8c1.8 0 4.4.2 4.8 1.9 2.4-.3 3.6-.1 5.3-1zm-10.1 10.8c-4.7 0-8.7-8.3-10.1-10.8 1.8 1 2.9.7 5.3 1.1.4-1.7 3-1.9 4.8-1.9v1.8c-1.8 0-3.5.5-3.5 1.6s1.8 1.6 3.5 1.6v6.6z"/><path opacity=".96" fill-rule="evenodd" clip-rule="evenodd" fill="#3E2D21" d="M27.4 35.3c-.8.5-1.6.7-2.5.7-4.7 0-8.7-8.3-10.1-10.8 3.4 3.9 7 7.6 12.6 10.1z"/><path opacity=".96" fill-rule="evenodd" clip-rule="evenodd" fill="#3E2D21" d="M27.4 235.3c-.8.5-1.6.7-2.5.7-4.7 0-8.7-8.3-10.1-10.8 3.4 3.9 7 7.6 12.6 10.1z"/><path fill-rule="evenodd" clip-rule="evenodd" fill="#4F392A" d="M85 25.3c-1.4 2.4-5.4 10.8-10.1 10.8v-6.8c1.9 0 3.5-.1 3.5-1.5s-1.6-1.5-3.5-1.5v-1.9c1.8 0 4.4.2 4.8 1.9 2.4-.3 3.6-.1 5.3-1zM74.9 36.1c-4.7 0-8.7-8.3-10.1-10.8 1.8 1 2.9.7 5.3 1.1.4-1.7 3-1.9 4.8-1.9v1.9c-1.9 0-3.5.1-3.5 1.5s1.6 1.5 3.5 1.5v6.7z"/><path fill-rule="evenodd" clip-rule="evenodd" fill="#4F392A" d="M85 225.3c-1.4 2.5-5.4 10.8-10.1 10.8v-6.8c1.9 0 3.5-.1 3.5-1.5s-1.6-1.5-3.5-1.5v-1.9c1.8 0 4.4.2 4.8 1.9 2.4-.3 3.6-.1 5.3-1zm-10.1 10.8c-4.7 0-8.7-8.3-10.1-10.8 1.8 1 2.9.7 5.3 1.1.4-1.7 3-1.9 4.8-1.9v1.9c-1.9 0-3.5.1-3.5 1.5s1.6 1.5 3.5 1.5v6.7z"/><path fill-rule="evenodd" clip-rule="evenodd" fill="#4F392A" d="M135 25.3c-1.4 2.4-5.4 10.8-10.1 10.8v-6.8c1.9 0 3.5-.1 3.5-1.5s-1.6-1.5-3.5-1.5v-1.9c1.8 0 4.4.2 4.8 1.9 2.4-.3 3.6-.1 5.3-1zm-10.1 10.8c-4.7 0-8.7-8.3-10.1-10.8 1.8 1 2.9.7 5.3 1.1.4-1.7 3-1.9 4.8-1.9v1.9c-1.9 0-3.5.1-3.5 1.5s1.6 1.5 3.5 1.5v6.7z"/><path fill-rule="evenodd" clip-rule="evenodd" fill="#4F392A" d="M135 225.3c-1.4 2.5-5.4 10.8-10.1 10.8v-6.8c1.9 0 3.5-.1 3.5-1.5s-1.6-1.5-3.5-1.5v-1.9c1.8 0 4.4.2 4.8 1.9 2.4-.3 3.6-.1 5.3-1zm-10.1 10.8c-4.7 0-8.7-8.3-10.1-10.8 1.8 1 2.9.7 5.3 1.1.4-1.7 3-1.9 4.8-1.9v1.9c-1.9 0-3.5.1-3.5 1.5s1.6 1.5 3.5 1.5v6.7z"/><path opacity=".96" fill-rule="evenodd" clip-rule="evenodd" fill="#4F392A" d="M36 124c-1.4 2.5 2.1 10.8-1.6 10.2-3.8-.6-9.9-8.6-11.4-12.5.1.1 3.8 5.2 7 6.1 2.6.8 5.9-3.7 6-3.8z"/><path opacity=".96" fill-rule="evenodd" clip-rule="evenodd" fill="#4F392A" d="M14.2 174c1.4 2.5-2.1 10.8 1.6 10.2s9.9-8.6 11.4-12.5c-.1.1-3.8 5.2-7 6.1-2.7.8-5.9-3.7-6-3.8z"/><path opacity=".96" fill-rule="evenodd" clip-rule="evenodd" fill="#4F392A" d="M64.2 174c1.4 2.5-2.1 10.8 1.6 10.2s9.9-8.6 11.4-12.5c-.1.1-3.8 5.2-7 6.1-2.7.8-5.9-3.7-6-3.8z"/><path opacity=".96" fill-rule="evenodd" clip-rule="evenodd" fill="#4F392A" d="M114.2 174c1.4 2.5-2.1 10.8 1.6 10.2 3.8-.6 9.9-8.6 11.4-12.5-.1.1-3.8 5.2-7 6.1-2.7.8-5.9-3.7-6-3.8z"/><path opacity=".96" fill-rule="evenodd" clip-rule="evenodd" fill="#4F392A" d="M86 124c-1.4 2.5 2.1 10.8-1.6 10.2-3.8-.6-9.9-8.6-11.4-12.5.1.1 3.8 5.2 7 6.1 2.6.8 5.9-3.7 6-3.8z"/><path opacity=".96" fill-rule="evenodd" clip-rule="evenodd" fill="#4F392A" d="M136 124c-1.4 2.5 2.1 10.8-1.6 10.2-3.8-.6-9.9-8.6-11.4-12.5.1.1 3.8 5.2 7 6.1 2.6.8 5.9-3.7 6-3.8z"/><path opacity=".96" fill-rule="evenodd" clip-rule="evenodd" fill="#3E2D21" d="M77.4 35.3c-.8.5-1.6.7-2.5.7-4.7 0-8.7-8.3-10.1-10.8 3.4 3.9 7 7.6 12.6 10.1z"/><path opacity=".96" fill-rule="evenodd" clip-rule="evenodd" fill="#3E2D21" d="M77.4 235.3c-.8.5-1.6.7-2.5.7-4.7 0-8.7-8.3-10.1-10.8 3.4 3.9 7 7.6 12.6 10.1z"/><path opacity=".96" fill-rule="evenodd" clip-rule="evenodd" fill="#3E2D21" d="M127.4 35.3c-.8.5-1.6.7-2.5.7-4.7 0-8.7-8.3-10.1-10.8 3.4 3.9 7 7.6 12.6 10.1z"/><path opacity=".96" fill-rule="evenodd" clip-rule="evenodd" fill="#3E2D21" d="M127.4 235.3c-.8.5-1.6.7-2.5.7-4.7 0-8.7-8.3-10.1-10.8 3.4 3.9 7 7.6 12.6 10.1z"/></svg>