<?xml version="1.0" encoding="utf-8"?>
<!-- Generator: Adobe Illustrator 16.0.0, SVG Export Plug-In . SVG Version: 6.00 Build 0)  -->
<!DOCTYPE svg PUBLIC "-//W3C//DTD SVG 1.1//EN" "http://www.w3.org/Graphics/SVG/1.1/DTD/svg11.dtd">
<svg version="1.1" id="Layer_3" xmlns="http://www.w3.org/2000/svg" xmlns:xlink="http://www.w3.org/1999/xlink" x="0px" y="0px"
	 width="150px" height="250px" viewBox="0 0 150 250" enable-background="new 0 0 150 250" xml:space="preserve">
<path fill-rule="evenodd" clip-rule="evenodd" fill="#4F392A" d="M35,25.3c-1.4,2.4-5.4,10.8-10.1,10.8v-6.7c1.8,0,3.5-0.5,3.5-1.6
	c0-1.1-1.8-1.6-3.5-1.6v-1.8c1.8,0,4.4,0.2,4.8,1.9C32.1,26,33.3,26.2,35,25.3z M24.9,36.1c-4.7,0-8.7-8.3-10.1-10.8
	c1.8,1,2.9,0.7,5.3,1.1c0.4-1.7,3-1.9,4.8-1.9v1.8c-1.8,0-3.5,0.5-3.5,1.6c0,1.1,1.8,1.6,3.5,1.6V36.1z"/>
<path fill-rule="evenodd" clip-rule="evenodd" fill="#4F392A" d="M35,225.3c-1.4,2.5-5.4,10.8-10.1,10.8v-6.7c1.8,0,3.5-0.5,3.5-1.6
	c0-1.1-1.8-1.6-3.5-1.6v-1.8c1.8,0,4.4,0.2,4.8,1.9C32.1,226,33.3,226.2,35,225.3z M24.9,236.1c-4.7,0-8.7-8.3-10.1-10.8
	c1.8,1,2.9,0.7,5.3,1.1c0.4-1.7,3-1.9,4.8-1.9v1.8c-1.8,0-3.5,0.5-3.5,1.6c0,1.1,1.8,1.6,3.5,1.6V236.1z"/>
<path opacity="0.96" fill-rule="evenodd" clip-rule="evenodd" fill="#3E2D21" d="M27.4,35.3c-0.8,0.5-1.6,0.7-2.5,0.7
	c-4.7,0-8.7-8.3-10.1-10.8C18.2,29.1,21.8,32.8,27.4,35.3z"/>
<path opacity="0.96" fill-rule="evenodd" clip-rule="evenodd" fill="#3E2D21" d="M27.4,235.3c-0.8,0.5-1.6,0.7-2.5,0.7
	c-4.7,0-8.7-8.3-10.1-10.8C18.2,229.1,21.8,232.8,27.4,235.3z"/>
<path fill-rule="evenodd" clip-rule="evenodd" fill="#4F392A" d="M85,25.3c-1.4,2.4-5.4,10.8-10.1,10.8v-6.8c1.9,0,3.5-0.1,3.5-1.5
	c0-1.4-1.6-1.5-3.5-1.5v-1.9c1.8,0,4.4,0.2,4.8,1.9C82.1,26,83.3,26.2,85,25.3z M74.9,36.1c-4.7,0-8.7-8.3-10.1-10.8
	c1.8,1,2.9,0.7,5.3,1.1c0.4-1.7,3-1.9,4.8-1.9v1.9c-1.9,0-3.5,0.1-3.5,1.5c0,1.4,1.6,1.5,3.5,1.5V36.1z"/>
<path fill-rule="evenodd" clip-rule="evenodd" fill="#4F392A" d="M85,225.3c-1.4,2.5-5.4,10.8-10.1,10.8v-6.8c1.9,0,3.5-0.1,3.5-1.5
	c0-1.4-1.6-1.5-3.5-1.5v-1.9c1.8,0,4.4,0.2,4.8,1.9C82.1,226,83.3,226.2,85,225.3z M74.9,236.1c-4.7,0-8.7-8.3-10.1-10.8
	c1.8,1,2.9,0.7,5.3,1.1c0.4-1.7,3-1.9,4.8-1.9v1.9c-1.9,0-3.5,0.1-3.5,1.5c0,1.4,1.6,1.5,3.5,1.5V236.1z"/>
<path fill-rule="evenodd" clip-rule="evenodd" fill="#4F392A" d="M135,25.3c-1.4,2.4-5.4,10.8-10.1,10.8v-6.8c1.9,0,3.5-0.1,3.5-1.5
	c0-1.4-1.6-1.5-3.5-1.5v-1.9c1.8,0,4.4,0.2,4.8,1.9C132.1,26,133.3,26.2,135,25.3z M124.9,36.1c-4.7,0-8.7-8.3-10.1-10.8
	c1.8,1,2.9,0.7,5.3,1.1c0.4-1.7,3-1.9,4.8-1.9v1.9c-1.9,0-3.5,0.1-3.5,1.5c0,1.4,1.6,1.5,3.5,1.5V36.1z"/>
<path fill-rule="evenodd" clip-rule="evenodd" fill="#4F392A" d="M135,225.3c-1.4,2.5-5.4,10.8-10.1,10.8v-6.8
	c1.9,0,3.5-0.1,3.5-1.5c0-1.4-1.6-1.5-3.5-1.5v-1.9c1.8,0,4.4,0.2,4.8,1.9C132.1,226,133.3,226.2,135,225.3z M124.9,236.1
	c-4.7,0-8.7-8.3-10.1-10.8c1.8,1,2.9,0.7,5.3,1.1c0.4-1.7,3-1.9,4.8-1.9v1.9c-1.9,0-3.5,0.1-3.5,1.5c0,1.4,1.6,1.5,3.5,1.5V236.1z"
	/>
<path opacity="0.96" fill-rule="evenodd" clip-rule="evenodd" fill="#4F392A" d="M36,124c-1.4,2.5,2.1,10.8-1.6,10.2
	c-3.8-0.6-9.9-8.6-11.4-12.5c0.1,0.1,3.8,5.2,7,6.1C32.6,128.6,35.9,124.1,36,124z"/>
<path opacity="0.96" fill-rule="evenodd" clip-rule="evenodd" fill="#4F392A" d="M14.2,174c1.4,2.5-2.1,10.8,1.6,10.2
	s9.9-8.6,11.4-12.5c-0.1,0.1-3.8,5.2-7,6.1C17.5,178.6,14.3,174.1,14.2,174z"/>
<path opacity="0.96" fill-rule="evenodd" clip-rule="evenodd" fill="#4F392A" d="M64.2,174c1.4,2.5-2.1,10.8,1.6,10.2
	s9.9-8.6,11.4-12.5c-0.1,0.1-3.8,5.2-7,6.1C67.5,178.6,64.3,174.1,64.2,174z"/>
<path opacity="0.96" fill-rule="evenodd" clip-rule="evenodd" fill="#4F392A" d="M114.2,174c1.4,2.5-2.1,10.8,1.6,10.2
	c3.8-0.6,9.9-8.6,11.4-12.5c-0.1,0.1-3.8,5.2-7,6.1C117.5,178.6,114.3,174.1,114.2,174z"/>
<path opacity="0.96" fill-rule="evenodd" clip-rule="evenodd" fill="#4F392A" d="M86,124c-1.4,2.5,2.1,10.8-1.6,10.2
	c-3.8-0.6-9.9-8.6-11.4-12.5c0.1,0.1,3.8,5.2,7,6.1C82.6,128.6,85.9,124.1,86,124z"/>
<path opacity="0.96" fill-rule="evenodd" clip-rule="evenodd" fill="#4F392A" d="M136,124c-1.4,2.5,2.1,10.8-1.6,10.2
	c-3.8-0.6-9.9-8.6-11.4-12.5c0.1,0.1,3.8,5.2,7,6.1C132.6,128.6,135.9,124.1,136,124z"/>
<path opacity="0.96" fill-rule="evenodd" clip-rule="evenodd" fill="#3E2D21" d="M77.4,35.3c-0.8,0.5-1.6,0.7-2.5,0.7
	c-4.7,0-8.7-8.3-10.1-10.8C68.2,29.1,71.8,32.8,77.4,35.3z"/>
<path opacity="0.96" fill-rule="evenodd" clip-rule="evenodd" fill="#3E2D21" d="M77.4,235.3c-0.8,0.5-1.6,0.7-2.5,0.7
	c-4.7,0-8.7-8.3-10.1-10.8C68.2,229.1,71.8,232.8,77.4,235.3z"/>
<path opacity="0.96" fill-rule="evenodd" clip-rule="evenodd" fill="#3E2D21" d="M127.4,35.3c-0.8,0.5-1.6,0.7-2.5,0.7
	c-4.7,0-8.7-8.3-10.1-10.8C118.2,29.1,121.8,32.8,127.4,35.3z"/>
<path opacity="0.96" fill-rule="evenodd" clip-rule="evenodd" fill="#3E2D21" d="M127.4,235.3c-0.8,0.5-1.6,0.7-2.5,0.7
	c-4.7,0-8.7-8.3-10.1-10.8C118.2,229.1,121.8,232.8,127.4,235.3z"/>
</svg>
