<svg version="1.1" id="Layer_3" xmlns="http://www.w3.org/2000/svg" x="0" y="0" width="150" height="250" viewBox="0 0 150 250" xml:space="preserve"><g><g><path fill-rule="evenodd" clip-rule="evenodd" fill="#BBB" d="M27.499 48.14c-1.373 0-2.408-1.08-2.408-2.512v-1h6.387v1c0 1.432-1.035 2.512-2.408 2.512h-1.571z"/></g><g><path fill="#484848" d="M30.478 45.628c0 .828-.543 1.512-1.408 1.512h-1.571c-.862 0-1.408-.684-1.408-1.512h4.387m2-2h-8.387v2c0 1.969 1.497 3.512 3.408 3.512h1.571c1.911 0 3.408-1.542 3.408-3.512v-2z"/></g></g><g><g><path fill-rule="evenodd" clip-rule="evenodd" fill="#BBB" d="M20.783 45.139c-1.373 0-2.408-1.081-2.408-2.514v-1h6.384v1c0 1.433-1.035 2.514-2.408 2.514h-1.568z"/></g><g><path fill="#484848" d="M23.76 42.625c0 .83-.543 1.514-1.408 1.514h-1.569c-.865 0-1.408-.686-1.408-1.514h4.385m2-2h-8.384v2c0 1.97 1.497 3.514 3.408 3.514h1.569c1.911 0 3.408-1.543 3.408-3.514v-2h-.001z"/></g></g><g><g><path fill-rule="evenodd" clip-rule="evenodd" fill="#BBB" d="M70.782 48.14c-1.373 0-2.408-1.08-2.408-2.512v-1h6.386v1c0 1.432-1.035 2.512-2.408 2.512h-1.57z"/></g><g><path fill="#484848" d="M73.76 45.628c0 .828-.543 1.512-1.408 1.512h-1.571c-.862 0-1.408-.684-1.408-1.512h4.387m2-2h-8.386v2c0 1.969 1.497 3.512 3.408 3.512h1.571c1.911 0 3.408-1.542 3.408-3.512v-2h-.001z"/></g></g><g><g><path fill-rule="evenodd" clip-rule="evenodd" fill="#BBB" d="M70.782 98.14c-1.373 0-2.408-1.081-2.408-2.514v-1h6.386v1c0 1.433-1.035 2.514-2.408 2.514h-1.57z"/></g><g><path fill="#484848" d="M73.76 95.626c0 .83-.543 1.514-1.408 1.514h-1.571c-.862 0-1.408-.686-1.408-1.514h4.387m2-2h-8.386v2c0 1.97 1.497 3.514 3.408 3.514h1.571c1.911 0 3.408-1.543 3.408-3.514v-2h-.001z"/></g></g><g><g><path fill-rule="evenodd" clip-rule="evenodd" fill="#BBB" d="M70.782 248.14c-1.373 0-2.408-1.081-2.408-2.514v-1h6.386v1c0 1.433-1.035 2.514-2.408 2.514h-1.57z"/></g><g><path fill="#484848" d="M73.76 245.626c0 .83-.543 1.514-1.408 1.514h-1.571c-.862 0-1.408-.688-1.408-1.514h4.387m2-2h-8.386v2c0 1.971 1.497 3.514 3.408 3.514h1.571c1.911 0 3.408-1.543 3.408-3.514v-2h-.001z"/></g></g><g><g><path fill-rule="evenodd" clip-rule="evenodd" fill="#BBB" d="M120.784 248.14c-1.372 0-2.407-1.081-2.407-2.514v-1h6.382v1c0 1.433-1.035 2.514-2.407 2.514h-1.568z"/></g><g><path fill="#484848" d="M123.759 245.626c0 .83-.541 1.514-1.407 1.514h-1.567c-.866 0-1.407-.688-1.407-1.514h4.381m2-2h-8.382v2c0 1.971 1.497 3.514 3.407 3.514h1.567c1.91 0 3.407-1.543 3.407-3.514v-2h.001z"/></g></g><g><g><path fill-rule="evenodd" clip-rule="evenodd" fill="#BBB" d="M20.783 248.14c-1.373 0-2.408-1.081-2.408-2.514v-1h6.384v1c0 1.433-1.035 2.514-2.408 2.514h-1.568z"/></g><g><path fill="#484848" d="M23.76 245.626c0 .83-.543 1.514-1.408 1.514h-1.569c-.865 0-1.408-.688-1.408-1.514h4.385m2-2h-8.384v2c0 1.971 1.497 3.514 3.408 3.514h1.569c1.911 0 3.408-1.543 3.408-3.514v-2h-.001z"/></g></g><g><g><path fill-rule="evenodd" clip-rule="evenodd" fill="#BBB" d="M77.498 48.14c-1.373 0-2.408-1.08-2.408-2.512v-1h6.387v1c0 1.432-1.035 2.512-2.408 2.512h-1.571z"/></g><g><path fill="#484848" d="M80.477 45.628c0 .828-.545 1.512-1.408 1.512h-1.57c-.863 0-1.408-.684-1.408-1.512h4.386m2-2H74.09v2c0 1.969 1.497 3.512 3.408 3.512h1.57c1.911 0 3.408-1.542 3.408-3.512v-2h.001z"/></g></g><g><g><path fill-rule="evenodd" clip-rule="evenodd" fill="#BBB" d="M77.498 98.14c-1.373 0-2.408-1.081-2.408-2.514v-1h6.387v1c0 1.433-1.035 2.514-2.408 2.514h-1.571z"/></g><g><path fill="#484848" d="M80.477 95.626c0 .83-.545 1.514-1.408 1.514h-1.57c-.863 0-1.408-.686-1.408-1.514h4.386m2-2H74.09v2c0 1.97 1.497 3.514 3.408 3.514h1.57c1.911 0 3.408-1.543 3.408-3.514v-2h.001z"/></g></g><g><g><path fill-rule="evenodd" clip-rule="evenodd" fill="#BBB" d="M77.498 248.14c-1.373 0-2.408-1.081-2.408-2.514v-1h6.387v1c0 1.433-1.035 2.514-2.408 2.514h-1.571z"/></g><g><path fill="#484848" d="M80.477 245.626c0 .83-.545 1.514-1.408 1.514h-1.57c-.863 0-1.408-.688-1.408-1.514h4.386m2-2H74.09v2c0 1.971 1.497 3.514 3.408 3.514h1.57c1.911 0 3.408-1.543 3.408-3.514v-2h.001z"/></g></g><g><g><path fill-rule="evenodd" clip-rule="evenodd" fill="#BBB" d="M127.499 248.14c-1.373 0-2.408-1.081-2.408-2.514v-1h6.387v1c0 1.433-1.035 2.514-2.408 2.514h-1.571z"/></g><g><path fill="#484848" d="M130.478 245.626c0 .83-.546 1.514-1.408 1.514h-1.57c-.863 0-1.408-.688-1.408-1.514h4.386m2-2h-8.387v2c0 1.971 1.497 3.514 3.408 3.514h1.57c1.911 0 3.408-1.543 3.408-3.514v-2h.001z"/></g></g><g><g><path fill-rule="evenodd" clip-rule="evenodd" fill="#BBB" d="M27.499 248.14c-1.373 0-2.408-1.081-2.408-2.514v-1h6.384v1c0 1.433-1.035 2.514-2.408 2.514h-1.568z"/></g><g><path fill="#484848" d="M30.476 245.626c0 .83-.543 1.514-1.408 1.514h-1.569c-.864 0-1.408-.688-1.408-1.514h4.385m2-2h-8.384v2c0 1.971 1.497 3.514 3.408 3.514h1.569c1.911 0 3.408-1.543 3.408-3.514v-2h-.001z"/></g></g><g><g><path fill-rule="evenodd" clip-rule="evenodd" fill="#BBB" d="M120.784 48.14c-1.372 0-2.407-1.08-2.407-2.512v-1h6.382v1c0 1.432-1.035 2.512-2.407 2.512h-1.568z"/></g><g><path fill="#484848" d="M123.759 45.628c0 .828-.541 1.512-1.407 1.512h-1.567c-.866 0-1.407-.684-1.407-1.512h4.381m2-2h-8.382v2c0 1.969 1.497 3.512 3.407 3.512h1.567c1.91 0 3.407-1.542 3.407-3.512v-2h.001z"/></g></g><g><g><path fill-rule="evenodd" clip-rule="evenodd" fill="#BBB" d="M127.499 45.139c-1.373 0-2.408-1.081-2.408-2.514v-1h6.387v1c0 1.433-1.035 2.514-2.408 2.514h-1.571z"/></g><g><path fill="#484848" d="M130.478 42.625c0 .83-.542 1.514-1.408 1.514h-1.57c-.863 0-1.408-.686-1.408-1.514h4.386m2-2h-8.387v2c0 1.97 1.497 3.514 3.408 3.514h1.57c1.911 0 3.408-1.543 3.408-3.514v-2h.001z"/></g></g><g><g><path fill-rule="evenodd" clip-rule="evenodd" fill="#BBB" d="M74.143 148.14c-1.374 0-2.41-1.081-2.41-2.514v-1h6.386v1c0 1.433-1.035 2.514-2.408 2.514h-1.568z"/></g><g><path fill="#484848" d="M77.119 145.626c0 .83-.543 1.514-1.408 1.514h-1.568c-.865 0-1.41-.684-1.41-1.514h4.386m2-2h-8.386v2c0 1.971 1.498 3.514 3.41 3.514h1.568c1.911 0 3.408-1.543 3.408-3.514v-2z"/></g></g><g><g><path fill-rule="evenodd" clip-rule="evenodd" fill="#BBB" d="M74.143 198.14c-1.374 0-2.41-1.081-2.41-2.514v-1h6.386v1c0 1.433-1.035 2.514-2.408 2.514h-1.568z"/></g><g><path fill="#484848" d="M77.119 195.626c0 .83-.543 1.514-1.408 1.514h-1.568c-.865 0-1.41-.688-1.41-1.514h4.386m2-2h-8.386v2c0 1.971 1.498 3.514 3.41 3.514h1.568c1.911 0 3.408-1.543 3.408-3.514v-2z"/></g></g><g><g><path fill-rule="evenodd" clip-rule="evenodd" fill="#BBB" d="M27.499 95.139c-1.373 0-2.408-1.081-2.408-2.514v-1h6.387v1c0 1.433-1.035 2.514-2.408 2.514h-1.571z"/></g><g><path fill="#484848" d="M30.478 92.625c0 .83-.543 1.514-1.408 1.514h-1.571c-.862 0-1.408-.686-1.408-1.514h4.387m2-2h-8.387v2c0 1.97 1.497 3.514 3.408 3.514h1.571c1.911 0 3.408-1.543 3.408-3.514v-2z"/></g></g><g><g><path fill-rule="evenodd" clip-rule="evenodd" fill="#BBB" d="M120.784 95.139c-1.372 0-2.407-1.081-2.407-2.514v-1h6.382v1c0 1.433-1.035 2.514-2.407 2.514h-1.568z"/></g><g><path fill="#484848" d="M123.759 92.625c0 .828-.541 1.514-1.407 1.514h-1.567c-.866 0-1.407-.684-1.407-1.514h4.381m2-2h-8.382v2c0 1.97 1.497 3.514 3.407 3.514h1.567c1.91 0 3.407-1.543 3.407-3.514v-2h.001z"/></g></g><g><g><path fill-rule="evenodd" clip-rule="evenodd" fill="#BBB" d="M20.783 98.14c-1.373 0-2.408-1.081-2.408-2.514v-1h6.384v1c0 1.433-1.035 2.514-2.408 2.514h-1.568z"/></g><g><path fill="#484848" d="M23.76 95.626c0 .83-.543 1.514-1.408 1.514h-1.569c-.865 0-1.408-.686-1.408-1.514h4.385m2-2h-8.384v2c0 1.97 1.497 3.514 3.408 3.514h1.569c1.911 0 3.408-1.543 3.408-3.514v-2h-.001z"/></g></g><g><g><path fill-rule="evenodd" clip-rule="evenodd" fill="#BBB" d="M21.81 147.493c-.482 0-.955-.153-1.367-.442l-1.284-.898c-1.122-.788-1.352-2.266-.534-3.438l.573-.822 5.234 3.662-.574.819c-.492.701-1.257 1.119-2.048 1.119z"/></g><g><path fill="#484848" d="M19.444 143.286l3.593 2.515c-.304.435-.757.692-1.228.692-.266 0-.538-.082-.792-.261l-1.286-.899c-.708-.497-.76-1.367-.287-2.047m-.495-2.788l-1.146 1.645c-1.142 1.639-.807 3.714.779 4.827l1.289.901c.578.406 1.25.622 1.939.622 1.117 0 2.188-.577 2.866-1.545l1.148-1.639-1.639-1.147-3.594-2.515-1.642-1.149z"/></g></g><g><g><path fill-rule="evenodd" clip-rule="evenodd" fill="#BBB" d="M21.81 197.493c-.482 0-.955-.153-1.367-.442l-1.284-.898c-1.122-.788-1.352-2.266-.534-3.438l.573-.822 5.234 3.662-.574.819c-.492.701-1.257 1.119-2.048 1.119z"/></g><g><path fill="#484848" d="M19.444 193.286l3.593 2.515c-.304.435-.757.692-1.228.692-.266 0-.538-.082-.792-.261l-1.286-.899c-.708-.497-.76-1.367-.287-2.047m-.495-2.788l-1.146 1.645c-1.142 1.639-.807 3.714.779 4.827l1.289.901c.578.406 1.25.622 1.939.622 1.117 0 2.188-.577 2.866-1.545l1.148-1.639-1.639-1.147-3.594-2.515-1.642-1.149z"/></g></g><g><g><path fill-rule="evenodd" clip-rule="evenodd" fill="#BBB" d="M121.811 147.493a2.38 2.38 0 01-1.368-.441l-1.285-.899c-1.124-.789-1.352-2.268-.529-3.44l.573-.818 5.231 3.662-.575.819c-.491.699-1.256 1.117-2.047 1.117z"/></g><g><path fill="#484848" d="M119.446 143.286l3.593 2.515c-.305.435-.757.692-1.229.692a1.37 1.37 0 01-.794-.261l-1.286-.899c-.708-.497-.76-1.367-.284-2.047m-.49-2.784l-1.147 1.636c-1.13 1.612-.791 3.734.772 4.832l1.289.901a3.37 3.37 0 001.94.622c1.116 0 2.188-.577 2.866-1.544l1.149-1.639-1.641-1.148-3.593-2.515-1.635-1.145z"/></g></g><g><g><path fill-rule="evenodd" clip-rule="evenodd" fill="#BBB" d="M121.811 197.493a2.38 2.38 0 01-1.368-.441l-1.285-.899c-1.124-.789-1.352-2.268-.529-3.44l.573-.818 5.231 3.662-.575.819c-.491.699-1.256 1.117-2.047 1.117z"/></g><g><path fill="#484848" d="M119.446 193.286l3.593 2.515c-.305.435-.757.692-1.229.692a1.37 1.37 0 01-.794-.261l-1.286-.899c-.708-.497-.76-1.367-.284-2.047m-.49-2.784l-1.147 1.636c-1.13 1.612-.791 3.734.772 4.832l1.289.901a3.37 3.37 0 001.94.622c1.116 0 2.188-.577 2.866-1.544l1.149-1.639-1.641-1.148-3.593-2.515-1.635-1.145z"/></g></g><g><g><path fill-rule="evenodd" clip-rule="evenodd" fill="#BBB" d="M28.151 147.461c-.791 0-1.556-.418-2.047-1.118l-.574-.819 5.232-3.667.574.821c.409.585.569 1.268.453 1.922a2.349 2.349 0 01-.989 1.518l-1.282.9c-.411.29-.884.443-1.367.443z"/></g><g><path fill="#484848" d="M30.517 143.25c.474.679.421 1.554-.287 2.046l-1.286.903c-.254.18-.527.262-.792.262-.471 0-.924-.259-1.228-.692l3.593-2.519m.492-2.787l-1.64 1.149-3.593 2.519-1.638 1.148 1.149 1.638c.678.967 1.749 1.544 2.865 1.544a3.37 3.37 0 001.944-.626l1.284-.902a3.334 3.334 0 001.394-2.157c.164-.918-.055-1.866-.617-2.671l-1.148-1.642z"/></g></g><g><g><path fill-rule="evenodd" clip-rule="evenodd" fill="#BBB" d="M28.151 197.461c-.791 0-1.556-.418-2.047-1.118l-.574-.819 5.232-3.667.574.821c.409.585.569 1.268.453 1.922a2.349 2.349 0 01-.989 1.518l-1.282.9c-.411.29-.884.443-1.367.443z"/></g><g><path fill="#484848" d="M30.517 193.25c.474.679.421 1.554-.287 2.046l-1.286.903c-.254.18-.527.262-.792.262-.471 0-.924-.259-1.228-.692l3.593-2.519m.492-2.787l-1.64 1.149-3.593 2.519-1.638 1.148 1.149 1.638c.678.967 1.749 1.544 2.865 1.544a3.37 3.37 0 001.944-.626l1.284-.902a3.334 3.334 0 001.394-2.157c.164-.918-.055-1.866-.617-2.671l-1.148-1.642z"/></g></g><g><g><path fill-rule="evenodd" clip-rule="evenodd" fill="#BBB" d="M128.152 147.461c-.79 0-1.555-.418-2.046-1.118l-.575-.818 5.233-3.669.573.823c.818 1.175.59 2.651-.531 3.437l-1.29.903a2.362 2.362 0 01-1.364.442z"/></g><g><path fill="#484848" d="M130.518 143.25c.473.679.419 1.554-.284 2.046l-1.29.903c-.254.18-.525.262-.791.262-.471 0-.923-.259-1.228-.692l3.593-2.519m.495-2.789l-1.644 1.151-3.593 2.519-1.639 1.148 1.15 1.639c.679.966 1.749 1.543 2.864 1.543.69 0 1.363-.217 1.944-.628l1.284-.898c1.561-1.093 1.902-3.213.778-4.827l-1.144-1.647z"/></g></g><g><g><path fill-rule="evenodd" clip-rule="evenodd" fill="#BBB" d="M128.152 197.461c-.79 0-1.555-.418-2.046-1.118l-.575-.818 5.233-3.669.573.823c.818 1.175.59 2.651-.531 3.437l-1.29.903a2.362 2.362 0 01-1.364.442z"/></g><g><path fill="#484848" d="M130.518 193.25c.473.679.419 1.554-.284 2.046l-1.29.903c-.254.18-.525.262-.791.262-.471 0-.923-.259-1.228-.692l3.593-2.519m.495-2.789l-1.644 1.151-3.593 2.519-1.639 1.148 1.15 1.639c.679.966 1.749 1.543 2.864 1.543.69 0 1.363-.217 1.944-.628l1.284-.898c1.561-1.093 1.902-3.213.778-4.827l-1.144-1.647z"/></g></g><g><g><path fill-rule="evenodd" clip-rule="evenodd" fill="#BBB" d="M127.499 98.14c-1.373 0-2.408-1.081-2.408-2.514v-1h6.387v1c0 1.433-1.035 2.514-2.408 2.514h-1.571z"/></g><g><path fill="#484848" d="M130.478 95.626c0 .828-.546 1.514-1.408 1.514h-1.57c-.863 0-1.408-.684-1.408-1.514h4.386m2-2h-8.387v2c0 1.97 1.497 3.514 3.408 3.514h1.57c1.911 0 3.408-1.543 3.408-3.514v-2h.001z"/></g></g></svg>