<svg xmlns="http://www.w3.org/2000/svg" width="150" height="250" viewBox="0 0 150 250"><g id="Layer_3"><path fill-rule="evenodd" clip-rule="evenodd" fill="#4C4134" d="M117.875 92.477a6.86 6.86 0 01-4.293 1.497c-1.9 0-3.629-.771-4.874-2.018a6.871 6.871 0 01-2.022-4.876c0-1.902.772-3.624 2.022-4.873v-.004a6.88 6.88 0 014.207-1.99l-2.242 3.892a4.061 4.061 0 00-1.286 4.452 4.12 4.12 0 001.266 1.833 4.08 4.08 0 002.039.889l1.164.158.064-.476a3.851 3.851 0 001.4-.393l.248.212.765-.899a2.88 2.88 0 00.203-.262c.298-.346.537-.741.696-1.176.065.678.293 1.31.643 1.855v2.179z"/><path fill-rule="evenodd" clip-rule="evenodd" fill="#4C4134" d="M67.875 92.477a6.865 6.865 0 01-4.293 1.497 6.875 6.875 0 01-4.875-2.018 6.883 6.883 0 01-2.021-4.876c0-1.902.773-3.624 2.021-4.873v-.004a6.882 6.882 0 014.208-1.99l-2.24 3.892a4.057 4.057 0 002.016 7.174l1.166.158.065-.476a3.852 3.852 0 001.398-.393l.25.212.765-.899c.071-.085.14-.173.204-.262.297-.346.533-.741.696-1.176a4.09 4.09 0 00.641 1.855v2.179z"/><path fill-rule="evenodd" clip-rule="evenodd" fill="#4C4134" d="M17.874 91.878a6.865 6.865 0 01-2.781.586c-1.902 0-3.63-.773-4.877-2.021s-2.02-2.974-2.02-4.876.773-3.63 2.02-4.877a6.89 6.89 0 014.425-2.006l-1.965 3.418a4.059 4.059 0 00-1.477 3.597 3.889 3.889 0 001.139 2.623 3.887 3.887 0 003.371 1.093l.148.02.006-.046a3.862 3.862 0 001.416-.596c.1.549.307 1.062.602 1.516l-.008.199v1.37z"/><g><path fill-rule="evenodd" clip-rule="evenodd" fill="#A27556" d="M35.835 41.784c-3.528 0-6.398-2.87-6.398-6.397s2.87-6.397 6.398-6.397c3.526 0 6.396 2.87 6.396 6.397s-2.87 6.397-6.396 6.397z"/><g><path fill="#4C4134" d="M35.835 29.989a5.397 5.397 0 11-.002 10.794 5.397 5.397 0 01.002-10.794m0-2c-4.079 0-7.398 3.318-7.398 7.397s3.319 7.397 7.398 7.397c4.078 0 7.396-3.318 7.396-7.397s-3.318-7.397-7.396-7.397z"/></g></g><g><path fill-rule="evenodd" clip-rule="evenodd" fill="#A27556" d="M35.835 241.783a6.406 6.406 0 01-6.398-6.399 6.405 6.405 0 016.398-6.396 6.404 6.404 0 016.396 6.396c-.001 3.528-2.87 6.399-6.396 6.399z"/><path fill="#4C4134" d="M35.835 229.988a5.397 5.397 0 015.396 5.396 5.397 5.397 0 11-5.396-5.396m0-2c-4.079 0-7.398 3.317-7.398 7.396 0 4.08 3.319 7.399 7.398 7.399 4.078 0 7.396-3.319 7.396-7.399-.001-4.078-3.318-7.396-7.396-7.396z"/></g><g><path fill-rule="evenodd" clip-rule="evenodd" fill="#A27556" d="M85.835 241.783c-3.526 0-6.396-2.871-6.396-6.399a6.404 6.404 0 016.396-6.396 6.403 6.403 0 016.396 6.396c0 3.528-2.869 6.399-6.396 6.399z"/><path fill="#4C4134" d="M85.835 229.988a5.397 5.397 0 010 10.795 5.399 5.399 0 010-10.795m0-2c-4.078 0-7.396 3.317-7.396 7.396 0 4.08 3.317 7.399 7.396 7.399s7.396-3.319 7.396-7.399c0-4.078-3.318-7.396-7.396-7.396z"/></g><g><path fill-rule="evenodd" clip-rule="evenodd" fill="#A27556" d="M135.836 241.783c-3.526 0-6.396-2.871-6.396-6.399 0-3.526 2.869-6.396 6.396-6.396s6.396 2.869 6.396 6.396c-.001 3.528-2.87 6.399-6.396 6.399z"/><path fill="#4C4134" d="M135.836 229.988a5.397 5.397 0 010 10.795 5.396 5.396 0 01-5.396-5.399 5.396 5.396 0 015.396-5.396m0-2c-4.078 0-7.396 3.317-7.396 7.396 0 4.08 3.317 7.399 7.396 7.399s7.396-3.319 7.396-7.399c-.001-4.078-3.318-7.396-7.396-7.396z"/></g><path fill-rule="evenodd" clip-rule="evenodd" fill="#BF9D86" d="M35.835 30.721a4.666 4.666 0 11-.001 9.331 4.666 4.666 0 01.001-9.331z"/><path fill-rule="evenodd" clip-rule="evenodd" fill="#BF9D86" d="M35.835 230.721a4.664 4.664 0 11-4.666 4.663 4.665 4.665 0 014.666-4.663z"/><path fill-rule="evenodd" clip-rule="evenodd" fill="#BF9D86" d="M85.835 230.721a4.664 4.664 0 014.664 4.663 4.666 4.666 0 01-4.664 4.667 4.67 4.67 0 01-4.667-4.667 4.667 4.667 0 014.667-4.663z"/><path fill-rule="evenodd" clip-rule="evenodd" fill="#BF9D86" d="M135.836 230.721a4.666 4.666 0 11-.005 9.329 4.666 4.666 0 01.005-9.329z"/><path fill-rule="evenodd" clip-rule="evenodd" fill="#A27556" d="M35.835 34.432a.954.954 0 110 1.908.954.954 0 010-1.908z"/><path fill-rule="evenodd" clip-rule="evenodd" fill="#A27556" d="M35.835 234.432a.954.954 0 110 1.908.954.954 0 010-1.908z"/><path fill-rule="evenodd" clip-rule="evenodd" fill="#A27556" d="M85.835 234.432a.954.954 0 11-.003 1.907.954.954 0 01.003-1.907z"/><path fill-rule="evenodd" clip-rule="evenodd" fill="#A27556" d="M135.836 234.432a.954.954 0 11-.003 1.907.954.954 0 01.003-1.907z"/><g><path fill-rule="evenodd" clip-rule="evenodd" fill="#A27556" d="M22.975 195.137a6.404 6.404 0 01-6.398-6.396 6.406 6.406 0 016.398-6.399c3.526 0 6.396 2.871 6.396 6.399a6.404 6.404 0 01-6.396 6.396z"/><path fill="#4C4134" d="M22.975 183.342a5.398 5.398 0 11-.004 10.796 5.398 5.398 0 01.004-10.796m0-2c-4.079 0-7.398 3.319-7.398 7.399 0 4.078 3.319 7.396 7.398 7.396 4.078 0 7.396-3.317 7.396-7.396-.001-4.08-3.318-7.399-7.396-7.399z"/></g><g><path fill-rule="evenodd" clip-rule="evenodd" fill="#A27556" d="M74.973 196.137a6.404 6.404 0 01-6.396-6.396c0-3.528 2.869-6.399 6.396-6.399 3.527 0 6.396 2.871 6.396 6.399a6.403 6.403 0 01-6.396 6.396z"/><path fill="#4C4134" d="M74.973 184.342a5.397 5.397 0 010 10.795 5.397 5.397 0 010-10.795m0-2c-4.078 0-7.396 3.319-7.396 7.399 0 4.078 3.318 7.396 7.396 7.396 4.079 0 7.396-3.317 7.396-7.396 0-4.08-3.317-7.399-7.396-7.399z"/></g><g><path fill-rule="evenodd" clip-rule="evenodd" fill="#A27556" d="M127.974 196.137a6.404 6.404 0 01-6.396-6.396c0-3.528 2.869-6.399 6.396-6.399s6.396 2.871 6.396 6.399a6.404 6.404 0 01-6.396 6.396z"/><path fill="#4C4134" d="M127.974 184.342a5.398 5.398 0 010 10.795 5.397 5.397 0 010-10.795m0-2c-4.078 0-7.396 3.319-7.396 7.399 0 4.078 3.317 7.396 7.396 7.396s7.396-3.317 7.396-7.396c-.001-4.08-3.318-7.399-7.396-7.399z"/></g><path fill-rule="evenodd" clip-rule="evenodd" fill="#BF9D86" d="M22.975 184.074a4.665 4.665 0 110 9.33 4.664 4.664 0 01-4.666-4.663 4.664 4.664 0 014.666-4.667z"/><path fill-rule="evenodd" clip-rule="evenodd" fill="#BF9D86" d="M74.973 185.074a4.665 4.665 0 110 9.33 4.664 4.664 0 110-9.33z"/><path fill-rule="evenodd" clip-rule="evenodd" fill="#BF9D86" d="M127.974 185.074a4.666 4.666 0 11.002 9.328 4.666 4.666 0 01-.002-9.328z"/><path fill-rule="evenodd" clip-rule="evenodd" fill="#A27556" d="M22.975 187.785a.954.954 0 110 1.909.954.954 0 010-1.909z"/><path fill-rule="evenodd" clip-rule="evenodd" fill="#A27556" d="M74.973 188.785a.954.954 0 110 1.909.954.954 0 010-1.909z"/><path fill-rule="evenodd" clip-rule="evenodd" fill="#A27556" d="M127.974 188.785a.955.955 0 11.003 1.91.955.955 0 01-.003-1.91z"/><g><path fill-rule="evenodd" clip-rule="evenodd" fill="#A27556" d="M86.242 44.231a6.405 6.405 0 01-6.396-6.398c0-3.527 2.869-6.397 6.396-6.397s6.396 2.87 6.396 6.397a6.404 6.404 0 01-6.396 6.398z"/><g><path fill="#4C4134" d="M86.242 32.436a5.398 5.398 0 010 10.795 5.398 5.398 0 010-10.795m0-2c-4.078 0-7.396 3.318-7.396 7.397s3.317 7.398 7.396 7.398 7.396-3.319 7.396-7.398-3.318-7.397-7.396-7.397z"/></g></g><path fill-rule="evenodd" clip-rule="evenodd" fill="#BF9D86" d="M86.242 33.168a4.667 4.667 0 014.667 4.665 4.667 4.667 0 01-9.334 0 4.669 4.669 0 014.667-4.665z"/><path fill-rule="evenodd" clip-rule="evenodd" fill="#A27556" d="M86.242 36.879c.525 0 .956.427.956.954s-.431.955-.956.955a.955.955 0 010-1.909z"/><g><path fill-rule="evenodd" clip-rule="evenodd" fill="#A27556" d="M136.242 44.231a6.405 6.405 0 01-6.396-6.398c0-3.527 2.869-6.397 6.396-6.397s6.396 2.87 6.396 6.397a6.404 6.404 0 01-6.396 6.398z"/><g><path fill="#4C4134" d="M136.242 32.436a5.398 5.398 0 010 10.795 5.398 5.398 0 010-10.795m0-2c-4.078 0-7.396 3.318-7.396 7.397s3.317 7.398 7.396 7.398 7.396-3.319 7.396-7.398-3.318-7.397-7.396-7.397z"/></g></g><path fill-rule="evenodd" clip-rule="evenodd" fill="#BF9D86" d="M136.242 33.168a4.667 4.667 0 014.667 4.665 4.667 4.667 0 01-9.334 0 4.669 4.669 0 014.667-4.665z"/><path fill-rule="evenodd" clip-rule="evenodd" fill="#A27556" d="M136.242 36.879c.525 0 .956.427.956.954s-.431.955-.956.955a.955.955 0 010-1.909z"/></g></svg>