<?xml version="1.0" encoding="utf-8"?>
<!-- Generator: Adobe Illustrator 16.0.0, SVG Export Plug-In . SVG Version: 6.00 Build 0)  -->
<!DOCTYPE svg PUBLIC "-//W3C//DTD SVG 1.1//EN" "http://www.w3.org/Graphics/SVG/1.1/DTD/svg11.dtd">
<svg version="1.1" id="Layer_3" xmlns="http://www.w3.org/2000/svg" xmlns:xlink="http://www.w3.org/1999/xlink" x="0px" y="0px"
	 width="150px" height="250px" viewBox="0 0 150 250" enable-background="new 0 0 150 250" xml:space="preserve">
<g>
	<g>
		<path fill-rule="evenodd" clip-rule="evenodd" fill="#A27556" d="M25.4,245.5l-0.2-0.8c-0.1-0.5-0.1-1.5-0.1-2.8h-0.3
			c0,1.2,0,2.2-0.1,2.8l-0.2,0.8h-5.9l-0.2-0.8c-0.2-0.6-0.1-1.9-0.1-3.6c0-0.2,0-0.4,0-0.6c-0.7-0.9-0.9-1.9-0.9-2.8v-1h14.8v1
			c0,0.9-0.1,1.9-0.9,2.8c0,0.2,0,0.4,0,0.6c0,1.6,0.1,2.9-0.1,3.6l-0.2,0.8H25.4z"/>
	</g>
	<g>
		<path fill="#4F392A" d="M31.3,237.7c0,1-0.1,1.7-0.9,2.4c0,0.9,0.1,3.6,0,4.3h-4.3c-0.2-0.7,0-2.7,0-3.5h-2.3c0,0.8,0.1,2.9,0,3.5
			h-4.3c-0.2-0.7,0-3.4,0-4.3c-0.7-0.7-0.9-1.5-0.9-2.4H31.3 M33.3,235.7h-2H18.5h-2v2c0,1,0.1,2.1,0.9,3.1c0,0.1,0,0.2,0,0.2
			c-0.1,2.1,0,3.1,0.1,3.8l0.4,1.5h1.6h4.3h1.6h0.8h4.3H32l0.4-1.5c0.2-0.7,0.2-1.7,0.1-3.8c0-0.1,0-0.2,0-0.2
			c0.7-1.1,0.9-2.2,0.9-3.1V235.7L33.3,235.7z"/>
	</g>
</g>
<g>
	<g>
		<path fill-rule="evenodd" clip-rule="evenodd" fill="#A27556" d="M75.3,245.5l-0.2-0.8c-0.1-0.5-0.1-1.5-0.1-2.8h-0.3
			c0,1.2,0,2.2-0.1,2.8l-0.2,0.8h-5.9l-0.2-0.8c-0.2-0.6-0.1-1.9-0.1-3.6c0-0.2,0-0.4,0-0.6c-0.7-0.9-0.9-1.9-0.9-2.8v-1h14.8v1
			c0,0.9-0.1,1.9-0.9,2.8c0,0.2,0,0.4,0,0.6c0,1.6,0.1,2.9-0.1,3.6l-0.2,0.8H75.3z"/>
	</g>
	<g>
		<path fill="#4F392A" d="M81.3,237.7c0,1-0.1,1.7-0.9,2.4c0,0.9,0.1,3.6,0,4.3h-4.3c-0.2-0.7,0-2.7,0-3.5h-2.3c0,0.8,0.1,2.9,0,3.5
			h-4.3c-0.2-0.7,0-3.4,0-4.3c-0.7-0.7-0.9-1.5-0.9-2.4H81.3 M83.3,235.7h-2H68.5h-2v2c0,1,0.1,2.1,0.9,3.1c0,0.1,0,0.1,0,0.2
			c-0.1,2.1,0,3.1,0.1,3.8l0.4,1.5h1.6h4.3h1.6h0.8h4.3H82l0.4-1.5c0.2-0.7,0.2-1.7,0.1-3.8c0-0.1,0-0.2,0-0.2
			c0.7-1.1,0.9-2.2,0.9-3.1V235.7L83.3,235.7z"/>
	</g>
</g>
<g>
	<g>
		<path fill-rule="evenodd" clip-rule="evenodd" fill="#A27556" d="M75.3,95.5l-0.2-0.8c-0.1-0.5-0.1-1.5-0.1-2.8h-0.3
			c0,1.2,0,2.2-0.1,2.8l-0.2,0.8h-5.9l-0.2-0.8c-0.2-0.6-0.1-1.9-0.1-3.6c0-0.2,0-0.4,0-0.6c-0.7-0.9-0.9-1.9-0.9-2.8v-1h14.8v1
			c0,0.9-0.1,1.9-0.9,2.8c0,0.2,0,0.4,0,0.6c0,1.6,0.1,2.9-0.1,3.6l-0.2,0.8H75.3z"/>
	</g>
	<g>
		<path fill="#4F392A" d="M81.3,87.7c0,1-0.1,1.7-0.9,2.4c0,0.9,0.1,3.6,0,4.3h-4.3c-0.2-0.7,0-2.7,0-3.5h-2.3c0,0.8,0.1,2.9,0,3.5
			h-4.3c-0.2-0.7,0-3.4,0-4.3c-0.7-0.7-0.9-1.5-0.9-2.4H81.3 M83.3,85.7h-2H68.5h-2v2c0,1,0.1,2.1,0.9,3.1c0,0.1,0,0.1,0,0.2
			c-0.1,2.1,0,3.1,0.1,3.8l0.4,1.5h1.6h4.3h1.6h0.8h4.3H82l0.4-1.5c0.2-0.7,0.2-1.7,0.1-3.8c0-0.1,0-0.2,0-0.2
			c0.7-1.1,0.9-2.2,0.9-3.1V85.7L83.3,85.7z"/>
	</g>
</g>
<g>
	<g>
		<path fill-rule="evenodd" clip-rule="evenodd" fill="#A27556" d="M75.3,45.5l-0.2-0.8c-0.1-0.5-0.1-1.5-0.1-2.8h-0.3
			c0,1.2,0,2.2-0.1,2.8l-0.2,0.8h-5.9l-0.2-0.8c-0.2-0.6-0.1-1.9-0.1-3.6c0-0.2,0-0.4,0-0.6c-0.7-0.9-0.9-1.9-0.9-2.8v-1h14.8v1
			c0,0.9-0.1,1.9-0.9,2.8c0,0.2,0,0.4,0,0.6c0,1.6,0.1,2.9-0.1,3.6l-0.2,0.8H75.3z"/>
	</g>
	<g>
		<path fill="#4F392A" d="M81.3,37.7c0,1-0.1,1.7-0.9,2.4c0,0.9,0.1,3.6,0,4.3h-4.3c-0.2-0.7,0-2.7,0-3.5h-2.3c0,0.8,0.1,2.9,0,3.5
			h-4.3c-0.2-0.7,0-3.4,0-4.3c-0.7-0.7-0.9-1.5-0.9-2.4H81.3 M83.3,35.7h-2H68.5h-2v2c0,1,0.1,2.1,0.9,3.1c0,0.1,0,0.1,0,0.2
			c-0.1,2.1,0,3.1,0.1,3.8l0.4,1.5h1.6h4.3h1.6h0.8h4.3H82l0.4-1.5c0.2-0.7,0.2-1.7,0.1-3.8c0-0.1,0-0.2,0-0.2
			c0.7-1.1,0.9-2.2,0.9-3.1V35.7L83.3,35.7z"/>
	</g>
</g>
<g>
	<g>
		<path fill-rule="evenodd" clip-rule="evenodd" fill="#A27556" d="M125.3,245.5l-0.2-0.8c-0.1-0.5-0.1-1.5-0.1-2.8h-0.3
			c0,1.2,0,2.2-0.1,2.8l-0.2,0.8h-5.9l-0.2-0.8c-0.2-0.6-0.1-1.9-0.1-3.6c0-0.2,0-0.4,0-0.6c-0.8-0.9-0.9-1.9-0.9-2.8v-1h14.8v1
			c0,0.9-0.1,1.9-0.9,2.8c0,0.2,0,0.4,0,0.6c0,1.6,0.1,2.9-0.1,3.6l-0.2,0.8H125.3z"/>
	</g>
	<g>
		<path fill="#4F392A" d="M131.3,237.7c0,1-0.1,1.7-0.9,2.4c0,0.9,0.1,3.6,0,4.3h-4.3c-0.2-0.7,0-2.7,0-3.5h-2.3
			c0,0.8,0.1,2.9,0,3.5h-4.3c-0.2-0.7,0-3.4,0-4.3c-0.7-0.7-0.9-1.5-0.9-2.4H131.3 M133.3,235.7h-2h-12.8h-2v2c0,1,0.1,2.1,0.9,3.1
			c0,0.1,0,0.2,0,0.2c-0.1,2.1-0.1,3.1,0.1,3.8l0.4,1.5h1.6h4.3h1.6h0.8h4.3h1.6l0.4-1.5c0.2-0.7,0.2-1.7,0.1-3.8c0-0.1,0-0.2,0-0.2
			c0.7-1.1,0.9-2.2,0.9-3.1V235.7L133.3,235.7z"/>
	</g>
</g>
<g>
	<path fill-rule="evenodd" clip-rule="evenodd" fill="#A27556" d="M25.4,45.5l-0.2-0.7c-0.1-0.2-0.1-0.4-0.1-0.6v-2.2h-0.5l-0.1,0.5
		h-5.9l-0.2-0.8c0-0.2-0.1-0.4-0.1-0.6v-0.5c-0.6-0.7-0.9-1.6-0.9-2.5v-1.3h14.8v1.3c0,0.9-0.3,1.8-0.9,2.5v3.6c0,0.2,0,0.4-0.1,0.6
		l-0.2,0.8H25.4z"/>
	<g>
		<path fill="#4F392A" d="M31.3,37.7v0.3c0,0.8-0.3,1.6-0.9,2.1v4c0,0.1,0,0.2,0,0.3h-4.3c0-0.1,0-0.2,0-0.3v-3.2h-2.3v0.2
			c0,0.1,0,0.2,0,0.3h-4.3c0-0.1,0-0.2,0-0.3v-0.9c-0.5-0.5-0.9-1.3-0.9-2.1v-0.3H31.3 M33.3,35.7h-2H18.5h-2v2v0.3
			c0,1,0.3,2,0.9,2.8v0.2c0,0.3,0,0.5,0.1,0.8l0.4,1.5h1.6h4.3h0.4v0.7c0,0.3,0,0.6,0.1,0.9l0.4,1.5h1.5h4.3H32l0.4-1.5
			c0.1-0.3,0.1-0.6,0.1-0.8v-3.2c0.6-0.8,0.9-1.8,0.9-2.8v-0.3V35.7L33.3,35.7z"/>
	</g>
</g>
<g>
	<g>
		<path fill-rule="evenodd" clip-rule="evenodd" fill="#A27556" d="M125.4,95.5l-0.2-0.8c0-0.2-0.1-0.4-0.1-0.6v-2.2h-0.5l-0.1,0.5
			h-5.9l-0.2-0.8c0-0.2-0.1-0.4-0.1-0.6v-0.5c-0.6-0.7-0.9-1.6-0.9-2.5v-1.3h14.8v1.3c0,0.9-0.3,1.8-0.9,2.5v3.6
			c0,0.2,0,0.4-0.1,0.6l-0.2,0.8H125.4z"/>
	</g>
	<g>
		<path fill="#4F392A" d="M131.3,87.7v0.3c0,0.8-0.3,1.6-0.9,2.1v4c0,0.1,0,0.2,0,0.3h-4.3c0-0.1,0-0.2,0-0.3v-3.2h-2.3v0.2
			c0,0.1,0,0.2,0,0.3h-4.3c0-0.1,0-0.2,0-0.3v-0.9c-0.5-0.5-0.9-1.3-0.9-2.1v-0.3H131.3 M133.3,85.7h-2h-12.8h-2v2v0.3
			c0,1,0.3,2,0.9,2.8v0.2c0,0.3,0,0.5,0.1,0.8l0.3,1.6h1.6h4.3h0.4v0.7c0,0.3,0,0.6,0.1,0.8l0.4,1.5h1.6h4.3h1.6l0.4-1.5
			c0.1-0.3,0.1-0.6,0.1-0.8v-3.2c0.6-0.8,0.9-1.8,0.9-2.8v-0.3V85.7L133.3,85.7z"/>
	</g>
</g>
<g>
	<g>
		<path fill-rule="evenodd" clip-rule="evenodd" fill="#A27556" d="M118.6,45.5l-0.2-0.8c0-0.2-0.1-0.4-0.1-0.6v-3.6
			c-0.6-0.7-0.9-1.6-0.9-2.5v-1.3h14.8v1.3c0,0.9-0.3,1.8-0.9,2.5v0.5c0,0.2,0,0.4-0.1,0.6l-0.2,0.8h-5.9l-0.1-0.5h-0.5v2.2
			c0,0.2,0,0.4-0.1,0.6l-0.2,0.8H118.6z"/>
	</g>
	<g>
		<path fill="#4F392A" d="M131.3,37.7v0.3c0,0.8-0.3,1.6-0.9,2.1v0.9c0,0.1,0,0.2,0,0.3h-4.3c0-0.1,0-0.2,0-0.3v-0.2h-2.3v3.2
			c0,0.1,0,0.2,0,0.3h-4.3c0-0.1,0-0.2,0-0.3v-4c-0.5-0.5-0.9-1.3-0.9-2.1v-0.3H131.3 M133.3,35.7h-2h-12.8h-2v2v0.3
			c0,1,0.3,2,0.9,2.8v3.2c0,0.3,0,0.5,0.1,0.8l0.3,1.6h1.6h4.3h1.6l0.3-1.6c0.1-0.3,0.1-0.5,0.1-0.8v-0.7h0.4h4.3h1.6l0.4-1.5
			c0.1-0.3,0.1-0.6,0.1-0.8v-0.2c0.6-0.8,0.9-1.8,0.9-2.8v-0.3V35.7L133.3,35.7z"/>
	</g>
</g>
<g>
	<g>
		<path fill-rule="evenodd" clip-rule="evenodd" fill="#A27556" d="M18.6,95.5l-0.2-0.8c0-0.2-0.1-0.4-0.1-0.6v-3.6
			c-0.6-0.7-0.9-1.6-0.9-2.5v-1.3h14.8v1.3c0,0.9-0.3,1.8-0.9,2.5v0.5c0,0.2,0,0.4-0.1,0.6l-0.2,0.8h-5.9l-0.1-0.5h-0.5v2.2
			c0,0.2,0,0.4-0.1,0.6l-0.2,0.8H18.6z"/>
	</g>
	<g>
		<path fill="#4F392A" d="M31.3,87.7v0.3c0,0.8-0.3,1.6-0.9,2.1v0.9c0,0.1,0,0.2,0,0.3h-4.3c0-0.1,0-0.2,0-0.3v-0.2h-2.3v3.2
			c0,0.1,0,0.2,0,0.3h-4.3c0-0.1,0-0.2,0-0.3v-4c-0.5-0.5-0.9-1.3-0.9-2.1v-0.3H31.3 M33.3,85.7h-2H18.5h-2v2v0.3c0,1,0.3,2,0.9,2.8
			v3.2c0,0.3,0,0.5,0.1,0.8l0.4,1.5h1.6h4.3h1.6l0.4-1.5c0.1-0.3,0.1-0.5,0.1-0.8v-0.7h0.4h4.3H32l0.4-1.5c0.1-0.3,0.1-0.6,0.1-0.8
			v-0.2c0.6-0.8,0.9-1.8,0.9-2.8v-0.3V85.7L33.3,85.7z"/>
	</g>
</g>
<path fill-rule="evenodd" clip-rule="evenodd" fill="#4F392A" d="M131.1,141.6l0.6,0.9l-6,4.2l-0.7-1.1l-0.8,1.1
	c-1.9-1.3-3.8-2.6-5.6-4l1-1.2c-2.9-2.4-2.5-2.1-2.5-5.3c1.3,0,2.7,0,4,0c-1,3-0.8,2-0.8,5.1c1.1,0.3,2.4,0.8,3.5,0.6l-0.6-2.8
	c3.5,1.3,3.6,1.5,2.1-2.9c2.6,0,5.1,0,7.7,0C132.8,138.4,133,140.1,131.1,141.6z"/>
<path fill-rule="evenodd" clip-rule="evenodd" fill="#A27556" d="M128.8,140.9l0.8,1.2l-3.6,2.5l-1-1.4l0.4-0.1l-0.3-1.5l1.5,0.4
	c0.6-1.5,1.1-2.6,0.6-4.3h4.1C131.3,139.3,130.6,140.8,128.8,140.9L128.8,140.9z M123.8,144.6c1.7-2.4,0.5-0.7-1.8-1.2L123.8,144.6
	L123.8,144.6z M118.7,139.2c-0.2-0.5-0.2-0.9-0.2-1.4h0.4c-0.1,0.3-0.2,0.7-0.2,1.1C118.7,138.9,118.7,139,118.7,139.2z"/>
<path fill-rule="evenodd" clip-rule="evenodd" fill="#4F392A" d="M118.7,191.6l-0.6,0.9l6,4.2l0.7-1.1l0.8,1.1l1.2-0.9l1.8-1.2
	l2.6-1.9l-1-1.2c2.9-2.4,2.5-2.1,2.5-5.3c-1.3,0-2.7,0-4,0c1,3,0.8,2,0.8,5.1c-1.1,0.3-2.4,0.8-3.5,0.6l0.6-2.8l-2.6,0.9l-0.1,0.1
	l0,0c-0.5-1.3,0.2-2.6,0.6-3.9c-2.6,0-5.1,0-7.7,0c0,1.8-0.2,3.3,1.1,4.8C118.3,191.2,118.5,191.4,118.7,191.6z"/>
<path fill-rule="evenodd" clip-rule="evenodd" fill="#A27556" d="M121,190.9l-0.8,1.2l3.6,2.5l1-1.4l-0.4-0.1l0.3-1.6l-1.5,0.6
	c-0.6-1.5-1.1-2.6-0.6-4.3h-4.1C118.5,189.3,119.3,190.8,121,190.9L121,190.9z M125.1,193.2l1,1.4l1.8-1.2
	C126.8,193.6,126.1,193.4,125.1,193.2L125.1,193.2z M131.1,189.2c0.2-0.5,0.2-0.9,0.2-1.4h-0.4C131.1,188.2,131.1,188.7,131.1,189.2
	z"/>
<g>
	<g>
		<path fill-rule="evenodd" clip-rule="evenodd" fill="#A27556" d="M71.7,145.4v-3.3l-1.3-0.3c-1.9-0.4-3-1.9-3-4.1v-1H72l-0.5,1.3
			c-0.3,0.8-0.3,1.6,0,2.4l0.5,1.2l1.1,0.6c0.5,0.3,0.9,0.4,1.4,0.4c0,0,0,0,0,0c0.6,0,1.2-0.2,2.1-0.6l1-0.4l0.2-0.9
			c0.1-0.8,0.2-2.2,0-2.7l-0.4-1.3h4.9v1c0,2.3-1.3,4-3.4,4.2l-0.8,0.1v3.4H71.7z"/>
	</g>
	<g>
		<path fill="#4F392A" d="M81.3,137.7c0,1.6-0.8,3-2.5,3.2c0.1-0.8,0.2-2.4,0-3.2H81.3 M70.6,137.7c-0.4,1-0.3,2.1,0.1,3.1
			c-1.6-0.3-2.2-1.7-2.2-3.1H70.6 M77.1,143v1.4h-4.4v-1.3c0.7,0.3,1.3,0.5,1.9,0.5C75.4,143.6,76.2,143.4,77.1,143 M83.3,135.7h-2
			h-2.5h-2.8l0.9,2.6c0.1,0.3,0.1,1.5,0,2.2l-0.1,0.4l-0.5,0.2c-0.8,0.3-1.3,0.5-1.8,0.5c-0.3,0-0.6-0.1-1-0.3l-0.8-0.4l-0.3-0.8
			c-0.2-0.5-0.2-1.1,0-1.7l1-2.7h-2.8h-2.1h-2v2c0,2.6,1.4,4.6,3.8,5.1l0.5,0.1v0.2v1.3v2h2h4.4h2v-2V143v-0.1
			c2.5-0.3,4.2-2.3,4.2-5.1V135.7L83.3,135.7z"/>
	</g>
</g>
<g>
	<g>
		<path fill-rule="evenodd" clip-rule="evenodd" fill="#A27556" d="M71.7,195.4V192l-0.8-0.1c-2.1-0.2-3.4-1.8-3.4-4.2v-1h4.9
			l-0.4,1.3c-0.3,1-0.2,1.4,0,2.5l0.2,1.1l1,0.4c1,0.4,1.6,0.6,2.1,0.6c0.5,0,0.9-0.1,1.4-0.4l1.1-0.6l0.5-1.2
			c0.3-0.8,0.3-1.6,0-2.4l-0.5-1.3h4.5v1c0,2.2-1.1,3.7-3,4.1l-1.3,0.3v3.3H71.7z"/>
	</g>
	<g>
		<path fill="#4F392A" d="M81.3,187.7c0,1.5-0.6,2.8-2.2,3.1c0.4-1,0.4-2.1,0.1-3.1H81.3 M71,187.7c-0.4,1.3-0.3,1.9,0,3.2
			c-1.7-0.1-2.5-1.6-2.5-3.2H71 M72.7,193c0.9,0.4,1.7,0.6,2.5,0.6c0.6,0,1.2-0.1,1.9-0.5v1.3h-4.4V193 M83.3,185.7h-2h-2.1h-2.8
			l1,2.7c0.2,0.5,0.2,1.2,0,1.7l-0.3,0.8l-0.8,0.4c-0.3,0.2-0.6,0.3-1,0.3c-0.4,0-0.9-0.1-1.8-0.5l-0.5-0.2l-0.1-0.4l0-0.2
			c-0.2-1.1-0.2-1.3,0-2l0.8-2.6H71h-2.5h-2v2c0,2.8,1.7,4.9,4.2,5.1v0.1v1.4v2h2h4.4h2v-2v-1.3v-0.2l0.5-0.1
			c2.3-0.5,3.7-2.4,3.7-5.1V185.7L83.3,185.7z"/>
	</g>
</g>
<path fill-rule="evenodd" clip-rule="evenodd" fill="#4F392A" d="M25.7,146.7l-0.7-1.1l-0.8,1.1c-2-1.4-4-2.8-6-4.2l0.6-0.8
	c-0.3-0.2-0.5-0.4-0.7-0.7c-1.2-1.4-1-3-1-4.7c2.4,0,4.8,0,7.2,0l-0.6,1.9c-0.8,2.5,1.8,4.6,4.3,3.3l-0.1-0.1l-1.5-2.3l2.7,0
	c0.3,0,0.1-0.7,0-0.9l-0.6-1.9c1.4,0,2.9,0,4.3,0c0,5.6-4.1,3.2-1.8,6.7C29.3,144.2,27.5,145.4,25.7,146.7z"/>
<path fill-rule="evenodd" clip-rule="evenodd" fill="#A27556" d="M28.4,142.9l-2.4,1.7l-0.9-1.3C26.2,143.6,27.4,143.5,28.4,142.9
	L28.4,142.9z M24.8,143.2l-1,1.4l-3.6-2.5l0.8-1.2c-1.8-0.1-2.5-1.6-2.5-3.2h3.7C21.5,140,22.7,142.3,24.8,143.2L24.8,143.2z
	 M30.5,137.7h0.8c0,0.8-0.1,1.4-0.6,2.1C30.7,139.1,30.8,138.5,30.5,137.7L30.5,137.7z M29.9,140.6c-0.4,0.2-0.6,0.4-0.8,0
	L29.9,140.6z"/>
<path fill-rule="evenodd" clip-rule="evenodd" fill="#4F392A" d="M24.2,196.7l0.7-1.1l0.8,1.1l6-4.2l-0.6-0.8
	c0.3-0.2,0.5-0.4,0.7-0.7c1.2-1.4,1-3,1-4.7c-2.4,0-4.8,0-7.2,0l0.6,1.9c0.8,2.5-1.9,4.6-4.1,3.4l-0.2-0.1l0.1-0.1l1.5-2.3l-2.9,0
	c0-0.9,0.5-2,0.7-2.8c-1.4,0-2.9,0-4.3,0v1.5c0,3.6,4.2,1.5,1.8,5.2C20.6,194.2,22.4,195.4,24.2,196.7z"/>
<path fill-rule="evenodd" clip-rule="evenodd" fill="#A27556" d="M21.4,192.9l2.4,1.7l0.9-1.3C23.6,193.6,22.4,193.5,21.4,192.9
	L21.4,192.9z M25,193.2l1,1.4l3.6-2.5l-0.8-1.2c1.7-0.1,2.5-1.6,2.5-3.2h-3.7C28.4,190,27.2,192.3,25,193.2L25,193.2z M19.3,187.7
	h-0.8c0,0.8,0.1,1.4,0.6,2.1C19.1,189.1,19.1,188.5,19.3,187.7L19.3,187.7z M19.9,190.6c0.4,0.2,0.6,0.4,0.8,0L19.9,190.6z"/>
</svg>
