<?xml version="1.0" encoding="utf-8"?>
<!-- Generator: Adobe Illustrator 16.0.0, SVG Export Plug-In . SVG Version: 6.00 Build 0)  -->
<!DOCTYPE svg PUBLIC "-//W3C//DTD SVG 1.1//EN" "http://www.w3.org/Graphics/SVG/1.1/DTD/svg11.dtd">
<svg version="1.1" id="Layer_3" xmlns="http://www.w3.org/2000/svg" xmlns:xlink="http://www.w3.org/1999/xlink" x="0px" y="0px"
	 width="150px" height="250px" viewBox="0 0 150 250" enable-background="new 0 0 150 250" xml:space="preserve">
<path fill-rule="evenodd" clip-rule="evenodd" fill="#4F392A" d="M36.7,72.2c0.8,1.5,1.6,3.6,2.1,6.7c-9.8,3.7-18,3.7-27.8,0
	c0.6-3.1,1.3-5.2,2.1-6.7c-0.1-0.1-0.3-0.2-0.4-0.3C7,67.6,7.4,51.4,24.4,51.1h1.1c17,0.3,17.3,16.5,11.6,20.8L36.7,72.2z"/>
<path fill-rule="evenodd" clip-rule="evenodd" fill="#4F392A" d="M136.7,72.2c0.8,1.5,1.6,3.6,2.1,6.7c-9.8,3.7-18,3.7-27.8,0
	c0.6-3.1,1.3-5.2,2.1-6.7c-0.1-0.1-0.3-0.2-0.4-0.3c-5.7-4.3-5.4-20.5,11.6-20.8h1.1c17,0.3,17.3,16.5,11.6,20.8L136.7,72.2z"/>
<path fill-rule="evenodd" clip-rule="evenodd" fill="#4F392A" d="M86.7,72.2c0.8,1.5,1.6,3.6,2.1,6.7c-9.8,3.7-18,3.7-27.8,0
	c0.6-3.1,1.3-5.2,2.1-6.7c-0.1-0.1-0.3-0.2-0.4-0.3c-5.7-4.3-5.4-20.5,11.6-20.8h1.1c17,0.3,17.3,16.5,11.6,20.8L86.7,72.2z"/>
<path fill-rule="evenodd" clip-rule="evenodd" fill="#4F392A" d="M11.8,22.9C6,18.6,7.4,0.4,24.4,0.1h1.1
	c17,0.3,18.6,18.6,12.9,22.9c-0.6,0.4,0.1,5.3,0.4,6.9c-0.5,0.2-1.1,0.4-1.6,0.6l-3.3-4c0.9-1.5,0.9-3.1-0.1-4.5
	c0.8-1.2,1.1-9.2,0.5-10.6l-0.2,0l0,0c-3.1,0.3-6.4-0.2-9.1-1.7c-2.6,1.4-6.4,2-9.3,1.7l0,0l-0.3,0c-0.2,0.5,0.2,7.7,0.1,10
	c0.1,0.2,0.2,0.4,0.4,0.6c-1.4,2.1-0.7,4.3,1.1,5.9c-1.7,0.2-3.2,1.6-3.9,2.9c-0.7-0.2-1.5-0.5-2.2-0.8"/>
<g>
	<path fill-rule="evenodd" clip-rule="evenodd" fill="#4F392A" d="M15.4,131.2c-0.3,0-0.9-0.1-1.2-1c-4.1-10.3-4.6-18-1.4-22.8
		c2.5-3.7,7.1-5.7,13.8-5.8l0.2,0c6.3,0,10.1,3.6,10.1,5.2c0,0.7-0.5,1.2-1.2,1.2c-0.2,0-0.3,0-0.5-0.1c-0.2-0.1-0.3-0.1-0.5-0.1
		c-0.5,3-3.8,4.6-7.1,4.6c-0.2,0-0.4,0-0.6,0c0.6,3-0.1,6.7-1.8,9.1c-1.2,1.8-2.9,2.7-4.6,2.7c-0.7,0-1.3-0.1-2-0.4
		c-0.5,1.6-0.9,3.1-1.3,4.2C16.6,130.4,16.4,131.2,15.4,131.2z"/>
	<g>
		<path fill="#4F392A" d="M26.8,102.6c6.7,0,10,4.4,8.9,4.4c-0.1,0-0.1,0-0.2,0c-0.5-0.2-1-0.2-1.6-0.2c-0.1,0-0.1,0-0.2,0
			c0,0.1,0,0.2,0,0.3c0,3-3.3,4.4-6.1,4.4c-0.7,0-1.3-0.1-1.9-0.2c1.7,4.6-0.6,12.1-5.1,12.1c-0.8,0-1.7-0.2-2.6-0.8
			c-1.6,4.5-2.1,7.8-2.5,7.8c-0.1,0-0.1-0.1-0.2-0.3c-6.1-15.4-5-27,11.5-27.3C26.7,102.6,26.7,102.6,26.8,102.6 M26.8,100.6l-0.2,0
			c-7,0.1-11.9,2.3-14.6,6.3c-3.4,5.1-3,13.1,1.3,23.7c0.5,1.5,1.7,1.6,2.1,1.6c1.8,0,2.1-1.4,2.8-4c0.2-0.9,0.5-2,0.9-3.2
			c0.5,0.1,0.9,0.2,1.4,0.2c2.1,0,4-1.1,5.5-3.2c1.6-2.4,2.4-5.7,2.1-8.7c3.1-0.2,6.2-1.7,7.2-4.4c0.1,0,0.2,0,0.3,0
			c0.6,0,1.1-0.2,1.5-0.6c0.4-0.4,0.7-1,0.7-1.6C37.9,104.3,33.1,100.6,26.8,100.6L26.8,100.6z"/>
	</g>
</g>
<g>
	<path fill-rule="evenodd" clip-rule="evenodd" fill="#4F392A" d="M65.4,131.2c-0.3,0-0.9-0.1-1.2-1c-4.1-10.3-4.6-18-1.4-22.8
		c2.5-3.7,7.1-5.7,13.8-5.8l0.2,0c6.3,0,10.1,3.6,10.1,5.2c0,0.7-0.5,1.2-1.2,1.2c-0.2,0-0.3,0-0.5-0.1c-0.2-0.1-0.3-0.1-0.5-0.1
		c-0.5,3-3.8,4.6-7.1,4.6c-0.2,0-0.4,0-0.6,0c0.6,3-0.1,6.7-1.8,9.1c-1.2,1.8-2.9,2.7-4.6,2.7c-0.7,0-1.3-0.1-2-0.4
		c-0.5,1.6-0.9,3.1-1.2,4.2C66.6,130.4,66.4,131.2,65.4,131.2z"/>
	<g>
		<path fill="#4F392A" d="M76.8,102.6c6.7,0,10,4.4,8.9,4.4c-0.1,0-0.1,0-0.2,0c-0.5-0.2-1-0.2-1.6-0.2c-0.1,0-0.1,0-0.2,0
			c0,0.1,0,0.2,0,0.3c0,3-3.3,4.4-6.1,4.4c-0.7,0-1.3-0.1-1.9-0.2c1.7,4.6-0.6,12.1-5.1,12.1c-0.8,0-1.7-0.2-2.6-0.8
			c-1.6,4.5-2.1,7.8-2.5,7.8c-0.1,0-0.1-0.1-0.2-0.3c-6.1-15.4-5-27,11.5-27.3C76.7,102.6,76.7,102.6,76.8,102.6 M76.8,100.6l-0.2,0
			c-7,0.1-11.9,2.3-14.6,6.3c-3.4,5.1-3,13.1,1.3,23.7c0.5,1.5,1.7,1.6,2.1,1.6c1.8,0,2.1-1.4,2.8-4c0.2-0.9,0.5-2,0.9-3.2
			c0.5,0.1,0.9,0.2,1.4,0.2c2.1,0,4.1-1.1,5.5-3.2c1.6-2.4,2.4-5.7,2.1-8.7c3.1-0.2,6.2-1.7,7.2-4.4c0.1,0,0.2,0,0.3,0
			c0.6,0,1.1-0.2,1.5-0.6c0.4-0.4,0.7-1,0.7-1.6C87.9,104.3,83.1,100.6,76.8,100.6L76.8,100.6z"/>
	</g>
</g>
<g>
	<path fill-rule="evenodd" clip-rule="evenodd" fill="#4F392A" d="M115.4,131.2c-0.3,0-0.9-0.1-1.2-1c-4.1-10.3-4.6-18-1.4-22.8
		c2.5-3.7,7.1-5.7,13.8-5.8l0.2,0c6.3,0,10.1,3.6,10.1,5.2c0,0.7-0.5,1.2-1.2,1.2c-0.2,0-0.3,0-0.5-0.1c-0.2-0.1-0.3-0.1-0.5-0.1
		c-0.5,3-3.8,4.6-7.1,4.6c-0.2,0-0.4,0-0.6,0c0.6,3-0.1,6.7-1.8,9.1c-1.2,1.8-2.9,2.7-4.6,2.7c-0.7,0-1.3-0.1-2-0.4
		c-0.5,1.6-0.9,3.1-1.2,4.2C116.6,130.4,116.4,131.2,115.4,131.2z"/>
	<g>
		<path fill="#4F392A" d="M126.8,102.6c6.7,0,10,4.4,8.9,4.4c-0.1,0-0.1,0-0.2,0c-0.5-0.2-1-0.2-1.6-0.2c-0.1,0-0.1,0-0.2,0
			c0,0.1,0,0.2,0,0.3c0,3-3.3,4.4-6.1,4.4c-0.7,0-1.3-0.1-1.9-0.2c1.7,4.6-0.6,12.1-5.1,12.1c-0.8,0-1.7-0.2-2.6-0.8
			c-1.6,4.5-2.1,7.8-2.5,7.8c-0.1,0-0.1-0.1-0.2-0.3c-6.1-15.4-5-27,11.5-27.3C126.7,102.6,126.7,102.6,126.8,102.6 M126.8,100.6
			l-0.2,0c-7,0.1-11.9,2.3-14.6,6.3c-3.4,5.1-3,13.1,1.3,23.7c0.5,1.5,1.7,1.6,2.1,1.6c1.8,0,2.1-1.4,2.8-4c0.2-0.9,0.5-2,0.9-3.2
			c0.5,0.1,0.9,0.2,1.4,0.2c2.1,0,4.1-1.1,5.5-3.2c1.6-2.4,2.4-5.7,2.1-8.7c3.1-0.2,6.2-1.7,7.2-4.4c0.1,0,0.2,0,0.3,0
			c0.6,0,1.1-0.2,1.5-0.6c0.4-0.4,0.7-1,0.7-1.6C137.9,104.2,133.2,100.6,126.8,100.6L126.8,100.6z"/>
	</g>
</g>
<g>
	<path fill-rule="evenodd" clip-rule="evenodd" fill="#4F392A" d="M34.6,181.2c-1,0-1.2-0.8-1.9-3.2c-0.3-1.1-0.7-2.6-1.3-4.2
		c-0.7,0.3-1.4,0.4-2,0.4c-1.8,0-3.4-1-4.6-2.7c-1.7-2.4-2.4-6.1-1.8-9.1c-0.2,0-0.4,0-0.6,0c-3.3,0-6.6-1.6-7.1-4.6
		c-0.2,0-0.4,0.1-0.5,0.1c-0.2,0.1-0.4,0.1-0.5,0.1c-0.3,0-0.6-0.1-0.8-0.3c-0.2-0.2-0.4-0.5-0.4-0.9c0-1.6,3.8-5.2,10.1-5.2l0.2,0
		c6.7,0.1,11.3,2.1,13.8,5.8c3.2,4.8,2.7,12.5-1.4,22.8C35.5,181,34.9,181.2,34.6,181.2L34.6,181.2z"/>
	<g>
		<path fill="#4F392A" d="M23.2,152.6c0.1,0,0.1,0,0.2,0c16.4,0.3,17.6,11.9,11.5,27.3c-0.1,0.2-0.1,0.3-0.2,0.3
			c-0.4,0-1-3.4-2.5-7.8c-0.9,0.5-1.8,0.8-2.6,0.8c-4.5,0-6.8-7.5-5.1-12.1c-0.6,0.2-1.3,0.2-1.9,0.2c-2.9,0-6.1-1.4-6.1-4.4
			c0-0.1,0-0.2,0-0.3c-0.1,0-0.1,0-0.2,0c-0.6,0-1.1,0.1-1.6,0.2c-0.1,0-0.2,0-0.2,0C13.2,156.9,16.5,152.6,23.2,152.6 M23.2,150.6
			L23.2,150.6c-5.8,0-9.6,2.9-10.7,4.8c-0.7,1.2-0.4,2.1-0.1,2.5c0.4,0.7,1.1,1.1,1.9,1.1c0.1,0,0.2,0,0.3,0c1,2.7,4.1,4.2,7.2,4.4
			c-0.3,3,0.5,6.3,2.1,8.7c1.4,2,3.3,3.2,5.5,3.2c0.5,0,0.9-0.1,1.4-0.2c0.4,1.2,0.7,2.4,0.9,3.3c0.7,2.5,1.1,4,2.8,4
			c0.4,0,1.5-0.1,2.1-1.6c4.2-10.6,4.7-18.6,1.3-23.7c-2.7-4-7.6-6.1-14.6-6.3L23.2,150.6L23.2,150.6z"/>
	</g>
</g>
<g>
	<path fill-rule="evenodd" clip-rule="evenodd" fill="#4F392A" d="M84.6,181.2c-1,0-1.2-0.8-1.9-3.2c-0.3-1.1-0.7-2.6-1.3-4.2
		c-0.7,0.3-1.4,0.4-2,0.4c-1.8,0-3.4-1-4.6-2.7c-1.7-2.4-2.4-6.1-1.8-9.1c-0.2,0-0.4,0-0.6,0c-1.7,0-3.4-0.4-4.7-1.2
		c-1.3-0.8-2.2-2-2.4-3.4c-0.2,0-0.4,0.1-0.5,0.1c-0.2,0.1-0.4,0.1-0.5,0.1c-0.3,0-0.6-0.1-0.8-0.3c-0.2-0.2-0.4-0.5-0.4-0.9
		c0-1.6,3.8-5.2,10.1-5.2l0.2,0c6.7,0.1,11.3,2.1,13.8,5.8c3.2,4.8,2.7,12.5-1.4,22.8C85.5,181,84.9,181.2,84.6,181.2L84.6,181.2z"
		/>
	<g>
		<path fill="#4F392A" d="M73.2,152.6c0.1,0,0.1,0,0.2,0c16.4,0.3,17.6,11.9,11.5,27.3c-0.1,0.2-0.1,0.3-0.2,0.3
			c-0.4,0-1-3.4-2.5-7.8c-0.9,0.5-1.8,0.8-2.6,0.8c-4.5,0-6.8-7.5-5.1-12.1c-0.6,0.2-1.3,0.2-1.9,0.2c-2.9,0-6.1-1.4-6.1-4.4
			c0-0.1,0-0.2,0-0.3c-0.1,0-0.1,0-0.2,0c-0.6,0-1.1,0.1-1.6,0.2c-0.1,0-0.2,0-0.2,0C63.2,156.9,66.5,152.6,73.2,152.6 M73.2,150.6
			L73.2,150.6c-5.8,0-9.6,2.9-10.7,4.8c-0.7,1.2-0.4,2.1-0.1,2.5c0.4,0.7,1.1,1.1,1.9,1.1c0.1,0,0.2,0,0.3,0c1,2.7,4.1,4.2,7.2,4.4
			c-0.3,3,0.5,6.3,2.1,8.7c1.4,2,3.3,3.2,5.5,3.2c0.5,0,0.9-0.1,1.4-0.2c0.4,1.2,0.7,2.4,0.9,3.3c0.7,2.5,1.1,4,2.8,4
			c0.4,0,1.5-0.1,2.1-1.6c4.2-10.6,4.7-18.6,1.3-23.7c-2.7-4-7.6-6.1-14.6-6.3L73.2,150.6L73.2,150.6z"/>
	</g>
</g>
<g>
	<path fill-rule="evenodd" clip-rule="evenodd" fill="#4F392A" d="M134.6,181.2c-1,0-1.2-0.8-1.9-3.2c-0.3-1.1-0.7-2.6-1.3-4.2
		c-0.7,0.3-1.4,0.4-2,0.4c-1.8,0-3.4-1-4.6-2.7c-1.7-2.4-2.4-6.1-1.8-9.1c-0.2,0-0.4,0-0.6,0c-3.3,0-6.6-1.6-7.1-4.6
		c-0.2,0-0.4,0.1-0.5,0.1c-0.2,0.1-0.4,0.1-0.5,0.1c-0.3,0-0.6-0.1-0.8-0.3c-0.2-0.2-0.4-0.5-0.4-0.9c0-1.6,3.8-5.2,10.1-5.2l0.2,0
		c6.7,0.1,11.3,2.1,13.8,5.8c3.2,4.8,2.7,12.5-1.4,22.8C135.5,181,134.9,181.2,134.6,181.2L134.6,181.2z"/>
	<g>
		<path fill="#4F392A" d="M123.2,152.6c0.1,0,0.1,0,0.2,0c16.4,0.3,17.6,11.9,11.5,27.3c-0.1,0.2-0.1,0.3-0.2,0.3
			c-0.4,0-1-3.4-2.5-7.8c-0.9,0.5-1.8,0.8-2.6,0.8c-4.5,0-6.8-7.5-5.1-12.1c-0.6,0.2-1.3,0.2-1.9,0.2c-2.9,0-6.1-1.4-6.1-4.4
			c0-0.1,0-0.2,0-0.3c-0.1,0-0.1,0-0.2,0c-0.6,0-1.1,0.1-1.6,0.2c-0.1,0-0.2,0-0.2,0C113.2,156.9,116.5,152.6,123.2,152.6
			 M123.2,150.6L123.2,150.6c-5.8,0-9.6,2.9-10.7,4.8c-0.7,1.2-0.4,2.1-0.1,2.5c0.4,0.7,1.1,1.1,1.9,1.1c0.1,0,0.2,0,0.3,0
			c1,2.7,4.1,4.2,7.2,4.4c-0.3,3,0.5,6.3,2.1,8.7c1.4,2,3.3,3.2,5.5,3.2c0.5,0,0.9-0.1,1.4-0.2c0.4,1.2,0.7,2.4,0.9,3.3
			c0.7,2.5,1.1,4,2.8,4c0.4,0,1.5-0.1,2.1-1.6c4.2-10.6,4.7-18.6,1.3-23.7c-2.7-4-7.6-6.1-14.6-6.3L123.2,150.6L123.2,150.6z"/>
	</g>
</g>
<path fill-rule="evenodd" clip-rule="evenodd" fill="#70513B" d="M25.1,102.6c9-0.6,11.8,4.7,10.3,4.3c-0.8-0.3-1.8-0.3-2.9-0.1
	C32.8,104.9,26.8,102.9,25.1,102.6z"/>
<path fill-rule="evenodd" clip-rule="evenodd" fill="#70513B" d="M75.1,102.6c9-0.6,11.8,4.7,10.3,4.3c-0.8-0.3-1.8-0.3-2.9-0.1
	C82.8,104.9,76.8,102.9,75.1,102.6z"/>
<path fill-rule="evenodd" clip-rule="evenodd" fill="#70513B" d="M125.1,102.6c9-0.6,11.8,4.7,10.3,4.3c-0.8-0.3-1.8-0.3-2.9-0.1
	C132.8,104.9,126.8,102.9,125.1,102.6z"/>
<path fill-rule="evenodd" clip-rule="evenodd" d="M26.8,102.6c0.2,0,0.4,0,0.6,0C27.1,102.5,27,102.5,26.8,102.6L26.8,102.6z"/>
<path fill-rule="evenodd" clip-rule="evenodd" d="M76.8,102.6c0.2,0,0.4,0,0.6,0C77.1,102.5,77,102.5,76.8,102.6L76.8,102.6z"/>
<path fill-rule="evenodd" clip-rule="evenodd" d="M126.8,102.6c0.2,0,0.4,0,0.6,0C127.1,102.5,127,102.5,126.8,102.6L126.8,102.6z"
	/>
<path fill-rule="evenodd" clip-rule="evenodd" d="M23.2,152.6c-0.2,0-0.4,0-0.6,0C22.9,152.5,23,152.5,23.2,152.6L23.2,152.6z"/>
<path fill-rule="evenodd" clip-rule="evenodd" d="M73.2,152.6c-0.2,0-0.4,0-0.6,0C72.9,152.5,73,152.5,73.2,152.6L73.2,152.6z"/>
<path fill-rule="evenodd" clip-rule="evenodd" d="M123.2,152.6c-0.2,0-0.4,0-0.6,0C122.9,152.5,123,152.5,123.2,152.6L123.2,152.6z"
	/>
<path fill-rule="evenodd" clip-rule="evenodd" fill="#70513B" d="M36.4,175.1c2.2-12.1,2.4-21.6-11.7-22.6c-1.1-0.1-2,0.1-2.9,0.3
	C33.6,153.7,36.9,163.4,36.4,175.1z"/>
<path fill-rule="evenodd" clip-rule="evenodd" fill="#70513B" d="M86.4,175.1c2.2-12.1,2.4-21.6-11.7-22.6c-1.1-0.1-2,0.1-2.9,0.3
	C83.6,153.7,86.9,163.4,86.4,175.1z"/>
<path fill-rule="evenodd" clip-rule="evenodd" fill="#70513B" d="M136.4,175.1c2.2-12.1,2.4-21.6-11.7-22.6c-1.1-0.1-2,0.1-2.9,0.3
	C133.6,153.7,136.9,163.4,136.4,175.1z"/>
<path fill-rule="evenodd" clip-rule="evenodd" fill="#70513B" d="M35.9,23.5c7.6-5.3-1.5-22-13.5-23.1c16-2.7,23.9,14.4,15.9,22.8
	c-0.3,0.2-0.9,1.5,0.5,6.8"/>
<path fill-rule="evenodd" clip-rule="evenodd" fill="#70513B" d="M135.9,72.5c7.6-5.3-1.5-20-13.5-21.2c16-2.7,22.6,12.7,14.7,21.1
	c-0.3,0.2,0.4,1.2,1.7,6.5"/>
<path fill-rule="evenodd" clip-rule="evenodd" fill="#70513B" d="M85.9,72.5c7.6-5.3-1.5-20-13.5-21.2c16-2.7,22.6,12.7,14.7,21.1
	c-0.3,0.2,0.4,1.2,1.7,6.5"/>
<path fill-rule="evenodd" clip-rule="evenodd" fill="#70513B" d="M35.9,72.5c7.6-5.3-1.5-20-13.5-21.2c16-2.7,22.6,12.7,14.7,21.1
	c-0.3,0.2,0.4,1.2,1.7,6.5"/>
<path fill-rule="evenodd" clip-rule="evenodd" fill="#4F392A" d="M61.8,22.9C56,18.6,57.4,0.4,74.4,0.1h1.1
	c17,0.3,18.6,18.6,12.9,22.9c-0.6,0.4,0.1,5.3,0.4,6.9c-0.5,0.2-1.1,0.4-1.6,0.6l-3.3-4c0.9-1.5,0.9-3.1-0.1-4.5
	c0.8-1.2,1.1-9.2,0.5-10.6l-0.2,0l0,0c-3.1,0.3-6.4-0.2-9.1-1.7c-2.6,1.4-6.4,2-9.3,1.7l0,0l-0.3,0c-0.2,0.5,0.2,7.7,0.1,10
	c0.1,0.2,0.2,0.4,0.4,0.6c-1.4,2.1-0.7,4.3,1.1,5.9c-1.7,0.2-3.2,1.6-3.9,2.9c-0.7-0.2-1.5-0.5-2.2-0.8"/>
<path fill-rule="evenodd" clip-rule="evenodd" fill="#70513B" d="M85.9,23.5c7.6-5.3-1.5-22-13.5-23.1c16-2.7,23.9,14.4,15.9,22.8
	c-0.3,0.2-0.9,1.5,0.5,6.8"/>
<path fill-rule="evenodd" clip-rule="evenodd" fill="#4F392A" d="M111.8,22.9c-5.7-4.3-4.4-22.5,12.6-22.8h1.1
	c17,0.3,18.6,18.6,12.9,22.9c-0.6,0.4,0.1,5.3,0.4,6.9c-0.5,0.2-1.1,0.4-1.6,0.6l-3.3-4c0.9-1.5,0.9-3.1-0.1-4.5
	c0.8-1.2,1.1-9.2,0.5-10.6l-0.2,0l0,0c-3.1,0.3-6.4-0.2-9.1-1.7c-2.6,1.4-6.4,2-9.3,1.7l0,0l-0.3,0c-0.2,0.5,0.2,7.7,0.1,10
	c0.1,0.2,0.2,0.4,0.4,0.6c-1.4,2.1-0.7,4.3,1.1,5.9c-1.7,0.2-3.2,1.6-3.9,2.9c-0.7-0.2-1.5-0.5-2.2-0.8"/>
<path fill-rule="evenodd" clip-rule="evenodd" fill="#70513B" d="M135.9,23.5c7.6-5.3-1.5-22-13.5-23.1c16-2.7,23.9,14.4,15.9,22.8
	c-0.3,0.2-0.9,1.5,0.5,6.8"/>
<path fill-rule="evenodd" clip-rule="evenodd" fill="#4F392A" d="M11.8,222.9c-5.7-4.3-4.4-22.5,12.6-22.8h1.1
	c17,0.3,18.6,18.6,12.9,22.9c-0.6,0.4,0.1,5.3,0.4,6.9c-0.5,0.2-1.1,0.4-1.6,0.6l-3.3-4c0.9-1.5,0.9-3.1-0.1-4.5
	c0.8-1.2,1.1-9.2,0.5-10.6l-0.2,0l0,0c-3.1,0.3-6.4-0.2-9.1-1.7c-2.6,1.4-6.4,2-9.3,1.7l0,0l-0.3,0c-0.2,0.5,0.2,7.7,0.1,10
	c0.1,0.2,0.2,0.4,0.4,0.6c-1.4,2.1-0.7,4.3,1.1,5.9c-1.7,0.2-3.2,1.6-3.9,2.9c-0.7-0.2-1.5-0.5-2.2-0.8"/>
<path fill-rule="evenodd" clip-rule="evenodd" fill="#70513B" d="M35.9,223.5c7.6-5.3-1.5-22-13.5-23.1c16-2.7,23.9,14.4,15.9,22.8
	c-0.3,0.2-0.9,1.5,0.5,6.8"/>
<path fill-rule="evenodd" clip-rule="evenodd" fill="#4F392A" d="M61.8,222.9c-5.7-4.3-4.4-22.5,12.6-22.8h1.1
	c17,0.3,18.6,18.6,12.9,22.9c-0.6,0.4,0.1,5.3,0.4,6.9c-0.5,0.2-1.1,0.4-1.6,0.6l-3.3-4c0.9-1.5,0.9-3.1-0.1-4.5
	c0.8-1.2,1.1-9.2,0.5-10.6l-0.2,0l0,0c-3.1,0.3-6.4-0.2-9.1-1.7c-2.6,1.4-6.4,2-9.3,1.7l0,0l-0.3,0c-0.2,0.5,0.2,7.7,0.1,10
	c0.1,0.2,0.2,0.4,0.4,0.6c-1.4,2.1-0.7,4.3,1.1,5.9c-1.7,0.2-3.2,1.6-3.9,2.9c-0.7-0.2-1.5-0.5-2.2-0.8"/>
<path fill-rule="evenodd" clip-rule="evenodd" fill="#70513B" d="M85.9,223.5c7.6-5.3-1.5-22-13.5-23.1c16-2.7,23.9,14.4,15.9,22.8
	c-0.3,0.2-0.9,1.5,0.5,6.8"/>
<path fill-rule="evenodd" clip-rule="evenodd" fill="#4F392A" d="M111.8,222.9c-5.7-4.3-4.4-22.5,12.6-22.8h1.1
	c17,0.3,18.6,18.6,12.9,22.9c-0.6,0.4,0.1,5.3,0.4,6.9c-0.5,0.2-1.1,0.4-1.6,0.6l-3.3-4c0.9-1.5,0.9-3.1-0.1-4.5
	c0.8-1.2,1.1-9.2,0.5-10.6l-0.2,0l0,0c-3.1,0.3-6.4-0.2-9.1-1.7c-2.6,1.4-6.4,2-9.3,1.7l0,0l-0.3,0c-0.2,0.5,0.2,7.7,0.1,10
	c0.1,0.2,0.2,0.4,0.4,0.6c-1.4,2.1-0.7,4.3,1.1,5.9c-1.7,0.2-3.2,1.6-3.9,2.9c-0.7-0.2-1.5-0.5-2.2-0.8"/>
<path fill-rule="evenodd" clip-rule="evenodd" fill="#70513B" d="M135.9,223.5c7.6-5.3-1.5-22-13.5-23.1c16-2.7,23.9,14.4,15.9,22.8
	c-0.3,0.2-0.9,1.5,0.5,6.8"/>
</svg>
