<?xml version="1.0" encoding="utf-8"?>
<!-- Generator: Adobe Illustrator 16.0.0, SVG Export Plug-In . SVG Version: 6.00 Build 0)  -->
<!DOCTYPE svg PUBLIC "-//W3C//DTD SVG 1.1//EN" "http://www.w3.org/Graphics/SVG/1.1/DTD/svg11.dtd">
<svg version="1.1" id="Layer_3" xmlns="http://www.w3.org/2000/svg" xmlns:xlink="http://www.w3.org/1999/xlink" x="0px" y="0px"
	 width="150px" height="250px" viewBox="0 0 150 250" enable-background="new 0 0 150 250" xml:space="preserve">
<g>
	<path fill-rule="evenodd" clip-rule="evenodd" fill="#4F392A" d="M24.7,84.1c-4.3,0-7.9-1-9.5-2.8c-1.2-1.4-2.3-6.2-2.8-10.2
		c-0.9-1.5-1.5-4.7-1.1-8.1c0-0.2-0.1-0.3-0.1-0.4l-1.4-0.2l1.2-1.3c0.3-0.3,0.6-0.6,0.9-0.9c0.9-2.7,2.3-4.6,4.4-6.1
		c2.5-1.7,5.4-2.7,8.3-2.7c2.6,0,5.3,0.8,7.8,2.2c2.7,1.6,4.5,3.8,5.4,6.5c0.4,0.3,0.7,0.6,0.9,0.9l1.2,1.3l-1.3,0.2
		c0,0.1-0.1,0.2-0.1,0.4c0.4,3.4-0.2,6.6-1.1,8.1c-0.5,3.9-1.5,8.9-2.8,10.2C32.5,83.4,28.1,84.1,24.7,84.1z"/>
	<g>
		<path fill="#4F392A" d="M24.6,52.4c2.5,0,4.9,0.7,7.3,2.1c2.6,1.6,4.3,3.8,5.1,6.3c0.4,0.3,0.7,0.6,1,1c-0.2,0-0.4,0.5-0.5,1.3
			c0.5,3.4-0.2,6.5-1,7.8c-0.6,4.9-1.7,8.9-2.6,9.8c-1.6,1.6-5.4,2.5-9.2,2.5c-3.6,0-7.2-0.8-8.7-2.5c-0.9-0.9-2-5-2.6-9.8
			c-0.8-1.3-1.5-4.4-1-7.8c-0.2-0.8-0.3-1.3-0.5-1.3c0.3-0.3,0.7-0.7,1-1c0.7-2.3,1.9-4.3,4.1-5.9C19.3,53.2,22,52.4,24.6,52.4
			 M24.6,50.4L24.6,50.4c-3.1,0-6.2,1-8.8,2.8c-2.2,1.6-3.7,3.6-4.7,6.3c-0.3,0.3-0.6,0.5-0.8,0.8L7.9,63l2.3,0.4
			c-0.3,3,0.2,6.1,1.2,8c0.5,4,1.6,8.9,3,10.5c2.5,2.8,8,3.1,10.2,3.1c1.8,0,7.8-0.2,10.6-3c1.8-1.8,2.8-8.1,3.1-10.6
			c1-1.9,1.5-5,1.2-8l2.3-0.4l-2.4-2.7c-0.2-0.3-0.5-0.6-0.8-0.8c-1-2.8-3-5.1-5.8-6.8C30.3,51.2,27.5,50.4,24.6,50.4L24.6,50.4z"/>
	</g>
</g>
<g>
	<path fill-rule="evenodd" clip-rule="evenodd" fill="#4F392A" d="M74.7,84.1c-4.3,0-7.9-1-9.5-2.8c-1.2-1.4-2.3-6.2-2.8-10.2
		c-0.9-1.5-1.5-4.7-1.1-8.1c0-0.2-0.1-0.3-0.1-0.4l-1.3-0.2l1.2-1.3c0.3-0.3,0.6-0.6,0.9-0.9c0.9-2.7,2.3-4.6,4.4-6.1
		c2.5-1.7,5.4-2.7,8.3-2.7c2.6,0,5.3,0.8,7.8,2.2c2.7,1.6,4.5,3.8,5.4,6.5c0.4,0.3,0.7,0.6,0.9,0.9l1.2,1.3l-1.3,0.2
		c0,0.1-0.1,0.2-0.1,0.4c0.4,3.4-0.2,6.6-1.1,8.1c-0.5,3.9-1.5,8.9-2.8,10.2C82.5,83.4,78.1,84.1,74.7,84.1z"/>
	<g>
		<path fill="#4F392A" d="M74.6,52.4c2.5,0,4.9,0.7,7.3,2.1c2.6,1.6,4.3,3.8,5.1,6.3c0.4,0.3,0.7,0.6,1,1c-0.2,0-0.4,0.5-0.5,1.3
			c0.5,3.4-0.2,6.5-1,7.8c-0.6,4.9-1.7,8.9-2.6,9.8c-1.6,1.6-5.4,2.5-9.2,2.5c-3.6,0-7.2-0.8-8.7-2.5c-0.9-0.9-2-5-2.6-9.8
			c-0.8-1.3-1.5-4.4-1-7.8c-0.2-0.8-0.3-1.3-0.5-1.3c0.3-0.3,0.7-0.7,1-1c0.7-2.3,1.8-4.3,4.1-5.9C69.3,53.2,72,52.4,74.6,52.4
			 M74.6,50.4L74.6,50.4c-3.1,0-6.2,1-8.8,2.8c-2.2,1.6-3.7,3.6-4.7,6.3c-0.3,0.3-0.6,0.5-0.8,0.8L57.9,63l2.3,0.4
			c-0.3,3,0.2,6.1,1.2,8c0.5,3.9,1.6,8.9,3,10.5c2.5,2.8,8,3.1,10.2,3.1c1.8,0,7.8-0.2,10.6-3c1.8-1.8,2.8-8.1,3.1-10.6
			c1-1.9,1.5-5,1.2-8l2.3-0.4l-2.4-2.7c-0.3-0.3-0.5-0.6-0.8-0.8c-1-2.8-3-5.1-5.8-6.8C80.3,51.2,77.5,50.4,74.6,50.4L74.6,50.4z"/>
	</g>
</g>
<g>
	<path fill-rule="evenodd" clip-rule="evenodd" fill="#4F392A" d="M124.7,84.1c-4.3,0-7.9-1-9.5-2.8c-1.2-1.4-2.3-6.2-2.8-10.2
		c-0.9-1.5-1.5-4.7-1.1-8.1c0-0.2-0.1-0.3-0.1-0.4l-1.4-0.2l1.2-1.3c0.3-0.3,0.6-0.6,0.9-0.9c0.9-2.7,2.3-4.6,4.4-6.1
		c2.5-1.7,5.4-2.7,8.3-2.7c2.6,0,5.3,0.8,7.8,2.2c2.7,1.6,4.5,3.8,5.4,6.5c0.4,0.3,0.7,0.6,0.9,0.9l1.2,1.3l-1.4,0.2
		c0,0.1-0.1,0.2-0.1,0.4c0.4,3.4-0.2,6.6-1.1,8.1c-0.5,3.9-1.5,8.9-2.8,10.2C132.5,83.4,128.1,84.1,124.7,84.1z"/>
	<g>
		<path fill="#4F392A" d="M124.6,52.4c2.5,0,4.9,0.7,7.3,2.1c2.6,1.6,4.3,3.8,5.1,6.3c0.4,0.3,0.7,0.6,1,1c-0.2,0-0.4,0.5-0.5,1.3
			c0.5,3.4-0.2,6.5-1,7.8c-0.6,4.9-1.7,8.9-2.6,9.8c-1.6,1.6-5.4,2.5-9.2,2.5c-3.6,0-7.2-0.8-8.7-2.5c-0.9-0.9-2-5-2.6-9.8
			c-0.8-1.3-1.5-4.4-1-7.8c-0.2-0.8-0.3-1.3-0.5-1.3c0.3-0.3,0.7-0.7,1-1c0.7-2.3,1.9-4.3,4.1-5.9C119.3,53.2,122,52.4,124.6,52.4
			 M124.6,50.4L124.6,50.4c-3.1,0-6.2,1-8.8,2.8c-2.2,1.6-3.7,3.6-4.7,6.3c-0.3,0.3-0.6,0.5-0.8,0.8l-2.4,2.7l2.3,0.4
			c-0.3,3,0.2,6.1,1.2,8c0.5,4,1.6,8.9,3,10.5c2.5,2.8,8,3.1,10.2,3.1c1.8,0,7.8-0.2,10.6-3c1.8-1.8,2.8-8.1,3.1-10.6
			c1-1.9,1.5-5,1.2-8l2.3-0.4l-2.4-2.7c-0.2-0.3-0.5-0.6-0.8-0.8c-1-2.8-3-5.1-5.8-6.8C130.3,51.2,127.5,50.4,124.6,50.4L124.6,50.4
			z"/>
	</g>
</g>
<path fill-rule="evenodd" clip-rule="evenodd" fill="#4F392A" d="M38.2,9.7L38.2,9.7L38.2,9.7L38.2,9.7L38.2,9.7L38.2,9.7l0,0.1l0,0
	l0,0l0.3,0.3c0,0,2.2,2.4,2.4,2.6L39,13.1l0,0l0,0l0,0.1l0,0.1l0,0l0,0.1l0,0l0,0.1l0,0l0,0.1l0,0l0,0.1l0,0.1l0,0
	c0.3,4.1-0.6,14.1-2,18.1c-0.9-0.6-2.6-4-3.2-5.1c1.1-1,1.7-2.1,1.7-3.4l-1.4,0.5c0.2-2.4,0.5-3.6-0.3-5.9c0.7-2.2,1-4,0.3-6.3
	c-3.4,0.5-6.7-0.3-9.3-2.4c-2.7,2.1-6,3-9.3,2.4c-0.6,2.2-0.4,4.1,0.4,6.3c-0.8,2.3-0.5,3.6-0.3,5.9l-1.4-0.6
	c-0.1,2.6,2.3,4.3,4.5,5.2l0,1l0,0l0,0l0,0l0,0l0,0l0,0l-1.4-0.8c-0.7-0.4-1.5-0.2-1.9,0.5l-1.9,3.2c-0.2-0.2-0.4-0.4-0.6-0.6
	c-0.9-1-2.5-14.5-2-18.6l-1.9-0.4c0.8-1,1.7-2,2.6-2.9c1.9-5.5,7.3-9.6,12.9-9.8C30.7-0.1,36,3.9,38.2,9.7z"/>
<path fill-rule="evenodd" clip-rule="evenodd" fill="#70513B" d="M37.3,10.8c0,0,1.2,0.9,1.5,1.2l-0.8,2l0,0
	c0.3,4.3,0.5,11-0.9,15.7l-0.1,0c0.7-5-1-16-1-16C33.8,6.3,28.3,2.9,20.6,1.4C27.3,0.1,35.2,3.9,37.3,10.8z"/>
<path fill-rule="evenodd" clip-rule="evenodd" fill="#70513B" d="M37,60.3c0,0,2.1,1.6,2.3,1.9l-1.6,1.4l0,0
	c0.3,4.3-1.4,8.2-3.4,17.5c-0.1,0,0.2-15.5-0.4-17.5c0,0-6.1-10-13.8-11.5C26.8,50.7,34.9,53.4,37,60.3z"/>
<g>
	<path fill-rule="evenodd" clip-rule="evenodd" fill="#4F392A" d="M16.7,137.5c-1,0-1.7-1.1-2.5-3.1c-4.4-11-4.7-20.7-0.8-26.6
		c2.7-4,7.1-6.1,13.1-6.2l0.4,0c6.4,0,9.9,3.4,9.9,5.1c0,0.7-0.5,1.2-1.2,1.2l0,0c-0.2,0-0.3,0-0.5-0.1c-0.3-0.1-0.5-0.1-0.8-0.1
		c-2.9,0-6.7,5.1-7.9,6.8c0,0.2,0.1,1,0.1,1.6c0.1,1.1,0.3,2.1-0.2,2.7c-1.1,1.8-2.6,2.7-3.6,3.2c0.4,0.4,0.8,0.8,1.2,1.2l1.2,1
		l-1.4,0.7c-0.9,0.4-1.6,0.8-2.2,1.1c-0.8,0.4-1.4,0.6-1.7,0.9c-0.5,0.5-0.9,3.7-1.1,5.4C18.5,135.6,18.3,137.5,16.7,137.5z"/>
	<g>
		<path fill="#4F392A" d="M27,102.6c7.1,0,9.7,4.4,8.7,4.4c-0.1,0-0.1,0-0.2,0c-0.4-0.1-0.7-0.2-1.1-0.2c-3,0-6.1,3.6-8.7,7.2
			c-0.6,0.8,0.4,3.6-0.1,4.3c-1.7,2.7-4.3,3.1-4.3,3.3c0.6,0.9,1.3,1.7,2.1,2.4c-2.1,1-3.3,1.5-4,2c-1.8,1.1-1.3,10.6-2.6,10.6
			c-0.4,0-0.9-0.7-1.6-2.5c-6.1-15.4-5-31.1,11.5-31.5C26.8,102.6,26.9,102.6,27,102.6 M27,100.6c-0.1,0-0.3,0-0.4,0
			c-8,0.2-12,3.7-14,6.7c-4.1,6.2-3.8,16.2,0.7,27.5c0.8,2,1.6,3.8,3.4,3.8c2.4,0,2.7-2.6,3.1-6.3c0.2-1.4,0.4-4,0.8-4.8
			c0.3-0.2,0.8-0.4,1.4-0.7c0.6-0.3,1.4-0.6,2.3-1.1l2.8-1.4l-2.4-2c-0.1-0.1-0.1-0.1-0.2-0.2c0.9-0.6,2-1.5,2.8-2.9
			c0.6-1,0.5-2.1,0.3-3.4c0-0.3-0.1-0.8-0.1-1.1c3.7-5,5.8-6.1,6.9-6.1c0.2,0,0.3,0,0.5,0.1c0.3,0.1,0.6,0.1,0.8,0.1
			c1.2,0,2.2-1,2.2-2.2c0-1.6-1.6-3.2-3.1-4.1C33.3,101.7,30.8,100.6,27,100.6L27,100.6z"/>
	</g>
</g>
<g>
	<path fill-rule="evenodd" clip-rule="evenodd" fill="#4F392A" d="M66.7,137.5c-1,0-1.7-1.1-2.5-3.1c-4.4-11-4.7-20.7-0.8-26.6
		c2.7-4,7.1-6.1,13.1-6.2l0.4,0c6.4,0,9.9,3.4,9.9,5.1c0,0.7-0.5,1.2-1.2,1.2h0c-0.2,0-0.3,0-0.5-0.1c-0.3-0.1-0.5-0.1-0.8-0.1
		c-2.9,0-6.7,5.1-7.9,6.8c0,0.2,0.1,1,0.1,1.6c0.1,1.1,0.3,2.1-0.2,2.7c-1.1,1.8-2.6,2.7-3.6,3.2c0.4,0.4,0.8,0.8,1.2,1.2l1.2,1
		l-1.4,0.7c-0.9,0.4-1.6,0.8-2.2,1.1c-0.8,0.4-1.4,0.6-1.7,0.9c-0.5,0.5-0.9,3.7-1.1,5.4C68.5,135.6,68.3,137.5,66.7,137.5z"/>
	<g>
		<path fill="#4F392A" d="M77,102.6c7.1,0,9.7,4.4,8.7,4.4c-0.1,0-0.1,0-0.2,0c-0.4-0.1-0.7-0.2-1.1-0.2c-3,0-6.1,3.6-8.7,7.2
			c-0.6,0.8,0.4,3.6-0.1,4.3c-1.7,2.7-4.3,3.1-4.3,3.3c0.6,0.9,1.3,1.7,2.1,2.4c-2.1,1-3.3,1.5-4,2c-1.8,1.1-1.3,10.6-2.6,10.6
			c-0.4,0-0.9-0.7-1.6-2.5c-6.1-15.4-5-31.1,11.5-31.5C76.8,102.6,76.9,102.6,77,102.6 M77,100.6c-0.1,0-0.3,0-0.4,0
			c-8,0.2-12,3.7-14,6.7c-4.1,6.2-3.8,16.2,0.7,27.5c0.8,2,1.6,3.8,3.4,3.8c2.4,0,2.7-2.6,3.1-6.3c0.2-1.4,0.4-4,0.8-4.8
			c0.3-0.2,0.8-0.4,1.4-0.7c0.6-0.3,1.4-0.6,2.2-1.1l2.8-1.4l-2.4-2c-0.1-0.1-0.1-0.1-0.2-0.2c0.9-0.6,2-1.5,2.8-2.9
			c0.6-1,0.5-2.1,0.3-3.4c0-0.3-0.1-0.8-0.1-1.1c3-4,5.3-6.1,6.9-6.1c0.2,0,0.3,0,0.5,0.1c0.3,0.1,0.6,0.1,0.8,0.1
			c1.2,0,2.2-1,2.2-2.2c0-1.6-1.6-3.2-3.1-4.1C83.3,101.7,80.8,100.6,77,100.6L77,100.6z"/>
	</g>
</g>
<g>
	<path fill-rule="evenodd" clip-rule="evenodd" fill="#4F392A" d="M116.7,137.5c-1,0-1.7-1.1-2.5-3.1c-4.4-11-4.7-20.7-0.8-26.6
		c2.7-4,7.1-6.1,13.1-6.2l0.4,0c6.4,0,9.9,3.4,9.9,5.1c0,0.7-0.5,1.2-1.2,1.2h0c-0.2,0-0.3,0-0.5-0.1c-0.3-0.1-0.5-0.1-0.8-0.1
		c-2.9,0-6.7,5.1-7.9,6.8c0,0.2,0.1,1,0.1,1.5c0.1,1.1,0.3,2.1-0.2,2.7c-1.1,1.8-2.6,2.7-3.6,3.2c0.4,0.4,0.8,0.8,1.2,1.2l1.2,1
		l-1.4,0.7c-0.9,0.4-1.6,0.8-2.2,1.1c-0.8,0.4-1.4,0.6-1.7,0.9c-0.5,0.5-0.9,3.7-1.1,5.4C118.5,135.6,118.3,137.5,116.7,137.5z"/>
	<g>
		<path fill="#4F392A" d="M127,102.6c7.1,0,9.7,4.4,8.7,4.4c-0.1,0-0.1,0-0.2,0c-0.4-0.1-0.7-0.2-1.1-0.2c-3,0-6.1,3.6-8.7,7.2
			c-0.6,0.8,0.4,3.6-0.1,4.3c-1.7,2.7-4.3,3.1-4.3,3.3c0.6,0.9,1.3,1.7,2.1,2.4c-2.1,1-3.3,1.5-4,2c-1.8,1.1-1.3,10.6-2.6,10.6
			c-0.4,0-0.9-0.7-1.6-2.5c-6.1-15.4-5-31.1,11.5-31.5C126.8,102.6,126.9,102.6,127,102.6 M127,100.6c-0.1,0-0.3,0-0.4,0
			c-8,0.2-12,3.7-14,6.7c-4.1,6.2-3.8,16.2,0.7,27.5c0.8,2,1.6,3.8,3.4,3.8c2.4,0,2.7-2.6,3.1-6.3c0.2-1.4,0.4-4,0.8-4.8
			c0.3-0.2,0.8-0.4,1.5-0.7c0.6-0.3,1.4-0.6,2.2-1.1l2.8-1.4l-2.4-2c-0.1-0.1-0.1-0.1-0.2-0.2c0.9-0.6,2-1.5,2.8-2.9
			c0.6-1,0.5-2.1,0.3-3.4c0-0.3-0.1-0.8-0.1-1.1c3-4,5.3-6.1,6.9-6.1c0.2,0,0.3,0,0.5,0.1c0.3,0.1,0.6,0.1,0.8,0.1
			c1.2,0,2.2-1,2.2-2.2c0-1.6-1.6-3.2-3.1-4.1C133.3,101.7,130.8,100.6,127,100.6L127,100.6z"/>
	</g>
</g>
<path fill-rule="evenodd" clip-rule="evenodd" fill="#70513B" d="M23.8,123.3c-5.8-4.1,1.9-17.8,6.4-16.4c1.4,0.4-1.3-2.8-6.4-3.9
	c10.3-2.1,14.3,4.5,12.7,3.9c-3.3-1.1-6.9,3-9.8,7c-0.6,0.8,0.4,3.6-0.1,4.3C24.2,122.2,22.3,119.2,23.8,123.3z"/>
<path fill-rule="evenodd" clip-rule="evenodd" fill="#70513B" d="M73.8,123.3c-5.8-4.1,1.9-17.8,6.4-16.4c1.4,0.4-1.3-2.8-6.4-3.9
	c10.3-2.1,14.3,4.5,12.7,3.9c-3.3-1.1-6.9,3-9.8,7c-0.6,0.8,0.4,3.6-0.1,4.3C74.2,122.2,72.3,119.2,73.8,123.3z"/>
<path fill-rule="evenodd" clip-rule="evenodd" fill="#70513B" d="M123.8,123.3c-5.8-4.1,1.9-17.8,6.4-16.4c1.4,0.4-1.3-2.8-6.4-3.9
	c10.3-2.1,14.3,4.5,12.7,3.9c-3.3-1.1-6.9,3-9.8,7c-0.6,0.8,0.4,3.6-0.1,4.3C124.2,122.2,122.3,119.2,123.8,123.3z"/>
<g>
	<path fill-rule="evenodd" clip-rule="evenodd" fill="#4F392A" d="M33.2,187.5c-1.5,0-1.7-1.9-2.1-5.4c-0.2-1.7-0.5-4.9-1.1-5.4
		c-0.4-0.2-0.9-0.5-1.7-0.8c-0.6-0.3-1.4-0.6-2.3-1.1l-1.4-0.7l1.2-1c0.4-0.4,0.8-0.8,1.2-1.2c-1-0.5-2.5-1.4-3.6-3.2
		c-0.4-0.7-0.3-1.6-0.2-2.7c0.1-0.5,0.2-1.4,0.1-1.6c-1.2-1.6-4.9-6.7-7.8-6.7c-0.3,0-0.5,0-0.8,0.1c-0.2,0.1-0.4,0.1-0.5,0.1
		c-0.7,0-1.2-0.5-1.2-1.2c0-1,1-2.2,2.6-3.3c1.4-0.9,3.7-1.9,7.3-1.9l0.4,0c6.1,0.1,10.5,2.2,13.1,6.2c3.9,5.9,3.6,15.6-0.8,26.6
		C34.9,186.4,34.3,187.5,33.2,187.5C33.2,187.5,33.2,187.5,33.2,187.5z"/>
	<g>
		<path fill="#4F392A" d="M22.9,152.6c0.1,0,0.2,0,0.4,0c16.4,0.3,17.6,16,11.5,31.4c-0.7,1.8-1.2,2.5-1.6,2.5
			c-1.3,0-0.9-9.5-2.6-10.6c-0.7-0.5-2-1-4-2c0.8-0.7,1.5-1.5,2.1-2.4c0-0.2-2.6-0.6-4.3-3.3c-0.5-0.8,0.5-3.6-0.1-4.3
			c-2.6-3.6-5.7-7.2-8.7-7.2c-0.4,0-0.7,0.1-1.1,0.2c-0.1,0-0.1,0-0.2,0C13.2,156.9,15.9,152.6,22.9,152.6 M22.9,150.6
			c-6.1,0-9.4,2.9-10.4,4.6c-0.7,1.3-0.4,2.2-0.2,2.7c0.4,0.7,1.1,1.1,1.9,1.1c0.3,0,0.6,0,0.8-0.1c0.1,0,0.3-0.1,0.5-0.1
			c1.1,0,3.2,1.1,6.9,6.1c0,0.3-0.1,0.8-0.1,1.1c-0.2,1.2-0.3,2.4,0.3,3.4c0.9,1.4,1.9,2.3,2.8,2.9c-0.1,0.1-0.1,0.1-0.2,0.2l-2.4,2
			l2.8,1.4c0.9,0.5,1.7,0.8,2.3,1.1c0.6,0.3,1.1,0.5,1.4,0.7c0.4,0.8,0.6,3.4,0.8,4.8c0.4,3.6,0.7,6.3,3.1,6.3
			c1.8,0,2.6-1.8,3.4-3.8c4.5-11.3,4.8-21.3,0.7-27.5c-2-3-6-6.5-14-6.7C23.2,150.6,23.1,150.6,22.9,150.6L22.9,150.6L22.9,150.6
			L22.9,150.6z"/>
	</g>
</g>
<g>
	<path fill-rule="evenodd" clip-rule="evenodd" fill="#4F392A" d="M83.2,187.5c-1.5,0-1.7-1.9-2.1-5.4c-0.2-1.7-0.5-4.9-1.1-5.4
		c-0.4-0.2-0.9-0.5-1.7-0.8c-0.6-0.3-1.4-0.6-2.3-1.1l-1.4-0.7l1.2-1c0.4-0.4,0.8-0.8,1.2-1.2c-1-0.5-2.5-1.4-3.6-3.2
		c-0.4-0.7-0.3-1.6-0.2-2.7c0.1-0.5,0.2-1.4,0.1-1.6c-1.2-1.6-4.9-6.7-7.8-6.7c-0.3,0-0.5,0-0.8,0.1c-0.2,0.1-0.4,0.1-0.5,0.1
		c-0.7,0-1.2-0.5-1.2-1.2c0-1,1-2.2,2.6-3.3c1.4-0.9,3.7-1.9,7.3-1.9l0.4,0c6.1,0.1,10.5,2.2,13.1,6.2c3.9,5.9,3.6,15.6-0.8,26.6
		C84.9,186.4,84.3,187.5,83.2,187.5L83.2,187.5z"/>
	<g>
		<path fill="#4F392A" d="M72.9,152.6c0.1,0,0.2,0,0.4,0c16.4,0.3,17.6,16,11.5,31.4c-0.7,1.8-1.2,2.5-1.6,2.5
			c-1.3,0-0.9-9.5-2.6-10.6c-0.8-0.5-2-1-4-2c0.8-0.7,1.5-1.5,2.1-2.4c0-0.2-2.6-0.6-4.3-3.3c-0.5-0.8,0.5-3.6-0.1-4.3
			c-2.6-3.6-5.7-7.2-8.7-7.2c-0.4,0-0.7,0.1-1.1,0.2c-0.1,0-0.1,0-0.2,0C63.2,156.9,65.9,152.6,72.9,152.6 M72.9,150.6
			c-6.1,0-9.4,2.9-10.4,4.6c-0.7,1.3-0.4,2.2-0.2,2.7c0.4,0.7,1.1,1.1,1.9,1.1c0.3,0,0.6,0,0.8-0.1c0.1,0,0.3-0.1,0.5-0.1
			c1.1,0,3.2,1.1,6.9,6.1c0,0.3-0.1,0.8-0.1,1.1c-0.2,1.2-0.3,2.4,0.3,3.4c0.9,1.4,1.9,2.3,2.8,2.9c-0.1,0.1-0.1,0.1-0.2,0.2l-2.4,2
			l2.8,1.4c0.9,0.5,1.7,0.8,2.3,1.1c0.6,0.3,1.1,0.5,1.4,0.7c0.4,0.8,0.6,3.4,0.8,4.8c0.4,3.6,0.7,6.3,3.1,6.3
			c1.8,0,2.6-1.8,3.4-3.8c4.5-11.3,4.8-21.3,0.7-27.5c-2-3-6-6.5-14-6.7C73.2,150.6,73.1,150.6,72.9,150.6L72.9,150.6
			C72.9,150.6,72.9,150.6,72.9,150.6L72.9,150.6z"/>
	</g>
</g>
<g>
	<path fill-rule="evenodd" clip-rule="evenodd" fill="#4F392A" d="M133.2,187.5c-1.5,0-1.7-1.9-2.1-5.4c-0.2-1.7-0.5-4.9-1.1-5.4
		c-0.4-0.2-0.9-0.5-1.7-0.8c-0.6-0.3-1.4-0.6-2.3-1.1l-1.4-0.7l1.2-1c0.4-0.4,0.8-0.8,1.2-1.2c-1-0.5-2.5-1.4-3.6-3.2
		c-0.4-0.7-0.3-1.6-0.2-2.7c0.1-0.5,0.2-1.4,0.1-1.6c-1.2-1.6-4.9-6.7-7.8-6.7c-0.3,0-0.5,0-0.8,0.1c-0.2,0.1-0.4,0.1-0.5,0.1
		c-0.7,0-1.2-0.5-1.2-1.2c0-1,1-2.2,2.6-3.3c1.4-0.9,3.7-1.9,7.3-1.9l0.4,0c6,0.1,10.5,2.2,13.1,6.2c3.9,5.9,3.6,15.6-0.8,26.6
		C134.9,186.4,134.3,187.5,133.2,187.5C133.2,187.5,133.2,187.5,133.2,187.5z"/>
	<g>
		<path fill="#4F392A" d="M122.9,152.6c0.1,0,0.2,0,0.4,0c16.4,0.3,17.6,16,11.5,31.4c-0.7,1.8-1.2,2.5-1.6,2.5
			c-1.3,0-0.9-9.5-2.6-10.6c-0.8-0.5-2-1-4-2c0.8-0.7,1.5-1.5,2.1-2.4c0-0.2-2.6-0.6-4.3-3.3c-0.5-0.8,0.5-3.6-0.1-4.3
			c-2.6-3.6-5.7-7.2-8.7-7.2c-0.4,0-0.7,0.1-1.1,0.2c-0.1,0-0.1,0-0.2,0C113.2,156.9,115.9,152.6,122.9,152.6 M122.9,150.6
			c-6.1,0-9.4,2.9-10.4,4.6c-0.7,1.3-0.4,2.2-0.2,2.7c0.4,0.7,1.1,1.1,1.9,1.1c0.3,0,0.6,0,0.8-0.1c0.1,0,0.3-0.1,0.5-0.1
			c1.6,0,3.9,2,6.9,6.1c0,0.3-0.1,0.8-0.1,1.1c-0.2,1.2-0.3,2.4,0.3,3.4c0.9,1.4,1.9,2.3,2.8,2.9c-0.1,0.1-0.1,0.1-0.2,0.2l-2.4,2
			l2.8,1.4c0.9,0.5,1.7,0.8,2.3,1.1c0.6,0.3,1.1,0.5,1.4,0.7c0.4,0.8,0.6,3.4,0.8,4.8c0.4,3.6,0.7,6.3,3.1,6.3
			c1.8,0,2.6-1.8,3.4-3.8c4.5-11.3,4.8-21.3,0.7-27.5c-2-3-6-6.5-14-6.7C123.2,150.6,123.1,150.6,122.9,150.6L122.9,150.6
			C122.9,150.6,122.9,150.6,122.9,150.6L122.9,150.6z"/>
	</g>
</g>
<path fill-rule="evenodd" clip-rule="evenodd" fill="#70513B" d="M38.4,175.2c2.5-12.1-0.8-22.4-14.1-22.7c-1.2,0-2.3-0.9-3.2-0.7
	C32.3,153.5,37.6,164.1,38.4,175.2z"/>
<path fill-rule="evenodd" clip-rule="evenodd" fill="#70513B" d="M88.9,175.2c2.5-12.1-0.9-22.4-14.1-22.7c-1.2,0-2.3,0.1-3.2,0.3
	C82.8,154.5,88.1,164.1,88.9,175.2z"/>
<path fill-rule="evenodd" clip-rule="evenodd" fill="#70513B" d="M138.4,175.2c2.5-12.1-0.9-22.4-14.1-22.7c-1.2,0-2.3,0.1-3.2,0.3
	C132.3,154.5,137.6,164.1,138.4,175.2z"/>
<path fill-rule="evenodd" clip-rule="evenodd" fill="#4F392A" d="M88.2,9.7L88.2,9.7L88.2,9.7L88.2,9.7L88.2,9.7L88.2,9.7l0,0.1l0,0
	l0,0l0.3,0.3c0,0,2.2,2.4,2.4,2.6L89,13.1l0,0l0,0l0,0.1l0,0.1l0,0l0,0.1l0,0l0,0.1l0,0l0,0.1l0,0l0,0.1l0,0.1l0,0
	c0.3,4.1-0.6,14.1-2,18.1c-0.9-0.6-2.6-4-3.2-5.1c1.1-1,1.7-2.1,1.7-3.4l-1.4,0.5c0.2-2.4,0.5-3.6-0.3-5.9c0.7-2.2,1-4,0.3-6.3
	c-3.4,0.5-6.7-0.3-9.3-2.4c-2.7,2.1-6,3-9.3,2.4c-0.6,2.2-0.4,4.1,0.4,6.3c-0.8,2.3-0.5,3.6-0.3,5.9l-1.4-0.6
	c-0.1,2.6,2.3,4.3,4.5,5.2l0,1l0,0l0,0l0,0l0,0l0,0l0,0l-1.4-0.8c-0.7-0.4-1.5-0.2-1.9,0.5l-1.9,3.2c-0.2-0.2-0.4-0.4-0.6-0.6
	c-0.9-1-2.5-14.5-2-18.6l-1.9-0.4c0.8-1,1.7-2,2.6-2.9c1.9-5.5,7.3-9.6,12.9-9.8C80.7-0.1,86,3.9,88.2,9.7z"/>
<path fill-rule="evenodd" clip-rule="evenodd" fill="#4F392A" d="M138.2,9.7L138.2,9.7L138.2,9.7L138.2,9.7L138.2,9.7L138.2,9.7
	l0,0.1l0,0l0,0l0.3,0.3c0,0,2.2,2.4,2.4,2.6l-1.9,0.3l0,0l0,0l0,0.1l0,0.1l0,0l0,0.1l0,0l0,0.1l0,0l0,0.1l0,0l0,0.1l0,0.1l0,0
	c0.3,4.1-0.6,14.1-2,18.1c-0.9-0.6-2.6-4-3.2-5.1c1.1-1,1.7-2.1,1.7-3.4l-1.4,0.5c0.2-2.4,0.5-3.6-0.3-5.9c0.7-2.2,1-4,0.3-6.3
	c-3.4,0.5-6.7-0.3-9.3-2.4c-2.7,2.1-6,3-9.3,2.4c-0.6,2.2-0.4,4.1,0.3,6.3c-0.8,2.3-0.5,3.6-0.3,5.9l-1.4-0.6
	c-0.1,2.6,2.3,4.3,4.5,5.2l0,1l0,0l0,0l0,0l0,0l0,0l0,0l-1.4-0.8c-0.7-0.4-1.5-0.2-1.9,0.5l-1.9,3.2c-0.2-0.2-0.4-0.4-0.6-0.6
	c-0.9-1-2.5-14.5-2-18.6l-1.9-0.4c0.8-1,1.7-2,2.6-2.9c1.9-5.5,7.3-9.6,12.9-9.8C130.7-0.1,136,3.9,138.2,9.7z"/>
<path fill-rule="evenodd" clip-rule="evenodd" fill="#70513B" d="M87,60.3c0,0,2.1,1.6,2.3,1.9l-1.6,1.4l0,0
	c0.3,4.3-1.4,8.2-3.4,17.5c-0.1,0,0.2-15.5-0.4-17.5c0,0-6.1-10-13.8-11.5C76.8,50.7,84.9,53.4,87,60.3z"/>
<path fill-rule="evenodd" clip-rule="evenodd" fill="#70513B" d="M137.7,60.3c0,0,2.1,1.6,2.3,1.9l-1.6,1.4l0,0
	c0.3,4.3-1.4,8.2-3.4,17.5c-0.1,0,0.2-15.5-0.4-17.5c0,0-6.1-10-13.8-11.5C127.5,50.7,135.5,53.4,137.7,60.3z"/>
<path fill-rule="evenodd" clip-rule="evenodd" fill="#70513B" d="M87.3,10.8c0,0,1.2,0.9,1.5,1.2l-0.8,2l0,0
	c0.3,4.3,0.5,11-0.9,15.7l-0.1,0c0.7-5-1-16-1-16C83.8,6.3,78.3,2.9,70.6,1.4C77.3,0.1,85.2,3.9,87.3,10.8z"/>
<path fill-rule="evenodd" clip-rule="evenodd" fill="#70513B" d="M137.3,10.8c0,0,1.2,0.9,1.5,1.2l-0.8,2l0,0
	c0.3,4.3,0.5,11-0.9,15.7l-0.1,0c0.7-5-1-16-1-16c-2.3-7.4-7.8-10.8-15.4-12.3C127.3,0.1,135.2,3.9,137.3,10.8z"/>
<path fill-rule="evenodd" clip-rule="evenodd" fill="#4F392A" d="M38.2,209.7L38.2,209.7L38.2,209.7L38.2,209.7L38.2,209.7
	L38.2,209.7l0,0.1l0,0l0,0l0.3,0.3c0,0,2.2,2.4,2.4,2.6l-1.9,0.3l0,0l0,0l0,0.1l0,0.1l0,0l0,0.1l0,0l0,0.1l0,0l0,0.1l0,0l0,0.1
	l0,0.1l0,0c0.3,4.1-0.6,14.1-2,18.1c-0.9-0.6-2.6-4-3.2-5.1c1.1-1,1.7-2.1,1.7-3.4l-1.4,0.5c0.2-2.4,0.5-3.6-0.3-5.9
	c0.7-2.2,1-4,0.3-6.3c-3.4,0.5-6.7-0.3-9.3-2.4c-2.7,2.1-6,3-9.3,2.4c-0.6,2.2-0.4,4.1,0.4,6.3c-0.8,2.3-0.5,3.6-0.3,5.9l-1.4-0.6
	c-0.1,2.6,2.3,4.3,4.5,5.2l0,1l0,0l0,0l0,0l0,0l0,0l0,0l-1.4-0.8c-0.7-0.4-1.5-0.2-1.9,0.5l-1.9,3.2c-0.2-0.2-0.4-0.4-0.6-0.6
	c-0.9-1-2.5-14.5-2-18.6l-1.9-0.4c0.8-1,1.7-2,2.6-2.9c1.9-5.5,7.3-9.6,12.9-9.8C30.7,199.9,36,203.9,38.2,209.7z"/>
<path fill-rule="evenodd" clip-rule="evenodd" fill="#70513B" d="M37.3,210.8c0,0,1.2,0.9,1.5,1.2l-0.8,2l0,0
	c0.3,4.3,0.5,11-0.9,15.7l-0.1,0c0.7-4.9-1-16-1-16c-2.3-7.4-7.8-10.8-15.4-12.3C27.3,200.1,35.2,203.9,37.3,210.8z"/>
<path fill-rule="evenodd" clip-rule="evenodd" fill="#4F392A" d="M88.2,209.7L88.2,209.7L88.2,209.7L88.2,209.7L88.2,209.7
	L88.2,209.7l0,0.1l0,0l0,0l0.3,0.3c0,0,2.2,2.4,2.4,2.6l-1.9,0.3l0,0l0,0l0,0.1l0,0.1l0,0l0,0.1l0,0l0,0.1l0,0l0,0.1l0,0l0,0.1
	l0,0.1l0,0c0.3,4.1-0.6,14.1-2,18.1c-0.9-0.6-2.6-4-3.2-5.1c1.1-1,1.7-2.1,1.7-3.4l-1.4,0.5c0.2-2.4,0.5-3.6-0.3-5.9
	c0.7-2.2,1-4,0.3-6.3c-3.4,0.5-6.7-0.3-9.3-2.4c-2.7,2.1-6,3-9.3,2.4c-0.6,2.2-0.4,4.1,0.4,6.3c-0.8,2.3-0.5,3.6-0.3,5.9l-1.4-0.6
	c-0.1,2.6,2.3,4.3,4.5,5.2l0,1l0,0l0,0l0,0l0,0l0,0l0,0l-1.4-0.8c-0.7-0.4-1.5-0.2-1.9,0.5l-1.9,3.2c-0.2-0.2-0.4-0.4-0.6-0.6
	c-0.9-1-2.5-14.5-2-18.6l-1.9-0.4c0.8-1,1.7-2,2.6-2.9c1.9-5.5,7.3-9.6,12.9-9.8C80.7,199.9,86,203.9,88.2,209.7z"/>
<path fill-rule="evenodd" clip-rule="evenodd" fill="#4F392A" d="M138.2,209.7L138.2,209.7L138.2,209.7L138.2,209.7L138.2,209.7
	L138.2,209.7l0,0.1l0,0l0,0l0.3,0.3c0,0,2.2,2.4,2.4,2.6l-1.9,0.3l0,0l0,0l0,0.1l0,0.1l0,0l0,0.1l0,0l0,0.1l0,0l0,0.1l0,0l0,0.1
	l0,0.1l0,0c0.3,4.1-0.6,14.1-2,18.1c-0.9-0.6-2.6-4-3.2-5.1c1.1-1,1.7-2.1,1.7-3.4l-1.4,0.5c0.2-2.4,0.5-3.6-0.3-5.9
	c0.7-2.2,1-4,0.3-6.3c-3.4,0.5-6.7-0.3-9.3-2.4c-2.7,2.1-6,3-9.3,2.4c-0.6,2.2-0.4,4.1,0.3,6.3c-0.8,2.3-0.5,3.6-0.3,5.9l-1.4-0.6
	c-0.1,2.6,2.3,4.3,4.5,5.2l0,1l0,0l0,0l0,0l0,0l0,0l0,0l-1.4-0.8c-0.7-0.4-1.5-0.2-1.9,0.5l-1.9,3.2c-0.2-0.2-0.4-0.4-0.6-0.6
	c-0.9-1-2.5-14.5-2-18.6l-1.9-0.4c0.8-1,1.7-2,2.6-2.9c1.9-5.5,7.3-9.6,12.9-9.8C130.7,199.9,136,203.9,138.2,209.7z"/>
<path fill-rule="evenodd" clip-rule="evenodd" fill="#70513B" d="M87.3,210.8c0,0,1.2,0.9,1.5,1.2l-0.8,2l0,0
	c0.3,4.3,0.5,11-0.9,15.7l-0.1,0c0.7-4.9-1-16-1-16c-2.3-7.4-7.8-10.8-15.4-12.3C77.3,200.1,85.2,203.9,87.3,210.8z"/>
<path fill-rule="evenodd" clip-rule="evenodd" fill="#70513B" d="M137.3,210.8c0,0,1.2,0.9,1.5,1.2l-0.8,2l0,0
	c0.3,4.3,0.5,11-0.9,15.7l-0.1,0c0.7-4.9-1-16-1-16c-2.3-7.4-7.8-10.8-15.4-12.3C127.3,200.1,135.2,203.9,137.3,210.8z"/>
</svg>
