<svg version="1.1" id="Layer_3" xmlns="http://www.w3.org/2000/svg" x="0" y="0" width="150" height="250" viewBox="0 0 150 250" xml:space="preserve"><g><g><path fill-rule="evenodd" clip-rule="evenodd" fill="#7EAAF1" d="M36.6 39.4c-2.7 0-4.9-2.2-4.9-4.9s2.2-4.9 4.9-4.9 4.9 2.2 4.9 4.9c-.1 2.7-2.3 4.9-4.9 4.9z"/><path fill="#397DEA" d="M36.6 30.6c2.1 0 3.9 1.7 3.9 3.9s-1.7 3.9-3.9 3.9c-2.1 0-3.9-1.7-3.9-3.9s1.7-3.9 3.9-3.9m0-2c-3.2 0-5.9 2.6-5.9 5.9 0 3.2 2.6 5.9 5.9 5.9 3.2 0 5.9-2.6 5.9-5.9-.1-3.2-2.7-5.9-5.9-5.9z"/></g><path fill-rule="evenodd" clip-rule="evenodd" fill="#95B9F4" d="M36.6 30.6c2.1 0 3.9 1.7 3.9 3.9 0 2.1-1.6 3.8-3.7 3.9 4.4-2.1 1.8-7.8-2.1-7.2.5-.4 1.1-.6 1.9-.6z"/><path fill-rule="evenodd" clip-rule="evenodd" fill="#679BEF" d="M39.9 36.4c-1.1 1.8-3.4 2.5-5.3 1.4-1.8-1-2.4-3.3-1.5-5.1-.4 4.9 5.9 5.5 7.3 1.7 0 .7-.1 1.4-.5 2z"/><ellipse fill-rule="evenodd" clip-rule="evenodd" fill="#B7E8F3" cx="36.6" cy="32.1" rx="1.6" ry=".8"/><ellipse fill-rule="evenodd" clip-rule="evenodd" fill="#B7E8F3" cx="38.7" cy="33.2" rx=".6" ry=".3"/></g><g><g><path fill-rule="evenodd" clip-rule="evenodd" fill="#7EAAF1" d="M36.6 242.4c-2.7 0-4.9-2.2-4.9-4.9s2.2-4.9 4.9-4.9 4.9 2.2 4.9 4.9-2.3 4.9-4.9 4.9z"/><path fill="#397DEA" d="M36.6 233.6c2.1 0 3.9 1.7 3.9 3.9s-1.7 3.9-3.9 3.9c-2.1 0-3.9-1.7-3.9-3.9s1.7-3.9 3.9-3.9m0-2c-3.2 0-5.9 2.6-5.9 5.9s2.6 5.9 5.9 5.9c3.2 0 5.9-2.6 5.9-5.9s-2.7-5.9-5.9-5.9z"/></g><path fill-rule="evenodd" clip-rule="evenodd" fill="#95B9F4" d="M36.6 233.6c2.1 0 3.9 1.7 3.9 3.9 0 2.1-1.6 3.8-3.7 3.9 4.4-2.1 1.8-7.8-2.1-7.2.5-.4 1.1-.6 1.9-.6z"/><path fill-rule="evenodd" clip-rule="evenodd" fill="#679BEF" d="M39.9 239.4c-1.1 1.8-3.4 2.5-5.3 1.4-1.8-1-2.4-3.3-1.5-5.1-.4 4.9 5.9 5.5 7.3 1.7 0 .7-.1 1.4-.5 2z"/><path fill-rule="evenodd" clip-rule="evenodd" fill="#B7E8F3" d="M36.6 234.4c.9 0 1.6.3 1.6.8 0 .4-.7.8-1.6.8-.9 0-1.6-.3-1.6-.8-.1-.5.7-.8 1.6-.8z"/><path fill-rule="evenodd" clip-rule="evenodd" fill="#B7E8F3" d="M38.7 235.9c.3 0 .6.1.6.3 0 .2-.3.3-.6.3s-.6-.1-.6-.3c0-.2.3-.3.6-.3z"/></g><g><g><path fill-rule="evenodd" clip-rule="evenodd" fill="#7EAAF1" d="M86.6 41.4c-2.7 0-4.9-2.2-4.9-4.9s2.2-4.9 4.9-4.9 4.9 2.2 4.9 4.9c-.1 2.7-2.3 4.9-4.9 4.9z"/><path fill="#397DEA" d="M86.6 32.6c2.1 0 3.9 1.7 3.9 3.9s-1.7 3.9-3.9 3.9-3.9-1.7-3.9-3.9 1.7-3.9 3.9-3.9m0-2c-3.2 0-5.9 2.6-5.9 5.9 0 3.2 2.6 5.9 5.9 5.9s5.9-2.6 5.9-5.9c-.1-3.2-2.7-5.9-5.9-5.9z"/></g><path fill-rule="evenodd" clip-rule="evenodd" fill="#95B9F4" d="M86.6 32.6c2.1 0 3.9 1.7 3.9 3.9 0 2.1-1.6 3.8-3.7 3.9 4.4-2.1 1.8-7.8-2.1-7.2.5-.4 1.1-.6 1.9-.6z"/><path fill-rule="evenodd" clip-rule="evenodd" fill="#679BEF" d="M89.9 38.4c-1.1 1.8-3.4 2.5-5.3 1.4-1.8-1-2.4-3.3-1.5-5.1-.3 4.9 5.9 5.5 7.3 1.7 0 .7-.1 1.4-.5 2z"/><ellipse fill-rule="evenodd" clip-rule="evenodd" fill="#B7E8F3" cx="86.6" cy="34.1" rx="1.6" ry=".8"/><ellipse fill-rule="evenodd" clip-rule="evenodd" fill="#B7E8F3" cx="88.7" cy="35.2" rx=".6" ry=".3"/></g><g><g><path fill-rule="evenodd" clip-rule="evenodd" fill="#7EAAF1" d="M86.6 242.4c-2.7 0-4.9-2.2-4.9-4.9s2.2-4.9 4.9-4.9 4.9 2.2 4.9 4.9-2.3 4.9-4.9 4.9z"/><path fill="#397DEA" d="M86.6 233.6c2.1 0 3.9 1.7 3.9 3.9s-1.7 3.9-3.9 3.9-3.9-1.7-3.9-3.9 1.7-3.9 3.9-3.9m0-2c-3.2 0-5.9 2.6-5.9 5.9s2.6 5.9 5.9 5.9c3.2 0 5.9-2.6 5.9-5.9s-2.7-5.9-5.9-5.9z"/></g><path fill-rule="evenodd" clip-rule="evenodd" fill="#95B9F4" d="M86.6 233.6c2.1 0 3.9 1.7 3.9 3.9 0 2.1-1.6 3.8-3.7 3.9 4.4-2.1 1.8-7.8-2.1-7.2.5-.4 1.1-.6 1.9-.6z"/><path fill-rule="evenodd" clip-rule="evenodd" fill="#679BEF" d="M89.9 239.4c-1.1 1.8-3.4 2.5-5.3 1.4-1.8-1-2.4-3.3-1.5-5.1-.3 4.9 5.9 5.5 7.3 1.7 0 .7-.1 1.4-.5 2z"/><path fill-rule="evenodd" clip-rule="evenodd" fill="#B7E8F3" d="M86.6 234.4c.9 0 1.6.3 1.6.8 0 .4-.7.8-1.6.8s-1.6-.3-1.6-.8c-.1-.5.7-.8 1.6-.8z"/><path fill-rule="evenodd" clip-rule="evenodd" fill="#B7E8F3" d="M88.7 235.9c.3 0 .6.1.6.3 0 .2-.3.3-.6.3s-.6-.1-.6-.3c0-.2.3-.3.6-.3z"/></g><g><g><path fill-rule="evenodd" clip-rule="evenodd" fill="#7EAAF1" d="M136.6 43.4c-2.7 0-4.9-2.2-4.9-4.9s2.2-4.9 4.9-4.9 4.9 2.2 4.9 4.9c-.1 2.7-2.3 4.9-4.9 4.9z"/><path fill="#397DEA" d="M136.6 34.6c2.1 0 3.9 1.7 3.9 3.9s-1.7 3.9-3.9 3.9c-2.1 0-3.9-1.7-3.9-3.9s1.7-3.9 3.9-3.9m0-2c-3.2 0-5.9 2.6-5.9 5.9 0 3.2 2.6 5.9 5.9 5.9 3.2 0 5.9-2.6 5.9-5.9-.1-3.2-2.7-5.9-5.9-5.9z"/></g><path fill-rule="evenodd" clip-rule="evenodd" fill="#95B9F4" d="M136.6 34.6c2.1 0 3.9 1.7 3.9 3.9 0 2.1-1.6 3.8-3.7 3.9 4.4-2.1 1.8-7.8-2.1-7.2.5-.4 1.1-.6 1.9-.6z"/><path fill-rule="evenodd" clip-rule="evenodd" fill="#679BEF" d="M139.9 40.4c-1.1 1.8-3.4 2.5-5.3 1.4-1.8-1-2.4-3.3-1.5-5.1-.4 4.9 5.9 5.5 7.3 1.7 0 .7-.1 1.4-.5 2z"/><ellipse fill-rule="evenodd" clip-rule="evenodd" fill="#B7E8F3" cx="136.6" cy="36.1" rx="1.6" ry=".8"/><ellipse fill-rule="evenodd" clip-rule="evenodd" fill="#B7E8F3" cx="138.7" cy="37.2" rx=".6" ry=".3"/></g><g><g><path fill-rule="evenodd" clip-rule="evenodd" fill="#7EAAF1" d="M136.6 242.4c-2.7 0-4.9-2.2-4.9-4.9s2.2-4.9 4.9-4.9 4.9 2.2 4.9 4.9-2.3 4.9-4.9 4.9z"/><path fill="#397DEA" d="M136.6 233.6c2.1 0 3.9 1.7 3.9 3.9s-1.7 3.9-3.9 3.9c-2.1 0-3.9-1.7-3.9-3.9s1.7-3.9 3.9-3.9m0-2c-3.2 0-5.9 2.6-5.9 5.9s2.6 5.9 5.9 5.9c3.2 0 5.9-2.6 5.9-5.9s-2.7-5.9-5.9-5.9z"/></g><path fill-rule="evenodd" clip-rule="evenodd" fill="#95B9F4" d="M136.6 233.6c2.1 0 3.9 1.7 3.9 3.9 0 2.1-1.6 3.8-3.7 3.9 4.4-2.1 1.8-7.8-2.1-7.2.5-.4 1.1-.6 1.9-.6z"/><path fill-rule="evenodd" clip-rule="evenodd" fill="#679BEF" d="M139.9 239.4c-1.1 1.8-3.4 2.5-5.3 1.4-1.8-1-2.4-3.3-1.5-5.1-.4 4.9 5.9 5.5 7.3 1.7 0 .7-.1 1.4-.5 2z"/><path fill-rule="evenodd" clip-rule="evenodd" fill="#B7E8F3" d="M136.6 234.4c.9 0 1.6.3 1.6.8 0 .4-.7.8-1.6.8-.9 0-1.6-.3-1.6-.8-.1-.5.7-.8 1.6-.8z"/><path fill-rule="evenodd" clip-rule="evenodd" fill="#B7E8F3" d="M138.7 235.9c.3 0 .6.1.6.3 0 .2-.3.3-.6.3s-.6-.1-.6-.3c0-.2.3-.3.6-.3z"/></g><g><g><path fill-rule="evenodd" clip-rule="evenodd" fill="#7EAAF1" d="M18.8 193.3c-2.7 0-4.9-2.2-4.9-4.9s2.2-4.9 4.9-4.9 4.9 2.2 4.9 4.9-2.2 4.9-4.9 4.9z"/><path fill="#397DEA" d="M18.8 184.6c2.1 0 3.9 1.7 3.9 3.9 0 2.1-1.7 3.9-3.9 3.9s-3.9-1.7-3.9-3.9 1.8-3.9 3.9-3.9m0-2c-3.2 0-5.9 2.6-5.9 5.9s2.6 5.9 5.9 5.9 5.9-2.6 5.9-5.9-2.7-5.9-5.9-5.9z"/></g><path fill-rule="evenodd" clip-rule="evenodd" fill="#95B9F4" d="M18.8 184.6c2.1 0 3.9 1.7 3.9 3.9 0 2.1-1.6 3.8-3.7 3.9 4.4-2.1 1.8-7.8-2.1-7.2.5-.4 1.2-.6 1.9-.6z"/><path fill-rule="evenodd" clip-rule="evenodd" fill="#679BEF" d="M22.2 190.4c-1.1 1.8-3.4 2.5-5.3 1.4-1.8-1-2.4-3.3-1.5-5.1-.3 4.9 5.9 5.5 7.3 1.7 0 .7-.2 1.3-.5 2z"/><ellipse fill-rule="evenodd" clip-rule="evenodd" fill="#B7E8F3" cx="18.8" cy="186.1" rx="1.6" ry=".8"/><ellipse fill-rule="evenodd" clip-rule="evenodd" fill="#B7E8F3" cx="20.9" cy="187.1" rx=".6" ry=".3"/></g><g><g><path fill-rule="evenodd" clip-rule="evenodd" fill="#7EAAF1" d="M70.8 193.3c-2.7 0-4.9-2.2-4.9-4.9s2.2-4.9 4.9-4.9 4.9 2.2 4.9 4.9-2.2 4.9-4.9 4.9z"/><path fill="#397DEA" d="M70.8 184.6c2.1 0 3.9 1.7 3.9 3.9 0 2.1-1.7 3.9-3.9 3.9-2.1 0-3.9-1.7-3.9-3.9s1.8-3.9 3.9-3.9m0-2c-3.2 0-5.9 2.6-5.9 5.9s2.6 5.9 5.9 5.9c3.2 0 5.9-2.6 5.9-5.9s-2.7-5.9-5.9-5.9z"/></g><path fill-rule="evenodd" clip-rule="evenodd" fill="#95B9F4" d="M70.8 184.6c2.1 0 3.9 1.7 3.9 3.9 0 2.1-1.6 3.8-3.7 3.9 4.4-2.1 1.8-7.8-2.1-7.2.5-.4 1.2-.6 1.9-.6z"/><path fill-rule="evenodd" clip-rule="evenodd" fill="#679BEF" d="M74.2 190.4c-1.1 1.8-3.4 2.5-5.3 1.4-1.8-1-2.4-3.3-1.5-5.1-.4 4.9 5.9 5.5 7.3 1.7 0 .7-.2 1.3-.5 2z"/><ellipse fill-rule="evenodd" clip-rule="evenodd" fill="#B7E8F3" cx="70.8" cy="186.1" rx="1.6" ry=".8"/><ellipse fill-rule="evenodd" clip-rule="evenodd" fill="#B7E8F3" cx="72.9" cy="187.1" rx=".6" ry=".3"/></g><g><g><path fill-rule="evenodd" clip-rule="evenodd" fill="#7EAAF1" d="M122.8 193.3c-2.7 0-4.9-2.2-4.9-4.9s2.2-4.9 4.9-4.9 4.9 2.2 4.9 4.9-2.2 4.9-4.9 4.9z"/><path fill="#397DEA" d="M122.8 184.6c2.1 0 3.9 1.7 3.9 3.9 0 2.1-1.7 3.9-3.9 3.9-2.1 0-3.9-1.7-3.9-3.9s1.8-3.9 3.9-3.9m0-2c-3.2 0-5.9 2.6-5.9 5.9s2.6 5.9 5.9 5.9 5.9-2.6 5.9-5.9-2.7-5.9-5.9-5.9z"/></g><path fill-rule="evenodd" clip-rule="evenodd" fill="#95B9F4" d="M122.8 184.6c2.1 0 3.9 1.7 3.9 3.9 0 2.1-1.6 3.8-3.7 3.9 4.4-2.1 1.8-7.8-2.1-7.2.5-.4 1.2-.6 1.9-.6z"/><path fill-rule="evenodd" clip-rule="evenodd" fill="#679BEF" d="M126.2 190.4c-1.1 1.8-3.4 2.5-5.3 1.4-1.8-1-2.4-3.3-1.5-5.1-.4 4.9 5.9 5.5 7.3 1.7 0 .7-.2 1.3-.5 2z"/><ellipse fill-rule="evenodd" clip-rule="evenodd" fill="#B7E8F3" cx="122.8" cy="186.1" rx="1.6" ry=".8"/><path fill-rule="evenodd" clip-rule="evenodd" fill="#B7E8F3" d="M124.9 186.8c.3 0 .6.1.6.3s-.3.3-.6.3-.6-.1-.6-.3.3-.3.6-.3z"/></g></svg>