<svg xmlns="http://www.w3.org/2000/svg" width="150" height="250" viewBox="0 0 150 250"><g id="Layer_3"><g><rect x="13.6" y="236.4" transform="rotate(149.994 14.89 240.094)" fill-rule="evenodd" clip-rule="evenodd" fill="#A27556" width="2.6" height="7.4"/><g><path fill="#4C4134" d="M13.8 237.6l2.7 4.7-.5.3-2.7-4.7.5-.3m.7-2.7l-1.7 1-.5.3-1.7 1 1 1.7 2.7 4.7 1 1.7 1.7-1 .5-.3 1.7-1-1-1.7-2.7-4.7-1-1.7z"/></g></g><g><path fill-rule="evenodd" clip-rule="evenodd" fill="#BBB" d="M13.1 249c-2.6-1.2-3.7-4.1-3.7-6.4v-.8l3.7-1.1.7 1.2 4.1-2.4 2 3.4-4.1 2.4.7 1.2-2.7 2.7-.7-.2z"/><g><path fill="#484848" d="M17.5 241l1 1.7-4.1 2.4.8 1.4-1.7 1.6c-2-1-3.1-3.3-3.2-5.5l2.3-.6.8 1.4 4.1-2.4m.8-2.7l-1.7 1-2.4 1.4-.6-1-1.5.4-2.3.6-1.5.4v1.5c0 3.1 1.7 6 4.3 7.3l1.3.6 1-1 1.7-1.6 1.1-1.1-.6-1 2.4-1.4 1.7-1-1-1.7-1-1.7-.9-1.7z"/></g></g><path fill-rule="evenodd" clip-rule="evenodd" fill="#FFF" d="M13.8 247.9l-.3.3c-2-1-3.1-3.3-3.2-5.5l2.3-.6.2.4-1.7.5c-.1 1.9.9 4 2.7 4.9z"/><g><rect x="63.6" y="236.4" transform="rotate(150.077 64.891 240.1)" fill-rule="evenodd" clip-rule="evenodd" fill="#A27556" width="2.6" height="7.4"/><g><path fill="#4C4134" d="M63.8 237.6l2.7 4.7-.5.3-2.7-4.7.5-.3m.8-2.7l-1.7 1-.6.3-1.7 1 1 1.7 2.7 4.7 1 1.7 1.7-1 .5-.3 1.7-1-1-1.7-2.7-4.7-.9-1.7z"/></g></g><g><path fill-rule="evenodd" clip-rule="evenodd" fill="#BBB" d="M63.1 249c-2.6-1.2-3.7-4.1-3.7-6.4v-.8l3.7-1.1.7 1.2 4.1-2.4 2 3.4-4.1 2.4.7 1.2-2.7 2.7-.7-.2z"/><g><path fill="#484848" d="M67.5 241l1 1.7-4.1 2.4.8 1.4-1.7 1.6c-2-1-3.1-3.3-3.2-5.5l2.3-.6.8 1.4 4.1-2.4m.8-2.7l-1.7 1-2.4 1.4-.6-1-1.5.4-2.3.6-1.5.4v1.5c0 3.1 1.7 6 4.3 7.3l1.3.6 1-1 1.7-1.6 1.1-1.1-.6-1 2.4-1.4 1.7-1-1-1.7-1-1.7-.9-1.7z"/></g></g><path fill-rule="evenodd" clip-rule="evenodd" fill="#FFF" d="M63.8 247.9l-.3.3c-2-1-3.1-3.3-3.2-5.5l2.3-.6.2.4-1.7.5c-.1 1.9.9 4 2.7 4.9z"/><g><rect x="113.6" y="236.4" transform="rotate(150.009 114.895 240.093)" fill-rule="evenodd" clip-rule="evenodd" fill="#A27556" width="2.6" height="7.4"/><g><path fill="#4C4134" d="M113.8 237.6l2.7 4.7-.5.3-2.7-4.7.5-.3m.8-2.7l-1.7 1-.5.3-1.7 1 1 1.7 2.7 4.7 1 1.7 1.7-1 .5-.3 1.7-1-1-1.7-2.7-4.7-1-1.7z"/></g></g><g><path fill-rule="evenodd" clip-rule="evenodd" fill="#BBB" d="M113.1 249c-2.6-1.2-3.7-4.1-3.7-6.4v-.8l3.7-1.1.7 1.2 4.1-2.4 2 3.4-4.1 2.4.7 1.2-2.7 2.7-.7-.2z"/><g><path fill="#484848" d="M117.5 241l1 1.7-4.1 2.4.8 1.4-1.7 1.6c-2-1-3.1-3.3-3.2-5.5l2.3-.6.8 1.4 4.1-2.4m.8-2.7l-1.7 1-2.4 1.4-.6-1-1.5.4-2.3.6-1.5.4v1.5c0 3.1 1.7 6 4.3 7.3l1.3.6 1-1 1.7-1.6 1.1-1.1-.6-1 2.4-1.4 1.7-1-1-1.7-1-1.7-.9-1.7z"/></g></g><path fill-rule="evenodd" clip-rule="evenodd" fill="#FFF" d="M113.8 247.9l-.3.3c-2-1-3.1-3.3-3.2-5.5l2.3-.6.2.4-1.7.5c-.1 1.9.9 4 2.7 4.9z"/><g><rect x="27.3" y="137.5" fill-rule="evenodd" clip-rule="evenodd" fill="#A27556" width="7.4" height="2.6"/><g><path fill="#4C4134" d="M33.7 138.5v.6h-5.4v-.6h5.4m2-2h-9.4v4.6h9.4v-4.6z"/></g></g><g><path fill-rule="evenodd" clip-rule="evenodd" fill="#BBB" d="M34.3 145.9c-1.3 0-2.7-.4-3.8-1l-.7-.4 1-3.8h1.4V136h4v4.7h1.4l.9 3.7-.6.4c-1.1.7-2.3 1.1-3.6 1.1z"/><g><path fill="#484848" d="M35.1 137v4.7h1.6l.6 2.3c-.9.6-1.9.9-3 .9-1.2 0-2.3-.3-3.3-.9l.6-2.3h1.6V137h1.9m2-2h-6v4.7H30l-.4 1.5-.6 2.3-.4 1.5 1.3.8c1.3.7 2.8 1.1 4.3 1.1s3-.4 4.1-1.2l1.2-.8-.3-1.4-.6-2.3-.4-1.5H37V135h.1z"/></g></g><path fill-rule="evenodd" clip-rule="evenodd" fill="#FFF" d="M37.2 143.6l.1.4c-1.9 1.3-4.5 1.1-6.3 0l.6-2.3h.4l-.4 1.8c1.7 1 4 1.3 5.6.1z"/><path fill-rule="evenodd" clip-rule="evenodd" fill="#484848" d="M119.8 196c-2.2.2-3.4-.3-5.2-1.5.3-1.3.7-2.7 1-4h1.3v-4.7h.4c0 1.9 0 3.3 1.7 4.6-1.7 2.4-2.3 3.4.8 5.6z"/><path fill-rule="evenodd" clip-rule="evenodd" fill="#BBB" d="M116.6 191.7l-.6 2.3c.7.5 1.5.8 2.4.8-.3-.4-.5-.8-.6-1.3-.1-.6 0-1.3.3-1.9h-1.5v.1zm2.4-1.3c-.3-.2-.6-.5-.8-.8v2.1l.2-.3.6-1z"/><g><rect x="75.8" y="137.6" fill-rule="evenodd" clip-rule="evenodd" fill="#A27556" width="7.4" height="2.6"/><g><path fill="#4C4134" d="M82.2 138.6v.6h-5.4v-.6h5.4m2-2h-9.4v4.6h9.4v-4.6z"/></g></g><g><path fill-rule="evenodd" clip-rule="evenodd" fill="#BBB" d="M82.7 146c-1.3 0-2.7-.4-3.8-1l-.7-.4 1-3.8h1.4v-4.7h4v4.7H86l.9 3.7-.6.4c-1 .8-2.3 1.1-3.6 1.1z"/><g><path fill="#484848" d="M83.5 137.1v4.7h1.6l.6 2.3c-.9.6-1.9.9-3 .9-1.2 0-2.3-.3-3.3-.9l.6-2.3h1.6v-4.7h1.9m2-2h-6v4.7h-1.2l-.4 1.5-.6 2.3-.4 1.5 1.3.8c1.3.7 2.8 1.1 4.3 1.1s3-.4 4.1-1.2l1.4-.8-.3-1.4-.6-2.3-.4-1.5h-1.1v-4.7h-.1z"/></g></g><path fill-rule="evenodd" clip-rule="evenodd" fill="#FFF" d="M85.6 143.8l.1.4c-1.9 1.3-4.5 1.1-6.3 0l.6-2.3h.5l-.4 1.8c1.6 1 3.9 1.2 5.5.1z"/><g><path fill-rule="evenodd" clip-rule="evenodd" fill="#BBB" d="M66.1 196c-1.3 0-2.6-.4-3.6-1.1l-.6-.4.9-3.7h1.4v-4.7h4v4.7h1.4l1 3.8-.7.4c-1.1.7-2.4 1-3.8 1z"/><g><path fill="#484848" d="M67.3 187.1v4.7h1.6l.6 2.3c-1 .6-2.1.9-3.3.9-1.1 0-2.1-.3-3-.9l.6-2.3h1.6v-4.7h1.9m2-2h-6v4.7h-1.2l-.4 1.5-.6 2.3-.3 1.4 1.2.8c1.2.8 2.6 1.2 4.1 1.2 1.5 0 3-.4 4.3-1.1l1.3-.8-.4-1.5-.6-2.3-.4-1.5h-1.2v-4.7h.2z"/></g></g><path fill-rule="evenodd" clip-rule="evenodd" fill="#FFF" d="M63.2 193.8l-.1.4c1.9 1.3 4.5 1.1 6.3 0l-.6-2.3h-.5l.4 1.8c-1.5 1-3.9 1.2-5.5.1z"/><g><rect x="124" y="137.7" fill-rule="evenodd" clip-rule="evenodd" fill="#A27556" width="7.4" height="2.6"/><g><path fill="#4C4134" d="M130.4 138.7v.6H125v-.6h5.4m2-2H123v4.6h9.4v-4.6z"/></g></g><g><path fill-rule="evenodd" clip-rule="evenodd" fill="#BBB" d="M131 146.1c-1.3 0-2.7-.4-3.8-1l-.7-.4 1-3.8h1.4v-4.7h4v4.7h1.4l.9 3.7-.6.4c-1.1.7-2.3 1.1-3.6 1.1z"/><g><path fill="#484848" d="M131.8 137.2v4.7h1.6l.6 2.3c-.9.6-1.9.9-3 .9-1.2 0-2.3-.3-3.3-.9l.6-2.3h1.6v-4.7h1.9m2-2h-6v4.7h-1.2l-.4 1.5-.6 2.3-.4 1.5 1.3.8c1.3.7 2.8 1.1 4.3 1.1s3-.4 4.1-1.2l1.2-.8-.3-1.4-.6-2.3-.4-1.5h-1.1v-4.7h.1z"/></g></g><path fill-rule="evenodd" clip-rule="evenodd" fill="#FFF" d="M133.9 143.9l.1.4c-1.9 1.3-4.5 1.1-6.3 0l.6-2.3h.5l-.4 1.8c1.5 1 3.9 1.2 5.5.1z"/><path fill-rule="evenodd" clip-rule="evenodd" fill="#4C4134" d="M12.4 187.2h5c.1 1.6 1 3 2.5 3.6h-7.5v-3.6z"/><path fill-rule="evenodd" clip-rule="evenodd" fill="#A27556" d="M13.9 188.7v.6h4.2c-.1-.2-.3-.4-.4-.6h-3.8z"/><g><path fill-rule="evenodd" clip-rule="evenodd" fill="#BBB" d="M13.3 196.1c-1.3 0-2.6-.4-3.6-1.1l-.6-.4.9-3.7h1.4v-4.7h4v4.7h1.4l1 3.8-.7.4c-1.1.6-2.5 1-3.8 1z"/><g><path fill="#484848" d="M14.5 187.2v4.7h1.6l.6 2.3c-1 .6-2.1.9-3.3.9-1.1 0-2.1-.3-3-.9l.6-2.3h1.6v-4.7h1.9m2-2h-6v4.7H9.3l-.3 1.6-.6 2.3-.4 1.3 1.2.8c1.2.8 2.6 1.2 4.1 1.2 1.5 0 3-.4 4.3-1.1l1.3-.8-.4-1.5-.6-2.3-.4-1.5h-1.2v-4.7h.2z"/></g></g><path fill-rule="evenodd" clip-rule="evenodd" fill="#FFF" d="M10.4 193.9l-.1.4c1.9 1.3 4.5 1.1 6.3 0L16 192h-.5l.4 1.8c-1.5 1-3.9 1.2-5.5.1z"/><g><rect x="13.5" y="37" fill-rule="evenodd" clip-rule="evenodd" fill="#A27556" width="7.4" height="2.6"/><g><path fill="#4C4134" d="M19.9 38v.6h-5.4V38h5.4m2-2h-9.4v4.6h9.4V36z"/></g></g><g><path fill-rule="evenodd" clip-rule="evenodd" fill="#BBB" d="M20.4 45.4c-1.3 0-2.7-.4-3.8-1L16 44l1-3.8h1.4v-4.7h4v4.7h1.4l.9 3.7-.7.5c-1 .6-2.2 1-3.6 1z"/><g><path fill="#484848" d="M21.3 36.5v4.7h1.6l.6 2.3c-.9.6-1.9.9-3 .9-1.2 0-2.3-.3-3.3-.9l.6-2.3h1.6v-4.7h1.9m2-2h-6v4.7h-1.2l-.4 1.5-.5 2.3-.4 1.5 1.3.8c1.3.7 2.8 1.1 4.3 1.1s3-.4 4.1-1.2l1.2-.8-.3-1.4-.6-2.3-.4-1.5h-1.2v-4.7h.1z"/></g></g><path fill-rule="evenodd" clip-rule="evenodd" fill="#FFF" d="M23.4 43.2l.1.4c-1.9 1.3-4.5 1.1-6.3 0l.6-2.3h.5l-.5 1.7c1.6 1.1 3.9 1.3 5.6.2z"/><g><polygon fill-rule="evenodd" clip-rule="evenodd" fill="#A27556" points="62.8,39.2 63.9,36.8 70.6,39.9 69.5,42.3 		"/><g><path fill="#4C4134" d="M64.4 38.1l4.9 2.3-.3.6-4.9-2.3.3-.6m-1-2.6l-.8 1.8-.3.6-.8 1.8 1.8.8 4.9 2.3 1.8.8.8-1.8.3-.6.8-1.8-1.8-.8-4.9-2.3-1.8-.8z"/></g></g><g><path fill-rule="evenodd" clip-rule="evenodd" fill="#BBB" d="M69.4 48c-2.2 0-4.4-1.2-5.8-3.2l-.4-.6 2.5-3 1.2.6 2-4.3 3.6 1.7-2 4.3 1.2.6-.7 3.7-.7.1c-.3 0-.6.1-.9.1z"/><g><path fill="#484848" d="M69.4 38.8l1.8.8-2 4.3 1.4.7-.4 2.3c-.3 0-.5.1-.8.1-2 0-3.9-1.2-5-2.7l1.5-1.8 1.4.7 2.1-4.4m-1-2.7l-.8 1.8-1.2 2.5-1-.5-1 1.2-1.5 1.9-1 1.2.9 1.2c1.6 2.2 4.1 3.6 6.6 3.6.4 0 .7 0 1.1-.1l1.4-.2.3-1.4.4-2.3.3-1.5-1-.5 1.2-2.5.8-1.8-1.9-.9-1.7-.8-1.9-.9z"/></g></g><path fill-rule="evenodd" clip-rule="evenodd" fill="#FFF" d="M70.3 46.5l-.1.4c-2.2.4-4.5-.9-5.7-2.7l1.5-1.8.4.2-1.1 1.4c1 1.7 3 2.9 5 2.5z"/><g><rect x="114.5" y="33.5" transform="rotate(149.966 115.804 37.187)" fill-rule="evenodd" clip-rule="evenodd" fill="#A27556" width="2.6" height="7.4"/><g><path fill="#4C4134" d="M114.7 34.7l2.7 4.7-.5.3-2.7-4.7.5-.3m.8-2.7l-1.7 1-.5.3-1.7 1 1 1.7 2.7 4.7 1 1.7 1.7-1 .5-.3 1.7-1-1-1.7-2.7-4.7-1-1.7z"/></g></g><g><path fill-rule="evenodd" clip-rule="evenodd" fill="#BBB" d="M114 46.1c-2.6-1.2-3.7-4.1-3.7-6.4v-.8l3.8-1.1.7 1.2 4.1-2.4 2 3.4-4.1 2.4.7 1.2-2.7 2.7-.8-.2z"/><g><path fill="#484848" d="M118.5 38.1l1 1.7-4.1 2.4.8 1.4-1.7 1.6c-2-1-3.2-3.3-3.2-5.5l2.3-.6.8 1.4 4.1-2.4m.7-2.7l-1.7 1-2.4 1.4-.6-1-1.5.4-2.3.6-1.5.4v1.5c0 3.1 1.7 6 4.3 7.3l1.3.6 1-1 1.7-1.6 1.1-1.1-.6-1 2.4-1.4 1.7-1-1-1.7-1-1.7-.9-1.7z"/></g></g><path fill-rule="evenodd" clip-rule="evenodd" fill="#FFF" d="M114.7 44.9l-.3.3c-2-1-3.2-3.3-3.2-5.5l2.3-.6.2.4-1.7.5c0 2 .9 4.1 2.7 4.9z"/></g></svg>