<svg version="1.1" id="Layer_3" xmlns="http://www.w3.org/2000/svg" x="0" y="0" width="150" height="250" viewBox="0 0 150 250" xml:space="preserve"><g><polygon fill-rule="evenodd" clip-rule="evenodd" fill="#A27556" points="13.5,39.2 13.5,36.9 25.1,37.2 25.1,39.6 	"/><path fill="#4F4335" d="M14.5 37.9l9.6.3v.4l-9.6-.3v-.4m-1.9-2l-.1 2v.4l-.1 2 2 .1 9.6.3 2 .1v-4.4l-2-.1-9.6-.3-1.8-.1z"/></g><g><polygon fill-rule="evenodd" clip-rule="evenodd" fill="#E8AD0B" points="21.6,40.9 18.8,41 19.8,38.2 18.9,35.5 21.7,35.7 
		24,33.9 24.7,36.8 26.9,38.4 24.6,40 23.8,42.9 	"/><path fill="#5C5109" d="M23.4 35.6l.4 1.7 1.4 1-1.4 1-.5 1.7-1.3-1.2h-1.7l.6-1.7-.5-1.7 1.7.1 1.3-.9m1.2-3.5L22.2 34l-.8.6-.9-.1-2.9-.2.9 2.8.3 1-.4 1-1 2.7h3.8l.7.6 2.3 2.1.9-3 .3-1 .8-.6 2.3-1.6-2.3-1.7-.8-.6-.3-1-.5-2.9z"/></g><g><polygon fill-rule="evenodd" clip-rule="evenodd" fill="#A27556" points="26.4,139.8 26.5,137.5 38.1,137.8 38,140.1 	"/><path fill="#4F4335" d="M27.5 138.5l9.6.3v.4l-9.6-.3v-.4m-2-2.1v4.4l2 .1 9.6.3 2 .1v-4.4l-2-.1-9.6-.3-2-.1z"/></g><g><polygon fill-rule="evenodd" clip-rule="evenodd" fill="#E8AD0B" points="34.5,141.5 31.7,141.5 32.8,138.8 31.9,136 34.7,136.2 
		37,134.4 37.7,137.3 39.9,139 37.6,140.6 36.7,143.4 	"/><path fill="#5C5109" d="M36.4 136.2l.4 1.8 1.4 1-1.4 1-.5 1.7-1.3-1.2h-1.7l.6-1.7-.5-1.7 1.7.1 1.3-1m1.2-3.5l-2.5 1.9-.8.6-.9-.1-2.9-.2.9 2.8.3 1-.4 1-1 2.7h3.8l.7.6 2.3 2.1.9-3 .3-1 .8-.6 2.3-1.6-2.3-1.7-.8-.6-.3-1-.4-2.9z"/></g><g><polygon fill-rule="evenodd" clip-rule="evenodd" fill="#A27556" points="12.4,237.9 14.4,236.7 20.1,245.6 18.1,246.9 	"/><path fill="#4F4335" d="M14.1 238l4.7 7.3-.3.2-4.7-7.3.3-.2m.6-2.7l-1.7 1-.3.2-1.7 1.1 1.1 1.7 4.7 7.3 1.1 1.7 1.7-1.1.3-.2 1.7-1.1-1.1-1.7-4.7-7.3-1.1-1.6z"/></g><g><polygon fill-rule="evenodd" clip-rule="evenodd" fill="#E8AD0B" points="17.5,246.8 14.7,247.7 15,244.8 13.5,242.5 16.3,241.8 
		18.1,239.5 19.5,241.9 22.3,242.8 20.2,245 20.1,247.8 	"/><path fill="#5C5109" d="M18 241.3l.9 1.5 1.7.5-1.2 1.3-.1 1.7-1.6-.7-1.7.5.2-1.7-1-1.4 1.7-.4 1.1-1.3m.2-3.5l-1.8 2.3-.7.9-1.1.3-2.9.7 1.7 2.4.6.6-.1 1-.4 3.1 3-.9 1-.3.9.4 2.6 1.1.1-2.8.1-1 .7-.8 2.1-2.3-3-1-.9-.3-.5-.8-1.4-2.6z"/></g><g><polygon fill-rule="evenodd" clip-rule="evenodd" fill="#A27556" points="62.4,237.9 64.4,236.7 70.1,245.6 68.1,246.9 	"/><path fill="#4F4335" d="M64.1 238l4.7 7.3-.3.2-4.7-7.3.3-.2m.6-2.7l-1.7 1-.3.2-1.7 1.1 1.1 1.7 4.7 7.3 1.1 1.7 1.7-1.1.3-.2 1.7-1.1-1.1-1.7-4.7-7.3-1.1-1.6z"/></g><g><polygon fill-rule="evenodd" clip-rule="evenodd" fill="#E8AD0B" points="67.5,246.8 64.6,247.7 65,244.8 63.4,242.5 66.3,241.8 
		68.1,239.5 69.5,241.9 72.3,242.8 70.2,245 70.1,247.8 	"/><path fill="#5C5109" d="M68 241.3l.9 1.5 1.7.5-1.2 1.3-.1 1.7-1.6-.7-1.7.5.2-1.7-1-1.4 1.7-.4 1.1-1.3m.2-3.5l-1.8 2.3-.7.9-1.1.3-2.9.7 1.7 2.4.6.6-.1 1-.4 3.1 3-.9 1-.3.9.4 2.6 1.1.1-2.8.1-1 .7-.8 2.1-2.3-3-1-.9-.3-.5-.8-1.4-2.6z"/></g><g><polygon fill-rule="evenodd" clip-rule="evenodd" fill="#A27556" points="112.4,237.9 114.4,236.7 120.1,245.6 118.1,246.9 	"/><path fill="#4F4335" d="M114.1 238l4.7 7.3-.3.2-4.7-7.3.3-.2m.6-2.7l-1.7 1.1-.3.2-1.7 1.1 1.1 1.7 4.7 7.3 1.1 1.7 1.7-1.1.3-.2 1.7-1.1-1.1-1.7-4.7-7.3-1.1-1.7z"/></g><g><polygon fill-rule="evenodd" clip-rule="evenodd" fill="#E8AD0B" points="117.5,246.8 114.7,247.7 115,244.8 113.5,242.5 
		116.3,241.8 118.1,239.5 119.5,241.9 122.3,242.8 120.2,245 120.1,247.8 	"/><path fill="#5C5109" d="M118 241.3l.9 1.5 1.7.5-1.2 1.3-.1 1.7-1.6-.7-1.7.5.2-1.7-1-1.4 1.7-.4 1.1-1.3m.2-3.5l-1.8 2.3-.7.9-1.1.3-2.9.7 1.7 2.4.5.8-.1 1-.4 3.1 3-.9 1-.3.9.4 2.6 1.1.2-2.8.1-1 .7-.8 2.1-2.3-3-1-.9-.3-.5-.8-1.4-2.8z"/></g><g><polygon fill-rule="evenodd" clip-rule="evenodd" fill="#E8AD0B" points="12.6,190.2 10.3,188.5 12.6,187 13.5,184.1 15.7,186 
		18.5,186 17.5,188.7 18.3,191.5 15.6,191.3 13.3,193.1 	"/><path fill="#5C5109" d="M14 185.9l1.3 1.1H17l-.6 1.7.5 1.7-1.7-.1-1.4 1.1-.4-1.7-1.4-1 1.4-1 .6-1.8m-1-3.6l-.9 3-.3 1-.8.6-2.3 1.6 2.3 1.7.8.6.3 1 .7 3 2.4-1.9.8-.6.9.1 2.9.2-.9-2.8-.3-1 .4-1 1-2.7h-3.8l-.7-.6-2.5-2.2z"/></g><g><polygon fill-rule="evenodd" clip-rule="evenodd" fill="#A27556" points="59.1,189.8 59.2,187.4 69,187.7 68.9,190 	"/><path fill="#4F4335" d="M60.2 188.4l7.8.2v.4l-7.8-.2v-.4m-2-2v4.4l2 .1 7.8.2 2 .1.1-2v-.4l.1-2-2-.1-7.8-.2-2.2-.1z"/></g><g><polygon fill-rule="evenodd" clip-rule="evenodd" fill="#E8AD0B" points="59.6,190.2 57.3,188.5 59.6,187 60.5,184.1 62.7,186 
		65.5,186 64.5,188.7 65.3,191.5 62.6,191.3 60.3,193.1 	"/><path fill="#5C5109" d="M61 185.9l1.3 1.1H64l-.6 1.7.5 1.7-1.7-.1-1.4 1.1-.4-1.7-1.4-1 1.4-1 .6-1.8m-1-3.6l-.9 3-.3 1-.8.6-2.3 1.6 2.3 1.7.8.6.3 1 .7 3 2.4-1.9.8-.6.9.1 2.9.2-.9-2.8-.3-1 .4-1 1-2.8h-3.8l-.7-.6-2.5-2.1z"/></g><g><polygon fill-rule="evenodd" clip-rule="evenodd" fill="#A27556" points="107.2,189.8 107.2,187.4 116.9,187.7 116.8,190 	"/><path fill="#4F4335" d="M108.2 188.4l7.7.2v.4l-7.7-.2v-.4m-2-2v4.4l2 .1 7.7.2 2 .1v-4.4l-2-.1-7.7-.2-2-.1z"/></g><g><polygon fill-rule="evenodd" clip-rule="evenodd" fill="#E8AD0B" points="107.6,190.2 105.3,188.5 107.6,187 108.5,184.1 
		110.7,186 113.5,186 112.5,188.7 113.3,191.5 110.6,191.3 108.3,193.1 	"/><path fill="#5C5109" d="M109 185.9l1.3 1.1h1.7l-.6 1.7.5 1.7-1.7-.1-1.4 1.1-.4-1.7-1.4-1 1.4-1 .6-1.8m-1-3.6l-.9 3-.3 1-.8.6-2.3 1.6 2.3 1.7.8.6.3 1 .7 3 2.5-1.9.8-.6.9.1 2.9.2-.9-2.8-.3-1 .4-1 1-2.7h-3.8l-.7-.6-2.6-2.2z"/></g><g><polygon fill-rule="evenodd" clip-rule="evenodd" fill="#A27556" points="74.7,140.3 74.7,138 86.3,138.3 86.3,140.7 	"/><path fill="#4F4335" d="M75.7 139l9.6.3v.4l-9.6-.3v-.4m-1.9-2v4.4l2 .1 9.6.3 2 .1v-4.4l-2-.1-9.6-.3-2-.1z"/></g><g><polygon fill-rule="evenodd" clip-rule="evenodd" fill="#E8AD0B" points="82.8,142 80,142.1 81,139.3 80.1,136.6 82.9,136.7 
		85.2,134.9 85.9,137.9 88.1,139.5 85.8,141.1 85,143.9 	"/><path fill="#5C5109" d="M84.6 136.7l.4 1.7 1.4 1-1.4 1-.5 1.7-1.3-1.2h-1.7l.6-1.7-.5-1.7 1.7.1 1.3-.9m1.2-3.5l-2.5 1.9-.8.6-.9-.1-2.9-.2.9 2.8.3 1-.4 1-1 2.7h3.8l.7.6 2.3 2.1.9-3 .3-1 .8-.6 2.3-1.6-2.2-1.7-.8-.6-.3-1-.5-2.9z"/></g><g><polygon fill-rule="evenodd" clip-rule="evenodd" fill="#A27556" points="123.2,140.2 123.3,137.8 134.8,138.1 134.8,140.5 	"/><path fill="#4F4335" d="M124.2 138.8l9.6.3v.4l-9.6-.3v-.4m-1.9-2v4.4l2 .1 9.6.3 2 .1v-4.4l-2-.1-9.6-.3-2-.1z"/></g><g><polygon fill-rule="evenodd" clip-rule="evenodd" fill="#E8AD0B" points="131.3,141.8 128.5,141.9 129.5,139.2 128.7,136.4 
		131.4,136.6 133.7,134.8 134.4,137.7 136.6,139.4 134.3,140.9 133.5,143.8 	"/><path fill="#5C5109" d="M133.1 136.5l.4 1.7 1.4 1-1.4 1-.5 1.8-1.3-1.2H130l.6-1.7-.5-1.7 1.7.1 1.3-1m1.2-3.5l-2.5 1.9-.8.6-.9-.1-2.9-.2.9 2.8.3 1.1-.4 1-1 2.7h3.8l.7.6 2.3 2.1.9-3 .3-1 .8-.6 2.3-1.6-2.2-1.7-.8-.6-.3-1-.5-3z"/></g><g><polygon fill-rule="evenodd" clip-rule="evenodd" fill="#A27556" points="62.1,38.6 63,36.4 72.8,40.4 71.8,42.6 	"/><path fill="#4F4335" d="M63.5 37.7l7.9 3.2-.1.3-7.9-3.2.1-.3m-1-2.6l-.8 1.8-.1.3-.8 1.9 1.9.8 7.9 3.2 1.8.7.8-1.8.1-.3.8-1.9-1.9-.8-7.9-3.2-1.8-.7z"/></g><g><polygon fill-rule="evenodd" clip-rule="evenodd" fill="#E8AD0B" points="68.1,42.6 65.5,41.6 67.4,39.4 67.6,36.5 70.2,37.7 
		72.9,36.9 72.5,39.8 74,42.2 71.3,42.8 69.4,45.2 	"/><path fill="#5C5109" d="M68.5 38l1.5.7 1.7-.5-.2 1.8.9 1.5-1.7.4-1.1 1.4-.8-1.5-1.6-.6 1.2-1.3.1-1.9m-1.8-3l-.2 2.9V39l-.7.8-2 2.2 2.7 1 .9.3.4.9 1.4 2.8 1.9-2.5.7-.8 1-.2 2.8-.6-1.5-2.4-.5-.9.1-1.1.4-3.1-3 .9-.9.3-.8-.4-2.7-1.2z"/></g><g><polygon fill-rule="evenodd" clip-rule="evenodd" fill="#A27556" points="113,34.2 115,33 120,42 118,43.2 	"/><path fill="#4F4335" d="M114.6 34.4l4 7.2-.3.2-4-7.2.3-.2m.8-2.7l-1.7 1-.3.2-1.7 1 1 1.7 4 7.2 1 1.8 1.7-1 .3-.2 1.7-1-1-1.7-4-7.2-1-1.8z"/></g><g><polygon fill-rule="evenodd" clip-rule="evenodd" fill="#E8AD0B" points="117.4,43 114.5,43.7 115,40.9 113.6,38.5 116.4,38 
		118.4,35.8 119.6,38.3 122.4,39.3 120.2,41.4 119.9,44.2 	"/><path fill="#5C5109" d="M118.1 37.5l.8 1.5 1.6.6-1.3 1.3-.2 1.7-1.6-.7-1.7.4.3-1.7-.9-1.5 1.8-.3 1.2-1.3m.5-3.5l-1.9 2.2-.7.8-1.1.2-2.9.5 1.5 2.5.5.8-.2 1-.6 3.1 3-.8 1-.3.9.4 2.5 1.2.3-2.8.1-1 .8-.8 2.2-2.2-2.9-1.1-.9-.3-.4-.8-1.2-2.6z"/></g></svg>