<?xml version="1.0" encoding="utf-8"?>
<!-- Generator: Adobe Illustrator 16.0.0, SVG Export Plug-In . SVG Version: 6.00 Build 0)  -->
<!DOCTYPE svg PUBLIC "-//W3C//DTD SVG 1.1//EN" "http://www.w3.org/Graphics/SVG/1.1/DTD/svg11.dtd">
<svg version="1.1" id="Layer_3" xmlns="http://www.w3.org/2000/svg" xmlns:xlink="http://www.w3.org/1999/xlink" x="0px" y="0px"
	 width="150px" height="250px" viewBox="0 0 150 250" enable-background="new 0 0 150 250" xml:space="preserve">
<path fill-rule="evenodd" clip-rule="evenodd" fill="#333333" d="M30.9,40.4c-0.6,0.6-1.4,1-2.3,1h-7.5c-2.4,0-3.2-2.1-3.2-4.2
	c4.6,0,9.2,0,13.8,0C31.8,38.5,31.9,39.4,30.9,40.4z"/>
<path fill-rule="evenodd" clip-rule="evenodd" fill="#333333" d="M80.9,40.4c-0.6,0.6-1.4,1-2.3,1h-7.5c-2.4,0-3.2-2.1-3.2-4.2
	c4.6,0,9.2,0,13.8,0C81.8,38.5,81.9,39.4,80.9,40.4z"/>
<path fill-rule="evenodd" clip-rule="evenodd" fill="#333333" d="M130.9,40.4c-0.6,0.6-1.4,1-2.3,1h-7.5c-2.4,0-3.2-2.1-3.2-4.2
	c4.6,0,9.2,0,13.8,0C131.8,38.5,131.9,39.4,130.9,40.4z"/>
<path fill-rule="evenodd" clip-rule="evenodd" fill="#333333" d="M130.9,90.4c-0.6,0.6-1.4,1-2.3,1h-7.5c-2.4,0-3.2-2.1-3.2-4.2
	c4.6,0,9.2,0,13.8,0C131.8,88.5,131.9,89.4,130.9,90.4z"/>
<path fill-rule="evenodd" clip-rule="evenodd" fill="#333333" d="M80.9,90.4c-0.6,0.6-1.4,1-2.3,1h-7.5c-2.4,0-3.2-2.1-3.2-4.2
	c4.6,0,9.2,0,13.8,0C81.8,88.5,81.9,89.4,80.9,90.4z"/>
<path fill-rule="evenodd" clip-rule="evenodd" fill="#333333" d="M30.9,90.4c-0.6,0.6-1.4,1-2.3,1h-7.5c-2.4,0-3.2-2.1-3.2-4.2
	c4.6,0,9.2,0,13.8,0C31.8,88.5,31.9,89.4,30.9,90.4z"/>
<path fill-rule="evenodd" clip-rule="evenodd" fill="#333333" d="M30.9,140.4c-0.6,0.6-1.4,1-2.3,1h-0.8l-1.3-2.1
	c1.4-0.3,0.5-0.2,2.7-0.2c0-0.7-0.2-1.3-0.6-1.8h3.2C31.8,138.5,31.9,139.4,30.9,140.4L30.9,140.4z M24.7,141.4h-3.5
	c-2.4,0-3.2-2.1-3.2-4.2h5.7l0.1,0.5C23.2,139,23.5,140.6,24.7,141.4z"/>
<path fill-rule="evenodd" clip-rule="evenodd" fill="#333333" d="M80.9,140.4c-0.6,0.6-1.4,1-2.3,1h-3l-0.8-1.9
	c1.1,0,1.6,0.1,2.7,0.3c0.2-0.9-0.1-1.8-0.8-2.5h5C81.8,138.5,81.9,139.4,80.9,140.4L80.9,140.4z M72.9,141.4h-1.7
	c-2.4,0-3.2-2.1-3.2-4.2h4.4v0.3C71.5,138.7,71.7,140.4,72.9,141.4L72.9,141.4z"/>
<path fill-rule="evenodd" clip-rule="evenodd" fill="#333333" d="M130.9,140.4c-0.6,0.6-1.4,1-2.3,1h-5.1l-0.4-2
	c1.2,0.2,0.9,0.1,2.6,0.7c0.3-0.9,0.2-1.8-0.3-2.6l0-0.3h6.3C131.8,138.5,131.9,139.4,130.9,140.4L130.9,140.4z M121.4,141.4h-0.2
	c-2.4,0-3.2-2.1-3.2-4.2h2.9c-0.9,1-0.9,2.6-0.1,3.7C121,141.1,121.2,141.3,121.4,141.4z"/>
<path fill-rule="evenodd" clip-rule="evenodd" fill="#333333" d="M130.9,190.4c-0.6,0.6-1.4,1-2.3,1h0c0.2-0.1,0.4-0.3,0.5-0.5
	c0.9-1.1,0.8-2.6-0.1-3.7h2.8C131.8,188.5,131.9,189.4,130.9,190.4L130.9,190.4z M126.4,191.4h-5.2c-2.4,0-3.2-2.1-3.2-4.2h6.4
	l0,0.3c-0.5,0.8-0.6,1.7-0.3,2.6c2.1-0.8,1.2-0.5,2.6-0.8L126.4,191.4z"/>
<path fill-rule="evenodd" clip-rule="evenodd" fill="#333333" d="M80.9,190.4c-0.6,0.6-1.4,1-2.3,1h-1.5l0,0c1.1-1,1.3-2.7,0.4-3.9
	v-0.3h4.3C81.8,188.5,81.9,189.4,80.9,190.4L80.9,190.4z M74.4,191.4h-3.2c-2.4,0-3.2-2.1-3.2-4.2h5.2c-0.6,0.7-0.9,1.6-0.8,2.5
	c2.2-0.4,1.3-0.3,2.7-0.3L74.4,191.4z"/>
<path fill-rule="evenodd" clip-rule="evenodd" fill="#333333" d="M30.9,190.4c-0.6,0.6-1.4,1-2.3,1h-3.4c1.2-0.8,1.5-2.4,0.9-3.7
	l0.1-0.5h5.6C31.8,188.5,31.9,189.4,30.9,190.4L30.9,190.4z M22.1,191.4h-1c-2.4,0-3.2-2.1-3.2-4.2h3.4c-0.4,0.5-0.7,1.2-0.6,1.8
	c1.2,0,1.7,0,2.7,0.2L22.1,191.4z"/>
<path fill-rule="evenodd" clip-rule="evenodd" fill="#333333" d="M30.9,240.4c-0.6,0.6-1.4,1-2.3,1h-7.5c-2.4,0-3.2-2.1-3.2-4.2
	c4.6,0,9.2,0,13.8,0C31.8,238.5,31.9,239.4,30.9,240.4z"/>
<path fill-rule="evenodd" clip-rule="evenodd" fill="#333333" d="M80.9,240.4c-0.6,0.6-1.4,1-2.3,1h-7.5c-2.4,0-3.2-2.1-3.2-4.2
	c4.6,0,9.2,0,13.8,0C81.8,238.5,81.9,239.4,80.9,240.4z"/>
<path fill-rule="evenodd" clip-rule="evenodd" fill="#333333" d="M130.9,240.4c-0.6,0.6-1.4,1-2.3,1h-7.5c-2.4,0-3.2-2.1-3.2-4.2
	c4.6,0,9.2,0,13.8,0C131.8,238.5,131.9,239.4,130.9,240.4z"/>
<path fill-rule="evenodd" clip-rule="evenodd" fill="#333333" d="M24.9,34.6c0.1,0,1.4-2.2,2.8-4.1c1.3-0.2,2.6-0.5,3.7-0.9l0,5.3
	H18.5v-5.3c1.1,0.4,2.3,0.7,3.5,0.9C23.4,32.4,24.8,34.6,24.9,34.6z"/>
<path fill-rule="evenodd" clip-rule="evenodd" fill="#333333" d="M74.9,34.6c0.1,0,1.4-2.2,2.8-4.1c1.3-0.2,2.6-0.5,3.7-0.9l0,5.3
	H68.5v-5.3c1.1,0.4,2.3,0.7,3.5,0.9C73.4,32.4,74.8,34.6,74.9,34.6z"/>
<path fill-rule="evenodd" clip-rule="evenodd" fill="#333333" d="M124.9,34.6c0.1,0,1.4-2.2,2.8-4.1c1.3-0.2,2.6-0.5,3.7-0.9l0,5.3
	h-12.9v-5.3c1.1,0.4,2.3,0.7,3.5,0.9C123.4,32.4,124.8,34.6,124.9,34.6z"/>
<path fill-rule="evenodd" clip-rule="evenodd" fill="#333333" d="M18.5,81.8l6.4,1.3l6.4-1.3c0,1.2,0,2.3,0,3.5l-6.4-1.2l-6.4,1.2
	C18.5,84.1,18.5,82.9,18.5,81.8z"/>
<path fill-rule="evenodd" clip-rule="evenodd" fill="#333333" d="M68.5,81.8l6.4,1.3l6.4-1.3c0,1.2,0,2.3,0,3.5l-6.4-1.2l-6.4,1.2
	C68.5,84.1,68.5,82.9,68.5,81.8z"/>
<path fill-rule="evenodd" clip-rule="evenodd" fill="#333333" d="M118.5,81.8l6.4,1.3l6.4-1.3c0,1.2,0,2.3,0,3.5l-6.4-1.2l-6.4,1.2
	C118.5,84.1,118.5,82.9,118.5,81.8z"/>
<g>
	<path fill="#333333" d="M29.2,130.4c-0.1,0-0.1,0-0.2,0l0.8,4.7c1,0,1.9,0,2.7,0C33.1,135,29.3,130.6,29.2,130.4z"/>
	<polygon fill="#333333" points="20.8,132.3 17.5,132.9 17.5,134.2 21.3,134.9 	"/>
</g>
<g>
	<polygon fill="#333333" points="130.1,182.4 130.5,184.6 132.5,184.2 132.5,182.9 	"/>
	<path fill="#333333" d="M121.5,181.7l0-0.2v0c0-0.4,0-0.8,0.1-1.2c-0.2,0-0.4,0.1-0.6,0.1c-0.2,0.2-4,4.6-3.3,4.6
		c1.3,0,2.8,0,4.4,0L121.5,181.7z"/>
</g>
<g>
	<polygon fill="#333333" points="70.4,132.3 67.5,132.9 67.5,134.2 70.4,134.8 	"/>
	<path fill="#333333" d="M79.2,130.4c-0.2,0-0.3,0-0.4-0.1c0,0.2,0.1,0.5,0.1,0.7l0,4c1.3,0,2.6,0,3.7,0
		C83.1,135,79.3,130.6,79.2,130.4z"/>
</g>
<g>
	<path fill="#333333" d="M71.2,181c0-0.2,0-0.5,0.1-0.7c-0.1,0-0.2,0-0.4,0.1c-0.2,0.2-4,4.6-3.3,4.6c1.1,0,2.3,0,3.6,0L71.2,181z"
		/>
	<polygon fill="#333333" points="79.6,182.3 79.6,184.8 82.5,184.2 82.5,182.9 	"/>
</g>
<g>
	<polygon fill="#333333" points="119.9,132.4 117.5,132.9 117.5,134.2 119.5,134.6 	"/>
	<path fill="#333333" d="M129.2,130.4c-0.3,0-0.5-0.1-0.7-0.1c0.1,0.4,0.1,0.8,0.1,1.2v0l0,0.2L128,135c1.7,0,3.2,0,4.5,0
		C133.1,135,129.3,130.6,129.2,130.4z"/>
</g>
<g>
	<path fill="#333333" d="M21,180.3c0,0-0.1,0-0.1,0c-0.2,0.2-4,4.6-3.3,4.6c0.8,0,1.7,0,2.6,0L21,180.3z"/>
	<polygon fill="#333333" points="29.2,182.2 28.7,184.9 32.5,184.2 32.5,182.9 	"/>
</g>
<path fill-rule="evenodd" clip-rule="evenodd" fill="#333333" d="M124.9,234.6c0.1,0,1.4-2.2,2.8-4.1c1.3-0.2,2.6-0.5,3.7-0.9l0,5.3
	h-12.9v-5.3c1.1,0.4,2.3,0.7,3.5,0.9C123.4,232.4,124.8,234.6,124.9,234.6z"/>
<path fill-rule="evenodd" clip-rule="evenodd" fill="#333333" d="M74.9,234.6c0.1,0,1.4-2.2,2.8-4.1c1.3-0.2,2.6-0.5,3.7-0.9l0,5.3
	H68.5v-5.3c1.1,0.4,2.3,0.7,3.5,0.9C73.4,232.4,74.8,234.6,74.9,234.6z"/>
<path fill-rule="evenodd" clip-rule="evenodd" fill="#333333" d="M24.9,234.6c0.1,0,1.4-2.2,2.8-4.1c1.3-0.2,2.6-0.5,3.7-0.9l0,5.3
	H18.5v-5.3c1.1,0.4,2.3,0.7,3.5,0.9C23.4,232.4,24.8,234.6,24.9,234.6z"/>
</svg>
