<?xml version="1.0" encoding="utf-8"?>
<!-- Generator: Adobe Illustrator 16.0.0, SVG Export Plug-In . SVG Version: 6.00 Build 0)  -->
<!DOCTYPE svg PUBLIC "-//W3C//DTD SVG 1.1//EN" "http://www.w3.org/Graphics/SVG/1.1/DTD/svg11.dtd">
<svg version="1.1" id="Layer_3" xmlns="http://www.w3.org/2000/svg" xmlns:xlink="http://www.w3.org/1999/xlink" x="0px" y="0px"
	 width="150px" height="250px" viewBox="0 0 150 250" enable-background="new 0 0 150 250" xml:space="preserve">
<path fill-rule="evenodd" clip-rule="evenodd" fill="#FFFFFF" d="M30.7,112.4h1.8c0.9,0,1.7,0.7,1.7,1.7v6.2c0,0.9-0.7,1.7-1.7,1.7
	h-1.8c-0.9,0-1.7-0.7-1.7-1.7v-6.2C29,113.2,29.8,112.4,30.7,112.4z"/>
<path fill-rule="evenodd" clip-rule="evenodd" fill="#FFFFFF" d="M80.7,112.4h1.8c0.9,0,1.7,0.7,1.7,1.7v6.2c0,0.9-0.7,1.7-1.7,1.7
	h-1.8c-0.9,0-1.7-0.7-1.7-1.7v-6.2C79,113.2,79.8,112.4,80.7,112.4z"/>
<path fill-rule="evenodd" clip-rule="evenodd" fill="#FFFFFF" d="M130.7,112.4h1.8c0.9,0,1.7,0.7,1.7,1.7v6.2c0,0.9-0.7,1.7-1.7,1.7
	h-1.8c-0.9,0-1.7-0.7-1.7-1.7v-6.2C129,113.2,129.8,112.4,130.7,112.4z"/>
<path fill-rule="evenodd" clip-rule="evenodd" fill="#FFFFFF" d="M20.3,12.4h1.8c0.9,0,1.7,0.7,1.7,1.7v6.2c0,0.9-0.7,1.7-1.7,1.7
	h-1.8c-0.9,0-1.7-0.7-1.7-1.7v-6.2C18.7,13.2,19.4,12.4,20.3,12.4z"/>
<path fill-rule="evenodd" clip-rule="evenodd" fill="#FFFFFF" d="M70.3,12.4h1.8c0.9,0,1.7,0.7,1.7,1.7v6.2c0,0.9-0.7,1.7-1.7,1.7
	h-1.8c-0.9,0-1.7-0.7-1.7-1.7v-6.2C68.7,13.2,69.4,12.4,70.3,12.4z"/>
<path fill-rule="evenodd" clip-rule="evenodd" fill="#FFFFFF" d="M120.3,12.4h1.8c0.9,0,1.7,0.7,1.7,1.7v6.2c0,0.9-0.7,1.7-1.7,1.7
	h-1.8c-0.9,0-1.7-0.7-1.7-1.7v-6.2C118.7,13.2,119.4,12.4,120.3,12.4z"/>
<path fill-rule="evenodd" clip-rule="evenodd" fill="#FFFFFF" d="M27.7,12.4h1.8c0.9,0,1.7,0.7,1.7,1.7v6.2c0,0.9-0.7,1.7-1.7,1.7
	h-1.8c-0.9,0-1.7-0.7-1.7-1.7v-6.2C26,13.2,26.8,12.4,27.7,12.4z"/>
<path fill-rule="evenodd" clip-rule="evenodd" fill="#FFFFFF" d="M77.7,12.4h1.8c0.9,0,1.7,0.7,1.7,1.7v6.2c0,0.9-0.7,1.7-1.7,1.7
	h-1.8c-0.9,0-1.7-0.7-1.7-1.7v-6.2C76,13.2,76.8,12.4,77.7,12.4z"/>
<path fill-rule="evenodd" clip-rule="evenodd" fill="#FFFFFF" d="M127.7,12.4h1.8c0.9,0,1.7,0.7,1.7,1.7v6.2c0,0.9-0.7,1.7-1.7,1.7
	h-1.8c-0.9,0-1.7-0.7-1.7-1.7v-6.2C126,13.2,126.8,12.4,127.7,12.4z"/>
<path fill-rule="evenodd" clip-rule="evenodd" fill="#FFFFFF" d="M19.3,162.4h-1.8c-0.9,0-1.7,0.7-1.7,1.7v6.2
	c0,0.9,0.7,1.7,1.7,1.7h1.8c0.9,0,1.7-0.7,1.7-1.7v-6.2C21,163.2,20.2,162.4,19.3,162.4z"/>
<path fill-rule="evenodd" clip-rule="evenodd" fill="#FFFFFF" d="M23.8,218.8v1.5c0,0.9-0.7,1.7-1.7,1.7h-1.8
	c-0.9,0-1.7-0.7-1.7-1.7v-1.5H23.8z"/>
<path fill-rule="evenodd" clip-rule="evenodd" fill="#FFFFFF" d="M73.8,218.8v1.5c0,0.9-0.7,1.7-1.7,1.7h-1.8
	c-0.9,0-1.7-0.7-1.7-1.7v-1.5H73.8z"/>
<path fill-rule="evenodd" clip-rule="evenodd" fill="#FFFFFF" d="M123.8,218.8v1.5c0,0.9-0.7,1.7-1.7,1.7h-1.8
	c-0.9,0-1.7-0.7-1.7-1.7v-1.5H123.8z"/>
<path fill-rule="evenodd" clip-rule="evenodd" fill="#FFFFFF" d="M31.2,218.8v1.5c0,0.9-0.7,1.7-1.7,1.7h-1.8
	c-0.9,0-1.7-0.7-1.7-1.7v-1.5H31.2z"/>
<path fill-rule="evenodd" clip-rule="evenodd" fill="#FFFFFF" d="M81.2,218.8v1.5c0,0.9-0.7,1.7-1.7,1.7h-1.8
	c-0.9,0-1.7-0.7-1.7-1.7v-1.5H81.2z"/>
<path fill-rule="evenodd" clip-rule="evenodd" fill="#FFFFFF" d="M131.2,218.8v1.5c0,0.9-0.7,1.7-1.7,1.7h-1.8
	c-0.9,0-1.7-0.7-1.7-1.7v-1.5H131.2z"/>
<path fill-rule="evenodd" clip-rule="evenodd" fill="#FFFFFF" d="M69.3,162.4h-1.8c-0.9,0-1.7,0.7-1.7,1.7v6.2
	c0,0.9,0.7,1.7,1.7,1.7h1.8c0.9,0,1.7-0.7,1.7-1.7v-6.2C71,163.2,70.2,162.4,69.3,162.4z"/>
<path fill-rule="evenodd" clip-rule="evenodd" fill="#FFFFFF" d="M119.3,162.4h-1.8c-0.9,0-1.7,0.7-1.7,1.7v6.2
	c0,0.9,0.7,1.7,1.7,1.7h1.8c0.9,0,1.7-0.7,1.7-1.7v-6.2C121,163.2,120.2,162.4,119.3,162.4z"/>
</svg>
