<?xml version="1.0" encoding="utf-8"?>
<!-- Generator: Adobe Illustrator 16.0.0, SVG Export Plug-In . SVG Version: 6.00 Build 0)  -->
<!DOCTYPE svg PUBLIC "-//W3C//DTD SVG 1.1//EN" "http://www.w3.org/Graphics/SVG/1.1/DTD/svg11.dtd">
<svg version="1.1" id="Layer_3" xmlns="http://www.w3.org/2000/svg" xmlns:xlink="http://www.w3.org/1999/xlink" x="0px" y="0px"
	 width="150px" height="250px" viewBox="0 0 150 250" enable-background="new 0 0 150 250" xml:space="preserve">
<path fill-rule="evenodd" clip-rule="evenodd" fill="#4F392A" d="M22.9,18.1V20c0,0.6-0.5,1-1,1h-1.1c-0.6,0-1-0.5-1-1v-1.9H22.9z"
	/>
<path fill-rule="evenodd" clip-rule="evenodd" fill="#4F392A" d="M72.9,18.1V20c0,0.6-0.5,1-1,1h-1.1c-0.6,0-1-0.5-1-1v-1.9H72.9z"
	/>
<path fill-rule="evenodd" clip-rule="evenodd" fill="#4F392A" d="M122.9,18.1V20c0,0.6-0.5,1-1,1h-1.1c-0.6,0-1-0.5-1-1v-1.9H122.9z
	"/>
<path fill-rule="evenodd" clip-rule="evenodd" fill="#4F392A" d="M30.2,18.1V20c0,0.6-0.5,1-1,1H28c-0.6,0-1-0.5-1-1v-1.9H30.2z"/>
<path fill-rule="evenodd" clip-rule="evenodd" fill="#4F392A" d="M33.7,118.1v1.9c0,0.6-0.5,1-1,1h-0.1c-0.6,0-1-0.5-1-1v-1.9H33.7z
	"/>
<path fill-rule="evenodd" clip-rule="evenodd" fill="#4F392A" d="M83.7,118.1v1.9c0,0.6-0.5,1-1,1h-0.1c-0.6,0-1-0.5-1-1v-1.9H83.7z
	"/>
<path fill-rule="evenodd" clip-rule="evenodd" fill="#4F392A" d="M133.7,118.1v1.9c0,0.6-0.5,1-1,1h-0.1c-0.6,0-1-0.5-1-1v-1.9
	H133.7z"/>
<path fill-rule="evenodd" clip-rule="evenodd" fill="#4F392A" d="M80.2,18.1V20c0,0.6-0.5,1-1,1H78c-0.6,0-1-0.5-1-1v-1.9H80.2z"/>
<path fill-rule="evenodd" clip-rule="evenodd" fill="#4F392A" d="M130.2,18.1V20c0,0.6-0.5,1-1,1H128c-0.6,0-1-0.5-1-1v-1.9H130.2z"
	/>
<path fill-rule="evenodd" clip-rule="evenodd" fill="#4F392A" d="M18.5,168.1v1.9c0,0.6-0.5,1-1,1h-0.1c-0.6,0-1-0.5-1-1v-1.9H18.5z
	"/>
<path fill-rule="evenodd" clip-rule="evenodd" fill="#4F392A" d="M22.9,219.9L22.9,219.9c0,0.6-0.5,1.1-1,1.1h-1.1c-0.6,0-1-0.5-1-1
	v-0.1H22.9z"/>
<path fill-rule="evenodd" clip-rule="evenodd" fill="#4F392A" d="M72.9,219.9L72.9,219.9c0,0.6-0.5,1.1-1,1.1h-1.1c-0.6,0-1-0.5-1-1
	v-0.1H72.9z"/>
<path fill-rule="evenodd" clip-rule="evenodd" fill="#4F392A" d="M122.9,219.9L122.9,219.9c0,0.6-0.5,1.1-1,1.1h-1.1
	c-0.6,0-1-0.5-1-1v-0.1H122.9z"/>
<path fill-rule="evenodd" clip-rule="evenodd" fill="#4F392A" d="M30.2,219.9L30.2,219.9c0,0.6-0.5,1.1-1,1.1H28c-0.6,0-1-0.5-1-1
	v-0.1H30.2z"/>
<path fill-rule="evenodd" clip-rule="evenodd" fill="#4F392A" d="M80.2,219.9L80.2,219.9c0,0.6-0.5,1.1-1,1.1H78c-0.6,0-1-0.5-1-1
	v-0.1H80.2z"/>
<path fill-rule="evenodd" clip-rule="evenodd" fill="#4F392A" d="M130.2,219.9L130.2,219.9c0,0.6-0.5,1.1-1,1.1H128
	c-0.6,0-1-0.5-1-1v-0.1H130.2z"/>
<path fill-rule="evenodd" clip-rule="evenodd" fill="#4F392A" d="M118.5,168.1v1.9c0,0.6-0.5,1-1,1h-0.1c-0.6,0-1-0.5-1-1v-1.9
	H118.5z"/>
<path fill-rule="evenodd" clip-rule="evenodd" fill="#4F392A" d="M68.5,168.1v1.9c0,0.6-0.5,1-1,1h-0.1c-0.6,0-1-0.5-1-1v-1.9H68.5z
	"/>
</svg>
