<?xml version="1.0" encoding="utf-8"?>
<!-- Generator: Adobe Illustrator 16.0.0, SVG Export Plug-In . SVG Version: 6.00 Build 0)  -->
<!DOCTYPE svg PUBLIC "-//W3C//DTD SVG 1.1//EN" "http://www.w3.org/Graphics/SVG/1.1/DTD/svg11.dtd">
<svg version="1.1" id="Layer_3" xmlns="http://www.w3.org/2000/svg" xmlns:xlink="http://www.w3.org/1999/xlink" x="0px" y="0px"
	 width="150px" height="250px" viewBox="0 0 150 250" enable-background="new 0 0 150 250" xml:space="preserve">
<path fill-rule="evenodd" clip-rule="evenodd" d="M72.9,194.4c-5.5,0.2-9.7,1.3-9.7,2.8c0,1.5,5.3,2.8,11.9,2.8s11.9-1.3,11.9-2.8
	s-4.2-2.5-9.7-2.8v0.3c0,0.8-0.6,1.4-1.4,1.4h-1.6c-0.8,0-1.4-0.6-1.4-1.4V194.4z"/>
<path fill-rule="evenodd" clip-rule="evenodd" d="M122.9,194.4c-5.5,0.2-9.7,1.3-9.7,2.8c0,1.5,5.3,2.8,11.9,2.8s11.9-1.3,11.9-2.8
	s-4.2-2.5-9.7-2.8v0.3c0,0.8-0.6,1.4-1.4,1.4h-1.6c-0.8,0-1.4-0.6-1.4-1.4V194.4z"/>
<path fill-rule="evenodd" clip-rule="evenodd" d="M22.9,194.4c-5.5,0.2-9.7,1.3-9.7,2.8c0,1.5,5.3,2.8,11.9,2.8
	c6.6,0,11.9-1.3,11.9-2.8s-4.2-2.5-9.7-2.8v0.3c0,0.8-0.6,1.4-1.4,1.4h-1.6c-0.8,0-1.4-0.6-1.4-1.4V194.4z"/>
<path fill-rule="evenodd" clip-rule="evenodd" fill="#FFFFFF" d="M36.3,120.7c1.5,0.7,2.5,1.9,2.1,2.6c-0.3,0.6-1.5,0.7-2.8,0.2
	c-0.2,3.1-4.3,5.7-9.6,6c5.3-0.3,8.5-3,7.3-6.2c-0.3-0.8-0.9-1.6-1.6-2.3c0.5-1.9,0.4-4.1-0.5-6.5c-1.8-4.8-6.2-9-11.1-10.9
	c1.5-0.7,3.1-1,4.8-1c6.6,0,11.9,5.3,11.9,11.9c0,2.1-0.6,4.1-1.5,5.8C35.6,120.4,36,120.5,36.3,120.7z"/>
<path fill-rule="evenodd" clip-rule="evenodd" d="M34.8,125.7c-1.6,2.2-5.4,3.8-9.9,3.8c-9.9,0-11.9-6.6-11.9-15.1
	c0-4.4,2.4-8.3,6-10.3c-1.9,2.1-3.1,4.9-3.1,8C16,123.9,23.4,131.4,34.8,125.7z"/>
<path fill-rule="evenodd" clip-rule="evenodd" fill="#FFFFFF" d="M86.3,120.7c1.5,0.7,2.4,1.9,2.1,2.6c-0.3,0.6-1.5,0.7-2.8,0.2
	c-0.2,3.1-4.3,5.7-9.6,6c5.3-0.3,8.5-3,7.3-6.2c-0.3-0.8-0.9-1.6-1.6-2.3c0.5-1.9,0.4-4.1-0.5-6.5c-1.8-4.8-6.2-9-11.1-10.9
	c1.5-0.7,3.1-1,4.8-1c6.6,0,11.9,5.3,11.9,11.9c0,2.1-0.6,4.1-1.5,5.8C85.6,120.4,86,120.5,86.3,120.7z"/>
<path fill-rule="evenodd" clip-rule="evenodd" d="M84.8,125.7c-1.6,2.2-5.4,3.8-9.9,3.8c-9.9,0-11.9-6.6-11.9-15.1
	c0-4.4,2.4-8.3,6-10.3c-1.9,2.1-3.1,4.9-3.1,8C66,123.9,73.4,131.4,84.8,125.7z"/>
<path fill-rule="evenodd" clip-rule="evenodd" fill="#FFFFFF" d="M136.3,120.7c1.5,0.7,2.4,1.9,2.1,2.6c-0.3,0.6-1.5,0.7-2.8,0.2
	c-0.2,3.1-4.3,5.7-9.6,6c5.3-0.3,8.5-3,7.3-6.2c-0.3-0.8-0.9-1.6-1.6-2.3c0.5-1.9,0.4-4.1-0.5-6.5c-1.8-4.8-6.2-9-11.1-10.9
	c1.5-0.7,3.1-1,4.8-1c6.6,0,11.9,5.3,11.9,11.9c0,2.1-0.6,4.1-1.5,5.8C135.6,120.4,136,120.5,136.3,120.7z"/>
<path fill-rule="evenodd" clip-rule="evenodd" d="M134.8,125.7c-1.6,2.2-5.4,3.8-9.9,3.8c-9.9,0-11.9-6.6-11.9-15.1
	c0-4.4,2.4-8.3,6-10.3c-1.9,2.1-3.1,4.9-3.1,8C116,123.9,123.4,131.4,134.8,125.7z"/>
<path fill-rule="evenodd" clip-rule="evenodd" fill="#FFFFFF" d="M25.1,152.6c-2,0-3.8,0.5-5.4,1.3c11,1.2,16.3,13.8,13.1,23.5
	c3.4-2.6,4.2-7.4,4.2-12.9c0-4.8-2.9-9-7.1-10.9l-0.1,0l-0.1,0l0,0l0,0l-0.1,0l-0.1,0l-0.1,0l0,0l0,0l-0.1,0l-0.1,0l-0.1,0l0,0l0,0
	l-0.1,0l-0.1,0l-0.1,0l0,0l-0.1,0l-0.1,0l-0.1,0l-0.1,0h0l-0.1,0l-0.1,0l-0.1,0l-0.1,0l0,0l-0.1,0l-0.1,0l-0.1,0l0,0l0,0l-0.1,0
	l-0.1,0l-0.1,0l0,0l0,0l-0.1,0l-0.1,0l-0.1,0l0,0l-0.1,0l-0.1,0l-0.1,0l-0.1,0h0l-0.1,0l-0.2,0l-0.1,0l0,0l-0.1,0l-0.1,0l-0.1,0
	l-0.1,0h0l-0.3,0h0l-0.2,0l-0.1,0l0,0h0l-0.1,0l-0.1,0l-0.1,0h0l-0.1,0l-0.1,0h-0.1l-0.1,0h0h-0.1l-0.1,0H25.1L25.1,152.6z"/>
<path fill-rule="evenodd" clip-rule="evenodd" fill="#FFFFFF" d="M75.1,152.6c-2,0-3.8,0.5-5.4,1.3c11,1.2,16.3,13.8,13.1,23.5
	c3.4-2.6,4.2-7.4,4.2-12.9c0-4.8-2.9-9-7.1-10.9l-0.1,0l-0.1,0l0,0l0,0l-0.1,0l-0.1,0l-0.1,0l0,0l0,0l-0.1,0l-0.1,0l-0.1,0l0,0l0,0
	l-0.1,0l-0.1,0l-0.1,0l0,0l-0.1,0l-0.1,0l-0.1,0l-0.1,0h0l-0.1,0l-0.1,0l-0.1,0l-0.1,0l0,0l-0.1,0l-0.1,0l-0.1,0l0,0l0,0l-0.1,0
	l-0.1,0l-0.1,0l0,0l0,0l-0.1,0l-0.1,0l-0.1,0l0,0l0,0l-0.1,0l-0.1,0l-0.1,0h0l-0.1,0l-0.2,0l-0.1,0l0,0l-0.1,0l-0.1,0l-0.1,0l-0.1,0
	h0l-0.3,0h0l-0.2,0l-0.1,0l0,0h0l-0.1,0l-0.1,0l-0.1,0h0l-0.1,0l-0.1,0h-0.1l-0.1,0h0h-0.1l-0.1,0H75.1L75.1,152.6z"/>
<path fill-rule="evenodd" clip-rule="evenodd" fill="#FFFFFF" d="M125.1,152.6c-2,0-3.8,0.5-5.4,1.3c11,1.2,16.3,13.8,13.1,23.5
	c3.4-2.6,4.2-7.4,4.2-12.9c0-4.8-2.9-9-7.1-10.9l-0.1,0l-0.1,0l0,0l0,0l-0.1,0l-0.1,0l-0.1,0l0,0l0,0l-0.1,0l-0.1,0l-0.1,0l0,0l0,0
	l-0.1,0l-0.1,0l-0.1,0l0,0l-0.1,0l-0.1,0l-0.1,0l-0.1,0h0l-0.1,0l-0.1,0l-0.1,0l-0.1,0l0,0l-0.1,0l-0.1,0l-0.1,0l0,0l0,0l-0.1,0
	l-0.1,0l-0.1,0l0,0l0,0l-0.1,0l-0.1,0l-0.1,0l0,0l0,0l-0.1,0l-0.1,0l-0.1,0h0l-0.1,0l-0.2,0l-0.1,0h0l-0.1,0l-0.1,0l-0.1,0l-0.1,0h0
	l-0.3,0h0l-0.2,0l-0.1,0l0,0h0l-0.1,0l-0.1,0l-0.1,0h0l-0.1,0l-0.1,0h-0.1l-0.1,0h0h-0.1l-0.1,0H125.1L125.1,152.6z"/>
<path fill-rule="evenodd" clip-rule="evenodd" d="M16,156.8c-3.2,3.8-3.6,9-1.4,13.2l0,0l0,0.1l0,0l0,0.1l0,0l0,0
	c-0.3,0.1-0.7,0.2-1.1,0.4c-1.5,0.7-2.5,1.9-2.1,2.6c0.3,0.6,1.5,0.7,2.8,0.2c0.5,7.1,17.5,8.8,20.9,0.7
	C24.2,183.4,12.7,168.9,16,156.8z"/>
<path fill-rule="evenodd" clip-rule="evenodd" d="M66,156.8c-3.2,3.8-3.6,9-1.4,13.2l0,0l0,0.1l0,0l0,0.1l0,0l0,0
	c-0.4,0.1-0.7,0.2-1.1,0.4c-1.5,0.7-2.5,1.9-2.1,2.6c0.3,0.6,1.5,0.7,2.8,0.2c0.5,7.1,17.5,8.8,20.9,0.7
	C74.2,183.4,62.7,168.9,66,156.8z"/>
<path fill-rule="evenodd" clip-rule="evenodd" d="M116,156.8c-3.2,3.8-3.6,9-1.4,13.2l0,0l0,0.1l0,0l0,0.1l0,0l0,0
	c-0.4,0.1-0.7,0.2-1.1,0.4c-1.5,0.7-2.4,1.9-2.1,2.6c0.3,0.6,1.5,0.7,2.8,0.2c0.5,7.1,17.5,8.8,20.9,0.7
	C124.2,183.4,112.7,168.9,116,156.8z"/>
<path fill-rule="evenodd" clip-rule="evenodd" fill="#FFFFFF" d="M30.7,112.4h1.8c0.9,0,1.7,0.7,1.7,1.7v6.2c0,0.9-0.7,1.7-1.7,1.7
	h-1.8c-0.9,0-1.7-0.7-1.7-1.7v-6.2C29,113.2,29.8,112.4,30.7,112.4z"/>
<path fill-rule="evenodd" clip-rule="evenodd" fill="#FFFFFF" d="M80.7,112.4h1.8c0.9,0,1.7,0.7,1.7,1.7v6.2c0,0.9-0.7,1.7-1.7,1.7
	h-1.8c-0.9,0-1.7-0.7-1.7-1.7v-6.2C79,113.2,79.8,112.4,80.7,112.4z"/>
<path fill-rule="evenodd" clip-rule="evenodd" fill="#FFFFFF" d="M130.7,112.4h1.8c0.9,0,1.7,0.7,1.7,1.7v6.2c0,0.9-0.7,1.7-1.7,1.7
	h-1.8c-0.9,0-1.7-0.7-1.7-1.7v-6.2C129,113.2,129.8,112.4,130.7,112.4z"/>
<path fill-rule="evenodd" clip-rule="evenodd" fill="#FFFFFF" d="M34.8,20.9c3.6,5.2-4.8,8.3-8.8,8.5c5.1-0.3,10.6-3.8,5.7-8.5
	c2.1-7.2-1.6-17.1-11.6-17.4C30.8-1.2,41.4,11,34.8,20.9z"/>
<path fill-rule="evenodd" clip-rule="evenodd" fill="#FFFFFF" d="M34.8,70.9c3.6,5.2-4.8,8.3-8.8,8.5c5.1-0.3,10.6-3.8,5.7-8.5
	c2.1-7.2-1.6-17.1-11.6-17.4C30.8,48.8,41.4,61,34.8,70.9z"/>
<path fill-rule="evenodd" clip-rule="evenodd" fill="#FFFFFF" d="M34.8,220.9c3.6,5.2-4.8,8.3-8.8,8.5c5.1-0.3,10.6-3.8,5.7-8.5
	c2.1-7.2-1.6-17.1-11.6-17.4C30.8,198.8,41.4,211,34.8,220.9z"/>
<path fill-rule="evenodd" clip-rule="evenodd" fill="#FFFFFF" d="M84.8,20.9c3.6,5.2-4.8,8.3-8.8,8.5c5.1-0.3,10.6-3.8,5.7-8.5
	c2.1-7.2-1.6-17.1-11.6-17.4C80.8-1.2,91.4,11,84.8,20.9z"/>
<path fill-rule="evenodd" clip-rule="evenodd" fill="#FFFFFF" d="M84.8,70.9c3.6,5.2-4.8,8.3-8.8,8.5c5.1-0.3,10.6-3.8,5.7-8.5
	c2.1-7.2-1.6-17.1-11.6-17.4C80.8,48.8,91.4,61,84.8,70.9z"/>
<path fill-rule="evenodd" clip-rule="evenodd" fill="#FFFFFF" d="M84.8,220.9c3.6,5.2-4.8,8.3-8.8,8.5c5.1-0.3,10.6-3.8,5.7-8.5
	c2.1-7.2-1.6-17.1-11.6-17.4C80.8,198.8,91.4,211,84.8,220.9z"/>
<path fill-rule="evenodd" clip-rule="evenodd" fill="#FFFFFF" d="M134.8,20.9c3.6,5.2-4.8,8.3-8.8,8.5c5.1-0.3,10.6-3.8,5.7-8.5
	c2.1-7.2-1.6-17.1-11.6-17.4C130.8-1.2,141.4,11,134.8,20.9z"/>
<path fill-rule="evenodd" clip-rule="evenodd" fill="#FFFFFF" d="M134.8,70.9c3.6,5.2-4.8,8.3-8.8,8.5c5.1-0.3,10.6-3.8,5.7-8.5
	c2.1-7.2-1.6-17.1-11.6-17.4C130.8,48.8,141.4,61,134.8,70.9z"/>
<path fill-rule="evenodd" clip-rule="evenodd" fill="#FFFFFF" d="M134.8,220.9c3.6,5.2-4.8,8.3-8.8,8.5c5.1-0.3,10.6-3.8,5.7-8.5
	c2.1-7.2-1.6-17.1-11.6-17.4C130.8,198.8,141.4,211,134.8,220.9z"/>
<path fill-rule="evenodd" clip-rule="evenodd" d="M33.9,26.7c-5.9,6-23.8,2-18.8-5.8c-4-6.1-1.8-14.5,5.3-17.4
	c-4.8,3.8-5.8,10.7-2.5,15.8C12.7,26.6,28,29.1,33.9,26.7z"/>
<path fill-rule="evenodd" clip-rule="evenodd" d="M33.9,76.7c-5.9,6-23.8,2-18.8-5.7c-4-6.1-1.8-14.5,5.3-17.4
	c-4.8,3.8-5.8,10.7-2.5,15.8C12.7,76.6,28,79.1,33.9,76.7z"/>
<path fill-rule="evenodd" clip-rule="evenodd" d="M33.9,226.7c-5.9,6-23.8,2-18.8-5.7c-4-6.1-1.8-14.5,5.3-17.4
	c-4.8,3.8-5.8,10.7-2.5,15.8C12.7,226.6,28,229.1,33.9,226.7z"/>
<path fill-rule="evenodd" clip-rule="evenodd" d="M83.9,26.7c-5.9,6-23.8,2-18.8-5.8c-4-6.1-1.8-14.5,5.3-17.4
	c-4.8,3.8-5.8,10.7-2.5,15.8C62.7,26.6,78,29.1,83.9,26.7z"/>
<path fill-rule="evenodd" clip-rule="evenodd" d="M83.9,76.7c-5.9,6-23.8,2-18.8-5.7c-4-6.1-1.8-14.5,5.3-17.4
	c-4.8,3.8-5.8,10.7-2.5,15.8C62.7,76.6,78,79.1,83.9,76.7z"/>
<path fill-rule="evenodd" clip-rule="evenodd" d="M83.9,226.7c-5.9,6-23.8,2-18.8-5.7c-4-6.1-1.8-14.5,5.3-17.4
	c-4.8,3.8-5.8,10.7-2.5,15.8C62.7,226.6,78,229.1,83.9,226.7z"/>
<path fill-rule="evenodd" clip-rule="evenodd" d="M133.9,26.7c-5.9,6-23.8,2-18.8-5.8c-4-6.1-1.8-14.5,5.3-17.4
	c-4.8,3.8-5.8,10.7-2.5,15.8C112.7,26.6,128,29.1,133.9,26.7z"/>
<path fill-rule="evenodd" clip-rule="evenodd" d="M133.9,76.7c-5.9,6-23.8,2-18.8-5.7c-4-6.1-1.8-14.5,5.3-17.4
	c-4.8,3.8-5.8,10.7-2.5,15.8C112.7,76.6,128,79.1,133.9,76.7z"/>
<path fill-rule="evenodd" clip-rule="evenodd" d="M133.9,226.7c-5.9,6-23.8,2-18.8-5.7c-4-6.1-1.8-14.5,5.3-17.4
	c-4.8,3.8-5.8,10.7-2.5,15.8C112.7,226.6,128,229.1,133.9,226.7z"/>
<path fill-rule="evenodd" clip-rule="evenodd" d="M32.5,245c2.6,0.5,4.3,1.1,4.3,2.2c0,1.3-5.3,2.8-11.9,2.8
	c-6.6,0-11.9-1.5-11.9-2.8c0-1.1,1.7-1.7,4.3-2.2v0.8c0,0.9,0.4,1.8,1,2.4l0,0c0.6,0.6,1.5,1,2.4,1h1.6c0.9,0,1.8-0.4,2.4-1l0.2-0.2
	l0.2,0.2c0.6,0.6,1.5,1,2.4,1h1.6c0.9,0,1.8-0.4,2.4-1c0.6-0.6,1-1.5,1-2.4V245z"/>
<path fill-rule="evenodd" clip-rule="evenodd" d="M82.5,245c2.6,0.5,4.3,1.1,4.3,2.2c0,1.3-5.3,2.8-11.9,2.8s-11.9-1.5-11.9-2.8
	c0-1.1,1.7-1.7,4.3-2.2v0.8c0,0.9,0.4,1.8,1,2.4l0,0c0.6,0.6,1.5,1,2.4,1h1.6c0.9,0,1.8-0.4,2.4-1l0.2-0.2l0.2,0.2
	c0.6,0.6,1.5,1,2.4,1h1.6c0.9,0,1.8-0.4,2.4-1c0.6-0.6,1-1.5,1-2.4V245z"/>
<path fill-rule="evenodd" clip-rule="evenodd" d="M82.5,45c2.6,0.5,4.3,1.1,4.3,2.2c0,1.3-5.3,2.8-11.9,2.8s-11.9-1.5-11.9-2.8
	c0-1.1,1.7-1.7,4.3-2.2v0.8c0,0.9,0.4,1.8,1,2.4l0,0c0.6,0.6,1.5,1,2.4,1h1.6c0.9,0,1.8-0.4,2.4-1l0.2-0.2l0.2,0.2
	c0.6,0.6,1.5,1,2.4,1h1.6c0.9,0,1.8-0.4,2.4-1c0.6-0.6,1-1.5,1-2.4V45z"/>
<path fill-rule="evenodd" clip-rule="evenodd" d="M82.5,95c2.6,0.5,4.3,1.1,4.3,2.2c0,1.3-5.3,2.8-11.9,2.8s-11.9-1.5-11.9-2.8
	c0-1.1,1.7-1.7,4.3-2.2v0.8c0,0.9,0.4,1.8,1,2.4l0,0c0.6,0.6,1.5,1,2.4,1h1.6c0.9,0,1.8-0.4,2.4-1l0.2-0.2l0.2,0.2
	c0.6,0.6,1.5,1,2.4,1h1.6c0.9,0,1.8-0.4,2.4-1c0.6-0.6,1-1.5,1-2.4V95z"/>
<path fill-rule="evenodd" clip-rule="evenodd" d="M132.5,245c2.6,0.5,4.3,1.1,4.3,2.2c0,1.3-5.3,2.8-11.9,2.8s-11.9-1.5-11.9-2.8
	c0-1.1,1.7-1.7,4.3-2.2v0.8c0,0.9,0.4,1.8,1,2.4l0,0c0.6,0.6,1.5,1,2.4,1h1.6c0.9,0,1.8-0.4,2.4-1l0.2-0.2l0.2,0.2
	c0.6,0.6,1.5,1,2.4,1h1.6c0.9,0,1.8-0.4,2.4-1c0.6-0.6,1-1.5,1-2.4V245z"/>
<path fill-rule="evenodd" clip-rule="evenodd" d="M32.5,45.1c2.3,0.5,3.7,1.1,3.7,2.1c0,1.3-5.3,2.8-11.9,2.8
	c-6.6,0-11.9-1.3-11.9-2.8c0-0.9,2.8-1.7,5.8-2.2l0.2,0.2l0,0c0.6,0.6,1.5,1,2.4,1h1.6c0.6,0,1.2-0.2,1.7-0.5v0.1
	c0,0.9,0.4,1.8,1,2.4c0.6,0.6,1.5,1,2.4,1h1.6c0.9,0,1.8-0.4,2.4-1c0.6-0.6,1-1.5,1-2.4V45.1z"/>
<path fill-rule="evenodd" clip-rule="evenodd" d="M132.5,95.1c2.3,0.5,3.7,1.1,3.7,2.1c0,1.3-5.3,2.8-11.9,2.8
	c-6.6,0-11.9-1.3-11.9-2.8c0-0.9,2.8-1.7,5.8-2.2l0.2,0.2l0,0c0.6,0.6,1.5,1,2.4,1h1.6c0.6,0,1.2-0.2,1.7-0.5v0.1
	c0,0.9,0.4,1.8,1,2.4c0.6,0.6,1.5,1,2.4,1h1.6c0.9,0,1.8-0.4,2.4-1c0.6-0.6,1-1.5,1-2.4V95.1z"/>
<path fill-rule="evenodd" clip-rule="evenodd" d="M23.8,40.7v2c0,0.8-0.6,1.4-1.4,1.4h-1.6c-0.8,0-1.4-0.6-1.4-1.4v-2.9
	C20.4,41,22.3,40.7,23.8,40.7z"/>
<path fill-rule="evenodd" clip-rule="evenodd" d="M123.8,90.7v2c0,0.8-0.6,1.4-1.4,1.4h-1.6c-0.8,0-1.4-0.6-1.4-1.4v-2.9
	C120.4,91,122.3,90.7,123.8,90.7z"/>
<path fill-rule="evenodd" clip-rule="evenodd" d="M131.6,45.1c2.8,0.5,5.2,1.3,5.2,2.1c0,1.5-5.3,2.8-11.9,2.8s-11.9-1.5-11.9-2.8
	c0-1.1,1.7-1.7,4.3-2.2v0.8c0,0.9,0.4,1.8,1,2.4l0,0c0.6,0.6,1.5,1,2.4,1h1.6c0.9,0,1.8-0.4,2.4-1c0.6-0.6,1-1.5,1-2.4v-0.1
	c0.5,0.3,1.1,0.5,1.7,0.5h1.6C130,46.1,130.9,45.8,131.6,45.1L131.6,45.1z"/>
<path fill-rule="evenodd" clip-rule="evenodd" d="M31.6,95.1c2.8,0.5,5.2,1.3,5.2,2.1c0,1.5-5.3,2.8-11.9,2.8
	c-6.6,0-11.9-1.5-11.9-2.8c0-1.1,1.7-1.7,4.3-2.2v0.8c0,0.9,0.4,1.8,1,2.4l0,0c0.6,0.6,1.5,1,2.4,1h1.6c0.9,0,1.8-0.4,2.4-1
	c0.6-0.6,1-1.5,1-2.4v-0.1c0.5,0.3,1.1,0.5,1.7,0.5h1.6C30,96.1,30.9,95.8,31.6,95.1L31.6,95.1z"/>
<path fill-rule="evenodd" clip-rule="evenodd" d="M126.1,40.7v2c0,0.8,0.6,1.4,1.4,1.4h1.6c0.8,0,1.4-0.6,1.4-1.4v-2.9
	C129.4,41,127.6,40.7,126.1,40.7z"/>
<path fill-rule="evenodd" clip-rule="evenodd" d="M26.1,90.7v2c0,0.8,0.6,1.4,1.4,1.4h1.6c0.8,0,1.4-0.6,1.4-1.4v-2.9
	C29.4,91,27.6,90.7,26.1,90.7z"/>
<path fill-rule="evenodd" clip-rule="evenodd" d="M72.9,193.5v2.2c0,0.8,0.6,1.4,1.4,1.4h1.6c0.8,0,1.4-0.6,1.4-1.4v-2
	c-0.4,0.2-0.8,0.3-1.2,0.4h0c-0.9,0.1-1.8,0.1-2.6-0.3L72.9,193.5z"/>
<path fill-rule="evenodd" clip-rule="evenodd" d="M20.7,191.6l-1.2,1.7c-0.4,0.6-0.3,1.5,0.3,2l1.3,0.9c0.6,0.4,1.5,0.3,2-0.3
	l1.3-1.9L20.7,191.6z"/>
<path fill-rule="evenodd" clip-rule="evenodd" d="M129.4,191.6l1.2,1.7c0.4,0.6,0.3,1.5-0.3,2l-1.3,0.9c-0.6,0.4-1.5,0.3-2-0.3
	l-1.3-1.9L129.4,191.6z"/>
<path fill-rule="evenodd" clip-rule="evenodd" d="M124.9,144.4c6.6,0,11.9,1.3,11.9,2.8c0,1.5-5.3,2.8-11.9,2.8s-11.9-1.3-11.9-2.8
	C113.1,145.6,118.4,144.4,124.9,144.4z"/>
<path fill-rule="evenodd" clip-rule="evenodd" d="M74.9,144.4c6.6,0,11.9,1.3,11.9,2.8c0,1.5-5.3,2.8-11.9,2.8s-11.9-1.3-11.9-2.8
	C63.1,145.6,68.4,144.4,74.9,144.4z"/>
<path fill-rule="evenodd" clip-rule="evenodd" d="M24.9,144.4c6.6,0,11.9,1.3,11.9,2.8c0,1.5-5.3,2.8-11.9,2.8
	c-6.6,0-11.9-1.3-11.9-2.8C13.1,145.6,18.4,144.4,24.9,144.4z"/>
<path fill-rule="evenodd" clip-rule="evenodd" d="M77.1,143.5v2.2c0,0.8-0.6,1.4-1.4,1.4h-1.6c-0.8,0-1.4-0.6-1.4-1.4v-2
	c0.4,0.2,0.8,0.3,1.2,0.4h0c0.9,0.1,1.8,0,2.6-0.3L77.1,143.5z"/>
<path fill-rule="evenodd" clip-rule="evenodd" d="M20.5,141.7l-1.2,1.7c-0.4,0.6-0.3,1.5,0.3,2l1.3,0.9c0.6,0.4,1.5,0.3,2-0.3
	l1.3-1.9L20.5,141.7z"/>
<path fill-rule="evenodd" clip-rule="evenodd" d="M129.3,141.6l1.2,1.7c0.4,0.6,0.3,1.5-0.3,2l-1.3,0.9c-0.6,0.4-1.5,0.3-2-0.3
	l-1.3-1.9L129.3,141.6z"/>
</svg>
