<?xml version="1.0" encoding="utf-8"?>
<!-- Generator: Adobe Illustrator 16.0.0, SVG Export Plug-In . SVG Version: 6.00 Build 0)  -->
<!DOCTYPE svg PUBLIC "-//W3C//DTD SVG 1.1//EN" "http://www.w3.org/Graphics/SVG/1.1/DTD/svg11.dtd">
<svg version="1.1" id="color" xmlns="http://www.w3.org/2000/svg" xmlns:xlink="http://www.w3.org/1999/xlink" x="0px" y="0px"
	 width="150px" height="250px" viewBox="0 0 150 250" enable-background="new 0 0 150 250" xml:space="preserve">
<path fill-rule="evenodd" clip-rule="evenodd" fill="#4F392A" d="M87.7,34.6L84.5,29c-0.4-0.7-1.2-0.9-1.9-0.5
	c-0.1,0-0.9,0.1-2.1,0.1c3.1-1.1,5.1-3.1,5.1-5.3c0-0.8-0.3-1.6-0.8-2.3c1.2-1.9,1.9-4.1,1.9-6.5c0-6.6-5.3-11.9-11.9-11.9
	c-6.6,0-11.9,5.3-11.9,11.9c0,2.4,0.7,4.6,1.9,6.5c-0.5,0.7-0.8,1.5-0.8,2.3c0,2.3,2.1,4.2,5.2,5.3c-1.2,0-2-0.1-2.1-0.1
	c-0.7-0.4-1.5-0.2-1.9,0.5l-3.2,5.6c-1.4,0.6-2.1,2.1-1.6,3.6c0.4,1,1.3,1.8,2.3,1.9l0.4-2.6c1,0.6,1.3,0.8,2.2,1.6
	c0.6-0.7,0.8-1.7,0.6-2.5l2.7-4.7v6.2c0,0.7,0.3,1.4,0.8,1.9c-0.1,0.2-0.1,0.4-0.1,0.6v5.2c0,0.8,0.6,1.4,1.4,1.4h1.6
	c0.8,0,1.4-0.6,1.4-1.4v-5h2.3v5c0,0.8,0.6,1.4,1.4,1.4h1.6c0.8,0,1.4-0.6,1.4-1.4v-5.2c0-0.2,0-0.4-0.1-0.6
	c0.5-0.5,0.8-1.1,0.8-1.9v-6.2l2.7,4.7v0c-0.2,0.9,0,1.8,0.6,2.5c1.7-1.5,1-0.9,2.2-1.6l0.4,2.6c1.1-0.1,2-0.9,2.3-1.9
	C89.8,36.7,89.1,35.2,87.7,34.6z"/>
<path fill-rule="evenodd" clip-rule="evenodd" fill="#4F392A" d="M137.7,34.6l-3.2-5.6c-0.4-0.7-1.2-0.9-1.9-0.5
	c-0.2,0.1-0.7,0.1-1.4-0.2c2.7-1.1,4.4-3,4.4-5c0-0.8-0.3-1.6-0.8-2.3c1.2-1.9,1.9-4.1,1.9-6.5c0-6.6-5.3-11.9-11.9-11.9
	c-6.6,0-11.9,5.3-11.9,11.9c0,2.4,0.7,4.6,1.9,6.5c-0.5,0.7-0.8,1.5-0.8,2.3c0,1.3,0.6,2.4,1.7,3.4l-2.9,5c-1.4,0.6-2.1,2.1-1.6,3.6
	c0.3,1,1.3,1.8,2.3,1.9l0.4-2.6c1,0.6,1.3,0.8,2.2,1.6c0.6-0.7,0.8-1.7,0.6-2.5l1.7-2.9v7.4c0,0.7,0.3,1.4,0.8,1.9
	c-0.1,0.2-0.1,0.4-0.1,0.6v5.2c0,0.8,0.6,1.4,1.4,1.4h1.6c0.8,0,1.4-0.6,1.4-1.4v-5h2.3v2c0,0.8,0.6,1.4,1.4,1.4h1.6
	c0.8,0,1.4-0.6,1.4-1.4v-2.9c0.4-0.5,0.7-1.1,0.7-1.7v-6.2l2.7,4.7c-0.2,0.9,0,1.8,0.6,2.5c0.9-0.8,1.3-1.1,2.2-1.6l0.4,2.6
	c1.1-0.1,2-0.9,2.3-1.9C139.8,36.7,139.1,35.2,137.7,34.6z"/>
<path fill-rule="evenodd" clip-rule="evenodd" fill="#4F392A" d="M36.7,31.6l-2.9-5c1.1-1,1.7-2.1,1.7-3.4c0-0.8-0.3-1.6-0.8-2.3
	c1.2-1.9,1.9-4.1,1.9-6.5c0-6.6-5.3-11.9-11.9-11.9c-6.6,0-11.9,5.3-11.9,11.9c0,2.4,0.7,4.6,1.9,6.5c-0.5,0.7-0.8,1.5-0.8,2.3
	c0,2.3,2.2,4.4,5.5,5.4c-0.7,0.3-1.1,0.6-1.1,0.6l-1.4-0.8c-0.7-0.4-1.5-0.2-1.9,0.5l-3.2,5.6c-1.4,0.6-2.1,2.1-1.6,3.6
	c0.3,1,1.3,1.8,2.3,1.9l0.4-2.6c1,0.6,1.3,0.8,2.2,1.6c0.6-0.7,0.8-1.7,0.6-2.5l2.7-4.7v6.2c0,0.7,0.3,1.3,0.7,1.7v2.9
	c0,0.8,0.6,1.4,1.4,1.4h1.6c0.8,0,1.4-0.6,1.4-1.4v-2h2.3v5c0,0.8,0.6,1.4,1.4,1.4h1.6c0.8,0,1.4-0.6,1.4-1.4v-5.2
	c0-0.2,0-0.4-0.1-0.6c0.5-0.5,0.8-1.1,0.8-1.9v-7.4l1.7,2.9c-0.2,0.9,0,1.8,0.6,2.5c0.9-0.8,1.3-1.1,2.2-1.6l0.4,2.6
	c1.1-0.1,2-0.9,2.3-1.9C38.8,33.7,38.1,32.2,36.7,31.6z"/>
<path fill-rule="evenodd" clip-rule="evenodd" fill="#4F392A" d="M37.7,84.6L34.5,79c-0.4-0.7-1.3-0.9-1.9-0.5
	c-0.6,0.4-1.4,0.4-2.1,0.1c3.1-1.1,5.2-3.1,5.2-5.3c0-0.8-0.3-1.6-0.8-2.3c1.2-1.9,1.9-4.1,1.9-6.5c0-6.6-5.3-11.9-11.9-11.9
	c-6.6,0-11.9,5.3-11.9,11.9c0,2.4,0.7,4.6,1.9,6.5c-0.5,0.7-0.8,1.5-0.8,2.3c0,1.6,1.1,3.1,2.8,4.2l-3,5.1c-1.4,0.6-2.1,2.1-1.6,3.6
	c0.4,1,1.3,1.8,2.3,1.9l0.4-2.6c1.3,0.7,0.5,0.1,2.2,1.6c0.6-0.7,0.8-1.7,0.6-2.5v0l0.7-1.2v4.7c0,0.7,0.3,1.4,0.8,1.9
	c-0.1,0.2-0.1,0.4-0.1,0.6v5.2c0,0.8,0.6,1.4,1.4,1.4h1.6c0.8,0,1.4-0.6,1.4-1.4v-5h2.3v2c0,0.8,0.6,1.4,1.4,1.4h1.6
	c0.8,0,1.4-0.6,1.4-1.4v-2.9c0.4-0.5,0.7-1.1,0.7-1.7v-6.2l2.7,4.7c-0.2,0.9,0,1.8,0.6,2.5c1.7-1.5,1-0.9,2.2-1.6l0.4,2.6
	c1.1-0.1,2-0.9,2.3-1.9C39.8,86.7,39.1,85.2,37.7,84.6z"/>
<path fill-rule="evenodd" clip-rule="evenodd" fill="#4F392A" d="M87.7,84.6L84.5,79c-0.4-0.7-1.2-0.9-1.9-0.5l-1.4,0.8l-0.1,0.1
	v-0.9c0,0,0,0,0-0.1c2.7-1.1,4.5-3,4.5-5.1c0-0.8-0.3-1.6-0.8-2.3c1.2-1.9,1.9-4.1,1.9-6.5c0-6.6-5.3-11.9-11.9-11.9
	c-6.6,0-11.9,5.3-11.9,11.9c0,2.4,0.7,4.6,1.9,6.5c-0.5,0.7-0.8,1.5-0.8,2.3c0,2.1,1.8,3.9,4.5,5.1c0,0,0,0,0,0.1v0.9l0,0l0,0l0,0
	l-1.4-0.8c-0.7-0.4-1.5-0.2-1.9,0.5l-3.2,5.6c-1.4,0.6-2.1,2.1-1.6,3.6c0.4,1,1.3,1.8,2.3,1.9l0.4-2.6l0.5,0.3l0,0l0,0l0,0l0,0h0
	l0,0l0,0l0,0h0l0,0l0,0l0,0l0,0l0,0l0,0l0,0l0,0l0,0l0,0l0,0l0,0h0l0,0l0,0l0,0l0,0l0,0l0,0l0,0h0l0,0l0,0l0,0l0,0l0,0l0,0h0l0,0
	l0,0l0,0h0l0,0l1.4,1.2c0.6-0.7,0.8-1.7,0.6-2.5l2.7-4.7v6.2c0,0.7,0.3,1.4,0.8,1.9c-0.1,0.2-0.1,0.4-0.1,0.6v5.2
	c0,0.8,0.6,1.4,1.4,1.4h1.6c0.8,0,1.4-0.6,1.4-1.4v-5h2.3v5c0,0.8,0.6,1.4,1.4,1.4h1.6c0.8,0,1.4-0.6,1.4-1.4v-5.2
	c0-0.2,0-0.4-0.1-0.6c0.5-0.5,0.8-1.1,0.8-1.9v-6.2l2.7,4.7c-0.2,0.9,0,1.8,0.6,2.5l1.4-1.2l0,0l0,0l0,0l0,0l0,0l0,0l0,0l0,0l0,0
	l0,0l0,0l0,0l0,0v0l0,0l0,0l0,0h0l0,0l0,0l0,0l0,0l0,0l0,0l0,0l0,0l0,0l0,0l0,0l0,0h0l0,0l0,0l0,0l0,0l0,0l0,0l0,0l0.5-0.3l0.4,2.6
	c1.1-0.1,2-0.9,2.3-1.9C89.8,86.7,89.1,85.2,87.7,84.6z"/>
<path fill-rule="evenodd" clip-rule="evenodd" fill="#4F392A" d="M135.7,82.6l-3-5.1c1.7-1.1,2.8-2.6,2.8-4.2c0-0.8-0.3-1.6-0.8-2.3
	c1.2-1.9,1.9-4.1,1.9-6.5c0-6.6-5.3-11.9-11.9-11.9c-6.6,0-11.9,5.3-11.9,11.9c0,2.4,0.7,4.6,1.9,6.5c-0.5,0.7-0.8,1.5-0.8,2.3
	c0,2,1.6,3.8,4.1,4.9c-0.7,0.2-1.1,0.3-1.1,0.3c-0.7-0.4-1.5-0.2-1.9,0.5l-3.2,5.6c-1.4,0.6-2.1,2.1-1.6,3.6c0.3,1,1.3,1.8,2.3,1.9
	l0.3-2.6c1.3,0.7,0.5,0.1,2.2,1.6c0.6-0.7,0.8-1.7,0.6-2.5l2.7-4.7v6.2c0,0.7,0.2,1.3,0.7,1.7v2.9c0,0.8,0.6,1.4,1.4,1.4h1.6
	c0.8,0,1.4-0.6,1.4-1.4v-2h2.3v5c0,0.8,0.6,1.4,1.4,1.4h1.6c0.8,0,1.4-0.6,1.4-1.4v-5.2c0-0.2,0-0.4-0.1-0.6
	c0.5-0.5,0.8-1.1,0.8-1.9v-4.7l0.7,1.2c-0.2,0.9,0,1.8,0.6,2.5c1.7-1.5,1-0.9,2.2-1.6l0.4,2.6c1.1-0.1,2-0.9,2.3-1.9
	C137.8,84.7,137.1,83.2,135.7,82.6z"/>
<path fill-rule="evenodd" clip-rule="evenodd" fill="#4F392A" d="M36.3,120.7c-0.4-0.2-0.7-0.3-1.1-0.4c1-1.7,1.5-3.7,1.5-5.8
	c0-6.6-5.3-11.9-11.9-11.9c-6.6,0-11.9,5.3-11.9,11.9c0,6.3,1.1,11.5,5.7,13.8c0,0.1,0,0.1,0,0.2v9.7c0,1.4,1.1,2.6,2.5,2.6
	l-1.9,2.6c-0.4,0.6-0.3,1.5,0.3,2l1.3,0.9c0.6,0.4,1.5,0.3,2-0.3l2-2.8l1.9,2.8c0.4,0.6,1.3,0.8,2,0.3l1.3-0.9
	c0.6-0.4,0.8-1.3,0.3-2l-1.8-2.6c1.4-0.1,2.5-1.2,2.5-2.6v-9.7c0,0,0,0,0-0.1c2.6-1.1,4.4-2.9,4.5-4.9c1.3,0.5,2.5,0.4,2.8-0.2
	C38.8,122.5,37.8,121.4,36.3,120.7z"/>
<path fill-rule="evenodd" clip-rule="evenodd" fill="#4F392A" d="M136.3,120.7c-0.4-0.2-0.7-0.3-1.1-0.4c1-1.7,1.5-3.7,1.5-5.8
	c0-6.6-5.3-11.9-11.9-11.9c-6.6,0-11.9,5.3-11.9,11.9c0,6.3,1.1,11.5,5.7,13.8c0,0.1,0,0.1,0,0.2v9.7c0,1.2,0.8,2.2,1.9,2.5
	c0.1,0.1,0.1,0.2,0.2,0.3c0,0,0.1,0.1,0.1,0.1l-1.6,2.3c-0.4,0.6-0.3,1.5,0.3,2l1.3,0.9c0.6,0.4,1.5,0.3,2-0.3l2-2.8l1.9,2.8
	c0.4,0.6,1.3,0.8,2,0.3l1.3-0.9c0.6-0.4,0.8-1.3,0.3-2l-1.8-2.6c1.4-0.1,2.5-1.2,2.5-2.6v-9.7c0,0,0,0,0-0.1
	c2.6-1.1,4.4-2.9,4.5-4.9c1.3,0.5,2.5,0.4,2.8-0.2C138.8,122.5,137.8,121.4,136.3,120.7z"/>
<path fill-rule="evenodd" clip-rule="evenodd" fill="#4F392A" d="M86.3,120.7c-0.4-0.2-0.7-0.3-1.1-0.4c1-1.7,1.5-3.7,1.5-5.8
	c0-6.6-5.3-11.9-11.9-11.9c-6.6,0-11.9,5.3-11.9,11.9c0,6.3,1.1,11.5,5.7,13.8c0,0.1,0,0.1,0,0.2v9.7c0,1.4,1.2,2.6,2.6,2.6h1
	c0.1,0.2,0.3,0.4,0.5,0.6v4.4c0,0.8,0.6,1.4,1.4,1.4h1.6c0.8,0,1.4-0.6,1.4-1.4v-5h1.4c1.4,0,2.6-1.2,2.6-2.6v-9.7c0,0,0,0,0-0.1
	c2.6-1.1,4.4-2.9,4.5-4.9c1.3,0.5,2.5,0.4,2.8-0.2C88.8,122.5,87.8,121.4,86.3,120.7z"/>
<path fill-rule="evenodd" clip-rule="evenodd" fill="#4F392A" d="M37.7,234.6l-3.2-5.6c-0.4-0.7-1.3-0.9-1.9-0.5
	c-0.1,0.1-0.9,0.1-2.1,0.1c3.1-1.1,5.2-3.1,5.2-5.3c0-0.8-0.3-1.6-0.8-2.3c1.2-1.9,1.9-4.1,1.9-6.5c0-6.6-5.3-11.9-11.9-11.9
	c-6.6,0-11.9,5.3-11.9,11.9c0,2.4,0.7,4.6,1.9,6.5c-0.5,0.7-0.8,1.5-0.8,2.3c0,2.2,2,4.1,5,5.2c-1.2,0-1.9,0-1.9,0
	c-0.7-0.4-1.5-0.2-1.9,0.5l-3.2,5.6c-1.4,0.6-2.1,2.1-1.6,3.6c0.3,1,1.3,1.8,2.3,1.9l0.4-2.6c1.3,0.7,0.5,0.1,2.2,1.6
	c0.6-0.7,0.8-1.7,0.6-2.5l2.7-4.7v6.2c0,0.7,0.3,1.4,0.8,1.9c-0.1,0.2-0.1,0.4-0.1,0.6v5.2c0,0.8,0.6,1.4,1.4,1.4h1.6
	c0.8,0,1.4-0.6,1.4-1.4v-5h2.3v5c0,0.8,0.6,1.4,1.4,1.4h1.6c0.8,0,1.4-0.6,1.4-1.4v-5.2c0-0.2,0-0.4-0.1-0.6
	c0.5-0.5,0.8-1.1,0.8-1.9v-6.2l2.7,4.7c-0.2,0.9,0,1.8,0.6,2.5l1.4-1.2l0,0h0l0,0l0,0h0l0,0l0,0l0,0h0h0l0,0l0,0l0,0l0,0l0,0h0l0,0
	l0,0l0,0l0,0h0l0,0l0,0l0,0l0,0l0,0l0,0h0l0,0l0,0l0,0h0l0,0l0,0l0,0l0,0h0l0,0h0l0,0l0,0l0.5-0.3l0.4,2.6c1.1-0.1,2-0.9,2.3-1.9
	C39.8,236.7,39.1,235.2,37.7,234.6z"/>
<path fill-rule="evenodd" clip-rule="evenodd" fill="#4F392A" d="M87.7,234.6l-3.2-5.6c-0.4-0.7-1.2-0.9-1.9-0.5
	c-0.1,0.1-0.9,0.1-2.2,0.1c3.1-1.1,5.2-3.1,5.2-5.3c0-0.8-0.3-1.6-0.8-2.3c1.2-1.9,1.9-4.1,1.9-6.5c0-6.6-5.3-11.9-11.9-11.9
	c-6.6,0-11.9,5.3-11.9,11.9c0,2.4,0.7,4.6,1.9,6.5c-0.5,0.7-0.8,1.5-0.8,2.3c0,2.3,2.1,4.3,5.2,5.3c-1.2,0-2.1-0.1-2.2-0.1
	c-0.7-0.4-1.5-0.2-1.9,0.5l-3.2,5.6c-1.4,0.6-2.1,2.1-1.6,3.6c0.4,1,1.3,1.8,2.3,1.9l0.4-2.6c1.3,0.7,0.5,0.1,2.2,1.6
	c0.6-0.7,0.8-1.7,0.6-2.5l2.7-4.7v6.2c0,0.7,0.3,1.4,0.8,1.9c-0.1,0.2-0.1,0.4-0.1,0.6v5.2c0,0.8,0.6,1.4,1.4,1.4h1.6
	c0.8,0,1.4-0.6,1.4-1.4v-5h2.3v5c0,0.8,0.6,1.4,1.4,1.4h1.6c0.8,0,1.4-0.6,1.4-1.4v-5.2c0-0.2,0-0.4-0.1-0.6
	c0.5-0.5,0.8-1.1,0.8-1.9v-6.2l2.7,4.7c-0.2,0.9,0,1.8,0.6,2.5c1.7-1.5,1-0.9,2.2-1.6l0.4,2.6c1.1-0.1,2-0.9,2.3-1.9
	C89.8,236.7,89.1,235.2,87.7,234.6z"/>
<path fill-rule="evenodd" clip-rule="evenodd" fill="#4F392A" d="M137.7,234.6l-3.2-5.6c-0.4-0.7-1.2-0.9-1.9-0.5
	c-0.2,0.1-1.1,0.2-2.4,0.2c3.3-1.1,5.5-3.1,5.5-5.4c0-0.8-0.3-1.6-0.8-2.3c1.2-1.9,1.9-4.1,1.9-6.5c0-6.6-5.3-11.9-11.9-11.9
	c-6.6,0-11.9,5.3-11.9,11.9c0,2.4,0.7,4.6,1.9,6.5c-0.5,0.7-0.8,1.5-0.8,2.3c0,2.3,2.1,4.2,5.1,5.3c-1.2,0-2.1-0.1-2.1-0.1
	c-0.7-0.4-1.5-0.2-1.9,0.5l-3.2,5.6c-1.4,0.6-2.1,2.1-1.6,3.6c0.3,1,1.3,1.8,2.3,1.9l0.3-2.6c1.3,0.7,0.5,0.1,2.2,1.6
	c0.6-0.7,0.8-1.7,0.6-2.5l2.7-4.7v6.2c0,0.7,0.3,1.4,0.8,1.9c-0.1,0.2-0.1,0.4-0.1,0.6v5.2c0,0.8,0.6,1.4,1.4,1.4h1.6
	c0.8,0,1.4-0.6,1.4-1.4v-5h2.3v5c0,0.8,0.6,1.4,1.4,1.4h1.6c0.8,0,1.4-0.6,1.4-1.4v-5.2c0-0.2,0-0.4-0.1-0.6
	c0.5-0.5,0.8-1.1,0.8-1.9v-6.2l2.7,4.7c-0.2,0.9,0,1.8,0.6,2.5c0.8-0.7,1.3-1.1,2.2-1.6l0.4,2.6c1.1-0.1,2-0.9,2.3-1.9
	C139.8,236.7,139.1,235.2,137.7,234.6z"/>
<path fill-rule="evenodd" clip-rule="evenodd" fill="#4F392A" d="M36.9,164.4c0-6.6-5.3-11.9-11.9-11.9c-6.6,0-11.9,5.3-11.9,11.9
	c0,2.1,0.6,4.1,1.5,5.8c-0.3,0.1-0.7,0.2-1.1,0.4c-1.5,0.7-2.5,1.9-2.1,2.6c0.3,0.6,1.5,0.7,2.8,0.2c0.1,2,1.9,3.8,4.5,4.9
	c0,0,0,0,0,0.1v9.7c0,1.4,1.1,2.5,2.5,2.6l-1.8,2.6c-0.4,0.6-0.3,1.5,0.3,2l1.3,0.9c0.6,0.4,1.5,0.3,2-0.3l1.9-2.8l2,2.8
	c0.4,0.6,1.3,0.8,2,0.3l1.3-0.9c0.6-0.4,0.8-1.3,0.3-2l-1.9-2.6c1.4,0,2.5-1.2,2.5-2.6v-9.7c0-0.1,0-0.1,0-0.2
	C35.9,176,36.9,170.7,36.9,164.4z"/>
<path fill-rule="evenodd" clip-rule="evenodd" fill="#4F392A" d="M86.9,164.4c0-6.6-5.3-11.9-11.9-11.9c-6.6,0-11.9,5.3-11.9,11.9
	c0,2.1,0.6,4.1,1.5,5.8c-0.3,0.1-0.7,0.2-1.1,0.4c-1.5,0.7-2.5,1.9-2.1,2.6c0.3,0.6,1.5,0.7,2.8,0.2c0.1,2,1.9,3.8,4.5,4.9
	c0,0,0,0,0,0.1v9.7c0,1.4,1.2,2.6,2.6,2.6h1.4v5c0,0.8,0.6,1.4,1.4,1.4h1.6c0.8,0,1.4-0.6,1.4-1.4v-4.4c0.2-0.2,0.4-0.4,0.5-0.6h1
	c1.4,0,2.6-1.2,2.6-2.6v-9.7c0-0.1,0-0.1,0-0.2C85.9,176,86.9,170.7,86.9,164.4z"/>
<path fill-rule="evenodd" clip-rule="evenodd" fill="#4F392A" d="M136.9,164.4c0-6.6-5.3-11.9-11.9-11.9c-6.6,0-11.9,5.3-11.9,11.9
	c0,2.1,0.6,4.1,1.5,5.8c-0.3,0.1-0.7,0.2-1.1,0.4c-1.5,0.7-2.5,1.9-2.1,2.6c0.3,0.6,1.5,0.7,2.8,0.2c0.1,2,1.9,3.8,4.5,4.9
	c0,0,0,0,0,0.1v9.7c0,1.4,1.1,2.5,2.5,2.6l-1.8,2.6c-0.4,0.6-0.3,1.5,0.3,2l1.3,0.9c0.6,0.4,1.5,0.3,2-0.3l1.9-2.8l2,2.8
	c0.4,0.6,1.3,0.8,2,0.3l1.3-0.9c0.6-0.4,0.8-1.3,0.3-2L129,191c0,0,0.1-0.1,0.1-0.1c0.1-0.1,0.1-0.2,0.2-0.3
	c1.1-0.3,1.9-1.3,1.9-2.5v-9.7c0-0.1,0-0.1,0-0.2C135.9,176,136.9,170.7,136.9,164.4z"/>
</svg>
