<svg version="1.1" id="Layer_3" xmlns="http://www.w3.org/2000/svg" x="0" y="0" width="150" height="250" viewBox="0 0 150 250" xml:space="preserve"><path fill-rule="evenodd" clip-rule="evenodd" fill="#4F392A" d="M36.7 72.2c.8 1.5 1.6 3.6 2.1 6.7-9.8 3.7-18 3.7-27.8 0 .6-3.1 1.3-5.2 2.1-6.7-.1-.1-.3-.2-.4-.3C7 67.6 7.4 51.4 24.4 51.1h1.1c17 .3 17.3 16.5 11.6 20.8l-.4.3z"/><path fill-rule="evenodd" clip-rule="evenodd" fill="#4F392A" d="M136.7 72.2c.8 1.5 1.6 3.6 2.1 6.7-9.8 3.7-18 3.7-27.8 0 .6-3.1 1.3-5.2 2.1-6.7-.1-.1-.3-.2-.4-.3-5.7-4.3-5.4-20.5 11.6-20.8h1.1c17 .3 17.3 16.5 11.6 20.8l-.3.3z"/><path fill-rule="evenodd" clip-rule="evenodd" fill="#4F392A" d="M86.7 72.2c.8 1.5 1.6 3.6 2.1 6.7-9.8 3.7-18 3.7-27.8 0 .6-3.1 1.3-5.2 2.1-6.7-.1-.1-.3-.2-.4-.3-5.7-4.3-5.4-20.5 11.6-20.8h1.1c17 .3 17.3 16.5 11.6 20.8l-.3.3z"/><path fill-rule="evenodd" clip-rule="evenodd" fill="#4F392A" d="M11.8 22.9C6 18.6 7.4.4 24.4.1h1.1C42.5.4 44.1 18.7 38.4 23c-.6.4.1 5.3.4 6.9-.5.2-1.1.4-1.6.6l-3.3-4c.9-1.5.9-3.1-.1-4.5.8-1.2 1.1-9.2.5-10.6h-.2c-3.1.3-6.4-.2-9.1-1.7-2.6 1.4-6.4 2-9.3 1.7h-.3c-.2.5.2 7.7.1 10 .1.2.2.4.4.6-1.4 2.1-.7 4.3 1.1 5.9-1.7.2-3.2 1.6-3.9 2.9-.7-.2-1.5-.5-2.2-.8"/><g><path fill-rule="evenodd" clip-rule="evenodd" fill="#4F392A" d="M15.4 131.2c-.3 0-.9-.1-1.2-1-4.1-10.3-4.6-18-1.4-22.8 2.5-3.7 7.1-5.7 13.8-5.8h.2c6.3 0 10.1 3.6 10.1 5.2 0 .7-.5 1.2-1.2 1.2-.2 0-.3 0-.5-.1s-.3-.1-.5-.1c-.5 3-3.8 4.6-7.1 4.6H27c.6 3-.1 6.7-1.8 9.1-1.2 1.8-2.9 2.7-4.6 2.7-.7 0-1.3-.1-2-.4-.5 1.6-.9 3.1-1.3 4.2-.7 2.4-.9 3.2-1.9 3.2z"/><g><path fill="#4F392A" d="M26.8 102.6c6.7 0 10 4.4 8.9 4.4h-.2c-.5-.2-1-.2-1.6-.2h-.2v.3c0 3-3.3 4.4-6.1 4.4-.7 0-1.3-.1-1.9-.2 1.7 4.6-.6 12.1-5.1 12.1-.8 0-1.7-.2-2.6-.8-1.6 4.5-2.1 7.8-2.5 7.8-.1 0-.1-.1-.2-.3-6.1-15.4-5-27 11.5-27.3-.1-.2-.1-.2 0-.2m0-2h-.2c-7 .1-11.9 2.3-14.6 6.3-3.4 5.1-3 13.1 1.3 23.7.5 1.5 1.7 1.6 2.1 1.6 1.8 0 2.1-1.4 2.8-4 .2-.9.5-2 .9-3.2.5.1.9.2 1.4.2 2.1 0 4-1.1 5.5-3.2 1.6-2.4 2.4-5.7 2.1-8.7 3.1-.2 6.2-1.7 7.2-4.4h.3c.6 0 1.1-.2 1.5-.6.4-.4.7-1 .7-1.6.1-2.4-4.7-6.1-11-6.1z"/></g></g><g><path fill-rule="evenodd" clip-rule="evenodd" fill="#4F392A" d="M65.4 131.2c-.3 0-.9-.1-1.2-1-4.1-10.3-4.6-18-1.4-22.8 2.5-3.7 7.1-5.7 13.8-5.8h.2c6.3 0 10.1 3.6 10.1 5.2 0 .7-.5 1.2-1.2 1.2-.2 0-.3 0-.5-.1s-.3-.1-.5-.1c-.5 3-3.8 4.6-7.1 4.6H77c.6 3-.1 6.7-1.8 9.1-1.2 1.8-2.9 2.7-4.6 2.7-.7 0-1.3-.1-2-.4-.5 1.6-.9 3.1-1.2 4.2-.8 2.4-1 3.2-2 3.2z"/><g><path fill="#4F392A" d="M76.8 102.6c6.7 0 10 4.4 8.9 4.4h-.2c-.5-.2-1-.2-1.6-.2h-.2v.3c0 3-3.3 4.4-6.1 4.4-.7 0-1.3-.1-1.9-.2 1.7 4.6-.6 12.1-5.1 12.1-.8 0-1.7-.2-2.6-.8-1.6 4.5-2.1 7.8-2.5 7.8-.1 0-.1-.1-.2-.3-6.1-15.4-5-27 11.5-27.3-.1-.2-.1-.2 0-.2m0-2h-.2c-7 .1-11.9 2.3-14.6 6.3-3.4 5.1-3 13.1 1.3 23.7.5 1.5 1.7 1.6 2.1 1.6 1.8 0 2.1-1.4 2.8-4 .2-.9.5-2 .9-3.2.5.1.9.2 1.4.2 2.1 0 4.1-1.1 5.5-3.2 1.6-2.4 2.4-5.7 2.1-8.7 3.1-.2 6.2-1.7 7.2-4.4h.3c.6 0 1.1-.2 1.5-.6.4-.4.7-1 .7-1.6.1-2.4-4.7-6.1-11-6.1z"/></g></g><g><path fill-rule="evenodd" clip-rule="evenodd" fill="#4F392A" d="M115.4 131.2c-.3 0-.9-.1-1.2-1-4.1-10.3-4.6-18-1.4-22.8 2.5-3.7 7.1-5.7 13.8-5.8h.2c6.3 0 10.1 3.6 10.1 5.2 0 .7-.5 1.2-1.2 1.2-.2 0-.3 0-.5-.1s-.3-.1-.5-.1c-.5 3-3.8 4.6-7.1 4.6h-.6c.6 3-.1 6.7-1.8 9.1-1.2 1.8-2.9 2.7-4.6 2.7-.7 0-1.3-.1-2-.4-.5 1.6-.9 3.1-1.2 4.2-.8 2.4-1 3.2-2 3.2z"/><g><path fill="#4F392A" d="M126.8 102.6c6.7 0 10 4.4 8.9 4.4h-.2c-.5-.2-1-.2-1.6-.2h-.2v.3c0 3-3.3 4.4-6.1 4.4-.7 0-1.3-.1-1.9-.2 1.7 4.6-.6 12.1-5.1 12.1-.8 0-1.7-.2-2.6-.8-1.6 4.5-2.1 7.8-2.5 7.8-.1 0-.1-.1-.2-.3-6.1-15.4-5-27 11.5-27.3-.1-.2-.1-.2 0-.2m0-2h-.2c-7 .1-11.9 2.3-14.6 6.3-3.4 5.1-3 13.1 1.3 23.7.5 1.5 1.7 1.6 2.1 1.6 1.8 0 2.1-1.4 2.8-4 .2-.9.5-2 .9-3.2.5.1.9.2 1.4.2 2.1 0 4.1-1.1 5.5-3.2 1.6-2.4 2.4-5.7 2.1-8.7 3.1-.2 6.2-1.7 7.2-4.4h.3c.6 0 1.1-.2 1.5-.6.4-.4.7-1 .7-1.6.1-2.5-4.6-6.1-11-6.1z"/></g></g><g><path fill-rule="evenodd" clip-rule="evenodd" fill="#4F392A" d="M34.6 181.2c-1 0-1.2-.8-1.9-3.2-.3-1.1-.7-2.6-1.3-4.2-.7.3-1.4.4-2 .4-1.8 0-3.4-1-4.6-2.7-1.7-2.4-2.4-6.1-1.8-9.1h-.6c-3.3 0-6.6-1.6-7.1-4.6-.2 0-.4.1-.5.1-.2.1-.4.1-.5.1-.3 0-.6-.1-.8-.3-.2-.2-.4-.5-.4-.9 0-1.6 3.8-5.2 10.1-5.2h.2c6.7.1 11.3 2.1 13.8 5.8 3.2 4.8 2.7 12.5-1.4 22.8-.3.8-.9 1-1.2 1z"/><g><path fill="#4F392A" d="M23.2 152.6h.2c16.4.3 17.6 11.9 11.5 27.3-.1.2-.1.3-.2.3-.4 0-1-3.4-2.5-7.8-.9.5-1.8.8-2.6.8-4.5 0-6.8-7.5-5.1-12.1-.6.2-1.3.2-1.9.2-2.9 0-6.1-1.4-6.1-4.4v-.3h-.2c-.6 0-1.1.1-1.6.2h-.2c-1.3.1 2-4.2 8.7-4.2m0-2c-5.8 0-9.6 2.9-10.7 4.8-.7 1.2-.4 2.1-.1 2.5.4.7 1.1 1.1 1.9 1.1h.3c1 2.7 4.1 4.2 7.2 4.4-.3 3 .5 6.3 2.1 8.7 1.4 2 3.3 3.2 5.5 3.2.5 0 .9-.1 1.4-.2.4 1.2.7 2.4.9 3.3.7 2.5 1.1 4 2.8 4 .4 0 1.5-.1 2.1-1.6 4.2-10.6 4.7-18.6 1.3-23.7-2.7-4-7.6-6.1-14.6-6.3l-.1-.2z"/></g></g><g><path fill-rule="evenodd" clip-rule="evenodd" fill="#4F392A" d="M84.6 181.2c-1 0-1.2-.8-1.9-3.2-.3-1.1-.7-2.6-1.3-4.2-.7.3-1.4.4-2 .4-1.8 0-3.4-1-4.6-2.7-1.7-2.4-2.4-6.1-1.8-9.1h-.6c-1.7 0-3.4-.4-4.7-1.2-1.3-.8-2.2-2-2.4-3.4-.2 0-.4.1-.5.1-.2.1-.4.1-.5.1-.3 0-.6-.1-.8-.3-.2-.2-.4-.5-.4-.9 0-1.6 3.8-5.2 10.1-5.2h.2c6.7.1 11.3 2.1 13.8 5.8 3.2 4.8 2.7 12.5-1.4 22.8-.3.8-.9 1-1.2 1z"/><g><path fill="#4F392A" d="M73.2 152.6h.2c16.4.3 17.6 11.9 11.5 27.3-.1.2-.1.3-.2.3-.4 0-1-3.4-2.5-7.8-.9.5-1.8.8-2.6.8-4.5 0-6.8-7.5-5.1-12.1-.6.2-1.3.2-1.9.2-2.9 0-6.1-1.4-6.1-4.4v-.3h-.2c-.6 0-1.1.1-1.6.2h-.2c-1.3.1 2-4.2 8.7-4.2m0-2c-5.8 0-9.6 2.9-10.7 4.8-.7 1.2-.4 2.1-.1 2.5.4.7 1.1 1.1 1.9 1.1h.3c1 2.7 4.1 4.2 7.2 4.4-.3 3 .5 6.3 2.1 8.7 1.4 2 3.3 3.2 5.5 3.2.5 0 .9-.1 1.4-.2.4 1.2.7 2.4.9 3.3.7 2.5 1.1 4 2.8 4 .4 0 1.5-.1 2.1-1.6 4.2-10.6 4.7-18.6 1.3-23.7-2.7-4-7.6-6.1-14.6-6.3l-.1-.2z"/></g></g><g><path fill-rule="evenodd" clip-rule="evenodd" fill="#4F392A" d="M134.6 181.2c-1 0-1.2-.8-1.9-3.2-.3-1.1-.7-2.6-1.3-4.2-.7.3-1.4.4-2 .4-1.8 0-3.4-1-4.6-2.7-1.7-2.4-2.4-6.1-1.8-9.1h-.6c-3.3 0-6.6-1.6-7.1-4.6-.2 0-.4.1-.5.1-.2.1-.4.1-.5.1-.3 0-.6-.1-.8-.3-.2-.2-.4-.5-.4-.9 0-1.6 3.8-5.2 10.1-5.2h.2c6.7.1 11.3 2.1 13.8 5.8 3.2 4.8 2.7 12.5-1.4 22.8-.3.8-.9 1-1.2 1z"/><g><path fill="#4F392A" d="M123.2 152.6h.2c16.4.3 17.6 11.9 11.5 27.3-.1.2-.1.3-.2.3-.4 0-1-3.4-2.5-7.8-.9.5-1.8.8-2.6.8-4.5 0-6.8-7.5-5.1-12.1-.6.2-1.3.2-1.9.2-2.9 0-6.1-1.4-6.1-4.4v-.3h-.2c-.6 0-1.1.1-1.6.2h-.2c-1.3.1 2-4.2 8.7-4.2m0-2c-5.8 0-9.6 2.9-10.7 4.8-.7 1.2-.4 2.1-.1 2.5.4.7 1.1 1.1 1.9 1.1h.3c1 2.7 4.1 4.2 7.2 4.4-.3 3 .5 6.3 2.1 8.7 1.4 2 3.3 3.2 5.5 3.2.5 0 .9-.1 1.4-.2.4 1.2.7 2.4.9 3.3.7 2.5 1.1 4 2.8 4 .4 0 1.5-.1 2.1-1.6 4.2-10.6 4.7-18.6 1.3-23.7-2.7-4-7.6-6.1-14.6-6.3l-.1-.2z"/></g></g><path fill-rule="evenodd" clip-rule="evenodd" fill="#70513B" d="M25.1 102.6c9-.6 11.8 4.7 10.3 4.3-.8-.3-1.8-.3-2.9-.1.3-1.9-5.7-3.9-7.4-4.2z"/><path fill-rule="evenodd" clip-rule="evenodd" fill="#70513B" d="M75.1 102.6c9-.6 11.8 4.7 10.3 4.3-.8-.3-1.8-.3-2.9-.1.3-1.9-5.7-3.9-7.4-4.2z"/><path fill-rule="evenodd" clip-rule="evenodd" fill="#70513B" d="M125.1 102.6c9-.6 11.8 4.7 10.3 4.3-.8-.3-1.8-.3-2.9-.1.3-1.9-5.7-3.9-7.4-4.2z"/><path fill-rule="evenodd" clip-rule="evenodd" d="M26.8 102.6h.6c-.3-.1-.4-.1-.6 0z"/><path fill-rule="evenodd" clip-rule="evenodd" d="M76.8 102.6h.6c-.3-.1-.4-.1-.6 0z"/><path fill-rule="evenodd" clip-rule="evenodd" d="M126.8 102.6h.6c-.3-.1-.4-.1-.6 0z"/><path fill-rule="evenodd" clip-rule="evenodd" d="M23.2 152.6h-.6c.3-.1.4-.1.6 0z"/><path fill-rule="evenodd" clip-rule="evenodd" d="M73.2 152.6h-.6c.3-.1.4-.1.6 0z"/><path fill-rule="evenodd" clip-rule="evenodd" d="M123.2 152.6h-.6c.3-.1.4-.1.6 0z"/><path fill-rule="evenodd" clip-rule="evenodd" fill="#70513B" d="M36.4 175.1c2.2-12.1 2.4-21.6-11.7-22.6-1.1-.1-2 .1-2.9.3 11.8.9 15.1 10.6 14.6 22.3z"/><path fill-rule="evenodd" clip-rule="evenodd" fill="#70513B" d="M86.4 175.1c2.2-12.1 2.4-21.6-11.7-22.6-1.1-.1-2 .1-2.9.3 11.8.9 15.1 10.6 14.6 22.3z"/><path fill-rule="evenodd" clip-rule="evenodd" fill="#70513B" d="M136.4 175.1c2.2-12.1 2.4-21.6-11.7-22.6-1.1-.1-2 .1-2.9.3 11.8.9 15.1 10.6 14.6 22.3z"/><path fill-rule="evenodd" clip-rule="evenodd" fill="#70513B" d="M35.9 23.5c7.6-5.3-1.5-22-13.5-23.1 16-2.7 23.9 14.4 15.9 22.8-.3.2-.9 1.5.5 6.8"/><path fill-rule="evenodd" clip-rule="evenodd" fill="#70513B" d="M135.9 72.5c7.6-5.3-1.5-20-13.5-21.2 16-2.7 22.6 12.7 14.7 21.1-.3.2.4 1.2 1.7 6.5"/><path fill-rule="evenodd" clip-rule="evenodd" fill="#70513B" d="M85.9 72.5c7.6-5.3-1.5-20-13.5-21.2C88.4 48.6 95 64 87.1 72.4c-.3.2.4 1.2 1.7 6.5"/><path fill-rule="evenodd" clip-rule="evenodd" fill="#70513B" d="M35.9 72.5c7.6-5.3-1.5-20-13.5-21.2C38.4 48.6 45 64 37.1 72.4c-.3.2.4 1.2 1.7 6.5"/><path fill-rule="evenodd" clip-rule="evenodd" fill="#4F392A" d="M61.8 22.9C56 18.6 57.4.4 74.4.1h1.1C92.5.4 94.1 18.7 88.4 23c-.6.4.1 5.3.4 6.9-.5.2-1.1.4-1.6.6l-3.3-4c.9-1.5.9-3.1-.1-4.5.8-1.2 1.1-9.2.5-10.6h-.2c-3.1.3-6.4-.2-9.1-1.7-2.6 1.4-6.4 2-9.3 1.7h-.3c-.2.5.2 7.7.1 10 .1.2.2.4.4.6-1.4 2.1-.7 4.3 1.1 5.9-1.7.2-3.2 1.6-3.9 2.9-.7-.2-1.5-.5-2.2-.8"/><path fill-rule="evenodd" clip-rule="evenodd" fill="#70513B" d="M85.9 23.5c7.6-5.3-1.5-22-13.5-23.1 16-2.7 23.9 14.4 15.9 22.8-.3.2-.9 1.5.5 6.8"/><path fill-rule="evenodd" clip-rule="evenodd" fill="#4F392A" d="M111.8 22.9C106.1 18.6 107.4.4 124.4.1h1.1c17 .3 18.6 18.6 12.9 22.9-.6.4.1 5.3.4 6.9-.5.2-1.1.4-1.6.6l-3.3-4c.9-1.5.9-3.1-.1-4.5.8-1.2 1.1-9.2.5-10.6h-.2c-3.1.3-6.4-.2-9.1-1.7-2.6 1.4-6.4 2-9.3 1.7h-.3c-.2.5.2 7.7.1 10 .1.2.2.4.4.6-1.4 2.1-.7 4.3 1.1 5.9-1.7.2-3.2 1.6-3.9 2.9-.7-.2-1.5-.5-2.2-.8"/><path fill-rule="evenodd" clip-rule="evenodd" fill="#70513B" d="M135.9 23.5c7.6-5.3-1.5-22-13.5-23.1 16-2.7 23.9 14.4 15.9 22.8-.3.2-.9 1.5.5 6.8"/><path fill-rule="evenodd" clip-rule="evenodd" fill="#4F392A" d="M11.8 222.9c-5.7-4.3-4.4-22.5 12.6-22.8h1.1c17 .3 18.6 18.6 12.9 22.9-.6.4.1 5.3.4 6.9-.5.2-1.1.4-1.6.6l-3.3-4c.9-1.5.9-3.1-.1-4.5.8-1.2 1.1-9.2.5-10.6h-.2c-3.1.3-6.4-.2-9.1-1.7-2.6 1.4-6.4 2-9.3 1.7h-.3c-.2.5.2 7.7.1 10 .1.2.2.4.4.6-1.4 2.1-.7 4.3 1.1 5.9-1.7.2-3.2 1.6-3.9 2.9-.7-.2-1.5-.5-2.2-.8"/><path fill-rule="evenodd" clip-rule="evenodd" fill="#70513B" d="M35.9 223.5c7.6-5.3-1.5-22-13.5-23.1 16-2.7 23.9 14.4 15.9 22.8-.3.2-.9 1.5.5 6.8"/><path fill-rule="evenodd" clip-rule="evenodd" fill="#4F392A" d="M61.8 222.9c-5.7-4.3-4.4-22.5 12.6-22.8h1.1c17 .3 18.6 18.6 12.9 22.9-.6.4.1 5.3.4 6.9-.5.2-1.1.4-1.6.6l-3.3-4c.9-1.5.9-3.1-.1-4.5.8-1.2 1.1-9.2.5-10.6h-.2c-3.1.3-6.4-.2-9.1-1.7-2.6 1.4-6.4 2-9.3 1.7h-.3c-.2.5.2 7.7.1 10 .1.2.2.4.4.6-1.4 2.1-.7 4.3 1.1 5.9-1.7.2-3.2 1.6-3.9 2.9-.7-.2-1.5-.5-2.2-.8"/><path fill-rule="evenodd" clip-rule="evenodd" fill="#70513B" d="M85.9 223.5c7.6-5.3-1.5-22-13.5-23.1 16-2.7 23.9 14.4 15.9 22.8-.3.2-.9 1.5.5 6.8"/><path fill-rule="evenodd" clip-rule="evenodd" fill="#4F392A" d="M111.8 222.9c-5.7-4.3-4.4-22.5 12.6-22.8h1.1c17 .3 18.6 18.6 12.9 22.9-.6.4.1 5.3.4 6.9-.5.2-1.1.4-1.6.6l-3.3-4c.9-1.5.9-3.1-.1-4.5.8-1.2 1.1-9.2.5-10.6h-.2c-3.1.3-6.4-.2-9.1-1.7-2.6 1.4-6.4 2-9.3 1.7h-.3c-.2.5.2 7.7.1 10 .1.2.2.4.4.6-1.4 2.1-.7 4.3 1.1 5.9-1.7.2-3.2 1.6-3.9 2.9-.7-.2-1.5-.5-2.2-.8"/><path fill-rule="evenodd" clip-rule="evenodd" fill="#70513B" d="M135.9 223.5c7.6-5.3-1.5-22-13.5-23.1 16-2.7 23.9 14.4 15.9 22.8-.3.2-.9 1.5.5 6.8"/></svg>