<svg version="1.1" id="Layer_3" xmlns="http://www.w3.org/2000/svg" x="0" y="0" width="150" height="250" viewBox="0 0 150 250" xml:space="preserve"><g><path fill-rule="evenodd" clip-rule="evenodd" fill="#4F392A" d="M24.7 84.1c-4.3 0-7.9-1-9.5-2.8-1.2-1.4-2.3-6.2-2.8-10.2-.9-1.5-1.5-4.7-1.1-8.1 0-.2-.1-.3-.1-.4l-1.4-.2 1.2-1.3.9-.9c.9-2.7 2.3-4.6 4.4-6.1 2.5-1.7 5.4-2.7 8.3-2.7 2.6 0 5.3.8 7.8 2.2 2.7 1.6 4.5 3.8 5.4 6.5.4.3.7.6.9.9l1.2 1.3-1.3.2c0 .1-.1.2-.1.4.4 3.4-.2 6.6-1.1 8.1-.5 3.9-1.5 8.9-2.8 10.2-2.1 2.2-6.5 2.9-9.9 2.9z"/><g><path fill="#4F392A" d="M24.6 52.4c2.5 0 4.9.7 7.3 2.1 2.6 1.6 4.3 3.8 5.1 6.3.4.3.7.6 1 1-.2 0-.4.5-.5 1.3.5 3.4-.2 6.5-1 7.8-.6 4.9-1.7 8.9-2.6 9.8-1.6 1.6-5.4 2.5-9.2 2.5-3.6 0-7.2-.8-8.7-2.5-.9-.9-2-5-2.6-9.8-.8-1.3-1.5-4.4-1-7.8-.2-.8-.3-1.3-.5-1.3l1-1c.7-2.3 1.9-4.3 4.1-5.9 2.3-1.7 5-2.5 7.6-2.5m0-2c-3.1 0-6.2 1-8.8 2.8-2.2 1.6-3.7 3.6-4.7 6.3-.3.3-.6.5-.8.8L7.9 63l2.3.4c-.3 3 .2 6.1 1.2 8 .5 4 1.6 8.9 3 10.5 2.5 2.8 8 3.1 10.2 3.1 1.8 0 7.8-.2 10.6-3 1.8-1.8 2.8-8.1 3.1-10.6 1-1.9 1.5-5 1.2-8l2.3-.4-2.4-2.7c-.2-.3-.5-.6-.8-.8-1-2.8-3-5.1-5.8-6.8-2.5-1.5-5.3-2.3-8.2-2.3z"/></g></g><g><path fill-rule="evenodd" clip-rule="evenodd" fill="#4F392A" d="M74.7 84.1c-4.3 0-7.9-1-9.5-2.8-1.2-1.4-2.3-6.2-2.8-10.2-.9-1.5-1.5-4.7-1.1-8.1 0-.2-.1-.3-.1-.4l-1.3-.2 1.2-1.3.9-.9c.9-2.7 2.3-4.6 4.4-6.1 2.5-1.7 5.4-2.7 8.3-2.7 2.6 0 5.3.8 7.8 2.2 2.7 1.6 4.5 3.8 5.4 6.5.4.3.7.6.9.9l1.2 1.3-1.3.2c0 .1-.1.2-.1.4.4 3.4-.2 6.6-1.1 8.1-.5 3.9-1.5 8.9-2.8 10.2-2.2 2.2-6.6 2.9-10 2.9z"/><g><path fill="#4F392A" d="M74.6 52.4c2.5 0 4.9.7 7.3 2.1 2.6 1.6 4.3 3.8 5.1 6.3.4.3.7.6 1 1-.2 0-.4.5-.5 1.3.5 3.4-.2 6.5-1 7.8-.6 4.9-1.7 8.9-2.6 9.8-1.6 1.6-5.4 2.5-9.2 2.5-3.6 0-7.2-.8-8.7-2.5-.9-.9-2-5-2.6-9.8-.8-1.3-1.5-4.4-1-7.8-.2-.8-.3-1.3-.5-1.3l1-1c.7-2.3 1.8-4.3 4.1-5.9 2.3-1.7 5-2.5 7.6-2.5m0-2c-3.1 0-6.2 1-8.8 2.8-2.2 1.6-3.7 3.6-4.7 6.3-.3.3-.6.5-.8.8L57.9 63l2.3.4c-.3 3 .2 6.1 1.2 8 .5 3.9 1.6 8.9 3 10.5 2.5 2.8 8 3.1 10.2 3.1 1.8 0 7.8-.2 10.6-3 1.8-1.8 2.8-8.1 3.1-10.6 1-1.9 1.5-5 1.2-8l2.3-.4-2.4-2.7c-.3-.3-.5-.6-.8-.8-1-2.8-3-5.1-5.8-6.8-2.5-1.5-5.3-2.3-8.2-2.3z"/></g></g><g><path fill-rule="evenodd" clip-rule="evenodd" fill="#4F392A" d="M124.7 84.1c-4.3 0-7.9-1-9.5-2.8-1.2-1.4-2.3-6.2-2.8-10.2-.9-1.5-1.5-4.7-1.1-8.1 0-.2-.1-.3-.1-.4l-1.4-.2 1.2-1.3.9-.9c.9-2.7 2.3-4.6 4.4-6.1 2.5-1.7 5.4-2.7 8.3-2.7 2.6 0 5.3.8 7.8 2.2 2.7 1.6 4.5 3.8 5.4 6.5.4.3.7.6.9.9l1.2 1.3-1.4.2c0 .1-.1.2-.1.4.4 3.4-.2 6.6-1.1 8.1-.5 3.9-1.5 8.9-2.8 10.2-2 2.2-6.4 2.9-9.8 2.9z"/><g><path fill="#4F392A" d="M124.6 52.4c2.5 0 4.9.7 7.3 2.1 2.6 1.6 4.3 3.8 5.1 6.3.4.3.7.6 1 1-.2 0-.4.5-.5 1.3.5 3.4-.2 6.5-1 7.8-.6 4.9-1.7 8.9-2.6 9.8-1.6 1.6-5.4 2.5-9.2 2.5-3.6 0-7.2-.8-8.7-2.5-.9-.9-2-5-2.6-9.8-.8-1.3-1.5-4.4-1-7.8-.2-.8-.3-1.3-.5-1.3l1-1c.7-2.3 1.9-4.3 4.1-5.9 2.3-1.7 5-2.5 7.6-2.5m0-2c-3.1 0-6.2 1-8.8 2.8-2.2 1.6-3.7 3.6-4.7 6.3-.3.3-.6.5-.8.8l-2.4 2.7 2.3.4c-.3 3 .2 6.1 1.2 8 .5 4 1.6 8.9 3 10.5 2.5 2.8 8 3.1 10.2 3.1 1.8 0 7.8-.2 10.6-3 1.8-1.8 2.8-8.1 3.1-10.6 1-1.9 1.5-5 1.2-8l2.3-.4-2.4-2.7c-.2-.3-.5-.6-.8-.8-1-2.8-3-5.1-5.8-6.8-2.5-1.5-5.3-2.3-8.2-2.3z"/></g></g><path fill-rule="evenodd" clip-rule="evenodd" fill="#4F392A" d="M38.2 9.7v.1l.3.3s2.2 2.4 2.4 2.6l-1.9.4v.7c.3 4.1-.6 14.1-2 18.1-.9-.6-2.6-4-3.2-5.1 1.1-1 1.7-2.1 1.7-3.4l-1.4.5c.2-2.4.5-3.6-.3-5.9.7-2.2 1-4 .3-6.3-3.4.5-6.7-.3-9.3-2.4-2.7 2.1-6 3-9.3 2.4-.6 2.2-.4 4.1.4 6.3-.8 2.3-.5 3.6-.3 5.9l-1.4-.6c-.1 2.6 2.3 4.3 4.5 5.2v1l-1.4-.8c-.7-.4-1.5-.2-1.9.5l-1.9 3.2-.6-.6c-.9-1-2.5-14.5-2-18.6L9 12.8c.8-1 1.7-2 2.6-2.9C13.5 4.4 18.9.3 24.5.1 30.7-.1 36 3.9 38.2 9.7z"/><path fill-rule="evenodd" clip-rule="evenodd" fill="#70513B" d="M37.3 10.8s1.2.9 1.5 1.2l-.8 2c.3 4.3.5 11-.9 15.7H37c.7-5-1-16-1-16-2.2-7.4-7.7-10.8-15.4-12.3 6.7-1.3 14.6 2.5 16.7 9.4z"/><path fill-rule="evenodd" clip-rule="evenodd" fill="#70513B" d="M37 60.3s2.1 1.6 2.3 1.9l-1.6 1.4c.3 4.3-1.4 8.2-3.4 17.5-.1 0 .2-15.5-.4-17.5 0 0-6.1-10-13.8-11.5 6.7-1.4 14.8 1.3 16.9 8.2z"/><g><path fill-rule="evenodd" clip-rule="evenodd" fill="#4F392A" d="M16.7 137.5c-1 0-1.7-1.1-2.5-3.1-4.4-11-4.7-20.7-.8-26.6 2.7-4 7.1-6.1 13.1-6.2h.4c6.4 0 9.9 3.4 9.9 5.1 0 .7-.5 1.2-1.2 1.2-.2 0-.3 0-.5-.1-.3-.1-.5-.1-.8-.1-2.9 0-6.7 5.1-7.9 6.8 0 .2.1 1 .1 1.6.1 1.1.3 2.1-.2 2.7-1.1 1.8-2.6 2.7-3.6 3.2l1.2 1.2 1.2 1-1.4.7c-.9.4-1.6.8-2.2 1.1-.8.4-1.4.6-1.7.9-.5.5-.9 3.7-1.1 5.4-.2 3.3-.4 5.2-2 5.2z"/><g><path fill="#4F392A" d="M27 102.6c7.1 0 9.7 4.4 8.7 4.4h-.2c-.4-.1-.7-.2-1.1-.2-3 0-6.1 3.6-8.7 7.2-.6.8.4 3.6-.1 4.3-1.7 2.7-4.3 3.1-4.3 3.3.6.9 1.3 1.7 2.1 2.4-2.1 1-3.3 1.5-4 2-1.8 1.1-1.3 10.6-2.6 10.6-.4 0-.9-.7-1.6-2.5-6.1-15.4-5-31.1 11.5-31.5h.3m0-2h-.4c-8 .2-12 3.7-14 6.7-4.1 6.2-3.8 16.2.7 27.5.8 2 1.6 3.8 3.4 3.8 2.4 0 2.7-2.6 3.1-6.3.2-1.4.4-4 .8-4.8.3-.2.8-.4 1.4-.7.6-.3 1.4-.6 2.3-1.1l2.8-1.4-2.4-2-.2-.2c.9-.6 2-1.5 2.8-2.9.6-1 .5-2.1.3-3.4 0-.3-.1-.8-.1-1.1 3.7-5 5.8-6.1 6.9-6.1.2 0 .3 0 .5.1.3.1.6.1.8.1 1.2 0 2.2-1 2.2-2.2 0-1.6-1.6-3.2-3.1-4.1-1.5-.8-4-1.9-7.8-1.9z"/></g></g><g><path fill-rule="evenodd" clip-rule="evenodd" fill="#4F392A" d="M66.7 137.5c-1 0-1.7-1.1-2.5-3.1-4.4-11-4.7-20.7-.8-26.6 2.7-4 7.1-6.1 13.1-6.2h.4c6.4 0 9.9 3.4 9.9 5.1 0 .7-.5 1.2-1.2 1.2-.2 0-.3 0-.5-.1-.3-.1-.5-.1-.8-.1-2.9 0-6.7 5.1-7.9 6.8 0 .2.1 1 .1 1.6.1 1.1.3 2.1-.2 2.7-1.1 1.8-2.6 2.7-3.6 3.2l1.2 1.2 1.2 1-1.4.7c-.9.4-1.6.8-2.2 1.1-.8.4-1.4.6-1.7.9-.5.5-.9 3.7-1.1 5.4-.2 3.3-.4 5.2-2 5.2z"/><g><path fill="#4F392A" d="M77 102.6c7.1 0 9.7 4.4 8.7 4.4h-.2c-.4-.1-.7-.2-1.1-.2-3 0-6.1 3.6-8.7 7.2-.6.8.4 3.6-.1 4.3-1.7 2.7-4.3 3.1-4.3 3.3.6.9 1.3 1.7 2.1 2.4-2.1 1-3.3 1.5-4 2-1.8 1.1-1.3 10.6-2.6 10.6-.4 0-.9-.7-1.6-2.5-6.1-15.4-5-31.1 11.5-31.5h.3m0-2h-.4c-8 .2-12 3.7-14 6.7-4.1 6.2-3.8 16.2.7 27.5.8 2 1.6 3.8 3.4 3.8 2.4 0 2.7-2.6 3.1-6.3.2-1.4.4-4 .8-4.8.3-.2.8-.4 1.4-.7.6-.3 1.4-.6 2.2-1.1l2.8-1.4-2.4-2-.2-.2c.9-.6 2-1.5 2.8-2.9.6-1 .5-2.1.3-3.4 0-.3-.1-.8-.1-1.1 3-4 5.3-6.1 6.9-6.1.2 0 .3 0 .5.1.3.1.6.1.8.1 1.2 0 2.2-1 2.2-2.2 0-1.6-1.6-3.2-3.1-4.1-1.4-.8-3.9-1.9-7.7-1.9z"/></g></g><g><path fill-rule="evenodd" clip-rule="evenodd" fill="#4F392A" d="M116.7 137.5c-1 0-1.7-1.1-2.5-3.1-4.4-11-4.7-20.7-.8-26.6 2.7-4 7.1-6.1 13.1-6.2h.4c6.4 0 9.9 3.4 9.9 5.1 0 .7-.5 1.2-1.2 1.2-.2 0-.3 0-.5-.1-.3-.1-.5-.1-.8-.1-2.9 0-6.7 5.1-7.9 6.8 0 .2.1 1 .1 1.5.1 1.1.3 2.1-.2 2.7-1.1 1.8-2.6 2.7-3.6 3.2l1.2 1.2 1.2 1-1.4.7c-.9.4-1.6.8-2.2 1.1-.8.4-1.4.6-1.7.9-.5.5-.9 3.7-1.1 5.4-.2 3.4-.4 5.3-2 5.3z"/><g><path fill="#4F392A" d="M127 102.6c7.1 0 9.7 4.4 8.7 4.4h-.2c-.4-.1-.7-.2-1.1-.2-3 0-6.1 3.6-8.7 7.2-.6.8.4 3.6-.1 4.3-1.7 2.7-4.3 3.1-4.3 3.3.6.9 1.3 1.7 2.1 2.4-2.1 1-3.3 1.5-4 2-1.8 1.1-1.3 10.6-2.6 10.6-.4 0-.9-.7-1.6-2.5-6.1-15.4-5-31.1 11.5-31.5h.3m0-2h-.4c-8 .2-12 3.7-14 6.7-4.1 6.2-3.8 16.2.7 27.5.8 2 1.6 3.8 3.4 3.8 2.4 0 2.7-2.6 3.1-6.3.2-1.4.4-4 .8-4.8.3-.2.8-.4 1.5-.7.6-.3 1.4-.6 2.2-1.1l2.8-1.4-2.4-2-.2-.2c.9-.6 2-1.5 2.8-2.9.6-1 .5-2.1.3-3.4 0-.3-.1-.8-.1-1.1 3-4 5.3-6.1 6.9-6.1.2 0 .3 0 .5.1.3.1.6.1.8.1 1.2 0 2.2-1 2.2-2.2 0-1.6-1.6-3.2-3.1-4.1-1.5-.8-4-1.9-7.8-1.9z"/></g></g><path fill-rule="evenodd" clip-rule="evenodd" fill="#70513B" d="M23.8 123.3c-5.8-4.1 1.9-17.8 6.4-16.4 1.4.4-1.3-2.8-6.4-3.9 10.3-2.1 14.3 4.5 12.7 3.9-3.3-1.1-6.9 3-9.8 7-.6.8.4 3.6-.1 4.3-2.4 4-4.3 1-2.8 5.1z"/><path fill-rule="evenodd" clip-rule="evenodd" fill="#70513B" d="M73.8 123.3c-5.8-4.1 1.9-17.8 6.4-16.4 1.4.4-1.3-2.8-6.4-3.9 10.3-2.1 14.3 4.5 12.7 3.9-3.3-1.1-6.9 3-9.8 7-.6.8.4 3.6-.1 4.3-2.4 4-4.3 1-2.8 5.1z"/><path fill-rule="evenodd" clip-rule="evenodd" fill="#70513B" d="M123.8 123.3c-5.8-4.1 1.9-17.8 6.4-16.4 1.4.4-1.3-2.8-6.4-3.9 10.3-2.1 14.3 4.5 12.7 3.9-3.3-1.1-6.9 3-9.8 7-.6.8.4 3.6-.1 4.3-2.4 4-4.3 1-2.8 5.1z"/><g><path fill-rule="evenodd" clip-rule="evenodd" fill="#4F392A" d="M33.2 187.5c-1.5 0-1.7-1.9-2.1-5.4-.2-1.7-.5-4.9-1.1-5.4-.4-.2-.9-.5-1.7-.8-.6-.3-1.4-.6-2.3-1.1l-1.4-.7 1.2-1 1.2-1.2c-1-.5-2.5-1.4-3.6-3.2-.4-.7-.3-1.6-.2-2.7.1-.5.2-1.4.1-1.6-1.2-1.6-4.9-6.7-7.8-6.7-.3 0-.5 0-.8.1-.2.1-.4.1-.5.1-.7 0-1.2-.5-1.2-1.2 0-1 1-2.2 2.6-3.3 1.4-.9 3.7-1.9 7.3-1.9h.4c6.1.1 10.5 2.2 13.1 6.2 3.9 5.9 3.6 15.6-.8 26.6-.7 2.1-1.3 3.2-2.4 3.2z"/><g><path fill="#4F392A" d="M22.9 152.6h.4c16.4.3 17.6 16 11.5 31.4-.7 1.8-1.2 2.5-1.6 2.5-1.3 0-.9-9.5-2.6-10.6-.7-.5-2-1-4-2 .8-.7 1.5-1.5 2.1-2.4 0-.2-2.6-.6-4.3-3.3-.5-.8.5-3.6-.1-4.3-2.6-3.6-5.7-7.2-8.7-7.2-.4 0-.7.1-1.1.2h-.2c-1.1 0 1.6-4.3 8.6-4.3m0-2c-6.1 0-9.4 2.9-10.4 4.6-.7 1.3-.4 2.2-.2 2.7.4.7 1.1 1.1 1.9 1.1.3 0 .6 0 .8-.1.1 0 .3-.1.5-.1 1.1 0 3.2 1.1 6.9 6.1 0 .3-.1.8-.1 1.1-.2 1.2-.3 2.4.3 3.4.9 1.4 1.9 2.3 2.8 2.9l-.2.2-2.4 2 2.8 1.4c.9.5 1.7.8 2.3 1.1.6.3 1.1.5 1.4.7.4.8.6 3.4.8 4.8.4 3.6.7 6.3 3.1 6.3 1.8 0 2.6-1.8 3.4-3.8 4.5-11.3 4.8-21.3.7-27.5-2-3-6-6.5-14-6.7-.1-.2-.2-.2-.4-.2z"/></g></g><g><path fill-rule="evenodd" clip-rule="evenodd" fill="#4F392A" d="M83.2 187.5c-1.5 0-1.7-1.9-2.1-5.4-.2-1.7-.5-4.9-1.1-5.4-.4-.2-.9-.5-1.7-.8-.6-.3-1.4-.6-2.3-1.1l-1.4-.7 1.2-1 1.2-1.2c-1-.5-2.5-1.4-3.6-3.2-.4-.7-.3-1.6-.2-2.7.1-.5.2-1.4.1-1.6-1.2-1.6-4.9-6.7-7.8-6.7-.3 0-.5 0-.8.1-.2.1-.4.1-.5.1-.7 0-1.2-.5-1.2-1.2 0-1 1-2.2 2.6-3.3 1.4-.9 3.7-1.9 7.3-1.9h.4c6.1.1 10.5 2.2 13.1 6.2 3.9 5.9 3.6 15.6-.8 26.6-.7 2.1-1.3 3.2-2.4 3.2z"/><g><path fill="#4F392A" d="M72.9 152.6h.4c16.4.3 17.6 16 11.5 31.4-.7 1.8-1.2 2.5-1.6 2.5-1.3 0-.9-9.5-2.6-10.6-.8-.5-2-1-4-2 .8-.7 1.5-1.5 2.1-2.4 0-.2-2.6-.6-4.3-3.3-.5-.8.5-3.6-.1-4.3-2.6-3.6-5.7-7.2-8.7-7.2-.4 0-.7.1-1.1.2h-.2c-1.1 0 1.6-4.3 8.6-4.3m0-2c-6.1 0-9.4 2.9-10.4 4.6-.7 1.3-.4 2.2-.2 2.7.4.7 1.1 1.1 1.9 1.1.3 0 .6 0 .8-.1.1 0 .3-.1.5-.1 1.1 0 3.2 1.1 6.9 6.1 0 .3-.1.8-.1 1.1-.2 1.2-.3 2.4.3 3.4.9 1.4 1.9 2.3 2.8 2.9l-.2.2-2.4 2 2.8 1.4c.9.5 1.7.8 2.3 1.1.6.3 1.1.5 1.4.7.4.8.6 3.4.8 4.8.4 3.6.7 6.3 3.1 6.3 1.8 0 2.6-1.8 3.4-3.8 4.5-11.3 4.8-21.3.7-27.5-2-3-6-6.5-14-6.7-.1-.2-.2-.2-.4-.2z"/></g></g><g><path fill-rule="evenodd" clip-rule="evenodd" fill="#4F392A" d="M133.2 187.5c-1.5 0-1.7-1.9-2.1-5.4-.2-1.7-.5-4.9-1.1-5.4-.4-.2-.9-.5-1.7-.8-.6-.3-1.4-.6-2.3-1.1l-1.4-.7 1.2-1 1.2-1.2c-1-.5-2.5-1.4-3.6-3.2-.4-.7-.3-1.6-.2-2.7.1-.5.2-1.4.1-1.6-1.2-1.6-4.9-6.7-7.8-6.7-.3 0-.5 0-.8.1-.2.1-.4.1-.5.1-.7 0-1.2-.5-1.2-1.2 0-1 1-2.2 2.6-3.3 1.4-.9 3.7-1.9 7.3-1.9h.4c6 .1 10.5 2.2 13.1 6.2 3.9 5.9 3.6 15.6-.8 26.6-.7 2.1-1.3 3.2-2.4 3.2z"/><g><path fill="#4F392A" d="M122.9 152.6h.4c16.4.3 17.6 16 11.5 31.4-.7 1.8-1.2 2.5-1.6 2.5-1.3 0-.9-9.5-2.6-10.6-.8-.5-2-1-4-2 .8-.7 1.5-1.5 2.1-2.4 0-.2-2.6-.6-4.3-3.3-.5-.8.5-3.6-.1-4.3-2.6-3.6-5.7-7.2-8.7-7.2-.4 0-.7.1-1.1.2h-.2c-1.1 0 1.6-4.3 8.6-4.3m0-2c-6.1 0-9.4 2.9-10.4 4.6-.7 1.3-.4 2.2-.2 2.7.4.7 1.1 1.1 1.9 1.1.3 0 .6 0 .8-.1.1 0 .3-.1.5-.1 1.6 0 3.9 2 6.9 6.1 0 .3-.1.8-.1 1.1-.2 1.2-.3 2.4.3 3.4.9 1.4 1.9 2.3 2.8 2.9l-.2.2-2.4 2 2.8 1.4c.9.5 1.7.8 2.3 1.1.6.3 1.1.5 1.4.7.4.8.6 3.4.8 4.8.4 3.6.7 6.3 3.1 6.3 1.8 0 2.6-1.8 3.4-3.8 4.5-11.3 4.8-21.3.7-27.5-2-3-6-6.5-14-6.7-.1-.2-.2-.2-.4-.2z"/></g></g><path fill-rule="evenodd" clip-rule="evenodd" fill="#70513B" d="M38.4 175.2c2.5-12.1-.8-22.4-14.1-22.7-1.2 0-2.3-.9-3.2-.7 11.2 1.7 16.5 12.3 17.3 23.4z"/><path fill-rule="evenodd" clip-rule="evenodd" fill="#70513B" d="M88.9 175.2c2.5-12.1-.9-22.4-14.1-22.7-1.2 0-2.3.1-3.2.3 11.2 1.7 16.5 11.3 17.3 22.4z"/><path fill-rule="evenodd" clip-rule="evenodd" fill="#70513B" d="M138.4 175.2c2.5-12.1-.9-22.4-14.1-22.7-1.2 0-2.3.1-3.2.3 11.2 1.7 16.5 11.3 17.3 22.4z"/><path fill-rule="evenodd" clip-rule="evenodd" fill="#4F392A" d="M88.2 9.7v.1l.3.3s2.2 2.4 2.4 2.6l-1.9.4v.7c.3 4.1-.6 14.1-2 18.1-.9-.6-2.6-4-3.2-5.1 1.1-1 1.7-2.1 1.7-3.4l-1.4.5c.2-2.4.5-3.6-.3-5.9.7-2.2 1-4 .3-6.3-3.4.5-6.7-.3-9.3-2.4-2.7 2.1-6 3-9.3 2.4-.6 2.2-.4 4.1.4 6.3-.8 2.3-.5 3.6-.3 5.9l-1.4-.6c-.1 2.6 2.3 4.3 4.5 5.2v1l-1.4-.8c-.7-.4-1.5-.2-1.9.5l-1.9 3.2-.6-.6c-.9-1-2.5-14.5-2-18.6l-1.9-.4c.8-1 1.7-2 2.6-2.9C63.5 4.4 68.9.3 74.5.1 80.7-.1 86 3.9 88.2 9.7z"/><path fill-rule="evenodd" clip-rule="evenodd" fill="#4F392A" d="M138.2 9.7v.1l.3.3s2.2 2.4 2.4 2.6l-1.9.3v.7c.3 4.1-.6 14.1-2 18.1-.9-.6-2.6-4-3.2-5.1 1.1-1 1.7-2.1 1.7-3.4l-1.4.5c.2-2.4.5-3.6-.3-5.9.7-2.2 1-4 .3-6.3-3.4.5-6.7-.3-9.3-2.4-2.7 2.1-6 3-9.3 2.4-.6 2.2-.4 4.1.3 6.3-.8 2.3-.5 3.6-.3 5.9l-1.4-.6c-.1 2.6 2.3 4.3 4.5 5.2v1l-1.4-.8c-.7-.4-1.5-.2-1.9.5l-1.9 3.2-.6-.6c-.9-1-2.5-14.5-2-18.6l-1.9-.4c.8-1 1.7-2 2.6-2.9 1.9-5.5 7.3-9.6 12.9-9.8 6.3-.1 11.6 3.9 13.8 9.7z"/><path fill-rule="evenodd" clip-rule="evenodd" fill="#70513B" d="M87 60.3s2.1 1.6 2.3 1.9l-1.6 1.4c.3 4.3-1.4 8.2-3.4 17.5-.1 0 .2-15.5-.4-17.5 0 0-6.1-10-13.8-11.5 6.7-1.4 14.8 1.3 16.9 8.2z"/><path fill-rule="evenodd" clip-rule="evenodd" fill="#70513B" d="M137.7 60.3s2.1 1.6 2.3 1.9l-1.6 1.4c.3 4.3-1.4 8.2-3.4 17.5-.1 0 .2-15.5-.4-17.5 0 0-6.1-10-13.8-11.5 6.7-1.4 14.7 1.3 16.9 8.2z"/><path fill-rule="evenodd" clip-rule="evenodd" fill="#70513B" d="M87.3 10.8s1.2.9 1.5 1.2l-.8 2c.3 4.3.5 11-.9 15.7H87c.7-5-1-16-1-16-2.2-7.4-7.7-10.8-15.4-12.3 6.7-1.3 14.6 2.5 16.7 9.4z"/><path fill-rule="evenodd" clip-rule="evenodd" fill="#70513B" d="M137.3 10.8s1.2.9 1.5 1.2l-.8 2c.3 4.3.5 11-.9 15.7h-.1c.7-5-1-16-1-16-2.3-7.4-7.8-10.8-15.4-12.3 6.7-1.3 14.6 2.5 16.7 9.4z"/><path fill-rule="evenodd" clip-rule="evenodd" fill="#4F392A" d="M38.2 209.7v.1l.3.3s2.2 2.4 2.4 2.6l-1.9.3v.7c.3 4.1-.6 14.1-2 18.1-.9-.6-2.6-4-3.2-5.1 1.1-1 1.7-2.1 1.7-3.4l-1.4.5c.2-2.4.5-3.6-.3-5.9.7-2.2 1-4 .3-6.3-3.4.5-6.7-.3-9.3-2.4-2.7 2.1-6 3-9.3 2.4-.6 2.2-.4 4.1.4 6.3-.8 2.3-.5 3.6-.3 5.9l-1.4-.6c-.1 2.6 2.3 4.3 4.5 5.2v1l-1.4-.8c-.7-.4-1.5-.2-1.9.5l-1.9 3.2-.6-.6c-.9-1-2.5-14.5-2-18.6l-1.9-.4c.8-1 1.7-2 2.6-2.9 1.9-5.5 7.3-9.6 12.9-9.8 6.2-.1 11.5 3.9 13.7 9.7z"/><path fill-rule="evenodd" clip-rule="evenodd" fill="#70513B" d="M37.3 210.8s1.2.9 1.5 1.2l-.8 2c.3 4.3.5 11-.9 15.7H37c.7-4.9-1-16-1-16-2.3-7.4-7.8-10.8-15.4-12.3 6.7-1.3 14.6 2.5 16.7 9.4z"/><path fill-rule="evenodd" clip-rule="evenodd" fill="#4F392A" d="M88.2 209.7v.1l.3.3s2.2 2.4 2.4 2.6l-1.9.3v.7c.3 4.1-.6 14.1-2 18.1-.9-.6-2.6-4-3.2-5.1 1.1-1 1.7-2.1 1.7-3.4l-1.4.5c.2-2.4.5-3.6-.3-5.9.7-2.2 1-4 .3-6.3-3.4.5-6.7-.3-9.3-2.4-2.7 2.1-6 3-9.3 2.4-.6 2.2-.4 4.1.4 6.3-.8 2.3-.5 3.6-.3 5.9l-1.4-.6c-.1 2.6 2.3 4.3 4.5 5.2v1l-1.4-.8c-.7-.4-1.5-.2-1.9.5l-1.9 3.2-.6-.6c-.9-1-2.5-14.5-2-18.6l-1.9-.4c.8-1 1.7-2 2.6-2.9 1.9-5.5 7.3-9.6 12.9-9.8 6.2-.1 11.5 3.9 13.7 9.7z"/><path fill-rule="evenodd" clip-rule="evenodd" fill="#4F392A" d="M138.2 209.7v.1l.3.3s2.2 2.4 2.4 2.6l-1.9.3v.7c.3 4.1-.6 14.1-2 18.1-.9-.6-2.6-4-3.2-5.1 1.1-1 1.7-2.1 1.7-3.4l-1.4.5c.2-2.4.5-3.6-.3-5.9.7-2.2 1-4 .3-6.3-3.4.5-6.7-.3-9.3-2.4-2.7 2.1-6 3-9.3 2.4-.6 2.2-.4 4.1.3 6.3-.8 2.3-.5 3.6-.3 5.9l-1.4-.6c-.1 2.6 2.3 4.3 4.5 5.2v1l-1.4-.8c-.7-.4-1.5-.2-1.9.5l-1.9 3.2-.6-.6c-.9-1-2.5-14.5-2-18.6l-1.9-.4c.8-1 1.7-2 2.6-2.9 1.9-5.5 7.3-9.6 12.9-9.8 6.3-.1 11.6 3.9 13.8 9.7z"/><path fill-rule="evenodd" clip-rule="evenodd" fill="#70513B" d="M87.3 210.8s1.2.9 1.5 1.2l-.8 2c.3 4.3.5 11-.9 15.7H87c.7-4.9-1-16-1-16-2.3-7.4-7.8-10.8-15.4-12.3 6.7-1.3 14.6 2.5 16.7 9.4z"/><path fill-rule="evenodd" clip-rule="evenodd" fill="#70513B" d="M137.3 210.8s1.2.9 1.5 1.2l-.8 2c.3 4.3.5 11-.9 15.7h-.1c.7-4.9-1-16-1-16-2.3-7.4-7.8-10.8-15.4-12.3 6.7-1.3 14.6 2.5 16.7 9.4z"/></svg>