<svg version="1.1" id="Layer_3" xmlns="http://www.w3.org/2000/svg" x="0" y="0" width="150" height="250" viewBox="0 0 150 250" xml:space="preserve"><polygon fill-rule="evenodd" clip-rule="evenodd" fill="#4F392A" points="22,1.6 27.8,1.6 26.5,7.5 23.4,7.5 "/><polygon fill-rule="evenodd" clip-rule="evenodd" fill="#4F392A" points="22,201.5 27.8,201.5 26.5,207.5 23.4,207.5 "/><polygon fill-rule="evenodd" clip-rule="evenodd" fill="#4F392A" points="22,51.6 27.8,51.6 26.5,66.6 23.4,66.6 "/><polygon fill-rule="evenodd" clip-rule="evenodd" fill="#4F392A" points="72,51.6 77.8,51.6 76.5,66.6 73.4,66.6 "/><polygon fill-rule="evenodd" clip-rule="evenodd" fill="#4F392A" points="122,51.6 127.8,51.6 126.5,66.6 123.4,66.6 "/><polygon fill-rule="evenodd" clip-rule="evenodd" fill="#4F392A" points="72,1.6 77.8,1.6 76.5,7.5 73.4,7.5 "/><polygon fill-rule="evenodd" clip-rule="evenodd" fill="#4F392A" points="72,201.5 77.8,201.5 76.5,207.5 73.4,207.5 "/><polygon fill-rule="evenodd" clip-rule="evenodd" fill="#4F392A" points="122,1.6 127.8,1.6 126.5,7.5 123.4,7.5 "/><polygon fill-rule="evenodd" clip-rule="evenodd" fill="#4F392A" points="122,201.5 127.8,201.5 126.5,207.5 123.4,207.5 "/><path fill-rule="evenodd" clip-rule="evenodd" fill="#4F392A" d="M10.4 109.6c8.5-11.3 20.8-11.5 29.7 0l-3.2 3.3c-7.1-10-16.7-9.6-23.4-.5l-3.1-2.8z"/><path fill-rule="evenodd" clip-rule="evenodd" fill="#4F392A" d="M10.4 159.6c8.5-11.3 20.8-11.5 29.7 0l-3.2 3.3c-7.1-10-16.7-9.6-23.4-.5l-3.1-2.8z"/><path fill-rule="evenodd" clip-rule="evenodd" fill="#4F392A" d="M60.4 109.6c8.5-11.3 20.8-11.5 29.7 0l-3.2 3.3c-7.1-10-16.7-9.6-23.4-.5l-3.1-2.8z"/><path fill-rule="evenodd" clip-rule="evenodd" fill="#4F392A" d="M60.4 159.6c8.5-11.3 20.8-11.5 29.7 0l-3.2 3.3c-7.1-10-16.7-9.6-23.4-.5l-3.1-2.8z"/><path fill-rule="evenodd" clip-rule="evenodd" fill="#4F392A" d="M110.4 109.6c8.5-11.3 20.8-11.5 29.7 0l-3.2 3.3c-7.1-10-16.7-9.6-23.4-.5l-3.1-2.8z"/><path fill-rule="evenodd" clip-rule="evenodd" fill="#4F392A" d="M110.4 159.6c8.5-11.3 20.8-11.5 29.7 0l-3.2 3.3c-7.1-10-16.7-9.6-23.4-.5l-3.1-2.8z"/></svg>