<svg version="1.1" id="Layer_3" xmlns="http://www.w3.org/2000/svg" x="0" y="0" width="150" height="250" viewBox="0 0 150 250" xml:space="preserve"><g><path fill-rule="evenodd" clip-rule="evenodd" fill="#888" d="M116.5 131.9c-1.6-.4-3.4-.9-6.3-1.7l-1-.3.5-1.5c1.3-4 2.6-8.2 2.5-12.2v-1h6.7v1c.1 4.3-.3 9-1.1 14.8l-.2 1.1-1.1-.2z"/><g><path fill="#484848" d="M117.9 116.2c.1 4.9-.4 9.8-1.1 14.7-1.7-.4-3.8-1-6.2-1.7 1.3-4.2 2.8-8.7 2.7-13h4.6m1.9-2h-8.7l.1 2.1c.1 3.9-1.2 7.9-2.4 11.9l-.2.5-.6 2 2 .6c2.8.8 4.7 1.3 6.3 1.7l2.2.5.3-2.2c.8-5.9 1.2-10.7 1.1-15l-.1-2.1z"/></g></g><path fill-rule="evenodd" clip-rule="evenodd" fill="#484848" d="M11.8 21.2c.3 1.3.8 2.6 1.4 3.8-1.2 2.6-.3 5.1 1.8 6.9-2-.5-3.9-1.1-5.8-1.6 1-3 2-6.1 2.6-9.1zm26.2 0c.6 3.1 1.7 6.2 2.6 9.2-1.9.4-3.7.9-5.6 1.3 1.9-1.8 2.7-4.3 1.6-6.7.7-1.2 1.1-2.5 1.4-3.8z"/><path fill-rule="evenodd" clip-rule="evenodd" fill="#484848" d="M11.8 221.2c.3 1.3.8 2.6 1.4 3.8-1.2 2.6-.3 5.1 1.8 6.9-2-.5-3.9-1.1-5.8-1.6 1-3 2-6.1 2.6-9.1zm26.2 0c.6 3.1 1.7 6.2 2.6 9.2-1.9.4-3.7.9-5.6 1.3 1.9-1.8 2.7-4.3 1.6-6.7.7-1.2 1.1-2.5 1.4-3.8z"/><path fill-rule="evenodd" clip-rule="evenodd" fill="#484848" d="M61.8 21.2c.3 1.3.8 2.6 1.4 3.8-1.2 2.6-.3 5.1 1.8 6.9-2-.5-3.9-1.1-5.8-1.6 1-3 2-6.1 2.6-9.1zm26.2 0c.6 3.1 1.7 6.2 2.6 9.2-1.9.4-3.7.9-5.6 1.3 1.9-1.8 2.7-4.3 1.6-6.7.7-1.2 1.1-2.5 1.4-3.8z"/><path fill-rule="evenodd" clip-rule="evenodd" fill="#484848" d="M61.8 221.2c.3 1.3.8 2.6 1.4 3.8-1.2 2.6-.3 5.1 1.8 6.9-2-.5-3.9-1.1-5.8-1.6 1-3 2-6.1 2.6-9.1zm26.2 0c.6 3.1 1.7 6.2 2.6 9.2-1.9.4-3.7.9-5.6 1.3 1.9-1.8 2.7-4.3 1.6-6.7.7-1.2 1.1-2.5 1.4-3.8z"/><path fill-rule="evenodd" clip-rule="evenodd" fill="#484848" d="M111.8 21.2c.3 1.3.8 2.6 1.4 3.8-1.2 2.6-.3 5.1 1.8 6.9-1.9-.5-3.9-1.1-5.8-1.6 1-3 2-6.1 2.6-9.1zm26.2 0c.6 3.1 1.7 6.2 2.6 9.2-1.9.4-3.7.9-5.6 1.3 1.9-1.8 2.7-4.3 1.6-6.7.7-1.2 1.1-2.5 1.4-3.8z"/><path fill-rule="evenodd" clip-rule="evenodd" fill="#484848" d="M111.8 221.2c.3 1.3.8 2.6 1.4 3.8-1.2 2.6-.3 5.1 1.8 6.9-1.9-.5-3.9-1.1-5.8-1.6 1-3 2-6.1 2.6-9.1zm26.2 0c.6 3.1 1.7 6.2 2.6 9.2-1.9.4-3.7.9-5.6 1.3 1.9-1.8 2.7-4.3 1.6-6.7.7-1.2 1.1-2.5 1.4-3.8z"/><path fill-rule="evenodd" clip-rule="evenodd" fill="#BBB" d="M11.1 29.2c.5-1.7 1.1-3.5 1.6-5.3.2.4.3.7.5 1-.8 1.6-.7 3.3.2 4.9l-2.3-.6zm26-5.3c.5 1.8 1 3.6 1.6 5.3-.8.2-1.5.4-2.2.5.8-1.5.8-3.3.1-4.8.2-.3.3-.6.5-1z"/><path fill-rule="evenodd" clip-rule="evenodd" fill="#BBB" d="M11.1 229.2c.5-1.7 1.1-3.5 1.6-5.3.2.4.3.7.5 1-.8 1.6-.7 3.3.2 4.9l-2.3-.6zm26-5.3c.5 1.8 1 3.6 1.6 5.3-.8.2-1.5.4-2.2.5.8-1.5.8-3.3.1-4.8.2-.3.3-.6.5-1z"/><path fill-rule="evenodd" clip-rule="evenodd" fill="#BBB" d="M61.2 29.2c.5-1.7 1.1-3.5 1.6-5.3.2.4.3.7.5 1-.8 1.6-.7 3.3.2 4.9l-2.3-.6zm25.9-5.3c.5 1.8 1 3.6 1.6 5.3-.8.2-1.5.4-2.2.5.8-1.5.8-3.3.1-4.8.2-.3.4-.6.5-1z"/><path fill-rule="evenodd" clip-rule="evenodd" fill="#BBB" d="M61.2 229.2c.5-1.7 1.1-3.5 1.6-5.3.2.4.3.7.5 1-.8 1.6-.7 3.3.2 4.9l-2.3-.6zm25.9-5.3c.5 1.8 1 3.6 1.6 5.3-.8.2-1.5.4-2.2.5.8-1.5.8-3.3.1-4.8.2-.3.4-.6.5-1z"/><path fill-rule="evenodd" clip-rule="evenodd" fill="#BBB" d="M111.2 29.2c.5-1.7 1.1-3.5 1.6-5.3.2.4.3.7.5 1-.8 1.6-.7 3.3.2 4.9l-2.3-.6zm25.9-5.3c.5 1.8 1 3.6 1.6 5.3-.8.2-1.5.4-2.2.5.8-1.5.8-3.3.1-4.8.2-.3.4-.6.5-1z"/><path fill-rule="evenodd" clip-rule="evenodd" fill="#BBB" d="M111.2 229.2c.5-1.7 1.1-3.5 1.6-5.3.2.4.3.7.5 1-.8 1.6-.7 3.3.2 4.9l-2.3-.6zm25.9-5.3c.5 1.8 1 3.6 1.6 5.3-.8.2-1.5.4-2.2.5.8-1.5.8-3.3.1-4.8.2-.3.4-.6.5-1z"/><g><path fill-rule="evenodd" clip-rule="evenodd" fill="#BBB" d="M11 12.4l.5-1.4c2.2-5.7 7.4-9.3 13.4-9.3S36.1 5.2 38.3 11l.5 1.4H11z"/><g><path fill="#484848" d="M24.9 2.8c5.1 0 10.3 2.9 12.5 8.6h-25c2.3-5.7 7.4-8.6 12.5-8.6m0-2c-6.5 0-12 3.8-14.4 9.9l-1.1 2.7h30.8l-1.1-2.7C36.9 4.6 31.4.8 24.9.8z"/></g></g><g><path fill-rule="evenodd" clip-rule="evenodd" fill="#BBB" d="M11 212.4l.5-1.4c2.2-5.7 7.4-9.3 13.4-9.3s11.2 3.5 13.4 9.3l.5 1.4H11z"/><g><path fill="#484848" d="M24.9 202.8c5.1 0 10.3 2.9 12.5 8.6h-25c2.3-5.7 7.4-8.6 12.5-8.6m0-2c-6.5 0-12 3.8-14.4 9.9l-1.1 2.7h30.8l-1.1-2.7c-2.2-6.1-7.7-9.9-14.2-9.9z"/></g></g><g><path fill-rule="evenodd" clip-rule="evenodd" fill="#BBB" d="M61 12.4l.5-1.4c2.2-5.7 7.4-9.3 13.4-9.3 6.1 0 11.2 3.5 13.4 9.3l.5 1.4H61z"/><g><path fill="#484848" d="M74.9 2.8c5.1 0 10.3 2.9 12.5 8.6h-25c2.3-5.7 7.4-8.6 12.5-8.6m0-2c-6.5 0-12 3.8-14.4 9.9l-1.1 2.7h30.8l-1.1-2.7C86.9 4.6 81.4.8 74.9.8z"/></g></g><g><path fill-rule="evenodd" clip-rule="evenodd" fill="#BBB" d="M61 212.4l.5-1.4c2.2-5.7 7.4-9.3 13.4-9.3 6.1 0 11.2 3.5 13.4 9.3l.5 1.4H61z"/><g><path fill="#484848" d="M74.9 202.8c5.1 0 10.3 2.9 12.5 8.6h-25c2.3-5.7 7.4-8.6 12.5-8.6m0-2c-6.5 0-12 3.8-14.4 9.9l-1.1 2.7h30.8l-1.1-2.7c-2.2-6.1-7.7-9.9-14.2-9.9z"/></g></g><g><path fill-rule="evenodd" clip-rule="evenodd" fill="#BBB" d="M111 12.4l.5-1.4c2.2-5.7 7.4-9.3 13.4-9.3 6.1 0 11.2 3.5 13.4 9.3l.5 1.4H111z"/><g><path fill="#484848" d="M124.9 2.8c5.1 0 10.3 2.9 12.5 8.6h-25c2.3-5.7 7.4-8.6 12.5-8.6m0-2c-6.5 0-12 3.8-14.4 9.9l-1.1 2.7h30.8l-1.1-2.7c-2.2-6.1-7.7-9.9-14.2-9.9z"/></g></g><g><path fill-rule="evenodd" clip-rule="evenodd" fill="#BBB" d="M111 212.4l.5-1.4c2.2-5.7 7.4-9.3 13.4-9.3 6.1 0 11.2 3.5 13.4 9.3l.5 1.4H111z"/><g><path fill="#484848" d="M124.9 202.8c5.1 0 10.3 2.9 12.5 8.6h-25c2.3-5.7 7.4-8.6 12.5-8.6m0-2c-6.5 0-12 3.8-14.4 9.9l-1.1 2.7h30.8l-1.1-2.7c-2.2-6.1-7.7-9.9-14.2-9.9z"/></g></g><path fill-rule="evenodd" clip-rule="evenodd" fill="#888" d="M24.9 2.7c2.3 0 4.2 3.6 5 8.7h-10c.8-5.1 2.8-8.7 5-8.7z"/><path fill-rule="evenodd" clip-rule="evenodd" fill="#888" d="M24.9 202.7c2.3 0 4.2 3.6 5 8.7h-10c.8-5.1 2.8-8.7 5-8.7z"/><path fill-rule="evenodd" clip-rule="evenodd" fill="#888" d="M74.9 2.7c2.3 0 4.2 3.6 5 8.7h-10c.8-5.1 2.8-8.7 5-8.7z"/><path fill-rule="evenodd" clip-rule="evenodd" fill="#888" d="M74.9 202.7c2.3 0 4.2 3.6 5 8.7h-10c.8-5.1 2.8-8.7 5-8.7z"/><path fill-rule="evenodd" clip-rule="evenodd" fill="#888" d="M124.9 2.7c2.3 0 4.2 3.6 5 8.7h-10c.8-5.1 2.8-8.7 5-8.7z"/><path fill-rule="evenodd" clip-rule="evenodd" fill="#888" d="M124.9 202.7c2.3 0 4.2 3.6 5 8.7h-10c.8-5.1 2.8-8.7 5-8.7z"/><g><rect x="10.7" y="11.8" fill-rule="evenodd" clip-rule="evenodd" fill="#888" width="28.5" height="5.4"/><g><path fill="#484848" d="M38.2 12.8v3.4H11.7v-3.4h26.5m2-2H9.7v7.4h30.5v-7.4z"/></g></g><g><rect x="10.7" y="211.8" fill-rule="evenodd" clip-rule="evenodd" fill="#888" width="28.5" height="5.4"/><g><path fill="#484848" d="M38.2 212.8v3.4H11.7v-3.4h26.5m2-2H9.7v7.4h30.5v-7.4z"/></g></g><g><rect x="60.7" y="11.8" fill-rule="evenodd" clip-rule="evenodd" fill="#888" width="28.5" height="5.4"/><g><path fill="#484848" d="M88.2 12.8v3.4H61.7v-3.4h26.5m2-2H59.7v7.4h30.5v-7.4z"/></g></g><g><rect x="60.7" y="211.8" fill-rule="evenodd" clip-rule="evenodd" fill="#888" width="28.5" height="5.4"/><g><path fill="#484848" d="M88.2 212.8v3.4H61.7v-3.4h26.5m2-2H59.7v7.4h30.5v-7.4z"/></g></g><g><rect x="110.7" y="11.8" fill-rule="evenodd" clip-rule="evenodd" fill="#888" width="28.5" height="5.4"/><g><path fill="#484848" d="M138.2 12.8v3.4h-26.5v-3.4h26.5m2-2h-30.5v7.4h30.5v-7.4z"/></g></g><g><rect x="110.7" y="211.8" fill-rule="evenodd" clip-rule="evenodd" fill="#888" width="28.5" height="5.4"/><g><path fill="#484848" d="M138.2 212.8v3.4h-26.5v-3.4h26.5m2-2h-30.5v7.4h30.5v-7.4z"/></g></g><g><path fill-rule="evenodd" clip-rule="evenodd" fill="#888" d="M24.6 83c-3.2 0-6.7-.8-13.7-2.8l-1-.3.5-1.5c1.3-4 2.6-8.2 2.5-12.2v-1h24.3v1c-.1 4 1.2 8.2 2.5 12.2L40 80l-1.1.2c-2 .5-3.6.9-5.1 1.2-4 1-6.5 1.6-9.2 1.6z"/><path fill="#484848" d="M36 66.2c-.1 4.4 1.4 8.9 2.7 13C31.3 81 28.1 82 24.6 82c-3.1 0-6.5-.8-13.4-2.8 1.3-4.2 2.8-8.7 2.7-13H36m2.1-2H11.7l.1 2.1c.1 3.9-1.2 7.9-2.4 11.9l-.2.5-.6 2 2 .6c7.2 2 10.7 2.9 14 2.9 2.8 0 5.3-.6 9.5-1.6 1.5-.4 3.1-.8 5.1-1.2l2.1-.5-.6-2.1-.2-.5c-1.2-3.9-2.5-8-2.4-11.9v-2.2z"/></g><g><path fill-rule="evenodd" clip-rule="evenodd" fill="#888" d="M74.6 83c-3.2 0-6.7-.8-13.7-2.8l-1-.3.5-1.5c1.3-4 2.6-8.2 2.5-12.2v-1h24.3v1c-.1 4 1.2 8.2 2.5 12.2L90 80l-1.1.2c-2 .5-3.6.9-5.1 1.2-4 1-6.5 1.6-9.2 1.6z"/><path fill="#484848" d="M86 66.2c-.1 4.4 1.4 8.9 2.7 13C81.3 81 78.1 82 74.6 82c-3.1 0-6.5-.8-13.4-2.8 1.3-4.2 2.8-8.7 2.7-13H86m2.1-2H61.7l.1 2.1c.1 3.9-1.2 7.9-2.4 11.9l-.2.5-.6 2 2 .6c7.1 2 10.7 2.9 14 2.9 2.8 0 5.3-.6 9.5-1.6 1.5-.4 3.1-.8 5.1-1.2l2.1-.5-.6-2.1-.2-.5c-1.2-3.9-2.5-8-2.4-11.8v-2.3z"/></g><g><path fill-rule="evenodd" clip-rule="evenodd" fill="#888" d="M124.6 83c-3.2 0-6.7-.8-13.7-2.8l-1-.3.5-1.5c1.3-4 2.6-8.2 2.5-12.2v-1h24.3v1c-.1 4 1.2 8.2 2.5 12.2l.3 1.6-1.1.2c-2 .5-3.6.9-5.1 1.2-4 1-6.5 1.6-9.2 1.6z"/><path fill="#484848" d="M136 66.2c-.1 4.4 1.4 8.9 2.7 13-7.5 1.7-10.6 2.8-14.1 2.8-3.1 0-6.5-.8-13.4-2.8 1.3-4.2 2.8-8.7 2.7-13H136m2.1-2h-26.4l.1 2.1c.1 3.8-1.2 7.9-2.4 11.9l-.2.5-.6 2 2 .6c7.1 2 10.7 2.9 14 2.9 2.8 0 5.3-.6 9.5-1.6 1.5-.4 3.1-.8 5.1-1.2l2.1-.5-.7-2.1-.1-.5c-1.2-4-2.5-8-2.4-11.9v-2.2z"/></g><path fill-rule="evenodd" clip-rule="evenodd" fill="#626262" d="M11.1 79.2c1.3-4.2 2.8-8.7 2.7-13 2.5 4.4 3.5 8.9 4.4 13 4.7 1.2 8 1.9 10.5 2.3-4.9 1-7.6.6-17.6-2.3z"/><path fill-rule="evenodd" clip-rule="evenodd" fill="#626262" d="M61.2 79.2c1.3-4.2 2.8-8.7 2.7-13 2.5 4.4 3.5 8.9 4.4 13 4.7 1.2 8 1.9 10.5 2.3-5 1-7.7.6-17.6-2.3z"/><path fill-rule="evenodd" clip-rule="evenodd" fill="#626262" d="M111.2 79.2c1.3-4.2 2.8-8.7 2.7-13 2.5 4.4 3.5 8.9 4.4 13 4.7 1.2 8 1.9 10.5 2.3-5 1-7.7.6-17.6-2.3z"/><g><path fill-rule="evenodd" clip-rule="evenodd" fill="#BBB" d="M10.8 62.4l.5-1.4c2.2-5.7 7.5-9.3 13.4-9.3 6 0 11.2 3.7 13.4 9.3l.5 1.4H10.8z"/><g><path fill="#484848" d="M24.8 52.7c5.7 0 10.5 3.6 12.5 8.7h-25c1.9-5.1 6.8-8.7 12.5-8.7m0-2c-6.4 0-12 3.9-14.4 9.9l-1.1 2.7h30.8L39 60.6c-2.2-5.9-7.9-9.9-14.2-9.9z"/></g></g><g><path fill-rule="evenodd" clip-rule="evenodd" fill="#BBB" d="M60.8 62.4l.5-1.4c2.2-5.7 7.5-9.3 13.4-9.3 6 0 11.2 3.7 13.4 9.3l.5 1.4H60.8z"/><g><path fill="#484848" d="M74.8 52.7c5.7 0 10.5 3.6 12.5 8.7h-25c1.9-5.1 6.8-8.7 12.5-8.7m0-2c-6.4 0-12 3.9-14.4 9.9l-1.1 2.7h30.8L89 60.6c-2.2-5.9-7.9-9.9-14.2-9.9z"/></g></g><g><path fill-rule="evenodd" clip-rule="evenodd" fill="#BBB" d="M111 62.4l.5-1.4c2.2-5.7 7.5-9.3 13.4-9.3 6 0 11.2 3.7 13.4 9.3l.5 1.4H111z"/><g><path fill="#484848" d="M124.9 52.7c5.7 0 10.5 3.6 12.5 8.7h-25c2-5.1 6.9-8.7 12.5-8.7m0-2c-6.4 0-12 3.9-14.4 9.9l-1.1 2.7h30.8l-1.1-2.7c-2.2-5.9-7.8-9.9-14.2-9.9z"/></g></g><path fill-rule="evenodd" clip-rule="evenodd" fill="#888" d="M24.9 52.7c2.3 0 4.2 3.6 5 8.7h-10c.8-5.1 2.8-8.7 5-8.7z"/><path fill-rule="evenodd" clip-rule="evenodd" fill="#888" d="M74.9 52.7c2.3 0 4.2 3.6 5 8.7h-10c.8-5.1 2.8-8.7 5-8.7z"/><path fill-rule="evenodd" clip-rule="evenodd" fill="#888" d="M124.9 52.7c2.3 0 4.2 3.6 5 8.7h-10c.8-5.1 2.8-8.7 5-8.7z"/><g><rect x="10.5" y="61.8" fill-rule="evenodd" clip-rule="evenodd" fill="#888" width="28.5" height="5.4"/><g><path fill="#484848" d="M38 62.8v3.4H11.5v-3.4H38m2-2H9.5v7.4H40v-7.4z"/></g></g><g><rect x="60.7" y="61.8" fill-rule="evenodd" clip-rule="evenodd" fill="#888" width="28.5" height="5.4"/><g><path fill="#484848" d="M88.2 62.8v3.4H61.7v-3.4h26.5m2-2H59.7v7.4h30.5v-7.4z"/></g></g><g><rect x="110.7" y="61.8" fill-rule="evenodd" clip-rule="evenodd" fill="#888" width="28.5" height="5.4"/><g><path fill="#484848" d="M138.2 62.8v3.4h-26.5v-3.4h26.5m2-2h-30.5v7.4h30.5v-7.4z"/></g></g><g><path fill-rule="evenodd" clip-rule="evenodd" fill="#888" d="M16.5 131.9c-1.6-.4-3.4-.9-6.3-1.7l-1-.3.5-1.5c1.3-4 2.6-8.2 2.5-12.2v-1h6.7v1c.1 4.2-.3 9-1.1 14.8l-.1 1.1-1.2-.2z"/><g><path fill="#484848" d="M17.9 116.2c.1 4.9-.4 9.8-1.1 14.7-1.7-.4-3.8-1-6.2-1.7 1.3-4.2 2.8-8.7 2.7-13h4.6m1.9-2h-8.7l.1 2.1c.1 3.9-1.2 7.9-2.4 11.9l-.1.5-.6 2 2 .6c2.9.8 4.7 1.3 6.3 1.7l2.2.5.3-2.2c.8-5.9 1.2-10.7 1.1-15l-.2-2.1z"/></g></g><g><path fill-rule="evenodd" clip-rule="evenodd" fill="#888" d="M66.5 131.9c-1.6-.4-3.4-.9-6.3-1.7l-1-.3.5-1.5c1.3-4 2.6-8.2 2.5-12.2v-1h6.7v1c.1 4.3-.3 9-1.1 14.8l-.1 1.1-1.2-.2z"/><g><path fill="#484848" d="M67.9 116.2c.1 4.9-.4 9.8-1.1 14.7-1.7-.4-3.8-1-6.2-1.7 1.3-4.2 2.8-8.7 2.7-13h4.6m1.9-2h-8.7l.1 2.1c.1 3.9-1.2 7.9-2.4 11.9l-.2.5-.6 2 2 .6c2.9.8 4.7 1.3 6.3 1.7l2.2.5.3-2.2c.8-5.9 1.2-10.7 1.1-15l-.1-2.1z"/></g></g><g><path fill-rule="evenodd" clip-rule="evenodd" fill="#BBB" d="M11.7 112.4c1.6-5.9 6.5-10 12.4-10.7.5-.1 1-.1 1.5-.1 5.4 0 10.3 3 12.8 7.9l.7 1.3-27.8 2.9.4-1.3z"/><g><path fill="#484848" d="M25.6 102.7c5.1 0 9.7 3 12 7.4l-24.9 2.6c1.4-5.3 5.9-9.3 11.5-9.9.5-.1 1-.1 1.4-.1m0-2c-.5 0-1.1 0-1.6.1-6.3.7-11.5 5.1-13.3 11.4L10 115l2.9-.3 24.9-2.6 2.9-.3-1.3-2.6c-2.7-5.2-8-8.5-13.8-8.5z"/></g></g><g><path fill-rule="evenodd" clip-rule="evenodd" fill="#BBB" d="M111.7 112.4c1.6-5.9 6.5-10 12.4-10.7.5-.1 1-.1 1.5-.1 5.4 0 10.3 3 12.8 7.9l.7 1.3-27.8 2.9.4-1.3z"/><g><path fill="#484848" d="M125.6 102.7c5.1 0 9.7 3 12 7.4l-24.9 2.6c1.4-5.3 5.9-9.3 11.5-9.9.5-.1 1-.1 1.4-.1m0-2c-.5 0-1.1 0-1.6.1-6.3.7-11.5 5.1-13.3 11.4l-.7 2.8 2.9-.3 24.9-2.6 2.9-.3-1.3-2.6c-2.7-5.2-8-8.5-13.8-8.5z"/></g></g><g><path fill-rule="evenodd" clip-rule="evenodd" fill="#BBB" d="M61.7 112.4c1.6-5.9 6.5-10 12.4-10.7.5-.1 1-.1 1.5-.1 5.4 0 10.3 3 12.8 7.9l.7 1.3-27.8 2.9.4-1.3z"/><g><path fill="#484848" d="M75.6 102.7c5.1 0 9.7 3 12 7.4l-24.9 2.6c1.4-5.3 5.9-9.3 11.5-9.9.5-.1 1-.1 1.4-.1m0-2c-.5 0-1.1 0-1.6.1-6.3.7-11.5 5.1-13.3 11.4L60 115l2.9-.3 24.9-2.6 2.9-.3-1.3-2.6c-2.7-5.2-8-8.5-13.8-8.5z"/></g></g><path fill-rule="evenodd" clip-rule="evenodd" fill="#888" d="M24.2 102.8c2.3-.2 4.6 3.1 5.9 8.1l-9.9 1c.2-5.1 1.8-8.9 4-9.1z"/><path fill-rule="evenodd" clip-rule="evenodd" fill="#888" d="M124.2 102.8c2.3-.2 4.6 3.1 5.9 8.1l-9.9 1c.2-5.1 1.8-8.9 4-9.1z"/><path fill-rule="evenodd" clip-rule="evenodd" fill="#888" d="M74.2 102.8c2.3-.2 4.6 3.1 5.9 8.1l-9.9 1c.2-5.1 1.8-8.9 4-9.1z"/><g><rect x="11.2" y="111.8" transform="rotate(174.043 25.46 114.504)" fill-rule="evenodd" clip-rule="evenodd" fill="#888" width="28.5" height="5.4"/><g><path fill="#484848" d="M38.5 111.4l.4 3.4-26.4 2.7-.4-3.4 26.4-2.7m1.8-2.2l-2 .2-26.4 2.7-2 .2.2 2 .4 3.4.2 2 2-.2 26.4-2.7 2-.2-.2-2-.4-3.4-.2-2z"/></g></g><g><polygon fill-rule="evenodd" clip-rule="evenodd" fill="#888" points="111,113.3 139.4,110.3 139.9,115.7 111.6,118.7 	"/><g><path fill="#484848" d="M138.5 111.4l.4 3.4-26.4 2.7-.4-3.4 26.4-2.7m1.8-2.2l-2 .2-26.4 2.7-2 .2.2 2 .4 3.4.2 2 2-.2 26.4-2.7 2-.2-.2-2-.4-3.4-.2-2z"/></g></g><g><rect x="61.2" y="111.8" transform="rotate(174.043 75.46 114.503)" fill-rule="evenodd" clip-rule="evenodd" fill="#888" width="28.5" height="5.4"/><g><path fill="#484848" d="M88.5 111.4l.4 3.4-26.4 2.7-.4-3.4 26.4-2.7m1.8-2.2l-2 .2-26.4 2.7-2 .2.2 2 .4 3.4.2 2 2-.2 26.4-2.7 2-.2-.2-2-.4-3.4-.2-2z"/></g></g><g><path fill-rule="evenodd" clip-rule="evenodd" fill="#888" d="M32.6 181.1c-.8-5.9-1.1-10.6-1.1-14.8v-1h6.7v1c-.1 4 1.2 8.2 2.5 12.2l.5 1.5-1 .3c-2.7.8-4.6 1.3-6.3 1.7l-1.1.3-.2-1.2z"/><g><path fill="#484848" d="M37.2 166.2c-.1 4.4 1.4 8.9 2.7 13-2.5.7-4.5 1.3-6.2 1.7-.7-4.9-1.1-9.8-1.1-14.7h4.6m2-2h-8.7v2c-.1 4.3.3 9.1 1.1 15l.3 2.2 2.2-.5c1.6-.4 3.6-.9 6.3-1.7l2-.6-.6-2-.1-.5c-1.2-3.9-2.5-8-2.4-11.9l-.1-2z"/></g></g><g><path fill-rule="evenodd" clip-rule="evenodd" fill="#888" d="M82.6 181.1c-.8-5.9-1.1-10.6-1.1-14.8v-1h6.7v1c-.1 4 1.2 8.2 2.5 12.2l.5 1.4-1 .3c-2.7.8-4.6 1.3-6.3 1.7l-1.1.3-.2-1.1z"/><g><path fill="#484848" d="M87.2 166.2c-.1 4.4 1.4 8.9 2.7 13-2.5.7-4.5 1.3-6.2 1.7-.7-4.9-1.1-9.8-1.1-14.7h4.6m2-2h-8.7v2c-.1 4.3.3 9.1 1.1 15l.3 2.2 2.2-.5c1.6-.4 3.6-.9 6.3-1.7l2-.6-.6-2-.1-.5c-1.2-4-2.5-8-2.4-11.9l-.1-2z"/></g></g><g><path fill-rule="evenodd" clip-rule="evenodd" fill="#888" d="M132.6 181.1c-.8-5.9-1.1-10.6-1.1-14.8v-1h6.7v1c-.1 4 1.2 8.2 2.5 12.2l.5 1.4-1 .3c-2.7.8-4.6 1.3-6.3 1.7l-1.1.3-.2-1.1z"/><g><path fill="#484848" d="M137.2 166.2c-.1 4.4 1.4 8.9 2.7 13-2.5.7-4.5 1.3-6.2 1.7-.7-4.9-1.1-9.8-1.1-14.7h4.6m2-2h-8.7v2c-.1 4.3.3 9.1 1.1 15l.3 2.2 2.2-.5c1.7-.4 3.6-.9 6.3-1.7l2-.6-.6-2-.1-.5c-1.2-4-2.5-8-2.4-11.9l-.1-2z"/></g></g><path fill-rule="evenodd" clip-rule="evenodd" fill="#B3B3B3" d="M26.1 152.8c-5.6-.6-10.8 2.5-13.3 7.3l24.9 2.6c-1.5-5.3-5.9-9.3-11.6-9.9z"/><path fill-rule="evenodd" clip-rule="evenodd" fill="#B3B3B3" d="M76.1 152.8c-5.6-.6-10.8 2.5-13.3 7.3l24.9 2.6c-1.5-5.3-5.9-9.3-11.6-9.9z"/><path fill-rule="evenodd" clip-rule="evenodd" fill="#B3B3B3" d="M126.1 152.8c-5.6-.6-10.8 2.5-13.3 7.3l24.9 2.6c-1.5-5.3-5.9-9.3-11.6-9.9z"/><g><g><path fill-rule="evenodd" clip-rule="evenodd" fill="#BBB" d="M11.3 160.8l.7-1.3c2.5-4.9 7.4-7.9 12.8-7.9.5 0 1 0 1.5.1 5.9.6 10.8 4.8 12.4 10.7l.4 1.4-27.8-3z"/></g><g><path fill="#484848" d="M24.8 152.6c.5 0 .9 0 1.4.1 5.6.6 10.1 4.7 11.5 9.9L12.8 160c2.3-4.5 6.9-7.4 12-7.4m0-2c-5.8 0-11 3.3-13.7 8.5l-1.3 2.6 2.9.3 24.9 2.6 2.9.3-.8-2.8c-1.7-6.3-6.9-10.7-13.3-11.4-.6-.1-1.1-.1-1.6-.1z"/></g></g><g><g><path fill-rule="evenodd" clip-rule="evenodd" fill="#BBB" d="M61.3 160.8l.7-1.3c2.5-4.9 7.4-7.9 12.8-7.9.5 0 1 0 1.5.1 5.9.6 10.8 4.8 12.4 10.7l.4 1.4-27.8-3z"/></g><g><path fill="#484848" d="M74.8 152.6c.5 0 .9 0 1.4.1 5.6.6 10.1 4.7 11.5 9.9L62.8 160c2.3-4.5 6.9-7.4 12-7.4m0-2c-5.8 0-11 3.3-13.7 8.5l-1.3 2.6 2.9.3 24.9 2.6 2.9.3-.8-2.8c-1.7-6.3-6.9-10.7-13.3-11.4-.6-.1-1.1-.1-1.6-.1z"/></g></g><g><g><path fill-rule="evenodd" clip-rule="evenodd" fill="#BBB" d="M111.3 160.8l.7-1.3c2.5-4.9 7.4-7.9 12.8-7.9.5 0 1 0 1.5.1 5.9.6 10.8 4.8 12.4 10.7l.4 1.4-27.8-3z"/></g><g><path fill="#484848" d="M124.8 152.6c.5 0 .9 0 1.4.1 5.6.6 10.1 4.7 11.5 9.9l-24.9-2.6c2.3-4.5 6.9-7.4 12-7.4m0-2c-5.8 0-11 3.3-13.7 8.5l-1.3 2.6 2.9.3 24.9 2.6 2.9.3-.8-2.8c-1.7-6.3-6.9-10.7-13.3-11.4-.6-.1-1.1-.1-1.6-.1z"/></g></g><path fill-rule="evenodd" clip-rule="evenodd" fill="#888" d="M26.1 152.8c-2.3-.2-4.6 3.1-5.9 8.1l9.9 1c-.2-5.1-1.7-8.9-4-9.1z"/><path fill-rule="evenodd" clip-rule="evenodd" fill="#888" d="M76.1 152.8c-2.3-.2-4.6 3.1-5.9 8.1l9.9 1c-.2-5.1-1.7-8.9-4-9.1z"/><path fill-rule="evenodd" clip-rule="evenodd" fill="#888" d="M126.1 152.8c-2.3-.2-4.6 3.1-5.9 8.1l9.9 1c-.2-5.1-1.7-8.9-4-9.1z"/><g><rect x="22.2" y="150.2" transform="rotate(95.941 24.91 164.503)" fill-rule="evenodd" clip-rule="evenodd" fill="#888" width="5.4" height="28.5"/><g><path fill="#484848" d="M11.9 161.4l26.4 2.8-.4 3.4-26.4-2.8.4-3.4m-1.8-2.2l-.2 2-.4 3.4-.2 2 2 .2 26.4 2.8 2 .2.2-2 .4-3.4.2-2-2-.2-26.4-2.8-2-.2z"/></g></g><g><polygon fill-rule="evenodd" clip-rule="evenodd" fill="#888" points="60.4,165.7 61,160.3 89.4,163.3 88.8,168.7 	"/><g><path fill="#484848" d="M61.9 161.4l26.4 2.8-.3 3.4-26.4-2.8.3-3.4m-1.8-2.2l-.2 2-.4 3.4-.2 2 2 .2 26.4 2.8 2 .2.2-2 .3-3.4.2-2-2-.2-26.4-2.8-1.9-.2z"/></g></g><g><polygon fill-rule="evenodd" clip-rule="evenodd" fill="#888" points="110.4,165.7 111,160.3 139.4,163.3 138.8,168.7 	"/><g><path fill="#484848" d="M111.9 161.4l26.4 2.8-.4 3.4-26.4-2.8.4-3.4m-1.8-2.2l-.2 2-.3 3.4-.2 2 2 .2 26.4 2.8 2 .2.2-2 .4-3.4.2-2-2-.2-26.4-2.8-2.1-.2z"/></g></g></svg>