<?xml version="1.0" encoding="utf-8"?>
<!-- Generator: Adobe Illustrator 16.0.0, SVG Export Plug-In . SVG Version: 6.00 Build 0)  -->
<!DOCTYPE svg PUBLIC "-//W3C//DTD SVG 1.1//EN" "http://www.w3.org/Graphics/SVG/1.1/DTD/svg11.dtd">
<svg version="1.1" id="Layer_3" xmlns="http://www.w3.org/2000/svg" xmlns:xlink="http://www.w3.org/1999/xlink" x="0px" y="0px"
	 width="150px" height="250px" viewBox="0 0 150 250" enable-background="new 0 0 150 250" xml:space="preserve">
<g>
	<g>
		<rect x="23.2" y="102.3" fill-rule="evenodd" clip-rule="evenodd" fill="#BBBBBB" width="3.5" height="15.3"/>
	</g>
	<g>
		<path fill="#484848" d="M25.7,103.3v13.3h-1.5v-13.3H25.7 M27.7,101.3h-2h-1.5h-2v2v13.3v2h2h1.5h2v-2v-13.3V101.3L27.7,101.3z"/>
	</g>
</g>
<g>
	<rect x="23.2" y="152.3" fill-rule="evenodd" clip-rule="evenodd" fill="#BBBBBB" width="3.5" height="15.3"/>
	<path fill="#484848" d="M25.7,153.3v13.3h-1.5v-13.3H25.7 M27.7,151.3h-2h-1.5h-2v2v13.3v2h2h1.5h2v-2v-13.3V151.3L27.7,151.3z"/>
</g>
<g>
	<rect x="73.2" y="152.3" fill-rule="evenodd" clip-rule="evenodd" fill="#BBBBBB" width="3.5" height="15.3"/>
	<path fill="#484848" d="M75.7,153.3v13.3h-1.5v-13.3H75.7 M77.7,151.3h-2h-1.5h-2v2v13.3v2h2h1.5h2v-2v-13.3V151.3L77.7,151.3z"/>
</g>
<g>
	<rect x="123.2" y="152.3" fill-rule="evenodd" clip-rule="evenodd" fill="#BBBBBB" width="3.5" height="15.3"/>
	<path fill="#484848" d="M125.7,153.3v13.3h-1.5v-13.3H125.7 M127.7,151.3h-2h-1.5h-2v2v13.3v2h2h1.5h2v-2v-13.3V151.3L127.7,151.3z
		"/>
</g>
<g>
	<g>
		<rect x="73.2" y="102.3" fill-rule="evenodd" clip-rule="evenodd" fill="#BBBBBB" width="3.5" height="15.3"/>
	</g>
	<g>
		<path fill="#484848" d="M75.7,103.3v13.3h-1.5v-13.3H75.7 M77.7,101.3h-2h-1.5h-2v2v13.3v2h2h1.5h2v-2v-13.3V101.3L77.7,101.3z"/>
	</g>
</g>
<g>
	<g>
		<rect x="123.2" y="102.3" fill-rule="evenodd" clip-rule="evenodd" fill="#BBBBBB" width="3.5" height="15.3"/>
	</g>
	<g>
		<path fill="#484848" d="M125.7,103.3v13.3h-1.5v-13.3H125.7 M127.7,101.3h-2h-1.5h-2v2v13.3v2h2h1.5h2v-2v-13.3V101.3L127.7,101.3
			z"/>
	</g>
</g>
<g>
	<path fill-rule="evenodd" clip-rule="evenodd" fill="#A27556" d="M10.9,14.8l0.5-1.4c2.2-5.7,7.4-9.3,13.5-9.3
		c6.1,0,11.2,3.6,13.5,9.3l0.5,1.4H10.9z"/>
	<path fill="#4C4134" d="M24.9,5.1c5.1,0,10.3,2.9,12.5,8.7H12.4C14.6,8,19.8,5.1,24.9,5.1 M24.9,3.1c-6.5,0-12,3.8-14.4,9.9
		l-1.1,2.7h2.9h25.1h2.9l-1.1-2.7C37,6.9,31.4,3.1,24.9,3.1L24.9,3.1z"/>
</g>
<g>
	<rect x="23.2" y="2.3" fill-rule="evenodd" clip-rule="evenodd" fill="#BBBBBB" width="3.5" height="19.4"/>
	<path fill="#484848" d="M25.7,3.3v17.4h-1.5V3.3H25.7 M27.7,1.3h-2h-1.5h-2v2v17.4v2h2h1.5h2v-2V3.3V1.3L27.7,1.3z"/>
</g>
<g>
	<rect x="10.6" y="14.2" fill-rule="evenodd" clip-rule="evenodd" fill="#BBBBBB" width="28.6" height="5.4"/>
	<path fill="#484848" d="M38.2,15.2v3.4H11.6v-3.4H38.2 M40.2,13.2h-2H11.6h-2v2v3.4v2h2h26.6h2v-2v-3.4V13.2L40.2,13.2z"/>
</g>
<g>
	<polygon fill-rule="evenodd" clip-rule="evenodd" fill="#BBBBBB" points="22.1,23.1 22.1,14.2 27.7,14.2 27.7,23.1 24.9,25.5 	"/>
	<path fill="#484848" d="M26.7,15.2v7.5l-1.8,1.5l-1.8-1.5v-7.5H26.7 M28.7,13.2h-2h-3.6h-2v2v7.5v0.9l0.7,0.6l1.8,1.5l1.3,1.1
		l1.3-1.1l1.8-1.5l0.7-0.6v-0.9v-7.5V13.2L28.7,13.2z"/>
</g>
<g>
	<path fill-rule="evenodd" clip-rule="evenodd" fill="#A27556" d="M10.9,64.8l0.5-1.4c2.2-5.7,7.4-9.3,13.5-9.3s11.2,3.6,13.5,9.3
		l0.5,1.4H10.9z"/>
	<path fill="#4C4134" d="M24.9,55.1c5.1,0,10.3,2.9,12.5,8.7H12.4C14.6,58,19.8,55.1,24.9,55.1 M24.9,53.1c-6.5,0-12,3.8-14.4,9.9
		l-1.1,2.7h2.9h25.1h2.9l-1.1-2.7C37,56.9,31.4,53.1,24.9,53.1L24.9,53.1z"/>
</g>
<g>
	<path fill-rule="evenodd" clip-rule="evenodd" fill="#A27556" d="M10.9,114.8l0.5-1.4c2.2-5.7,7.4-9.3,13.5-9.3
		c6.1,0,11.2,3.6,13.5,9.3l0.5,1.4H10.9z"/>
	<path fill="#4C4134" d="M24.9,105.1c5.1,0,10.3,2.9,12.5,8.7H12.4C14.6,108,19.8,105.1,24.9,105.1 M24.9,103.1
		c-6.5,0-12,3.8-14.4,9.9l-1.1,2.7h2.9h25.1h2.9l-1.1-2.7C37,106.9,31.4,103.1,24.9,103.1L24.9,103.1z"/>
</g>
<g>
	<path fill-rule="evenodd" clip-rule="evenodd" fill="#A27556" d="M10.9,164.8l0.5-1.4c2.2-5.7,7.4-9.3,13.5-9.3s11.2,3.6,13.5,9.3
		l0.5,1.4H10.9z"/>
	<path fill="#4C4134" d="M24.9,155.1c5.1,0,10.3,2.9,12.5,8.7H12.4C14.6,158,19.8,155.1,24.9,155.1 M24.9,153.1
		c-6.5,0-12,3.8-14.4,9.9l-1.1,2.7h2.9h25.1h2.9l-1.1-2.7C37,156.9,31.4,153.1,24.9,153.1L24.9,153.1z"/>
</g>
<g>
	<path fill-rule="evenodd" clip-rule="evenodd" fill="#A27556" d="M60.9,164.8l0.5-1.4c2.2-5.7,7.4-9.3,13.5-9.3
		c6.1,0,11.2,3.6,13.5,9.3l0.5,1.4H60.9z"/>
	<path fill="#4C4134" d="M74.9,155.1c5.1,0,10.3,2.9,12.5,8.7H62.4C64.6,158,69.8,155.1,74.9,155.1 M74.9,153.1
		c-6.5,0-12,3.8-14.4,9.9l-1.1,2.7h2.9h25.1h2.9l-1.1-2.7C87,156.9,81.4,153.1,74.9,153.1L74.9,153.1z"/>
</g>
<g>
	<path fill-rule="evenodd" clip-rule="evenodd" fill="#A27556" d="M110.9,164.8l0.5-1.4c2.2-5.7,7.4-9.3,13.5-9.3
		c6.1,0,11.2,3.6,13.5,9.3l0.5,1.4H110.9z"/>
	<path fill="#4C4134" d="M124.9,155.1c5.2,0,10.3,2.9,12.5,8.7h-25.1C114.6,158,119.8,155.1,124.9,155.1 M124.9,153.1
		c-6.5,0-12,3.8-14.4,9.9l-1.1,2.7h2.9h25.1h2.9l-1.1-2.7C137,156.9,131.4,153.1,124.9,153.1L124.9,153.1z"/>
</g>
<g>
	<path fill-rule="evenodd" clip-rule="evenodd" fill="#A27556" d="M60.9,114.8l0.5-1.4c2.2-5.7,7.4-9.3,13.5-9.3
		c6.1,0,11.2,3.6,13.5,9.3l0.5,1.4H60.9z"/>
	<path fill="#4C4134" d="M74.9,105.1c5.1,0,10.3,2.9,12.5,8.7H62.4C64.6,108,69.8,105.1,74.9,105.1 M74.9,103.1
		c-6.5,0-12,3.8-14.4,9.9l-1.1,2.7h2.9h25.1h2.9l-1.1-2.7C87,106.9,81.4,103.1,74.9,103.1L74.9,103.1z"/>
</g>
<g>
	<path fill-rule="evenodd" clip-rule="evenodd" fill="#A27556" d="M110.9,114.8l0.5-1.4c2.2-5.7,7.4-9.3,13.5-9.3
		c6.1,0,11.2,3.6,13.5,9.3l0.5,1.4H110.9z"/>
	<path fill="#4C4134" d="M124.9,105.1c5.2,0,10.3,2.9,12.5,8.7h-25.1C114.6,108,119.8,105.1,124.9,105.1 M124.9,103.1
		c-6.5,0-12,3.8-14.4,9.9l-1.1,2.7h2.9h25.1h2.9l-1.1-2.7C137,106.9,131.4,103.1,124.9,103.1L124.9,103.1z"/>
</g>
<g>
	<g>
		<rect x="23.2" y="52.3" fill-rule="evenodd" clip-rule="evenodd" fill="#BBBBBB" width="3.5" height="15.3"/>
	</g>
	<g>
		<path fill="#484848" d="M25.7,53.3v13.3h-1.5V53.3H25.7 M27.7,51.3h-2h-1.5h-2v2v13.3v2h2h1.5h2v-2V53.3V51.3L27.7,51.3z"/>
	</g>
</g>
<g>
	<rect x="10.6" y="64.2" fill-rule="evenodd" clip-rule="evenodd" fill="#BBBBBB" width="28.6" height="5.4"/>
	<path fill="#484848" d="M38.2,65.2v3.4H11.6v-3.4H38.2 M40.2,63.2h-2H11.6h-2v2v3.4v2h2h26.6h2v-2v-3.4V63.2L40.2,63.2z"/>
</g>
<g>
	<rect x="10.6" y="114.2" fill-rule="evenodd" clip-rule="evenodd" fill="#BBBBBB" width="28.6" height="5.4"/>
	<path fill="#484848" d="M38.2,115.2v3.4H11.6v-3.4H38.2 M40.2,113.2h-2H11.6h-2v2v3.4v2h2h26.6h2v-2v-3.4V113.2L40.2,113.2z"/>
</g>
<g>
	<rect x="110.6" y="164.2" fill-rule="evenodd" clip-rule="evenodd" fill="#BBBBBB" width="28.6" height="5.4"/>
	<path fill="#484848" d="M138.2,165.2v3.4h-26.6v-3.4H138.2 M140.2,163.2h-2h-26.6h-2v2v3.4v2h2h26.6h2v-2v-3.4V163.2L140.2,163.2z"
		/>
</g>
<g>
	<rect x="60.6" y="114.2" fill-rule="evenodd" clip-rule="evenodd" fill="#BBBBBB" width="28.6" height="5.4"/>
	<path fill="#484848" d="M88.2,115.2v3.4H61.6v-3.4H88.2 M90.2,113.2h-2H61.6h-2v2v3.4v2h2h26.6h2v-2v-3.4V113.2L90.2,113.2z"/>
</g>
<g>
	<rect x="110.6" y="114.2" fill-rule="evenodd" clip-rule="evenodd" fill="#BBBBBB" width="28.6" height="5.4"/>
	<path fill="#484848" d="M138.2,115.2v3.4h-26.6v-3.4H138.2 M140.2,113.2h-2h-26.6h-2v2v3.4v2h2h26.6h2v-2v-3.4V113.2L140.2,113.2z"
		/>
</g>
<g>
	<path fill-rule="evenodd" clip-rule="evenodd" fill="#A27556" d="M10.9,214.8l0.5-1.4c2.2-5.7,7.4-9.3,13.5-9.3
		c6.1,0,11.2,3.6,13.5,9.3l0.5,1.4H10.9z"/>
	<path fill="#4C4134" d="M24.9,205.1c5.1,0,10.3,2.9,12.5,8.7H12.4C14.6,208,19.8,205.1,24.9,205.1 M24.9,203.1
		c-6.5,0-12,3.8-14.4,9.9l-1.1,2.7h2.9h25.1h2.9l-1.1-2.7C37,206.9,31.4,203.1,24.9,203.1L24.9,203.1z"/>
</g>
<g>
	<rect x="23.2" y="202.3" fill-rule="evenodd" clip-rule="evenodd" fill="#BBBBBB" width="3.5" height="19.4"/>
	<path fill="#484848" d="M25.7,203.3v17.4h-1.5v-17.4H25.7 M27.7,201.3h-2h-1.5h-2v2v17.4v2h2h1.5h2v-2v-17.4V201.3L27.7,201.3z"/>
</g>
<g>
	<rect x="10.6" y="214.2" fill-rule="evenodd" clip-rule="evenodd" fill="#BBBBBB" width="28.6" height="5.4"/>
	<path fill="#484848" d="M38.2,215.2v3.4H11.6v-3.4H38.2 M40.2,213.2h-2H11.6h-2v2v3.4v2h2h26.6h2v-2v-3.4V213.2L40.2,213.2z"/>
</g>
<g>
	<polygon fill-rule="evenodd" clip-rule="evenodd" fill="#BBBBBB" points="22.1,223.1 22.1,214.2 27.7,214.2 27.7,223.1 24.9,225.5 
			"/>
	<path fill="#484848" d="M26.7,215.2v7.5l-1.8,1.5l-1.8-1.5v-7.5H26.7 M28.7,213.2h-2h-3.6h-2v2v7.5v0.9l0.7,0.6l1.8,1.5l1.3,1.1
		l1.3-1.1l1.8-1.5l0.7-0.6v-0.9v-7.5V213.2L28.7,213.2z"/>
</g>
<g>
	<path fill-rule="evenodd" clip-rule="evenodd" fill="#A27556" d="M60.9,14.8l0.5-1.4c2.2-5.7,7.4-9.3,13.5-9.3
		c6.1,0,11.2,3.6,13.5,9.3l0.5,1.4H60.9z"/>
	<path fill="#4C4134" d="M74.9,5.1c5.1,0,10.3,2.9,12.5,8.7H62.4C64.6,8,69.8,5.1,74.9,5.1 M74.9,3.1c-6.5,0-12,3.8-14.4,9.9
		l-1.1,2.7h2.9h25.1h2.9l-1.1-2.7C87,6.9,81.4,3.1,74.9,3.1L74.9,3.1z"/>
</g>
<g>
	<rect x="73.2" y="2.3" fill-rule="evenodd" clip-rule="evenodd" fill="#BBBBBB" width="3.5" height="19.4"/>
	<path fill="#484848" d="M75.7,3.3v17.4h-1.5V3.3H75.7 M77.7,1.3h-2h-1.5h-2v2v17.4v2h2h1.5h2v-2V3.3V1.3L77.7,1.3z"/>
</g>
<g>
	<rect x="60.6" y="14.2" fill-rule="evenodd" clip-rule="evenodd" fill="#BBBBBB" width="28.6" height="5.4"/>
	<path fill="#484848" d="M88.2,15.2v3.4H61.6v-3.4H88.2 M90.2,13.2h-2H61.6h-2v2v3.4v2h2h26.6h2v-2v-3.4V13.2L90.2,13.2z"/>
</g>
<g>
	<polygon fill-rule="evenodd" clip-rule="evenodd" fill="#BBBBBB" points="72.1,23.1 72.1,14.2 77.7,14.2 77.7,23.1 74.9,25.5 	"/>
	<path fill="#484848" d="M76.7,15.2v7.5l-1.8,1.5l-1.8-1.5v-7.5H76.7 M78.7,13.2h-2h-3.6h-2v2v7.5v0.9l0.7,0.6l1.8,1.5l1.3,1.1
		l1.3-1.1l1.8-1.5l0.7-0.6v-0.9v-7.5V13.2L78.7,13.2z"/>
</g>
<g>
	<path fill-rule="evenodd" clip-rule="evenodd" fill="#A27556" d="M60.9,64.8l0.5-1.4c2.2-5.7,7.4-9.3,13.5-9.3
		c6.1,0,11.2,3.6,13.5,9.3l0.5,1.4H60.9z"/>
	<path fill="#4C4134" d="M74.9,55.1c5.1,0,10.3,2.9,12.5,8.7H62.4C64.6,58,69.8,55.1,74.9,55.1 M74.9,53.1c-6.5,0-12,3.8-14.4,9.9
		l-1.1,2.7h2.9h25.1h2.9l-1.1-2.7C87,56.9,81.4,53.1,74.9,53.1L74.9,53.1z"/>
</g>
<g>
	<g>
		<rect x="73.2" y="52.3" fill-rule="evenodd" clip-rule="evenodd" fill="#BBBBBB" width="3.5" height="15.3"/>
	</g>
	<g>
		<path fill="#484848" d="M75.7,53.3v13.3h-1.5V53.3H75.7 M77.7,51.3h-2h-1.5h-2v2v13.3v2h2h1.5h2v-2V53.3V51.3L77.7,51.3z"/>
	</g>
</g>
<g>
	<rect x="60.6" y="64.2" fill-rule="evenodd" clip-rule="evenodd" fill="#BBBBBB" width="28.6" height="5.4"/>
	<path fill="#484848" d="M88.2,65.2v3.4H61.6v-3.4H88.2 M90.2,63.2h-2H61.6h-2v2v3.4v2h2h26.6h2v-2v-3.4V63.2L90.2,63.2z"/>
</g>
<g>
	<path fill-rule="evenodd" clip-rule="evenodd" fill="#A27556" d="M60.9,214.8l0.5-1.4c2.2-5.7,7.4-9.3,13.5-9.3
		c6.1,0,11.2,3.6,13.5,9.3l0.5,1.4H60.9z"/>
	<path fill="#4C4134" d="M74.9,205.1c5.1,0,10.3,2.9,12.5,8.7H62.4C64.6,208,69.8,205.1,74.9,205.1 M74.9,203.1
		c-6.5,0-12,3.8-14.4,9.9l-1.1,2.7h2.9h25.1h2.9l-1.1-2.7C87,206.9,81.4,203.1,74.9,203.1L74.9,203.1z"/>
</g>
<g>
	<rect x="73.2" y="202.3" fill-rule="evenodd" clip-rule="evenodd" fill="#BBBBBB" width="3.5" height="19.4"/>
	<path fill="#484848" d="M75.7,203.3v17.4h-1.5v-17.4H75.7 M77.7,201.3h-2h-1.5h-2v2v17.4v2h2h1.5h2v-2v-17.4V201.3L77.7,201.3z"/>
</g>
<g>
	<rect x="60.6" y="214.2" fill-rule="evenodd" clip-rule="evenodd" fill="#BBBBBB" width="28.6" height="5.4"/>
	<path fill="#484848" d="M88.2,215.2v3.4H61.6v-3.4H88.2 M90.2,213.2h-2H61.6h-2v2v3.4v2h2h26.6h2v-2v-3.4V213.2L90.2,213.2z"/>
</g>
<g>
	<polygon fill-rule="evenodd" clip-rule="evenodd" fill="#BBBBBB" points="72.1,223.1 72.1,214.2 77.7,214.2 77.7,223.1 74.9,225.5 
			"/>
	<path fill="#484848" d="M76.7,215.2v7.5l-1.8,1.5l-1.8-1.5v-7.5H76.7 M78.7,213.2h-2h-3.6h-2v2v7.5v0.9l0.7,0.6l1.8,1.5l1.3,1.1
		l1.3-1.1l1.8-1.5l0.7-0.6v-0.9v-7.5V213.2L78.7,213.2z"/>
</g>
<g>
	<path fill-rule="evenodd" clip-rule="evenodd" fill="#A27556" d="M110.9,14.8l0.5-1.4c2.2-5.7,7.4-9.3,13.5-9.3
		c6.1,0,11.2,3.6,13.5,9.3l0.5,1.4H110.9z"/>
	<path fill="#4C4134" d="M124.9,5.1c5.2,0,10.3,2.9,12.5,8.7h-25.1C114.6,8,119.8,5.1,124.9,5.1 M124.9,3.1c-6.5,0-12,3.8-14.4,9.9
		l-1.1,2.7h2.9h25.1h2.9l-1.1-2.7C137,6.9,131.4,3.1,124.9,3.1L124.9,3.1z"/>
</g>
<g>
	<rect x="123.2" y="2.3" fill-rule="evenodd" clip-rule="evenodd" fill="#BBBBBB" width="3.5" height="19.4"/>
	<path fill="#484848" d="M125.7,3.3v17.4h-1.5V3.3H125.7 M127.7,1.3h-2h-1.5h-2v2v17.4v2h2h1.5h2v-2V3.3V1.3L127.7,1.3z"/>
</g>
<g>
	<rect x="110.6" y="14.2" fill-rule="evenodd" clip-rule="evenodd" fill="#BBBBBB" width="28.6" height="5.4"/>
	<path fill="#484848" d="M138.2,15.2v3.4h-26.6v-3.4H138.2 M140.2,13.2h-2h-26.6h-2v2v3.4v2h2h26.6h2v-2v-3.4V13.2L140.2,13.2z"/>
</g>
<g>
	<polygon fill-rule="evenodd" clip-rule="evenodd" fill="#BBBBBB" points="122.1,23.1 122.1,14.2 127.7,14.2 127.7,23.1 124.9,25.5 
			"/>
	<path fill="#484848" d="M126.7,15.2v7.5l-1.8,1.5l-1.8-1.5v-7.5H126.7 M128.7,13.2h-2h-3.6h-2v2v7.5v0.9l0.7,0.6l1.8,1.5l1.3,1.1
		l1.3-1.1l1.8-1.5l0.7-0.6v-0.9v-7.5V13.2L128.7,13.2z"/>
</g>
<g>
	<path fill-rule="evenodd" clip-rule="evenodd" fill="#A27556" d="M110.9,64.8l0.5-1.4c2.2-5.7,7.4-9.3,13.5-9.3
		c6.1,0,11.2,3.6,13.5,9.3l0.5,1.4H110.9z"/>
	<path fill="#4C4134" d="M124.9,55.1c5.2,0,10.3,2.9,12.5,8.7h-25.1C114.6,58,119.8,55.1,124.9,55.1 M124.9,53.1
		c-6.5,0-12,3.8-14.4,9.9l-1.1,2.7h2.9h25.1h2.9l-1.1-2.7C137,56.9,131.4,53.1,124.9,53.1L124.9,53.1z"/>
</g>
<g>
	<g>
		<rect x="123.2" y="52.3" fill-rule="evenodd" clip-rule="evenodd" fill="#BBBBBB" width="3.5" height="15.3"/>
	</g>
	<g>
		<path fill="#484848" d="M125.7,53.3v13.3h-1.5V53.3H125.7 M127.7,51.3h-2h-1.5h-2v2v13.3v2h2h1.5h2v-2V53.3V51.3L127.7,51.3z"/>
	</g>
</g>
<g>
	<rect x="110.6" y="64.2" fill-rule="evenodd" clip-rule="evenodd" fill="#BBBBBB" width="28.6" height="5.4"/>
	<path fill="#484848" d="M138.2,65.2v3.4h-26.6v-3.4H138.2 M140.2,63.2h-2h-26.6h-2v2v3.4v2h2h26.6h2v-2v-3.4V63.2L140.2,63.2z"/>
</g>
<g>
	<path fill-rule="evenodd" clip-rule="evenodd" fill="#A27556" d="M110.9,214.8l0.5-1.4c2.2-5.7,7.4-9.3,13.5-9.3
		c6.1,0,11.2,3.6,13.5,9.3l0.5,1.4H110.9z"/>
	<path fill="#4C4134" d="M124.9,205.1c5.2,0,10.3,2.9,12.5,8.7h-25.1C114.6,208,119.8,205.1,124.9,205.1 M124.9,203.1
		c-6.5,0-12,3.8-14.4,9.9l-1.1,2.7h2.9h25.1h2.9l-1.1-2.7C137,206.9,131.4,203.1,124.9,203.1L124.9,203.1z"/>
</g>
<g>
	<rect x="123.2" y="202.3" fill-rule="evenodd" clip-rule="evenodd" fill="#BBBBBB" width="3.5" height="19.4"/>
	<path fill="#484848" d="M125.7,203.3v17.4h-1.5v-17.4H125.7 M127.7,201.3h-2h-1.5h-2v2v17.4v2h2h1.5h2v-2v-17.4V201.3L127.7,201.3z
		"/>
</g>
<g>
	<rect x="110.6" y="214.2" fill-rule="evenodd" clip-rule="evenodd" fill="#BBBBBB" width="28.6" height="5.4"/>
	<path fill="#484848" d="M138.2,215.2v3.4h-26.6v-3.4H138.2 M140.2,213.2h-2h-26.6h-2v2v3.4v2h2h26.6h2v-2v-3.4V213.2L140.2,213.2z"
		/>
</g>
<g>
	<polygon fill-rule="evenodd" clip-rule="evenodd" fill="#BBBBBB" points="122.1,223.1 122.1,214.2 127.7,214.2 127.7,223.1 
		124.9,225.5 	"/>
	<path fill="#484848" d="M126.7,215.2v7.5l-1.8,1.5l-1.8-1.5v-7.5H126.7 M128.7,213.2h-2h-3.6h-2v2v7.5v0.9l0.7,0.6l1.8,1.5l1.3,1.1
		l1.3-1.1l1.8-1.5l0.7-0.6v-0.9v-7.5V213.2L128.7,213.2z"/>
</g>
<g>
	<polygon fill-rule="evenodd" clip-rule="evenodd" fill="#BBBBBB" points="35.4,122.9 35.4,114.2 39.2,114.2 39.2,122.9 37.3,126.1 
			"/>
	<path fill="#484848" d="M38.2,115.2v7.5l-0.9,1.5l-0.9-1.5v-7.5H38.2 M40.2,113.2h-2h-1.9h-2v2v7.5v0.6l0.3,0.5l0.9,1.5l1.7,2.8
		l1.7-2.8l0.9-1.5l0.3-0.5v-0.6v-7.5V113.2L40.2,113.2z"/>
</g>
<g>
	<polygon fill-rule="evenodd" clip-rule="evenodd" fill="#BBBBBB" points="85.4,122.9 85.4,114.2 89.2,114.2 89.2,122.9 87.3,126.1 
			"/>
	<path fill="#484848" d="M88.2,115.2v7.5l-0.9,1.5l-0.9-1.5v-7.5H88.2 M90.2,113.2h-2h-1.9h-2v2v7.5v0.6l0.3,0.5l0.9,1.5l1.7,2.8
		l1.7-2.8l0.9-1.5l0.3-0.5v-0.6v-7.5V113.2L90.2,113.2z"/>
</g>
<g>
	<polygon fill-rule="evenodd" clip-rule="evenodd" fill="#BBBBBB" points="135.4,122.9 135.4,114.2 139.2,114.2 139.2,122.9 
		137.3,126.1 	"/>
	<path fill="#484848" d="M138.2,115.2v7.5l-0.9,1.5l-0.9-1.5v-7.5H138.2 M140.2,113.2h-2h-1.9h-2v2v7.5v0.6l0.3,0.5l0.9,1.5l1.7,2.8
		l1.7-2.8l0.9-1.5l0.3-0.5v-0.6v-7.5V113.2L140.2,113.2z"/>
</g>
<g>
	<polygon fill-rule="evenodd" clip-rule="evenodd" fill="#B3B3B3" points="110.6,172.9 110.6,164.2 114.5,164.2 114.5,172.9 
		112.5,176.1 	"/>
	<path fill="#484848" d="M113.5,165.2v7.5l-0.9,1.5l-0.9-1.5v-7.5H113.5 M115.5,163.2h-2h-1.9h-2v2v7.5v0.6l0.3,0.5l0.9,1.5l1.7,2.8
		l1.7-2.8l0.9-1.5l0.3-0.5v-0.6v-7.5V163.2L115.5,163.2z"/>
</g>
<g>
	<rect x="60.6" y="164.2" fill-rule="evenodd" clip-rule="evenodd" fill="#BBBBBB" width="28.6" height="5.4"/>
	<path fill="#484848" d="M88.2,165.2v3.4H61.6v-3.4H88.2 M90.2,163.2h-2H61.6h-2v2v3.4v2h2h26.6h2v-2v-3.4V163.2L90.2,163.2z"/>
</g>
<g>
	<polygon fill-rule="evenodd" clip-rule="evenodd" fill="#B3B3B3" points="60.6,172.9 60.6,164.2 64.5,164.2 64.5,172.9 62.6,176.1 
			"/>
	<path fill="#484848" d="M63.5,165.2v7.5l-0.9,1.5l-0.9-1.5v-7.5H63.5 M65.5,163.2h-2h-1.9h-2v2v7.5v0.6l0.3,0.5l0.9,1.5l1.7,2.8
		l1.7-2.8l0.9-1.5l0.3-0.5v-0.6v-7.5V163.2L65.5,163.2z"/>
</g>
<g>
	<rect x="10.6" y="164.2" fill-rule="evenodd" clip-rule="evenodd" fill="#BBBBBB" width="28.6" height="5.4"/>
	<path fill="#484848" d="M38.2,165.2v3.4H11.6v-3.4H38.2 M40.2,163.2h-2H11.6h-2v2v3.4v2h2h26.6h2v-2v-3.4V163.2L40.2,163.2z"/>
</g>
<g>
	<polygon fill-rule="evenodd" clip-rule="evenodd" fill="#B3B3B3" points="10.6,172.9 10.6,164.2 14.5,164.2 14.5,172.9 12.5,176.1 
			"/>
	<path fill="#484848" d="M13.5,165.2v7.5l-0.9,1.5l-0.9-1.5v-7.5H13.5 M15.5,163.2h-2h-1.9h-2v2v7.5v0.6l0.3,0.5l0.9,1.5l1.7,2.8
		l1.7-2.8l0.9-1.5l0.3-0.5v-0.6v-7.5V163.2L15.5,163.2z"/>
</g>
</svg>
