<svg version="1.1" id="Layer_3" xmlns="http://www.w3.org/2000/svg" x="0" y="0" width="150" height="250" viewBox="0 0 150 250" xml:space="preserve"><g><g><rect x="23.2" y="102.3" fill-rule="evenodd" clip-rule="evenodd" fill="#BBB" width="3.5" height="15.3"/></g><g><path fill="#484848" d="M25.7 103.3v13.3h-1.5v-13.3h1.5m2-2h-5.5v17.3h5.5v-17.3z"/></g></g><g><rect x="23.2" y="152.3" fill-rule="evenodd" clip-rule="evenodd" fill="#BBB" width="3.5" height="15.3"/><path fill="#484848" d="M25.7 153.3v13.3h-1.5v-13.3h1.5m2-2h-5.5v17.3h5.5v-17.3z"/></g><g><rect x="73.2" y="152.3" fill-rule="evenodd" clip-rule="evenodd" fill="#BBB" width="3.5" height="15.3"/><path fill="#484848" d="M75.7 153.3v13.3h-1.5v-13.3h1.5m2-2h-5.5v17.3h5.5v-17.3z"/></g><g><rect x="123.2" y="152.3" fill-rule="evenodd" clip-rule="evenodd" fill="#BBB" width="3.5" height="15.3"/><path fill="#484848" d="M125.7 153.3v13.3h-1.5v-13.3h1.5m2-2h-5.5v17.3h5.5v-17.3z"/></g><g><g><rect x="73.2" y="102.3" fill-rule="evenodd" clip-rule="evenodd" fill="#BBB" width="3.5" height="15.3"/></g><g><path fill="#484848" d="M75.7 103.3v13.3h-1.5v-13.3h1.5m2-2h-5.5v17.3h5.5v-17.3z"/></g></g><g><g><rect x="123.2" y="102.3" fill-rule="evenodd" clip-rule="evenodd" fill="#BBB" width="3.5" height="15.3"/></g><g><path fill="#484848" d="M125.7 103.3v13.3h-1.5v-13.3h1.5m2-2h-5.5v17.3h5.5v-17.3z"/></g></g><g><path fill-rule="evenodd" clip-rule="evenodd" fill="#A27556" d="M10.9 14.8l.5-1.4c2.2-5.7 7.4-9.3 13.5-9.3s11.2 3.6 13.5 9.3l.5 1.4h-28z"/><path fill="#4C4134" d="M24.9 5.1c5.1 0 10.3 2.9 12.5 8.7h-25c2.2-5.8 7.4-8.7 12.5-8.7m0-2c-6.5 0-12 3.8-14.4 9.9l-1.1 2.7h30.9L39.2 13C37 6.9 31.4 3.1 24.9 3.1z"/></g><g><rect x="23.2" y="2.3" fill-rule="evenodd" clip-rule="evenodd" fill="#BBB" width="3.5" height="19.4"/><path fill="#484848" d="M25.7 3.3v17.4h-1.5V3.3h1.5m2-2h-5.5v21.4h5.5V1.3z"/></g><g><rect x="10.6" y="14.2" fill-rule="evenodd" clip-rule="evenodd" fill="#BBB" width="28.6" height="5.4"/><path fill="#484848" d="M38.2 15.2v3.4H11.6v-3.4h26.6m2-2H9.6v7.4h30.6v-7.4z"/></g><g><polygon fill-rule="evenodd" clip-rule="evenodd" fill="#BBB" points="22.1,23.1 22.1,14.2 27.7,14.2 27.7,23.1 24.9,25.5 	"/><path fill="#484848" d="M26.7 15.2v7.5l-1.8 1.5-1.8-1.5v-7.5h3.6m2-2h-7.6v10.4l.7.6 1.8 1.5 1.3 1.1 1.3-1.1 1.8-1.5.7-.6V13.2z"/></g><g><path fill-rule="evenodd" clip-rule="evenodd" fill="#A27556" d="M10.9 64.8l.5-1.4c2.2-5.7 7.4-9.3 13.5-9.3s11.2 3.6 13.5 9.3l.5 1.4h-28z"/><path fill="#4C4134" d="M24.9 55.1c5.1 0 10.3 2.9 12.5 8.7h-25c2.2-5.8 7.4-8.7 12.5-8.7m0-2c-6.5 0-12 3.8-14.4 9.9l-1.1 2.7h30.9L39.2 63c-2.2-6.1-7.8-9.9-14.3-9.9z"/></g><g><path fill-rule="evenodd" clip-rule="evenodd" fill="#A27556" d="M10.9 114.8l.5-1.4c2.2-5.7 7.4-9.3 13.5-9.3s11.2 3.6 13.5 9.3l.5 1.4h-28z"/><path fill="#4C4134" d="M24.9 105.1c5.1 0 10.3 2.9 12.5 8.7h-25c2.2-5.8 7.4-8.7 12.5-8.7m0-2c-6.5 0-12 3.8-14.4 9.9l-1.1 2.7h30.9l-1.1-2.7c-2.2-6.1-7.8-9.9-14.3-9.9z"/></g><g><path fill-rule="evenodd" clip-rule="evenodd" fill="#A27556" d="M10.9 164.8l.5-1.4c2.2-5.7 7.4-9.3 13.5-9.3s11.2 3.6 13.5 9.3l.5 1.4h-28z"/><path fill="#4C4134" d="M24.9 155.1c5.1 0 10.3 2.9 12.5 8.7h-25c2.2-5.8 7.4-8.7 12.5-8.7m0-2c-6.5 0-12 3.8-14.4 9.9l-1.1 2.7h30.9l-1.1-2.7c-2.2-6.1-7.8-9.9-14.3-9.9z"/></g><g><path fill-rule="evenodd" clip-rule="evenodd" fill="#A27556" d="M60.9 164.8l.5-1.4c2.2-5.7 7.4-9.3 13.5-9.3s11.2 3.6 13.5 9.3l.5 1.4h-28z"/><path fill="#4C4134" d="M74.9 155.1c5.1 0 10.3 2.9 12.5 8.7h-25c2.2-5.8 7.4-8.7 12.5-8.7m0-2c-6.5 0-12 3.8-14.4 9.9l-1.1 2.7h30.9l-1.1-2.7c-2.2-6.1-7.8-9.9-14.3-9.9z"/></g><g><path fill-rule="evenodd" clip-rule="evenodd" fill="#A27556" d="M110.9 164.8l.5-1.4c2.2-5.7 7.4-9.3 13.5-9.3s11.2 3.6 13.5 9.3l.5 1.4h-28z"/><path fill="#4C4134" d="M124.9 155.1c5.2 0 10.3 2.9 12.5 8.7h-25.1c2.3-5.8 7.5-8.7 12.6-8.7m0-2c-6.5 0-12 3.8-14.4 9.9l-1.1 2.7h30.9l-1.1-2.7c-2.2-6.1-7.8-9.9-14.3-9.9z"/></g><g><path fill-rule="evenodd" clip-rule="evenodd" fill="#A27556" d="M60.9 114.8l.5-1.4c2.2-5.7 7.4-9.3 13.5-9.3s11.2 3.6 13.5 9.3l.5 1.4h-28z"/><path fill="#4C4134" d="M74.9 105.1c5.1 0 10.3 2.9 12.5 8.7h-25c2.2-5.8 7.4-8.7 12.5-8.7m0-2c-6.5 0-12 3.8-14.4 9.9l-1.1 2.7h30.9l-1.1-2.7c-2.2-6.1-7.8-9.9-14.3-9.9z"/></g><g><path fill-rule="evenodd" clip-rule="evenodd" fill="#A27556" d="M110.9 114.8l.5-1.4c2.2-5.7 7.4-9.3 13.5-9.3s11.2 3.6 13.5 9.3l.5 1.4h-28z"/><path fill="#4C4134" d="M124.9 105.1c5.2 0 10.3 2.9 12.5 8.7h-25.1c2.3-5.8 7.5-8.7 12.6-8.7m0-2c-6.5 0-12 3.8-14.4 9.9l-1.1 2.7h30.9l-1.1-2.7c-2.2-6.1-7.8-9.9-14.3-9.9z"/></g><g><g><rect x="23.2" y="52.3" fill-rule="evenodd" clip-rule="evenodd" fill="#BBB" width="3.5" height="15.3"/></g><g><path fill="#484848" d="M25.7 53.3v13.3h-1.5V53.3h1.5m2-2h-5.5v17.3h5.5V51.3z"/></g></g><g><rect x="10.6" y="64.2" fill-rule="evenodd" clip-rule="evenodd" fill="#BBB" width="28.6" height="5.4"/><path fill="#484848" d="M38.2 65.2v3.4H11.6v-3.4h26.6m2-2H9.6v7.4h30.6v-7.4z"/></g><g><rect x="10.6" y="114.2" fill-rule="evenodd" clip-rule="evenodd" fill="#BBB" width="28.6" height="5.4"/><path fill="#484848" d="M38.2 115.2v3.4H11.6v-3.4h26.6m2-2H9.6v7.4h30.6v-7.4z"/></g><g><rect x="110.6" y="164.2" fill-rule="evenodd" clip-rule="evenodd" fill="#BBB" width="28.6" height="5.4"/><path fill="#484848" d="M138.2 165.2v3.4h-26.6v-3.4h26.6m2-2h-30.6v7.4h30.6v-7.4z"/></g><g><rect x="60.6" y="114.2" fill-rule="evenodd" clip-rule="evenodd" fill="#BBB" width="28.6" height="5.4"/><path fill="#484848" d="M88.2 115.2v3.4H61.6v-3.4h26.6m2-2H59.6v7.4h30.6v-7.4z"/></g><g><rect x="110.6" y="114.2" fill-rule="evenodd" clip-rule="evenodd" fill="#BBB" width="28.6" height="5.4"/><path fill="#484848" d="M138.2 115.2v3.4h-26.6v-3.4h26.6m2-2h-30.6v7.4h30.6v-7.4z"/></g><g><path fill-rule="evenodd" clip-rule="evenodd" fill="#A27556" d="M10.9 214.8l.5-1.4c2.2-5.7 7.4-9.3 13.5-9.3s11.2 3.6 13.5 9.3l.5 1.4h-28z"/><path fill="#4C4134" d="M24.9 205.1c5.1 0 10.3 2.9 12.5 8.7h-25c2.2-5.8 7.4-8.7 12.5-8.7m0-2c-6.5 0-12 3.8-14.4 9.9l-1.1 2.7h30.9l-1.1-2.7c-2.2-6.1-7.8-9.9-14.3-9.9z"/></g><g><rect x="23.2" y="202.3" fill-rule="evenodd" clip-rule="evenodd" fill="#BBB" width="3.5" height="19.4"/><path fill="#484848" d="M25.7 203.3v17.4h-1.5v-17.4h1.5m2-2h-5.5v21.4h5.5v-21.4z"/></g><g><rect x="10.6" y="214.2" fill-rule="evenodd" clip-rule="evenodd" fill="#BBB" width="28.6" height="5.4"/><path fill="#484848" d="M38.2 215.2v3.4H11.6v-3.4h26.6m2-2H9.6v7.4h30.6v-7.4z"/></g><g><polygon fill-rule="evenodd" clip-rule="evenodd" fill="#BBB" points="22.1,223.1 22.1,214.2 27.7,214.2 27.7,223.1 24.9,225.5 
			"/><path fill="#484848" d="M26.7 215.2v7.5l-1.8 1.5-1.8-1.5v-7.5h3.6m2-2h-7.6v10.4l.7.6 1.8 1.5 1.3 1.1 1.3-1.1 1.8-1.5.7-.6v-10.4z"/></g><g><path fill-rule="evenodd" clip-rule="evenodd" fill="#A27556" d="M60.9 14.8l.5-1.4c2.2-5.7 7.4-9.3 13.5-9.3s11.2 3.6 13.5 9.3l.5 1.4h-28z"/><path fill="#4C4134" d="M74.9 5.1c5.1 0 10.3 2.9 12.5 8.7h-25c2.2-5.8 7.4-8.7 12.5-8.7m0-2c-6.5 0-12 3.8-14.4 9.9l-1.1 2.7h30.9L89.2 13C87 6.9 81.4 3.1 74.9 3.1z"/></g><g><rect x="73.2" y="2.3" fill-rule="evenodd" clip-rule="evenodd" fill="#BBB" width="3.5" height="19.4"/><path fill="#484848" d="M75.7 3.3v17.4h-1.5V3.3h1.5m2-2h-5.5v21.4h5.5V1.3z"/></g><g><rect x="60.6" y="14.2" fill-rule="evenodd" clip-rule="evenodd" fill="#BBB" width="28.6" height="5.4"/><path fill="#484848" d="M88.2 15.2v3.4H61.6v-3.4h26.6m2-2H59.6v7.4h30.6v-7.4z"/></g><g><polygon fill-rule="evenodd" clip-rule="evenodd" fill="#BBB" points="72.1,23.1 72.1,14.2 77.7,14.2 77.7,23.1 74.9,25.5 	"/><path fill="#484848" d="M76.7 15.2v7.5l-1.8 1.5-1.8-1.5v-7.5h3.6m2-2h-7.6v10.4l.7.6 1.8 1.5 1.3 1.1 1.3-1.1 1.8-1.5.7-.6V13.2z"/></g><g><path fill-rule="evenodd" clip-rule="evenodd" fill="#A27556" d="M60.9 64.8l.5-1.4c2.2-5.7 7.4-9.3 13.5-9.3s11.2 3.6 13.5 9.3l.5 1.4h-28z"/><path fill="#4C4134" d="M74.9 55.1c5.1 0 10.3 2.9 12.5 8.7h-25c2.2-5.8 7.4-8.7 12.5-8.7m0-2c-6.5 0-12 3.8-14.4 9.9l-1.1 2.7h30.9L89.2 63c-2.2-6.1-7.8-9.9-14.3-9.9z"/></g><g><g><rect x="73.2" y="52.3" fill-rule="evenodd" clip-rule="evenodd" fill="#BBB" width="3.5" height="15.3"/></g><g><path fill="#484848" d="M75.7 53.3v13.3h-1.5V53.3h1.5m2-2h-5.5v17.3h5.5V51.3z"/></g></g><g><rect x="60.6" y="64.2" fill-rule="evenodd" clip-rule="evenodd" fill="#BBB" width="28.6" height="5.4"/><path fill="#484848" d="M88.2 65.2v3.4H61.6v-3.4h26.6m2-2H59.6v7.4h30.6v-7.4z"/></g><g><path fill-rule="evenodd" clip-rule="evenodd" fill="#A27556" d="M60.9 214.8l.5-1.4c2.2-5.7 7.4-9.3 13.5-9.3s11.2 3.6 13.5 9.3l.5 1.4h-28z"/><path fill="#4C4134" d="M74.9 205.1c5.1 0 10.3 2.9 12.5 8.7h-25c2.2-5.8 7.4-8.7 12.5-8.7m0-2c-6.5 0-12 3.8-14.4 9.9l-1.1 2.7h30.9l-1.1-2.7c-2.2-6.1-7.8-9.9-14.3-9.9z"/></g><g><rect x="73.2" y="202.3" fill-rule="evenodd" clip-rule="evenodd" fill="#BBB" width="3.5" height="19.4"/><path fill="#484848" d="M75.7 203.3v17.4h-1.5v-17.4h1.5m2-2h-5.5v21.4h5.5v-21.4z"/></g><g><rect x="60.6" y="214.2" fill-rule="evenodd" clip-rule="evenodd" fill="#BBB" width="28.6" height="5.4"/><path fill="#484848" d="M88.2 215.2v3.4H61.6v-3.4h26.6m2-2H59.6v7.4h30.6v-7.4z"/></g><g><polygon fill-rule="evenodd" clip-rule="evenodd" fill="#BBB" points="72.1,223.1 72.1,214.2 77.7,214.2 77.7,223.1 74.9,225.5 
			"/><path fill="#484848" d="M76.7 215.2v7.5l-1.8 1.5-1.8-1.5v-7.5h3.6m2-2h-7.6v10.4l.7.6 1.8 1.5 1.3 1.1 1.3-1.1 1.8-1.5.7-.6v-10.4z"/></g><g><path fill-rule="evenodd" clip-rule="evenodd" fill="#A27556" d="M110.9 14.8l.5-1.4c2.2-5.7 7.4-9.3 13.5-9.3s11.2 3.6 13.5 9.3l.5 1.4h-28z"/><path fill="#4C4134" d="M124.9 5.1c5.2 0 10.3 2.9 12.5 8.7h-25.1c2.3-5.8 7.5-8.7 12.6-8.7m0-2c-6.5 0-12 3.8-14.4 9.9l-1.1 2.7h30.9l-1.1-2.7c-2.2-6.1-7.8-9.9-14.3-9.9z"/></g><g><rect x="123.2" y="2.3" fill-rule="evenodd" clip-rule="evenodd" fill="#BBB" width="3.5" height="19.4"/><path fill="#484848" d="M125.7 3.3v17.4h-1.5V3.3h1.5m2-2h-5.5v21.4h5.5V1.3z"/></g><g><rect x="110.6" y="14.2" fill-rule="evenodd" clip-rule="evenodd" fill="#BBB" width="28.6" height="5.4"/><path fill="#484848" d="M138.2 15.2v3.4h-26.6v-3.4h26.6m2-2h-30.6v7.4h30.6v-7.4z"/></g><g><polygon fill-rule="evenodd" clip-rule="evenodd" fill="#BBB" points="122.1,23.1 122.1,14.2 127.7,14.2 127.7,23.1 124.9,25.5 
			"/><path fill="#484848" d="M126.7 15.2v7.5l-1.8 1.5-1.8-1.5v-7.5h3.6m2-2h-7.6v10.4l.7.6 1.8 1.5 1.3 1.1 1.3-1.1 1.8-1.5.7-.6V13.2z"/></g><g><path fill-rule="evenodd" clip-rule="evenodd" fill="#A27556" d="M110.9 64.8l.5-1.4c2.2-5.7 7.4-9.3 13.5-9.3s11.2 3.6 13.5 9.3l.5 1.4h-28z"/><path fill="#4C4134" d="M124.9 55.1c5.2 0 10.3 2.9 12.5 8.7h-25.1c2.3-5.8 7.5-8.7 12.6-8.7m0-2c-6.5 0-12 3.8-14.4 9.9l-1.1 2.7h30.9l-1.1-2.7c-2.2-6.1-7.8-9.9-14.3-9.9z"/></g><g><g><rect x="123.2" y="52.3" fill-rule="evenodd" clip-rule="evenodd" fill="#BBB" width="3.5" height="15.3"/></g><g><path fill="#484848" d="M125.7 53.3v13.3h-1.5V53.3h1.5m2-2h-5.5v17.3h5.5V51.3z"/></g></g><g><rect x="110.6" y="64.2" fill-rule="evenodd" clip-rule="evenodd" fill="#BBB" width="28.6" height="5.4"/><path fill="#484848" d="M138.2 65.2v3.4h-26.6v-3.4h26.6m2-2h-30.6v7.4h30.6v-7.4z"/></g><g><path fill-rule="evenodd" clip-rule="evenodd" fill="#A27556" d="M110.9 214.8l.5-1.4c2.2-5.7 7.4-9.3 13.5-9.3s11.2 3.6 13.5 9.3l.5 1.4h-28z"/><path fill="#4C4134" d="M124.9 205.1c5.2 0 10.3 2.9 12.5 8.7h-25.1c2.3-5.8 7.5-8.7 12.6-8.7m0-2c-6.5 0-12 3.8-14.4 9.9l-1.1 2.7h30.9l-1.1-2.7c-2.2-6.1-7.8-9.9-14.3-9.9z"/></g><g><rect x="123.2" y="202.3" fill-rule="evenodd" clip-rule="evenodd" fill="#BBB" width="3.5" height="19.4"/><path fill="#484848" d="M125.7 203.3v17.4h-1.5v-17.4h1.5m2-2h-5.5v21.4h5.5v-21.4z"/></g><g><rect x="110.6" y="214.2" fill-rule="evenodd" clip-rule="evenodd" fill="#BBB" width="28.6" height="5.4"/><path fill="#484848" d="M138.2 215.2v3.4h-26.6v-3.4h26.6m2-2h-30.6v7.4h30.6v-7.4z"/></g><g><polygon fill-rule="evenodd" clip-rule="evenodd" fill="#BBB" points="122.1,223.1 122.1,214.2 127.7,214.2 127.7,223.1 
		124.9,225.5 	"/><path fill="#484848" d="M126.7 215.2v7.5l-1.8 1.5-1.8-1.5v-7.5h3.6m2-2h-7.6v10.4l.7.6 1.8 1.5 1.3 1.1 1.3-1.1 1.8-1.5.7-.6v-10.4z"/></g><g><polygon fill-rule="evenodd" clip-rule="evenodd" fill="#BBB" points="35.4,122.9 35.4,114.2 39.2,114.2 39.2,122.9 37.3,126.1 
			"/><path fill="#484848" d="M38.2 115.2v7.5l-.9 1.5-.9-1.5v-7.5h1.8m2-2h-5.9v10.1l.3.5.9 1.5 1.7 2.8 1.7-2.8.9-1.5.3-.5v-10.1h.1z"/></g><g><polygon fill-rule="evenodd" clip-rule="evenodd" fill="#BBB" points="85.4,122.9 85.4,114.2 89.2,114.2 89.2,122.9 87.3,126.1 
			"/><path fill="#484848" d="M88.2 115.2v7.5l-.9 1.5-.9-1.5v-7.5h1.8m2-2h-5.9v10.1l.3.5.9 1.5 1.7 2.8 1.7-2.8.9-1.5.3-.5v-10.1h.1z"/></g><g><polygon fill-rule="evenodd" clip-rule="evenodd" fill="#BBB" points="135.4,122.9 135.4,114.2 139.2,114.2 139.2,122.9 
		137.3,126.1 	"/><path fill="#484848" d="M138.2 115.2v7.5l-.9 1.5-.9-1.5v-7.5h1.8m2-2h-5.9v10.1l.3.5.9 1.5 1.7 2.8 1.7-2.8.9-1.5.3-.5v-10.1h.1z"/></g><g><polygon fill-rule="evenodd" clip-rule="evenodd" fill="#B3B3B3" points="110.6,172.9 110.6,164.2 114.5,164.2 114.5,172.9 
		112.5,176.1 	"/><path fill="#484848" d="M113.5 165.2v7.5l-.9 1.5-.9-1.5v-7.5h1.8m2-2h-5.9v10.1l.3.5.9 1.5 1.7 2.8 1.7-2.8.9-1.5.3-.5v-10.1h.1z"/></g><g><rect x="60.6" y="164.2" fill-rule="evenodd" clip-rule="evenodd" fill="#BBB" width="28.6" height="5.4"/><path fill="#484848" d="M88.2 165.2v3.4H61.6v-3.4h26.6m2-2H59.6v7.4h30.6v-7.4z"/></g><g><polygon fill-rule="evenodd" clip-rule="evenodd" fill="#B3B3B3" points="60.6,172.9 60.6,164.2 64.5,164.2 64.5,172.9 62.6,176.1 
			"/><path fill="#484848" d="M63.5 165.2v7.5l-.9 1.5-.9-1.5v-7.5h1.8m2-2h-5.9v10.1l.3.5.9 1.5 1.7 2.8 1.7-2.8.9-1.5.3-.5v-10.1h.1z"/></g><g><rect x="10.6" y="164.2" fill-rule="evenodd" clip-rule="evenodd" fill="#BBB" width="28.6" height="5.4"/><path fill="#484848" d="M38.2 165.2v3.4H11.6v-3.4h26.6m2-2H9.6v7.4h30.6v-7.4z"/></g><g><polygon fill-rule="evenodd" clip-rule="evenodd" fill="#B3B3B3" points="10.6,172.9 10.6,164.2 14.5,164.2 14.5,172.9 12.5,176.1 
			"/><path fill="#484848" d="M13.5 165.2v7.5l-.9 1.5-.9-1.5v-7.5h1.8m2-2H9.6v10.1l.3.5.9 1.5 1.7 2.8 1.7-2.8.9-1.5.3-.5v-10.1h.1z"/></g></svg>