<svg version="1.1" id="Layer_3" xmlns="http://www.w3.org/2000/svg" x="0" y="0" width="150" height="250" viewBox="0 0 150 250" xml:space="preserve"><g><path fill-rule="evenodd" clip-rule="evenodd" fill="#4F392A" d="M36 13.8c-2.2-2-4.9-2.4-7.4-2.7-3.2-.4-6.5-.9-7.9-4.9-.9.7-1.3 1.7-1.6 2.8-.6 1.6-1.3 3.6-4 3.6-.6 0-1.2-.1-1.9-.3l-1-.3.3-1c1.5-5.7 6.8-9.9 12.4-9.9 6.4 0 12 5.1 12.8 11.7l.3 2.6-2-1.6z"/><g><path fill="#4F392A" d="M24.9 2.2C31 2.2 36 7.1 36.7 13 31 7.8 23 12.6 21.4 4.6c-4.2 1.6-2.4 6.9-6.3 6.9-.5 0-1-.1-1.6-.2 1.3-5 5.9-9.1 11.4-9.1m0-2c-6.1 0-11.7 4.5-13.4 10.6l-.5 1.9 1.9.5c.8.2 1.5.3 2.1.3 3.4 0 4.3-2.7 4.9-4.3.2-.5.3-.9.5-1.2 1.9 3.2 5.2 3.6 8 4 2.5.3 4.9.6 6.9 2.5l3.9 3.6-.6-5.3C37.9 5.7 31.8.2 24.9.2z"/></g></g><path fill-rule="evenodd" clip-rule="evenodd" fill="#70513B" d="M24.9 2.6C31 2.6 36 7.1 36.7 13c-1.1-1-2.2-1.6-3.4-2 .3-4.9-3-8.4-8.4-8.4z"/><g><path fill-rule="evenodd" clip-rule="evenodd" fill="#4F392A" d="M15.3 122.7c-1.1 0-1.9-.3-2.4-1s-.5-1.5-.4-2c-1.3-6.9.6-11.1 2.5-13.4 2.5-3.1 6.5-4.8 11-4.8 5.9 0 10.9 2.9 12.6 7.2l.6 1.6-1.7-.2c-2.3-.3-4.1-.4-5.5-.4-4.1 0-4.5 1.3-4.6 3.1l-.1 1.7-1.4-1c-.8-.6-1.7-.8-2.6-.8-1.7 0-3.4 1.1-4.2 2.8-.8 1.6-.6 3.4.5 4.8l.8 1.1-1.3.5c-1.6.5-2.8.8-3.8.8z"/><g><path fill="#4F392A" d="M26 102.6c5.1 0 10.1 2.4 11.7 6.6-2.3-.3-4.1-.4-5.6-.4-4.1 0-5.4 1.2-5.6 4-1-.7-2.1-1-3.2-1-4.2 0-7.6 5.1-4.5 9.2-1.6.6-2.7.8-3.5.8-2.4 0-1.8-1.9-1.8-1.9-2.5-12.2 5.1-17.3 12.5-17.3m0-2c-4.8 0-9.1 1.9-11.8 5.2-2 2.4-4.1 6.9-2.7 14.1-.1.9.1 1.9.7 2.6.5.6 1.4 1.3 3.2 1.3 1.1 0 2.5-.3 4.2-.9l2.6-.9-1.6-2.2c-1.2-1.6-.8-3-.4-3.8.7-1.3 2-2.2 3.3-2.2.7 0 1.4.2 2 .7l2.9 1.9.2-3.5c.1-1.3.1-2.2 3.6-2.2 1.3 0 3.1.1 5.3.4l3.3.4-1.2-3.1c-1.9-4.7-7.3-7.8-13.6-7.8z"/></g></g><g><path fill-rule="evenodd" clip-rule="evenodd" fill="#4F392A" d="M65.3 122.7c-1.1 0-1.9-.3-2.4-1s-.5-1.5-.4-2c-1.3-6.9.6-11.1 2.5-13.4 2.5-3.1 6.5-4.8 11-4.8 5.9 0 10.9 2.9 12.6 7.2l.6 1.6-1.7-.2c-2.3-.3-4.1-.4-5.5-.4-4.1 0-4.5 1.3-4.6 3.1l-.1 1.7-1.4-1c-.8-.6-1.7-.8-2.6-.8-1.7 0-3.4 1.1-4.2 2.8-.8 1.6-.6 3.4.5 4.8l.8 1.1-1.3.5c-1.6.5-2.8.8-3.8.8z"/><g><path fill="#4F392A" d="M76 102.6c5.1 0 10.1 2.4 11.7 6.6-2.3-.3-4.1-.4-5.6-.4-4.1 0-5.4 1.2-5.6 4-1-.7-2.1-1-3.2-1-4.2 0-7.6 5.1-4.5 9.2-1.6.6-2.7.8-3.5.8-2.4 0-1.8-1.9-1.8-1.9-2.5-12.2 5.1-17.3 12.5-17.3m0-2c-4.8 0-9.1 1.9-11.8 5.2-2 2.4-4.1 6.9-2.7 14.1-.1.9.1 1.9.7 2.6.5.6 1.4 1.3 3.2 1.3 1.1 0 2.5-.3 4.2-.9l2.6-.9-1.6-2.2c-1.2-1.6-.8-3-.4-3.8.7-1.3 2-2.2 3.3-2.2.7 0 1.4.2 2 .7l2.9 1.9.2-3.5c.1-1.3.1-2.2 3.6-2.2 1.3 0 3.1.1 5.3.4l3.3.4-1.2-3.1c-1.9-4.7-7.3-7.8-13.6-7.8z"/></g></g><g><path fill-rule="evenodd" clip-rule="evenodd" fill="#4F392A" d="M115.3 122.7c-1.1 0-1.9-.3-2.4-1s-.5-1.5-.4-2c-1.3-6.9.6-11.1 2.5-13.4 2.5-3.1 6.5-4.8 11-4.8 5.9 0 10.9 2.9 12.6 7.2l.6 1.6-1.7-.2c-2.3-.3-4.1-.4-5.5-.4-4.1 0-4.5 1.3-4.6 3.1l-.1 1.7-1.4-1c-.8-.6-1.7-.8-2.6-.8-1.7 0-3.4 1.1-4.2 2.8-.8 1.6-.6 3.4.5 4.8l.8 1.1-1.3.5c-1.6.5-2.8.8-3.8.8z"/><g><path fill="#4F392A" d="M126 102.6c5.1 0 10.1 2.4 11.7 6.6-2.3-.3-4.1-.4-5.6-.4-4.1 0-5.4 1.2-5.6 4-1-.7-2.1-1-3.2-1-4.2 0-7.6 5.1-4.5 9.2-1.6.6-2.7.8-3.5.8-2.4 0-1.8-1.9-1.8-1.9-2.5-12.2 5.1-17.3 12.5-17.3m0-2c-4.8 0-9.1 1.9-11.8 5.2-2 2.4-4.1 6.8-2.7 14.1-.1.9.1 1.9.7 2.6.5.6 1.4 1.3 3.2 1.3 1.1 0 2.5-.3 4.2-.9l2.6-.9-1.6-2.2c-1.2-1.6-.8-3-.4-3.8.7-1.3 2-2.2 3.3-2.2.7 0 1.4.2 2 .7l2.9 1.9.2-3.5c.1-1.3.1-2.2 3.6-2.2 1.3 0 3.1.1 5.3.4l3.3.4-1.2-3.1c-1.9-4.7-7.3-7.8-13.6-7.8z"/></g></g><g><path fill-rule="evenodd" clip-rule="evenodd" fill="#4F392A" d="M35.4 172.7c-1 0-2.3-.3-3.8-.9l-1.3-.5.8-1.1c1.1-1.5 1.3-3.2.5-4.8-.8-1.7-2.5-2.8-4.2-2.8-.9 0-1.8.3-2.6.8l-1.4 1-.1-1.7c-.1-1.8-.5-3.1-4.6-3.1-1.4 0-3.2.1-5.5.4l-1.7.2.6-1.6c1.7-4.3 6.8-7.2 12.6-7.2 4.5 0 8.5 1.8 11 4.8 1.9 2.3 3.8 6.5 2.5 13.4.1.4.1 1.3-.4 2-.5.8-1.3 1.1-2.4 1.1z"/><g><path fill="#4F392A" d="M24.7 152.6c7.4 0 14.9 5.1 12.5 17.2 0 0 .6 1.9-1.8 1.9-.8 0-1.9-.2-3.5-.8 3.1-4-.3-9.2-4.5-9.2-1 0-2.1.3-3.2 1-.2-2.8-1.6-4-5.6-4-1.5 0-3.3.2-5.6.4 1.6-4.1 6.6-6.5 11.7-6.5m0-2c-6.3 0-11.7 3.2-13.6 7.9l-1.2 3.1 3.3-.4c2.3-.3 4-.4 5.3-.4 3.5 0 3.6.8 3.6 2.2l.2 3.5 2.9-1.9c.7-.4 1.3-.7 2-.7 1.3 0 2.7.9 3.3 2.2.4.7.8 2.2-.4 3.8l-1.6 2.2 2.6.9c1.7.6 3.1.9 4.2.9 1.7 0 2.7-.7 3.2-1.3.5-.7.8-1.6.7-2.6 1.3-7.2-.7-11.6-2.7-14.1-2.7-3.4-7-5.3-11.8-5.3z"/></g></g><g><path fill-rule="evenodd" clip-rule="evenodd" fill="#4F392A" d="M85.4 172.7c-1 0-2.3-.3-3.8-.9l-1.3-.5.8-1.1c1.1-1.5 1.3-3.2.5-4.8-.8-1.7-2.5-2.8-4.2-2.8-.9 0-1.8.3-2.6.8l-1.4 1-.1-1.7c-.1-1.8-.5-3.1-4.6-3.1-1.4 0-3.2.1-5.5.4l-1.7.2.6-1.6c1.7-4.3 6.8-7.2 12.6-7.2 4.5 0 8.5 1.8 11 4.8 1.9 2.3 3.8 6.5 2.5 13.4.1.4.1 1.3-.4 2-.5.8-1.3 1.1-2.4 1.1z"/><g><path fill="#4F392A" d="M74.7 152.6c7.4 0 14.9 5.1 12.5 17.2 0 0 .6 1.9-1.8 1.9-.8 0-1.9-.2-3.5-.8 3.1-4-.3-9.2-4.5-9.2-1 0-2.1.3-3.2 1-.2-2.8-1.6-4-5.6-4-1.5 0-3.3.2-5.6.4 1.6-4.1 6.6-6.5 11.7-6.5m0-2c-6.3 0-11.7 3.2-13.6 7.9l-1.2 3.1 3.3-.4c2.3-.3 4-.4 5.3-.4 3.5 0 3.6.8 3.6 2.2l.2 3.4 2.9-1.9c.7-.4 1.3-.7 2-.7 1.3 0 2.7.9 3.3 2.2.4.7.8 2.2-.4 3.8l-1.6 2.2 2.6.9c1.7.6 3.1.9 4.2.9 1.7 0 2.7-.7 3.2-1.3.5-.7.8-1.6.7-2.6 1.3-7.2-.7-11.6-2.7-14.1-2.7-3.3-7-5.2-11.8-5.2z"/></g></g><g><path fill-rule="evenodd" clip-rule="evenodd" fill="#4F392A" d="M135.4 172.7c-1 0-2.3-.3-3.8-.9l-1.3-.5.8-1.1c1.1-1.5 1.3-3.2.5-4.8-.8-1.7-2.5-2.8-4.2-2.8-.9 0-1.8.3-2.6.8l-1.4 1-.1-1.7c-.1-1.8-.5-3.1-4.6-3.1-1.4 0-3.2.1-5.5.4l-1.7.2.6-1.6c1.7-4.3 6.8-7.2 12.6-7.2 4.5 0 8.5 1.8 11 4.8 1.9 2.3 3.8 6.5 2.5 13.4.1.4.1 1.3-.4 2-.5.8-1.3 1.1-2.4 1.1z"/><g><path fill="#4F392A" d="M124.7 152.6c7.4 0 14.9 5.1 12.5 17.2 0 0 .6 1.9-1.8 1.9-.8 0-1.9-.2-3.5-.8 3.1-4-.3-9.2-4.5-9.2-1 0-2.1.3-3.2 1-.2-2.8-1.6-4-5.6-4-1.5 0-3.3.2-5.6.4 1.6-4.1 6.6-6.5 11.7-6.5m0-2c-6.3 0-11.7 3.2-13.6 7.9l-1.2 3.1 3.3-.4c2.3-.3 4-.4 5.3-.4 3.5 0 3.6.8 3.6 2.2l.2 3.5 2.9-1.9c.7-.4 1.3-.7 2-.7 1.3 0 2.7.9 3.3 2.2.4.7.8 2.2-.4 3.8l-1.6 2.2 2.6.9c1.7.6 3.1.9 4.2.9 1.7 0 2.7-.7 3.2-1.3.5-.7.8-1.6.7-2.6 1.3-7.2-.7-11.6-2.7-14.1-2.7-3.4-7-5.3-11.8-5.3z"/></g></g><path fill-rule="evenodd" clip-rule="evenodd" fill="#70513B" d="M34.9 171.7c5.9.6 4.4-19.1-10.2-19.1 9.8 0 11.8 11.4 10.2 19.1z"/><path fill-rule="evenodd" clip-rule="evenodd" fill="#70513B" d="M84.9 171.7c5.9.6 4.4-19.1-10.2-19.1 9.8 0 11.8 11.4 10.2 19.1z"/><path fill-rule="evenodd" clip-rule="evenodd" fill="#70513B" d="M134.9 171.7c5.9.6 4.4-19.1-10.2-19.1 9.8 0 11.8 11.4 10.2 19.1z"/><g><path fill-rule="evenodd" clip-rule="evenodd" fill="#4F392A" d="M24.9 72.7c-3.9 0-7.5-.5-10.5-1.4l-.4-.1-.2-.3c-2.3-4-2.3-8.8 0-12.9 2.3-4 6.5-6.4 11.1-6.4S33.7 54 36 58c2.3 4.1 2.3 8.9 0 12.9l-.2.3-.4.1c-3 .9-6.6 1.4-10.5 1.4z"/><g><path fill="#4F392A" d="M24.9 52.6c9.2 0 14.8 10 10.3 17.8-2.8.8-6.4 1.3-10.3 1.3-3.9 0-7.4-.5-10.3-1.3-4.5-7.8 1.1-17.8 10.3-17.8m0-2c-5 0-9.5 2.6-12 6.9-2.5 4.4-2.5 9.6 0 13.9l.4.7.8.2c3.1.9 6.9 1.4 10.8 1.4 4 0 7.7-.5 10.8-1.4l.8-.2.4-.7c2.5-4.3 2.5-9.5 0-13.9s-7-6.9-12-6.9z"/></g></g><g><path fill-rule="evenodd" clip-rule="evenodd" fill="#4F392A" d="M74.9 72.7c-3.9 0-7.5-.5-10.5-1.4l-.4-.1-.2-.3c-2.3-4-2.3-8.8 0-12.9 2.3-4 6.5-6.4 11.1-6.4S83.7 54 86 58c2.3 4.1 2.3 8.9 0 12.9l-.2.3-.4.1c-3 .9-6.6 1.4-10.5 1.4z"/><g><path fill="#4F392A" d="M74.9 52.6c9.2 0 14.8 10 10.3 17.8-2.8.8-6.4 1.3-10.3 1.3-3.9 0-7.4-.5-10.3-1.3-4.5-7.8 1.1-17.8 10.3-17.8m0-2c-5 0-9.5 2.6-12 6.9-2.5 4.4-2.5 9.6 0 13.9l.4.7.8.2c3.1.9 6.9 1.4 10.8 1.4 4 0 7.7-.5 10.8-1.4l.8-.2.4-.7c2.5-4.3 2.5-9.5 0-13.9s-7-6.9-12-6.9z"/></g></g><g><path fill-rule="evenodd" clip-rule="evenodd" fill="#4F392A" d="M124.9 72.7c-3.9 0-7.5-.5-10.5-1.4l-.4-.1-.2-.3c-2.3-4-2.3-8.8 0-12.9 2.3-4 6.5-6.4 11.1-6.4S133.7 54 136 58c2.3 4.1 2.3 8.9 0 12.9l-.2.3-.4.1c-3 .9-6.6 1.4-10.5 1.4z"/><g><path fill="#4F392A" d="M124.9 52.6c9.2 0 14.8 10 10.3 17.8-2.8.8-6.4 1.3-10.3 1.3s-7.4-.5-10.3-1.3c-4.5-7.8 1.1-17.8 10.3-17.8m0-2c-5 0-9.5 2.6-12 6.9-2.5 4.4-2.5 9.6 0 13.9l.4.7.8.2c3.1.9 6.9 1.4 10.8 1.4s7.7-.5 10.8-1.4l.8-.2.4-.7c2.5-4.3 2.5-9.5 0-13.9s-7-6.9-12-6.9z"/></g></g><path fill-rule="evenodd" clip-rule="evenodd" fill="#70513B" d="M36.2 68.2C35.3 59 31 53.6 20.5 53.4c9.5-3.8 18.9 5.3 15.7 14.8z"/><path fill-rule="evenodd" clip-rule="evenodd" fill="#70513B" d="M86.2 68.2C85.3 59 81 53.6 70.5 53.4c9.5-3.8 18.9 5.3 15.7 14.8z"/><path fill-rule="evenodd" clip-rule="evenodd" fill="#70513B" d="M136.2 68.2c-.8-9.2-5.2-14.7-15.6-14.8 9.4-3.8 18.8 5.3 15.6 14.8z"/><path fill-rule="evenodd" clip-rule="evenodd" fill="#70513B" d="M22.6 102.6c6.2-1.7 14 1.4 15.7 7.5-1.4-.7-3.1-1.1-4.4-1.2.7-3.6-6.7-7.7-11.3-6.3z"/><path fill-rule="evenodd" clip-rule="evenodd" fill="#70513B" d="M72.6 102.6c6.2-1.7 14 1.4 15.7 7.5-1.4-.7-3.1-1.1-4.4-1.2.7-3.6-6.7-7.7-11.3-6.3z"/><path fill-rule="evenodd" clip-rule="evenodd" fill="#70513B" d="M122.6 102.6c6.2-1.7 14 1.4 15.7 7.5-1.4-.7-3.1-1.1-4.4-1.2.7-3.6-6.7-7.7-11.3-6.3z"/><g><path fill-rule="evenodd" clip-rule="evenodd" fill="#4F392A" d="M86 13.8c-2.2-2-4.9-2.4-7.4-2.7-3.2-.4-6.5-.9-7.9-4.9-.9.7-1.3 1.7-1.6 2.8-.6 1.6-1.3 3.6-4 3.6-.6 0-1.2-.1-1.9-.3l-1-.3.3-1c1.5-5.7 6.8-9.9 12.4-9.9 6.4 0 12 5.1 12.8 11.7l.3 2.6-2-1.6z"/><g><path fill="#4F392A" d="M74.9 2.2C81 2.2 86 7.1 86.7 13 81 7.8 73 12.6 71.4 4.6c-4.2 1.6-2.4 6.9-6.3 6.9-.5 0-1-.1-1.6-.2 1.3-5 5.9-9.1 11.4-9.1m0-2c-6.1 0-11.7 4.5-13.4 10.6l-.5 1.9 1.9.5c.8.2 1.5.3 2.1.3 3.4 0 4.3-2.7 4.9-4.3.2-.5.3-.9.5-1.2 1.9 3.2 5.2 3.6 8 4 2.5.3 4.9.6 6.9 2.5l3.9 3.6-.6-5.3C87.9 5.7 81.8.2 74.9.2z"/></g></g><path fill-rule="evenodd" clip-rule="evenodd" fill="#70513B" d="M74.9 2.6C81 2.6 86 7.1 86.7 13c-1.1-1-2.2-1.6-3.4-2 .3-4.9-3-8.4-8.4-8.4z"/><g><path fill-rule="evenodd" clip-rule="evenodd" fill="#4F392A" d="M136 13.8c-2.2-2-4.9-2.4-7.4-2.7-3.2-.4-6.5-.9-7.9-4.9-.9.7-1.3 1.7-1.6 2.8-.6 1.6-1.3 3.6-4 3.6-.6 0-1.2-.1-1.9-.3l-1-.3.3-1c1.5-5.7 6.8-9.9 12.4-9.9 6.4 0 12 5.1 12.8 11.7l.3 2.6-2-1.6z"/><g><path fill="#4F392A" d="M124.9 2.2c6.1 0 11.1 4.9 11.8 10.8-5.7-5.2-13.7-.4-15.4-8.4-4.2 1.6-2.4 6.9-6.3 6.9-.5 0-1-.1-1.6-.2 1.4-5 6-9.1 11.5-9.1m0-2c-6.1 0-11.7 4.5-13.4 10.6l-.5 1.9 1.9.5c.8.2 1.5.3 2.1.3 3.4 0 4.3-2.7 4.9-4.3.2-.5.3-.9.5-1.2 1.9 3.2 5.2 3.6 8 4 2.5.3 4.9.6 6.9 2.5l3.9 3.6-.6-5.3C137.9 5.7 131.8.2 124.9.2z"/></g></g><path fill-rule="evenodd" clip-rule="evenodd" fill="#70513B" d="M124.9 2.6c6.1 0 11.1 4.6 11.8 10.5-1.1-1-2.2-1.6-3.4-2 .3-5-3-8.5-8.4-8.5z"/><g><path fill-rule="evenodd" clip-rule="evenodd" fill="#4F392A" d="M36 213.8c-2.2-2-4.9-2.4-7.4-2.7-3.2-.4-6.5-.9-7.9-4.9-.9.7-1.3 1.7-1.6 2.8-.6 1.6-1.3 3.6-4 3.6-.6 0-1.2-.1-1.9-.3l-1-.3.3-1c1.5-5.7 6.8-9.9 12.4-9.9 6.4 0 12 5.1 12.8 11.7l.3 2.6-2-1.6z"/><g><path fill="#4F392A" d="M24.9 202.2c6.1 0 11.1 4.9 11.8 10.8-5.7-5.2-13.7-.4-15.4-8.4-4.2 1.6-2.4 6.9-6.3 6.9-.5 0-1-.1-1.6-.2 1.4-5 6-9.1 11.5-9.1m0-2c-6.1 0-11.7 4.5-13.4 10.6l-.5 1.9 1.9.5c.8.2 1.5.3 2.1.3 3.4 0 4.3-2.7 4.9-4.3.2-.5.3-.9.5-1.2 1.9 3.2 5.2 3.6 8 4 2.5.3 4.9.6 6.9 2.5l3.9 3.6-.6-5.3c-.7-7.1-6.8-12.6-13.7-12.6z"/></g></g><path fill-rule="evenodd" clip-rule="evenodd" fill="#70513B" d="M24.9 202.6c6.1 0 11.1 4.6 11.8 10.5-1.1-1-2.2-1.6-3.4-2 .3-5-3-8.5-8.4-8.5z"/><g><path fill-rule="evenodd" clip-rule="evenodd" fill="#4F392A" d="M86 213.8c-2.2-2-4.9-2.4-7.4-2.7-3.2-.4-6.5-.9-7.9-4.9-.9.7-1.3 1.7-1.6 2.8-.6 1.6-1.3 3.6-4 3.6-.6 0-1.2-.1-1.9-.3l-1-.3.3-1c1.5-5.7 6.8-9.9 12.4-9.9 6.4 0 12 5.1 12.8 11.7l.3 2.6-2-1.6z"/><g><path fill="#4F392A" d="M74.9 202.2c6.1 0 11.1 4.9 11.8 10.8-5.7-5.2-13.7-.4-15.4-8.4-4.2 1.6-2.4 6.9-6.3 6.9-.5 0-1-.1-1.6-.2 1.4-5 6-9.1 11.5-9.1m0-2c-6.1 0-11.7 4.5-13.4 10.6l-.5 1.9 1.9.5c.8.2 1.5.3 2.1.3 3.4 0 4.3-2.7 4.9-4.3.2-.5.3-.9.5-1.2 1.9 3.2 5.2 3.6 8 4 2.5.3 4.9.6 6.9 2.5l3.9 3.6-.6-5.3c-.7-7.1-6.8-12.6-13.7-12.6z"/></g></g><path fill-rule="evenodd" clip-rule="evenodd" fill="#70513B" d="M74.9 202.6c6.1 0 11.1 4.6 11.8 10.5-1.1-1-2.2-1.6-3.4-2 .3-5-3-8.5-8.4-8.5z"/><g><path fill-rule="evenodd" clip-rule="evenodd" fill="#4F392A" d="M136 213.8c-2.2-2-4.9-2.4-7.4-2.7-3.2-.4-6.5-.9-7.9-4.9-.9.7-1.3 1.7-1.6 2.8-.6 1.6-1.3 3.6-4 3.6-.6 0-1.2-.1-1.9-.3l-1-.3.3-1c1.5-5.7 6.8-9.9 12.4-9.9 6.4 0 12 5.1 12.8 11.7l.3 2.6-2-1.6z"/><g><path fill="#4F392A" d="M124.9 202.2c6.1 0 11.1 4.9 11.8 10.8-5.7-5.2-13.7-.4-15.4-8.4-4.2 1.6-2.4 6.9-6.3 6.9-.5 0-1-.1-1.6-.2 1.4-5 6-9.1 11.5-9.1m0-2c-6.1 0-11.7 4.5-13.4 10.6l-.5 1.9 1.9.5c.8.2 1.5.3 2.1.3 3.4 0 4.3-2.7 4.9-4.3.2-.5.3-.9.5-1.2 1.9 3.2 5.2 3.6 8 4 2.5.3 4.9.6 6.9 2.5l3.9 3.6-.6-5.3c-.7-7.1-6.8-12.6-13.7-12.6z"/></g></g><path fill-rule="evenodd" clip-rule="evenodd" fill="#70513B" d="M124.9 202.6c6.1 0 11.1 4.6 11.8 10.5-1.1-1-2.2-1.6-3.4-2 .3-5-3-8.5-8.4-8.5z"/></svg>