<?xml version="1.0" encoding="utf-8"?>
<!-- Generator: Adobe Illustrator 16.0.0, SVG Export Plug-In . SVG Version: 6.00 Build 0)  -->
<!DOCTYPE svg PUBLIC "-//W3C//DTD SVG 1.1//EN" "http://www.w3.org/Graphics/SVG/1.1/DTD/svg11.dtd">
<svg version="1.1" id="Layer_3" xmlns="http://www.w3.org/2000/svg" xmlns:xlink="http://www.w3.org/1999/xlink" x="0px" y="0px"
	 width="150px" height="250px" viewBox="0 0 150 250" enable-background="new 0 0 150 250" xml:space="preserve">
<g>
	<path fill-rule="evenodd" clip-rule="evenodd" fill="#4F392A" d="M36,13.8c-2.2-2-4.9-2.4-7.4-2.7c-3.2-0.4-6.5-0.9-7.9-4.9
		c-0.9,0.7-1.3,1.7-1.6,2.8c-0.6,1.6-1.3,3.6-4,3.6c-0.6,0-1.2-0.1-1.9-0.3l-1-0.3l0.3-1c1.5-5.7,6.8-9.9,12.4-9.9
		c6.4,0,12,5.1,12.8,11.7l0.3,2.6L36,13.8z"/>
	<g>
		<path fill="#4F392A" d="M24.9,2.2C31,2.2,36,7.1,36.7,13C31,7.8,23,12.6,21.4,4.6c-4.2,1.6-2.4,6.9-6.3,6.9c-0.5,0-1-0.1-1.6-0.2
			C14.8,6.3,19.4,2.2,24.9,2.2 M24.9,0.2c-6.1,0-11.7,4.5-13.4,10.6L11,12.7l1.9,0.5c0.8,0.2,1.5,0.3,2.1,0.3c3.4,0,4.3-2.7,4.9-4.3
			c0.2-0.5,0.3-0.9,0.5-1.2c1.9,3.2,5.2,3.6,8,4c2.5,0.3,4.9,0.6,6.9,2.5l3.9,3.6l-0.6-5.3C37.9,5.7,31.8,0.2,24.9,0.2L24.9,0.2z"/>
	</g>
</g>
<path fill-rule="evenodd" clip-rule="evenodd" fill="#70513B" d="M24.9,2.6C31,2.6,36,7.1,36.7,13c-1.1-1-2.2-1.6-3.4-2
	C33.6,6.1,30.3,2.6,24.9,2.6z"/>
<g>
	<path fill-rule="evenodd" clip-rule="evenodd" fill="#4F392A" d="M15.3,122.7c-1.1,0-1.9-0.3-2.4-1c-0.5-0.7-0.5-1.5-0.4-2
		c-1.3-6.9,0.6-11.1,2.5-13.4c2.5-3.1,6.5-4.8,11-4.8c5.9,0,10.9,2.9,12.6,7.2l0.6,1.6l-1.7-0.2c-2.3-0.3-4.1-0.4-5.5-0.4
		c-4.1,0-4.5,1.3-4.6,3.1l-0.1,1.7l-1.4-1c-0.8-0.6-1.7-0.8-2.6-0.8c-1.7,0-3.4,1.1-4.2,2.8c-0.8,1.6-0.6,3.4,0.5,4.8l0.8,1.1
		l-1.3,0.5C17.5,122.4,16.3,122.7,15.3,122.7z"/>
	<g>
		<path fill="#4F392A" d="M26,102.6c5.1,0,10.1,2.4,11.7,6.6c-2.3-0.3-4.1-0.4-5.6-0.4c-4.1,0-5.4,1.2-5.6,4c-1-0.7-2.1-1-3.2-1
			c-4.2,0-7.6,5.1-4.5,9.2c-1.6,0.6-2.7,0.8-3.5,0.8c-2.4,0-1.8-1.9-1.8-1.9C11,107.7,18.6,102.6,26,102.6 M26,100.6L26,100.6
			c-4.8,0-9.1,1.9-11.8,5.2c-2,2.4-4.1,6.9-2.7,14.1c-0.1,0.9,0.1,1.9,0.7,2.6c0.5,0.6,1.4,1.3,3.2,1.3c1.1,0,2.5-0.3,4.2-0.9
			l2.6-0.9l-1.6-2.2c-1.2-1.6-0.8-3-0.4-3.8c0.7-1.3,2-2.2,3.3-2.2c0.7,0,1.4,0.2,2,0.7l2.9,1.9l0.2-3.5c0.1-1.3,0.1-2.2,3.6-2.2
			c1.3,0,3.1,0.1,5.3,0.4l3.3,0.4l-1.2-3.1C37.7,103.7,32.3,100.6,26,100.6L26,100.6z"/>
	</g>
</g>
<g>
	<path fill-rule="evenodd" clip-rule="evenodd" fill="#4F392A" d="M65.3,122.7c-1.1,0-1.9-0.3-2.4-1c-0.5-0.7-0.5-1.5-0.4-2
		c-1.3-6.9,0.6-11.1,2.5-13.4c2.5-3.1,6.5-4.8,11-4.8c5.9,0,10.9,2.9,12.6,7.2l0.6,1.6l-1.7-0.2c-2.3-0.3-4.1-0.4-5.5-0.4
		c-4.1,0-4.5,1.3-4.6,3.1l-0.1,1.7l-1.4-1c-0.8-0.6-1.7-0.8-2.6-0.8c-1.7,0-3.4,1.1-4.2,2.8c-0.8,1.6-0.6,3.4,0.5,4.8l0.8,1.1
		l-1.3,0.5C67.5,122.4,66.3,122.7,65.3,122.7z"/>
	<g>
		<path fill="#4F392A" d="M76,102.6c5.1,0,10.1,2.4,11.7,6.6c-2.3-0.3-4.1-0.4-5.6-0.4c-4.1,0-5.4,1.2-5.6,4c-1-0.7-2.1-1-3.2-1
			c-4.2,0-7.6,5.1-4.5,9.2c-1.6,0.6-2.7,0.8-3.5,0.8c-2.4,0-1.8-1.9-1.8-1.9C61,107.7,68.6,102.6,76,102.6 M76,100.6L76,100.6
			c-4.8,0-9.1,1.9-11.8,5.2c-2,2.4-4.1,6.9-2.7,14.1c-0.1,0.9,0.1,1.9,0.7,2.6c0.5,0.6,1.4,1.3,3.2,1.3c1.1,0,2.5-0.3,4.2-0.9
			l2.6-0.9l-1.6-2.2c-1.2-1.6-0.8-3-0.4-3.8c0.7-1.3,2-2.2,3.3-2.2c0.7,0,1.4,0.2,2,0.7l2.9,1.9l0.2-3.5c0.1-1.3,0.1-2.2,3.6-2.2
			c1.3,0,3.1,0.1,5.3,0.4l3.3,0.4l-1.2-3.1C87.7,103.7,82.3,100.6,76,100.6L76,100.6z"/>
	</g>
</g>
<g>
	<path fill-rule="evenodd" clip-rule="evenodd" fill="#4F392A" d="M115.3,122.7c-1.1,0-1.9-0.3-2.4-1c-0.5-0.7-0.5-1.5-0.4-2
		c-1.3-6.9,0.6-11.1,2.5-13.4c2.5-3.1,6.5-4.8,11-4.8c5.9,0,10.9,2.9,12.6,7.2l0.6,1.6l-1.7-0.2c-2.3-0.3-4.1-0.4-5.5-0.4
		c-4.1,0-4.5,1.3-4.6,3.1l-0.1,1.7l-1.4-1c-0.8-0.6-1.7-0.8-2.6-0.8c-1.7,0-3.4,1.1-4.2,2.8c-0.8,1.6-0.6,3.4,0.5,4.8l0.8,1.1
		l-1.3,0.5C117.5,122.4,116.3,122.7,115.3,122.7z"/>
	<g>
		<path fill="#4F392A" d="M126,102.6c5.1,0,10.1,2.4,11.7,6.6c-2.3-0.3-4.1-0.4-5.6-0.4c-4.1,0-5.4,1.2-5.6,4c-1-0.7-2.1-1-3.2-1
			c-4.2,0-7.6,5.1-4.5,9.2c-1.6,0.6-2.7,0.8-3.5,0.8c-2.4,0-1.8-1.9-1.8-1.9C111,107.7,118.6,102.6,126,102.6 M126,100.6L126,100.6
			c-4.8,0-9.1,1.9-11.8,5.2c-2,2.4-4.1,6.8-2.7,14.1c-0.1,0.9,0.1,1.9,0.7,2.6c0.5,0.6,1.4,1.3,3.2,1.3c1.1,0,2.5-0.3,4.2-0.9
			l2.6-0.9l-1.6-2.2c-1.2-1.6-0.8-3-0.4-3.8c0.7-1.3,2-2.2,3.3-2.2c0.7,0,1.4,0.2,2,0.7l2.9,1.9l0.2-3.5c0.1-1.3,0.1-2.2,3.6-2.2
			c1.3,0,3.1,0.1,5.3,0.4l3.3,0.4l-1.2-3.1C137.7,103.7,132.3,100.6,126,100.6L126,100.6z"/>
	</g>
</g>
<g>
	<path fill-rule="evenodd" clip-rule="evenodd" fill="#4F392A" d="M35.4,172.7c-1,0-2.3-0.3-3.8-0.9l-1.3-0.5l0.8-1.1
		c1.1-1.5,1.3-3.2,0.5-4.8c-0.8-1.7-2.5-2.8-4.2-2.8c-0.9,0-1.8,0.3-2.6,0.8l-1.4,1l-0.1-1.7c-0.1-1.8-0.5-3.1-4.6-3.1
		c-1.4,0-3.2,0.1-5.5,0.4l-1.7,0.2l0.6-1.6c1.7-4.3,6.8-7.2,12.6-7.2c4.5,0,8.5,1.8,11,4.8c1.9,2.3,3.8,6.5,2.5,13.4
		c0.1,0.4,0.1,1.3-0.4,2C37.3,172.4,36.5,172.7,35.4,172.7L35.4,172.7z"/>
	<g>
		<path fill="#4F392A" d="M24.7,152.6c7.4,0,14.9,5.1,12.5,17.2c0,0,0.6,1.9-1.8,1.9c-0.8,0-1.9-0.2-3.5-0.8c3.1-4-0.3-9.2-4.5-9.2
			c-1,0-2.1,0.3-3.2,1c-0.2-2.8-1.6-4-5.6-4c-1.5,0-3.3,0.2-5.6,0.4C14.6,155,19.6,152.6,24.7,152.6 M24.7,150.6
			c-6.3,0-11.7,3.2-13.6,7.9l-1.2,3.1l3.3-0.4c2.3-0.3,4-0.4,5.3-0.4c3.5,0,3.6,0.8,3.6,2.2l0.2,3.5l2.9-1.9c0.7-0.4,1.3-0.7,2-0.7
			c1.3,0,2.7,0.9,3.3,2.2c0.4,0.7,0.8,2.2-0.4,3.8l-1.6,2.2l2.6,0.9c1.7,0.6,3.1,0.9,4.2,0.9c1.7,0,2.7-0.7,3.2-1.3
			c0.5-0.7,0.8-1.6,0.7-2.6c1.3-7.2-0.7-11.6-2.7-14.1C33.8,152.5,29.5,150.6,24.7,150.6L24.7,150.6z"/>
	</g>
</g>
<g>
	<path fill-rule="evenodd" clip-rule="evenodd" fill="#4F392A" d="M85.4,172.7c-1,0-2.3-0.3-3.8-0.9l-1.3-0.5l0.8-1.1
		c1.1-1.5,1.3-3.2,0.5-4.8c-0.8-1.7-2.5-2.8-4.2-2.8c-0.9,0-1.8,0.3-2.6,0.8l-1.4,1l-0.1-1.7c-0.1-1.8-0.5-3.1-4.6-3.1
		c-1.4,0-3.2,0.1-5.5,0.4l-1.7,0.2l0.6-1.6c1.7-4.3,6.8-7.2,12.6-7.2c4.5,0,8.5,1.8,11,4.8c1.9,2.3,3.8,6.5,2.5,13.4
		c0.1,0.4,0.1,1.3-0.4,2C87.3,172.4,86.5,172.7,85.4,172.7C85.4,172.7,85.4,172.7,85.4,172.7z"/>
	<g>
		<path fill="#4F392A" d="M74.7,152.6c7.4,0,14.9,5.1,12.5,17.2c0,0,0.6,1.9-1.8,1.9c-0.8,0-1.9-0.2-3.5-0.8c3.1-4-0.3-9.2-4.5-9.2
			c-1,0-2.1,0.3-3.2,1c-0.2-2.8-1.6-4-5.6-4c-1.5,0-3.3,0.2-5.6,0.4C64.6,155,69.6,152.6,74.7,152.6 M74.7,150.6
			c-6.3,0-11.7,3.2-13.6,7.9l-1.2,3.1l3.3-0.4c2.3-0.3,4-0.4,5.3-0.4c3.5,0,3.6,0.8,3.6,2.2l0.2,3.4l2.9-1.9c0.7-0.4,1.3-0.7,2-0.7
			c1.3,0,2.7,0.9,3.3,2.2c0.4,0.7,0.8,2.2-0.4,3.8l-1.6,2.2l2.6,0.9c1.7,0.6,3.1,0.9,4.2,0.9c1.7,0,2.7-0.7,3.2-1.3
			c0.5-0.7,0.8-1.6,0.7-2.6c1.3-7.2-0.7-11.6-2.7-14.1C83.8,152.5,79.5,150.6,74.7,150.6L74.7,150.6z"/>
	</g>
</g>
<g>
	<path fill-rule="evenodd" clip-rule="evenodd" fill="#4F392A" d="M135.4,172.7c-1,0-2.3-0.3-3.8-0.9l-1.3-0.5l0.8-1.1
		c1.1-1.5,1.3-3.2,0.5-4.8c-0.8-1.7-2.5-2.8-4.2-2.8c-0.9,0-1.8,0.3-2.6,0.8l-1.4,1l-0.1-1.7c-0.1-1.8-0.5-3.1-4.6-3.1
		c-1.4,0-3.2,0.1-5.5,0.4l-1.7,0.2l0.6-1.6c1.7-4.3,6.8-7.2,12.6-7.2c4.5,0,8.5,1.8,11,4.8c1.9,2.3,3.8,6.5,2.5,13.4
		c0.1,0.4,0.1,1.3-0.4,2C137.3,172.4,136.5,172.7,135.4,172.7L135.4,172.7z"/>
	<g>
		<path fill="#4F392A" d="M124.7,152.6c7.4,0,14.9,5.1,12.5,17.2c0,0,0.6,1.9-1.8,1.9c-0.8,0-1.9-0.2-3.5-0.8c3.1-4-0.3-9.2-4.5-9.2
			c-1,0-2.1,0.3-3.2,1c-0.2-2.8-1.6-4-5.6-4c-1.5,0-3.3,0.2-5.6,0.4C114.6,155,119.6,152.6,124.7,152.6 M124.7,150.6
			c-6.3,0-11.7,3.2-13.6,7.9l-1.2,3.1l3.3-0.4c2.3-0.3,4-0.4,5.3-0.4c3.5,0,3.6,0.8,3.6,2.2l0.2,3.5l2.9-1.9c0.7-0.4,1.3-0.7,2-0.7
			c1.3,0,2.7,0.9,3.3,2.2c0.4,0.7,0.8,2.2-0.4,3.8l-1.6,2.2l2.6,0.9c1.7,0.6,3.1,0.9,4.2,0.9c1.7,0,2.7-0.7,3.2-1.3
			c0.5-0.7,0.8-1.6,0.7-2.6c1.3-7.2-0.7-11.6-2.7-14.1C133.8,152.5,129.5,150.6,124.7,150.6L124.7,150.6z"/>
	</g>
</g>
<path fill-rule="evenodd" clip-rule="evenodd" fill="#70513B" d="M34.9,171.7c5.9,0.6,4.4-19.1-10.2-19.1
	C34.5,152.6,36.5,164,34.9,171.7z"/>
<path fill-rule="evenodd" clip-rule="evenodd" fill="#70513B" d="M84.9,171.7c5.9,0.6,4.4-19.1-10.2-19.1
	C84.5,152.6,86.5,164,84.9,171.7z"/>
<path fill-rule="evenodd" clip-rule="evenodd" fill="#70513B" d="M134.9,171.7c5.9,0.6,4.4-19.1-10.2-19.1
	C134.5,152.6,136.5,164,134.9,171.7z"/>
<g>
	<path fill-rule="evenodd" clip-rule="evenodd" fill="#4F392A" d="M24.9,72.7c-3.9,0-7.5-0.5-10.5-1.4L14,71.2l-0.2-0.3
		c-2.3-4-2.3-8.8,0-12.9c2.3-4,6.5-6.4,11.1-6.4c4.6,0,8.8,2.4,11.1,6.4c2.3,4.1,2.3,8.9,0,12.9l-0.2,0.3l-0.4,0.1
		C32.4,72.2,28.8,72.7,24.9,72.7z"/>
	<g>
		<path fill="#4F392A" d="M24.9,52.6c9.2,0,14.8,10,10.3,17.8c-2.8,0.8-6.4,1.3-10.3,1.3c-3.9,0-7.4-0.5-10.3-1.3
			C10.1,62.6,15.7,52.6,24.9,52.6 M24.9,50.6c-5,0-9.5,2.6-12,6.9c-2.5,4.4-2.5,9.6,0,13.9l0.4,0.7l0.8,0.2
			c3.1,0.9,6.9,1.4,10.8,1.4c4,0,7.7-0.5,10.8-1.4l0.8-0.2l0.4-0.7c2.5-4.3,2.5-9.5,0-13.9C34.4,53.1,29.9,50.6,24.9,50.6L24.9,50.6
			z"/>
	</g>
</g>
<g>
	<path fill-rule="evenodd" clip-rule="evenodd" fill="#4F392A" d="M74.9,72.7c-3.9,0-7.5-0.5-10.5-1.4L64,71.2l-0.2-0.3
		c-2.3-4-2.3-8.8,0-12.9c2.3-4,6.5-6.4,11.1-6.4c4.6,0,8.8,2.4,11.1,6.4c2.3,4.1,2.3,8.9,0,12.9l-0.2,0.3l-0.4,0.1
		C82.4,72.2,78.8,72.7,74.9,72.7z"/>
	<g>
		<path fill="#4F392A" d="M74.9,52.6c9.2,0,14.8,10,10.3,17.8c-2.8,0.8-6.4,1.3-10.3,1.3c-3.9,0-7.4-0.5-10.3-1.3
			C60.1,62.6,65.7,52.6,74.9,52.6 M74.9,50.6c-5,0-9.5,2.6-12,6.9c-2.5,4.4-2.5,9.6,0,13.9l0.4,0.7l0.8,0.2
			c3.1,0.9,6.9,1.4,10.8,1.4c4,0,7.7-0.5,10.8-1.4l0.8-0.2l0.4-0.7c2.5-4.3,2.5-9.5,0-13.9C84.4,53.1,79.9,50.6,74.9,50.6L74.9,50.6
			z"/>
	</g>
</g>
<g>
	<path fill-rule="evenodd" clip-rule="evenodd" fill="#4F392A" d="M124.9,72.7c-3.9,0-7.5-0.5-10.5-1.4l-0.4-0.1l-0.2-0.3
		c-2.3-4-2.3-8.8,0-12.9c2.3-4,6.5-6.4,11.1-6.4s8.8,2.4,11.1,6.4c2.3,4.1,2.3,8.9,0,12.9l-0.2,0.3l-0.4,0.1
		C132.4,72.2,128.8,72.7,124.9,72.7z"/>
	<g>
		<path fill="#4F392A" d="M124.9,52.6c9.2,0,14.8,10,10.3,17.8c-2.8,0.8-6.4,1.3-10.3,1.3s-7.4-0.5-10.3-1.3
			C110.1,62.6,115.7,52.6,124.9,52.6 M124.9,50.6c-5,0-9.5,2.6-12,6.9c-2.5,4.4-2.5,9.6,0,13.9l0.4,0.7l0.8,0.2
			c3.1,0.9,6.9,1.4,10.8,1.4s7.7-0.5,10.8-1.4l0.8-0.2l0.4-0.7c2.5-4.3,2.5-9.5,0-13.9C134.4,53.1,129.9,50.6,124.9,50.6L124.9,50.6
			z"/>
	</g>
</g>
<path fill-rule="evenodd" clip-rule="evenodd" fill="#70513B" d="M36.2,68.2C35.3,59,31,53.6,20.5,53.4C30,49.6,39.4,58.7,36.2,68.2
	z"/>
<path fill-rule="evenodd" clip-rule="evenodd" fill="#70513B" d="M86.2,68.2C85.3,59,81,53.6,70.5,53.4C80,49.6,89.4,58.7,86.2,68.2
	z"/>
<path fill-rule="evenodd" clip-rule="evenodd" fill="#70513B" d="M136.2,68.2c-0.8-9.2-5.2-14.7-15.6-14.8
	C130,49.6,139.4,58.7,136.2,68.2z"/>
<path fill-rule="evenodd" clip-rule="evenodd" fill="#70513B" d="M22.6,102.6c6.2-1.7,14,1.4,15.7,7.5c-1.4-0.7-3.1-1.1-4.4-1.2
	C34.6,105.3,27.2,101.2,22.6,102.6z"/>
<path fill-rule="evenodd" clip-rule="evenodd" fill="#70513B" d="M72.6,102.6c6.2-1.7,14,1.4,15.7,7.5c-1.4-0.7-3.1-1.1-4.4-1.2
	C84.6,105.3,77.2,101.2,72.6,102.6z"/>
<path fill-rule="evenodd" clip-rule="evenodd" fill="#70513B" d="M122.6,102.6c6.2-1.7,14,1.4,15.7,7.5c-1.4-0.7-3.1-1.1-4.4-1.2
	C134.6,105.3,127.2,101.2,122.6,102.6z"/>
<g>
	<path fill-rule="evenodd" clip-rule="evenodd" fill="#4F392A" d="M86,13.8c-2.2-2-4.9-2.4-7.4-2.7c-3.2-0.4-6.5-0.9-7.9-4.9
		c-0.9,0.7-1.3,1.7-1.6,2.8c-0.6,1.6-1.3,3.6-4,3.6c-0.6,0-1.2-0.1-1.9-0.3l-1-0.3l0.3-1c1.5-5.7,6.8-9.9,12.4-9.9
		c6.4,0,12,5.1,12.8,11.7l0.3,2.6L86,13.8z"/>
	<g>
		<path fill="#4F392A" d="M74.9,2.2C81,2.2,86,7.1,86.7,13C81,7.8,73,12.6,71.4,4.6c-4.2,1.6-2.4,6.9-6.3,6.9c-0.5,0-1-0.1-1.6-0.2
			C64.8,6.3,69.4,2.2,74.9,2.2 M74.9,0.2c-6.1,0-11.7,4.5-13.4,10.6L61,12.7l1.9,0.5c0.8,0.2,1.5,0.3,2.1,0.3c3.4,0,4.3-2.7,4.9-4.3
			c0.2-0.5,0.3-0.9,0.5-1.2c1.9,3.2,5.2,3.6,8,4c2.5,0.3,4.9,0.6,6.9,2.5l3.9,3.6l-0.6-5.3C87.9,5.7,81.8,0.2,74.9,0.2L74.9,0.2z"/>
	</g>
</g>
<path fill-rule="evenodd" clip-rule="evenodd" fill="#70513B" d="M74.9,2.6C81,2.6,86,7.1,86.7,13c-1.1-1-2.2-1.6-3.4-2
	C83.6,6.1,80.3,2.6,74.9,2.6z"/>
<g>
	<path fill-rule="evenodd" clip-rule="evenodd" fill="#4F392A" d="M136,13.8c-2.2-2-4.9-2.4-7.4-2.7c-3.2-0.4-6.5-0.9-7.9-4.9
		c-0.9,0.7-1.3,1.7-1.6,2.8c-0.6,1.6-1.3,3.6-4,3.6c-0.6,0-1.2-0.1-1.9-0.3l-1-0.3l0.3-1c1.5-5.7,6.8-9.9,12.4-9.9
		c6.4,0,12,5.1,12.8,11.7l0.3,2.6L136,13.8z"/>
	<g>
		<path fill="#4F392A" d="M124.9,2.2c6.1,0,11.1,4.9,11.8,10.8c-5.7-5.2-13.7-0.4-15.4-8.4c-4.2,1.6-2.4,6.9-6.3,6.9
			c-0.5,0-1-0.1-1.6-0.2C114.8,6.3,119.4,2.2,124.9,2.2 M124.9,0.2c-6.1,0-11.7,4.5-13.4,10.6l-0.5,1.9l1.9,0.5
			c0.8,0.2,1.5,0.3,2.1,0.3c3.4,0,4.3-2.7,4.9-4.3c0.2-0.5,0.3-0.9,0.5-1.2c1.9,3.2,5.2,3.6,8,4c2.5,0.3,4.9,0.6,6.9,2.5l3.9,3.6
			l-0.6-5.3C137.9,5.7,131.8,0.2,124.9,0.2L124.9,0.2z"/>
	</g>
</g>
<path fill-rule="evenodd" clip-rule="evenodd" fill="#70513B" d="M124.9,2.6c6.1,0,11.1,4.6,11.8,10.5c-1.1-1-2.2-1.6-3.4-2
	C133.6,6.1,130.3,2.6,124.9,2.6z"/>
<g>
	<path fill-rule="evenodd" clip-rule="evenodd" fill="#4F392A" d="M36,213.8c-2.2-2-4.9-2.4-7.4-2.7c-3.2-0.4-6.5-0.9-7.9-4.9
		c-0.9,0.7-1.3,1.7-1.6,2.8c-0.6,1.6-1.3,3.6-4,3.6c-0.6,0-1.2-0.1-1.9-0.3l-1-0.3l0.3-1c1.5-5.7,6.8-9.9,12.4-9.9
		c6.4,0,12,5.1,12.8,11.7l0.3,2.6L36,213.8z"/>
	<g>
		<path fill="#4F392A" d="M24.9,202.2c6.1,0,11.1,4.9,11.8,10.8c-5.7-5.2-13.7-0.4-15.4-8.4c-4.2,1.6-2.4,6.9-6.3,6.9
			c-0.5,0-1-0.1-1.6-0.2C14.8,206.3,19.4,202.2,24.9,202.2 M24.9,200.2c-6.1,0-11.7,4.5-13.4,10.6l-0.5,1.9l1.9,0.5
			c0.8,0.2,1.5,0.3,2.1,0.3c3.4,0,4.3-2.7,4.9-4.3c0.2-0.5,0.3-0.9,0.5-1.2c1.9,3.2,5.2,3.6,8,4c2.5,0.3,4.9,0.6,6.9,2.5l3.9,3.6
			l-0.6-5.3C37.9,205.7,31.8,200.2,24.9,200.2L24.9,200.2z"/>
	</g>
</g>
<path fill-rule="evenodd" clip-rule="evenodd" fill="#70513B" d="M24.9,202.6c6.1,0,11.1,4.6,11.8,10.5c-1.1-1-2.2-1.6-3.4-2
	C33.6,206.1,30.3,202.6,24.9,202.6z"/>
<g>
	<path fill-rule="evenodd" clip-rule="evenodd" fill="#4F392A" d="M86,213.8c-2.2-2-4.9-2.4-7.4-2.7c-3.2-0.4-6.5-0.9-7.9-4.9
		c-0.9,0.7-1.3,1.7-1.6,2.8c-0.6,1.6-1.3,3.6-4,3.6c-0.6,0-1.2-0.1-1.9-0.3l-1-0.3l0.3-1c1.5-5.7,6.8-9.9,12.4-9.9
		c6.4,0,12,5.1,12.8,11.7l0.3,2.6L86,213.8z"/>
	<g>
		<path fill="#4F392A" d="M74.9,202.2c6.1,0,11.1,4.9,11.8,10.8c-5.7-5.2-13.7-0.4-15.4-8.4c-4.2,1.6-2.4,6.9-6.3,6.9
			c-0.5,0-1-0.1-1.6-0.2C64.8,206.3,69.4,202.2,74.9,202.2 M74.9,200.2c-6.1,0-11.7,4.5-13.4,10.6l-0.5,1.9l1.9,0.5
			c0.8,0.2,1.5,0.3,2.1,0.3c3.4,0,4.3-2.7,4.9-4.3c0.2-0.5,0.3-0.9,0.5-1.2c1.9,3.2,5.2,3.6,8,4c2.5,0.3,4.9,0.6,6.9,2.5l3.9,3.6
			l-0.6-5.3C87.9,205.7,81.8,200.2,74.9,200.2L74.9,200.2z"/>
	</g>
</g>
<path fill-rule="evenodd" clip-rule="evenodd" fill="#70513B" d="M74.9,202.6c6.1,0,11.1,4.6,11.8,10.5c-1.1-1-2.2-1.6-3.4-2
	C83.6,206.1,80.3,202.6,74.9,202.6z"/>
<g>
	<path fill-rule="evenodd" clip-rule="evenodd" fill="#4F392A" d="M136,213.8c-2.2-2-4.9-2.4-7.4-2.7c-3.2-0.4-6.5-0.9-7.9-4.9
		c-0.9,0.7-1.3,1.7-1.6,2.8c-0.6,1.6-1.3,3.6-4,3.6c-0.6,0-1.2-0.1-1.9-0.3l-1-0.3l0.3-1c1.5-5.7,6.8-9.9,12.4-9.9
		c6.4,0,12,5.1,12.8,11.7l0.3,2.6L136,213.8z"/>
	<g>
		<path fill="#4F392A" d="M124.9,202.2c6.1,0,11.1,4.9,11.8,10.8c-5.7-5.2-13.7-0.4-15.4-8.4c-4.2,1.6-2.4,6.9-6.3,6.9
			c-0.5,0-1-0.1-1.6-0.2C114.8,206.3,119.4,202.2,124.9,202.2 M124.9,200.2c-6.1,0-11.7,4.5-13.4,10.6l-0.5,1.9l1.9,0.5
			c0.8,0.2,1.5,0.3,2.1,0.3c3.4,0,4.3-2.7,4.9-4.3c0.2-0.5,0.3-0.9,0.5-1.2c1.9,3.2,5.2,3.6,8,4c2.5,0.3,4.9,0.6,6.9,2.5l3.9,3.6
			l-0.6-5.3C137.9,205.7,131.8,200.2,124.9,200.2L124.9,200.2z"/>
	</g>
</g>
<path fill-rule="evenodd" clip-rule="evenodd" fill="#70513B" d="M124.9,202.6c6.1,0,11.1,4.6,11.8,10.5c-1.1-1-2.2-1.6-3.4-2
	C133.6,206.1,130.3,202.6,124.9,202.6z"/>
</svg>
