<svg xmlns="http://www.w3.org/2000/svg" width="150" height="250" viewBox="0 0 150 250"><g id="Layer_5"><path fill-rule="evenodd" clip-rule="evenodd" fill="#A000A0" d="M24.9 226.8c1 0 1.8-.5 1.8-1.1 0-.6-.8-1.1-1.8-1.1s-1.8.5-1.8 1.1c0 .6.8 1.1 1.8 1.1z"/><path fill-rule="evenodd" clip-rule="evenodd" fill="#A000A0" d="M74.9 226.2c1.5 0 2.7-.2 2.7-.5s-1.2-.5-2.7-.5c-1.5 0-2.7.2-2.7.5 0 .2 1.2.5 2.7.5z"/><path fill-rule="evenodd" clip-rule="evenodd" fill="#A000A0" d="M124.9 227.8c1 0 1.8-1 1.8-2.1s-.8-2.1-1.8-2.1-1.8 1-1.8 2.1.8 2.1 1.8 2.1z"/><path fill-rule="evenodd" clip-rule="evenodd" fill="#A000A0" d="M74.9 25.6c1.5 0 2.7-.2 2.7-.5s-1.2-.5-2.7-.5c-1.5 0-2.7.2-2.7.5s1.2.5 2.7.5z"/><path fill-rule="evenodd" clip-rule="evenodd" fill="#A000A0" d="M24.9 25.6c1.5 0 2.7-.2 2.7-.5s-1.2-.5-2.7-.5c-1.5 0-2.7.2-2.7.5s1.2.5 2.7.5z"/><path fill-rule="evenodd" clip-rule="evenodd" fill="#A000A0" d="M124.9 25.6c1.5 0 2.7-.2 2.7-.5s-1.2-.5-2.7-.5c-1.5 0-2.7.2-2.7.5s1.2.5 2.7.5z"/><path fill-rule="evenodd" clip-rule="evenodd" fill="#A000A0" d="M18.1 176.6c.8-.1.8-1.7-.1-1.5-1 .2-2.7.7-2.6 1 .1.2 1.3.7 2.7.5z"/><path fill-rule="evenodd" clip-rule="evenodd" fill="#A000A0" d="M68.1 176.6c.8-.1.8-1.7-.1-1.5-1 .2-2.7.7-2.6 1 .1.2 1.3.7 2.7.5z"/><path fill-rule="evenodd" clip-rule="evenodd" fill="#A000A0" d="M118.1 176.6c.8-.1.8-1.7-.1-1.5-1 .2-2.7.7-2.6 1 .1.2 1.3.7 2.7.5z"/><path fill-rule="evenodd" clip-rule="evenodd" fill="#A000A0" d="M132.3 126.6c-.8-.1-.8-1.7.1-1.5 1 .2 2.7.7 2.6 1-.1.2-1.2.7-2.7.5z"/><path fill-rule="evenodd" clip-rule="evenodd" fill="#A000A0" d="M82.3 126.6c-.8-.1-.8-1.7.1-1.5 1 .2 2.7.7 2.6 1-.1.2-1.2.7-2.7.5z"/><path fill-rule="evenodd" clip-rule="evenodd" fill="#A000A0" d="M32.3 126.6c-.8-.1-.8-1.7.1-1.5 1 .2 2.7.7 2.6 1-.1.2-1.2.7-2.7.5z"/></g></svg>