<?xml version="1.0" encoding="utf-8"?>
<!-- Generator: Adobe Illustrator 16.0.0, SVG Export Plug-In . SVG Version: 6.00 Build 0)  -->
<!DOCTYPE svg PUBLIC "-//W3C//DTD SVG 1.1//EN" "http://www.w3.org/Graphics/SVG/1.1/DTD/svg11.dtd">
<svg version="1.1" xmlns="http://www.w3.org/2000/svg" xmlns:xlink="http://www.w3.org/1999/xlink" x="0px" y="0px" width="150px"
	 height="250px" viewBox="0 0 150 250" enable-background="new 0 0 150 250" xml:space="preserve">
<g id="Layer_1" display="none">
	<rect x="-425" y="-375" display="inline" fill="#5AFF89" width="50" height="50"/>
</g>
<g id="Layer_2" display="none">
	
		<image display="inline" overflow="visible" width="1897" height="735" xlink:href="../../../color_palette.png"  transform="matrix(0.4639 0 0 0.4639 -376.5522 104)">
	</image>
</g>
<g id="Layer_4">
</g>
<g id="Layer_3">
	<g>
		<polygon fill-rule="evenodd" clip-rule="evenodd" fill="#BBBBBB" points="31.9,237.8 36.9,239.8 32.6,243.6 		"/>
		<path fill="#484848" d="M33.1,239.4l1.9,0.8l-1.7,1.5L33.1,239.4 M30.8,236.2l0.4,3.3l0.2,2.2l0.4,3.9l2.9-2.6l1.7-1.5l2.4-2.1
			l-3-1.2l-1.9-0.8L30.8,236.2L30.8,236.2z"/>
	</g>
	<g>
		<polygon fill-rule="evenodd" clip-rule="evenodd" fill="#BBBBBB" points="81.9,237.8 86.9,239.8 82.6,243.6 		"/>
		<path fill="#484848" d="M83.1,239.4l1.9,0.8l-1.6,1.5L83.1,239.4 M80.8,236.2l0.4,3.4l0.2,2.2l0.4,3.9l2.9-2.6l1.6-1.5l2.4-2.1
			l-3-1.2l-1.9-0.8L80.8,236.2L80.8,236.2z"/>
	</g>
	<g>
		<polygon fill-rule="evenodd" clip-rule="evenodd" fill="#BBBBBB" points="131.9,237.8 136.9,239.8 132.6,243.6 		"/>
		<path fill="#484848" d="M133.1,239.4l1.9,0.8l-1.7,1.5L133.1,239.4 M130.8,236.2l0.4,3.3l0.2,2.2l0.4,3.9l2.9-2.6l1.7-1.5l2.4-2.1
			l-3-1.2l-1.9-0.8L130.8,236.2L130.8,236.2z"/>
	</g>
	<path fill-rule="evenodd" clip-rule="evenodd" fill="#214420" d="M39.2,227.7l1.9-0.1c1.8-0.1,2.1,2.5,0.5,2.9l-2,0.6
		c-0.8,0.2-1.6-0.2-1.9-1C37.4,229.3,37.9,227.7,39.2,227.7z"/>
	<path fill-rule="evenodd" clip-rule="evenodd" fill="#214420" d="M89.2,227.7l1.9-0.1c1.8-0.1,2.1,2.5,0.5,2.9l-2,0.6
		c-0.8,0.2-1.6-0.2-1.9-1C87.4,229.3,87.9,227.7,89.2,227.7z"/>
	<path fill-rule="evenodd" clip-rule="evenodd" fill="#214420" d="M139.2,227.7l1.9-0.1c1.8-0.1,2.1,2.5,0.5,2.9l-2,0.6
		c-0.8,0.2-1.6-0.2-1.9-1C137.4,229.3,137.9,227.7,139.2,227.7z"/>
	<polygon fill-rule="evenodd" clip-rule="evenodd" fill="#4B9A49" points="39.1,229.8 39.2,229.2 41.2,229.2 	"/>
	<polygon fill-rule="evenodd" clip-rule="evenodd" fill="#4B9A49" points="89.1,229.8 89.2,229.2 91.2,229.2 	"/>
	<polygon fill-rule="evenodd" clip-rule="evenodd" fill="#4B9A49" points="139.1,229.8 139.2,229.2 141.2,229.2 	"/>
	<path fill-rule="evenodd" clip-rule="evenodd" fill="#214420" d="M38,230.6l-0.2-0.1l-2.4-4.2c1.3-1.5,2.7,0.5,3.6,1.4
		C39.9,228.6,39,230.2,38,230.6z"/>
	<path fill-rule="evenodd" clip-rule="evenodd" fill="#214420" d="M88,230.6l-0.2-0.1l-2.4-4.2c1.3-1.5,2.7,0.5,3.6,1.4
		C89.9,228.6,89,230.2,88,230.6z"/>
	<path fill-rule="evenodd" clip-rule="evenodd" fill="#214420" d="M138,230.6l-0.2-0.1l-2.4-4.2c1.3-1.5,2.7,0.5,3.6,1.4
		C139.9,228.6,139,230.2,138,230.6z"/>
	<polygon fill-rule="evenodd" clip-rule="evenodd" fill="#4B9A49" points="37.5,229.1 37.9,228.7 36.5,227.2 	"/>
	<polygon fill-rule="evenodd" clip-rule="evenodd" fill="#4B9A49" points="87.5,229.1 87.9,228.7 86.5,227.2 	"/>
	<polygon fill-rule="evenodd" clip-rule="evenodd" fill="#4B9A49" points="137.5,229.1 137.9,228.7 136.5,227.2 	"/>
	<g>
		<polygon fill-rule="evenodd" clip-rule="evenodd" fill="#BBBBBB" points="65.3,189.3 70.6,186.7 70.4,192.1 		"/>
		<path fill="#484848" d="M69.5,188.4l-0.1,2l-1.9-1L69.5,188.4 M71.6,185.1l-3,1.5l-2,1l-3.5,1.7l3.4,1.8l1.9,1l2.8,1.5l0.1-3.2
			l0.1-2L71.6,185.1L71.6,185.1z"/>
	</g>
	<g>
		<path fill-rule="evenodd" clip-rule="evenodd" fill="#4B9A49" d="M81.9,193.4c-0.3,0-0.6-0.1-0.8-0.4l-1.3-1.7
			c-0.2-0.3-0.3-0.6-0.2-0.9c0.1-0.3,0.4-0.6,0.7-0.6l0.6-0.2c0.1,0,0.2,0,0.3,0c0.4,0,0.8,0.2,0.9,0.6l0.8,1.8c0.2,0.5,0,1-0.4,1.2
			C82.2,193.4,82,193.4,81.9,193.4z"/>
		<g>
			<path fill="#214420" d="M81.1,190.6l0.8,1.8l-1.3-1.7L81.1,190.6 M81.1,188.6c-0.2,0-0.4,0-0.5,0.1l-0.6,0.2
				c-0.6,0.2-1.2,0.7-1.4,1.3s-0.1,1.3,0.3,1.9l1.3,1.7c0.4,0.5,1,0.8,1.6,0.8c0.3,0,0.7-0.1,1-0.3c0.9-0.5,1.2-1.6,0.8-2.5
				l-0.8-1.8C82.6,189,81.9,188.6,81.1,188.6L81.1,188.6z"/>
		</g>
	</g>
	<g>
		<path fill-rule="evenodd" clip-rule="evenodd" fill="#4B9A49" d="M81.2,190.2c-0.1,0-0.2,0-0.3-0.1l-0.5-0.2
			c-0.3-0.1-0.6-0.4-0.6-0.7c-0.1-0.3,0-0.7,0.2-0.9l1.4-1.6c0.2-0.2,0.5-0.3,0.7-0.3c0.2,0,0.4,0.1,0.6,0.2
			c0.4,0.3,0.6,0.8,0.3,1.3l-0.9,1.8C81.9,189.9,81.5,190.2,81.2,190.2z"/>
		<g>
			<path fill="#214420" d="M82.1,187.4l-0.9,1.8l-0.5-0.2L82.1,187.4 M82.1,185.4c-0.5,0-1.1,0.2-1.5,0.7l-1.4,1.6
				c-0.4,0.5-0.6,1.2-0.5,1.8c0.2,0.6,0.6,1.2,1.3,1.4l0.5,0.2c0.2,0.1,0.4,0.1,0.7,0.1c0.7,0,1.4-0.4,1.8-1.1l0.9-1.8
				c0.4-0.9,0.2-2-0.7-2.5C82.8,185.5,82.4,185.4,82.1,185.4L82.1,185.4z"/>
		</g>
	</g>
	<g>
		<polygon fill-rule="evenodd" clip-rule="evenodd" fill="#BBBBBB" points="118,191.9 122.3,187.9 123.6,193.1 		"/>
		<path fill="#484848" d="M121.8,189.8l0.5,2l-2.2-0.5L121.8,189.8 M122.9,186l-2.5,2.3l-1.7,1.5l-2.8,2.6l3.8,0.8l2.2,0.5l3.1,0.7
			l-0.8-3.1l-0.5-2L122.9,186L122.9,186z"/>
	</g>
	<g>
		<path fill-rule="evenodd" clip-rule="evenodd" fill="#4B9A49" d="M134.8,191.2c-0.2,0-0.4-0.1-0.6-0.2l-1.7-1.3
			c-0.3-0.2-0.4-0.5-0.4-0.8c0-0.3,0.2-0.6,0.5-0.8l0.5-0.3c0.2-0.1,0.3-0.1,0.5-0.1c0.3,0,0.6,0.1,0.8,0.4l1.2,1.6
			c0.3,0.4,0.3,1-0.1,1.3C135.3,191.1,135,191.2,134.8,191.2z"/>
		<g>
			<path fill="#214420" d="M133.5,188.7l1.2,1.6L133,189L133.5,188.7 M133.5,186.7c-0.4,0-0.7,0.1-1,0.3l-0.5,0.3
				c-0.6,0.4-0.9,1-1,1.6c0,0.7,0.3,1.3,0.8,1.7l1.7,1.3c0.4,0.3,0.8,0.4,1.2,0.4c0.5,0,1.1-0.2,1.5-0.6c0.7-0.7,0.7-1.8,0.1-2.6
				l-1.2-1.6C134.7,186.9,134.1,186.7,133.5,186.7L133.5,186.7z"/>
		</g>
	</g>
	<g>
		<path fill-rule="evenodd" clip-rule="evenodd" fill="#4B9A49" d="M132.5,188.2c-0.3,0-0.6-0.2-0.8-0.5c-0.2-0.3-0.2-0.6,0-0.9
			l0.9-1.9c0.2-0.4,0.5-0.6,0.9-0.6c0.1,0,0.2,0,0.3,0.1c0.5,0.2,0.8,0.6,0.7,1.1l-0.4,2c-0.1,0.5-0.5,0.8-1,0.8
			C133.2,188.3,132.5,188.2,132.5,188.2z"/>
		<g>
			<path fill="#214420" d="M133.5,185.3l-0.4,2l-0.6,0L133.5,185.3 M133.5,183.3c-0.7,0-1.5,0.4-1.8,1.1l-0.9,1.9
				c-0.3,0.6-0.3,1.3,0.1,1.9s0.9,1,1.6,1l0.6,0c0,0,0.1,0,0.1,0c1,0,1.8-0.7,2-1.6l0.4-2c0.2-1-0.4-2-1.3-2.3
				C134,183.4,133.8,183.3,133.5,183.3L133.5,183.3z"/>
		</g>
	</g>
	<g>
		<polygon fill-rule="evenodd" clip-rule="evenodd" fill="#A27556" points="12.3,89.8 14.2,85.2 17,86.4 15.1,90.9 		"/>
		<path fill="#4C4134" d="M14.7,86.5l0.9,0.4l-1.1,2.7l-0.9-0.4L14.7,86.5 M13.6,83.9l-0.8,1.9l-1.1,2.7L11,90.3l1.8,0.8l0.9,0.4
			l1.9,0.8l0.8-1.9l1.1-2.7l0.8-1.8L16.4,85l-0.9-0.4L13.6,83.9L13.6,83.9z"/>
	</g>
	<g>
		<path fill-rule="evenodd" clip-rule="evenodd" fill="#4B9A49" d="M10.9,91.5c-0.5,0-0.9-0.3-1-0.8c-0.1-0.5,0.2-1,0.7-1.1l2-0.6
			c0.1,0,0.2,0,0.3,0c0.2,0,0.4,0.1,0.6,0.2c0.3,0.2,0.4,0.5,0.4,0.9l0,0.6c0,0.5-0.5,0.9-1,0.9C12.9,91.4,10.9,91.5,10.9,91.5z"/>
		<g>
			<path fill="#214420" d="M12.9,89.8l0,0.6l-2,0.1L12.9,89.8 M12.9,87.8c-0.2,0-0.4,0-0.6,0.1l-2,0.6c-1,0.3-1.5,1.3-1.4,2.3
				c0.2,1,1,1.7,2,1.7c0,0,0.1,0,0.1,0l2-0.1c1,0,1.8-0.8,1.9-1.8l0-0.6c0.1-0.7-0.2-1.3-0.7-1.7C13.8,88,13.4,87.8,12.9,87.8
				L12.9,87.8z"/>
		</g>
	</g>
	<g>
		<path fill-rule="evenodd" clip-rule="evenodd" fill="#4B9A49" d="M15.5,93.4c-0.3,0-0.5-0.1-0.7-0.3l-1.4-1.5
			c-0.3-0.4-0.4-0.9,0-1.3l0.4-0.4c0.2-0.2,0.5-0.4,0.8-0.4c0,0,0.1,0,0.1,0c0.3,0,0.6,0.2,0.8,0.5l1,1.9c0.2,0.4,0.1,1-0.3,1.3
			C15.9,93.3,15.7,93.4,15.5,93.4z"/>
		<g>
			<path fill="#214420" d="M14.6,90.5l1,1.9l-1.4-1.5L14.6,90.5 M14.6,88.5c-0.6,0-1.2,0.3-1.5,0.7l-0.4,0.4
				c-0.6,0.8-0.6,1.9,0.1,2.6l1.4,1.5c0.4,0.4,0.9,0.6,1.5,0.6c0.4,0,0.8-0.1,1.2-0.4c0.8-0.6,1.1-1.7,0.6-2.6l-1-1.9
				c-0.3-0.6-0.9-1-1.6-1.1C14.7,88.5,14.6,88.5,14.6,88.5L14.6,88.5z"/>
		</g>
	</g>
	<g>
		<polygon fill-rule="evenodd" clip-rule="evenodd" fill="#A27556" points="60.9,91.7 62.8,87.1 65.6,88.3 63.7,92.8 		"/>
		<path fill="#4C4134" d="M63.3,88.4l0.9,0.4l-1.1,2.7l-0.9-0.4L63.3,88.4 M62.2,85.8l-0.8,1.9l-1.1,2.7l-0.8,1.8l1.8,0.8l0.9,0.4
			l1.9,0.8l0.8-1.9l1.1-2.7l0.8-1.8L65,87l-0.9-0.4L62.2,85.8L62.2,85.8z"/>
	</g>
	<g>
		<path fill-rule="evenodd" clip-rule="evenodd" fill="#4B9A49" d="M59.5,93.4c-0.5,0-0.9-0.3-1-0.8c-0.1-0.5,0.2-1,0.7-1.1l2-0.6
			c0.1,0,0.2,0,0.3,0c0.2,0,0.4,0.1,0.6,0.2c0.3,0.2,0.4,0.5,0.4,0.9l0,0.6c0,0.5-0.5,0.9-1,0.9C61.5,93.3,59.5,93.4,59.5,93.4z"/>
		<g>
			<path fill="#214420" d="M61.5,91.7l0,0.6l-2,0.1L61.5,91.7 M61.5,89.7c-0.2,0-0.4,0-0.6,0.1l-2,0.6c-1,0.3-1.5,1.3-1.4,2.3
				c0.2,1,1,1.7,2,1.7c0,0,0.1,0,0.1,0l2-0.1c1,0,1.8-0.8,1.9-1.8l0-0.6c0.1-0.7-0.2-1.3-0.7-1.7C62.4,89.9,62,89.7,61.5,89.7
				L61.5,89.7z"/>
		</g>
	</g>
	<g>
		<path fill-rule="evenodd" clip-rule="evenodd" fill="#4B9A49" d="M64.1,95.3c-0.3,0-0.5-0.1-0.7-0.3L62,93.5
			c-0.3-0.4-0.4-0.9,0-1.3l0.4-0.4c0.2-0.2,0.5-0.4,0.8-0.4c0,0,0.1,0,0.1,0c0.3,0,0.6,0.2,0.8,0.5l1,1.9c0.2,0.4,0.1,1-0.3,1.3
			C64.5,95.3,64.3,95.3,64.1,95.3z"/>
		<g>
			<path fill="#214420" d="M63.1,92.4l1,1.9l-1.4-1.5L63.1,92.4 M63.1,90.4c-0.6,0-1.1,0.3-1.5,0.7l-0.4,0.4
				c-0.7,0.8-0.6,1.9,0.1,2.6l1.4,1.5c0.4,0.4,0.9,0.6,1.5,0.6c0.4,0,0.8-0.1,1.2-0.4c0.8-0.6,1.1-1.7,0.6-2.6l-1-1.9
				c-0.3-0.6-0.9-1-1.6-1.1C63.3,90.4,63.2,90.4,63.1,90.4L63.1,90.4z"/>
		</g>
	</g>
	<g>
		<polygon fill-rule="evenodd" clip-rule="evenodd" fill="#A27556" points="111.1,91.7 113,87.1 115.8,88.3 113.9,92.8 		"/>
		<path fill="#4C4134" d="M113.6,88.4l0.9,0.4l-1.1,2.7l-0.9-0.4L113.6,88.4 M112.5,85.8l-0.8,1.9l-1.1,2.7l-0.8,1.8l1.8,0.8
			l0.9,0.4l1.9,0.8l0.8-1.9l1.1-2.7l0.8-1.8l-1.8-0.8l-0.9-0.4L112.5,85.8L112.5,85.8z"/>
	</g>
	<g>
		<path fill-rule="evenodd" clip-rule="evenodd" fill="#4B9A49" d="M109.7,93.4c-0.5,0-0.9-0.3-1-0.8c-0.1-0.5,0.2-1,0.7-1.1l2-0.6
			c0.1,0,0.2,0,0.3,0c0.2,0,0.4,0.1,0.6,0.2c0.3,0.2,0.4,0.5,0.4,0.9l0,0.6c0,0.5-0.5,0.9-1,0.9C111.7,93.3,109.7,93.4,109.7,93.4z"
			/>
		<g>
			<path fill="#214420" d="M111.8,91.7l0,0.6l-2,0.1L111.8,91.7 M111.8,89.7c-0.2,0-0.4,0-0.6,0.1l-2,0.6c-1,0.3-1.5,1.3-1.4,2.3
				c0.2,1,1,1.7,2,1.7c0,0,0.1,0,0.1,0l2-0.1c1,0,1.8-0.8,1.9-1.8l0-0.6c0.1-0.7-0.2-1.3-0.7-1.7C112.6,89.9,112.2,89.7,111.8,89.7
				L111.8,89.7z"/>
		</g>
	</g>
	<g>
		<path fill-rule="evenodd" clip-rule="evenodd" fill="#4B9A49" d="M114.4,95.3c-0.3,0-0.5-0.1-0.7-0.3l-1.4-1.5
			c-0.3-0.4-0.4-0.9,0-1.3l0.4-0.4c0.2-0.2,0.5-0.4,0.8-0.4c0,0,0.1,0,0.1,0c0.3,0,0.6,0.2,0.8,0.5l1,1.9c0.2,0.4,0.1,1-0.3,1.3
			C114.8,95.3,114.6,95.3,114.4,95.3z"/>
		<g>
			<path fill="#214420" d="M113.4,92.4l1,1.9l-1.4-1.5L113.4,92.4 M113.4,90.4c-0.6,0-1.2,0.3-1.5,0.7l-0.4,0.4
				c-0.6,0.8-0.6,1.9,0.1,2.6l1.4,1.5c0.4,0.4,0.9,0.6,1.5,0.6c0.4,0,0.8-0.1,1.2-0.4c0.8-0.6,1.1-1.7,0.6-2.6l-1-1.9
				c-0.3-0.6-0.9-1-1.6-1.1C113.5,90.4,113.5,90.4,113.4,90.4L113.4,90.4z"/>
		</g>
	</g>
	<g>
		<polygon fill-rule="evenodd" clip-rule="evenodd" fill="#BBBBBB" points="13.6,187.6 19.2,185.9 18.1,191.2 		"/>
		<path fill="#484848" d="M17.9,187.4l-0.4,2l-1.7-1.4L17.9,187.4 M20.5,184.5l-3.2,1l-2.2,0.7l-3.7,1.1l3,2.4l1.7,1.4l2.5,2
			l0.7-3.1l0.4-2L20.5,184.5L20.5,184.5z"/>
	</g>
	<g>
		<path fill-rule="evenodd" clip-rule="evenodd" fill="#4B9A49" d="M29.4,194.4c-0.4,0-0.7-0.2-0.9-0.5l-1-1.9
			c-0.2-0.3-0.2-0.6,0-0.9c0.2-0.3,0.5-0.5,0.8-0.5l0.6-0.1c0,0,0.1,0,0.1,0c0.5,0,0.9,0.3,1,0.8l0.4,1.9c0.1,0.5-0.2,1-0.6,1.2
			C29.6,194.4,29.5,194.4,29.4,194.4z"/>
		<g>
			<path fill="#214420" d="M28.9,191.5l0.4,1.9l-1-1.9L28.9,191.5 M28.9,189.5c-0.1,0-0.1,0-0.2,0l-0.6,0.1c-0.7,0.1-1.3,0.5-1.6,1
				c-0.3,0.6-0.3,1.3,0,1.9l1,1.9c0.4,0.7,1,1.1,1.8,1.1c0.2,0,0.5,0,0.7-0.1c0.9-0.4,1.5-1.3,1.2-2.3l-0.4-1.9
				C30.7,190.1,29.8,189.5,28.9,189.5L28.9,189.5z"/>
		</g>
	</g>
	<g>
		<path fill-rule="evenodd" clip-rule="evenodd" fill="#4B9A49" d="M29.2,191.1c-0.2,0-0.3,0-0.5-0.1l-0.5-0.3
			c-0.3-0.2-0.5-0.5-0.5-0.8c0-0.3,0.1-0.7,0.4-0.9l1.7-1.3c0.2-0.1,0.4-0.2,0.6-0.2c0.3,0,0.5,0.1,0.7,0.3c0.4,0.3,0.4,0.9,0.1,1.3
			l-1.2,1.6C29.8,191,29.5,191.1,29.2,191.1z"/>
		<g>
			<path fill="#214420" d="M30.4,188.5l-1.2,1.6l-0.5-0.3L30.4,188.5 M30.4,186.5c-0.4,0-0.9,0.1-1.2,0.4l-1.7,1.3
				c-0.5,0.4-0.8,1.1-0.8,1.7s0.4,1.3,1,1.6l0.5,0.3c0.3,0.2,0.6,0.3,1,0.3c0.6,0,1.2-0.3,1.6-0.8l1.2-1.6c0.6-0.8,0.5-1.9-0.2-2.6
				C31.4,186.7,30.9,186.5,30.4,186.5L30.4,186.5z"/>
		</g>
	</g>
	<g>
		<polygon fill-rule="evenodd" clip-rule="evenodd" fill="#BBBBBB" points="82.7,40.1 87.7,42.1 83.4,45.9 		"/>
		<path fill="#484848" d="M83.9,41.6l1.9,0.8l-1.7,1.5L83.9,41.6 M81.6,38.5l0.4,3.3l0.2,2.2l0.4,3.8l2.9-2.6l1.7-1.5l2.4-2.1
			l-3-1.2l-1.9-0.8L81.6,38.5L81.6,38.5z"/>
	</g>
	<path fill-rule="evenodd" clip-rule="evenodd" fill="#214420" d="M89.8,31.9l-0.3,0.4c-0.1,0.2-0.3,0.3-0.5,0.4
		c-0.2,0.1-0.3,0.1-0.5,0.2l-2.4-4.2c0.1-0.1,0.1-0.2,0.2-0.3c0.6-0.6,1.5-0.5,2.1,0.1l1.3,1.4C90.3,30.5,90.3,31.4,89.8,31.9z"/>
	<polygon fill-rule="evenodd" clip-rule="evenodd" fill="#4B9A49" points="88.3,31.4 88.7,31 87.3,29.5 	"/>
	<g>
		<polygon fill-rule="evenodd" clip-rule="evenodd" fill="#BBBBBB" points="132.8,40.2 137.8,42.3 133.5,46.1 		"/>
		<path fill="#484848" d="M134,41.8l1.9,0.8l-1.7,1.5L134,41.8 M131.7,38.7L132,42l0.2,2.2l0.4,3.9l2.9-2.6l1.7-1.5l2.4-2.1l-3-1.2
			l-1.9-0.8L131.7,38.7L131.7,38.7z"/>
	</g>
	<path fill-rule="evenodd" clip-rule="evenodd" fill="#214420" d="M139.9,32.1l-0.3,0.4c-0.1,0.2-0.3,0.3-0.5,0.4
		c-0.2,0.1-0.3,0.1-0.5,0.2l-2.4-4.2c0.1-0.1,0.1-0.2,0.2-0.3c0.6-0.6,1.6-0.5,2.1,0.1l1.3,1.4C140.4,30.6,140.4,31.5,139.9,32.1z"
		/>
	<polygon fill-rule="evenodd" clip-rule="evenodd" fill="#4B9A49" points="138.4,31.6 138.8,31.1 137.4,29.7 	"/>
	<g>
		<polygon fill-rule="evenodd" clip-rule="evenodd" fill="#BBBBBB" points="31.9,37.8 36.9,39.8 32.6,43.6 		"/>
		<path fill="#484848" d="M33.1,39.4l1.9,0.8l-1.7,1.5L33.1,39.4 M30.8,36.2l0.4,3.3l0.2,2.2l0.4,3.9l2.9-2.6l1.7-1.5l2.4-2.1
			l-3-1.2l-1.9-0.8L30.8,36.2L30.8,36.2z"/>
	</g>
	<path fill-rule="evenodd" clip-rule="evenodd" fill="#214420" d="M37.7,29.7l0-0.6c0.1-0.8,0.8-1.4,1.5-1.4l1.9-0.1
		c0.8,0,1.5,0.6,1.6,1.4c0,0.7-0.4,1.3-1.1,1.5l-2,0.6c-0.8,0.2-1.6-0.2-1.9-1C37.7,30.1,37.6,29.9,37.7,29.7L37.7,29.7z"/>
	<polygon fill-rule="evenodd" clip-rule="evenodd" fill="#4B9A49" points="39.1,29.8 39.2,29.2 41.2,29.2 	"/>
	<path fill-rule="evenodd" clip-rule="evenodd" fill="#214420" d="M39,29.7L38.7,30c-0.1,0.2-0.3,0.3-0.5,0.4
		c-0.1,0-0.2,0.1-0.2,0.1l-0.2-0.1l-2.4-4.2c0,0,0.1-0.1,0.1-0.1c0.6-0.6,1.6-0.5,2.1,0.1l1.3,1.4C39.5,28.2,39.5,29.1,39,29.7z"/>
	<polygon fill-rule="evenodd" clip-rule="evenodd" fill="#4B9A49" points="37.5,29.1 37.9,28.7 36.5,27.2 	"/>
</g>
</svg>
