<svg version="1.1" id="Layer_3" xmlns="http://www.w3.org/2000/svg" x="0" y="0" width="150" height="250" viewBox="0 0 150 250" xml:space="preserve"><g><path fill-rule="evenodd" clip-rule="evenodd" fill="#A27556" d="M24.9 89.8c-2.1 0-4.1-.7-5.7-1.9l-.5-.4.1-.6c.9-6.3 3.8-8.5 6.1-8.5s5.1 2.2 6.1 8.5l.1.6-.5.4c-1.6 1.2-3.6 1.9-5.7 1.9z"/><path fill="#4F392A" d="M24.9 79.5c2.2 0 4.3 2.6 5.1 7.7-1.5 1.1-3.3 1.7-5.1 1.7-1.8 0-3.6-.6-5.1-1.7.8-5.2 3-7.7 5.1-7.7m0-2c-2.7 0-6 2.5-7.1 9.4l-.1 1.1.9.7c1.8 1.4 4 2.1 6.3 2.1s4.5-.8 6.3-2.1l.9-.7-.1-1.2c-1-6.9-4.3-9.3-7.1-9.3z"/></g><path fill-rule="evenodd" clip-rule="evenodd" fill="#91694D" d="M19.8 87.1c.7-4.9 2.8-7.5 4.9-7.6-2 .2-2.9 2.7-1.4 7.6 1.2.7 2.5 1.2 3.7 1.5-2.4.6-5.1.1-7.2-1.5z"/><g><path fill-rule="evenodd" clip-rule="evenodd" fill="#A27556" d="M24.9 85.8c-1.1 0-2.1-.9-2.2-2.1-.1-1.3.8-2.4 1.9-2.6h.2c1.1 0 2.1.9 2.2 2.1.1 1.3-.8 2.4-1.9 2.6h-.2z"/><path fill="#4F392A" d="M24.9 82.1c.6 0 1.1.5 1.2 1.2.1.7-.4 1.4-1.1 1.5h-.1c-.6 0-1.1-.5-1.2-1.2-.1-.7.4-1.4 1.1-1.5h.1m0-2h-.4c-1.7.2-3 1.8-2.8 3.6.2 1.7 1.5 3 3.2 3h.4c1.7-.2 3-1.8 2.8-3.6-.2-1.7-1.5-3-3.2-3z"/></g><g><path fill-rule="evenodd" clip-rule="evenodd" fill="#A27556" d="M74.9 89.8c-2.1 0-4.1-.7-5.7-1.9l-.5-.4.1-.6c.9-6.3 3.8-8.5 6.1-8.5s5.1 2.2 6.1 8.5l.1.6-.5.4c-1.6 1.2-3.6 1.9-5.7 1.9z"/><path fill="#4F392A" d="M74.9 79.5c2.2 0 4.3 2.6 5.1 7.7-1.5 1.1-3.3 1.7-5.1 1.7-1.8 0-3.6-.6-5.1-1.7.8-5.2 3-7.7 5.1-7.7m0-2c-2.7 0-6 2.5-7.1 9.4l-.1 1.1.9.7c1.8 1.4 4 2.1 6.3 2.1s4.5-.8 6.3-2.1l.9-.7-.1-1.2c-1-6.9-4.3-9.3-7.1-9.3z"/></g><path fill-rule="evenodd" clip-rule="evenodd" fill="#91694D" d="M69.8 87.1c.7-4.9 2.8-7.5 4.9-7.6-2 .2-2.9 2.7-1.4 7.6 1.2.7 2.5 1.2 3.7 1.5-2.4.6-5.1.1-7.2-1.5z"/><g><path fill-rule="evenodd" clip-rule="evenodd" fill="#A27556" d="M74.9 85.8c-1.1 0-2.1-.9-2.2-2.1-.1-1.3.8-2.4 1.9-2.6h.2c1.1 0 2.1.9 2.2 2.1.1 1.3-.8 2.4-1.9 2.6h-.2z"/><path fill="#4F392A" d="M74.9 82.1c.6 0 1.1.5 1.2 1.2.1.7-.4 1.4-1.1 1.5h-.1c-.6 0-1.1-.5-1.2-1.2-.1-.7.4-1.4 1.1-1.5h.1m0-2h-.4c-1.7.2-3 1.8-2.8 3.6.2 1.7 1.5 3 3.2 3h.4c1.7-.2 3-1.8 2.8-3.6-.2-1.7-1.5-3-3.2-3z"/></g><g><path fill-rule="evenodd" clip-rule="evenodd" fill="#A27556" d="M124.9 89.8c-2.1 0-4.1-.7-5.7-1.9l-.5-.4.1-.6c.9-6.3 3.8-8.5 6.1-8.5s5.1 2.2 6.1 8.5l.1.6-.5.4c-1.6 1.2-3.6 1.9-5.7 1.9z"/><path fill="#4F392A" d="M124.9 79.5c2.2 0 4.3 2.6 5.1 7.7-1.5 1.1-3.3 1.7-5.1 1.7-1.8 0-3.6-.6-5.1-1.7.8-5.2 3-7.7 5.1-7.7m0-2c-2.7 0-6 2.5-7.1 9.4l-.2 1.2.9.7c1.8 1.4 4 2.1 6.3 2.1s4.5-.8 6.3-2.1l.9-.7-.2-1.2c-.8-7-4.1-9.4-6.9-9.4z"/></g><path fill-rule="evenodd" clip-rule="evenodd" fill="#91694D" d="M119.8 87.1c.7-4.9 2.8-7.5 4.9-7.6-2 .2-2.9 2.7-1.4 7.6 1.2.7 2.5 1.2 3.7 1.5-2.4.6-5.1.1-7.2-1.5z"/><g><path fill-rule="evenodd" clip-rule="evenodd" fill="#A27556" d="M124.9 85.8c-1.1 0-2.1-.9-2.2-2.1-.1-1.3.8-2.4 1.9-2.6h.2c1.1 0 2.1.9 2.2 2.1.1 1.3-.8 2.4-1.9 2.6h-.2z"/><path fill="#4F392A" d="M124.9 82.1c.6 0 1.1.5 1.2 1.2.1.7-.4 1.4-1.1 1.5h-.1c-.6 0-1.1-.5-1.2-1.2-.1-.7.4-1.4 1.1-1.5h.1m0-2h-.4c-1.7.2-3 1.8-2.8 3.6.2 1.7 1.5 3 3.2 3h.4c1.7-.2 3-1.8 2.8-3.6-.2-1.7-1.5-3-3.2-3z"/></g><g><path fill-rule="evenodd" clip-rule="evenodd" fill="#A27556" d="M16.1 139.4c-2.1 0-4.1-.7-5.7-1.9l-.5-.4.1-.6c.9-6.3 3.8-8.5 6.1-8.5.5 0 1 .1 1.4.3l.6.3v10.7l-.9.1h-1.1z"/><path fill="#4F392A" d="M16.1 129c.4 0 .7.1 1.1.2v9.1c-.4 0-.7.1-1.1.1-1.8 0-3.6-.6-5.1-1.7.7-5.1 2.9-7.7 5.1-7.7m0-2c-2.7 0-6 2.5-7.1 9.4l-.2 1.2.9.7c1.8 1.4 4 2.1 6.3 2.1.4 0 .9 0 1.3-.1l1.8-.2-.1-1.8v-10.4l-1.3-.5c-.4-.3-1-.4-1.6-.4z"/></g><path fill-rule="evenodd" clip-rule="evenodd" fill="#91694D" d="M11 136.7c.7-4.9 2.8-7.5 4.9-7.7-2 .2-2.9 2.7-1.4 7.7 1.2.7 2.5 1.2 3.7 1.5-2.5.6-5.2.1-7.2-1.5z"/><g><path fill-rule="evenodd" clip-rule="evenodd" fill="#A27556" d="M12.9 133.7c-1.1 0-2.1-.9-2.2-2.1-.1-1.3.8-2.4 1.9-2.6h.2c1.1 0 2.1.9 2.2 2.1.1 1.3-.8 2.4-1.9 2.6h-.2z"/><path fill="#4F392A" d="M12.9 130c.6 0 1.1.5 1.2 1.2.1.7-.4 1.4-1.1 1.5h-.1c-.6 0-1.1-.5-1.2-1.2-.1-.7.4-1.4 1.1-1.5h.1m0-2h-.3c-1.7.2-3 1.8-2.8 3.6.2 1.7 1.5 3 3.2 3h.4c1.7-.2 3-1.8 2.8-3.6-.3-1.7-1.7-3-3.3-3z"/></g><g><path fill-rule="evenodd" clip-rule="evenodd" fill="#A27556" d="M66.1 139.4c-2.1 0-4.1-.7-5.7-1.9l-.5-.4.1-.6c.9-6.3 3.8-8.5 6.1-8.5.5 0 1 .1 1.4.3l.6.3v10.7l-.9.1h-1.1z"/><path fill="#4F392A" d="M66.1 129c.4 0 .7.1 1.1.2v9.1c-.4 0-.7.1-1.1.1-1.8 0-3.6-.6-5.1-1.7.7-5.1 2.9-7.7 5.1-7.7m0-2c-2.7 0-6 2.5-7.1 9.4l-.2 1.2.9.7c1.8 1.4 4 2.1 6.3 2.1.4 0 .9 0 1.3-.1l1.8-.2-.1-1.8v-10.4l-1.3-.5c-.4-.3-1-.4-1.6-.4z"/></g><path fill-rule="evenodd" clip-rule="evenodd" fill="#91694D" d="M61 136.7c.7-4.9 2.8-7.5 4.9-7.7-2 .2-2.9 2.7-1.4 7.7 1.2.7 2.5 1.2 3.7 1.5-2.5.6-5.2.1-7.2-1.5z"/><g><path fill-rule="evenodd" clip-rule="evenodd" fill="#A27556" d="M62.9 133.7c-1.1 0-2.1-.9-2.2-2.1-.1-1.3.8-2.4 1.9-2.6h.2c1.1 0 2.1.9 2.2 2.1.1 1.3-.8 2.4-1.9 2.6h-.2z"/><path fill="#4F392A" d="M62.9 130c.6 0 1.1.5 1.2 1.2.1.7-.4 1.4-1.1 1.5h-.1c-.6 0-1.1-.5-1.2-1.2-.1-.7.4-1.4 1.1-1.5h.1m0-2h-.3c-1.7.2-3 1.8-2.8 3.6.2 1.7 1.5 3 3.2 3h.4c1.7-.2 3-1.8 2.8-3.6-.3-1.7-1.7-3-3.3-3z"/></g><g><path fill-rule="evenodd" clip-rule="evenodd" fill="#A27556" d="M116.1 139.4c-2.1 0-4.1-.7-5.7-1.9l-.5-.4.1-.6c.9-6.3 3.8-8.5 6.1-8.5.5 0 1 .1 1.4.3l.6.2v10.7l-.9.1c-.3.1-.7.1-1.1.1z"/><path fill="#4F392A" d="M116.1 129c.4 0 .7.1 1.1.2v9.1c-.4 0-.7.1-1.1.1-1.8 0-3.6-.6-5.1-1.7.7-5.1 2.9-7.7 5.1-7.7m0-2c-2.7 0-6 2.5-7.1 9.4l-.2 1.2.9.7c1.8 1.4 4 2.1 6.3 2.1.4 0 .9 0 1.3-.1l1.8-.2-.1-1.8v-10.4l-1.3-.5c-.4-.3-1-.4-1.6-.4z"/></g><path fill-rule="evenodd" clip-rule="evenodd" fill="#91694D" d="M111 136.7c.7-4.9 2.8-7.5 4.9-7.7-2 .2-2.9 2.7-1.4 7.7 1.2.7 2.5 1.2 3.7 1.5-2.5.6-5.2.1-7.2-1.5z"/><g><path fill-rule="evenodd" clip-rule="evenodd" fill="#A27556" d="M112.9 133.7c-1.1 0-2.1-.9-2.2-2.1-.1-1.3.8-2.4 1.9-2.6h.2c1.1 0 2.1.9 2.2 2.1.1 1.3-.8 2.4-1.9 2.6h-.2z"/><path fill="#4F392A" d="M112.9 130c.6 0 1.1.5 1.2 1.2.1.7-.4 1.4-1.1 1.5h-.1c-.6 0-1.1-.5-1.2-1.2-.1-.7.4-1.4 1.1-1.5h.1m0-2h-.3c-1.8.2-3 1.8-2.8 3.6.2 1.7 1.5 3 3.2 3h.4c1.7-.2 3-1.8 2.8-3.6-.3-1.7-1.7-3-3.3-3z"/></g><g><path fill-rule="evenodd" clip-rule="evenodd" fill="#A27556" d="M34 189.4c-.4 0-.8 0-1.2-.1l-.9-.1v-10.6l.6-.3c.5-.2.9-.3 1.4-.3 2.3 0 5.1 2.2 6.1 8.5l.1.6-.5.4c-1.5 1.2-3.5 1.9-5.6 1.9z"/><path fill="#4F392A" d="M34 179c2.2 0 4.3 2.5 5.1 7.7-1.5 1.1-3.3 1.7-5.1 1.7-.4 0-.7 0-1.1-.1v-9.1c.4-.1.8-.2 1.1-.2m0-2c-.6 0-1.2.1-1.8.3l-1.3.5v10.4l-.1 1.8 1.8.2c.4.1.9.1 1.3.1 2.3 0 4.5-.8 6.3-2.1l.9-.7-.2-1.2c-.8-6.8-4.1-9.3-6.9-9.3z"/></g><path fill-rule="evenodd" clip-rule="evenodd" fill="#BF9D86" d="M39.1 186.7c-.9-5.9-3.7-8.4-6.2-7.4v1.8c1.5 1.2 3.6 3.3 5.3 5.1-.6 1.1-2.4 2.2-4.2 2.2 1.9 0 3.7-.6 5.1-1.7z"/><g><path fill-rule="evenodd" clip-rule="evenodd" fill="#A27556" d="M37.2 183.7H37c-1.2-.1-2.1-1.3-1.9-2.6.1-1.2 1-2.1 2.2-2.1h.2c1.2.1 2.1 1.3 1.9 2.6-.1 1.2-1 2.1-2.2 2.1z"/><path fill="#4F392A" d="M37.2 180h.1c.7.1 1.1.7 1.1 1.5-.1.7-.6 1.2-1.2 1.2h-.1c-.7-.1-1.1-.7-1.1-1.5.1-.7.6-1.2 1.2-1.2m0-2c-1.6 0-3 1.3-3.2 3-.2 1.8 1.1 3.5 2.8 3.6h.3c1.6 0 3-1.3 3.2-3 .2-1.8-1.1-3.4-2.8-3.6h-.3z"/></g><g><path fill-rule="evenodd" clip-rule="evenodd" fill="#A27556" d="M84 189.4c-.4 0-.8 0-1.2-.1l-.9-.1v-10.6l.6-.3c.5-.2.9-.3 1.4-.3 2.3 0 5.1 2.2 6.1 8.5l.1.6-.5.4c-1.5 1.2-3.5 1.9-5.6 1.9z"/><path fill="#4F392A" d="M84 179c2.2 0 4.3 2.5 5.1 7.7-1.5 1.1-3.3 1.7-5.1 1.7-.4 0-.7 0-1.1-.1v-9.1c.4-.1.8-.2 1.1-.2m0-2c-.6 0-1.2.1-1.8.3l-1.3.5v10.4l-.1 1.8 1.8.2c.4.1.9.1 1.3.1 2.3 0 4.5-.8 6.3-2.1l.9-.7-.2-1.2c-.8-6.8-4.1-9.3-6.9-9.3z"/></g><path fill-rule="evenodd" clip-rule="evenodd" fill="#BF9D86" d="M89.1 186.7c-.9-5.9-3.7-8.4-6.2-7.4v1.8c1.5 1.2 3.6 3.3 5.3 5.1-.6 1.1-2.4 2.2-4.2 2.2 1.9 0 3.7-.6 5.1-1.7z"/><g><path fill-rule="evenodd" clip-rule="evenodd" fill="#A27556" d="M87.2 183.7H87c-1.2-.1-2.1-1.3-1.9-2.6.1-1.2 1-2.1 2.2-2.1h.2c1.2.1 2.1 1.3 1.9 2.6-.1 1.2-1 2.1-2.2 2.1z"/><path fill="#4F392A" d="M87.2 180h.1c.7.1 1.1.7 1.1 1.5-.1.7-.6 1.2-1.2 1.2h-.1c-.7-.1-1.1-.7-1.1-1.5.1-.7.6-1.2 1.2-1.2m0-2c-1.7 0-3 1.3-3.2 3-.2 1.8 1.1 3.4 2.8 3.6h.3c1.7 0 3-1.3 3.2-3 .2-1.8-1.1-3.4-2.8-3.6h-.3z"/></g><g><path fill-rule="evenodd" clip-rule="evenodd" fill="#A27556" d="M134 189.4c-.4 0-.8 0-1.2-.1l-.9-.1v-10.6l.6-.3c.5-.2.9-.3 1.4-.3 2.3 0 5.1 2.2 6.1 8.5l.1.6-.5.4c-1.5 1.2-3.5 1.9-5.6 1.9z"/><path fill="#4F392A" d="M134 179c2.2 0 4.3 2.5 5.1 7.7-1.5 1.1-3.3 1.7-5.1 1.7-.4 0-.7 0-1.1-.1v-9.1c.4-.1.8-.2 1.1-.2m0-2c-.6 0-1.2.1-1.8.3l-1.3.5v10.4l-.1 1.8 1.8.2c.4.1.9.1 1.3.1 2.3 0 4.5-.8 6.3-2.1l.9-.7-.2-1.2c-.8-6.8-4.1-9.3-6.9-9.3z"/></g><path fill-rule="evenodd" clip-rule="evenodd" fill="#BF9D86" d="M139.1 186.7c-.9-5.9-3.7-8.4-6.2-7.4v1.8c1.5 1.2 3.6 3.3 5.3 5.1-.6 1.1-2.4 2.2-4.2 2.2 1.9 0 3.7-.6 5.1-1.7z"/><g><path fill-rule="evenodd" clip-rule="evenodd" fill="#A27556" d="M137.2 183.7h-.2c-1.2-.1-2.1-1.3-1.9-2.6.1-1.2 1-2.1 2.2-2.1h.2c1.2.1 2.1 1.3 1.9 2.6-.1 1.2-1 2.1-2.2 2.1z"/><path fill="#4F392A" d="M137.2 180h.1c.7.1 1.1.7 1.1 1.5-.1.7-.6 1.2-1.2 1.2h-.1c-.7-.1-1.1-.7-1.1-1.5.1-.7.6-1.2 1.2-1.2m0-2c-1.7 0-3 1.3-3.2 3-.2 1.8 1.1 3.4 2.8 3.6h.3c1.7 0 3-1.3 3.2-3 .2-1.8-1.1-3.4-2.8-3.6h-.3z"/></g></svg>