<?xml version="1.0" encoding="utf-8"?>
<!-- Generator: Adobe Illustrator 16.0.0, SVG Export Plug-In . SVG Version: 6.00 Build 0)  -->
<!DOCTYPE svg PUBLIC "-//W3C//DTD SVG 1.1//EN" "http://www.w3.org/Graphics/SVG/1.1/DTD/svg11.dtd">
<svg version="1.1" id="Layer_3" xmlns="http://www.w3.org/2000/svg" xmlns:xlink="http://www.w3.org/1999/xlink" x="0px" y="0px"
	 width="150px" height="250px" viewBox="0 0 150 250" enable-background="new 0 0 150 250" xml:space="preserve">
<path fill-rule="evenodd" clip-rule="evenodd" fill="#A27556" d="M35.8,28.2c4,0,7.2,3.2,7.2,7.2s-3.2,7.2-7.2,7.2
	c-4,0-7.2-3.2-7.2-7.2S31.8,28.2,35.8,28.2z"/>
<path fill-rule="evenodd" clip-rule="evenodd" fill="#A27556" d="M35.8,228.2c4,0,7.2,3.2,7.2,7.2s-3.2,7.2-7.2,7.2
	c-4,0-7.2-3.2-7.2-7.2S31.8,228.2,35.8,228.2z"/>
<path fill-rule="evenodd" clip-rule="evenodd" fill="#A27556" d="M85.8,228.2c4,0,7.2,3.2,7.2,7.2s-3.2,7.2-7.2,7.2
	c-4,0-7.2-3.2-7.2-7.2S81.8,228.2,85.8,228.2z"/>
<path fill-rule="evenodd" clip-rule="evenodd" fill="#A27556" d="M135.8,228.2c4,0,7.2,3.2,7.2,7.2s-3.2,7.2-7.2,7.2
	s-7.2-3.2-7.2-7.2S131.8,228.2,135.8,228.2z"/>
<path fill-rule="evenodd" clip-rule="evenodd" fill="#A27556" d="M14.1,78.3c0.3,0,0.5,0,0.8,0L13,81.5c-0.8,0.5-1.4,1.2-1.8,2
	c-1.8,3.9,1.5,5.9,4.9,6.3l0.2-1.5l0-0.2l1,0.8c0.1,0.2,0.1,0.5,0.2,0.7c0.1,0.2,0.2,0.4,0.3,0.7l0,0.2v1.2
	c-1.1,0.7-2.4,1.1-3.8,1.1c-4,0-7.2-3.2-7.2-7.2C6.8,81.6,10.1,78.3,14.1,78.3z"/>
<g>
	<path fill-rule="evenodd" clip-rule="evenodd" fill="#BBBBBB" d="M14.1,93.8c-4.5,0-8.2-3.7-8.2-8.2c0-4.5,3.7-8.2,8.2-8.2
		c0.3,0,0.6,0,0.9,0c0.3,0,0.6,0.2,0.8,0.5c0.2,0.3,0.1,0.7,0,1l-1.7,3c-0.2,0.3-0.5,0.5-0.9,0.5c-0.1,0-0.2,0-0.3,0
		c-0.4-0.1-0.7-0.5-0.7-1v-0.8c-1.3,0.5-2.4,1.6-2.9,2.9h1.8c0.3,0,0.6,0.1,0.8,0.3c0.2,0.2,0.3,0.5,0.2,0.8c-0.1,0.5,0,1,0.1,1.5
		c0.1,0.3,0,0.6-0.1,0.9c-0.2,0.3-0.5,0.4-0.8,0.4H9.1c0.5,1.3,1.6,2.4,2.9,2.9v-1.5c0-0.4,0.2-0.7,0.5-0.9c0.2-0.1,0.3-0.1,0.5-0.1
		c0.2,0,0.3,0,0.5,0.1c0.5,0.3,0.9,0.4,1.6,0.5c0.5,0.1,0.9,0.5,0.9,1v0.9c0.4-0.2,0.8-0.4,1.2-0.7c0.2-0.1,0.4-0.2,0.6-0.2
		c0.2,0,0.3,0,0.4,0.1c0.3,0.2,0.6,0.5,0.6,0.9v1.1c0,0.3-0.2,0.7-0.5,0.9C17.1,93.4,15.6,93.8,14.1,93.8z"/>
	<path fill="#484848" d="M14.1,78.3c0.3,0,0.5,0,0.8,0l-1.7,3v-2.1c-2.7,0.4-4.8,2.6-5.3,5.3h3.1c-0.1,0.7-0.1,1.3,0.2,2H7.8
		c0.4,2.7,2.6,4.8,5.3,5.3v-2.8c0.7,0.4,1.2,0.5,2,0.6v2.2c1-0.2,2-0.6,2.8-1.2v1.1c-1.1,0.7-2.4,1.1-3.8,1.1c-4,0-7.2-3.2-7.2-7.2
		C6.8,81.6,10.1,78.3,14.1,78.3 M14.1,76.3c-5.1,0-9.2,4.1-9.2,9.2c0,5.1,4.1,9.2,9.2,9.2c1.7,0,3.4-0.5,4.9-1.4
		c0.6-0.4,0.9-1,0.9-1.7v-1.1c0-0.8-0.4-1.5-1.1-1.8c-0.3-0.1-0.6-0.2-0.9-0.2c-0.3,0-0.7,0.1-1,0.2c-0.3-0.6-0.9-1.1-1.6-1.2
		c-0.7-0.1-0.9-0.2-1.3-0.3c-0.3-0.2-0.6-0.3-1-0.3c0,0,0,0-0.1,0c0.1-0.4,0.1-0.7,0-1.1c-0.1-0.4-0.1-0.7-0.1-1.1
		c0.1-0.6-0.1-1.1-0.4-1.6c0,0,0.1,0,0.1,0c0.2,0,0.3,0.1,0.5,0.1c0.7,0,1.4-0.4,1.7-1l1.7-3c0.3-0.6,0.4-1.3,0-1.9s-0.9-1-1.6-1.1
		C14.7,76.4,14.4,76.3,14.1,76.3L14.1,76.3z M10.9,82.6c0.1-0.1,0.2-0.2,0.3-0.3c0.1,0.1,0.2,0.3,0.3,0.4
		C11.3,82.6,11.1,82.6,10.9,82.6L10.9,82.6z"/>
</g>
<path fill-rule="evenodd" clip-rule="evenodd" fill="#A27556" d="M67.9,92.7c-1.2,0.9-2.7,1.4-4.3,1.4c-4,0-7.2-3.2-7.2-7.2
	c0-3.9,3.1-7.1,6.9-7.2L61,83.5c-0.8,0.5-1.4,1.2-1.8,2c-0.4,1-0.5,2.1-0.2,3.2v0c0.3,0.8,0.7,1.5,1.4,2c0.6,0.5,1.4,0.9,2.2,1
	l1.5,0.2l0.2-1.5l0-0.2l0.1,0.1l1.1,1l1-1.1c0.3-0.4,0.5-0.8,0.7-1.2c0.1,0.3,0.1,0.5,0.2,0.8c0.1,0.2,0.2,0.4,0.3,0.7l0,0.2V92.7z"
	/>
<g>
	<path fill-rule="evenodd" clip-rule="evenodd" fill="#BBBBBB" d="M63.5,95.1c-5.5,0-8.1-4.2-8.1-8.1c-0.1-4,2.6-8.2,7.8-8.4
		c0,0,0,0,0,0c0.3,0,0.7,0.2,0.9,0.5c0.2,0.3,0.2,0.7,0,1l-0.7,1.2c-0.2,0.3-0.5,0.5-0.9,0.5c-0.1,0-0.2,0-0.3,0
		c-0.1,0-0.2-0.1-0.3-0.1c-0.8,0.3-2.6,1.4-3.4,3.2h0.4c0.3,0,0.6,0.2,0.8,0.4c0.2,0.3,0.2,0.6,0.1,0.9c-0.2,0.5-0.2,1-0.1,1.5
		c0,0.3,0,0.6-0.2,0.8s-0.5,0.3-0.8,0.3h-0.3c0.5,1.3,1.6,2.4,2.9,2.9v-0.3c0-0.3,0.1-0.6,0.3-0.8c0.2-0.2,0.4-0.2,0.7-0.2
		c0,0,0.1,0,0.1,0l0.6,0.1l0.1-0.6c0-0.4,0.3-0.7,0.6-0.8c0.1,0,0.2-0.1,0.4-0.1c0.2,0,0.5,0.1,0.6,0.2l0.2,0.2
		c0.2,0.2,0.4,0.5,0.4,0.8v1.5c0.6-0.2,1.2-0.6,1.6-1.1c0.2-0.2,0.4-0.3,0.7-0.3c0.1,0,0.3,0,0.4,0.1c0.4,0.2,0.6,0.5,0.6,0.9v1.2
		c0,0.3-0.1,0.6-0.4,0.8C67,94.6,65.3,95.1,63.5,95.1z"/>
	<path fill="#484848" d="M63.2,79.7l-0.7,1.2c0-0.2-0.1-0.2-0.3-0.2c-1.1,0-4.4,2.1-4.9,5.3h1.8c-0.2,0.6-0.3,1.3-0.2,2h-1.6
		c0.4,2.7,2.6,4.8,5.3,5.3v-1.6l1.6,0.2l0.2-1.6l0.2,0.2v2.8c1.3-0.2,2.4-0.8,3.3-1.6v1.2c-1.2,0.9-2.7,1.4-4.3,1.4
		C54.2,94.1,53.9,80,63.2,79.7 M63.2,77.7C63.2,77.7,63.2,77.7,63.2,77.7c-6,0.2-8.9,4.9-8.8,9.4c0.1,4.5,3.3,9,9.1,9
		c2,0,3.9-0.6,5.5-1.8c0.5-0.4,0.8-1,0.8-1.6v-1.2c0-0.8-0.5-1.5-1.2-1.8c-0.3-0.1-0.5-0.2-0.8-0.2c-0.5,0-1,0.2-1.4,0.5
		c-0.1-0.5-0.3-0.9-0.7-1.2l-0.2-0.2c-0.4-0.3-0.8-0.5-1.3-0.5c-0.2,0-0.5,0-0.7,0.1c-0.6,0.2-1,0.7-1.2,1.3c-0.4,0-0.9,0.2-1.2,0.5
		c-0.1,0.1-0.2,0.2-0.3,0.3c-0.3-0.2-0.6-0.5-0.9-0.9c0.1-0.1,0.2-0.2,0.3-0.3c0.4-0.4,0.6-1,0.5-1.6c-0.1-0.4,0-0.7,0.1-1.1
		c0.2-0.6,0.1-1.3-0.3-1.8c-0.1-0.2-0.3-0.3-0.5-0.5c0.6-0.7,1.3-1.2,1.8-1.5c0,0,0,0,0,0c0.2,0,0.3,0.1,0.5,0.1
		c0.7,0,1.4-0.4,1.7-1l0.7-1.2c0.4-0.6,0.4-1.4,0-2C64.6,78,63.9,77.7,63.2,77.7L63.2,77.7z"/>
</g>
<path fill-rule="evenodd" clip-rule="evenodd" fill="#A27556" d="M112.8,79.6c0.1,0,0.3,0,0.4,0l-2.2,3.8c-0.8,0.5-1.4,1.2-1.8,2
	c-0.4,1-0.5,2.1-0.2,3.2v0c0.3,0.8,0.7,1.5,1.4,2c0.6,0.5,1.4,0.9,2.2,1l1.5,0.2l0.2-1.5l0-0.2l0.1,0.1l1.1,1l1-1.1
	c0.3-0.4,0.5-0.8,0.7-1.2l0,0v0l0,0l0,0v0l0,0l0,0l0,0l0,0l0,0l0,0l0,0v0l0,0v0l0,0l0,0l0,0l0,0l0,0l0,0l0,0l0,0l0,0l0,0l0,0l0,0v0
	l0,0l0,0v0l0,0l0,0l0,0l0,0v0l0,0l0,0l0,0l0,0v0l0,0l0,0l0,0l0,0v0l0,0l0,0v0l0,0l0,0l0,0l0,0l0,0l0,0l0,0v0l0,0v0l0,0l0,0v0l0,0
	l0,0l0,0l0,0v0l0,0l0,0l0,0l0,0v0l0,0l0,0l0,0l0,0l0,0l0,0l0,0l0,0l0,0l0,0l0,0l0,0v0l0,0l0,0l0,0l0,0l0,0l0,0l0,0l0,0l0,0l0,0l0,0
	l0,0l0,0l0,0l0,0l0,0l0,0l0,0v1.8c-1.3,1.3-3.1,2.1-5.1,2.1c-4,0-7.2-3.2-7.2-7.2C105.6,82.9,108.8,79.6,112.8,79.6z"/>
<g>
	<path fill-rule="evenodd" clip-rule="evenodd" fill="#BBBBBB" d="M112.8,95.1c-5.6,0-8.1-4.3-8.1-8.2c0-2.1,0.7-4.1,2-5.6
		c1.5-1.7,3.5-2.6,6-2.6c0.2,0,0.4,0,0.6,0c0.3,0,0.7,0.2,0.8,0.5c0.2,0.3,0.2,0.7,0,1l-1.4,2.5c-0.2,0.3-0.5,0.5-0.9,0.5
		c-0.1,0-0.2,0-0.3,0c-0.4-0.1-0.7-0.5-0.7-1v-0.2c-1.3,0.5-2.4,1.6-3,2.9h1.2c0.3,0,0.6,0.1,0.8,0.4c0.2,0.3,0.2,0.6,0.2,0.9
		c-0.2,0.5-0.2,1.1-0.1,1.6c0,0.3,0,0.6-0.2,0.8c-0.2,0.2-0.5,0.3-0.8,0.3h-1c0.5,1.3,1.6,2.4,3,2.9v-0.4c0-0.3,0.2-0.6,0.4-0.8
		c0.2-0.1,0.4-0.2,0.6-0.2c0.1,0,0.2,0,0.3,0.1c0.4,0.1,0.9,0.2,1.4,0.3l0.4,0.1c0.5,0.1,0.9,0.5,0.9,1v0.1c0.9-0.4,1.7-1,2.3-1.7
		c0.2-0.3,0.5-0.4,0.8-0.4c0.1,0,0.2,0,0.3,0.1c0.4,0.1,0.7,0.5,0.7,0.9v1.4c0,0.3-0.1,0.5-0.3,0.7C117,94.3,115,95.1,112.8,95.1z"
		/>
	<path fill="#484848" d="M112.7,79.6c0.2,0,0.4,0,0.5,0l-1.4,2.5v-1.5c-2.7,0.4-4.8,2.6-5.3,5.3h2.5l0,0c-0.2,0.6-0.3,1.4-0.2,2
		h-2.3c0.4,2.7,2.6,4.8,5.3,5.3v-1.7c0.6,0.2,1.4,0.3,2,0.4v1.4c1.7-0.3,3.1-1.2,4.1-2.4v1.4c-1.3,1.3-3.1,2.1-5.1,2.1
		C103.2,94.1,103.5,79.6,112.7,79.6 M112.7,77.6L112.7,77.6c-5.9,0-9,4.7-9,9.3c0,4.6,3.1,9.2,9.1,9.2c2.4,0,4.7-0.9,6.5-2.6
		c0.4-0.4,0.6-0.9,0.6-1.4v-1.4c0-0.9-0.5-1.6-1.4-1.9c-0.2-0.1-0.4-0.1-0.6-0.1c-0.6,0-1.2,0.3-1.6,0.8c-0.3,0.4-0.6,0.7-1,0.9
		c-0.3-0.4-0.7-0.6-1.2-0.7c-0.1,0-0.3,0-0.4-0.1c-0.4,0-0.9-0.1-1.2-0.2c-0.2-0.1-0.5-0.1-0.7-0.1c-0.4,0-0.8,0.1-1.1,0.4
		c-0.2,0.1-0.4,0.3-0.5,0.5c-0.2-0.2-0.4-0.3-0.6-0.5c0.3-0.1,0.6-0.3,0.8-0.6c0.4-0.4,0.5-1,0.5-1.6c0-0.3,0-0.8,0.1-1
		c0,0,0-0.1,0-0.1c0.2-0.6,0.1-1.3-0.3-1.8c-0.3-0.4-0.6-0.6-1.1-0.7c0.2-0.2,0.4-0.4,0.7-0.6c0.3,0.3,0.6,0.6,1,0.7
		c0.2,0,0.3,0.1,0.5,0.1c0.7,0,1.4-0.4,1.7-1l1.4-2.5c0.3-0.6,0.4-1.3,0-1.9c-0.3-0.6-0.9-1-1.6-1C113.1,77.6,112.9,77.6,112.7,77.6
		L112.7,77.6z"/>
</g>
<path fill-rule="evenodd" clip-rule="evenodd" fill="#A27556" d="M128,182.5c4,0,7.2,3.2,7.2,7.2c0,4-3.2,7.2-7.2,7.2
	c-4,0-7.2-3.2-7.2-7.2C120.7,185.8,124,182.5,128,182.5z"/>
<g>
	<path fill-rule="evenodd" clip-rule="evenodd" fill="#BBBBBB" d="M128,198c-1.4,0-2.9-0.4-4.1-1.1c0,0,0,0,0,0
		c-2.5-1.5-4.1-4.2-4.1-7.1c0-2.9,1.6-5.7,4.1-7.1c0,0,0,0,0,0c1.2-0.7,2.7-1.1,4.1-1.1c1.4,0,2.9,0.4,4.1,1.1c0,0,0,0,0,0
		c2.5,1.5,4.1,4.2,4.1,7.1c0,2.9-1.6,5.7-4.1,7.1c0,0,0,0,0,0C130.9,197.6,129.4,198,128,198z M130,194.7c0.4-0.1,0.7-0.3,1.1-0.6
		l0,0c0.9-0.6,1.5-1.4,1.9-2.4h-2.3c-0.2,0.2-0.4,0.5-0.6,0.6V194.7z M124.9,194.1c0.3,0.2,0.7,0.4,1.1,0.6v-2.3
		c-0.2-0.2-0.5-0.4-0.6-0.6H123C123.4,192.7,124.1,193.5,124.9,194.1z M132.9,187.8c-0.4-0.9-1-1.8-1.9-2.4l0,0
		c-0.3-0.2-0.7-0.4-1.1-0.6v2.3c0.2,0.2,0.5,0.4,0.6,0.6h1H132.9z M125.3,187.8c0.2-0.2,0.4-0.5,0.6-0.6v-2.3
		c-0.4,0.2-0.7,0.3-1.1,0.6c-0.8,0.6-1.5,1.4-1.9,2.4h1.3H125.3z"/>
	<path fill="#484848" d="M128,182.5c1.3,0,2.6,0.4,3.6,1v1.1c-0.8-0.5-1.7-0.9-2.6-1.1v4.2c0.5,0.2,0.9,0.6,1.1,1.1h1.5v2h-1.5
		c-0.2,0.5-0.6,0.9-1.1,1.1v4.2c1-0.2,1.9-0.5,2.6-1.1v1.1c-1.1,0.6-2.3,1-3.6,1c-1.3,0-2.6-0.4-3.6-1v-1.1c0.8,0.5,1.7,0.9,2.6,1.1
		v-4.2c-0.5-0.2-0.9-0.6-1.1-1.1h-1.5v-2h1.5c0.2-0.5,0.6-0.9,1.1-1.1v-4.2c-1,0.2-1.9,0.5-2.6,1.1v-1.1
		C125.4,182.9,126.7,182.5,128,182.5 M131.6,183.5c2.2,1.3,3.6,3.6,3.6,6.3c0,2.7-1.5,5-3.6,6.3v-1.1c1.4-1,2.4-2.5,2.6-4.2h-2.6v-2
		h2.6c-0.3-1.7-1.2-3.2-2.6-4.2V183.5 M124.3,183.5v1.1c-1.4,1-2.4,2.5-2.6,4.2h2.6v2h-2.6c0.3,1.7,1.2,3.2,2.6,4.2v1.1
		c-2.2-1.3-3.6-3.6-3.6-6.3C120.7,187.1,122.2,184.7,124.3,183.5 M128,180.5c-1.6,0-3.2,0.4-4.6,1.2c0,0,0,0,0,0
		c-2.8,1.7-4.6,4.7-4.6,8c0,3.3,1.8,6.3,4.6,8c0,0,0,0,0,0c1.4,0.8,3,1.2,4.6,1.2s3.2-0.4,4.6-1.2c0,0,0,0,0,0
		c2.8-1.6,4.6-4.7,4.6-8c0-3.3-1.8-6.3-4.6-8c0,0,0,0,0,0C131.2,180.9,129.6,180.5,128,180.5L128,180.5z"/>
</g>
<path fill-rule="evenodd" clip-rule="evenodd" fill="#A27556" d="M75,182.5c4,0,7.2,3.2,7.2,7.2c0,4-3.2,7.2-7.2,7.2
	c-4,0-7.2-3.2-7.2-7.2C67.7,185.8,71,182.5,75,182.5z"/>
<g>
	<path fill-rule="evenodd" clip-rule="evenodd" fill="#BBBBBB" d="M75,198c-1.5,0-2.9-0.4-4.1-1.1c0,0,0,0,0,0
		c-2.5-1.5-4.1-4.2-4.1-7.1s1.6-5.7,4.1-7.1c0,0,0,0,0,0c1.2-0.7,2.7-1.1,4.1-1.1s2.9,0.4,4.1,1.1c0,0,0,0,0,0
		c2.5,1.5,4.1,4.2,4.1,7.1s-1.6,5.7-4.1,7.1l0,0C77.9,197.6,76.4,198,75,198z M77,194.7c0.4-0.1,0.7-0.3,1.1-0.6c0,0,0,0,0,0
		c0.8-0.6,1.5-1.4,1.9-2.4h-2.3c-0.2,0.2-0.4,0.5-0.6,0.6V194.7z M71.9,194.1c0.3,0.2,0.7,0.4,1.1,0.6v-2.3
		c-0.2-0.2-0.5-0.4-0.6-0.6H70C70.4,192.7,71.1,193.5,71.9,194.1C71.9,194.1,71.9,194.1,71.9,194.1z M79.9,187.8
		c-0.4-0.9-1-1.8-1.9-2.4c0,0,0,0,0,0c-0.3-0.2-0.7-0.4-1.1-0.6v2.3c0.2,0.2,0.5,0.4,0.6,0.6h1H79.9z M72.3,187.8
		c0.2-0.2,0.4-0.5,0.6-0.6v-2.3c-0.4,0.2-0.7,0.3-1.1,0.6c0,0,0,0,0,0c-0.8,0.6-1.5,1.4-1.9,2.4h1.3H72.3z"/>
	<path fill="#484848" d="M75,182.5c1.3,0,2.6,0.4,3.6,1v1.1c-0.8-0.5-1.7-0.9-2.6-1.1v4.2c0.5,0.2,0.9,0.6,1.1,1.1h1.5v2h-1.5
		c-0.2,0.5-0.6,0.9-1.1,1.1v4.2c1-0.2,1.9-0.5,2.6-1.1v1.1c-1.1,0.6-2.3,1-3.6,1c-1.3,0-2.6-0.4-3.6-1v-1.1c0.8,0.5,1.7,0.9,2.6,1.1
		v-4.2c-0.5-0.2-0.9-0.6-1.1-1.1h-1.5v-2h1.5c0.2-0.5,0.6-0.9,1.1-1.1v-4.2c-1,0.2-1.9,0.5-2.6,1.1v-1.1
		C72.4,182.9,73.7,182.5,75,182.5 M78.6,183.5c2.2,1.3,3.6,3.6,3.6,6.3c0,2.7-1.5,5-3.6,6.3v-1.1c1.4-1,2.4-2.5,2.6-4.2h-2.6v-2h2.6
		c-0.3-1.7-1.3-3.2-2.6-4.2V183.5 M71.3,183.5v1.1c-1.4,1-2.4,2.5-2.6,4.2h2.6v2h-2.6c0.3,1.7,1.3,3.2,2.6,4.2v1.1
		c-2.2-1.3-3.6-3.6-3.6-6.3C67.7,187.1,69.2,184.7,71.3,183.5 M75,180.5c-1.6,0-3.2,0.4-4.6,1.2c0,0,0,0,0,0c-2.8,1.7-4.6,4.7-4.6,8
		s1.8,6.3,4.6,8c0,0,0,0,0,0c1.4,0.8,3,1.2,4.6,1.2c1.6,0,3.2-0.4,4.6-1.2c0,0,0,0,0,0c2.8-1.7,4.6-4.7,4.6-8c0-3.3-1.8-6.3-4.6-8
		c0,0,0,0,0,0C78.2,180.9,76.6,180.5,75,180.5L75,180.5z"/>
</g>
<path fill-rule="evenodd" clip-rule="evenodd" fill="#A27556" d="M23,181.5c4,0,7.2,3.2,7.2,7.2c0,4-3.2,7.2-7.2,7.2
	c-4,0-7.2-3.2-7.2-7.2C15.7,184.8,19,181.5,23,181.5z"/>
<g>
	<path fill-rule="evenodd" clip-rule="evenodd" fill="#BBBBBB" d="M23,197c-1.4,0-2.9-0.4-4.1-1.1c0,0,0,0,0,0
		c-2.5-1.5-4.1-4.2-4.1-7.1s1.6-5.7,4.1-7.1l0,0c1.2-0.7,2.7-1.1,4.1-1.1s2.9,0.4,4.1,1.1c0,0,0,0,0,0c2.5,1.5,4.1,4.2,4.1,7.1
		c0,2.9-1.6,5.7-4.1,7.1c0,0,0,0,0,0C25.9,196.6,24.4,197,23,197z M25,193.7c0.4-0.1,0.7-0.3,1.1-0.6c0,0,0,0,0,0
		c0.8-0.6,1.5-1.4,1.9-2.4h-2.3c-0.2,0.2-0.4,0.5-0.6,0.6V193.7z M19.9,193.1c0.3,0.2,0.7,0.4,1.1,0.6v-2.3
		c-0.2-0.2-0.5-0.4-0.6-0.6H18C18.4,191.7,19.1,192.5,19.9,193.1C19.9,193.1,19.9,193.1,19.9,193.1z M27.9,186.8
		c-0.4-0.9-1-1.8-1.9-2.4c-0.3-0.2-0.7-0.4-1.1-0.6v2.3c0.2,0.2,0.5,0.4,0.6,0.6h1H27.9z M20.3,186.8c0.2-0.2,0.4-0.5,0.6-0.6v-2.3
		c-0.4,0.2-0.7,0.3-1.1,0.6c0,0,0,0,0,0c-0.8,0.6-1.5,1.4-1.9,2.4h1.3H20.3z"/>
	<path fill="#484848" d="M23,181.5c1.3,0,2.6,0.4,3.6,1v1.1c-0.8-0.5-1.7-0.9-2.6-1.1v4.2c0.5,0.2,0.9,0.6,1.1,1.1h1.5v2h-1.5
		c-0.2,0.5-0.6,0.9-1.1,1.1v4.2c1-0.2,1.9-0.5,2.6-1.1v1.1c-1.1,0.6-2.3,1-3.6,1c-1.3,0-2.6-0.4-3.6-1v-1.1c0.8,0.5,1.7,0.9,2.6,1.1
		v-4.2c-0.5-0.2-0.9-0.6-1.1-1.1h-1.5v-2h1.5c0.2-0.5,0.6-0.9,1.1-1.1v-4.2c-1,0.2-1.9,0.5-2.6,1.1v-1.1
		C20.4,181.9,21.7,181.5,23,181.5 M26.6,182.5c2.2,1.3,3.6,3.6,3.6,6.3c0,2.7-1.5,5-3.6,6.3v-1.1c1.4-1,2.4-2.5,2.6-4.2h-2.6v-2h2.6
		c-0.3-1.7-1.2-3.2-2.6-4.2V182.5 M19.3,182.5v1.1c-1.4,1-2.4,2.5-2.6,4.2h2.6v2h-2.6c0.3,1.7,1.3,3.2,2.6,4.2v1.1
		c-2.2-1.3-3.6-3.6-3.6-6.3C15.7,186.1,17.2,183.7,19.3,182.5 M23,179.5c-1.6,0-3.2,0.4-4.6,1.2c0,0,0,0,0,0c-2.8,1.6-4.6,4.7-4.6,8
		c0,3.3,1.8,6.3,4.6,8c0,0,0,0,0,0c1.4,0.8,3,1.2,4.6,1.2c1.6,0,3.2-0.4,4.6-1.2c0,0,0,0,0,0c2.8-1.7,4.6-4.7,4.6-8
		c0-3.3-1.8-6.4-4.6-8c0,0,0,0,0,0C26.2,179.9,24.6,179.5,23,179.5L23,179.5z"/>
</g>
<g>
	<path fill-rule="evenodd" clip-rule="evenodd" fill="#BBBBBB" d="M35.8,43.6c-1.5,0-2.9-0.4-4.1-1.1c0,0,0,0,0,0
		c-2.5-1.5-4.1-4.2-4.1-7.1s1.6-5.7,4.1-7.1c0,0,0,0,0,0c1.2-0.7,2.7-1.1,4.1-1.1c1.4,0,2.9,0.4,4.1,1.1c0,0,0,0,0,0
		c2.5,1.5,4.1,4.2,4.1,7.1c0,2.9-1.6,5.7-4.1,7.1c0,0,0,0,0,0C38.7,43.3,37.3,43.6,35.8,43.6z M32.8,39.8c0.3,0.2,0.7,0.4,1.1,0.6
		V38c-0.2-0.2-0.5-0.4-0.6-0.6h-2.3C31.3,38.3,31.9,39.2,32.8,39.8C32.8,39.8,32.8,39.8,32.8,39.8z M37.8,40.3
		c0.4-0.2,0.7-0.3,1.1-0.6c0,0,0,0,0,0c0.8-0.6,1.5-1.4,1.9-2.4h-2.3c-0.2,0.2-0.4,0.5-0.6,0.6V40.3z M40.8,33.4
		c-0.4-0.9-1-1.8-1.9-2.4c0,0,0,0,0,0c-0.3-0.2-0.7-0.4-1.1-0.6v2.3c0.2,0.2,0.5,0.4,0.6,0.6h1H40.8z M33.2,33.4
		c0.2-0.2,0.4-0.5,0.6-0.6v-2.3c-0.4,0.1-0.7,0.3-1.1,0.6c0,0,0,0,0,0c-0.9,0.6-1.5,1.4-1.9,2.4h1.3H33.2z"/>
	<path fill="#484848" d="M35.8,28.2c1.3,0,2.6,0.4,3.6,1v1.1c-0.8-0.5-1.7-0.9-2.6-1.1v4.2c0.5,0.2,0.9,0.6,1.1,1.1h1.5v2h-1.5
		c-0.2,0.5-0.6,0.9-1.1,1.1v4.2c1-0.2,1.9-0.5,2.6-1.1v1.1c-1.1,0.6-2.3,1-3.6,1c-1.3,0-2.6-0.4-3.6-1v-1.1c0.8,0.5,1.7,0.9,2.6,1.1
		v-4.2c-0.5-0.2-0.9-0.6-1.1-1.1h-1.5v-2h1.5c0.2-0.5,0.6-0.9,1.1-1.1v-4.2c-1,0.2-1.9,0.5-2.6,1.1v-1.1
		C33.3,28.5,34.5,28.2,35.8,28.2 M39.5,29.1c2.2,1.3,3.6,3.6,3.6,6.3c0,2.7-1.5,5-3.6,6.3v-1.1c1.4-1,2.4-2.5,2.6-4.2h-2.6v-2h2.6
		c-0.3-1.7-1.2-3.2-2.6-4.2V29.1 M32.2,29.1v1.1c-1.4,1-2.4,2.5-2.6,4.2h2.6v2h-2.6c0.3,1.7,1.2,3.2,2.6,4.2v1.1
		c-2.2-1.3-3.6-3.6-3.6-6.3C28.6,32.7,30,30.4,32.2,29.1 M35.8,26.2c-1.6,0-3.2,0.4-4.6,1.2c0,0,0,0,0,0c-2.8,1.6-4.6,4.7-4.6,8
		s1.8,6.4,4.6,8c0,0,0,0,0,0c1.4,0.8,3,1.2,4.6,1.2c1.6,0,3.2-0.4,4.6-1.2c0,0,0,0,0,0c2.8-1.6,4.6-4.7,4.6-8c0-3.3-1.8-6.4-4.6-8
		c0,0,0,0,0,0C39.1,26.6,37.5,26.2,35.8,26.2L35.8,26.2z"/>
</g>
<g>
	<path fill-rule="evenodd" clip-rule="evenodd" fill="#BBBBBB" d="M35.8,243.6c-1.4,0-2.9-0.4-4.1-1.1c0,0,0,0,0,0
		c-2.5-1.5-4.1-4.2-4.1-7.1c0-2.9,1.6-5.7,4.1-7.1c0,0,0,0,0,0c1.3-0.7,2.7-1.1,4.1-1.1c1.4,0,2.9,0.4,4.1,1.1c0,0,0,0,0,0
		c2.5,1.5,4.1,4.2,4.1,7.1c0,2.9-1.6,5.7-4.1,7.1c0,0,0,0,0,0C38.7,243.3,37.3,243.6,35.8,243.6z M32.8,239.8
		c0.3,0.2,0.7,0.4,1.1,0.6V238c-0.2-0.2-0.5-0.4-0.6-0.6h-2.3C31.3,238.3,31.9,239.2,32.8,239.8z M37.8,240.3
		c0.4-0.2,0.7-0.3,1.1-0.6c0.9-0.6,1.5-1.4,1.9-2.4h-2.3c-0.2,0.2-0.4,0.5-0.6,0.6V240.3z M40.8,233.4c-0.4-0.9-1-1.8-1.9-2.4
		c0,0,0,0,0,0c-0.3-0.2-0.7-0.4-1.1-0.6v2.3c0.2,0.2,0.5,0.4,0.6,0.6h1H40.8z M33.2,233.4c0.2-0.2,0.4-0.5,0.6-0.6v-2.3
		c-0.4,0.1-0.7,0.3-1.1,0.6c-0.9,0.6-1.5,1.4-1.9,2.4h1.3H33.2z"/>
	<path fill="#484848" d="M35.8,228.2c1.3,0,2.6,0.4,3.6,1v1.1c-0.8-0.5-1.7-0.9-2.6-1.1v4.2c0.5,0.2,0.9,0.6,1.1,1.1h1.5v2h-1.5
		c-0.2,0.5-0.6,0.9-1.1,1.1v4.2c1-0.2,1.9-0.5,2.6-1.1v1.1c-1.1,0.6-2.3,1-3.6,1c-1.3,0-2.6-0.4-3.6-1v-1.1c0.8,0.5,1.7,0.9,2.6,1.1
		v-4.2c-0.5-0.2-0.9-0.6-1.1-1.1h-1.5v-2h1.5c0.2-0.5,0.6-0.9,1.1-1.1v-4.2c-1,0.2-1.9,0.5-2.6,1.1v-1.1
		C33.3,228.5,34.5,228.2,35.8,228.2 M39.5,229.1c2.2,1.3,3.6,3.6,3.6,6.3s-1.5,5-3.6,6.3v-1.1c1.4-1,2.4-2.5,2.6-4.2h-2.6v-2h2.6
		c-0.3-1.7-1.2-3.2-2.6-4.2V229.1 M32.2,229.1v1.1c-1.4,1-2.4,2.5-2.6,4.2h2.6v2h-2.6c0.3,1.7,1.2,3.2,2.6,4.2v1.1
		c-2.2-1.3-3.6-3.6-3.6-6.3S30,230.4,32.2,229.1 M35.8,226.2c-1.6,0-3.2,0.4-4.6,1.2c0,0,0,0,0,0c-2.8,1.6-4.6,4.7-4.6,8
		s1.8,6.4,4.6,8c0,0,0,0,0,0c1.4,0.8,3,1.2,4.6,1.2c1.6,0,3.2-0.4,4.6-1.2c0,0,0,0,0,0c2.8-1.6,4.6-4.7,4.6-8c0-3.3-1.8-6.3-4.6-8
		c0,0,0,0,0,0C39.1,226.6,37.5,226.2,35.8,226.2L35.8,226.2z"/>
</g>
<g>
	<path fill-rule="evenodd" clip-rule="evenodd" fill="#BBBBBB" d="M85.8,243.6c-1.4,0-2.9-0.4-4.1-1.1c0,0,0,0,0,0
		c-2.5-1.5-4.1-4.2-4.1-7.1c0-2.9,1.6-5.7,4.1-7.1c0,0,0,0,0,0c1.3-0.7,2.7-1.1,4.1-1.1c1.5,0,2.9,0.4,4.1,1.1c0,0,0,0,0,0
		c2.5,1.5,4.1,4.2,4.1,7.1c0,2.9-1.6,5.7-4.1,7.1c0,0,0,0,0,0C88.7,243.3,87.3,243.6,85.8,243.6z M82.8,239.8
		c0.3,0.2,0.7,0.4,1.1,0.6V238c-0.2-0.2-0.5-0.4-0.6-0.6h-2.3C81.3,238.3,81.9,239.2,82.8,239.8L82.8,239.8z M87.8,240.3
		c0.4-0.1,0.7-0.3,1.1-0.6c0.8-0.6,1.5-1.4,1.9-2.4h-2.3c-0.2,0.2-0.4,0.5-0.6,0.6V240.3z M90.8,233.4c-0.4-0.9-1-1.8-1.9-2.4
		c-0.3-0.2-0.7-0.4-1.1-0.6v2.3c0.2,0.2,0.5,0.4,0.6,0.6h1H90.8z M83.2,233.4c0.2-0.2,0.4-0.5,0.6-0.6v-2.3
		c-0.4,0.2-0.7,0.3-1.1,0.6l0,0c-0.9,0.6-1.5,1.4-1.9,2.4h1.3H83.2z"/>
	<path fill="#484848" d="M85.8,228.2c1.3,0,2.6,0.4,3.6,1v1.1c-0.8-0.5-1.7-0.9-2.6-1.1v4.2c0.5,0.2,0.9,0.6,1.1,1.1h1.5v2h-1.5
		c-0.2,0.5-0.6,0.9-1.1,1.1v4.2c1-0.2,1.9-0.5,2.6-1.1v1.1c-1.1,0.6-2.3,1-3.6,1c-1.3,0-2.6-0.4-3.6-1v-1.1c0.8,0.5,1.7,0.9,2.6,1.1
		v-4.2c-0.5-0.2-0.9-0.6-1.1-1.1h-1.5v-2h1.5c0.2-0.5,0.6-0.9,1.1-1.1v-4.2c-1,0.2-1.9,0.5-2.6,1.1v-1.1
		C83.3,228.5,84.5,228.2,85.8,228.2 M89.5,229.1c2.2,1.3,3.6,3.6,3.6,6.3s-1.5,5-3.6,6.3v-1.1c1.4-1,2.4-2.5,2.6-4.2h-2.6v-2h2.6
		c-0.3-1.7-1.3-3.2-2.6-4.2V229.1 M82.2,229.1v1.1c-1.4,1-2.4,2.5-2.6,4.2h2.6v2h-2.6c0.3,1.7,1.2,3.2,2.6,4.2v1.1
		c-2.2-1.3-3.6-3.6-3.6-6.3S80,230.4,82.2,229.1 M85.8,226.2c-1.6,0-3.2,0.4-4.6,1.2c0,0,0,0,0,0c-2.8,1.7-4.6,4.7-4.6,8
		c0,3.3,1.8,6.3,4.6,8c0,0,0,0,0,0c1.4,0.8,3,1.2,4.6,1.2s3.2-0.4,4.6-1.2c0,0,0,0,0,0c2.8-1.7,4.6-4.7,4.6-8c0-3.3-1.8-6.3-4.6-8
		c0,0,0,0,0,0C89.1,226.6,87.5,226.2,85.8,226.2L85.8,226.2z"/>
</g>
<g>
	<path fill-rule="evenodd" clip-rule="evenodd" fill="#BBBBBB" d="M135.8,243.6c-1.5,0-2.9-0.4-4.1-1.1c0,0,0,0,0,0
		c-2.5-1.5-4.1-4.2-4.1-7.1c0-2.9,1.6-5.7,4.1-7.1c0,0,0,0,0,0c1.3-0.7,2.7-1.1,4.1-1.1c1.5,0,2.9,0.4,4.1,1.1c0,0,0,0,0,0
		c2.5,1.5,4.1,4.2,4.1,7.1c0,2.9-1.6,5.7-4.1,7.1c0,0,0,0,0,0C138.7,243.3,137.3,243.6,135.8,243.6z M132.8,239.8
		c0.3,0.2,0.7,0.4,1.1,0.6V238c-0.2-0.2-0.5-0.4-0.6-0.6h-2.3C131.3,238.3,131.9,239.2,132.8,239.8L132.8,239.8z M137.8,240.3
		c0.4-0.1,0.7-0.3,1.1-0.6c0.8-0.6,1.5-1.4,1.9-2.4h-2.3c-0.2,0.2-0.4,0.5-0.6,0.6V240.3z M140.8,233.4c-0.4-0.9-1-1.8-1.9-2.4
		c-0.3-0.2-0.7-0.4-1.1-0.6v2.3c0.2,0.2,0.5,0.4,0.6,0.6h1H140.8z M133.2,233.4c0.2-0.2,0.4-0.5,0.6-0.6v-2.3
		c-0.4,0.1-0.7,0.3-1.1,0.6l0,0c-0.9,0.6-1.5,1.4-1.9,2.4h1.3H133.2z"/>
	<path fill="#484848" d="M135.8,228.2c1.3,0,2.6,0.4,3.6,1v1.1c-0.8-0.5-1.7-0.9-2.6-1.1v4.2c0.5,0.2,0.9,0.6,1.1,1.1h1.5v2h-1.5
		c-0.2,0.5-0.6,0.9-1.1,1.1v4.2c1-0.2,1.9-0.5,2.6-1.1v1.1c-1.1,0.6-2.3,1-3.6,1c-1.3,0-2.6-0.4-3.6-1v-1.1c0.8,0.5,1.7,0.9,2.6,1.1
		v-4.2c-0.5-0.2-0.9-0.6-1.1-1.1h-1.5v-2h1.5c0.2-0.5,0.6-0.9,1.1-1.1v-4.2c-1,0.2-1.9,0.5-2.6,1.1v-1.1
		C133.3,228.5,134.5,228.2,135.8,228.2 M139.5,229.1c2.2,1.3,3.6,3.6,3.6,6.3s-1.5,5-3.6,6.3v-1.1c1.4-1,2.4-2.5,2.6-4.2h-2.6v-2
		h2.6c-0.3-1.7-1.3-3.2-2.6-4.2V229.1 M132.2,229.1v1.1c-1.4,1-2.4,2.5-2.6,4.2h2.6v2h-2.6c0.3,1.7,1.2,3.2,2.6,4.2v1.1
		c-2.2-1.3-3.6-3.6-3.6-6.3S130,230.4,132.2,229.1 M135.8,226.2c-1.6,0-3.2,0.4-4.6,1.2l0,0c0,0,0,0,0,0h0c0,0,0,0,0,0
		c-2.8,1.6-4.6,4.7-4.6,8c0,3.3,1.8,6.4,4.6,8c0,0,0,0,0,0c1.4,0.8,3,1.2,4.6,1.2c1.6,0,3.2-0.4,4.6-1.2c0,0,0,0,0,0
		c2.8-1.7,4.6-4.7,4.6-8s-1.8-6.3-4.6-8c0,0,0,0,0,0C139.1,226.6,137.5,226.2,135.8,226.2L135.8,226.2z"/>
</g>
<path fill-rule="evenodd" clip-rule="evenodd" fill="#A27556" d="M136.2,30.6c4,0,7.2,3.2,7.2,7.2c0,4-3.2,7.2-7.2,7.2
	s-7.2-3.2-7.2-7.2C129,33.9,132.2,30.6,136.2,30.6z"/>
<g>
	<path fill-rule="evenodd" clip-rule="evenodd" fill="#B3B3B3" d="M136.2,46.1c-1.5,0-2.9-0.4-4.1-1.1c0,0,0,0,0,0
		c-2.5-1.5-4.1-4.2-4.1-7.1c0-2.9,1.6-5.7,4.1-7.1c0,0,0,0,0,0c1.3-0.7,2.7-1.1,4.1-1.1c1.5,0,2.9,0.4,4.1,1.1c0,0,0,0,0,0
		c2.5,1.5,4.1,4.2,4.1,7.1c0,2.9-1.6,5.7-4.1,7.1c0,0,0,0,0,0C139.1,45.7,137.7,46.1,136.2,46.1z M133.2,42.2
		c0.3,0.2,0.7,0.4,1.1,0.6v-2.3c-0.2-0.2-0.5-0.4-0.6-0.6h-2.3C131.7,40.8,132.3,41.6,133.2,42.2C133.2,42.2,133.2,42.2,133.2,42.2z
		 M138.2,42.8c0.4-0.2,0.7-0.3,1.1-0.6c0,0,0,0,0,0c0.8-0.6,1.5-1.4,1.9-2.4h-2.3c-0.2,0.2-0.4,0.5-0.6,0.6V42.8z M141.2,35.9
		c-0.4-0.9-1-1.8-1.9-2.4l0,0c-0.3-0.2-0.7-0.4-1.1-0.6v2.3c0.2,0.2,0.5,0.4,0.6,0.6h1H141.2z M133.6,35.9c0.2-0.2,0.4-0.5,0.6-0.6
		v-2.3c-0.4,0.1-0.7,0.3-1.1,0.6c0,0,0,0,0,0c-0.8,0.6-1.5,1.4-1.9,2.4h1.3H133.6z"/>
	<path fill="#484848" d="M136.2,30.6c1.3,0,2.6,0.4,3.6,1v1.1c-0.8-0.5-1.7-0.9-2.6-1.1v4.2c0.5,0.2,0.9,0.6,1.1,1.1h1.5v2h-1.5
		c-0.2,0.5-0.6,0.9-1.1,1.1v4.2c1-0.2,1.9-0.5,2.6-1.1v1.1c-1.1,0.6-2.3,1-3.6,1c-1.3,0-2.6-0.4-3.6-1V43c0.8,0.5,1.7,0.9,2.6,1.1
		v-4.2c-0.5-0.2-0.9-0.6-1.1-1.1h-1.5v-2h1.5c0.2-0.5,0.6-0.9,1.1-1.1v-4.2c-1,0.2-1.9,0.5-2.6,1.1v-1.1
		C133.7,31,134.9,30.6,136.2,30.6 M139.9,31.6c2.2,1.3,3.6,3.6,3.6,6.3c0,2.7-1.5,5-3.6,6.3V43c1.4-1,2.4-2.5,2.6-4.2h-2.6v-2h2.6
		c-0.3-1.7-1.3-3.2-2.6-4.2V31.6 M132.6,31.6v1.1c-1.4,1-2.4,2.5-2.6,4.2h2.6v2H130c0.3,1.7,1.2,3.2,2.6,4.2v1.1
		c-2.2-1.3-3.6-3.6-3.6-6.3C129,35.2,130.5,32.8,132.6,31.6 M136.2,28.6c-1.6,0-3.2,0.4-4.6,1.2c0,0,0,0,0,0l0,0l0,0c0,0,0,0,0,0
		c-2.8,1.7-4.6,4.7-4.6,8c0,3.3,1.8,6.3,4.6,8c0,0,0,0,0,0c1.4,0.8,3,1.2,4.6,1.2c1.6,0,3.2-0.4,4.6-1.2c0,0,0,0,0,0
		c2.8-1.7,4.6-4.7,4.6-8c0-3.3-1.8-6.3-4.6-8c0,0,0,0,0,0C139.5,29,137.9,28.6,136.2,28.6L136.2,28.6z"/>
</g>
<path fill-rule="evenodd" clip-rule="evenodd" fill="#A27556" d="M86.2,30.6c4,0,7.2,3.2,7.2,7.2c0,4-3.2,7.2-7.2,7.2
	S79,41.8,79,37.9C79,33.9,82.2,30.6,86.2,30.6z"/>
<g>
	<path fill-rule="evenodd" clip-rule="evenodd" fill="#B3B3B3" d="M86.2,46.1c-1.5,0-2.9-0.4-4.1-1.1c0,0,0,0,0,0
		c-2.5-1.5-4.1-4.2-4.1-7.1c0-2.9,1.6-5.7,4.1-7.1c0,0,0,0,0,0c1.2-0.7,2.7-1.1,4.1-1.1c1.5,0,2.9,0.4,4.1,1.1c0,0,0,0,0,0
		c2.5,1.5,4.1,4.2,4.1,7.1s-1.6,5.7-4.1,7.1c0,0,0,0,0,0C89.1,45.7,87.7,46.1,86.2,46.1z M83.2,42.2c0.3,0.2,0.7,0.4,1.1,0.6v-2.3
		c-0.2-0.2-0.5-0.4-0.6-0.6h-2.3C81.7,40.8,82.3,41.6,83.2,42.2C83.2,42.2,83.2,42.2,83.2,42.2z M88.2,42.8c0.4-0.2,0.7-0.3,1.1-0.6
		c0,0,0,0,0,0c0.8-0.6,1.5-1.4,1.9-2.4h-2.3c-0.2,0.2-0.4,0.5-0.6,0.6V42.8z M91.2,35.9c-0.4-0.9-1-1.8-1.9-2.4v0
		c-0.3-0.2-0.7-0.4-1.1-0.6v2.3c0.2,0.2,0.5,0.4,0.6,0.6h1H91.2z M83.6,35.9c0.2-0.2,0.4-0.5,0.6-0.6v-2.3c-0.4,0.1-0.7,0.3-1.1,0.6
		c0,0,0,0,0,0c-0.8,0.6-1.5,1.4-1.9,2.4h1.3H83.6z"/>
	<path fill="#484848" d="M86.2,30.6c1.3,0,2.6,0.4,3.6,1v1.1c-0.8-0.5-1.7-0.9-2.6-1.1v4.2c0.5,0.2,0.9,0.6,1.1,1.1h1.5v2h-1.5
		c-0.2,0.5-0.6,0.9-1.1,1.1v4.2c1-0.2,1.9-0.5,2.6-1.1v1.1c-1.1,0.6-2.3,1-3.6,1s-2.6-0.4-3.6-1V43c0.8,0.5,1.7,0.9,2.6,1.1v-4.2
		c-0.5-0.2-0.9-0.6-1.1-1.1h-1.5v-2h1.5c0.2-0.5,0.6-0.9,1.1-1.1v-4.2c-1,0.2-1.9,0.5-2.6,1.1v-1.1C83.7,31,84.9,30.6,86.2,30.6
		 M89.9,31.6c2.2,1.3,3.6,3.6,3.6,6.3c0,2.7-1.5,5-3.6,6.3V43c1.4-1,2.4-2.5,2.6-4.2h-2.6v-2h2.6c-0.3-1.7-1.3-3.2-2.6-4.2V31.6
		 M82.6,31.6v1.1c-1.4,1-2.4,2.5-2.6,4.2h2.6v2H80c0.3,1.7,1.2,3.2,2.6,4.2v1.1c-2.2-1.3-3.6-3.6-3.6-6.3
		C79,35.2,80.5,32.8,82.6,31.6 M86.2,28.6c-1.6,0-3.2,0.4-4.6,1.2c0,0,0,0,0,0c-2.8,1.7-4.6,4.7-4.6,8c0,3.3,1.8,6.3,4.6,8
		c0,0,0,0,0,0c1.4,0.8,3,1.2,4.6,1.2c1.6,0,3.2-0.4,4.6-1.2c0,0,0,0,0,0c2.8-1.7,4.6-4.7,4.6-8c0-3.3-1.8-6.3-4.6-8c0,0,0,0,0,0
		C89.5,29,87.9,28.6,86.2,28.6L86.2,28.6z"/>
</g>
</svg>
