<?xml version="1.0" encoding="UTF-8"?>
<!DOCTYPE svg PUBLIC "-//W3C//DTD SVG 1.1//EN" "http://www.w3.org/Graphics/SVG/1.1/DTD/svg11.dtd">
<!-- Creator: CorelDRAW X7 -->
<svg xmlns="http://www.w3.org/2000/svg" xml:space="preserve" width="150px" height="450px" version="1.1" style="shape-rendering:geometricPrecision; text-rendering:geometricPrecision; image-rendering:optimizeQuality; fill-rule:evenodd; clip-rule:evenodd"
viewBox="0 0 15000 45000"
 xmlns:xlink="http://www.w3.org/1999/xlink">
 <defs>
  <style type="text/css">
   <![CDATA[
    .fil0 {fill:#3E2D21}
    .fil2 {fill:#404040}
    .fil5 {fill:#4C4134}
    .fil1 {fill:#89755D}
    .fil3 {fill:#A6A6A6}
    .fil4 {fill:white}
   ]]>
  </style>
 </defs>
 <g id="Layer_x0020_1">
  <metadata id="CorelCorpID_0Corel-Layer"/>
  <g id="_606483472">
   <g>
    <path class="fil0" d="M2188 8802l0 64c0,110 -90,200 -200,200l-540 0c-110,0 -200,-90 -200,-200l0 -64c0,-110 90,-200 200,-200l540 0c110,0 200,90 200,200zm-200 0l0 64 -540 0 0 -64 540 0z"/>
    <polygon id="1" class="fil1" points="1988,8802 1988,8866 1448,8866 1448,8802 "/>
   </g>
   <g>
    <path class="fil2" d="M2483 9086l56 218c22,88 -17,176 -90,220 -123,81 -265,117 -405,117 -150,0 -302,-42 -429,-115 -80,-45 -117,-137 -95,-222l-1 0 58 -228c20,-77 81,-132 154,-147l0 -279c0,-110 89,-200 200,-200l197 0c110,0 200,90 200,200l0 278c78,17 140,79 155,158zm-196 38l58 229c-187,127 -445,106 -632,0l58 -229 160 0 0 -474 197 0 0 474 159 0z"/>
    <path id="1" class="fil3" d="M2287 9124l58 229c-187,127 -445,106 -632,0l58 -229 160 0 0 -474 197 0 0 474 159 0z"/>
   </g>
   <path class="fil4" d="M2336 9315l9 38c-187,127 -445,106 -632,0l58 -229 48 0 -39 176c161,107 394,132 556,15z"/>
  </g>
  <g>
   <g>
    <path class="fil0" d="M7110 9124l-27 57c-47,100 -166,144 -266,97l-489 -228c-100,-47 -143,-166 -97,-266l27 -57c47,-100 166,-144 266,-97l489 228c100,46 143,165 97,266zm-182 -85l-26 58 -490 -228 27 -58 489 228z"/>
    <polygon id="1" class="fil1" points="6928,9039 6902,9097 6412,8869 6439,8811 "/>
   </g>
   <g>
    <path class="fil2" d="M7257 9509l-42 217c-16,87 -86,150 -170,161 -147,23 -292,-4 -420,-64 -136,-64 -257,-166 -341,-285 -54,-77 -47,-179 12,-247l145 -177c50,-61 128,-86 201,-68l117 -253c47,-100 166,-144 266,-97l178 83c101,47 144,166 97,266l-117 252c65,49 95,133 74,212zm-194 -51l-44 231c-223,37 -448,-91 -572,-267l149 -182 144 67 201 -430 178 83 -200 430 144 68zm194 51c-3,11 -7,22 -12,33"/>
    <path id="1" class="fil3" d="M7063 9458l-44 231c-223,37 -448,-91 -572,-267l149 -182 144 67 201 -430 178 83 -200 430 144 68z"/>
   </g>
   <path class="fil4" d="M7027 9651l-8 38c-223,37 -448,-91 -572,-267l149 -182 43 20 -110 142c101,165 302,287 498,249z"/>
  </g>
  <g>
   <g>
    <path class="fil0" d="M11831 9115l-44 26c-96,55 -217,22 -272,-73l-270 -468c-55,-95 -22,-216 73,-271l0 -1 55 -31c95,-56 217,-23 272,72l270 468c55,95 23,217 -72,272 -4,2 -8,5 -12,6zm-88 -178l-55 31 -270 -467 55 -32 270 468z"/>
    <polygon id="1" class="fil1" points="11743,8937 11688,8968 11418,8501 11473,8469 "/>
   </g>
   <g>
    <path class="fil2" d="M11752 9500l-169 164c-62,60 -152,72 -226,37l0 0c-135,-65 -239,-172 -312,-297l0 0c-76,-130 -115,-283 -116,-429 0,-92 61,-169 145,-193l0 0 227 -64c76,-22 155,4 204,60l241 -140c95,-54 217,-22 272,73l0 0 99 170c55,96 22,218 -73,273l-242 140c24,72 4,153 -50,206l0 0zm-139 -143l-169 164c-204,-98 -315,-332 -316,-547l227 -64 80 138 411 -237 98 170 -411 238 80 138z"/>
    <path id="1" class="fil3" d="M11613 9357l-169 164c-204,-98 -315,-332 -316,-547l227 -64 80 138 411 -237 98 170 -411 238 80 138z"/>
   </g>
   <path class="fil4" d="M11472 9494l-28 27c-204,-98 -315,-332 -316,-547l227 -64 24 41 -172 54c-12,193 83,408 265,489z"/>
  </g>
  <g>
   <g>
    <path class="fil0" d="M7110 24124l-27 57c-47,100 -166,144 -266,97l-489 -228c-100,-47 -143,-166 -97,-266l27 -57c47,-100 166,-144 266,-97l489 228c100,47 143,165 97,266zm-182 -85l-26 58 -490 -228 27 -58 489 228z"/>
    <polygon id="1" class="fil1" points="6928,24039 6902,24097 6412,23869 6439,23811 "/>
   </g>
   <g>
    <path class="fil2" d="M7257 24509l-42 217c-16,87 -86,150 -170,161 -147,23 -292,-4 -420,-64 -136,-64 -257,-166 -341,-285 -54,-77 -47,-179 12,-247l145 -177c50,-61 128,-85 201,-68l117 -253c47,-100 166,-144 266,-97l178 83c101,47 144,166 97,266l-117 252c65,49 95,133 74,212zm-194 -51l-44 231c-223,37 -448,-91 -572,-267l149 -182 144 67 201 -430 178 83 -200 430 144 68zm194 51c-3,11 -7,22 -12,33"/>
    <path id="1" class="fil3" d="M7063 24458l-44 231c-223,37 -448,-91 -572,-267l149 -182 144 67 201 -430 178 83 -200 430 144 68z"/>
   </g>
   <path class="fil4" d="M7027 24651l-8 38c-223,37 -448,-91 -572,-267l149 -182 43 20 -110 142c101,165 302,287 498,249z"/>
  </g>
  <g>
   <g>
    <path class="fil0" d="M12110 24124l-27 57c-47,100 -166,144 -266,97l-489 -228c-100,-47 -143,-166 -97,-266l27 -57c47,-100 166,-144 266,-97l489 228c100,47 143,165 97,266zm-182 -85l-26 58 -490 -228 27 -58 489 228z"/>
    <polygon id="1" class="fil1" points="11928,24039 11902,24097 11412,23869 11439,23811 "/>
   </g>
   <g>
    <path class="fil2" d="M12257 24509l-42 217c-16,87 -86,150 -170,161 -147,23 -292,-4 -420,-64 -136,-64 -256,-166 -341,-285 -54,-77 -47,-179 12,-247l145 -177c50,-61 129,-85 201,-68l117 -253c47,-100 166,-144 266,-97l179 83c100,47 143,166 96,266l-117 252c65,49 95,133 74,212zm-194 -51l-44 231c-223,37 -448,-91 -572,-267l149 -182 144 67 201 -430 178 83 -200 430 144 68zm194 51c-3,11 -7,22 -12,33"/>
    <path id="1" class="fil3" d="M12063 24458l-44 231c-223,37 -448,-91 -572,-267l149 -182 144 67 201 -430 178 83 -200 430 144 68z"/>
   </g>
   <path class="fil4" d="M12027 24651l-8 38c-223,37 -448,-91 -572,-267l149 -182 43 20 -110 142c101,165 302,287 498,249z"/>
  </g>
  <g>
   <g>
    <path class="fil0" d="M2110 24124l-27 57c-47,100 -166,144 -266,97l-489 -228c-100,-47 -143,-166 -97,-266l27 -57c47,-100 166,-144 266,-97l489 228c100,47 143,165 97,266zm-182 -85l-26 58 -490 -228 27 -58 489 228z"/>
    <polygon id="1" class="fil1" points="1928,24039 1902,24097 1412,23869 1439,23811 "/>
   </g>
   <g>
    <path class="fil2" d="M2257 24509l-42 217c-16,87 -86,150 -170,161 -147,23 -292,-4 -420,-64 -136,-64 -257,-166 -341,-285 -54,-77 -47,-179 12,-247l145 -177c50,-61 128,-85 201,-68l117 -253c47,-100 166,-144 266,-97l178 83c101,47 144,166 97,266l-117 252c65,49 95,133 74,212zm-194 -51l-44 231c-223,37 -448,-91 -573,-267l150 -182 144 67 201 -430 178 83 -200 430 144 68zm194 51c-3,11 -7,22 -12,33"/>
    <path id="1" class="fil3" d="M2063 24458l-44 231c-223,37 -448,-91 -573,-267l150 -182 144 67 201 -430 178 83 -200 430 144 68z"/>
   </g>
   <path class="fil4" d="M2027 24651l-8 38c-223,37 -448,-91 -573,-267l150 -182 43 20 -110 142c101,165 302,287 498,249z"/>
  </g>
  <g>
   <g>
    <path class="fil0" d="M2110 34124l-27 57c-47,100 -166,144 -266,97l-489 -228c-100,-47 -143,-166 -97,-266l27 -57c47,-100 166,-144 266,-97l489 228c100,47 143,166 97,266zm-182 -85l-26 58 -490 -228 27 -58 489 228z"/>
    <polygon id="1" class="fil1" points="1928,34039 1902,34097 1412,33869 1439,33811 "/>
   </g>
   <g>
    <path class="fil2" d="M2257 34509l-42 217c-16,87 -86,150 -170,161 -147,23 -292,-4 -420,-64 -136,-64 -257,-166 -341,-285 -54,-77 -47,-179 12,-247l145 -177c50,-61 128,-85 201,-68l117 -253c47,-100 166,-144 266,-97l178 83c101,47 144,166 97,266l-117 252c65,49 95,133 74,212zm-194 -51l-44 231c-223,37 -448,-91 -573,-267l150 -182 144 67 201 -430 178 83 -200 430 144 68zm194 51c-3,11 -7,22 -12,33"/>
    <path id="1" class="fil3" d="M2063 34458l-44 231c-223,37 -448,-91 -573,-267l150 -182 144 67 201 -430 178 83 -200 430 144 68z"/>
   </g>
   <path class="fil4" d="M2027 34651l-8 38c-223,37 -448,-91 -573,-267l150 -182 43 20 -110 142c101,165 302,287 498,249z"/>
  </g>
  <g>
   <g>
    <path class="fil0" d="M7110 34124l-27 57c-47,100 -166,144 -266,97l-489 -228c-100,-47 -143,-166 -97,-266l27 -57c47,-100 166,-144 266,-97l489 228c100,47 143,166 97,266zm-182 -85l-26 58 -490 -228 27 -58 489 228z"/>
    <polygon id="1" class="fil1" points="6928,34039 6902,34097 6412,33869 6439,33811 "/>
   </g>
   <g>
    <path class="fil2" d="M7257 34509l-42 217c-16,87 -86,150 -170,161 -147,23 -292,-4 -420,-64 -136,-64 -257,-166 -341,-285 -54,-77 -47,-179 12,-247l145 -177c50,-61 128,-85 201,-68l117 -253c47,-100 166,-144 266,-97l178 83c101,47 144,166 97,266l-117 252c65,49 95,133 74,212zm-194 -51l-44 231c-223,37 -448,-91 -572,-267l149 -182 144 67 201 -430 178 83 -200 430 144 68zm194 51c-3,11 -7,22 -12,33"/>
    <path id="1" class="fil3" d="M7063 34458l-44 231c-223,37 -448,-91 -572,-267l149 -182 144 67 201 -430 178 83 -200 430 144 68z"/>
   </g>
   <path class="fil4" d="M7027 34651l-8 38c-223,37 -448,-91 -572,-267l149 -182 43 20 -110 142c101,165 302,287 498,249z"/>
  </g>
  <g>
   <g>
    <path class="fil0" d="M12110 34124l-27 57c-47,100 -166,144 -266,97l-489 -228c-100,-47 -143,-166 -97,-266l27 -57c47,-100 166,-144 266,-97l489 228c100,47 143,166 97,266zm-182 -85l-26 58 -490 -228 27 -58 489 228z"/>
    <polygon id="1" class="fil1" points="11928,34039 11902,34097 11412,33869 11439,33811 "/>
   </g>
   <g>
    <path class="fil2" d="M12257 34509l-42 217c-16,87 -86,150 -170,161 -147,23 -292,-4 -420,-64 -136,-64 -256,-166 -341,-285 -54,-77 -47,-179 12,-247l145 -177c50,-61 129,-85 201,-68l117 -253c47,-100 166,-144 266,-97l179 83c100,47 143,166 96,266l-117 252c65,49 95,133 74,212zm-194 -51l-44 231c-223,37 -448,-91 -572,-267l149 -182 144 67 201 -430 178 83 -200 430 144 68zm194 51c-3,11 -7,22 -12,33"/>
    <path id="1" class="fil3" d="M12063 34458l-44 231c-223,37 -448,-91 -572,-267l149 -182 144 67 201 -430 178 83 -200 430 144 68z"/>
   </g>
   <path class="fil4" d="M12027 34651l-8 38c-223,37 -448,-91 -572,-267l149 -182 43 20 -110 142c101,165 302,287 498,249z"/>
  </g>
  <g>
   <g>
    <path class="fil5" d="M3488 13902l0 64c0,110 -89,200 -200,200l-540 0c-110,0 -200,-90 -200,-200l0 -64c0,-110 90,-200 200,-200l540 0c111,0 200,90 200,200zm-200 0l0 64 -540 0 0 -64 540 0z"/>
    <polygon id="1" class="fil1" points="3288,13902 3288,13966 2748,13966 2748,13902 "/>
   </g>
   <g>
    <path class="fil2" d="M3784 14186l55 218c22,88 -17,176 -90,220 -123,81 -265,117 -405,117 -150,0 -302,-42 -429,-115 -80,-45 -117,-137 -95,-222l-1 0 58 -228c20,-77 81,-132 154,-147l0 -279c0,-110 89,-200 200,-200l197 0c110,0 200,90 200,200l0 278c78,17 140,79 156,158zm-197 38l58 229c-187,127 -445,106 -632,0l58 -229 160 0 0 -474 197 0 0 474 159 0z"/>
    <path id="1" class="fil3" d="M3587 14224l58 229c-187,127 -445,106 -632,0l58 -229 160 0 0 -474 197 0 0 474 159 0z"/>
   </g>
   <path class="fil4" d="M3636 14415l9 38c-187,127 -445,106 -632,0l58 -229 48 0 -39 176c161,107 394,132 556,15z"/>
  </g>
  <g>
   <g>
    <path class="fil5" d="M8388 14002l0 64c0,110 -89,200 -200,200l-540 0c-110,0 -200,-90 -200,-200l0 -64c0,-110 90,-200 200,-200l540 0c111,0 200,90 200,200zm-200 0l0 64 -540 0 0 -64 540 0z"/>
    <polygon id="1" class="fil1" points="8188,14002 8188,14066 7648,14066 7648,14002 "/>
   </g>
   <g>
    <path class="fil2" d="M8684 14286l55 218c22,88 -17,176 -90,220 -123,81 -265,117 -405,117 -150,0 -302,-42 -429,-115 -80,-45 -117,-137 -95,-221l-1 -1 58 -228c20,-77 81,-132 154,-147l0 -279c0,-110 89,-200 200,-200l197 0c110,0 200,90 200,200l0 278c78,17 140,79 156,158zm-197 38l58 229c-187,127 -445,106 -632,0l58 -229 160 0 0 -474 197 0 0 474 159 0z"/>
    <path id="1" class="fil3" d="M8487 14324l58 229c-187,127 -445,106 -632,0l58 -229 160 0 0 -474 197 0 0 474 159 0z"/>
   </g>
   <path class="fil4" d="M8536 14515l9 38c-187,127 -445,106 -632,0l58 -229 48 0 -39 176c161,107 394,132 556,15z"/>
  </g>
  <g>
   <g>
    <path class="fil5" d="M13188 14002l0 64c0,110 -89,200 -200,200l-540 0c-110,0 -200,-90 -200,-200l0 -64c0,-110 90,-200 200,-200l540 0c111,0 200,90 200,200zm-200 0l0 64 -540 0 0 -64 540 0z"/>
    <polygon id="1" class="fil1" points="12988,14002 12988,14066 12448,14066 12448,14002 "/>
   </g>
   <g>
    <path class="fil2" d="M13484 14286l55 218c22,88 -17,176 -90,220 -123,81 -265,117 -405,117 -150,0 -302,-42 -429,-115 -80,-45 -117,-137 -95,-221l-1 -1 58 -228c20,-77 81,-132 154,-147l0 -279c0,-110 89,-200 200,-200l197 0c110,0 200,90 200,200l0 278c78,17 140,79 156,158zm-197 38l58 229c-187,127 -445,106 -632,0l58 -229 160 0 0 -474 197 0 0 474 159 0z"/>
    <path id="1" class="fil3" d="M13287 14324l58 229c-187,127 -445,106 -632,0l58 -229 160 0 0 -474 197 0 0 474 159 0z"/>
   </g>
   <path class="fil4" d="M13336 14515l9 38c-187,127 -445,106 -632,0l58 -229 48 0 -39 176c161,107 394,132 556,15z"/>
  </g>
  <g>
   <g>
    <path class="fil0" d="M8388 39002l0 64c0,110 -89,200 -200,200l-540 0c-110,0 -200,-90 -200,-200l0 -64c0,-110 90,-200 200,-200l540 0c111,0 200,90 200,200zm-200 0l0 64 -540 0 0 -64 540 0z"/>
    <polygon id="1" class="fil1" points="8188,39002 8188,39066 7648,39066 7648,39002 "/>
   </g>
   <g>
    <path class="fil2" d="M8684 39286l55 218c22,88 -17,176 -90,220 -123,81 -265,117 -405,117 -150,0 -302,-42 -429,-115 -80,-45 -117,-137 -95,-221l-1 -1 58 -228c20,-77 81,-132 154,-147l0 -279c0,-110 89,-200 200,-200l197 0c110,0 200,90 200,200l0 279c78,16 140,78 156,157zm-197 38l58 229c-187,127 -445,106 -632,0l58 -229 160 0 0 -474 197 0 0 474 159 0z"/>
    <path id="1" class="fil3" d="M8487 39324l58 229c-187,127 -445,106 -632,0l58 -229 160 0 0 -474 197 0 0 474 159 0z"/>
   </g>
   <path class="fil4" d="M8536 39515l9 38c-187,127 -445,106 -632,0l58 -229 48 0 -39 176c161,107 394,132 556,15z"/>
  </g>
  <g>
   <g>
    <path class="fil0" d="M13388 39002l0 64c0,110 -89,200 -200,200l-540 0c-110,0 -200,-90 -200,-200l0 -64c0,-110 90,-200 200,-200l540 0c111,0 200,90 200,200zm-200 0l0 64 -540 0 0 -64 540 0z"/>
    <polygon id="1" class="fil1" points="13188,39002 13188,39066 12648,39066 12648,39002 "/>
   </g>
   <g>
    <path class="fil2" d="M13684 39286l55 218c22,88 -17,176 -90,220 -123,81 -265,117 -405,117 -150,0 -302,-42 -429,-115 -80,-45 -117,-137 -95,-221l-1 -1 58 -228c20,-77 81,-132 154,-147l0 -279c0,-110 89,-200 200,-200l197 0c110,0 200,90 200,200l0 279c78,16 140,78 156,157zm-197 38l58 229c-187,127 -445,106 -632,0l58 -229 160 0 0 -474 197 0 0 474 159 0z"/>
    <path id="1" class="fil3" d="M13487 39324l58 229c-187,127 -445,106 -632,0l58 -229 160 0 0 -474 197 0 0 474 159 0z"/>
   </g>
   <path class="fil4" d="M13536 39515l9 38c-187,127 -445,106 -632,0l58 -229 48 0 -39 176c161,107 394,132 556,15z"/>
  </g>
  <g>
   <g>
    <path class="fil0" d="M3388 39002l0 64c0,110 -89,200 -200,200l-540 0c-110,0 -200,-90 -200,-200l0 -64c0,-110 90,-200 200,-200l540 0c111,0 200,90 200,200zm-200 0l0 64 -540 0 0 -64 540 0z"/>
    <polygon id="1" class="fil1" points="3188,39002 3188,39066 2648,39066 2648,39002 "/>
   </g>
   <g>
    <path class="fil2" d="M3684 39286l55 218c22,88 -17,176 -90,220 -123,81 -265,117 -405,117 -150,0 -302,-42 -429,-115 -80,-45 -117,-137 -95,-221l-1 -1 58 -228c20,-77 81,-132 154,-147l0 -279c0,-110 89,-200 200,-200l197 0c110,0 200,90 200,200l0 279c78,16 140,78 156,157zm-197 38l58 229c-187,127 -445,106 -632,0l58 -229 160 0 0 -474 197 0 0 474 159 0z"/>
    <path id="1" class="fil3" d="M3487 39324l58 229c-187,127 -445,106 -632,0l58 -229 160 0 0 -474 197 0 0 474 159 0z"/>
   </g>
   <path class="fil4" d="M3536 39515l9 38c-187,127 -445,106 -632,0l58 -229 48 0 -39 176c161,107 394,132 556,15z"/>
  </g>
  <path class="fil2" d="M1158 19504l55 -218c16,-79 77,-141 156,-158l0 -278c0,-110 90,-200 200,-200l120 0 0 173c0,9 1,18 1,27l-121 0 0 474 -160 0 -57 229c130,89 295,105 446,71 21,29 47,54 78,76l107 75c-104,42 -218,66 -330,66 -141,0 -282,-36 -405,-117 -73,-44 -112,-132 -90,-220zm608 -234l0 -193c15,22 31,43 49,62 8,8 15,15 23,22l-46 65c-10,14 -19,29 -26,44z"/>
  <path class="fil3" d="M1409 19324l-57 229c130,89 295,105 446,71 -33,-43 -54,-93 -63,-144 -12,-70 -2,-143 31,-210l0 -193c-44,-66 -71,-144 -76,-227l-121 0 0 474 -160 0z"/>
  <path class="fil4" d="M1361 19515l-9 38c130,89 295,105 446,71 -13,-17 -24,-35 -33,-54 -137,40 -289,29 -404,-55z"/>
  <path class="fil2" d="M6358 19504l55 -218c16,-79 77,-141 156,-158l0 -278c0,-82 49,-152 120,-183l0 156c0,95 30,185 80,259l0 242 -160 0 -57 229c157,107 365,109 538,44 2,70 25,135 63,189 -95,35 -198,55 -300,55 -141,0 -282,-36 -405,-117 -73,-44 -112,-132 -90,-220zm732 -180l-124 0 0 -78c39,17 80,29 124,34l0 44z"/>
  <path class="fil3" d="M6609 19324l-57 229c157,107 365,109 538,44l0 -9 0 -264 -124 0 0 -78c-53,-24 -102,-57 -142,-98 -20,-20 -39,-43 -55,-66l0 242 -160 0z"/>
  <path class="fil4" d="M6561 19515l-9 38c157,107 365,109 538,44l0 -9 0 -71c-160,92 -376,108 -529,-2zm529 -191l-12 0 12 55 0 -55z"/>
  <path class="fil2" d="M11458 19404l55 -218c16,-79 77,-141 156,-158l0 -278c0,-31 7,-61 20,-87l0 160c0,122 48,233 126,316 7,8 15,15 22,22l-44 63 -83 0 -58 229c27,19 57,34 87,47 19,78 65,150 137,200l58 41c-134,-4 -269,-40 -386,-117 -73,-44 -112,-132 -90,-220z"/>
  <path class="fil3" d="M11710 19224l-58 229c27,19 57,34 87,47 -1,-7 -3,-13 -4,-20 -15,-85 3,-177 57,-254l1 -2 -83 0z"/>
  <path class="fil4" d="M11661 19415l-9 38c27,19 57,34 87,47 -1,-7 -3,-13 -4,-20 -1,-8 -3,-16 -3,-24 -25,-11 -49,-25 -71,-41z"/>
  <g>
   <path class="fil2" d="M6358 44505l55 -219c16,-79 77,-141 156,-157l0 -279c0,-82 49,-152 120,-183l0 156c0,95 30,185 80,259l0 242 -160 0 -57 229c157,107 365,109 538,44 2,70 25,135 63,189 -95,35 -198,55 -300,55 -141,0 -282,-36 -405,-117 -73,-44 -112,-132 -90,-219zm732 -181l-124 0 0 -78c39,17 80,29 124,34l0 44z"/>
   <path class="fil3" d="M6609 44324l-57 229c157,107 365,109 538,44l0 -9 0 -264 -124 0 0 -78c-53,-24 -102,-57 -142,-98 -20,-20 -39,-43 -55,-66l0 242 -160 0z"/>
   <path class="fil4" d="M6561 44515l-9 38c157,107 365,109 538,44l0 -9 0 -71c-160,92 -376,109 -529,-2zm529 -191l-12 0 12 55 0 -55z"/>
  </g>
  <g>
   <path class="fil2" d="M1358 44505l55 -219c16,-79 77,-141 156,-157l0 -279c0,-82 49,-152 120,-183l0 156c0,95 30,185 80,259l0 242 -160 0 -57 229c157,107 365,109 538,44 2,70 25,135 63,189 -95,35 -198,55 -300,55 -141,0 -282,-36 -405,-117 -73,-44 -112,-132 -90,-219zm732 -181l-124 0 0 -78c39,17 80,29 124,34l0 44z"/>
   <path class="fil3" d="M1609 44324l-57 229c157,107 365,109 538,44l0 -9 0 -264 -124 0 0 -78c-53,-24 -102,-57 -142,-98 -20,-20 -39,-43 -55,-66l0 242 -160 0z"/>
   <path class="fil4" d="M1561 44515l-9 38c157,107 365,109 538,44l0 -9 0 -71c-160,92 -376,109 -529,-2zm529 -191l-12 0 12 55 0 -55z"/>
  </g>
  <g>
   <path class="fil2" d="M11358 44505l55 -219c16,-79 77,-141 156,-157l0 -279c0,-82 49,-152 120,-183l0 156c0,95 30,185 80,259l0 242 -159 0 -58 229c157,107 365,109 538,44 2,70 25,135 63,189 -95,35 -198,55 -300,55 -141,0 -282,-36 -405,-117 -73,-44 -112,-132 -90,-219zm732 -181l-124 0 0 -78c39,17 80,29 124,34l0 44z"/>
   <path class="fil3" d="M11610 44324l-58 229c157,107 365,109 538,44l0 -9 0 -264 -124 0 0 -78c-53,-24 -102,-57 -142,-98 -20,-20 -39,-43 -55,-66l0 242 -159 0z"/>
   <path class="fil4" d="M11561 44515l-9 38c157,107 365,109 538,44l0 -9 0 -71c-160,92 -376,109 -529,-2zm529 -191l-12 0 12 55 0 -55z"/>
  </g>
  <path class="fil2" d="M4416 2989l229 56c85,21 144,95 151,178 15,147 -20,291 -87,417 -72,133 -180,248 -303,325 -78,49 -176,38 -241,-21l0 0 -42 -38 4 -9c27,-81 32,-163 18,-241l154 141c182,-115 323,-333 298,-558l-229 -56 -75 141 -418 -224 -41 76 -115 -200c59,-74 163,-98 250,-52l246 132c48,-59 127,-85 201,-67l0 0zm-280 628l64 -120 -194 -104c44,43 79,94 104,149 10,24 19,49 26,75z"/>
  <path class="fil3" d="M4368 3183l229 56c25,225 -116,443 -298,558l-154 -141c-3,-13 -5,-26 -9,-39l64 -120 -194 -104c-25,-25 -54,-47 -85,-67l-87 -150 41 -76 418 224 75 -141z"/>
  <path class="fil4" d="M4560 3230l37 9c25,225 -116,443 -298,558l-174 -159 23 -42 136 117c171,-92 302,-286 276,-483z"/>
  <path class="fil2" d="M9416 2989l229 56c85,21 144,95 151,178 15,147 -20,291 -87,417 -72,133 -180,248 -303,325 -78,49 -176,38 -241,-21l0 0 -42 -38 4 -9c1,-4 2,-7 3,-11 24,-77 28,-156 15,-230l154 141c182,-115 323,-333 298,-558l-229 -56 -75 141 -418 -224 -41 76 -115 -200c59,-74 163,-98 250,-52l246 132c48,-59 127,-85 201,-67l0 0zm-280 628l64 -120 -194 -103c44,42 79,93 104,148 10,24 19,49 26,75z"/>
  <path class="fil2" d="M9416 27989l229 57c85,21 144,94 151,177 15,147 -20,291 -87,417 -72,133 -180,248 -303,326 -78,48 -176,37 -241,-22l0 0 -42 -38 4 -9c1,-3 2,-7 3,-11 24,-77 28,-156 15,-230l154 141c182,-115 323,-333 298,-558l-229 -56 -75 141 -418 -224 -41 76 -115 -200c59,-74 163,-98 250,-52l246 132c48,-59 127,-85 201,-67l0 0zm-280 628l64 -120 -194 -103c44,42 79,93 104,148 10,24 19,49 26,75z"/>
  <path class="fil2" d="M14416 27989l229 57c85,21 144,94 151,177 15,147 -20,291 -87,417 -72,133 -180,248 -303,326 -78,48 -176,37 -241,-22l0 0 -42 -38 4 -9c1,-3 2,-7 3,-11 24,-77 28,-156 15,-230l155 141c181,-115 322,-333 297,-558l-229 -56 -75 141 -418 -224 -41 76 -115 -200c59,-74 163,-98 250,-52l246 132c49,-59 127,-85 201,-67l0 0zm-280 628l64 -120 -194 -103c44,42 79,93 104,148 10,24 19,49 26,75z"/>
  <path class="fil2" d="M4416 27989l229 57c85,21 144,94 151,177 15,147 -20,291 -87,417 -72,133 -180,248 -303,326 -78,48 -176,37 -241,-22l0 0 -42 -38 4 -9c1,-3 2,-7 3,-11 24,-77 28,-156 15,-230l154 141c182,-115 323,-333 298,-558l-229 -56 -75 141 -418 -224 -41 76 -115 -200c59,-74 163,-98 250,-52l246 132c48,-59 127,-85 201,-67l0 0zm-280 628l64 -120 -194 -103c44,42 79,93 104,148 10,24 19,49 26,75z"/>
  <path class="fil3" d="M9368 3183l229 56c25,225 -116,443 -298,558l-154 -141c-3,-13 -5,-26 -9,-39l64 -120 -194 -103c-25,-26 -54,-48 -85,-68l-87 -150 41 -76 418 224 75 -141z"/>
  <path class="fil3" d="M9368 28183l229 56c25,225 -116,443 -298,558l-154 -141c-3,-13 -5,-26 -9,-39l64 -120 -194 -103c-25,-26 -54,-48 -85,-68l-87 -150 41 -76 418 224 75 -141z"/>
  <path class="fil3" d="M14368 28183l229 56c25,225 -116,443 -297,558l-155 -141c-3,-13 -5,-26 -9,-39l64 -120 -194 -103c-25,-26 -54,-48 -85,-68l-87 -150 41 -76 418 224 75 -141z"/>
  <path class="fil3" d="M4368 28183l229 56c25,225 -116,443 -298,558l-154 -141c-3,-13 -5,-26 -9,-39l64 -120 -194 -103c-25,-26 -54,-48 -85,-68l-87 -150 41 -76 418 224 75 -141z"/>
  <path class="fil4" d="M9560 3230l37 9c25,225 -116,443 -298,558l-174 -159 23 -42 136 117c171,-92 302,-286 276,-483z"/>
  <path class="fil4" d="M9560 28230l37 9c25,225 -116,443 -298,558l-174 -159 23 -42 136 117c171,-92 302,-286 276,-483z"/>
  <path class="fil4" d="M14560 28230l37 9c25,225 -116,443 -298,558l-174 -159 23 -42 136 117c171,-92 302,-286 276,-483z"/>
  <path class="fil4" d="M4560 28230l37 9c25,225 -116,443 -298,558l-174 -159 23 -42 136 117c171,-92 302,-286 276,-483z"/>
  <path class="fil2" d="M14316 2589l229 56c85,21 144,94 151,178 15,147 -20,291 -87,417 -72,133 -180,248 -303,325 -78,49 -176,38 -241,-21l0 0 -20 -18c17,-99 4,-197 -36,-284 -39,-88 -104,-164 -188,-216l-66 -113 345 184 -75 141 174 159c182,-115 323,-333 298,-558l-229 -56 -75 140 -418 -223 -68 128 -118 -204 10 -18c52,-97 173,-134 270,-82l246 132c48,-59 127,-85 201,-67l0 0z"/>
  <path class="fil3" d="M14268 2783l229 56c25,225 -116,443 -298,558l-174 -159 75 -141 -345 -184 -48 -85 68 -128 418 223 75 -140z"/>
  <path class="fil4" d="M14460 2830l37 9c25,225 -116,443 -298,558l-174 -159 23 -42 136 117c171,-92 302,-286 276,-483z"/>
 </g>
</svg>
