<?xml version="1.0" encoding="utf-8"?>
<!-- Generator: Adobe Illustrator 16.0.0, SVG Export Plug-In . SVG Version: 6.00 Build 0)  -->
<!DOCTYPE svg PUBLIC "-//W3C//DTD SVG 1.1//EN" "http://www.w3.org/Graphics/SVG/1.1/DTD/svg11.dtd">
<svg version="1.1" id="Layer_3" xmlns="http://www.w3.org/2000/svg" xmlns:xlink="http://www.w3.org/1999/xlink" x="0px" y="0px"
	 width="150px" height="250px" viewBox="0 0 150 250" enable-background="new 0 0 150 250" xml:space="preserve">
<g>
	<path fill-rule="evenodd" clip-rule="evenodd" fill="#A27556" d="M27.5,48.1c-1.4,0-2.4-1.1-2.4-2.5v-1h6.4v1c0,1.4-1,2.5-2.4,2.5
		H27.5z"/>
	<path fill="#4F392A" d="M30.5,45.6c0,0.8-0.5,1.5-1.4,1.5h-1.6c-0.9,0-1.4-0.7-1.4-1.5H30.5 M32.5,43.6h-2h-4.4h-2v2
		c0,2,1.5,3.5,3.4,3.5h1.6c1.9,0,3.4-1.5,3.4-3.5V43.6L32.5,43.6z"/>
</g>
<g>
	<path fill-rule="evenodd" clip-rule="evenodd" fill="#A27556" d="M20.8,45.1c-1.4,0-2.4-1.1-2.4-2.5v-1h6.4v1c0,1.4-1,2.5-2.4,2.5
		H20.8z"/>
	<path fill="#4F392A" d="M23.8,42.6c0,0.8-0.5,1.5-1.4,1.5h-1.6c-0.9,0-1.4-0.7-1.4-1.5H23.8 M25.8,40.6h-2h-4.4h-2v2
		c0,2,1.5,3.5,3.4,3.5h1.6c1.9,0,3.4-1.5,3.4-3.5V40.6L25.8,40.6z"/>
</g>
<g>
	<path fill-rule="evenodd" clip-rule="evenodd" fill="#A27556" d="M70.8,48.1c-1.4,0-2.4-1.1-2.4-2.5v-1h6.4v1c0,1.4-1,2.5-2.4,2.5
		H70.8z"/>
	<path fill="#4F392A" d="M73.8,45.6c0,0.8-0.5,1.5-1.4,1.5h-1.6c-0.9,0-1.4-0.7-1.4-1.5H73.8 M75.8,43.6h-2h-4.4h-2v2
		c0,2,1.5,3.5,3.4,3.5h1.6c1.9,0,3.4-1.5,3.4-3.5V43.6L75.8,43.6z"/>
</g>
<g>
	<path fill-rule="evenodd" clip-rule="evenodd" fill="#A27556" d="M70.8,98.1c-1.4,0-2.4-1.1-2.4-2.5v-1h6.4v1c0,1.4-1,2.5-2.4,2.5
		H70.8z"/>
	<path fill="#4F392A" d="M73.8,95.6c0,0.8-0.5,1.5-1.4,1.5h-1.6c-0.9,0-1.4-0.7-1.4-1.5H73.8 M75.8,93.6h-2h-4.4h-2v2
		c0,2,1.5,3.5,3.4,3.5h1.6c1.9,0,3.4-1.5,3.4-3.5V93.6L75.8,93.6z"/>
</g>
<g>
	<path fill-rule="evenodd" clip-rule="evenodd" fill="#A27556" d="M70.8,248.1c-1.4,0-2.4-1.1-2.4-2.5v-1h6.4v1c0,1.4-1,2.5-2.4,2.5
		H70.8z"/>
	<path fill="#4F392A" d="M73.8,245.6c0,0.8-0.5,1.5-1.4,1.5h-1.6c-0.9,0-1.4-0.7-1.4-1.5H73.8 M75.8,243.6h-2h-4.4h-2v2
		c0,2,1.5,3.5,3.4,3.5h1.6c1.9,0,3.4-1.5,3.4-3.5V243.6L75.8,243.6z"/>
</g>
<g>
	<path fill-rule="evenodd" clip-rule="evenodd" fill="#A27556" d="M120.8,248.1c-1.4,0-2.4-1.1-2.4-2.5v-1h6.4v1
		c0,1.4-1,2.5-2.4,2.5H120.8z"/>
	<path fill="#4F392A" d="M123.8,245.6c0,0.8-0.5,1.5-1.4,1.5h-1.6c-0.9,0-1.4-0.7-1.4-1.5H123.8 M125.8,243.6h-2h-4.4h-2v2
		c0,2,1.5,3.5,3.4,3.5h1.6c1.9,0,3.4-1.5,3.4-3.5V243.6L125.8,243.6z"/>
</g>
<g>
	<path fill-rule="evenodd" clip-rule="evenodd" fill="#A27556" d="M20.8,248.1c-1.4,0-2.4-1.1-2.4-2.5v-1h6.4v1c0,1.4-1,2.5-2.4,2.5
		H20.8z"/>
	<path fill="#4F392A" d="M23.8,245.6c0,0.8-0.5,1.5-1.4,1.5h-1.6c-0.9,0-1.4-0.7-1.4-1.5H23.8 M25.8,243.6h-2h-4.4h-2v2
		c0,2,1.5,3.5,3.4,3.5h1.6c1.9,0,3.4-1.5,3.4-3.5V243.6L25.8,243.6z"/>
</g>
<g>
	<path fill-rule="evenodd" clip-rule="evenodd" fill="#A27556" d="M77.5,48.1c-1.4,0-2.4-1.1-2.4-2.5v-1h6.4v1c0,1.4-1,2.5-2.4,2.5
		H77.5z"/>
	<path fill="#4F392A" d="M80.5,45.6c0,0.8-0.5,1.5-1.4,1.5h-1.6c-0.9,0-1.4-0.7-1.4-1.5H80.5 M82.5,43.6h-2h-4.4h-2v2
		c0,2,1.5,3.5,3.4,3.5h1.6c1.9,0,3.4-1.5,3.4-3.5V43.6L82.5,43.6z"/>
</g>
<g>
	<path fill-rule="evenodd" clip-rule="evenodd" fill="#A27556" d="M77.5,98.1c-1.4,0-2.4-1.1-2.4-2.5v-1h6.4v1c0,1.4-1,2.5-2.4,2.5
		H77.5z"/>
	<path fill="#4F392A" d="M80.5,95.6c0,0.8-0.5,1.5-1.4,1.5h-1.6c-0.9,0-1.4-0.7-1.4-1.5H80.5 M82.5,93.6h-2h-4.4h-2v2
		c0,2,1.5,3.5,3.4,3.5h1.6c1.9,0,3.4-1.5,3.4-3.5V93.6L82.5,93.6z"/>
</g>
<g>
	<path fill-rule="evenodd" clip-rule="evenodd" fill="#A27556" d="M77.5,248.1c-1.4,0-2.4-1.1-2.4-2.5v-1h6.4v1c0,1.4-1,2.5-2.4,2.5
		H77.5z"/>
	<path fill="#4F392A" d="M80.5,245.6c0,0.8-0.5,1.5-1.4,1.5h-1.6c-0.9,0-1.4-0.7-1.4-1.5H80.5 M82.5,243.6h-2h-4.4h-2v2
		c0,2,1.5,3.5,3.4,3.5h1.6c1.9,0,3.4-1.5,3.4-3.5V243.6L82.5,243.6z"/>
</g>
<g>
	<path fill-rule="evenodd" clip-rule="evenodd" fill="#A27556" d="M127.5,248.1c-1.4,0-2.4-1.1-2.4-2.5v-1h6.4v1
		c0,1.4-1,2.5-2.4,2.5H127.5z"/>
	<path fill="#4F392A" d="M130.5,245.6c0,0.8-0.5,1.5-1.4,1.5h-1.6c-0.9,0-1.4-0.7-1.4-1.5H130.5 M132.5,243.6h-2h-4.4h-2v2
		c0,2,1.5,3.5,3.4,3.5h1.6c1.9,0,3.4-1.5,3.4-3.5V243.6L132.5,243.6z"/>
</g>
<g>
	<path fill-rule="evenodd" clip-rule="evenodd" fill="#A27556" d="M27.5,248.1c-1.4,0-2.4-1.1-2.4-2.5v-1h6.4v1c0,1.4-1,2.5-2.4,2.5
		H27.5z"/>
	<path fill="#4F392A" d="M30.5,245.6c0,0.8-0.5,1.5-1.4,1.5h-1.6c-0.9,0-1.4-0.7-1.4-1.5H30.5 M32.5,243.6h-2h-4.4h-2v2
		c0,2,1.5,3.5,3.4,3.5h1.6c1.9,0,3.4-1.5,3.4-3.5V243.6L32.5,243.6z"/>
</g>
<g>
	<path fill-rule="evenodd" clip-rule="evenodd" fill="#A27556" d="M120.8,48.1c-1.4,0-2.4-1.1-2.4-2.5v-1h6.4v1c0,1.4-1,2.5-2.4,2.5
		H120.8z"/>
	<path fill="#4F392A" d="M123.8,45.6c0,0.8-0.5,1.5-1.4,1.5h-1.6c-0.9,0-1.4-0.7-1.4-1.5H123.8 M125.8,43.6h-2h-4.4h-2v2
		c0,2,1.5,3.5,3.4,3.5h1.6c1.9,0,3.4-1.5,3.4-3.5V43.6L125.8,43.6z"/>
</g>
<g>
	<path fill-rule="evenodd" clip-rule="evenodd" fill="#A27556" d="M127.5,45.1c-1.4,0-2.4-1.1-2.4-2.5v-1h6.4v1c0,1.4-1,2.5-2.4,2.5
		H127.5z"/>
	<path fill="#4F392A" d="M130.5,42.6c0,0.8-0.5,1.5-1.4,1.5h-1.6c-0.9,0-1.4-0.7-1.4-1.5H130.5 M132.5,40.6h-2h-4.4h-2v2
		c0,2,1.5,3.5,3.4,3.5h1.6c1.9,0,3.4-1.5,3.4-3.5V40.6L132.5,40.6z"/>
</g>
<g>
	<path fill-rule="evenodd" clip-rule="evenodd" fill="#A27556" d="M74.1,148.1c-1.4,0-2.4-1.1-2.4-2.5v-1h6.4v1c0,1.4-1,2.5-2.4,2.5
		H74.1z"/>
	<path fill="#4F392A" d="M77.1,145.6c0,0.8-0.5,1.5-1.4,1.5h-1.6c-0.9,0-1.4-0.7-1.4-1.5H77.1 M79.1,143.6h-2h-4.4h-2v2
		c0,2,1.5,3.5,3.4,3.5h1.6c1.9,0,3.4-1.5,3.4-3.5V143.6L79.1,143.6z"/>
</g>
<g>
	<path fill-rule="evenodd" clip-rule="evenodd" fill="#A27556" d="M74.1,198.1c-1.4,0-2.4-1.1-2.4-2.5v-1h6.4v1c0,1.4-1,2.5-2.4,2.5
		H74.1z"/>
	<path fill="#4F392A" d="M77.1,195.6c0,0.8-0.5,1.5-1.4,1.5h-1.6c-0.9,0-1.4-0.7-1.4-1.5H77.1 M79.1,193.6h-2h-4.4h-2v2
		c0,2,1.5,3.5,3.4,3.5h1.6c1.9,0,3.4-1.5,3.4-3.5V193.6L79.1,193.6z"/>
</g>
<g>
	<path fill-rule="evenodd" clip-rule="evenodd" fill="#A27556" d="M27.5,95.1c-1.4,0-2.4-1.1-2.4-2.5v-1h6.4v1c0,1.4-1,2.5-2.4,2.5
		H27.5z"/>
	<path fill="#4F392A" d="M30.5,92.6c0,0.8-0.5,1.5-1.4,1.5h-1.6c-0.9,0-1.4-0.7-1.4-1.5H30.5 M32.5,90.6h-2h-4.4h-2v2
		c0,2,1.5,3.5,3.4,3.5h1.6c1.9,0,3.4-1.5,3.4-3.5V90.6L32.5,90.6z"/>
</g>
<g>
	<path fill-rule="evenodd" clip-rule="evenodd" fill="#A27556" d="M120.8,95.1c-1.4,0-2.4-1.1-2.4-2.5v-1h6.4v1c0,1.4-1,2.5-2.4,2.5
		H120.8z"/>
	<path fill="#4F392A" d="M123.8,92.6c0,0.8-0.5,1.5-1.4,1.5h-1.6c-0.9,0-1.4-0.7-1.4-1.5H123.8 M125.8,90.6h-2h-4.4h-2v2
		c0,2,1.5,3.5,3.4,3.5h1.6c1.9,0,3.4-1.5,3.4-3.5V90.6L125.8,90.6z"/>
</g>
<g>
	<path fill-rule="evenodd" clip-rule="evenodd" fill="#A27556" d="M20.8,98.1c-1.4,0-2.4-1.1-2.4-2.5v-1h6.4v1c0,1.4-1,2.5-2.4,2.5
		H20.8z"/>
	<path fill="#4F392A" d="M23.8,95.6c0,0.8-0.5,1.5-1.4,1.5h-1.6c-0.9,0-1.4-0.7-1.4-1.5H23.8 M25.8,93.6h-2h-4.4h-2v2
		c0,2,1.5,3.5,3.4,3.5h1.6c1.9,0,3.4-1.5,3.4-3.5V93.6L25.8,93.6z"/>
</g>
<g>
	<path fill-rule="evenodd" clip-rule="evenodd" fill="#A27556" d="M21.8,147.5c-0.5,0-1-0.2-1.4-0.4l-1.3-0.9
		c-1.1-0.8-1.4-2.3-0.5-3.4l0.6-0.8l5.2,3.7l-0.6,0.8C23.4,147.1,22.6,147.5,21.8,147.5L21.8,147.5z"/>
	<path fill="#4F392A" d="M19.4,143.3l3.6,2.5c-0.3,0.4-0.8,0.7-1.2,0.7c-0.3,0-0.5-0.1-0.8-0.3l-1.3-0.9C19,144.8,19,144,19.4,143.3
		 M18.9,140.5l-1.1,1.6c-1.1,1.6-0.8,3.7,0.8,4.8l1.3,0.9c0.6,0.4,1.3,0.6,1.9,0.6c1.1,0,2.2-0.6,2.9-1.5l1.1-1.6l-1.6-1.1l-3.6-2.5
		L18.9,140.5L18.9,140.5z"/>
</g>
<g>
	<path fill-rule="evenodd" clip-rule="evenodd" fill="#A27556" d="M21.8,197.5c-0.5,0-1-0.2-1.4-0.4l-1.3-0.9
		c-1.1-0.8-1.4-2.3-0.5-3.4l0.6-0.8l5.2,3.7l-0.6,0.8C23.4,197.1,22.6,197.5,21.8,197.5L21.8,197.5z"/>
	<path fill="#4F392A" d="M19.4,193.3l3.6,2.5c-0.3,0.4-0.8,0.7-1.2,0.7c-0.3,0-0.5-0.1-0.8-0.3l-1.3-0.9C19,194.8,19,194,19.4,193.3
		 M18.9,190.5l-1.1,1.6c-1.1,1.6-0.8,3.7,0.8,4.8l1.3,0.9c0.6,0.4,1.3,0.6,1.9,0.6c1.1,0,2.2-0.6,2.9-1.5l1.1-1.6l-1.6-1.1l-3.6-2.5
		L18.9,190.5L18.9,190.5z"/>
</g>
<g>
	<path fill-rule="evenodd" clip-rule="evenodd" fill="#A27556" d="M121.8,147.5c-0.5,0-1-0.2-1.4-0.4l-1.3-0.9
		c-1.1-0.8-1.4-2.3-0.5-3.4l0.6-0.8l5.2,3.7l-0.6,0.8C123.4,147.1,122.6,147.5,121.8,147.5L121.8,147.5z"/>
	<path fill="#4F392A" d="M119.4,143.3l3.6,2.5c-0.3,0.4-0.8,0.7-1.2,0.7c-0.3,0-0.5-0.1-0.8-0.3l-1.3-0.9
		C119,144.8,119,144,119.4,143.3 M119,140.5l-1.1,1.6c-1.1,1.6-0.8,3.7,0.8,4.8l1.3,0.9c0.6,0.4,1.3,0.6,1.9,0.6
		c1.1,0,2.2-0.6,2.9-1.5l1.1-1.6l-1.6-1.1l-3.6-2.5L119,140.5L119,140.5z"/>
</g>
<g>
	<path fill-rule="evenodd" clip-rule="evenodd" fill="#A27556" d="M121.8,197.5c-0.5,0-1-0.2-1.4-0.4l-1.3-0.9
		c-1.1-0.8-1.4-2.3-0.5-3.4l0.6-0.8l5.2,3.7l-0.6,0.8C123.4,197.1,122.6,197.5,121.8,197.5L121.8,197.5z"/>
	<path fill="#4F392A" d="M119.4,193.3l3.6,2.5c-0.3,0.4-0.8,0.7-1.2,0.7c-0.3,0-0.5-0.1-0.8-0.3l-1.3-0.9
		C119,194.8,119,194,119.4,193.3 M119,190.5l-1.1,1.6c-1.1,1.6-0.8,3.7,0.8,4.8l1.3,0.9c0.6,0.4,1.3,0.6,1.9,0.6
		c1.1,0,2.2-0.6,2.9-1.5l1.1-1.6l-1.6-1.1l-3.6-2.5L119,190.5L119,190.5z"/>
</g>
<g>
	<path fill-rule="evenodd" clip-rule="evenodd" fill="#A27556" d="M28.2,147.5c-0.8,0-1.6-0.4-2-1.1l-0.6-0.8l5.2-3.7l0.6,0.8
		c0.4,0.6,0.6,1.3,0.5,1.9c-0.1,0.6-0.5,1.2-1,1.5l-1.3,0.9C29.1,147.3,28.6,147.5,28.2,147.5z"/>
	<path fill="#4F392A" d="M30.5,143.3c0.5,0.7,0.4,1.6-0.3,2l-1.3,0.9c-0.3,0.2-0.5,0.3-0.8,0.3c-0.5,0-0.9-0.3-1.2-0.7L30.5,143.3
		 M31,140.5l-1.6,1.1l-3.6,2.5l-1.6,1.1l1.1,1.6c0.7,1,1.7,1.5,2.9,1.5c0.7,0,1.4-0.2,1.9-0.6l1.3-0.9c0.7-0.5,1.2-1.3,1.4-2.2
		c0.2-0.9-0.1-1.9-0.6-2.7L31,140.5L31,140.5z"/>
</g>
<g>
	<path fill-rule="evenodd" clip-rule="evenodd" fill="#A27556" d="M28.2,197.5c-0.8,0-1.6-0.4-2-1.1l-0.6-0.8l5.2-3.7l0.6,0.8
		c0.4,0.6,0.6,1.3,0.5,1.9c-0.1,0.6-0.5,1.2-1,1.5l-1.3,0.9C29.1,197.3,28.6,197.5,28.2,197.5z"/>
	<path fill="#4F392A" d="M30.5,193.3c0.5,0.7,0.4,1.6-0.3,2l-1.3,0.9c-0.3,0.2-0.5,0.3-0.8,0.3c-0.5,0-0.9-0.3-1.2-0.7L30.5,193.3
		 M31,190.5l-1.6,1.1l-3.6,2.5l-1.6,1.1l1.1,1.6c0.7,1,1.7,1.5,2.9,1.5c0.7,0,1.4-0.2,1.9-0.6l1.3-0.9c0.7-0.5,1.2-1.3,1.4-2.2
		c0.2-0.9-0.1-1.9-0.6-2.7L31,190.5L31,190.5z"/>
</g>
<g>
	<path fill-rule="evenodd" clip-rule="evenodd" fill="#A27556" d="M128.2,147.5c-0.8,0-1.6-0.4-2-1.1l-0.6-0.8l5.2-3.7l0.6,0.8
		c0.8,1.2,0.6,2.7-0.5,3.4l-1.3,0.9C129.1,147.3,128.6,147.5,128.2,147.5z"/>
	<path fill="#4F392A" d="M130.5,143.3c0.5,0.7,0.4,1.6-0.3,2l-1.3,0.9c-0.3,0.2-0.5,0.3-0.8,0.3c-0.5,0-0.9-0.3-1.2-0.7L130.5,143.3
		 M131,140.5l-1.6,1.2l-3.6,2.5l-1.6,1.1l1.2,1.6c0.7,1,1.7,1.5,2.9,1.5c0.7,0,1.4-0.2,1.9-0.6l1.3-0.9c1.6-1.1,1.9-3.2,0.8-4.8
		L131,140.5L131,140.5z"/>
</g>
<g>
	<path fill-rule="evenodd" clip-rule="evenodd" fill="#A27556" d="M128.2,197.5c-0.8,0-1.6-0.4-2-1.1l-0.6-0.8l5.2-3.7l0.6,0.8
		c0.8,1.2,0.6,2.7-0.5,3.4l-1.3,0.9C129.1,197.3,128.6,197.5,128.2,197.5z"/>
	<path fill="#4F392A" d="M130.5,193.3c0.5,0.7,0.4,1.6-0.3,2l-1.3,0.9c-0.3,0.2-0.5,0.3-0.8,0.3c-0.5,0-0.9-0.3-1.2-0.7L130.5,193.3
		 M131,190.5l-1.6,1.2l-3.6,2.5l-1.6,1.1l1.2,1.6c0.7,1,1.7,1.5,2.9,1.5c0.7,0,1.4-0.2,1.9-0.6l1.3-0.9c1.6-1.1,1.9-3.2,0.8-4.8
		L131,190.5L131,190.5z"/>
</g>
<g>
	<path fill-rule="evenodd" clip-rule="evenodd" fill="#A27556" d="M127.5,98.1c-1.4,0-2.4-1.1-2.4-2.5v-1h6.4v1c0,1.4-1,2.5-2.4,2.5
		H127.5z"/>
	<path fill="#4F392A" d="M130.5,95.6c0,0.8-0.5,1.5-1.4,1.5h-1.6c-0.9,0-1.4-0.7-1.4-1.5H130.5 M132.5,93.6h-2h-4.4h-2v2
		c0,2,1.5,3.5,3.4,3.5h1.6c1.9,0,3.4-1.5,3.4-3.5V93.6L132.5,93.6z"/>
</g>
</svg>
