<svg version="1.1" id="Layer_3" xmlns="http://www.w3.org/2000/svg" x="0" y="0" width="150" height="250" viewBox="0 0 150 250" xml:space="preserve"><g><g><path fill-rule="evenodd" clip-rule="evenodd" fill="#BBB" d="M13.4 229.5c-1.1 0-2-.5-2.7-1.5-1.2-1.7-1.6-4.8-.8-7.3l1-3 1 3c.5 1.7 2.7 3.2 4.3 4.3 1.7 1.2 2.8 2 2.4 3.1-.5 1.1-1.7 1.4-5.2 1.4z"/><path fill="#231F20" d="M10.8 221c1.5 4.7 12.5 7.5 2.5 7.5-2.6 0-3.5-4.4-2.5-7.5m0-6.5l-1.9 5.9c-.9 2.8-.5 6.2.9 8.2.9 1.2 2.1 1.9 3.5 1.9 3.2 0 5.4-.1 6-2 .6-1.8-1-3-2.8-4.2-1.4-1-3.5-2.5-3.9-3.8l-1.8-6z"/></g><g><path fill-rule="evenodd" clip-rule="evenodd" fill="#BBB" d="M36.5 229.5c-3.6 0-4.8-.3-5.1-1.3-.4-1.1.7-1.9 2.4-3.1 1.6-1.1 3.7-2.7 4.3-4.3l1-3 1 3c.8 2.5.5 5.6-.8 7.3-.8.9-1.7 1.4-2.8 1.4z"/><path fill="#231F20" d="M39 221c1 3 .1 7.5-2.5 7.5-10 0 1-2.7 2.5-7.5m0-6.5l-1.9 5.9c-.4 1.3-2.5 2.8-3.9 3.8-1.7 1.2-3.4 2.4-2.8 4.2.6 1.9 2.9 2 6 2 1.4 0 2.7-.7 3.5-1.9 1.6-2.2 1.7-5.8.9-8.2l-1.8-5.8z"/></g></g><g><g><path fill-rule="evenodd" clip-rule="evenodd" fill="#BBB" d="M13.4 79.5c-1.1 0-2-.5-2.7-1.5-1.2-1.7-1.6-4.8-.8-7.3l1-3 1 3c.5 1.7 2.7 3.2 4.3 4.3 1.7 1.2 2.8 2 2.4 3.1-.5 1.1-1.7 1.4-5.2 1.4z"/><path fill="#231F20" d="M10.8 71c1.5 4.7 12.5 7.5 2.5 7.5-2.6 0-3.5-4.4-2.5-7.5m0-6.5l-1.9 5.9c-.9 2.8-.5 6.2.9 8.2.9 1.2 2.1 1.9 3.5 1.9 3.2 0 5.4-.1 6-2 .6-1.8-1-3-2.8-4.2-1.4-1-3.5-2.5-3.9-3.8l-1.8-6z"/></g><g><path fill-rule="evenodd" clip-rule="evenodd" fill="#BBB" d="M36.5 79.5c-3.6 0-4.8-.3-5.1-1.3-.4-1.1.7-1.9 2.4-3.1 1.6-1.1 3.7-2.7 4.3-4.3l1-3 1 3c.8 2.5.5 5.6-.8 7.3-.8.9-1.7 1.4-2.8 1.4z"/><path fill="#231F20" d="M39 71c1 3 .1 7.5-2.5 7.5-10 0 1-2.7 2.5-7.5m0-6.5l-1.9 5.9c-.4 1.3-2.5 2.8-3.9 3.8-1.7 1.2-3.4 2.4-2.8 4.2.6 1.9 2.9 2 6 2 1.4 0 2.7-.7 3.5-1.9 1.4-2 1.8-5.4.9-8.2L39 64.5z"/></g></g><g><g><path fill-rule="evenodd" clip-rule="evenodd" fill="#BBB" d="M13.4 29.5c-1.1 0-2-.5-2.7-1.5-1.2-1.7-1.6-4.8-.8-7.3l1-3 1 3c.5 1.7 2.7 3.2 4.3 4.3 1.7 1.2 2.8 2 2.4 3.1-.5 1.1-1.7 1.4-5.2 1.4z"/><path fill="#231F20" d="M10.8 21c1.5 4.7 12.5 7.5 2.5 7.5-2.6 0-3.5-4.4-2.5-7.5m0-6.5l-1.9 5.9c-.9 2.8-.5 6.2.9 8.2.9 1.2 2.1 1.9 3.5 1.9 3.2 0 5.4-.1 6-2 .6-1.8-1-3-2.8-4.2-1.4-1-3.5-2.5-3.9-3.8l-1.8-6z"/></g><g><path fill-rule="evenodd" clip-rule="evenodd" fill="#BBB" d="M36.5 29.5c-3.6 0-4.8-.3-5.1-1.3-.4-1.1.7-1.9 2.4-3.1 1.6-1.1 3.7-2.7 4.3-4.3l1-3 1 3c.8 2.5.5 5.6-.8 7.3-.8.9-1.7 1.4-2.8 1.4z"/><path fill="#231F20" d="M39 21c1 3 .1 7.5-2.5 7.5-10 0 1-2.7 2.5-7.5m0-6.5l-1.9 5.9c-.4 1.3-2.5 2.8-3.9 3.8-1.7 1.2-3.4 2.4-2.8 4.2.6 1.9 2.9 2 6 2 1.4 0 2.7-.7 3.5-1.9 1.4-2 1.8-5.4.9-8.2L39 14.5z"/></g></g><g><g><path fill-rule="evenodd" clip-rule="evenodd" fill="#BBB" d="M63.4 229.5c-1.1 0-2-.5-2.7-1.5-1.2-1.7-1.6-4.8-.8-7.3l1-3 1 3c.5 1.7 2.7 3.2 4.3 4.3 1.7 1.2 2.8 2 2.4 3.1-.5 1.1-1.7 1.4-5.2 1.4z"/><path fill="#231F20" d="M60.8 221c1.5 4.7 12.5 7.5 2.5 7.5-2.6 0-3.5-4.4-2.5-7.5m0-6.5l-1.9 5.9c-.8 2.4-.7 6 .9 8.2.9 1.2 2.1 1.9 3.5 1.9 3.2 0 5.4-.1 6-2 .6-1.8-1-3-2.8-4.2-1.4-1-3.5-2.5-3.9-3.8l-1.8-6z"/></g><g><path fill-rule="evenodd" clip-rule="evenodd" fill="#BBB" d="M86.5 229.5c-3.6 0-4.8-.3-5.1-1.3-.4-1.1.7-1.9 2.4-3.1 1.6-1.1 3.7-2.7 4.3-4.3l1-3 1 3c.8 2.5.5 5.6-.8 7.3-.8.9-1.7 1.4-2.8 1.4z"/><path fill="#231F20" d="M89 221c1 3 .1 7.5-2.5 7.5-10 0 1-2.7 2.5-7.5m0-6.5l-1.9 5.9c-.4 1.3-2.5 2.8-3.9 3.8-1.7 1.2-3.4 2.4-2.8 4.2.6 1.9 2.9 2 6 2 1.4 0 2.7-.7 3.5-1.9 1.6-2.2 1.7-5.8.9-8.2l-1.8-5.8z"/></g></g><g><g><path fill-rule="evenodd" clip-rule="evenodd" fill="#BBB" d="M63.4 79.5c-1.1 0-2-.5-2.7-1.5-1.2-1.7-1.6-4.8-.8-7.3l1-3 1 3c.5 1.7 2.7 3.2 4.3 4.3 1.7 1.2 2.8 2 2.4 3.1-.5 1.1-1.7 1.4-5.2 1.4z"/><path fill="#231F20" d="M60.8 71c1.5 4.7 12.5 7.5 2.5 7.5-2.6 0-3.5-4.4-2.5-7.5m0-6.5l-1.9 5.9c-.9 2.8-.5 6.2.9 8.2.9 1.2 2.1 1.9 3.5 1.9 3.2 0 5.4-.1 6-2 .6-1.8-1-3-2.8-4.2-1.4-1-3.5-2.5-3.9-3.8l-1.8-6z"/></g><g><path fill-rule="evenodd" clip-rule="evenodd" fill="#BBB" d="M86.5 79.5c-3.6 0-4.8-.3-5.1-1.3-.4-1.1.7-1.9 2.4-3.1 1.6-1.1 3.7-2.7 4.3-4.3l1-3 1 3c.8 2.5.5 5.6-.8 7.3-.8.9-1.7 1.4-2.8 1.4z"/><path fill="#231F20" d="M89 71c1 3 .1 7.5-2.5 7.5-10 0 1-2.7 2.5-7.5m0-6.5l-1.9 5.9c-.4 1.3-2.5 2.8-3.9 3.8-1.7 1.2-3.4 2.4-2.8 4.2.6 1.9 2.9 2 6 2 1.4 0 2.7-.7 3.5-1.9 1.4-2 1.8-5.4.9-8.2L89 64.5z"/></g></g><g><g><path fill-rule="evenodd" clip-rule="evenodd" fill="#BBB" d="M63.4 29.5c-1.1 0-2-.5-2.7-1.5-1.2-1.7-1.6-4.8-.8-7.3l1-3 1 3c.5 1.7 2.7 3.2 4.3 4.3 1.7 1.2 2.8 2 2.4 3.1-.5 1.1-1.7 1.4-5.2 1.4z"/><path fill="#231F20" d="M60.8 21c1.5 4.7 12.5 7.5 2.5 7.5-2.6 0-3.5-4.4-2.5-7.5m0-6.5l-1.9 5.9c-.9 2.8-.5 6.2.9 8.2.9 1.2 2.1 1.9 3.5 1.9 3.2 0 5.4-.1 6-2 .6-1.8-1-3-2.8-4.2-1.4-1-3.5-2.5-3.9-3.8l-1.8-6z"/></g><g><path fill-rule="evenodd" clip-rule="evenodd" fill="#BBB" d="M86.5 29.5c-3.6 0-4.8-.3-5.1-1.3-.4-1.1.7-1.9 2.4-3.1 1.6-1.1 3.7-2.7 4.3-4.3l1-3 1 3c.8 2.5.5 5.6-.8 7.3-.8.9-1.7 1.4-2.8 1.4z"/><path fill="#231F20" d="M89 21c1 3 .1 7.5-2.5 7.5-10 0 1-2.7 2.5-7.5m0-6.5l-1.9 5.9c-.4 1.3-2.5 2.8-3.9 3.8-1.7 1.2-3.4 2.4-2.8 4.2.6 1.9 2.9 2 6 2 1.4 0 2.7-.7 3.5-1.9 1.4-2 1.8-5.4.9-8.2L89 14.5z"/></g></g><g><g><path fill-rule="evenodd" clip-rule="evenodd" fill="#BBB" d="M113.4 229.5c-1.1 0-2-.5-2.7-1.5-1.3-1.7-1.6-4.8-.8-7.3l1-3 1 3c.5 1.7 2.7 3.2 4.3 4.3 1.7 1.2 2.8 2 2.4 3.1-.5 1.1-1.7 1.4-5.2 1.4z"/><path fill="#231F20" d="M110.8 221c1.5 4.7 12.5 7.5 2.5 7.5-2.6 0-3.5-4.4-2.5-7.5m0-6.5l-1.9 5.9c-.8 2.4-.7 6 .9 8.2.9 1.2 2.1 1.9 3.5 1.9 3.2 0 5.4-.1 6-2 .6-1.8-1-3-2.8-4.2-1.4-1-3.5-2.5-3.9-3.8l-1.8-6z"/></g><g><path fill-rule="evenodd" clip-rule="evenodd" fill="#BBB" d="M136.5 229.5c-3.6 0-4.8-.3-5.1-1.3-.4-1.1.7-1.9 2.4-3.1 1.6-1.1 3.7-2.7 4.3-4.3l1-3 1 3c.8 2.5.5 5.6-.8 7.3-.8.9-1.7 1.4-2.8 1.4z"/><path fill="#231F20" d="M139 221c1 3 .1 7.5-2.5 7.5-10 0 1-2.7 2.5-7.5m0-6.5l-1.9 5.9c-.4 1.3-2.5 2.8-3.9 3.8-1.7 1.2-3.4 2.4-2.8 4.2.6 1.9 2.9 2 6 2 1.4 0 2.7-.7 3.5-1.9 1.6-2.2 1.7-5.8.9-8.2l-1.8-5.8z"/></g></g><g><g><path fill-rule="evenodd" clip-rule="evenodd" fill="#BBB" d="M113.4 79.5c-1.1 0-2-.5-2.7-1.5-1.2-1.7-1.6-4.8-.8-7.3l1-3 1 3c.5 1.7 2.7 3.2 4.3 4.3 1.7 1.2 2.8 2 2.4 3.1-.5 1.1-1.7 1.4-5.2 1.4z"/><path fill="#231F20" d="M110.8 71c1.5 4.7 12.5 7.5 2.5 7.5-2.6 0-3.5-4.4-2.5-7.5m0-6.5l-1.9 5.9c-.9 2.8-.5 6.2.9 8.2.9 1.2 2.1 1.9 3.5 1.9 3.2 0 5.4-.1 6-2 .6-1.8-1-3-2.8-4.2-1.4-1-3.5-2.5-3.9-3.8l-1.8-6z"/></g><g><path fill-rule="evenodd" clip-rule="evenodd" fill="#BBB" d="M136.5 79.5c-3.6 0-4.8-.3-5.1-1.3-.4-1.1.7-1.9 2.4-3.1 1.6-1.1 3.7-2.7 4.3-4.3l1-3 1 3c.8 2.5.5 5.6-.8 7.3-.8.9-1.7 1.4-2.8 1.4z"/><path fill="#231F20" d="M139 71c1 3 .1 7.5-2.5 7.5-10 0 1-2.7 2.5-7.5m0-6.5l-1.9 5.9c-.4 1.3-2.5 2.8-3.9 3.8-1.7 1.2-3.4 2.4-2.8 4.2.6 1.9 2.9 2 6 2 1.4 0 2.7-.7 3.5-1.9 1.4-2 1.8-5.4.9-8.2l-1.8-5.8z"/></g></g><g><g><path fill-rule="evenodd" clip-rule="evenodd" fill="#BBB" d="M113.4 29.5c-1.1 0-2-.5-2.7-1.5-1.2-1.7-1.6-4.8-.8-7.3l1-3 1 3c.5 1.7 2.7 3.2 4.3 4.3 1.7 1.2 2.8 2 2.4 3.1-.5 1.1-1.7 1.4-5.2 1.4z"/><path fill="#231F20" d="M110.8 21c1.5 4.7 12.5 7.5 2.5 7.5-2.6 0-3.5-4.4-2.5-7.5m0-6.5l-1.9 5.9c-.9 2.8-.5 6.2.9 8.2.9 1.2 2.1 1.9 3.5 1.9 3.2 0 5.4-.1 6-2 .6-1.8-1-3-2.8-4.2-1.4-1-3.5-2.5-3.9-3.8l-1.8-6z"/></g><g><path fill-rule="evenodd" clip-rule="evenodd" fill="#BBB" d="M136.5 29.5c-3.6 0-4.8-.3-5.1-1.3-.4-1.1.7-1.9 2.4-3.1 1.6-1.1 3.7-2.7 4.3-4.3l1-3 1 3c.8 2.5.5 5.6-.8 7.3-.8.9-1.7 1.4-2.8 1.4z"/><path fill="#231F20" d="M139 21c1 3 .1 7.5-2.5 7.5-10 0 1-2.7 2.5-7.5m0-6.5l-1.9 5.9c-.4 1.3-2.5 2.8-3.9 3.8-1.7 1.2-3.4 2.4-2.8 4.2.6 1.9 2.9 2 6 2 1.4 0 2.7-.7 3.5-1.9 1.4-2 1.8-5.4.9-8.2l-1.8-5.8z"/></g></g><g><path fill-rule="evenodd" clip-rule="evenodd" fill="#A27556" d="M12.6 229.5l.5-1.4c1.9-4.9 6.5-8.1 11.7-8.1 5.2 0 9.8 3.2 11.7 8.1l.5 1.4H12.6z"/><path fill="#4C4134" d="M24.9 221c4.9 0 9.1 3.1 10.8 7.5H14.1c1.7-4.4 5.9-7.5 10.8-7.5m0-2c-5.6 0-10.6 3.4-12.7 8.8l-1.1 2.7h27.4l-1.1-2.7c-1.9-5.4-6.9-8.8-12.5-8.8z"/></g><g><path fill-rule="evenodd" clip-rule="evenodd" fill="#A27556" d="M12.6 79.5l.5-1.4C15 73.2 19.6 70 24.8 70c5.2 0 9.8 3.2 11.7 8.1l.5 1.4H12.6z"/><path fill="#4C4134" d="M24.9 71c4.9 0 9.1 3.1 10.8 7.5H14.1C15.8 74.1 20 71 24.9 71m0-2c-5.6 0-10.6 3.4-12.7 8.8l-1.1 2.7h27.4l-1.1-2.7c-1.9-5.4-6.8-8.8-12.5-8.8z"/></g><g><path fill-rule="evenodd" clip-rule="evenodd" fill="#A27556" d="M12.6 29.5l.5-1.4C15 23.2 19.6 20 24.8 20c5.2 0 9.8 3.2 11.7 8.1l.5 1.4H12.6z"/><path fill="#4C4134" d="M24.9 21c4.9 0 9.1 3.1 10.8 7.5H14.1C15.8 24.1 20 21 24.9 21m0-2c-5.6 0-10.6 3.4-12.7 8.8l-1.1 2.7h27.4l-1.1-2.7c-1.9-5.4-6.8-8.8-12.5-8.8z"/></g><g><path fill-rule="evenodd" clip-rule="evenodd" fill="#A27556" d="M62.7 229.5l.5-1.4c1.9-4.9 6.5-8.1 11.7-8.1 5.2 0 9.8 3.2 11.7 8.1l.5 1.4H62.7z"/><path fill="#4C4134" d="M74.9 221c4.9 0 9.1 3.1 10.8 7.5H64.1c1.7-4.4 5.9-7.5 10.8-7.5m0-2c-5.6 0-10.6 3.4-12.7 8.8l-1.1 2.7h27.4l-1.1-2.7c-1.9-5.4-6.9-8.8-12.5-8.8z"/></g><g><path fill-rule="evenodd" clip-rule="evenodd" fill="#A27556" d="M62.7 79.5l.5-1.4c1.9-4.9 6.5-8.1 11.7-8.1 5.2 0 9.8 3.2 11.7 8.1l.5 1.4H62.7z"/><path fill="#4C4134" d="M74.9 71c4.9 0 9.1 3.1 10.8 7.5H64.1C65.8 74.1 70 71 74.9 71m0-2c-5.6 0-10.6 3.4-12.7 8.8l-1.1 2.7h27.4l-1.1-2.7c-1.9-5.4-6.8-8.8-12.5-8.8z"/></g><g><path fill-rule="evenodd" clip-rule="evenodd" fill="#A27556" d="M62.7 29.5l.5-1.4c1.9-4.9 6.5-8.1 11.7-8.1 5.2 0 9.8 3.2 11.7 8.1l.5 1.4H62.7z"/><path fill="#4C4134" d="M74.9 21c4.9 0 9.1 3.1 10.8 7.5H64.1C65.8 24.1 70 21 74.9 21m0-2c-5.6 0-10.6 3.4-12.7 8.8l-1.1 2.7h27.4l-1.1-2.7c-1.9-5.4-6.8-8.8-12.5-8.8z"/></g><g><path fill-rule="evenodd" clip-rule="evenodd" fill="#A27556" d="M112.6 229.5l.5-1.4c1.9-4.9 6.5-8.1 11.7-8.1s9.8 3.2 11.7 8.1l.5 1.4h-24.4z"/><path fill="#4C4134" d="M124.9 221c4.9 0 9.1 3.1 10.8 7.5h-21.6c1.7-4.4 5.9-7.5 10.8-7.5m0-2c-5.6 0-10.6 3.4-12.7 8.8l-1.1 2.7h27.4l-1.1-2.7c-1.9-5.4-6.8-8.8-12.5-8.8z"/></g><g><path fill-rule="evenodd" clip-rule="evenodd" fill="#A27556" d="M112.6 79.5l.5-1.4c1.9-4.9 6.5-8.1 11.7-8.1s9.8 3.2 11.7 8.1l.5 1.4h-24.4z"/><path fill="#4C4134" d="M124.9 71c4.9 0 9.1 3.1 10.8 7.5h-21.6c1.7-4.4 5.9-7.5 10.8-7.5m0-2c-5.6 0-10.6 3.4-12.7 8.8l-1.1 2.7h27.4l-1.1-2.7c-1.9-5.4-6.8-8.8-12.5-8.8z"/></g><g><path fill-rule="evenodd" clip-rule="evenodd" fill="#A27556" d="M112.6 29.5l.5-1.4c1.9-4.9 6.5-8.1 11.7-8.1s9.8 3.2 11.7 8.1l.5 1.4h-24.4z"/><path fill="#4C4134" d="M124.9 21c4.9 0 9.1 3.1 10.8 7.5h-21.6c1.7-4.4 5.9-7.5 10.8-7.5m0-2c-5.6 0-10.6 3.4-12.7 8.8l-1.1 2.7h27.4l-1.1-2.7c-1.9-5.4-6.8-8.8-12.5-8.8z"/></g><g><path fill-rule="evenodd" clip-rule="evenodd" fill="#A27556" d="M19.4 229.5l.2-1.2c.8-5.2 2.8-8.3 5.3-8.3s4.5 3.2 5.3 8.4l.2 1.2h-11z"/><path fill="#4C4134" d="M24.9 221c2 0 3.6 3.1 4.3 7.5h-8.6c.7-4.4 2.4-7.5 4.3-7.5m0-2c-3 0-5.4 3.4-6.3 9.2l-.4 2.3h13.2l-.4-2.3c-.7-5.8-3-9.2-6.1-9.2z"/></g><g><path fill-rule="evenodd" clip-rule="evenodd" fill="#A27556" d="M19.4 79.5l.2-1.2c.8-5.1 2.8-8.3 5.3-8.3s4.5 3.2 5.3 8.3l.2 1.2h-11z"/><path fill="#4C4134" d="M24.9 71c2 0 3.6 3.1 4.3 7.5h-8.6c.7-4.4 2.4-7.5 4.3-7.5m0-2c-3 0-5.4 3.4-6.3 9.2l-.4 2.3h13.2l-.4-2.3c-.7-5.8-3-9.2-6.1-9.2z"/></g><g><path fill-rule="evenodd" clip-rule="evenodd" fill="#A27556" d="M19.4 29.5l.2-1.2c.8-5.2 2.8-8.4 5.3-8.4s4.5 3.2 5.3 8.4l.2 1.2h-11z"/><path fill="#4C4134" d="M24.9 21c2 0 3.6 3.1 4.3 7.5h-8.6c.7-4.4 2.4-7.5 4.3-7.5m0-2c-3 0-5.4 3.4-6.3 9.2l-.4 2.3h13.2l-.4-2.3c-.7-5.8-3-9.2-6.1-9.2z"/></g><g><path fill-rule="evenodd" clip-rule="evenodd" fill="#A27556" d="M69.4 229.5l.2-1.2c.8-5.2 2.8-8.4 5.3-8.4s4.5 3.2 5.3 8.4l.2 1.2h-11z"/><path fill="#4C4134" d="M74.9 221c2 0 3.6 3.1 4.3 7.5h-8.6c.7-4.4 2.4-7.5 4.3-7.5m0-2c-3 0-5.4 3.4-6.3 9.2l-.4 2.3h13.2l-.4-2.3c-.7-5.8-3-9.2-6.1-9.2z"/></g><g><path fill-rule="evenodd" clip-rule="evenodd" fill="#A27556" d="M69.4 79.5l.2-1.2c.8-5.2 2.8-8.3 5.3-8.3s4.5 3.2 5.3 8.3l.2 1.2h-11z"/><path fill="#4C4134" d="M74.9 71c2 0 3.6 3.1 4.3 7.5h-8.6c.7-4.4 2.4-7.5 4.3-7.5m0-2c-3.1 0-5.4 3.4-6.3 9.2l-.4 2.3h13.2l-.4-2.3c-.7-5.8-3-9.2-6.1-9.2z"/></g><g><path fill-rule="evenodd" clip-rule="evenodd" fill="#A27556" d="M69.4 29.5l.2-1.2c.8-5.2 2.8-8.4 5.3-8.4s4.5 3.2 5.3 8.4l.2 1.2h-11z"/><path fill="#4C4134" d="M74.9 21c2 0 3.6 3.1 4.3 7.5h-8.6c.7-4.4 2.4-7.5 4.3-7.5m0-2c-3.1 0-5.4 3.4-6.3 9.2l-.4 2.3h13.2l-.4-2.3c-.7-5.8-3-9.2-6.1-9.2z"/></g><g><path fill-rule="evenodd" clip-rule="evenodd" fill="#A27556" d="M119.4 229.5l.2-1.2c.8-5.2 2.8-8.4 5.3-8.4s4.5 3.2 5.3 8.4l.2 1.2h-11z"/><path fill="#4C4134" d="M124.9 221c2 0 3.6 3.1 4.3 7.5h-8.6c.7-4.4 2.4-7.5 4.3-7.5m0-2c-3 0-5.4 3.4-6.3 9.2l-.4 2.3h13.2l-.4-2.3c-.7-5.8-3-9.2-6.1-9.2z"/></g><g><path fill-rule="evenodd" clip-rule="evenodd" fill="#A27556" d="M119.4 79.5l.2-1.2c.8-5.2 2.8-8.3 5.3-8.3s4.5 3.2 5.3 8.3l.2 1.2h-11z"/><path fill="#4C4134" d="M124.9 71c2 0 3.6 3.1 4.3 7.5h-8.6c.7-4.4 2.4-7.5 4.3-7.5m0-2c-3 0-5.4 3.4-6.3 9.2l-.4 2.3h13.2l-.4-2.3c-.7-5.8-3-9.2-6.1-9.2z"/></g><g><path fill-rule="evenodd" clip-rule="evenodd" fill="#A27556" d="M119.4 29.5l.2-1.2c.8-5.2 2.8-8.4 5.3-8.4s4.5 3.2 5.3 8.4l.2 1.2h-11z"/><path fill="#4C4134" d="M124.9 21c2 0 3.6 3.1 4.3 7.5h-8.6c.7-4.4 2.4-7.5 4.3-7.5m0-2c-3 0-5.4 3.4-6.3 9.2l-.4 2.3h13.2l-.4-2.3c-.7-5.8-3-9.2-6.1-9.2z"/></g><g><g><path fill-rule="evenodd" clip-rule="evenodd" fill="#A27556" d="M12.6 129.5l.5-1.4c1.9-4.9 6.5-8.1 11.7-8.1 5.2 0 9.8 3.2 11.7 8.1l.5 1.4H12.6z"/></g><g><path fill="#4C4134" d="M24.9 121c4.9 0 9.1 3.1 10.8 7.5H14.1c1.7-4.4 5.9-7.5 10.8-7.5m0-2c-5.6 0-10.6 3.4-12.7 8.8l-1.1 2.7h27.4l-1.1-2.7c-1.9-5.4-6.8-8.8-12.5-8.8z"/></g></g><g><g><path fill-rule="evenodd" clip-rule="evenodd" fill="#A27556" d="M62.7 129.5l.5-1.4c1.9-4.9 6.5-8.1 11.7-8.1 5.2 0 9.8 3.2 11.7 8.1l.5 1.4H62.7z"/></g><g><path fill="#4C4134" d="M74.9 121c4.9 0 9.1 3.1 10.8 7.5H64.1c1.7-4.4 5.9-7.5 10.8-7.5m0-2c-5.6 0-10.6 3.4-12.7 8.8l-1.1 2.7h27.4l-1.1-2.7c-1.9-5.4-6.8-8.8-12.5-8.8z"/></g></g><g><g><path fill-rule="evenodd" clip-rule="evenodd" fill="#A27556" d="M112.6 129.5l.5-1.4c1.9-4.9 6.5-8.1 11.7-8.1s9.8 3.2 11.7 8.1l.5 1.4h-24.4z"/></g><g><path fill="#4C4134" d="M124.9 121c4.9 0 9.1 3.1 10.8 7.5h-21.6c1.7-4.4 5.9-7.5 10.8-7.5m0-2c-5.6 0-10.6 3.4-12.7 8.8l-1.1 2.7h27.4l-1.1-2.7c-1.9-5.4-6.8-8.8-12.5-8.8z"/></g></g><g><g><path fill-rule="evenodd" clip-rule="evenodd" fill="#A27556" d="M12.6 179.5l.5-1.4c1.9-4.9 6.5-8.1 11.7-8.1s9.8 3.2 11.7 8.1l.5 1.4H12.6z"/></g><g><path fill="#4C4134" d="M24.9 171c4.9 0 9.1 3.1 10.8 7.5H14.1c1.7-4.4 5.9-7.5 10.8-7.5m0-2c-5.6 0-10.6 3.4-12.7 8.8l-1.1 2.7h27.4l-1.1-2.7c-1.9-5.4-6.9-8.8-12.5-8.8z"/></g></g><g><g><path fill-rule="evenodd" clip-rule="evenodd" fill="#A27556" d="M62.6 179.5l.5-1.4c1.9-4.9 6.5-8.1 11.7-8.1s9.8 3.2 11.7 8.1l.5 1.4H62.6z"/></g><g><path fill="#4C4134" d="M74.9 171c4.9 0 9.1 3.1 10.8 7.5H64.1c1.7-4.4 5.9-7.5 10.8-7.5m0-2c-5.6 0-10.6 3.4-12.7 8.8l-1.1 2.7h27.4l-1.1-2.7c-1.9-5.4-6.9-8.8-12.5-8.8z"/></g></g><g><g><path fill-rule="evenodd" clip-rule="evenodd" fill="#A27556" d="M112.6 179.5l.5-1.4c1.9-4.9 6.5-8.1 11.7-8.1 5.2 0 9.8 3.2 11.7 8.1l.5 1.4h-24.4z"/></g><g><path fill="#4C4134" d="M124.9 171c4.9 0 9.1 3.1 10.8 7.5h-21.6c1.7-4.4 5.9-7.5 10.8-7.5m0-2c-5.6 0-10.6 3.4-12.7 8.8l-1.1 2.7h27.4l-1.1-2.7c-1.9-5.4-6.9-8.8-12.5-8.8z"/></g></g><g><g><path fill-rule="evenodd" clip-rule="evenodd" fill="#A27556" d="M19.4 129.5l.2-1.2c.8-5.2 2.8-8.4 5.3-8.4s4.5 3.2 5.3 8.4l.2 1.2h-11z"/></g><g><path fill="#4C4134" d="M24.9 121c2 0 3.6 3.1 4.3 7.5h-8.6c.7-4.4 2.4-7.5 4.3-7.5m0-2c-3 0-5.4 3.4-6.3 9.2l-.4 2.3h13.2l-.4-2.3c-.7-5.8-3-9.2-6.1-9.2z"/></g></g><g><g><path fill-rule="evenodd" clip-rule="evenodd" fill="#A27556" d="M69.4 129.5l.2-1.2c.8-5.2 2.8-8.4 5.3-8.4s4.5 3.2 5.3 8.4l.2 1.2h-11z"/></g><g><path fill="#4C4134" d="M74.9 121c2 0 3.6 3.1 4.3 7.5h-8.6c.7-4.4 2.4-7.5 4.3-7.5m0-2c-3.1 0-5.4 3.4-6.3 9.2l-.4 2.3h13.2l-.4-2.3c-.7-5.8-3-9.2-6.1-9.2z"/></g></g><g><g><path fill-rule="evenodd" clip-rule="evenodd" fill="#A27556" d="M119.4 129.5l.2-1.2c.8-5.2 2.8-8.4 5.3-8.4s4.5 3.2 5.3 8.4l.2 1.2h-11z"/></g><g><path fill="#4C4134" d="M124.9 121c2 0 3.6 3.1 4.3 7.5h-8.6c.7-4.4 2.4-7.5 4.3-7.5m0-2c-3 0-5.4 3.4-6.3 9.2l-.4 2.3h13.2l-.4-2.3c-.7-5.8-3-9.2-6.1-9.2z"/></g></g><g><path fill-rule="evenodd" clip-rule="evenodd" fill="#BBB" d="M23.4 129.5c-1.1 0-2-.5-2.7-1.5-1.2-1.7-1.6-4.8-.8-7.3l1-3 1 3c.5 1.7 2.7 3.2 4.3 4.3 1.7 1.2 2.8 2 2.4 3.1-.5 1.1-1.7 1.4-5.2 1.4z"/><path fill="#231F20" d="M20.8 121c1.5 4.7 12.5 7.5 2.5 7.5-2.6 0-3.5-4.4-2.5-7.5m0-6.5l-1.9 5.9c-.8 2.4-.7 6 .9 8.2.9 1.2 2.1 1.9 3.5 1.9 3.2 0 5.4-.1 6-2 .6-1.8-1-3-2.8-4.2-1.4-1-3.5-2.5-3.9-3.8l-1.8-6z"/></g><g><path fill-rule="evenodd" clip-rule="evenodd" fill="#BBB" d="M73.4 129.5c-1.1 0-2-.5-2.7-1.5-1.2-1.7-1.6-4.8-.8-7.3l1-3 1 3c.5 1.7 2.7 3.2 4.3 4.3 1.7 1.2 2.8 2 2.4 3.1-.5 1.1-1.7 1.4-5.2 1.4z"/><path fill="#231F20" d="M70.8 121c1.5 4.7 12.5 7.5 2.5 7.5-2.6 0-3.5-4.4-2.5-7.5m0-6.5l-1.9 5.9c-.9 2.8-.5 6.2.9 8.2.9 1.2 2.1 1.9 3.5 1.9 3.2 0 5.4-.1 6-2 .6-1.8-1-3-2.8-4.2-1.4-1-3.5-2.5-3.9-3.8l-1.8-6z"/></g><g><path fill-rule="evenodd" clip-rule="evenodd" fill="#BBB" d="M123.4 129.5c-1.1 0-2-.5-2.7-1.5-1.2-1.7-1.6-4.8-.8-7.3l1-3 1 3c.5 1.7 2.7 3.2 4.3 4.3 1.7 1.2 2.8 2 2.4 3.1-.5 1.1-1.7 1.4-5.2 1.4z"/><path fill="#231F20" d="M120.8 121c1.5 4.7 12.5 7.5 2.5 7.5-2.6 0-3.5-4.4-2.5-7.5m0-6.5l-1.9 5.9c-.8 2.4-.7 6 .9 8.2.9 1.2 2.1 1.9 3.5 1.9 3.2 0 5.4-.1 6-2 .6-1.8-1-3-2.8-4.2-1.4-1-3.5-2.5-3.9-3.8l-1.8-6z"/></g><g><g><path fill-rule="evenodd" clip-rule="evenodd" fill="#A27556" d="M19.4 179.5l.2-1.2c.8-5.2 2.8-8.4 5.3-8.4s4.5 3.2 5.3 8.4l.2 1.2h-11z"/></g><g><path fill="#4C4134" d="M24.9 171c2 0 3.6 3.1 4.3 7.5h-8.6c.7-4.4 2.4-7.5 4.3-7.5m0-2c-3 0-5.4 3.4-6.3 9.2l-.4 2.3h13.2l-.4-2.3c-.7-5.8-3-9.2-6.1-9.2z"/></g></g><g><g><path fill-rule="evenodd" clip-rule="evenodd" fill="#A27556" d="M69.4 179.5l.2-1.2c.8-5.2 2.8-8.4 5.3-8.4s4.5 3.2 5.3 8.4l.2 1.2h-11z"/></g><g><path fill="#4C4134" d="M74.9 171c2 0 3.6 3.1 4.3 7.5h-8.6c.7-4.4 2.4-7.5 4.3-7.5m0-2c-3 0-5.4 3.4-6.3 9.2l-.4 2.3h13.2l-.4-2.3c-.7-5.8-3-9.2-6.1-9.2z"/></g></g><g><g><path fill-rule="evenodd" clip-rule="evenodd" fill="#A27556" d="M119.4 179.5l.2-1.2c.8-5.2 2.8-8.4 5.3-8.4s4.5 3.2 5.3 8.4l.2 1.2h-11z"/></g><g><path fill="#4C4134" d="M124.9 171c2 0 3.6 3.1 4.3 7.5h-8.7c.8-4.4 2.5-7.5 4.4-7.5m0-2c-3 0-5.4 3.4-6.3 9.2l-.4 2.3h13.3l-.4-2.3c-.8-5.8-3.1-9.2-6.2-9.2z"/></g></g><g><path fill-rule="evenodd" clip-rule="evenodd" fill="#BBB" d="M26.5 179.5c-3.6 0-4.8-.3-5.1-1.3-.4-1.1.7-1.9 2.4-3.1 1.6-1.1 3.7-2.7 4.3-4.3l1-3 1 3c.8 2.5.5 5.6-.8 7.3-.8.9-1.7 1.4-2.8 1.4z"/><path fill="#231F20" d="M29 171c1 3 .1 7.5-2.5 7.5-10 0 1-2.7 2.5-7.5m0-6.5l-1.9 5.9c-.4 1.3-2.5 2.8-3.9 3.8-1.7 1.2-3.4 2.4-2.8 4.2.6 1.9 2.9 2 6 2 1.4 0 2.7-.7 3.5-1.9 1.4-2 1.8-5.4.9-8.2l-1.8-5.8z"/></g><g><path fill-rule="evenodd" clip-rule="evenodd" fill="#BBB" d="M76.5 179.5c-3.6 0-4.8-.3-5.1-1.3-.4-1.1.7-1.9 2.4-3.1 1.6-1.1 3.7-2.7 4.3-4.3l.9-3 1 3c.8 2.5.5 5.6-.8 7.3-.7.9-1.6 1.4-2.7 1.4z"/><path fill="#231F20" d="M79 171c1 3 .1 7.5-2.5 7.5-10 0 1-2.7 2.5-7.5m0-6.5l-1.9 5.9c-.4 1.3-2.5 2.8-3.9 3.8-1.7 1.2-3.3 2.4-2.8 4.2.6 1.9 2.9 2 6 2 1.4 0 2.7-.7 3.5-1.9 1.4-2 1.8-5.4.9-8.2l-1.8-5.8z"/></g><g><path fill-rule="evenodd" clip-rule="evenodd" fill="#BBB" d="M126.5 179.5c-3.6 0-4.8-.3-5.1-1.3-.4-1.1.7-1.9 2.4-3.1 1.6-1.1 3.7-2.7 4.3-4.3l.9-3 1 3c.8 2.5.5 5.6-.8 7.3-.7.9-1.6 1.4-2.7 1.4z"/><path fill="#231F20" d="M129 171c1 3 .1 7.5-2.5 7.5-10 0 1-2.7 2.5-7.5m0-6.5l-1.9 5.9c-.4 1.3-2.5 2.8-3.9 3.8-1.7 1.2-3.3 2.4-2.8 4.2.6 1.9 2.9 2 6 2 1.4 0 2.7-.7 3.5-1.9 1.4-2 1.8-5.4.9-8.2l-1.8-5.8z"/></g></svg>