<svg version="1.1" id="Layer_3" xmlns="http://www.w3.org/2000/svg" x="0" y="0" width="150" height="250" viewBox="0 0 150 250" xml:space="preserve"><g><path fill-rule="evenodd" clip-rule="evenodd" fill="#6B60A7" d="M6.3 22.7c.5-1.6 2.3-2.2 4-2.9 1.4-.5 2.8-1.1 3.1-2 .4-1.3 1.7-4.2 4-5.9-1.6-2-2.1-3.5-.8-5.5h-.2c-2.3 0-3.5-.4-4-1.2-.3-.5-.3-1 0-1.5.2-.4.8-1 1.4-1h.2l.3.1c1 .3 1.7.6 2.4.6.4 0 .9-.1 1.8-.7.7-.5 1.5-.7 2.2-.7 1.9 0 3.2 1.7 4.3 3.2.6.9 1.3 1.8 2 2.2 6.4.3 7.1 1.2 8.4 5.8.3 1.1.7 2.5 1.2 4.1.3.9 1.7 1.4 3.1 2 1.7.6 3.5 1.3 4 2.9l.6 1.8-1.8-.6c-3.2-1-8.9-1.6-15.5-1.6-7.7 0-15.3.8-19.3 2.1l-1.8.6.4-1.8z"/><path fill="#413968" d="M20.7 3.1c2.5 0 3.8 4.3 6 5.4 8.1.4 6.2 1.4 8.9 9.2.9 2.6 6.4 2.5 7.1 4.8-3.6-1.1-9.6-1.7-15.8-1.7-7.5 0-15.3.8-19.6 2.1.7-2.3 6.2-2.2 7.1-4.8.7-1.9 2.1-4.8 4.5-6-2.3-2.7-3-4-.1-6.9-1 .1-1.8.1-2.5.1-4.8 0-2.8-1.7-2.6-1.7 1.2.4 2.1.7 2.9.7.7 0 1.5-.2 2.3-.8.8-.3 1.3-.4 1.8-.4m0-2c-.9 0-1.8.3-2.7.9-.6.4-1 .5-1.2.5-.5 0-1.2-.2-2.1-.5l-.2-.1-.3-.1h-.3c-1.3 0-2.6 1.4-2.6 2.8 0 .4.1 1.8 2 2.5.5.2 1.2.3 2 .4-.5 1.6 0 3 1 4.4-2 1.9-3.1 4.5-3.5 5.7-.2.4-1.7 1-2.6 1.3-1.8.7-3.9 1.5-4.6 3.5L4.2 26l3.7-1.2c3.9-1.2 11.3-2 19-2 6.5 0 12.1.6 15.2 1.6l3.7 1.2-1.2-3.7c-.6-2-2.7-2.8-4.6-3.5-.8-.3-2.4-.9-2.6-1.3-.6-1.6-.9-3-1.2-4.1-1.3-4.9-2.3-6.1-9-6.5-.5-.4-1-1.1-1.5-1.8-1.1-1.6-2.6-3.6-5-3.6z"/></g><g><path fill-rule="evenodd" clip-rule="evenodd" fill="#6B60A7" d="M6.3 122.7c.5-1.6 2.3-2.2 4-2.9 1.4-.5 2.8-1.1 3.1-1.9.4-1.3 1.7-4.2 4-5.9-1.6-2-2.1-3.5-.8-5.5h-.3c-2.3 0-3.5-.4-4-1.2-.3-.5-.3-1 0-1.5.2-.4.8-1 1.4-1h.4l.3.1c1 .3 1.7.6 2.4.6.4 0 .9-.1 1.8-.7.7-.5 1.4-.7 2.2-.7 1.9 0 3.2 1.7 4.3 3.2.6.9 1.3 1.8 2 2.2 6.4.3 7.1 1.2 8.4 5.8.3 1.1.7 2.5 1.2 4.1.3.9 1.7 1.4 3.1 1.9 1.7.6 3.5 1.3 4 2.9l.6 1.8-1.8-.6c-3.2-1-8.9-1.6-15.5-1.6-7.7 0-15.3.8-19.3 2.1l-1.8.6.3-1.8z"/><path fill="#413968" d="M20.7 103.1c2.5 0 3.8 4.3 6 5.4 8.1.4 6.2 1.4 8.9 9.2.9 2.6 6.4 2.5 7.1 4.8-3.6-1.1-9.6-1.7-15.8-1.7-7.5 0-15.3.8-19.6 2.1.7-2.3 6.2-2.2 7.1-4.8.7-1.9 2.1-4.8 4.5-6-2.3-2.7-3-4-.1-6.9-1 .1-1.8.1-2.5.1-4.8 0-2.8-1.7-2.6-1.7 1.2.4 2.1.7 2.9.7.7 0 1.5-.2 2.3-.8.8-.3 1.3-.4 1.8-.4m0-2c-.9 0-1.8.3-2.7.9-.6.4-1 .5-1.2.5-.5 0-1.2-.2-2.1-.5l-.2-.1-.3-.1h-.3c-1.3 0-2.6 1.4-2.6 2.8 0 .4.1 1.8 2 2.5.5.2 1.2.3 2 .4-.5 1.6 0 3 1 4.4-2 1.9-3.1 4.5-3.5 5.7-.2.4-1.7 1-2.6 1.3-1.8.7-3.9 1.5-4.6 3.5L4.2 126l3.7-1.2c3.9-1.2 11.3-2 19-2 6.5 0 12.1.6 15.2 1.6l3.7 1.2-1.2-3.7c-.6-2-2.7-2.8-4.6-3.5-.8-.3-2.4-.9-2.6-1.3-.6-1.6-.9-3-1.2-4.1-1.3-4.9-2.3-6.1-9-6.5-.5-.4-1-1.1-1.5-1.8-1.1-1.6-2.6-3.6-5-3.6z"/></g><g><path fill-rule="evenodd" clip-rule="evenodd" fill="#6B60A7" d="M6.3 222.7c.5-1.6 2.3-2.2 4-2.9 1.4-.5 2.8-1.1 3.1-2 .4-1.3 1.7-4.2 4-5.9-1.6-2-2.1-3.5-.8-5.5h-.3c-2.3 0-3.5-.4-4-1.2-.3-.5-.3-1 0-1.5.2-.4.8-1 1.4-1h.3l.3.1c1 .3 1.7.6 2.4.6.4 0 .9-.1 1.8-.7.7-.5 1.4-.7 2.2-.7 1.9 0 3.2 1.7 4.3 3.2.6.9 1.3 1.8 2 2.2 6.4.3 7.1 1.2 8.4 5.8.3 1.1.7 2.5 1.2 4.1.3.9 1.7 1.4 3.1 2 1.7.6 3.5 1.3 4 2.9l.6 1.8-1.8-.6c-3.2-1-8.9-1.6-15.5-1.6-7.7 0-15.3.8-19.3 2.1l-1.8.6.4-1.8z"/><path fill="#413968" d="M20.7 203.1c2.5 0 3.8 4.3 6 5.4 8.1.4 6.2 1.4 8.9 9.2.9 2.6 6.4 2.5 7.1 4.8-3.6-1.1-9.6-1.7-15.8-1.7-7.5 0-15.3.8-19.6 2.1.7-2.3 6.2-2.2 7.1-4.8.7-1.9 2.1-4.8 4.5-6-2.3-2.7-3-4-.1-6.9-1 .1-1.8.1-2.5.1-4.8 0-2.8-1.7-2.6-1.7 1.2.4 2.1.7 2.9.7.7 0 1.5-.2 2.3-.8.8-.3 1.3-.4 1.8-.4m0-2c-.9 0-1.8.3-2.7.9-.6.4-1 .5-1.2.5-.5 0-1.2-.2-2.1-.5l-.2-.1-.3-.1h-.3c-1.3 0-2.6 1.4-2.6 2.8 0 .4.1 1.8 2 2.5.5.2 1.2.3 2 .4-.5 1.6 0 3 1 4.4-2 1.9-3.1 4.5-3.5 5.7-.2.4-1.7 1-2.6 1.3-1.8.7-3.9 1.5-4.6 3.5L4.2 226l3.7-1.2c3.9-1.2 11.3-2 19-2 6.5 0 12.1.6 15.2 1.6l3.7 1.2-1.2-3.7c-.6-2-2.7-2.8-4.6-3.5-.8-.3-2.4-.9-2.6-1.3-.6-1.6-.9-3-1.2-4.1-1.3-4.9-2.3-6.1-9-6.5-.5-.4-1-1.1-1.5-1.8-1.1-1.6-2.6-3.6-5-3.6z"/></g><g><path fill-rule="evenodd" clip-rule="evenodd" fill="#6B60A7" d="M56.3 22.7c.5-1.6 2.3-2.2 4-2.9 1.4-.5 2.8-1.1 3.1-2 .4-1.3 1.7-4.2 4-5.9-1.6-2-2.1-3.5-.8-5.5h-.2c-2.3 0-3.5-.4-4-1.2-.3-.5-.3-1 0-1.5.2-.4.8-1 1.4-1h.3l.3.1c1 .3 1.7.6 2.4.6.4 0 .9-.1 1.8-.7.7-.5 1.5-.7 2.2-.7 1.9 0 3.2 1.7 4.3 3.2.6.9 1.3 1.8 2 2.2 6.4.3 7.1 1.2 8.4 5.8.3 1.1.7 2.5 1.2 4.1.3.9 1.7 1.4 3.1 2 1.7.6 3.5 1.3 4 2.9l.6 1.8-1.8-.6c-3.2-1-8.9-1.6-15.5-1.6-7.7 0-15.3.8-19.3 2.1l-1.8.6.3-1.8z"/><path fill="#413968" d="M70.7 3.1c2.5 0 3.8 4.3 6 5.4 8.1.4 6.2 1.4 8.9 9.2.9 2.6 6.4 2.5 7.1 4.8-3.6-1.1-9.6-1.7-15.8-1.7-7.5 0-15.3.8-19.6 2.1.7-2.3 6.2-2.2 7.1-4.8.7-1.9 2.1-4.8 4.5-6-2.3-2.7-3-4-.1-6.9-1 .1-1.8.1-2.5.1-4.8 0-2.8-1.7-2.6-1.7 1.2.4 2.1.7 2.9.7.7 0 1.5-.2 2.3-.8.8-.3 1.3-.4 1.8-.4m0-2c-.9 0-1.8.3-2.7.9-.6.4-1 .5-1.2.5-.5 0-1.2-.2-2.1-.5l-.2-.1-.3-.1h-.3c-1.3 0-2.6 1.4-2.6 2.8 0 .4.1 1.8 2 2.5.5.2 1.2.3 2 .4-.5 1.6 0 3 1 4.4-2 1.9-3.1 4.5-3.5 5.7-.2.4-1.7 1-2.6 1.3-1.8.7-3.9 1.5-4.6 3.5L54.2 26l3.7-1.2c3.9-1.2 11.3-2 19-2 6.5 0 12.1.6 15.2 1.6l3.7 1.2-1.2-3.7c-.6-2-2.7-2.8-4.6-3.5-.8-.3-2.4-.9-2.6-1.3-.6-1.6-.9-3-1.2-4.1-1.3-4.9-2.3-6.1-9-6.5-.5-.4-1-1.1-1.5-1.8-1.1-1.6-2.6-3.6-5-3.6z"/></g><g><path fill-rule="evenodd" clip-rule="evenodd" fill="#6B60A7" d="M56.3 122.7c.5-1.6 2.3-2.2 4-2.9 1.4-.5 2.8-1.1 3.1-1.9.4-1.3 1.7-4.2 4-5.9-1.6-2-2.1-3.5-.8-5.5h-.3c-2.3 0-3.5-.4-4-1.2-.3-.5-.3-1 0-1.5.2-.4.8-1 1.4-1h.2l.4.1c1 .3 1.7.6 2.4.6.4 0 .9-.1 1.8-.7.7-.5 1.5-.7 2.2-.7 1.9 0 3.2 1.7 4.3 3.2.6.9 1.3 1.8 2 2.2 6.4.3 7.1 1.2 8.4 5.8.3 1.1.7 2.5 1.2 4.1.3.9 1.7 1.4 3.1 1.9 1.7.6 3.5 1.3 4 2.9l.6 1.8-1.8-.6c-3.2-1-8.9-1.6-15.5-1.6-7.7 0-15.3.8-19.3 2.1l-1.8.6.4-1.8z"/><path fill="#413968" d="M70.7 103.1c2.5 0 3.8 4.3 6 5.4 8.1.4 6.2 1.4 8.9 9.2.9 2.6 6.4 2.5 7.1 4.8-3.6-1.1-9.6-1.7-15.8-1.7-7.5 0-15.3.8-19.6 2.1.7-2.3 6.2-2.2 7.1-4.8.7-1.9 2.1-4.8 4.5-6-2.3-2.7-3-4-.1-6.9-1 .1-1.8.1-2.5.1-4.8 0-2.8-1.7-2.6-1.7 1.2.4 2.1.7 2.9.7.7 0 1.5-.2 2.3-.8.8-.3 1.3-.4 1.8-.4m0-2c-.9 0-1.8.3-2.7.9-.6.4-1 .5-1.2.5-.5 0-1.2-.2-2.1-.5l-.2-.1-.3-.1h-.3c-1.3 0-2.6 1.4-2.6 2.8 0 .4.1 1.8 2 2.5.5.2 1.2.3 2 .4-.5 1.6 0 3 1 4.4-2 1.9-3.1 4.5-3.5 5.7-.2.4-1.7 1-2.6 1.3-1.8.7-3.9 1.5-4.6 3.5l-1.2 3.7 3.7-1.2c3.9-1.2 11.3-2 19-2 6.5 0 12.1.6 15.2 1.6l3.7 1.2-1.2-3.7c-.6-2-2.7-2.8-4.6-3.5-.8-.3-2.4-.9-2.6-1.3-.6-1.6-.9-3-1.2-4.1-1.3-4.9-2.3-6.1-9-6.5-.5-.4-1-1.1-1.5-1.8-1.3-1.7-2.8-3.7-5.2-3.7z"/></g><g><path fill-rule="evenodd" clip-rule="evenodd" fill="#6B60A7" d="M56.3 222.7c.5-1.6 2.3-2.2 4-2.9 1.4-.5 2.8-1.1 3.1-2 .4-1.3 1.7-4.2 4-5.9-1.6-2-2.1-3.5-.8-5.5h-.3c-2.3 0-3.5-.4-4-1.2-.3-.5-.3-1 0-1.5.2-.4.8-1 1.4-1h.3l.3.1c1 .3 1.7.6 2.4.6.4 0 .9-.1 1.8-.7.7-.5 1.5-.7 2.2-.7 1.9 0 3.2 1.7 4.3 3.2.6.9 1.3 1.8 2 2.2 6.4.3 7.1 1.2 8.4 5.8.3 1.1.7 2.5 1.2 4.1.3.9 1.7 1.4 3.1 2 1.7.6 3.5 1.3 4 2.9l.6 1.8-1.8-.6c-3.2-1-8.9-1.6-15.5-1.6-7.7 0-15.3.8-19.3 2.1l-1.8.6.4-1.8z"/><path fill="#413968" d="M70.7 203.1c2.5 0 3.8 4.3 6 5.4 8.1.4 6.2 1.4 8.9 9.2.9 2.6 6.4 2.5 7.1 4.8-3.6-1.1-9.6-1.7-15.8-1.7-7.5 0-15.3.8-19.6 2.1.7-2.3 6.2-2.2 7.1-4.8.7-1.9 2.1-4.8 4.5-6-2.3-2.7-3-4-.1-6.9-1 .1-1.8.1-2.5.1-4.8 0-2.8-1.7-2.6-1.7 1.2.4 2.1.7 2.9.7.7 0 1.5-.2 2.3-.8.8-.3 1.3-.4 1.8-.4m0-2c-.9 0-1.8.3-2.7.9-.6.4-1 .5-1.2.5-.5 0-1.2-.2-2.1-.5l-.2-.1-.3-.1h-.3c-1.3 0-2.6 1.4-2.6 2.8 0 .4.1 1.8 2 2.5.5.2 1.2.3 2 .4-.5 1.6 0 3 1 4.4-2 1.9-3.1 4.5-3.5 5.7-.2.4-1.7 1-2.6 1.3-1.8.7-3.9 1.5-4.6 3.5l-1.2 3.7 3.7-1.2c3.9-1.2 11.3-2 19-2 6.5 0 12.1.6 15.2 1.6l3.7 1.2-1.2-3.7c-.6-2-2.7-2.8-4.6-3.5-.8-.3-2.4-.9-2.6-1.3-.6-1.6-.9-3-1.2-4.1-1.3-4.9-2.3-6.1-9-6.5-.5-.4-1-1.1-1.5-1.8-1.3-1.7-2.8-3.7-5.2-3.7z"/></g><g><path fill-rule="evenodd" clip-rule="evenodd" fill="#6B60A7" d="M106.4 22.7c.5-1.6 2.3-2.2 4-2.9 1.4-.5 2.8-1.1 3.1-2 .4-1.3 1.7-4.2 4-5.9-1.6-2-2.1-3.5-.8-5.5h-.2c-2.3 0-3.5-.4-4-1.2-.3-.5-.3-1 0-1.5.2-.4.8-1 1.4-1h.2l.3.1c1 .3 1.7.6 2.4.6.4 0 .9-.1 1.8-.7.7-.5 1.5-.7 2.2-.7 1.9 0 3.2 1.7 4.3 3.2.7.9 1.3 1.8 2 2.2 6.4.3 7.1 1.2 8.4 5.8.3 1.1.7 2.5 1.2 4.1.3.9 1.7 1.4 3.1 2 1.7.6 3.5 1.3 4 2.9l.6 1.8-1.8-.6c-3.2-1-8.9-1.6-15.5-1.6-7.7 0-15.3.8-19.3 2.1l-1.8.6.4-1.8z"/><path fill="#413968" d="M120.7 3.1c2.5 0 3.8 4.3 6 5.4 8.1.4 6.2 1.4 8.9 9.2.9 2.6 6.4 2.5 7.1 4.8-3.6-1.1-9.6-1.7-15.8-1.7-7.5 0-15.3.8-19.6 2.1.7-2.3 6.2-2.2 7.1-4.8.7-1.9 2.1-4.8 4.5-6-2.3-2.7-3-4-.1-6.9-1 .1-1.8.1-2.5.1-4.8 0-2.8-1.7-2.6-1.7 1.2.4 2.1.7 2.9.7.7 0 1.5-.2 2.3-.8.8-.3 1.3-.4 1.8-.4m0-2c-.9 0-1.8.3-2.7.9-.6.4-1 .5-1.2.5-.5 0-1.2-.2-2.1-.5l-.2-.1-.3-.1h-.3c-1.3 0-2.6 1.4-2.6 2.8 0 .4.1 1.8 2 2.5.5.2 1.2.3 2 .4-.5 1.6 0 3 1 4.4-2 1.9-3.1 4.5-3.5 5.7-.2.4-1.7 1-2.6 1.3-1.8.7-3.9 1.5-4.6 3.5l-1.2 3.7 3.7-1.2c3.9-1.2 11.3-2 19-2 6.5 0 12.1.6 15.2 1.6l3.7 1.2-1.2-3.7c-.6-2-2.7-2.8-4.6-3.5-.8-.3-2.4-.9-2.6-1.3-.6-1.6-.9-3-1.2-4.1-1.3-4.9-2.3-6.1-9-6.5-.5-.4-1-1.1-1.5-1.8-1.3-1.7-2.8-3.7-5.2-3.7z"/></g><g><path fill-rule="evenodd" clip-rule="evenodd" fill="#6B60A7" d="M106.4 122.7c.5-1.6 2.3-2.2 4-2.9 1.4-.5 2.8-1.1 3.1-1.9.4-1.3 1.7-4.2 4-5.9-1.6-2-2.1-3.5-.8-5.5h-.3c-2.3 0-3.5-.4-4-1.2-.3-.5-.3-1 0-1.5.2-.4.8-1 1.4-1h.4l.3.1c1 .3 1.7.6 2.4.6.4 0 .9-.1 1.8-.7.7-.5 1.5-.7 2.2-.7 1.9 0 3.2 1.7 4.3 3.2.6.9 1.3 1.8 2 2.2 6.4.3 7.1 1.2 8.4 5.8.3 1.1.7 2.5 1.2 4.1.3.9 1.7 1.4 3.1 1.9 1.7.6 3.5 1.3 4 2.9l.6 1.8-1.8-.6c-3.2-1-8.9-1.6-15.5-1.6-7.7 0-15.3.8-19.3 2.1l-1.8.6.3-1.8z"/><path fill="#413968" d="M120.7 103.1c2.5 0 3.8 4.3 6 5.4 8.1.4 6.2 1.4 8.9 9.2.9 2.6 6.4 2.5 7.1 4.8-3.6-1.1-9.6-1.7-15.8-1.7-7.5 0-15.3.8-19.6 2.1.7-2.3 6.2-2.2 7.1-4.8.7-1.9 2.1-4.8 4.5-6-2.3-2.7-3-4-.1-6.9-1 .1-1.8.1-2.5.1-4.8 0-2.8-1.7-2.6-1.7 1.2.4 2.1.7 2.9.7.7 0 1.5-.2 2.3-.8.8-.3 1.3-.4 1.8-.4m0-2c-.9 0-1.8.3-2.7.9-.6.4-1 .5-1.2.5-.5 0-1.2-.2-2.1-.5l-.2-.1-.3-.1h-.3c-1.3 0-2.6 1.4-2.6 2.8 0 .4.1 1.8 2 2.5.5.2 1.2.3 2 .4-.5 1.6 0 3 1 4.4-2 1.9-3.1 4.5-3.5 5.7-.2.4-1.7 1-2.6 1.3-1.8.7-3.9 1.5-4.6 3.5l-1.2 3.7 3.7-1.2c3.9-1.2 11.3-2 19-2 6.5 0 12.1.6 15.2 1.6l3.7 1.2-1.2-3.7c-.6-2-2.7-2.8-4.6-3.5-.8-.3-2.4-.9-2.5-1.3-.6-1.6-.9-3-1.2-4.1-1.3-4.9-2.3-6.1-9-6.5-.5-.4-1-1.1-1.5-1.8-1.4-1.7-2.9-3.7-5.3-3.7z"/></g><g><path fill-rule="evenodd" clip-rule="evenodd" fill="#6B60A7" d="M106.4 222.7c.5-1.6 2.3-2.2 4-2.9 1.4-.5 2.8-1.1 3.1-2 .4-1.3 1.7-4.2 4-5.9-1.6-2-2.1-3.5-.8-5.5h-.3c-2.3 0-3.5-.4-4-1.2-.3-.5-.3-1 0-1.5.2-.4.8-1 1.4-1h.3l.3.1c1 .3 1.7.6 2.4.6.4 0 .9-.1 1.8-.7.7-.5 1.5-.7 2.2-.7 1.9 0 3.2 1.7 4.3 3.2.6.9 1.3 1.8 2 2.2 6.4.3 7.1 1.2 8.4 5.8.3 1.1.7 2.5 1.2 4.1.3.9 1.7 1.4 3.1 2 1.7.6 3.5 1.3 4 2.9l.6 1.8-1.8-.6c-3.2-1-8.9-1.6-15.5-1.6-7.7 0-15.3.8-19.3 2.1l-1.8.6.4-1.8z"/><path fill="#413968" d="M120.7 203.1c2.5 0 3.8 4.3 6 5.4 8.1.4 6.2 1.4 8.9 9.2.9 2.6 6.4 2.5 7.1 4.8-3.6-1.1-9.6-1.7-15.8-1.7-7.5 0-15.3.8-19.6 2.1.7-2.3 6.2-2.2 7.1-4.8.7-1.9 2.1-4.8 4.5-6-2.3-2.7-3-4-.1-6.9-1 .1-1.8.1-2.5.1-4.8 0-2.8-1.7-2.6-1.7 1.2.4 2.1.7 2.9.7.7 0 1.5-.2 2.3-.8.8-.3 1.3-.4 1.8-.4m0-2c-.9 0-1.8.3-2.7.9-.6.4-1 .5-1.2.5-.5 0-1.2-.2-2.1-.5l-.2-.1-.3-.1h-.3c-1.3 0-2.6 1.4-2.6 2.8 0 .4.1 1.8 2 2.5.5.2 1.2.3 2 .4-.5 1.6 0 3 1 4.4-2 1.9-3.1 4.5-3.5 5.7-.2.4-1.7 1-2.6 1.3-1.8.7-3.9 1.5-4.6 3.5l-1.2 3.7 3.7-1.2c3.9-1.2 11.3-2 19-2 6.5 0 12.1.6 15.2 1.6l3.7 1.2-1.2-3.7c-.6-2-2.7-2.8-4.6-3.5-.8-.3-2.4-.9-2.6-1.3-.6-1.6-.9-3-1.2-4.1-1.3-4.9-2.3-6.1-9-6.5-.5-.4-1-1.1-1.5-1.8-1.3-1.7-2.8-3.7-5.2-3.7z"/></g><g><path fill-rule="evenodd" clip-rule="evenodd" fill="#6B60A7" d="M42.4 73.9c-4-1.3-11.6-2.1-19.3-2.1-6.6 0-12.3.6-15.5 1.6l-1.8.6.6-1.8c.5-1.6 2.3-2.2 4-2.9 1.4-.5 2.8-1.1 3.1-1.9.6-1.7 1-3 1.2-4.1 1.2-4.6 2-5.5 8.4-5.8.7-.4 1.3-1.3 2-2.2 1.1-1.5 2.4-3.2 4.3-3.2.7 0 1.4.2 2.1.7.9.6 1.4.7 1.8.7.7 0 1.4-.3 2.4-.6l.4-.1h.2c.7 0 1.6.9 1.6 1.8 0 .3-.1 1.1-1.3 1.6-.7.2-1.6.3-2.9.3h-.2c1.3 2 .8 3.6-.8 5.5 2.3 1.7 3.5 4.6 4 5.9.3.9 1.7 1.4 3.1 1.9 1.7.6 3.5 1.3 4 2.9l.6 1.8-2-.6z"/><path fill="#413968" d="M29.3 53.1c.5 0 1 .2 1.6.6.9.6 1.6.8 2.3.8.9 0 1.8-.3 2.9-.7.2 0 2.3 1.7-2.6 1.7-.7 0-1.5 0-2.5-.1 2.9 2.9 2.3 4.2-.1 6.9 2.4 1.2 3.8 4.1 4.5 6 .9 2.6 6.4 2.5 7.1 4.8-4.3-1.4-12.1-2.1-19.6-2.1-6.2 0-12.2.5-15.8 1.7.7-2.3 6.2-2.2 7.1-4.8 2.7-7.8.8-8.9 8.9-9.2 2.4-1.3 3.8-5.6 6.2-5.6m0-2c-2.4 0-3.9 2-5.1 3.6-.5.6-1.1 1.4-1.5 1.8-6.6.4-7.7 1.6-9 6.5-.3 1.1-.7 2.4-1.2 4.1-.2.4-1.7 1-2.6 1.3-1.8.7-3.9 1.5-4.6 3.5l-1.2 3.7 3.7-1.2c3.1-1 8.7-1.6 15.2-1.6 7.6 0 15.1.8 19 2l3.7 1.2-1.2-3.7c-.6-2-2.7-2.8-4.6-3.5-.8-.3-2.4-.9-2.6-1.3-.4-1.2-1.5-3.8-3.5-5.7 1-1.4 1.5-2.8 1-4.4 1.7-.1 3.9-.7 3.9-2.9 0-1.4-1.3-2.8-2.6-2.8h-.3l-.3.1-.3.1c-.9.3-1.6.5-2.1.5-.3 0-.6-.1-1.2-.5-.8-.5-1.7-.8-2.6-.8z"/></g><g><path fill-rule="evenodd" clip-rule="evenodd" fill="#6B60A7" d="M42.4 173.9c-4-1.3-11.5-2.1-19.3-2.1-6.6 0-12.3.6-15.5 1.6l-1.8.6.6-1.8c.5-1.6 2.3-2.2 4-2.9 1.4-.5 2.8-1.1 3.1-2 .6-1.7 1-3 1.2-4.1 1.2-4.6 2-5.5 8.4-5.8.7-.4 1.3-1.3 2-2.2 1.1-1.5 2.4-3.2 4.3-3.2.7 0 1.4.2 2.1.7.9.6 1.4.7 1.8.7.7 0 1.4-.3 2.4-.6l.4-.1h.2c.7 0 1.6.9 1.6 1.8 0 .3-.1 1.1-1.3 1.6-.7.2-1.6.3-2.9.3h-.3c1.3 2 .8 3.6-.8 5.5 2.3 1.7 3.5 4.6 4 5.9.3.9 1.7 1.4 3.1 2 1.7.6 3.5 1.3 4 2.9l.6 1.8-1.9-.6z"/><path fill="#413968" d="M29.3 153.1c.5 0 1 .2 1.6.6.9.6 1.6.8 2.3.8.9 0 1.8-.3 2.9-.7.2 0 2.3 1.7-2.6 1.7-.7 0-1.5 0-2.5-.1 2.9 2.9 2.3 4.2-.1 6.9 2.4 1.2 3.8 4.1 4.5 6 .9 2.6 6.4 2.5 7.1 4.8-4.3-1.4-12.1-2.1-19.6-2.1-6.2 0-12.2.5-15.8 1.7.7-2.3 6.2-2.2 7.1-4.8 2.7-7.8.8-8.9 8.9-9.2 2.4-1.3 3.8-5.6 6.2-5.6m0-2c-2.4 0-3.9 2-5.1 3.6-.5.6-1.1 1.4-1.5 1.8-6.6.4-7.7 1.6-9 6.5-.3 1.1-.7 2.4-1.2 4.1-.2.4-1.7 1-2.6 1.3-1.8.7-3.9 1.5-4.6 3.5l-1.2 3.7 3.7-1.2c3.1-1 8.7-1.6 15.2-1.6 7.6 0 15.1.8 19 2l3.7 1.2-1.2-3.7c-.6-2-2.7-2.8-4.6-3.5-.8-.3-2.4-.9-2.6-1.3-.4-1.2-1.5-3.8-3.5-5.7 1-1.4 1.5-2.8 1-4.4 1.6-.1 3.9-.7 3.9-2.9 0-1.4-1.3-2.8-2.6-2.8h-.3l-.3.1-.2.1c-.9.3-1.6.5-2.1.5-.3 0-.6-.1-1.2-.5-.9-.5-1.8-.8-2.7-.8z"/></g><g><path fill-rule="evenodd" clip-rule="evenodd" fill="#6B60A7" d="M92.4 73.9c-4-1.3-11.6-2.1-19.3-2.1-6.6 0-12.3.6-15.5 1.6l-1.8.6.6-1.8c.5-1.6 2.3-2.2 4-2.9 1.4-.5 2.8-1.1 3.1-1.9.6-1.7 1-3 1.2-4.1 1.2-4.6 2-5.5 8.4-5.8.7-.4 1.3-1.3 2-2.2 1.1-1.5 2.4-3.2 4.3-3.2.7 0 1.4.2 2.1.7.9.6 1.4.7 1.8.7.7 0 1.4-.3 2.4-.6l.4-.1h.2c.7 0 1.6.9 1.6 1.8 0 .3-.1 1.1-1.3 1.6-.7.2-1.6.3-2.9.3h-.2c1.3 2 .8 3.6-.8 5.5 2.3 1.7 3.5 4.6 4 5.9.3.9 1.7 1.4 3.1 2 1.7.6 3.5 1.3 4 2.9l.6 1.8-2-.7z"/><path fill="#413968" d="M79.3 53.1c.5 0 1 .2 1.6.6.9.6 1.6.8 2.3.8.9 0 1.8-.3 2.9-.7.2 0 2.3 1.7-2.6 1.7-.7 0-1.5 0-2.5-.1 2.9 2.9 2.3 4.2-.1 6.9 2.4 1.2 3.8 4.1 4.5 6 .9 2.6 6.4 2.5 7.1 4.8-4.3-1.4-12.1-2.1-19.6-2.1-6.2 0-12.2.5-15.8 1.7.7-2.3 6.2-2.2 7.1-4.8 2.7-7.8.8-8.9 8.9-9.2 2.4-1.3 3.8-5.6 6.2-5.6m0-2c-2.4 0-3.9 2-5.1 3.6-.5.6-1.1 1.4-1.5 1.8-6.6.4-7.7 1.6-9 6.5-.3 1.1-.7 2.4-1.2 4.1-.2.4-1.7 1-2.6 1.3-1.8.7-3.9 1.5-4.6 3.5l-1.2 3.7 3.7-1.2c3.1-1 8.7-1.6 15.2-1.6 7.6 0 15.1.8 19 2l3.7 1.2-1.2-3.7c-.6-2-2.7-2.8-4.6-3.5-.8-.3-2.4-.9-2.6-1.3-.4-1.2-1.5-3.8-3.5-5.7 1-1.4 1.5-2.8 1-4.4 1.7-.1 3.9-.7 3.9-2.9 0-1.4-1.3-2.8-2.6-2.8h-.3l-.3.1-.3.1c-.9.3-1.6.5-2.1.5-.3 0-.6-.1-1.2-.5-.8-.5-1.7-.8-2.6-.8z"/></g><g><path fill-rule="evenodd" clip-rule="evenodd" fill="#6B60A7" d="M92.4 173.9c-4-1.3-11.5-2.1-19.3-2.1-6.6 0-12.3.6-15.5 1.6l-1.8.6.6-1.8c.5-1.6 2.3-2.2 4-2.9 1.4-.5 2.8-1.1 3.1-2 .6-1.7 1-3 1.2-4.1 1.2-4.6 2-5.5 8.4-5.8.7-.4 1.3-1.3 2-2.2 1.1-1.5 2.4-3.2 4.3-3.2.7 0 1.4.2 2.1.7.9.6 1.4.7 1.8.7.7 0 1.4-.3 2.4-.6l.4-.1h.2c.7 0 1.6.9 1.6 1.8 0 1.9-3.1 1.9-4.2 1.9h-.3c1.3 2 .8 3.6-.8 5.5 2.3 1.7 3.5 4.6 4 5.9.3.9 1.7 1.4 3.1 2 1.7.6 3.5 1.3 4 2.9l.6 1.8-1.9-.6z"/><path fill="#413968" d="M79.3 153.1c.5 0 1 .2 1.6.6.9.6 1.6.8 2.3.8.9 0 1.8-.3 2.9-.7.2 0 2.3 1.7-2.6 1.7-.7 0-1.5 0-2.5-.1 2.9 2.9 2.3 4.2-.1 6.9 2.4 1.2 3.8 4.1 4.5 6 .9 2.6 6.4 2.5 7.1 4.8-4.3-1.4-12.1-2.1-19.6-2.1-6.2 0-12.2.5-15.8 1.7.7-2.3 6.2-2.2 7.1-4.8 2.7-7.8.8-8.9 8.9-9.2 2.4-1.3 3.8-5.6 6.2-5.6m0-2c-2.4 0-3.9 2-5.1 3.6-.5.6-1.1 1.4-1.5 1.8-6.6.4-7.7 1.6-9 6.5-.3 1.1-.7 2.4-1.2 4.1-.2.4-1.7 1-2.6 1.3-1.8.7-3.9 1.5-4.6 3.5l-1.2 3.7 3.7-1.2c3.1-1 8.7-1.6 15.2-1.6 7.6 0 15.1.8 19 2l3.7 1.2-1.2-3.7c-.6-2-2.7-2.8-4.6-3.5-.8-.3-2.4-.9-2.6-1.3-.4-1.2-1.5-3.8-3.5-5.7.9-1.4 1.5-2.8 1-4.4 1.6-.1 3.9-.7 3.9-2.9 0-1.4-1.3-2.8-2.6-2.8h-.3l-.3.1-.2.1c-.9.3-1.6.5-2.1.5-.3 0-.6-.1-1.2-.5-.9-.5-1.8-.8-2.7-.8z"/></g><g><path fill-rule="evenodd" clip-rule="evenodd" fill="#6B60A7" d="M142.4 73.9c-4-1.3-11.6-2.1-19.3-2.1-6.6 0-12.3.6-15.5 1.6l-1.8.6.6-1.8c.5-1.6 2.3-2.2 4-2.9 1.4-.5 2.8-1.1 3.1-1.9.6-1.7.9-3 1.2-4.1 1.2-4.6 2-5.5 8.4-5.8.7-.4 1.3-1.3 2-2.2 1.1-1.5 2.4-3.2 4.3-3.2.7 0 1.4.2 2.1.7.9.6 1.4.7 1.8.7.7 0 1.4-.3 2.4-.6l.4-.1h.2c.7 0 1.6.9 1.6 1.8 0 .3-.1 1.1-1.3 1.6-.7.2-1.6.3-2.9.3h-.2c1.3 2 .8 3.6-.8 5.5 2.3 1.7 3.5 4.6 4 5.9.3.9 1.7 1.4 3.1 2 1.7.6 3.5 1.3 4 2.9l.6 1.8-2-.7z"/><path fill="#413968" d="M129.3 53.1c.5 0 1 .2 1.6.6.9.6 1.6.8 2.3.8.9 0 1.8-.3 2.9-.7.2 0 2.3 1.7-2.6 1.7-.7 0-1.5 0-2.5-.1 2.9 2.9 2.3 4.2-.1 6.9 2.4 1.2 3.8 4.1 4.5 6 .9 2.6 6.4 2.5 7.1 4.8-4.3-1.4-12.1-2.1-19.6-2.1-6.2 0-12.2.5-15.8 1.7.7-2.3 6.2-2.2 7.1-4.8 2.7-7.8.8-8.9 8.9-9.2 2.4-1.3 3.8-5.6 6.2-5.6m0-2c-2.4 0-3.9 2-5.1 3.6-.5.6-1.1 1.4-1.5 1.8-6.6.4-7.7 1.6-9 6.5-.3 1.1-.7 2.4-1.2 4.1-.2.4-1.7 1-2.6 1.3-1.8.7-3.9 1.5-4.6 3.5l-1.2 3.7 3.7-1.2c3.1-1 8.7-1.6 15.2-1.6 7.6 0 15.1.8 19 2l3.7 1.2-1.2-3.7c-.6-2-2.7-2.8-4.6-3.5-.8-.3-2.4-.9-2.5-1.3-.4-1.2-1.5-3.8-3.5-5.7 1-1.4 1.5-2.8 1-4.4 1.7-.1 3.9-.7 3.9-2.9 0-1.4-1.3-2.8-2.6-2.8h-.3l-.3.1-.3.1c-.9.3-1.6.5-2.1.5-.3 0-.6-.1-1.2-.5-.9-.5-1.8-.8-2.7-.8z"/></g><g><path fill-rule="evenodd" clip-rule="evenodd" fill="#6B60A7" d="M142.4 173.9c-4-1.3-11.5-2.1-19.3-2.1-6.6 0-12.3.6-15.5 1.6l-1.8.6.6-1.8c.5-1.6 2.3-2.2 4-2.9 1.4-.5 2.8-1.1 3.1-2 .6-1.7.9-3 1.2-4.1 1.2-4.6 2-5.5 8.4-5.8.7-.4 1.3-1.3 2-2.2 1.1-1.5 2.4-3.2 4.3-3.2.7 0 1.4.2 2.1.7.9.6 1.4.7 1.8.7.7 0 1.4-.3 2.4-.6l.4-.1h.2c.7 0 1.6.9 1.6 1.8 0 1.9-3 1.9-4.2 1.9h-.3c1.3 2 .8 3.6-.8 5.5 2.3 1.7 3.5 4.6 4 5.9.3.9 1.7 1.4 3.1 2 1.7.6 3.5 1.3 4 2.9l.6 1.8-1.9-.6z"/><path fill="#413968" d="M129.3 153.1c.5 0 1 .2 1.6.6.9.6 1.6.8 2.3.8.9 0 1.8-.3 2.9-.7.2 0 2.3 1.7-2.6 1.7-.7 0-1.5 0-2.5-.1 2.9 2.9 2.3 4.2-.1 6.9 2.4 1.2 3.8 4.1 4.5 6 .9 2.6 6.4 2.5 7.1 4.8-4.3-1.4-12.1-2.1-19.6-2.1-6.2 0-12.2.5-15.8 1.7.7-2.3 6.2-2.2 7.1-4.8 2.7-7.8.8-8.9 8.9-9.2 2.4-1.3 3.8-5.6 6.2-5.6m0-2c-2.4 0-3.9 2-5.1 3.6-.5.6-1.1 1.4-1.5 1.8-6.6.4-7.7 1.6-9 6.5-.3 1.1-.7 2.4-1.2 4.1-.2.4-1.7 1-2.6 1.3-1.8.7-3.9 1.5-4.6 3.5l-1.2 3.7 3.7-1.2c3.1-1 8.7-1.6 15.2-1.6 7.6 0 15.1.8 19 2l3.7 1.2-1.2-3.7c-.6-2-2.7-2.8-4.6-3.5-.8-.3-2.4-.9-2.6-1.3-.4-1.2-1.5-3.8-3.5-5.7 1-1.4 1.5-2.8 1-4.4 1.6-.1 3.9-.7 3.9-2.9 0-1.4-1.3-2.8-2.6-2.8h-.3l-.3.1-.3.1c-.9.3-1.6.5-2.1.5-.3 0-.6-.1-1.2-.5-.8-.5-1.7-.8-2.6-.8z"/></g><path fill-rule="evenodd" clip-rule="evenodd" fill="#554C88" d="M14.4 67.7c-.9 2.5-6.4 2.5-7.1 4.8 7.9-2.5 27.5-2 35.4.5-6.1-2.7-19.1-5-28.3-5.3z"/><path fill-rule="evenodd" clip-rule="evenodd" fill="#554C88" d="M14.4 167.7c-.9 2.5-6.4 2.5-7.1 4.8 7.9-2.5 27.5-2 35.4.5-6.1-2.7-19.1-5-28.3-5.3z"/><path fill-rule="evenodd" clip-rule="evenodd" fill="#554C88" d="M64.4 67.7c-.9 2.5-6.4 2.5-7.1 4.8 7.9-2.5 27.5-2 35.4.5-6.1-2.7-19.1-5-28.3-5.3z"/><path fill-rule="evenodd" clip-rule="evenodd" fill="#554C88" d="M64.4 167.7c-.9 2.5-6.4 2.5-7.1 4.8 7.9-2.5 27.5-2 35.4.5-6.1-2.7-19.1-5-28.3-5.3z"/><path fill-rule="evenodd" clip-rule="evenodd" fill="#554C88" d="M114.4 67.7c-.9 2.5-6.4 2.5-7.1 4.8 7.9-2.5 27.5-2 35.4.5-6.1-2.7-19.1-5-28.3-5.3z"/><path fill-rule="evenodd" clip-rule="evenodd" fill="#554C88" d="M114.4 167.7c-.9 2.5-6.4 2.5-7.1 4.8 7.9-2.5 27.5-2 35.4.5-6.1-2.7-19.1-5-28.3-5.3z"/><path fill-rule="evenodd" clip-rule="evenodd" fill="#8A81B9" d="M42.7 73c-.7-2.3-6.2-2.2-7.1-4.8-.7-1.9-2.1-4.8-4.5-6 2.3-2.7 3-4 .1-6.9 8 .6 5.3-1.6 5-1.6-2.2.7-3.4 1.2-5.3-.1-1.7-1.3-3.6-.4-5 2.2 1 .9 2.4 2.4 2.7 3.2 2.6 7.8.1 1.3 5.4 9.1 1.8 2.6 7.2 2.6 8.7 4.9z"/><path fill-rule="evenodd" clip-rule="evenodd" fill="#8A81B9" d="M42.7 173c-.7-2.3-6.2-2.2-7.1-4.8-.7-1.9-2.1-4.8-4.5-6 2.3-2.7 3-4 .1-6.9 8 .6 5.3-1.6 5-1.6-2.2.7-3.4 1.2-5.3-.1-1.7-1.3-3.6-.4-5 2.2 1 .9 2.4 2.4 2.7 3.2 2.6 7.8.1 1.3 5.4 9.1 1.8 2.6 7.2 2.6 8.7 4.9z"/><path fill-rule="evenodd" clip-rule="evenodd" fill="#8A81B9" d="M92.7 73c-.7-2.3-6.2-2.2-7.1-4.8-.7-1.9-2.1-4.8-4.5-6 2.3-2.7 3-4 .1-6.9 8 .6 5.3-1.6 5-1.6-2.2.7-3.4 1.2-5.3-.1-1.7-1.3-3.6-.4-5 2.2 1 .9 2.4 2.4 2.7 3.2 2.6 7.8.1 1.3 5.4 9.1 1.8 2.6 7.2 2.6 8.7 4.9z"/><path fill-rule="evenodd" clip-rule="evenodd" fill="#8A81B9" d="M92.7 173c-.7-2.3-6.2-2.2-7.1-4.8-.7-1.9-2.1-4.8-4.5-6 2.3-2.7 3-4 .1-6.9 8 .6 5.3-1.6 5-1.6-2.2.7-3.4 1.2-5.3-.1-1.7-1.3-3.6-.4-5 2.2 1 .9 2.4 2.4 2.7 3.2 2.6 7.8.1 1.3 5.4 9.1 1.8 2.6 7.2 2.6 8.7 4.9z"/><path fill-rule="evenodd" clip-rule="evenodd" fill="#8A81B9" d="M142.7 73c-.7-2.3-6.2-2.2-7.1-4.8-.7-1.9-2.1-4.8-4.5-6 2.3-2.7 3-4 .1-6.9 8 .6 5.2-1.6 5-1.6-2.2.7-3.4 1.2-5.3-.1-1.7-1.3-3.6-.4-5 2.2 1 .9 2.4 2.4 2.7 3.2 2.6 7.8.1 1.3 5.4 9.1 1.8 2.6 7.2 2.6 8.7 4.9z"/><path fill-rule="evenodd" clip-rule="evenodd" fill="#8A81B9" d="M142.7 173c-.7-2.3-6.2-2.2-7.1-4.8-.7-1.9-2.1-4.8-4.5-6 2.3-2.7 3-4 .1-6.9 8 .6 5.2-1.6 5-1.6-2.2.7-3.4 1.2-5.3-.1-1.7-1.3-3.6-.4-5 2.2 1 .9 2.4 2.4 2.7 3.2 2.6 7.8.1 1.3 5.4 9.1 1.8 2.6 7.2 2.6 8.7 4.9z"/><path fill-rule="evenodd" clip-rule="evenodd" fill="#8A81B9" d="M18.5 5.3c-7.6.5-4.9-1.6-4.7-1.6 2.2.7 3.4 1.2 5.3-.1 3.6-2.4 5 3.6 7.6 4.8 8.1.4 6.2 1.4 8.9 9.2.9 2.6 6.4 2.5 7.1 4.8-2.6-.8-13.4-1.2-13.2-4.3.5-7.9 2.9-9.2-5.1-8.8-2.1-1-1-7.1-5.6-4.3l-.3.3z"/><path fill-rule="evenodd" clip-rule="evenodd" fill="#8A81B9" d="M18.5 105.3c-7.6.5-4.9-1.6-4.7-1.6 2.2.7 3.4 1.2 5.3-.1 3.6-2.4 5 3.6 7.6 4.8 8.1.4 6.2 1.4 8.9 9.2.9 2.6 6.4 2.5 7.1 4.8-2.6-.8-13.4-1.2-13.2-4.3.5-7.9 2.9-9.1-5.1-8.8-2.1-1-1-7.1-5.6-4.3l-.3.3z"/><path fill-rule="evenodd" clip-rule="evenodd" fill="#8A81B9" d="M18.5 205.3c-7.6.5-4.9-1.6-4.7-1.6 2.2.7 3.4 1.2 5.3-.1 3.6-2.4 5 3.6 7.6 4.8 8.1.4 6.2 1.4 8.9 9.2.9 2.6 6.4 2.5 7.1 4.8-2.6-.8-13.4-1.2-13.2-4.3.5-7.9 2.9-9.1-5.1-8.8-2.1-1-1-7.1-5.6-4.3l-.3.3z"/><path fill-rule="evenodd" clip-rule="evenodd" fill="#8A81B9" d="M68.5 5.3c-7.6.5-4.9-1.6-4.7-1.6 2.2.7 3.4 1.2 5.3-.1 3.6-2.4 5 3.6 7.6 4.8 8.1.4 6.2 1.4 8.9 9.2.9 2.6 6.4 2.5 7.1 4.8-2.6-.8-13.4-1.2-13.2-4.3.5-7.9 2.9-9.2-5.1-8.8-2.1-1-1-7.1-5.6-4.3l-.3.3z"/><path fill-rule="evenodd" clip-rule="evenodd" fill="#8A81B9" d="M68.5 105.3c-7.6.5-4.9-1.6-4.7-1.6 2.2.7 3.4 1.2 5.3-.1 3.6-2.4 5 3.6 7.6 4.8 8.1.4 6.2 1.4 8.9 9.2.9 2.6 6.4 2.5 7.1 4.8-2.6-.8-13.4-1.2-13.2-4.3.5-7.9 2.9-9.1-5.1-8.8-2.1-1-1-7.1-5.6-4.3l-.3.3z"/><path fill-rule="evenodd" clip-rule="evenodd" fill="#8A81B9" d="M68.5 205.3c-7.6.5-4.9-1.6-4.7-1.6 2.2.7 3.4 1.2 5.3-.1 3.6-2.4 5 3.6 7.6 4.8 8.1.4 6.2 1.4 8.9 9.2.9 2.6 6.4 2.5 7.1 4.8-2.6-.8-13.4-1.2-13.2-4.3.5-7.9 2.9-9.1-5.1-8.8-2.1-1-1-7.1-5.6-4.3l-.3.3z"/><path fill-rule="evenodd" clip-rule="evenodd" fill="#8A81B9" d="M118.5 5.3c-7.6.5-4.9-1.6-4.7-1.6 2.2.7 3.4 1.2 5.3-.1 3.6-2.4 5 3.6 7.6 4.8 8.1.4 6.2 1.4 8.9 9.2.9 2.6 6.4 2.5 7.1 4.8-2.6-.8-13.4-1.2-13.2-4.3.5-7.9 2.9-9.2-5.1-8.8-2.1-1-1-7.1-5.6-4.3l-.3.3z"/><path fill-rule="evenodd" clip-rule="evenodd" fill="#8A81B9" d="M118.5 105.3c-7.6.5-4.9-1.6-4.7-1.6 2.2.7 3.4 1.2 5.3-.1 3.6-2.4 5 3.6 7.6 4.8 8.1.4 6.2 1.4 8.9 9.2.9 2.6 6.4 2.5 7.1 4.8-2.6-.8-13.4-1.2-13.2-4.3.5-7.9 2.9-9.1-5.1-8.8-2.1-1-1-7.1-5.6-4.3l-.3.3z"/><path fill-rule="evenodd" clip-rule="evenodd" fill="#8A81B9" d="M118.5 205.3c-7.6.5-4.9-1.6-4.7-1.6 2.2.7 3.4 1.2 5.3-.1 3.6-2.4 5 3.6 7.6 4.8 8.1.4 6.2 1.4 8.9 9.2.9 2.6 6.4 2.5 7.1 4.8-2.6-.8-13.4-1.2-13.2-4.3.5-7.9 2.9-9.1-5.1-8.8-2.1-1-1-7.1-5.6-4.3l-.3.3z"/><path fill-rule="evenodd" clip-rule="evenodd" fill="#554C88" d="M7.3 23c.7-2.2 6-2.2 7-4.7 9.3-.1 22.3 1.6 28.4 4.2-7.9-2.5-27.5-2-35.4.5z"/><path fill-rule="evenodd" clip-rule="evenodd" fill="#554C88" d="M7.3 123c.7-2.2 6-2.2 7-4.7 9.3-.1 22.3 1.6 28.4 4.2-7.9-2.5-27.5-2-35.4.5z"/><path fill-rule="evenodd" clip-rule="evenodd" fill="#554C88" d="M7.3 223c.7-2.2 6-2.2 7-4.7 9.3-.1 22.3 1.6 28.4 4.2-7.9-2.5-27.5-2-35.4.5z"/><path fill-rule="evenodd" clip-rule="evenodd" fill="#554C88" d="M57.3 23c.7-2.2 6-2.2 7-4.7 9.3-.1 22.3 1.6 28.4 4.2-7.9-2.5-27.5-2-35.4.5z"/><path fill-rule="evenodd" clip-rule="evenodd" fill="#554C88" d="M57.3 123c.7-2.2 6-2.2 7-4.7 9.3-.1 22.3 1.6 28.4 4.2-7.9-2.5-27.5-2-35.4.5z"/><path fill-rule="evenodd" clip-rule="evenodd" fill="#554C88" d="M57.3 223c.7-2.2 6-2.2 7-4.7 9.3-.1 22.3 1.6 28.4 4.2-7.9-2.5-27.5-2-35.4.5z"/><path fill-rule="evenodd" clip-rule="evenodd" fill="#554C88" d="M107.3 23c.7-2.2 6-2.2 7-4.7 9.3-.1 22.3 1.6 28.4 4.2-7.9-2.5-27.5-2-35.4.5z"/><path fill-rule="evenodd" clip-rule="evenodd" fill="#554C88" d="M107.3 123c.7-2.2 6-2.2 7-4.7 9.3-.1 22.3 1.6 28.4 4.2-7.9-2.5-27.5-2-35.4.5z"/><path fill-rule="evenodd" clip-rule="evenodd" fill="#554C88" d="M107.3 223c.7-2.2 6-2.2 7-4.7 9.3-.1 22.3 1.6 28.4 4.2-7.9-2.5-27.5-2-35.4.5z"/></svg>