<svg xmlns="http://www.w3.org/2000/svg" width="150" height="250" viewBox="0 0 150 250"><g id="Layer_3"><g><g><path fill-rule="evenodd" clip-rule="evenodd" fill="#BBB" d="M17.541 88.771V78.417l1.356.517c1.807.689 3.893 1.054 6.032 1.054h.001c2.142 0 4.229-.366 6.037-1.058l1.36-.521-.019 10.361H17.541z"/></g><g><path fill="#484848" d="M31.324 79.864l-.014 7.906H18.541v-7.902c1.956.746 4.172 1.119 6.388 1.119 2.22.001 4.438-.373 6.395-1.123m2.006-2.909l-2.721 1.042c-1.694.648-3.658.991-5.68.991-2.019 0-3.981-.341-5.675-.988l-2.713-1.035V89.77h16.766l.003-1.997.014-7.906.006-2.912z"/></g></g><g><g><path fill-rule="evenodd" clip-rule="evenodd" fill="#BBB" d="M67.542 88.771V78.417l1.356.518c1.806.689 3.892 1.053 6.032 1.053 2.144 0 4.231-.366 6.039-1.058l1.36-.521-.021 10.361H67.542z"/></g><g><path fill="#484848" d="M81.327 79.864l-.017 7.906H68.542v-7.902c1.955.746 4.171 1.119 6.388 1.119 2.22.001 4.44-.373 6.397-1.123m2.006-2.909l-2.721 1.042c-1.694.648-3.659.991-5.682.991-2.02 0-3.982-.341-5.675-.988l-2.713-1.036V89.77h16.765l.004-1.996.017-7.906.005-2.913z"/></g></g><g><g><path fill-rule="evenodd" clip-rule="evenodd" fill="#BBB" d="M117.543 88.771V78.417l1.356.518c1.807.689 3.893 1.053 6.032 1.053h.001c2.143 0 4.23-.366 6.037-1.058l1.36-.521-.021 10.361h-14.765z"/></g><g><path fill="#484848" d="M131.327 79.864l-.016 7.906h-12.769v-7.902c1.955.746 4.173 1.119 6.389 1.119 2.22.001 4.439-.373 6.396-1.123m2.006-2.909l-2.722 1.042c-1.693.648-3.657.991-5.68.991-2.019 0-3.981-.341-5.676-.988l-2.713-1.035v12.806h16.765l.004-1.996.016-7.906.006-2.914z"/></g></g><path fill-rule="evenodd" clip-rule="evenodd" fill="#959595" d="M21.811 87.771h-3.27v-7.902h.004l3.266 7.902z"/><path fill-rule="evenodd" clip-rule="evenodd" fill="#959595" d="M71.812 87.771h-3.27v-7.902h.002l3.268 7.902z"/><path fill-rule="evenodd" clip-rule="evenodd" fill="#959595" d="M121.81 87.771h-3.267v-7.902h.004l3.263 7.902z"/><path fill-rule="evenodd" clip-rule="evenodd" fill="#D5D5D5" d="M31.324 79.864l-.014 7.906-2.991-7.082a16.387 16.387 0 003.005-.824z"/><path fill-rule="evenodd" clip-rule="evenodd" fill="#D5D5D5" d="M81.327 79.864l-.017 7.906-2.99-7.082a16.497 16.497 0 003.007-.824z"/><path fill-rule="evenodd" clip-rule="evenodd" fill="#D5D5D5" d="M131.327 79.864l-.016 7.906-2.991-7.082a16.452 16.452 0 003.007-.824z"/><g><g><path fill-rule="evenodd" clip-rule="evenodd" fill="#BBB" d="M17.366 38.948V28.629l1.338.481c1.108.398 2.212.68 3.282.837l.398.058.247.318c.659.851 1.303 1.749 1.821 2.471l.264.367a69.136 69.136 0 012.049-2.824l.249-.32.402-.057a17.47 17.47 0 003.403-.859l1.34-.479-.026 10.324H17.366z"/></g><path fill="#484848" d="M31.155 30.044l-.02 7.904H18.366v-7.896c1.07.385 2.24.704 3.475.885 1.418 1.829 2.763 3.882 2.912 3.882.073 0 1.387-2.041 2.803-3.868 1.277-.181 2.5-.514 3.599-.907m2.007-2.841l-2.68.958a16.508 16.508 0 01-3.207.811l-.803.114-.497.641a58.735 58.735 0 00-1.268 1.711 65.453 65.453 0 00-1.286-1.726l-.493-.636-.797-.117a16.057 16.057 0 01-3.088-.788l-2.677-.962v12.74H33.13l.005-1.995.02-7.904.007-2.847z"/></g><g><g><path fill-rule="evenodd" clip-rule="evenodd" fill="#BBB" d="M17.541 238.769v-10.317l1.339.483c1.098.396 2.203.678 3.283.838l.397.06.246.316c.659.85 1.303 1.747 1.821 2.469l.264.367a69.172 69.172 0 012.049-2.823l.249-.321.403-.057a17.088 17.088 0 003.4-.858l1.341-.481-.026 10.325H17.541z"/></g><g><path fill="#484848" d="M31.33 229.866l-.02 7.902H18.541v-7.894c1.07.386 2.24.703 3.475.887 1.418 1.827 2.763 3.878 2.912 3.878.073 0 1.387-2.039 2.803-3.866 1.278-.178 2.5-.512 3.599-.907m2.007-2.845l-2.683.964a16.17 16.17 0 01-3.2.809l-.806.112-.499.643a55.716 55.716 0 00-1.268 1.712 62.292 62.292 0 00-1.286-1.725l-.492-.634-.794-.118a16.052 16.052 0 01-3.091-.79l-2.678-.965v12.741h16.765l.005-1.995.02-7.902.007-2.852z"/></g></g><path fill-rule="evenodd" clip-rule="evenodd" fill="#959595" d="M21.8 37.772h-3.259v-7.896h.006l3.253 7.896z"/><path fill-rule="evenodd" clip-rule="evenodd" fill="#959595" d="M21.8 237.769h-3.259v-7.894h.006l3.253 7.894z"/><path fill-rule="evenodd" clip-rule="evenodd" fill="#D5D5D5" d="M27.652 30.882l.079-.106c1.278-.181 2.5-.515 3.599-.907l-.02 7.904-3.658-6.891z"/><path fill-rule="evenodd" clip-rule="evenodd" fill="#D5D5D5" d="M27.652 230.88l.079-.106c1.278-.179 2.5-.513 3.599-.907l-.02 7.902-3.658-6.889z"/><g><g><path fill-rule="evenodd" clip-rule="evenodd" fill="#BBB" d="M67.367 38.948V28.629l1.338.481c1.109.399 2.213.68 3.281.837l.398.058.247.318a81.53 81.53 0 011.824 2.474c.086.12.174.244.262.364a68.499 68.499 0 012.052-2.825l.248-.32.401-.057a17.461 17.461 0 003.402-.859l1.34-.479-.028 10.324H67.367z"/></g><g><path fill="#484848" d="M81.156 30.044l-.021 7.904H68.367v-7.896c1.07.385 2.238.704 3.475.885 1.418 1.829 2.763 3.882 2.912 3.882.073 0 1.388-2.041 2.806-3.868a18.532 18.532 0 003.596-.907m2.008-2.84l-2.681.957a16.517 16.517 0 01-3.206.811l-.802.114-.497.64a55.518 55.518 0 00-1.271 1.712 66.026 66.026 0 00-1.286-1.726l-.494-.637-.797-.117a15.984 15.984 0 01-3.088-.788l-2.677-.963v12.741h16.762l.006-1.995.021-7.904.01-2.845z"/></g></g><g><g><path fill-rule="evenodd" clip-rule="evenodd" fill="#BBB" d="M67.542 238.769v-10.317l1.339.483c1.098.396 2.202.678 3.282.838l.397.059.246.317c.661.851 1.306 1.75 1.824 2.473l.261.363a68.533 68.533 0 012.052-2.824l.249-.32.402-.057a17.088 17.088 0 003.398-.858l1.342-.481-.027 10.325H67.542z"/></g><g><path fill="#484848" d="M81.331 229.866l-.021 7.902H68.542v-7.894c1.07.386 2.238.703 3.475.887 1.418 1.827 2.763 3.878 2.912 3.878.073 0 1.387-2.039 2.805-3.866a18.154 18.154 0 003.597-.907m2.008-2.845l-2.684.964a16.231 16.231 0 01-3.199.809l-.805.112-.498.642a55.527 55.527 0 00-1.271 1.713 63.924 63.924 0 00-1.287-1.725l-.492-.634-.794-.118a16.061 16.061 0 01-3.09-.79l-2.678-.966v12.742h16.764l.005-1.995.021-7.902.008-2.852z"/></g></g><g><g><path fill-rule="evenodd" clip-rule="evenodd" fill="#BBB" d="M117.543 38.772V28.454l1.339.481c1.107.399 2.212.68 3.28.837l.399.058.247.319c.657.85 1.301 1.747 1.818 2.469l.265.37a67.148 67.148 0 012.053-2.826l.249-.319.4-.057a17.364 17.364 0 003.401-.859l1.341-.479-.027 10.324h-14.765z"/></g><g><path fill="#484848" d="M131.332 29.869l-.021 7.904h-12.769v-7.896a17.94 17.94 0 003.475.885c1.416 1.829 2.763 3.882 2.909 3.882.077 0 1.388-2.041 2.808-3.868a18.588 18.588 0 003.598-.907m2.008-2.842l-2.681.958a16.463 16.463 0 01-3.206.811l-.802.114-.496.639a54.415 54.415 0 00-1.272 1.713 63.647 63.647 0 00-1.284-1.725l-.493-.638-.798-.117a16.057 16.057 0 01-3.088-.788l-2.677-.963v12.741h16.764l.005-1.995.021-7.904.007-2.846z"/></g></g><g><g><path fill-rule="evenodd" clip-rule="evenodd" fill="#BBB" d="M117.543 238.769v-10.317l1.339.483c1.098.396 2.202.678 3.282.838l.397.059.246.318a81.994 81.994 0 011.819 2.467l.265.369a66.533 66.533 0 012.053-2.825l.249-.32.402-.057a17.157 17.157 0 003.398-.858l1.342-.481-.027 10.325h-14.765z"/></g><g><path fill="#484848" d="M131.332 229.866l-.021 7.902h-12.769v-7.894c1.069.386 2.237.703 3.475.887 1.416 1.827 2.763 3.878 2.909 3.878.077 0 1.388-2.039 2.808-3.866a18.164 18.164 0 003.598-.907m2.008-2.845l-2.684.964a16.188 16.188 0 01-3.2.809l-.803.112-.498.641a54.022 54.022 0 00-1.272 1.714 65.824 65.824 0 00-1.284-1.724l-.492-.635-.795-.118a16.074 16.074 0 01-3.09-.789l-2.679-.967v12.742h16.764l.005-1.995.021-7.902.007-2.852z"/></g></g><g><g><path fill-rule="evenodd" clip-rule="evenodd" fill="#BBB" d="M78.165 138.772l-.237-.663a3.304 3.304 0 00-.425-.815l-.188-.261-.009-6.637 1.657-.712 3.36 3.361-.017 5.727h-4.141zm-10.623 0v-10.321l1.339.483c.894.322 1.717.643 2.446.951l.63.268-.028.888.013 6.271-.135.232a3.172 3.172 0 00-.254.557l-.233.672h-3.778z"/></g><g><path fill="#484848" d="M68.542 129.875c.923.333 1.713.643 2.395.932l-.006.203.012 6.034a4.203 4.203 0 00-.333.729h-2.067v-7.898m10.192.996l2.588 2.588-.013 4.313h-2.441a4.303 4.303 0 00-.554-1.062l-.008-5.656.428-.183m-12.193-3.844v12.745h5.49l.466-1.345c.045-.132.105-.261.176-.384l.269-.466-.001-.538-.012-6.001.005-.17.043-1.369-1.261-.535a50.644 50.644 0 00-2.497-.972l-2.678-.965zm12.649 1.472l-1.245.534-.428.184-1.213.521.002 1.32.008 5.656.001.642.375.522c.121.169.22.359.295.568l.474 1.326h5.844l.006-1.994.013-4.313.003-.832-.589-.588-2.588-2.588-.958-.958z"/></g></g><g><g><path fill-rule="evenodd" clip-rule="evenodd" fill="#BBB" d="M78.555 188.769l-.239-.659a3.491 3.491 0 00-.259-.563l-.135-.233.004-7.169.61-.258a47.72 47.72 0 012.448-.951l1.339-.483v10.317h-3.768zm-10.998 0l-.016-5.723 3.361-3.358 1.654.702-.008 6.641-.185.26a3.47 3.47 0 00-.428.819l-.239.659h-4.139z"/></g><g><path fill="#484848" d="M81.323 179.875v7.894h-2.067a4.514 4.514 0 00-.334-.725l.004-6.237a47.366 47.366 0 012.397-.932m-10.191.996l.423.18-.006 5.66a4.434 4.434 0 00-.553 1.058h-2.441l-.012-4.31 2.589-2.588m12.191-3.843l-2.678.965c-.908.327-1.748.654-2.499.972l-1.22.516-.001 1.325-.004 6.237v.538l.27.466c.067.116.129.251.184.402l.479 1.319h5.469v-12.74zm-12.651 1.475l-.954.953-2.59 2.588-.589.589.002.832.012 4.31.006 1.994h5.837l.478-1.317c.076-.21.178-.405.304-.582l.369-.519.001-.638.006-5.66.001-1.325-1.22-.518-.423-.18-1.24-.527z"/></g></g><g><g><path fill-rule="evenodd" clip-rule="evenodd" fill="#BBB" d="M126.539 138.772l-.224-.691a3.78 3.78 0 00-.16-.402l-.131-.283.054-.309c.094-.534.224-1.149.359-1.796.303-1.435.645-3.062.655-4.152l.007-.649 1.857-.807 3.367 3.363-.016 5.727h-5.768zm-8.996 0V128.45l1.34.484c.837.303 1.572.588 2.215.854l.741.306-1.166 6.654-.173.206a3.31 3.31 0 00-.613 1.119l-.221.698h-2.123z"/></g><g><path fill="#484848" d="M118.543 129.875c.821.297 1.542.577 2.173.838l-.981 5.599a4.292 4.292 0 00-.801 1.461h-.391v-7.898m10.188.996l2.592 2.588-.012 4.313h-4.045a4.714 4.714 0 00-.203-.513c.309-1.758 1.013-4.415 1.029-6.111l.639-.277m-12.188-3.846v12.747h3.856l.441-1.396a2.29 2.29 0 01.426-.777l.346-.412.093-.529.981-5.599.277-1.581-1.483-.613a53.649 53.649 0 00-2.257-.87l-2.68-.97zm12.64 1.47l-1.248.541-.639.277-1.19.518-.013 1.298c-.01.992-.341 2.566-.634 3.956-.139.658-.27 1.285-.365 1.829l-.108.616.263.568c.044.095.084.191.116.29l.448 1.384h7.493l.006-1.994.012-4.313.002-.833-.589-.588-2.592-2.588-.962-.961z"/></g></g><g><g><path fill-rule="evenodd" clip-rule="evenodd" fill="#BBB" d="M130.203 188.769l-.223-.694a3.34 3.34 0 00-.615-1.119l-.173-.206-1.165-6.654.741-.306a50.407 50.407 0 012.215-.854l1.34-.484v10.318h-2.12zm-12.645 0l-.016-5.723 3.369-3.37 1.855.817.007.646c.011 1.084.351 2.705.649 4.135.138.653.268 1.276.361 1.815l.054.307-.131.283a3.79 3.79 0 00-.158.404l-.228.686h-5.762z"/></g><g><path fill="#484848" d="M131.323 179.875v7.894h-.391a4.322 4.322 0 00-.802-1.457l-.98-5.599a51.804 51.804 0 012.173-.838m-10.188.992l.639.281c.017 1.692.72 4.354 1.025 6.111a4.741 4.741 0 00-.199.509h-4.045l-.012-4.31 2.592-2.591m12.188-3.842l-2.68.969c-.799.288-1.558.581-2.257.87l-1.483.613.277 1.58.98 5.599.093.53.346.412c.188.224.336.493.429.781l.445 1.389h3.85v-12.743zm-12.635 1.46l-.968.968-2.592 2.592-.588.588.002.832.012 4.31.006 1.994h7.483l.454-1.371c.033-.101.071-.201.116-.299l.262-.566-.106-.615c-.096-.549-.229-1.183-.367-1.849-.291-1.385-.619-2.954-.629-3.939l-.013-1.291-1.182-.52-.639-.281-1.251-.553z"/></g></g><g><g><path fill-rule="evenodd" clip-rule="evenodd" fill="#BBB" d="M29.498 138.772l-.228-.685a3.482 3.482 0 00-.485-.904l-.156-.197-1.181-6.65 1.51-.652 3.365 3.362-.016 5.727h-2.809zm-11.957 0v-10.321l1.339.483c1.011.364 1.912.719 2.679 1.053l.654.285-.056.711c-.063.799.478 3.444.801 5.024.131.642.246 1.203.314 1.591l.207 1.174h-5.938z"/></g><g><path fill="#484848" d="M18.541 129.875c1.025.37 1.89.712 2.619 1.029-.1 1.262.863 5.371 1.127 6.868h-3.746v-7.897m10.191.996l2.59 2.588-.012 4.313h-1.091a4.434 4.434 0 00-.649-1.208l-.999-5.624.161-.069m-12.191-3.845v12.746h8.13l-.414-2.348c-.07-.395-.186-.965-.319-1.617-.249-1.217-.831-4.065-.784-4.746l.099-1.409-1.293-.582a46.88 46.88 0 00-2.738-1.076l-2.681-.968zm12.645 1.471l-1.246.538-.161.069-1.454.627.277 1.559.999 5.624.088.494.311.395c.11.14.264.427.322.601l.455 1.369h4.528l.006-1.994.012-4.313.002-.832-.589-.589-2.59-2.588-.96-.96z"/></g></g><g><g><path fill-rule="evenodd" clip-rule="evenodd" fill="#BBB" d="M26.383 188.769l.209-1.176c.068-.381.18-.928.308-1.554.326-1.59.871-4.251.807-5.056l-.056-.711.654-.285a45.557 45.557 0 012.679-1.053l1.339-.483v10.317h-5.94zm-8.827 0l-.016-5.723 3.365-3.362 1.51.652-1.181 6.648-.153.196c-.212.271-.38.584-.488.905l-.229.683h-2.808z"/></g><g><path fill="#484848" d="M31.322 179.875v7.894h-3.746c.267-1.497 1.227-5.603 1.127-6.864.729-.318 1.594-.66 2.619-1.03m-10.191.996l.161.069-.999 5.624a4.048 4.048 0 00-.649 1.204h-1.091l-.012-4.31 2.59-2.587m12.191-3.844l-2.679.967a46.602 46.602 0 00-2.738 1.076l-1.307.57.112 1.421c.048.686-.539 3.553-.79 4.777-.13.636-.244 1.192-.313 1.579l-.418 2.351h8.134v-12.741h-.001zm-12.644 1.47l-.96.959-2.59 2.588-.589.589.002.832.012 4.31.006 1.994h4.524l.457-1.365c.072-.215.185-.425.328-.606l.307-.393.087-.49.999-5.624.277-1.559-1.454-.627-.161-.069-1.245-.539z"/></g></g><path fill-rule="evenodd" clip-rule="evenodd" fill="#959595" d="M71.801 37.772h-3.259v-7.896h.004l3.255 7.896z"/><path fill-rule="evenodd" clip-rule="evenodd" fill="#959595" d="M71.801 237.769h-3.259v-7.894h.004l3.255 7.894z"/><path fill-rule="evenodd" clip-rule="evenodd" fill="#959595" d="M121.802 37.772h-3.259v-7.896h.004l3.255 7.896z"/><path fill-rule="evenodd" clip-rule="evenodd" fill="#959595" d="M121.802 237.769h-3.259v-7.894h.004l3.255 7.894z"/><path fill-rule="evenodd" clip-rule="evenodd" fill="#D5D5D5" d="M77.652 30.882l.081-.106a18.588 18.588 0 003.598-.907l-.021 7.904-3.658-6.891z"/><path fill-rule="evenodd" clip-rule="evenodd" fill="#D5D5D5" d="M77.652 230.88l.081-.106a18.303 18.303 0 003.598-.907l-.021 7.902-3.658-6.889z"/><path fill-rule="evenodd" clip-rule="evenodd" fill="#D5D5D5" d="M127.653 30.882l.081-.106a18.607 18.607 0 003.598-.907l-.021 7.904-3.658-6.891z"/><path fill-rule="evenodd" clip-rule="evenodd" fill="#D5D5D5" d="M127.653 230.88l.081-.106a18.32 18.32 0 003.598-.907l-.021 7.902-3.658-6.889z"/></g></svg>