<?xml version="1.0" encoding="utf-8"?>
<!-- Generator: Adobe Illustrator 16.0.0, SVG Export Plug-In . SVG Version: 6.00 Build 0)  -->
<!DOCTYPE svg PUBLIC "-//W3C//DTD SVG 1.1//EN" "http://www.w3.org/Graphics/SVG/1.1/DTD/svg11.dtd">
<svg version="1.1" id="Layer_3" xmlns="http://www.w3.org/2000/svg" xmlns:xlink="http://www.w3.org/1999/xlink" x="0px" y="0px"
	 width="150px" height="250px" viewBox="0 0 150 250" enable-background="new 0 0 150 250" xml:space="preserve">
<g>
	<path fill-rule="evenodd" clip-rule="evenodd" fill="#A27556" d="M24.9,89.8c-2.1,0-4.1-0.7-5.7-1.9l-0.5-0.4l0.1-0.6
		c0.9-6.3,3.8-8.5,6.1-8.5s5.1,2.2,6.1,8.5l0.1,0.6l-0.5,0.4C29,89.1,27,89.8,24.9,89.8z"/>
	<path fill="#4F392A" d="M24.9,79.5c2.2,0,4.3,2.6,5.1,7.7c-1.5,1.1-3.3,1.7-5.1,1.7c-1.8,0-3.6-0.6-5.1-1.7
		C20.6,82,22.8,79.5,24.9,79.5 M24.9,77.5c-2.7,0-6,2.5-7.1,9.4L17.7,88l0.9,0.7c1.8,1.4,4,2.1,6.3,2.1c2.3,0,4.5-0.8,6.3-2.1
		l0.9-0.7L32,86.8C31,79.9,27.7,77.5,24.9,77.5L24.9,77.5z"/>
</g>
<path fill-rule="evenodd" clip-rule="evenodd" fill="#91694D" d="M19.8,87.1c0.7-4.9,2.8-7.5,4.9-7.6c-2,0.2-2.9,2.7-1.4,7.6
	c1.2,0.7,2.5,1.2,3.7,1.5C24.6,89.2,21.9,88.7,19.8,87.1z"/>
<g>
	<path fill-rule="evenodd" clip-rule="evenodd" fill="#A27556" d="M24.9,85.8c-1.1,0-2.1-0.9-2.2-2.1c-0.1-1.3,0.8-2.4,1.9-2.6
		c0.1,0,0.2,0,0.2,0c1.1,0,2.1,0.9,2.2,2.1c0.1,1.3-0.8,2.4-1.9,2.6C25.1,85.8,25,85.8,24.9,85.8z"/>
	<path fill="#4F392A" d="M24.9,82.1c0.6,0,1.1,0.5,1.2,1.2c0.1,0.7-0.4,1.4-1.1,1.5c0,0-0.1,0-0.1,0c-0.6,0-1.1-0.5-1.2-1.2
		c-0.1-0.7,0.4-1.4,1.1-1.5C24.8,82.1,24.9,82.1,24.9,82.1 M24.9,80.1c-0.1,0-0.2,0-0.4,0c-1.7,0.2-3,1.8-2.8,3.6
		c0.2,1.7,1.5,3,3.2,3c0.1,0,0.2,0,0.4,0c1.7-0.2,3-1.8,2.8-3.6C27.9,81.4,26.6,80.1,24.9,80.1L24.9,80.1z"/>
</g>
<g>
	<path fill-rule="evenodd" clip-rule="evenodd" fill="#A27556" d="M74.9,89.8c-2.1,0-4.1-0.7-5.7-1.9l-0.5-0.4l0.1-0.6
		c0.9-6.3,3.8-8.5,6.1-8.5c2.3,0,5.1,2.2,6.1,8.5l0.1,0.6l-0.5,0.4C79,89.1,77,89.8,74.9,89.8z"/>
	<path fill="#4F392A" d="M74.9,79.5c2.2,0,4.3,2.6,5.1,7.7c-1.5,1.1-3.3,1.7-5.1,1.7c-1.8,0-3.6-0.6-5.1-1.7
		C70.6,82,72.8,79.5,74.9,79.5 M74.9,77.5c-2.7,0-6,2.5-7.1,9.4L67.7,88l0.9,0.7c1.8,1.4,4,2.1,6.3,2.1s4.5-0.8,6.3-2.1l0.9-0.7
		L82,86.8C81,79.9,77.7,77.5,74.9,77.5L74.9,77.5z"/>
</g>
<path fill-rule="evenodd" clip-rule="evenodd" fill="#91694D" d="M69.8,87.1c0.7-4.9,2.8-7.5,4.9-7.6c-2,0.2-2.9,2.7-1.4,7.6
	c1.2,0.7,2.5,1.2,3.7,1.5C74.6,89.2,71.9,88.7,69.8,87.1z"/>
<g>
	<path fill-rule="evenodd" clip-rule="evenodd" fill="#A27556" d="M74.9,85.8c-1.1,0-2.1-0.9-2.2-2.1c-0.1-1.3,0.8-2.4,1.9-2.6
		c0.1,0,0.2,0,0.2,0c1.1,0,2.1,0.9,2.2,2.1c0.1,1.3-0.8,2.4-1.9,2.6C75.1,85.8,75,85.8,74.9,85.8z"/>
	<path fill="#4F392A" d="M74.9,82.1c0.6,0,1.1,0.5,1.2,1.2c0.1,0.7-0.4,1.4-1.1,1.5c0,0-0.1,0-0.1,0c-0.6,0-1.1-0.5-1.2-1.2
		c-0.1-0.7,0.4-1.4,1.1-1.5C74.8,82.1,74.9,82.1,74.9,82.1 M74.9,80.1c-0.1,0-0.2,0-0.4,0c-1.7,0.2-3,1.8-2.8,3.6
		c0.2,1.7,1.5,3,3.2,3c0.1,0,0.2,0,0.4,0c1.7-0.2,3-1.8,2.8-3.6C77.9,81.4,76.6,80.1,74.9,80.1L74.9,80.1z"/>
</g>
<g>
	<path fill-rule="evenodd" clip-rule="evenodd" fill="#A27556" d="M124.9,89.8c-2.1,0-4.1-0.7-5.7-1.9l-0.5-0.4l0.1-0.6
		c0.9-6.3,3.8-8.5,6.1-8.5s5.1,2.2,6.1,8.5l0.1,0.6l-0.5,0.4C129,89.1,127,89.8,124.9,89.8z"/>
	<path fill="#4F392A" d="M124.9,79.5c2.2,0,4.3,2.6,5.1,7.7c-1.5,1.1-3.3,1.7-5.1,1.7c-1.8,0-3.6-0.6-5.1-1.7
		C120.6,82,122.8,79.5,124.9,79.5 M124.9,77.5c-2.7,0-6,2.5-7.1,9.4l-0.2,1.2l0.9,0.7c1.8,1.4,4,2.1,6.3,2.1c2.3,0,4.5-0.8,6.3-2.1
		l0.9-0.7l-0.2-1.2C131,79.9,127.7,77.5,124.9,77.5L124.9,77.5z"/>
</g>
<path fill-rule="evenodd" clip-rule="evenodd" fill="#91694D" d="M119.8,87.1c0.7-4.9,2.8-7.5,4.9-7.6c-2,0.2-2.9,2.7-1.4,7.6
	c1.2,0.7,2.5,1.2,3.7,1.5C124.6,89.2,121.9,88.7,119.8,87.1z"/>
<g>
	<path fill-rule="evenodd" clip-rule="evenodd" fill="#A27556" d="M124.9,85.8c-1.1,0-2.1-0.9-2.2-2.1c-0.1-1.3,0.8-2.4,1.9-2.6
		c0.1,0,0.2,0,0.2,0c1.1,0,2.1,0.9,2.2,2.1c0.1,1.3-0.8,2.4-1.9,2.6C125.1,85.8,125,85.8,124.9,85.8z"/>
	<path fill="#4F392A" d="M124.9,82.1c0.6,0,1.1,0.5,1.2,1.2c0.1,0.7-0.4,1.4-1.1,1.5c0,0-0.1,0-0.1,0c-0.6,0-1.1-0.5-1.2-1.2
		c-0.1-0.7,0.4-1.4,1.1-1.5C124.9,82.1,124.9,82.1,124.9,82.1 M124.9,80.1c-0.1,0-0.2,0-0.4,0c-1.7,0.2-3,1.8-2.8,3.6
		c0.2,1.7,1.5,3,3.2,3c0.1,0,0.2,0,0.4,0c1.7-0.2,3-1.8,2.8-3.6C127.9,81.4,126.6,80.1,124.9,80.1L124.9,80.1z"/>
</g>
<g>
	<path fill-rule="evenodd" clip-rule="evenodd" fill="#A27556" d="M16.1,139.4c-2.1,0-4.1-0.7-5.7-1.9l-0.5-0.4l0.1-0.6
		c0.9-6.3,3.8-8.5,6.1-8.5c0.5,0,1,0.1,1.4,0.3l0.6,0.3v9.6l0,1.1l-0.9,0.1C16.9,139.4,16.5,139.4,16.1,139.4z"/>
	<path fill="#4F392A" d="M16.1,129c0.4,0,0.7,0.1,1.1,0.2v8.9l0,0.2c-0.4,0-0.7,0.1-1.1,0.1c-1.8,0-3.6-0.6-5.1-1.7
		C11.7,131.6,13.9,129,16.1,129 M16.1,127L16.1,127c-2.7,0-6,2.5-7.1,9.4l-0.2,1.2l0.9,0.7c1.8,1.4,4,2.1,6.3,2.1
		c0.4,0,0.9,0,1.3-0.1l1.8-0.2l-0.1-1.8l0-0.2v-8.8v-1.4l-1.3-0.5C17.3,127.1,16.7,127,16.1,127L16.1,127z"/>
</g>
<path fill-rule="evenodd" clip-rule="evenodd" fill="#91694D" d="M11,136.7c0.7-4.9,2.8-7.5,4.9-7.7c-2,0.2-2.9,2.7-1.4,7.7
	c1.2,0.7,2.5,1.2,3.7,1.5C15.7,138.8,13,138.3,11,136.7z"/>
<g>
	<path fill-rule="evenodd" clip-rule="evenodd" fill="#A27556" d="M12.9,133.7c-1.1,0-2.1-0.9-2.2-2.1c-0.1-1.3,0.8-2.4,1.9-2.6
		c0.1,0,0.2,0,0.2,0c1.1,0,2.1,0.9,2.2,2.1c0.1,1.3-0.8,2.4-1.9,2.6C13,133.7,12.9,133.7,12.9,133.7z"/>
	<path fill="#4F392A" d="M12.9,130c0.6,0,1.1,0.5,1.2,1.2c0.1,0.7-0.4,1.4-1.1,1.5c0,0-0.1,0-0.1,0c-0.6,0-1.1-0.5-1.2-1.2
		c-0.1-0.7,0.4-1.4,1.1-1.5C12.8,130,12.8,130,12.9,130 M12.9,128c-0.1,0-0.2,0-0.3,0c-1.7,0.2-3,1.8-2.8,3.6c0.2,1.7,1.5,3,3.2,3
		c0.1,0,0.2,0,0.4,0c1.7-0.2,3-1.8,2.8-3.6C15.9,129.3,14.5,128,12.9,128L12.9,128z"/>
</g>
<g>
	<path fill-rule="evenodd" clip-rule="evenodd" fill="#A27556" d="M66.1,139.4c-2.1,0-4.1-0.7-5.7-1.9l-0.5-0.4l0.1-0.6
		c0.9-6.3,3.8-8.5,6.1-8.5c0.5,0,1,0.1,1.4,0.3l0.6,0.3v9.6l0,1.1l-0.9,0.1C66.9,139.4,66.5,139.4,66.1,139.4z"/>
	<path fill="#4F392A" d="M66.1,129c0.4,0,0.7,0.1,1.1,0.2v8.9l0,0.2c-0.4,0-0.7,0.1-1.1,0.1c-1.8,0-3.6-0.6-5.1-1.7
		C61.7,131.6,63.9,129,66.1,129 M66.1,127L66.1,127c-2.7,0-6,2.5-7.1,9.4l-0.2,1.2l0.9,0.7c1.8,1.4,4,2.1,6.3,2.1
		c0.4,0,0.9,0,1.3-0.1l1.8-0.2l-0.1-1.8l0-0.2v-8.8v-1.4l-1.3-0.5C67.3,127.1,66.7,127,66.1,127L66.1,127z"/>
</g>
<path fill-rule="evenodd" clip-rule="evenodd" fill="#91694D" d="M61,136.7c0.7-4.9,2.8-7.5,4.9-7.7c-2,0.2-2.9,2.7-1.4,7.7
	c1.2,0.7,2.5,1.2,3.7,1.5C65.7,138.8,63,138.3,61,136.7z"/>
<g>
	<path fill-rule="evenodd" clip-rule="evenodd" fill="#A27556" d="M62.9,133.7c-1.1,0-2.1-0.9-2.2-2.1c-0.1-1.3,0.8-2.4,1.9-2.6
		c0.1,0,0.2,0,0.2,0c1.1,0,2.1,0.9,2.2,2.1c0.1,1.3-0.8,2.4-1.9,2.6C63,133.7,62.9,133.7,62.9,133.7z"/>
	<path fill="#4F392A" d="M62.9,130c0.6,0,1.1,0.5,1.2,1.2c0.1,0.7-0.4,1.4-1.1,1.5c0,0-0.1,0-0.1,0c-0.6,0-1.1-0.5-1.2-1.2
		c-0.1-0.7,0.4-1.4,1.1-1.5C62.8,130,62.8,130,62.9,130 M62.9,128c-0.1,0-0.2,0-0.3,0c-1.7,0.2-3,1.8-2.8,3.6c0.2,1.7,1.5,3,3.2,3
		c0.1,0,0.2,0,0.4,0c1.7-0.2,3-1.8,2.8-3.6C65.9,129.3,64.5,128,62.9,128L62.9,128z"/>
</g>
<g>
	<path fill-rule="evenodd" clip-rule="evenodd" fill="#A27556" d="M116.1,139.4c-2.1,0-4.1-0.7-5.7-1.9l-0.5-0.4l0.1-0.6
		c0.9-6.3,3.8-8.5,6.1-8.5c0.5,0,1,0.1,1.4,0.3l0.6,0.2v9.6l0,1.1l-0.9,0.1C116.9,139.4,116.5,139.4,116.1,139.4z"/>
	<path fill="#4F392A" d="M116.1,129c0.4,0,0.7,0.1,1.1,0.2v8.9l0,0.2c-0.4,0-0.7,0.1-1.1,0.1c-1.8,0-3.6-0.6-5.1-1.7
		C111.7,131.6,113.9,129,116.1,129 M116.1,127L116.1,127c-2.7,0-6,2.5-7.1,9.4l-0.2,1.2l0.9,0.7c1.8,1.4,4,2.1,6.3,2.1
		c0.4,0,0.9,0,1.3-0.1l1.8-0.2l-0.1-1.8l0-0.2v-8.8v-1.4l-1.3-0.5C117.3,127.1,116.7,127,116.1,127L116.1,127z"/>
</g>
<path fill-rule="evenodd" clip-rule="evenodd" fill="#91694D" d="M111,136.7c0.7-4.9,2.8-7.5,4.9-7.7c-2,0.2-2.9,2.7-1.4,7.7
	c1.2,0.7,2.5,1.2,3.7,1.5C115.7,138.8,113,138.3,111,136.7z"/>
<g>
	<path fill-rule="evenodd" clip-rule="evenodd" fill="#A27556" d="M112.9,133.7c-1.1,0-2.1-0.9-2.2-2.1c-0.1-1.3,0.8-2.4,1.9-2.6
		c0.1,0,0.2,0,0.2,0c1.1,0,2.1,0.9,2.2,2.1c0.1,1.3-0.8,2.4-1.9,2.6C113,133.7,112.9,133.7,112.9,133.7z"/>
	<path fill="#4F392A" d="M112.9,130c0.6,0,1.1,0.5,1.2,1.2c0.1,0.7-0.4,1.4-1.1,1.5c0,0-0.1,0-0.1,0c-0.6,0-1.1-0.5-1.2-1.2
		c-0.1-0.7,0.4-1.4,1.1-1.5C112.8,130,112.8,130,112.9,130 M112.9,128c-0.1,0-0.2,0-0.3,0c-1.8,0.2-3,1.8-2.8,3.6
		c0.2,1.7,1.5,3,3.2,3c0.1,0,0.2,0,0.4,0c1.7-0.2,3-1.8,2.8-3.6C115.9,129.3,114.5,128,112.9,128L112.9,128z"/>
</g>
<g>
	<path fill-rule="evenodd" clip-rule="evenodd" fill="#A27556" d="M34,189.4c-0.4,0-0.8,0-1.2-0.1l-0.9-0.1l0-1.1l0-9.5l0.6-0.3
		c0.5-0.2,0.9-0.3,1.4-0.3c2.3,0,5.1,2.2,6.1,8.5l0.1,0.6l-0.5,0.4C38.1,188.7,36.1,189.4,34,189.4L34,189.4z"/>
	<path fill="#4F392A" d="M34,179c2.2,0,4.3,2.5,5.1,7.7c-1.5,1.1-3.3,1.7-5.1,1.7c-0.4,0-0.7,0-1.1-0.1l0-0.2v-8.9
		C33.3,179.1,33.7,179,34,179 M34,177c-0.6,0-1.2,0.1-1.8,0.3l-1.3,0.5v1.4v8.8l0,0.2l-0.1,1.8l1.8,0.2c0.4,0.1,0.9,0.1,1.3,0.1
		c2.3,0,4.5-0.8,6.3-2.1l0.9-0.7l-0.2-1.2C40.1,179.5,36.8,177,34,177L34,177z"/>
</g>
<path fill-rule="evenodd" clip-rule="evenodd" fill="#BF9D86" d="M39.1,186.7c-0.9-5.9-3.7-8.4-6.2-7.4v1.8c1.5,1.2,3.6,3.3,5.3,5.1
	c-0.6,1.1-2.4,2.2-4.2,2.2C35.9,188.4,37.7,187.8,39.1,186.7z"/>
<g>
	<path fill-rule="evenodd" clip-rule="evenodd" fill="#A27556" d="M37.2,183.7c-0.1,0-0.2,0-0.2,0c-1.2-0.1-2.1-1.3-1.9-2.6
		c0.1-1.2,1-2.1,2.2-2.1c0.1,0,0.2,0,0.2,0c1.2,0.1,2.1,1.3,1.9,2.6C39.3,182.8,38.4,183.7,37.2,183.7
		C37.2,183.7,37.2,183.7,37.2,183.7z"/>
	<path fill="#4F392A" d="M37.2,180c0,0,0.1,0,0.1,0c0.7,0.1,1.1,0.7,1.1,1.5c-0.1,0.7-0.6,1.2-1.2,1.2c0,0-0.1,0-0.1,0
		c-0.7-0.1-1.1-0.7-1.1-1.5C36.1,180.5,36.6,180,37.2,180 M37.2,178c-1.6,0-3,1.3-3.2,3c-0.2,1.8,1.1,3.5,2.8,3.6c0.1,0,0.2,0,0.3,0
		c1.6,0,3-1.3,3.2-3c0.2-1.8-1.1-3.4-2.8-3.6C37.5,178,37.3,178,37.2,178L37.2,178z"/>
</g>
<g>
	<path fill-rule="evenodd" clip-rule="evenodd" fill="#A27556" d="M84,189.4c-0.4,0-0.8,0-1.2-0.1l-0.9-0.1l0-1.1l0-9.5l0.6-0.3
		c0.5-0.2,0.9-0.3,1.4-0.3c2.3,0,5.1,2.2,6.1,8.5l0.1,0.6l-0.5,0.4C88.1,188.7,86.1,189.4,84,189.4L84,189.4z"/>
	<path fill="#4F392A" d="M84,179c2.2,0,4.3,2.5,5.1,7.7c-1.5,1.1-3.3,1.7-5.1,1.7c-0.4,0-0.7,0-1.1-0.1l0-0.2v-8.9
		C83.3,179.1,83.7,179,84,179 M84,177c-0.6,0-1.2,0.1-1.8,0.3l-1.3,0.5v1.4v8.8l0,0.2l-0.1,1.8l1.8,0.2c0.4,0.1,0.9,0.1,1.3,0.1
		c2.3,0,4.5-0.8,6.3-2.1l0.9-0.7l-0.2-1.2C90.1,179.5,86.8,177,84,177L84,177z"/>
</g>
<path fill-rule="evenodd" clip-rule="evenodd" fill="#BF9D86" d="M89.1,186.7c-0.9-5.9-3.7-8.4-6.2-7.4v1.8c1.5,1.2,3.6,3.3,5.3,5.1
	c-0.6,1.1-2.4,2.2-4.2,2.2C85.9,188.4,87.7,187.8,89.1,186.7z"/>
<g>
	<path fill-rule="evenodd" clip-rule="evenodd" fill="#A27556" d="M87.2,183.7c-0.1,0-0.2,0-0.2,0c-1.2-0.1-2.1-1.3-1.9-2.6
		c0.1-1.2,1-2.1,2.2-2.1c0.1,0,0.2,0,0.2,0c1.2,0.1,2.1,1.3,1.9,2.6C89.3,182.8,88.4,183.7,87.2,183.7L87.2,183.7z"/>
	<path fill="#4F392A" d="M87.2,180c0,0,0.1,0,0.1,0c0.7,0.1,1.1,0.7,1.1,1.5c-0.1,0.7-0.6,1.2-1.2,1.2c0,0-0.1,0-0.1,0
		c-0.7-0.1-1.1-0.7-1.1-1.5C86.1,180.5,86.6,180,87.2,180 M87.2,178c-1.7,0-3,1.3-3.2,3c-0.2,1.8,1.1,3.4,2.8,3.6c0.1,0,0.2,0,0.3,0
		c1.7,0,3-1.3,3.2-3c0.2-1.8-1.1-3.4-2.8-3.6C87.5,178,87.3,178,87.2,178L87.2,178z"/>
</g>
<g>
	<path fill-rule="evenodd" clip-rule="evenodd" fill="#A27556" d="M134,189.4c-0.4,0-0.8,0-1.2-0.1l-0.9-0.1l0-1.1l0-9.5l0.6-0.3
		c0.5-0.2,0.9-0.3,1.4-0.3c2.3,0,5.1,2.2,6.1,8.5l0.1,0.6l-0.5,0.4C138.1,188.7,136.1,189.4,134,189.4L134,189.4z"/>
	<path fill="#4F392A" d="M134,179c2.2,0,4.3,2.5,5.1,7.7c-1.5,1.1-3.3,1.7-5.1,1.7c-0.4,0-0.7,0-1.1-0.1l0-0.2v-8.9
		C133.3,179.1,133.7,179,134,179 M134,177c-0.6,0-1.2,0.1-1.8,0.3l-1.3,0.5v1.4v8.8l0,0.2l-0.1,1.8l1.8,0.2c0.4,0.1,0.9,0.1,1.3,0.1
		c2.3,0,4.5-0.8,6.3-2.1l0.9-0.7l-0.2-1.2C140.1,179.5,136.8,177,134,177L134,177z"/>
</g>
<path fill-rule="evenodd" clip-rule="evenodd" fill="#BF9D86" d="M139.1,186.7c-0.9-5.9-3.7-8.4-6.2-7.4v1.8
	c1.5,1.2,3.6,3.3,5.3,5.1c-0.6,1.1-2.4,2.2-4.2,2.2C135.9,188.4,137.7,187.8,139.1,186.7z"/>
<g>
	<path fill-rule="evenodd" clip-rule="evenodd" fill="#A27556" d="M137.2,183.7c-0.1,0-0.2,0-0.2,0c-1.2-0.1-2.1-1.3-1.9-2.6
		c0.1-1.2,1-2.1,2.2-2.1c0.1,0,0.2,0,0.2,0c1.2,0.1,2.1,1.3,1.9,2.6C139.3,182.8,138.4,183.7,137.2,183.7L137.2,183.7z"/>
	<path fill="#4F392A" d="M137.2,180c0,0,0.1,0,0.1,0c0.7,0.1,1.1,0.7,1.1,1.5c-0.1,0.7-0.6,1.2-1.2,1.2c0,0-0.1,0-0.1,0
		c-0.7-0.1-1.1-0.7-1.1-1.5C136.1,180.5,136.6,180,137.2,180 M137.2,178c-1.7,0-3,1.3-3.2,3c-0.2,1.8,1.1,3.4,2.8,3.6
		c0.1,0,0.2,0,0.3,0c1.7,0,3-1.3,3.2-3c0.2-1.8-1.1-3.4-2.8-3.6C137.5,178,137.3,178,137.2,178L137.2,178z"/>
</g>
</svg>
