<svg version="1.1" id="Layer_3" xmlns="http://www.w3.org/2000/svg" x="0" y="0" width="150" height="250" viewBox="0 0 150 250" xml:space="preserve"><path fill-rule="evenodd" clip-rule="evenodd" fill="#333" d="M30.9 40.4c-.6.6-1.4 1-2.3 1h-7.5c-2.4 0-3.2-2.1-3.2-4.2h13.8c.1 1.3.2 2.2-.8 3.2z"/><path fill-rule="evenodd" clip-rule="evenodd" fill="#333" d="M80.9 40.4c-.6.6-1.4 1-2.3 1h-7.5c-2.4 0-3.2-2.1-3.2-4.2h13.8c.1 1.3.2 2.2-.8 3.2z"/><path fill-rule="evenodd" clip-rule="evenodd" fill="#333" d="M130.9 40.4c-.6.6-1.4 1-2.3 1h-7.5c-2.4 0-3.2-2.1-3.2-4.2h13.8c.1 1.3.2 2.2-.8 3.2z"/><path fill-rule="evenodd" clip-rule="evenodd" fill="#333" d="M130.9 90.4c-.6.6-1.4 1-2.3 1h-7.5c-2.4 0-3.2-2.1-3.2-4.2h13.8c.1 1.3.2 2.2-.8 3.2z"/><path fill-rule="evenodd" clip-rule="evenodd" fill="#333" d="M80.9 90.4c-.6.6-1.4 1-2.3 1h-7.5c-2.4 0-3.2-2.1-3.2-4.2h13.8c.1 1.3.2 2.2-.8 3.2z"/><path fill-rule="evenodd" clip-rule="evenodd" fill="#333" d="M30.9 90.4c-.6.6-1.4 1-2.3 1h-7.5c-2.4 0-3.2-2.1-3.2-4.2h13.8c.1 1.3.2 2.2-.8 3.2z"/><path fill-rule="evenodd" clip-rule="evenodd" fill="#333" d="M30.9 140.4c-.6.6-1.4 1-2.3 1h-.8l-1.3-2.1c1.4-.3.5-.2 2.7-.2 0-.7-.2-1.3-.6-1.8h3.2c0 1.2.1 2.1-.9 3.1zm-6.2 1h-3.5c-2.4 0-3.2-2.1-3.2-4.2h5.7l.1.5c-.6 1.3-.3 2.9.9 3.7z"/><path fill-rule="evenodd" clip-rule="evenodd" fill="#333" d="M80.9 140.4c-.6.6-1.4 1-2.3 1h-3l-.8-1.9c1.1 0 1.6.1 2.7.3.2-.9-.1-1.8-.8-2.5h5c.1 1.2.2 2.1-.8 3.1zm-8 1h-1.7c-2.4 0-3.2-2.1-3.2-4.2h4.4v.3c-.9 1.2-.7 2.9.5 3.9z"/><path fill-rule="evenodd" clip-rule="evenodd" fill="#333" d="M130.9 140.4c-.6.6-1.4 1-2.3 1h-5.1l-.4-2c1.2.2.9.1 2.6.7.3-.9.2-1.8-.3-2.6v-.3h6.3c.1 1.3.2 2.2-.8 3.2zm-9.5 1h-.2c-2.4 0-3.2-2.1-3.2-4.2h2.9c-.9 1-.9 2.6-.1 3.7.2.2.4.4.6.5z"/><path fill-rule="evenodd" clip-rule="evenodd" fill="#333" d="M130.9 190.4c-.6.6-1.4 1-2.3 1 .2-.1.4-.3.5-.5.9-1.1.8-2.6-.1-3.7h2.8c0 1.3.1 2.2-.9 3.2zm-4.5 1h-5.2c-2.4 0-3.2-2.1-3.2-4.2h6.4v.3c-.5.8-.6 1.7-.3 2.6 2.1-.8 1.2-.5 2.6-.8l-.3 2.1z"/><path fill-rule="evenodd" clip-rule="evenodd" fill="#333" d="M80.9 190.4c-.6.6-1.4 1-2.3 1h-1.5c1.1-1 1.3-2.7.4-3.9v-.3h4.3c0 1.3.1 2.2-.9 3.2zm-6.5 1h-3.2c-2.4 0-3.2-2.1-3.2-4.2h5.2c-.6.7-.9 1.6-.8 2.5 2.2-.4 1.3-.3 2.7-.3l-.7 2z"/><path fill-rule="evenodd" clip-rule="evenodd" fill="#333" d="M30.9 190.4c-.6.6-1.4 1-2.3 1h-3.4c1.2-.8 1.5-2.4.9-3.7l.1-.5h5.6c0 1.3.1 2.2-.9 3.2zm-8.8 1h-1c-2.4 0-3.2-2.1-3.2-4.2h3.4c-.4.5-.7 1.2-.6 1.8 1.2 0 1.7 0 2.7.2l-1.3 2.2z"/><path fill-rule="evenodd" clip-rule="evenodd" fill="#333" d="M30.9 240.4c-.6.6-1.4 1-2.3 1h-7.5c-2.4 0-3.2-2.1-3.2-4.2h13.8c.1 1.3.2 2.2-.8 3.2z"/><path fill-rule="evenodd" clip-rule="evenodd" fill="#333" d="M80.9 240.4c-.6.6-1.4 1-2.3 1h-7.5c-2.4 0-3.2-2.1-3.2-4.2h13.8c.1 1.3.2 2.2-.8 3.2z"/><path fill-rule="evenodd" clip-rule="evenodd" fill="#333" d="M130.9 240.4c-.6.6-1.4 1-2.3 1h-7.5c-2.4 0-3.2-2.1-3.2-4.2h13.8c.1 1.3.2 2.2-.8 3.2z"/></svg>