<svg xmlns="http://www.w3.org/2000/svg" xmlns:xlink="http://www.w3.org/1999/xlink" width="150" height="250" viewBox="0 0 150 250"><g id="stroke_legs_1_"><defs><path id="SVGID_1_" d="M0 0v250h150V0H0zm124.9 2.6c6.6 0 11.9 5.3 11.9 11.9 0 2.4-.7 4.6-1.9 6.5.5.7.8 1.5.8 2.3 0 3.4-4.8 6.2-10.7 6.2s-10.7-2.8-10.7-6.2c0-.8.3-1.6.8-2.3-1.2-1.9-1.9-4.1-1.9-6.5-.1-6.6 5.2-11.9 11.7-11.9zm0 50c6.6 0 11.9 5.3 11.9 11.9 0 2.4-.7 4.6-1.9 6.5.5.7.8 1.5.8 2.3 0 3.4-4.8 6.2-10.7 6.2s-10.7-2.8-10.7-6.2c0-.8.3-1.6.8-2.3-1.2-1.9-1.9-4.1-1.9-6.5-.1-6.6 5.2-11.9 11.7-11.9zm-50-50c6.6 0 11.9 5.3 11.9 11.9 0 2.4-.7 4.6-1.9 6.5.5.7.8 1.5.8 2.3 0 3.4-4.8 6.2-10.7 6.2s-10.7-2.8-10.7-6.2c0-.8.3-1.6.8-2.3-1.2-1.9-1.9-4.1-1.9-6.5-.1-6.6 5.2-11.9 11.7-11.9zm0 50c6.6 0 11.9 5.3 11.9 11.9 0 2.4-.7 4.6-1.9 6.5.5.7.8 1.5.8 2.3 0 3.4-4.8 6.2-10.7 6.2s-10.7-2.8-10.7-6.2c0-.8.3-1.6.8-2.3-1.2-1.9-1.9-4.1-1.9-6.5-.1-6.6 5.2-11.9 11.7-11.9zm-50-50c6.6 0 11.9 5.3 11.9 11.9 0 2.4-.7 4.6-1.9 6.5.5.7.8 1.5.8 2.3 0 3.4-4.8 6.2-10.7 6.2-5.9 0-10.7-2.8-10.7-6.2 0-.8.3-1.6.8-2.3-1.2-1.9-1.9-4.1-1.9-6.5-.1-6.6 5.2-11.9 11.7-11.9zm0 50c6.6 0 11.9 5.3 11.9 11.9 0 2.4-.7 4.6-1.9 6.5.5.7.8 1.5.8 2.3 0 3.4-4.8 6.2-10.7 6.2-5.9 0-10.7-2.8-10.7-6.2 0-.8.3-1.6.8-2.3-1.2-1.9-1.9-4.1-1.9-6.5-.1-6.6 5.2-11.9 11.7-11.9zm10.7 170.7c0 3.4-4.8 6.2-10.7 6.2-5.9 0-10.7-2.8-10.7-6.2 0-.8.3-1.6.8-2.3-1.2-1.9-1.9-4.1-1.9-6.5 0-6.6 5.3-11.9 11.9-11.9 6.6 0 11.9 5.3 11.9 11.9 0 2.4-.7 4.6-1.9 6.5.3.7.6 1.4.6 2.3zm-10.5-43.8c-5.8 0-10.5-2.7-10.7-6-1.3.5-2.5.4-2.8-.2-.3-.7.6-1.9 2.1-2.6.4-.2.7-.3 1.1-.4-1-1.7-1.5-3.7-1.5-5.8 0-6.6 5.3-11.9 11.9-11.9 6.6 0 11.9 5.3 11.9 11.9-.2 8.4-2.1 15-12 15zm13.4-56.3c-.3.6-1.5.7-2.8.2-.2 3.4-4.9 6-10.7 6-9.9 0-11.9-6.6-11.9-15.1 0-6.6 5.3-11.9 11.9-11.9 6.6 0 11.9 5.3 11.9 11.9 0 2.1-.6 4.1-1.5 5.8.3.1.7.2 1.1.4 1.3.9 2.3 2 2 2.7zm47.1 100.1c0 3.4-4.8 6.2-10.7 6.2s-10.7-2.8-10.7-6.2c0-.8.3-1.6.8-2.3-1.2-1.9-1.9-4.1-1.9-6.5 0-6.6 5.3-11.9 11.9-11.9 6.6 0 11.9 5.3 11.9 11.9 0 2.4-.7 4.6-1.9 6.5.3.7.6 1.4.6 2.3zm-10.5-43.8c-5.8 0-10.5-2.7-10.7-6-1.3.5-2.5.4-2.8-.2-.3-.7.6-1.9 2.1-2.6.4-.2.7-.3 1.1-.4-1-1.7-1.5-3.7-1.5-5.8 0-6.6 5.3-11.9 11.9-11.9 6.6 0 11.9 5.3 11.9 11.9-.2 8.4-2.1 15-12 15zm13.4-56.3c-.3.6-1.5.7-2.8.2-.2 3.4-4.9 6-10.7 6-9.9 0-11.9-6.6-11.9-15.1 0-6.6 5.3-11.9 11.9-11.9 6.6 0 11.9 5.3 11.9 11.9 0 2.1-.6 4.1-1.5 5.8.3.1.7.2 1.1.4 1.3.9 2.3 2 2 2.7zm47.1 100.1c0 3.4-4.8 6.2-10.7 6.2s-10.7-2.8-10.7-6.2c0-.8.3-1.6.8-2.3-1.2-1.9-1.9-4.1-1.9-6.5 0-6.6 5.3-11.9 11.9-11.9 6.6 0 11.9 5.3 11.9 11.9 0 2.4-.7 4.6-1.9 6.5.3.7.6 1.4.6 2.3zm-10.5-43.8c-5.8 0-10.5-2.7-10.7-6-1.3.5-2.5.4-2.8-.2-.3-.7.6-1.9 2.1-2.6.4-.2.7-.3 1.1-.4-1-1.7-1.5-3.7-1.5-5.8 0-6.6 5.3-11.9 11.9-11.9 6.6 0 11.9 5.3 11.9 11.9-.2 8.4-2.1 15-12 15zm13.4-56.3c-.3.6-1.5.7-2.8.2-.2 3.4-4.9 6-10.7 6-9.9 0-11.9-6.6-11.9-15.1 0-6.6 5.3-11.9 11.9-11.9 6.6 0 11.9 5.3 11.9 11.9 0 2.1-.6 4.1-1.5 5.8.3.1.7.2 1.1.4 1.3.9 2.3 2 2 2.7z"/></defs><clipPath id="SVGID_2_"><use xlink:href="#SVGID_1_" overflow="visible"/></clipPath><g id="stroke_legs" clip-path="url(#SVGID_2_)"><path fill-rule="evenodd" clip-rule="evenodd" fill="#4F392A" d="M123.8 90.7v2c0 .8-.6 1.4-1.4 1.4h-1.6c-.8 0-1.4-.6-1.4-1.4v-2.9c-.4-.5-.7-1.1-.7-1.7v-6.2l-2.7 4.7c.2.9 0 1.8-.6 2.5-1.7-1.5-1-.9-2.2-1.6l-.3 2.6c-1.1-.1-2-.9-2.3-1.9-.5-1.4.2-3 1.6-3.6l3.2-5.6c.4-.7 1.3-.9 1.9-.5 0 0 13.7-4.1 15.2-1.5l3.2 5.6c1.4.6 2.1 2.1 1.6 3.6-.4 1-1.3 1.8-2.3 1.9l-.4-2.6c-1.2.7-.5.2-2.2 1.6-.6-.7-.8-1.7-.6-2.5l-.7-1.2v4.7c0 .7-.3 1.4-.8 1.9.1.2.1.4.1.6v5.2c0 .8-.6 1.4-1.4 1.4h-1.6c-.8 0-1.4-.6-1.4-1.4v-5h-2.2v-.1zm.3 5c-.5.3-1.1.5-1.7.5h-1.6c-.9 0-1.8-.4-2.4-1-.6-.6-1-1.5-1-2.4v-2.3c-.1-.1-.1-.2-.2-.3-.1.1-.2.2-.2.3l-1.3 1.5-.9-.8-.2 1.2-2-.3c-.9-.1-1.8-.5-2.4-1.1-.7-.6-1.2-1.3-1.5-2.2-.4-1.2-.3-2.5.2-3.5.4-.9 1-1.6 1.9-2.2l2.9-5.1.1-.2v-.1c.5-.7 1.1-1.1 1.9-1.3.5-.1 1.1-.2 1.7 0 .6-.2 1.5-.4 2.7-.7l.7-1.2v1.1c4.7-1.1 12-2.2 13.5.5l2.9 5.1c.9.5 1.5 1.3 1.9 2.2.5 1.1.6 2.3.2 3.5-.3.9-.8 1.6-1.5 2.2-.7.6-1.5.9-2.4 1.1l-2 .3-.2-1.2-.2.1c-.1.2-.1.4-.2.6l-.3.6v5.3c0 .9-.4 1.8-1 2.4-.6.6-1.5 1-2.4 1h-1.6c-.9 0-1.8-.4-2.4-1-.6-.8-1-1.6-1-2.6z"/><path fill-rule="evenodd" clip-rule="evenodd" fill="#4F392A" d="M116.4 36.1c.6-.7.8-1.7.6-2.5l1.7-2.9v7.4c0 .7.3 1.4.8 1.9-.1.2-.1.4-.1.6v5.2c0 .8.6 1.4 1.4 1.4h1.6c.8 0 1.4-.6 1.4-1.4v-5h2.3v2c0 .8.6 1.4 1.4 1.4h1.6c.8 0 1.4-.6 1.4-1.4v-2.9c.4-.5.7-1.1.7-1.7V32l2.7 4.7c-.2.9 0 1.8.6 2.5.9-.8 1.3-1.1 2.2-1.6l.4 2.6c1.1-.1 2-.9 2.3-1.9.5-1.4-.2-3-1.6-3.6l-3.2-5.6c-.4-.7-1.2-.9-1.9-.5-1.6.9-13.3-7.6-16.2-2.5l-3.2 5.6c-1.4.6-2.1 2.1-1.6 3.6.3 1 1.3 1.8 2.3 1.9l.4-2.6c.8.5 1.1.7 2 1.5zm11.1 10c-.6 0-1.2-.2-1.7-.5v.1c0 .9-.4 1.8-1 2.4-.6.6-1.5 1-2.4 1h-1.6c-.9 0-1.8-.4-2.4-1-.6-.6-1-1.5-1-2.4v-5.3l-.3-.6c-.1-.3-.2-.7-.3-1l-.1.1-.9-.8-.2 1.2-2-.3c-.9-.1-1.8-.5-2.4-1.1-.7-.6-1.2-1.3-1.5-2.2-.4-1.2-.3-2.5.2-3.5.4-.9 1-1.6 1.9-2.2l2.9-5.1c2.8-5 9.6-1.9 14.5.3v-.8l.7 1.2c1 .6 1.5 1.3 1.8 1.1.8-.5 1.7-.6 2.6-.3.8.2 1.6.8 2.1 1.6l2.9 5.1c.8.5 1.5 1.3 1.9 2.2.5 1.1.6 2.3.2 3.5-.3.9-.8 1.6-1.5 2.2-.7.6-1.5.9-2.4 1.1l-2 .3-.2-1.2-.9.8-1.3-1.5c-.1-.1-.2-.2-.2-.3-.1.1-.1.2-.2.3v2.3c0 .9-.4 1.8-1 2.4-.6.6-1.5 1-2.4 1h-1.8z"/><path fill-rule="evenodd" clip-rule="evenodd" fill="#4F392A" d="M23.8 40.7v2c0 .8-.6 1.4-1.4 1.4h-1.6c-.8 0-1.4-.6-1.4-1.4v-2.9c-.4-.5-.7-1.1-.7-1.7v-6.2L16 36.6c.2.9 0 1.8-.6 2.5-.9-.8-1.3-1.1-2.2-1.6l-.4 2.6c-1.1-.1-2-.9-2.3-1.9-.5-1.4.2-3 1.6-3.6l3.2-5.6c.4-.7 1.3-.9 1.9-.5l1.4.8s12.8-7.1 14.9-3.3l3.2 5.6c1.4.6 2.1 2.1 1.6 3.6-.3 1-1.3 1.8-2.3 1.9l-.4-2.6c-1 .6-1.3.8-2.2 1.6-.6-.7-.8-1.7-.6-2.5l-1.7-2.9v7.4c0 .7-.3 1.4-.8 1.9.1.2.1.4.1.6v5.2c0 .8-.6 1.4-1.4 1.4h-1.6c-.8 0-1.4-.6-1.4-1.4v-5h-2.2v-.1zm.3 5c-.5.3-1.1.5-1.7.5h-1.6c-.9 0-1.8-.4-2.4-1-.6-.6-1-1.5-1-2.4v-2.3c-.1-.1-.1-.2-.2-.3-.1.1-.2.2-.2.3L15.7 42l-.9-.8-.2 1.2-2-.3c-.9-.1-1.8-.5-2.4-1.1-.7-.6-1.2-1.3-1.5-2.2-.4-1.2-.3-2.5.2-3.5.4-.9 1-1.6 1.9-2.2l2.9-5.1.1-.2v-.1c.5-.7 1.1-1.1 1.9-1.3.8-.2 1.8-.1 2.6.3l.2.1.2.1c.2-.1.5-.3.8-.4l1.2-2.1V26c4.4-2 12.3-5 14.5-1l2.9 5.1c.8.5 1.5 1.3 1.9 2.2.5 1.1.6 2.3.2 3.5-.3.9-.8 1.6-1.5 2.2-.7.6-1.5.9-2.4 1.1l-2 .3-.2-1.2-.9.8-.1-.1c-.1.4-.2.7-.3 1l-.3.6v5.3c0 .9-.4 1.8-1 2.4-.6.6-1.5 1-2.4 1h-1.6c-.9 0-1.8-.4-2.4-1-.6-.7-1-1.5-1-2.5z"/><path fill-rule="evenodd" clip-rule="evenodd" fill="#4F392A" d="M72.9 190.7v5c0 .8.6 1.4 1.4 1.4h1.6c.8 0 1.4-.6 1.4-1.4v-3.3l.6-1.2.8-.6c1.4 0 2.6-1.2 2.6-2.6v-9.7c0-1.4-1.2-2.6-2.6-2.6h-7.2c-1.4 0-2.6 1.2-2.6 2.6v9.7c0 1.4 1.2 2.6 2.6 2.6h1.4v.1zm-2 5v-3.1c-1-.1-2-.6-2.7-1.3-.8-.8-1.3-2-1.3-3.3v-9.7c0-1.3.5-2.4 1.3-3.2.8-.8 2-1.4 3.2-1.4h7.2c1.3 0 2.4.5 3.2 1.4.8.8 1.3 2 1.3 3.2v9.7c0 1.3-.5 2.4-1.3 3.3-.7.7-1.6 1.2-2.7 1.3v3.1c0 .9-.4 1.8-1 2.4-.6.6-1.5 1-2.4 1h-1.6c-.9 0-1.8-.4-2.4-1-.4-.6-.8-1.4-.8-2.4z"/><path fill-rule="evenodd" clip-rule="evenodd" fill="#4F392A" d="M31.7 141.5l.3.5.1.2c.5.8.7 1.7.6 2.5-.1.8-.5 1.5-1.2 2l-.1.1-1.3.9c-.8.5-1.7.7-2.5.6-.9-.2-1.7-.6-2.2-1.4l-.3-.4-.4.5c-.5.8-1.3 1.2-2.2 1.4-.9.2-1.8 0-2.5-.6l-1.3-.9c-.8-.5-1.3-1.3-1.4-2.2-.2-.9 0-1.8.6-2.5l.5-.7-.2-.2c-.8-.8-1.3-2-1.3-3.2v-9.7c0-1.3.5-2.4 1.3-3.2.8-.8 2-1.4 3.2-1.4h7.2c1.3 0 2.4.5 3.2 1.4.8.8 1.3 2 1.3 3.2v9.7c0 1.2-.5 2.3-1.3 3.2 0 0-.1.1-.1.2zm-3-.8l1.8 2.6c.4.6.3 1.5-.3 2l-1.3.9c-.6.4-1.5.3-2-.3l-1.9-2.8-2 2.8c-.4.6-1.3.8-2 .3l-1.3-.9c-.6-.4-.8-1.3-.3-2l1.9-2.6c-1.4 0-2.5-1.2-2.5-2.6v-9.7c0-1.4 1.2-2.6 2.6-2.6h7.2c1.4 0 2.6 1.2 2.6 2.6v9.7c-.1 1.4-1.2 2.5-2.5 2.6z"/><path fill-rule="evenodd" clip-rule="evenodd" fill="#4F392A" d="M26.1 90.7v2c0 .8.6 1.4 1.4 1.4h1.6c.8 0 1.4-.6 1.4-1.4v-2.9c.4-.5.7-1.1.7-1.7v-6.2l2.7 4.7c-.2.9 0 1.8.6 2.5 1.7-1.5 1-.9 2.2-1.6l.4 2.6c1.1-.1 2-.9 2.3-1.9.5-1.4-.2-3-1.6-3.6L34.5 79c-.4-.7-1.3-.9-1.9-.5-3.7 2.2-11.1-8.7-15.2-1.5l-3.2 5.6c-1.4.6-2.1 2.1-1.6 3.6.4 1 1.3 1.8 2.3 1.9l.4-2.6c1.3.7.5.1 2.2 1.6.6-.7.8-1.7.6-2.5l.7-1.2v4.7c0 .7.3 1.4.8 1.9-.1.2-.1.4-.1.6v5.2c0 .8.6 1.4 1.4 1.4h1.6c.8 0 1.4-.6 1.4-1.4v-5h2.2v-.1zm1.4 5.4c-.6 0-1.2-.2-1.7-.5v.1c0 .9-.4 1.8-1 2.4-.6.6-1.5 1-2.4 1h-1.6c-.9 0-1.8-.4-2.4-1-.6-.6-1-1.5-1-2.4v-5.3l-.3-.6c-.1-.2-.1-.4-.2-.6l-.2-.1-.2 1.2-2-.3c-.9-.1-1.8-.5-2.4-1.1-.7-.6-1.2-1.3-1.5-2.2-.4-1.2-.3-2.5.2-3.5.4-.9 1-1.6 1.9-2.2l2.9-5.1c3.5-6.1 8-3.4 12.2-.9.5.3.9.5 1.3.8v-1.4l1.1 2c.6.3 1.1.4 1.3.3.8-.5 1.7-.6 2.6-.3.8.2 1.6.8 2.1 1.6l2.9 5.1c.8.5 1.5 1.3 1.9 2.2.5 1.1.6 2.3.2 3.5-.3.9-.8 1.6-1.5 2.2-.7.6-1.5.9-2.4 1.1l-2 .3-.2-1.2-.9.8-1.3-1.5c-.1-.1-.2-.2-.2-.3-.1.1-.1.2-.2.3v2.3c0 .9-.4 1.8-1 2.4-.6.6-1.5 1-2.4 1h-1.6z"/><path fill-rule="evenodd" clip-rule="evenodd" fill="#4F392A" d="M76.1 90.7v5c0 .8.6 1.4 1.4 1.4h1.6c.8 0 1.4-.6 1.4-1.4v-5.2c0-.2 0-.4-.1-.6.5-.5.8-1.1.8-1.9v-6.2l2.7 4.7c-.2.9 0 1.8.6 2.5l1.4-1.2.5-.3.4 2.6c1.1-.1 2-.9 2.3-1.9.5-1.4-.2-3-1.6-3.6l-3-5.6c-.4-.7-1.2-.9-1.9-.5l-1.4.8-.1.1v-.9c0-1.4-1.2-2.6-2.6-2.6h-7.2c-1.4 0-2.6 1.2-2.6 2.6v.9l-1.4-.8c-.7-.4-1.5-.2-1.9.5l-3.2 5.6c-1.4.6-2.1 2.1-1.6 3.6.4 1 1.3 1.8 2.3 1.9l.4-2.6.5.3 1.4 1.2c.6-.7.8-1.7.6-2.5l2.7-4.7v6.2c0 .7.3 1.4.8 1.9-.1.2-.1.4-.1.6v5.2c0 .8.6 1.4 1.4 1.4h1.6c.8 0 1.4-.6 1.4-1.4v-5h2.5v-.1zm-1 7.4l-.2-.1-.2.2c-.6.6-1.5 1-2.4 1h-1.6c-.9 0-1.8-.4-2.4-1-.6-.6-1-1.5-1-2.4v-5.3c-.1-.1-.1-.2-.2-.3-.1.1-.2.2-.2.3L65.6 92l-.9-.8-.2 1.2-2-.3c-.9-.1-1.8-.5-2.4-1.1-.7-.6-1.2-1.3-1.5-2.2-.4-1.2-.3-2.5.2-3.5.4-.9 1-1.6 1.9-2.2l2.9-5.1.1-.3.1-.1c.5-.7 1.1-1.1 1.9-1.3.5-.1 1-.2 1.5-.1.2-.4.5-.8.9-1.2.8-.8 2-1.4 3.2-1.4h7.2c1.3 0 2.4.5 3.2 1.4.3.3.6.8.9 1.2.5-.1 1-.1 1.5.1.8.2 1.6.8 2.1 1.6l2.9 5.1c.8.5 1.5 1.3 1.9 2.2.5 1.1.6 2.3.2 3.5-.3.9-.8 1.6-1.5 2.2-.7.6-1.5.9-2.4 1.1l-2 .3-.2-1.2-.9.8-1.3-1.5c-.1-.1-.2-.2-.2-.3-.1.1-.1.2-.2.3v5.3c0 .9-.4 1.8-1 2.4-.6.6-1.5 1-2.4 1h-1.6c-.9 0-1.8-.3-2.4-1z"/><path fill-rule="evenodd" clip-rule="evenodd" fill="#4F392A" d="M28.7 175.8h-7.2c-1.4 0-2.6 1.2-2.6 2.6v9.7c0 1.4 1.1 2.5 2.5 2.6l-1.8 2.6c-.4.6-.3 1.5.3 2l1.3.9c.6.4 1.5.3 2-.3l1.9-2.8 2 2.8c.4.6 1.3.8 2 .3l1.3-.9c.6-.4.8-1.3.3-2l-1.9-2.6c1.4 0 2.5-1.2 2.5-2.6v-9.7c0-1.4-1.2-2.6-2.6-2.6zm-7.2-2h7.2c1.3 0 2.4.5 3.2 1.4.8.8 1.3 2 1.3 3.2v9.7c0 1.2-.5 2.4-1.3 3.2l-.2.2.5.7c.5.8.7 1.7.6 2.5-.1.9-.6 1.7-1.4 2.2l-1.3.9c-.8.5-1.7.7-2.5.6-.9-.2-1.7-.6-2.2-1.4l-.4-.5-.3.4c-.5.8-1.3 1.3-2.2 1.4-.9.1-1.8 0-2.5-.6l-1.3-.9-.1-.1c-.7-.5-1.1-1.3-1.2-2.1-.1-.8 0-1.8.6-2.5l.1-.2.3-.5c-.1-.1-.2-.1-.2-.2-.8-.8-1.3-1.9-1.3-3.2v-9.7c0-1.3.5-2.4 1.3-3.2.8-.8 2-1.3 3.3-1.3z"/><path fill-rule="evenodd" clip-rule="evenodd" fill="#4F392A" d="M121.3 123.8h7.2c1.3 0 2.4.5 3.2 1.4.8.8 1.3 2 1.3 3.2v9.7c0 1.2-.5 2.3-1.3 3.2l-.2.2.3.5.1.2c.5.8.7 1.7.6 2.5-.1.8-.6 1.5-1.2 2.1l-.1.1-1.3.9c-.8.5-1.7.7-2.5.6-.9-.2-1.7-.6-2.2-1.4l-.3-.4-.4.5c-.5.8-1.3 1.2-2.2 1.4-.9.2-1.8 0-2.5-.6l-1.3-.9c-.8-.5-1.3-1.3-1.4-2.2-.2-.9 0-1.8.6-2.5l.5-.7c-.1-.1-.2-.1-.2-.2-.8-.8-1.3-2-1.3-3.2v-9.7c0-1.3.5-2.4 1.3-3.2.9-1 2-1.5 3.3-1.5zm0 2h7.2c1.4 0 2.6 1.2 2.6 2.6v9.7c0 1.4-1.1 2.5-2.5 2.6l1.8 2.6c.4.6.3 1.5-.3 2l-1.3.9c-.6.4-1.5.3-2-.3l-1.9-2.8-2 2.8c-.4.6-1.3.8-2 .3l-1.3-.9c-.6-.4-.8-1.3-.3-2l1-1.5s.2-1.3-.1-1.4c-.9-.4-1.5-1.3-1.5-2.4v-9.7c0-1.3 1.2-2.5 2.6-2.5z"/><path fill-rule="evenodd" clip-rule="evenodd" fill="#4F392A" d="M128.7 175.8h-7.2c-1.4 0-2.6 1.2-2.6 2.6v9.7c0 1.4 1.1 2.5 2.5 2.6l-1.8 2.6c-.4.6-.3 1.5.3 2l1.3.9c.6.4 1.5.3 2-.3l1.9-2.8 2 2.8c.4.6 1.3.8 2 .3l1.3-.9c.6-.4.8-1.3.3-2l-1.1-1.5s.1-1.2.4-1.4c.8-.5 1.3-1.3 1.3-2.3v-9.7c0-1.4-1.2-2.6-2.6-2.6zm-7.2-2h7.2c1.3 0 2.4.5 3.2 1.4.8.8 1.3 2 1.3 3.2v9.7c0 1.2-.5 2.4-1.3 3.2l-.2.2.5.7c.5.8.7 1.7.6 2.5-.2.9-.6 1.7-1.4 2.2l-1.3.9c-.8.5-1.7.7-2.5.6-.9-.2-1.7-.6-2.2-1.4l-.4-.5-.3.4c-.5.8-1.3 1.3-2.2 1.4-.9.1-1.8 0-2.5-.6l-1.3-.9-.1-.1c-.7-.5-1.1-1.3-1.2-2-.2-.8 0-1.8.6-2.5l.1-.2.3-.5c-.1-.1-.2-.1-.2-.2-.8-.8-1.3-1.9-1.3-3.2v-9.7c0-1.3.5-2.4 1.3-3.2.8-.9 2-1.4 3.3-1.4z"/><path fill-rule="evenodd" clip-rule="evenodd" fill="#4F392A" d="M65.4 39.1c.6-.7.8-1.7.6-2.5l2.7-4.7v6.2c0 .7.3 1.4.8 1.9-.1.2-.1.4-.1.6v5.2c0 .8.6 1.4 1.4 1.4h1.6c.8 0 1.4-.6 1.4-1.4v-5h2.3v5c0 .8.6 1.4 1.4 1.4h1.6c.8 0 1.4-.6 1.4-1.4v-5.2c0-.2 0-.4-.1-.6.5-.5.8-1.1.8-1.9v-6.2l2.7 4.7c-.2.9 0 1.8.6 2.5 1.7-1.5 1-.9 2.2-1.6l.4 2.6c1.1-.1 2-.9 2.3-1.9.5-1.4-.2-3-1.6-3.6L84.5 29c-.4-.7-1.2-.9-1.9-.5-.3.2-14.9.3-15.3 0-.7-.4-1.5-.2-1.9.5l-3.2 5.6c-1.4.6-2.1 2.1-1.6 3.6.4 1 1.3 1.8 2.3 1.9l.4-2.6c.9.6 1.2.8 2.1 1.6zm9.7 9l-.2-.1-.2.2c-.6.6-1.5 1-2.4 1h-1.6c-.9 0-1.8-.4-2.4-1-.6-.6-1-1.5-1-2.4v-5.3c-.1-.1-.1-.2-.2-.3-.1.1-.2.2-.2.3L65.6 42l-.9-.8-.2 1.2-2-.3c-.9-.1-1.8-.5-2.4-1.1-.7-.6-1.2-1.3-1.5-2.2-.4-1.2-.3-2.5.2-3.5.4-.9 1-1.6 1.9-2.2l2.9-5.1.1-.3.1-.1c.5-.7 1.1-1.1 1.9-1.3.8-.2 1.8-.1 2.6.3h1.1l1.3-2.3v2.2c.9 0 2.1-.1 3.3-.1 1.9 0 3.7 0 5.1.1v-2.3l1.3 2.3h1.1c.8-.5 1.7-.6 2.6-.3.8.2 1.6.8 2.1 1.6l2.9 5.1c.8.5 1.5 1.3 1.9 2.2.5 1.1.6 2.3.2 3.5-.3.9-.8 1.6-1.5 2.2-.7.6-1.5.9-2.4 1.1l-2 .3-.2-1.2-.9.8-1.3-1.5c-.1-.1-.2-.2-.2-.3-.1.1-.1.2-.2.3v5.3c0 .9-.4 1.8-1 2.4-.6.6-1.5 1-2.4 1h-1.6c-.9.1-1.8-.2-2.4-.9z"/><path fill-rule="evenodd" clip-rule="evenodd" fill="#4F392A" d="M73.8 240.7v5c0 .8-.6 1.4-1.4 1.4h-1.6c-.8 0-1.4-.6-1.4-1.4v-5.2c0-.2 0-.4.1-.6-.5-.5-.8-1.1-.8-1.9v-6.2l-2.7 4.7c.2.9 0 1.8-.6 2.5-1.7-1.5-1-.9-2.2-1.6l-.4 2.6c-1.1-.1-2-.9-2.3-1.9-.5-1.4.2-3 1.6-3.6l3.2-5.6c.4-.7 1.3-.9 1.9-.5.5.3 14.9.3 15.3 0 .7-.4 1.5-.2 1.9.5l3.2 5.6c1.4.6 2.1 2.1 1.6 3.6-.4 1-1.3 1.8-2.3 1.9l-.4-2.6c-1.2.7-.5.2-2.2 1.6-.6-.7-.8-1.7-.6-2.5l-2.7-4.7v6.2c0 .7-.3 1.4-.8 1.9.1.2.1.4.1.6v5.2c0 .8-.6 1.4-1.4 1.4h-1.6c-.8 0-1.4-.6-1.4-1.4v-5h-2.1zm1.1 7.3l-.2.2c-.6.6-1.5 1-2.4 1h-1.6c-.9 0-1.8-.4-2.4-1-.6-.6-1-1.5-1-2.4v-5.3c-.1-.1-.1-.2-.2-.3-.1.1-.2.2-.2.3l-1.3 1.5-.9-.8-.2 1.2-2-.3c-.9-.1-1.8-.5-2.4-1.1-.7-.6-1.2-1.3-1.5-2.2-.4-1.2-.3-2.5.2-3.5.4-.9 1-1.6 1.9-2.2l2.9-5.1.1-.2v-.1c.5-.7 1.1-1.1 1.9-1.3.8-.2 1.8-.1 2.6.3h1.1l1.3-2.3v2.3H79v-2.3l1.3 2.3h1.1c.8-.5 1.7-.6 2.6-.3.8.2 1.6.8 2.1 1.6l2.9 5.1c.8.5 1.5 1.3 1.9 2.2.5 1.1.6 2.3.2 3.5-.3.9-.8 1.6-1.5 2.2-.7.6-1.5.9-2.4 1.1l-2 .3-.2-1.2-.9.8-1.3-1.5c-.1-.1-.2-.2-.2-.3-.1.1-.1.2-.2.3v5.3c0 .9-.4 1.8-1 2.4-.6.6-1.5 1-2.4 1h-1.6c-.9 0-1.8-.4-2.4-1l-.1-.2z"/><path fill-rule="evenodd" clip-rule="evenodd" fill="#4F392A" d="M123.8 240.7v5c0 .8-.6 1.4-1.4 1.4h-1.6c-.8 0-1.4-.6-1.4-1.4v-5.2c0-.2 0-.4.1-.6-.5-.5-.8-1.1-.8-1.9v-6.2l-2.7 4.7c.2.9 0 1.8-.6 2.5-1.7-1.5-1-.9-2.2-1.6l-.3 2.6c-1.1-.1-2-.9-2.3-1.9-.5-1.4.2-3 1.6-3.6l3.2-5.6c.4-.7 1.3-.9 1.9-.5.2.1 14.4.5 15.3 0 .7-.4 1.5-.2 1.9.5l3.2 5.6c1.4.6 2.1 2.1 1.6 3.6-.4 1-1.3 1.8-2.3 1.9l-.4-2.6c-.9.5-1.4.9-2.2 1.6-.6-.7-.8-1.7-.6-2.5l-2.7-4.7v6.2c0 .7-.3 1.4-.8 1.9.1.2.1.4.1.6v5.2c0 .8-.6 1.4-1.4 1.4h-1.6c-.8 0-1.4-.6-1.4-1.4v-5h-2.2zm1.1 7.3l-.2.2c-.6.6-1.5 1-2.4 1h-1.6c-.9 0-1.8-.4-2.4-1-.6-.6-1-1.5-1-2.4v-5.3c-.1-.1-.1-.2-.2-.3-.1.1-.2.2-.2.3l-1.3 1.5-.9-.8-.2 1.2-2-.3c-.9-.1-1.8-.5-2.4-1.1-.7-.6-1.2-1.3-1.5-2.2-.4-1.2-.3-2.5.2-3.5.4-.9 1-1.6 1.9-2.2l2.9-5.1.1-.2.1-.1c.5-.7 1.1-1.1 1.9-1.3.8-.2 1.8-.1 2.6.3h1.1l1.3-2.3v2.3h8.5v-2.3l1.3 2.3h1.1c.8-.5 1.7-.6 2.6-.3.8.2 1.6.8 2.1 1.6l2.9 5.1c.8.5 1.5 1.3 1.9 2.2.5 1.1.6 2.3.2 3.5-.3.9-.8 1.6-1.5 2.2-.7.6-1.5.9-2.4 1.1l-2 .3-.2-1.2-.9.8-1.3-1.5c-.1-.1-.2-.2-.2-.3-.1.1-.1.2-.2.3v5.3c0 .9-.4 1.8-1 2.4-.6.6-1.5 1-2.4 1h-1.6c-.9 0-1.8-.4-2.4-1l-.3-.2z"/><path fill-rule="evenodd" clip-rule="evenodd" fill="#4F392A" d="M23.8 240.7v5c0 .8-.6 1.4-1.4 1.4h-1.6c-.8 0-1.4-.6-1.4-1.4v-5.2c0-.2 0-.4.1-.6-.5-.5-.8-1.1-.8-1.9v-6.2l-2.7 4.7c.2.9 0 1.8-.6 2.5-1.7-1.5-1-.9-2.2-1.6l-.4 2.6c-1.1-.1-2-.9-2.3-1.9-.5-1.4.2-3 1.6-3.6l3.2-5.6c.4-.7 1.3-.9 1.9-.5.5.3 14.9.3 15.3 0 .7-.4 1.5-.2 1.9.5l3.2 5.6c1.4.6 2.1 2.1 1.6 3.6-.4 1-1.3 1.8-2.3 1.9l-.4-2.6c-1.2.7-.5.2-2.2 1.6-.6-.7-.8-1.7-.6-2.5l-2.7-4.7v6.2c0 .7-.3 1.4-.8 1.9.1.2.1.4.1.6v5.2c0 .8-.6 1.4-1.4 1.4h-1.6c-.8 0-1.4-.6-1.4-1.4v-5h-2.1zm1.1 7.3l-.2.2c-.6.6-1.5 1-2.4 1h-1.6c-.9 0-1.8-.4-2.4-1-.6-.6-1-1.5-1-2.4v-5.3c-.1-.1-.1-.2-.2-.3-.1.1-.2.2-.2.3l-1.3 1.5-.9-.8-.2 1.2-2-.3c-.9-.1-1.8-.5-2.4-1.1-.7-.6-1.2-1.3-1.5-2.2-.4-1.2-.3-2.5.2-3.5.4-.9 1-1.6 1.9-2.2l2.9-5.1.1-.2v-.1c.5-.7 1.1-1.1 1.9-1.3.8-.2 1.8-.1 2.6.3h1.1l1.3-2.3v2.3H29v-2.3l1.3 2.3h1.1c.8-.5 1.7-.6 2.6-.3.8.2 1.6.8 2.1 1.6l2.9 5.1c.8.5 1.5 1.3 1.9 2.2.5 1.1.6 2.3.2 3.5-.3.9-.8 1.6-1.5 2.2-.7.6-1.5.9-2.4 1.1l-2 .3-.2-1.2-.9.8-1.3-1.5c-.1-.1-.2-.2-.2-.3-.1.1-.1.2-.2.3v5.3c0 .9-.4 1.8-1 2.4-.6.6-1.5 1-2.4 1h-1.6c-.9 0-1.8-.4-2.4-1l-.1-.2z"/><path fill-rule="evenodd" clip-rule="evenodd" fill="#4F392A" d="M72.9 142v3.7c0 .8.6 1.4 1.4 1.4h1.6c.8 0 1.4-.6 1.4-1.4v-5h1.4c1.4 0 2.6-1.2 2.6-2.6v-9.7c0-1.4-1.2-2.6-2.6-2.6h-7.2c-1.4 0-2.6 1.2-2.6 2.6v9.7c0 1.4 1.2 2.6 2.6 2.6l1.4 1.3zm-2 3.7v-3.1c-1-.1-2-.6-2.7-1.3-.8-.8-1.3-2-1.3-3.3v-9.7c0-1.3.5-2.4 1.3-3.2.8-.8 2-1.4 3.2-1.4h7.2c1.3 0 2.4.5 3.2 1.4.8.8 1.3 2 1.3 3.2v9.7c0 1.3-.5 2.4-1.3 3.3-.7.7-1.6 1.2-2.7 1.3v3.1c0 .9-.4 1.8-1 2.4-.6.6-1.5 1-2.4 1h-1.6c-.9 0-1.8-.4-2.4-1-.4-.6-.8-1.4-.8-2.4z"/></g><g id="Layer_11" clip-path="url(#SVGID_2_)"><path fill-rule="evenodd" clip-rule="evenodd" fill="#4F392A" d="M23.5 127.8l1.5-.3c.9-.2 1.8.1 2.5.6s1.2 1.3 1.4 2.2l1 5.5c.3.3.6.7.8 1.1.3.7.5 1.4.5 2.2v2H30l.7 1-1.7 1.1c-.8.5-1.7.7-2.6.8-.9 0-1.8-.2-2.6-.7-1.1-.7-1.8-1.7-2.2-2.8-.3-.9-.2-1.9.1-2.8l-1-5.8c-.2-.9.1-1.8.6-2.5.5-.9 1.2-1.5 2.2-1.6zm.3 1.9l1.5-.3c.8-.1 1.5.4 1.6 1.1l1.1 6.1c.7.5 1.2 1.4 1.2 2.3-2.3 0-1.3-.1-2.7.2l1.4 2.2c-.9.6-2.1.6-3 0-1.3-.8-1.7-2.4-1.1-3.8l-1.1-6.4c-.2-.5.3-1.2 1.1-1.4z"/><path fill-rule="evenodd" clip-rule="evenodd" fill="#4F392A" d="M124.2 127.5l1.4.2h.2c.9.2 1.7.7 2.2 1.4.5.7.7 1.5.6 2.3v.2l-1 5.5c.2.4.3.9.4 1.4.1.7 0 1.5-.3 2.3l-.7 1.9-1.2-.4.3 1.2-2 .4c-.9.2-1.8.1-2.7-.2-.8-.3-1.6-.8-2.2-1.6-.8-1-1.1-2.2-1.1-3.4.1-1 .4-1.9 1-2.7l1-5.8c.2-.9.7-1.7 1.4-2.2.9-.4 1.8-.7 2.7-.5zm-.3 2l1.5.3c.8.1 1.3.9 1.1 1.6l-1.1 6.1c.5.8.6 1.7.3 2.6-1.7-.6-1.4-.5-2.6-.7l.6 2.6c-1.1.2-2.2-.2-2.9-1-.9-1.2-.8-2.9.3-3.9l1.1-6.4c.2-.8.9-1.4 1.7-1.2z"/><path fill-rule="evenodd" clip-rule="evenodd" fill="#4F392A" d="M78 141.8l.5 1.1-1.8.8c-.9.4-1.8.4-2.6.3-.9-.1-1.7-.5-2.4-1.1-1-.8-1.5-2-1.6-3.2-.1-1 .1-1.9.6-2.8V131c0-.9.4-1.8 1-2.4.6-.6 1.5-1 2.4-1h1.6c.9 0 1.8.4 2.4 1 .6.6 1 1.5 1 2.4v5.5c.3.4.5.8.6 1.3.2.7.3 1.5.1 2.3l-.4 2-1.4-.3zm-3.2-2.3l1 2.4c-1 .4-2.2.2-3-.5-1.1-1-1.3-2.7-.4-3.9V131c0-.8.6-1.4 1.4-1.4h1.6c.8 0 1.4.6 1.4 1.4v6.2c.6.7.9 1.6.8 2.5-1.2-.2-1.7-.2-2.8-.2z"/><path fill-rule="evenodd" clip-rule="evenodd" fill="#4F392A" d="M26.2 179.7l-1.5-.3c-.8-.1-1.5.4-1.6 1.1l-1.1 6.1c-.7.5-1.2 1.4-1.2 2.3 1.2 0 1.7 0 2.7.2l-1.4 2.2c.9.6 2.1.6 3 0 1.3-.8 1.8-2.4 1.1-3.8l1.1-6.4c.2-.5-.3-1.2-1.1-1.4zm-1.2-2.2l1.5.3c.9.2 1.7.7 2.2 1.4.5.7.7 1.6.6 2.5l-1 5.8c.3.9.3 1.9.1 2.8-.3 1.1-1.1 2.2-2.2 2.8-.8.5-1.7.7-2.6.7-.9 0-1.8-.3-2.6-.7l-1.7-1.1.7-1.1h-1.2v-2c0-.8.2-1.5.5-2.2.2-.4.5-.8.8-1.1l1-5.5c.2-.9.7-1.7 1.4-2.2.7-.3 1.6-.6 2.5-.4z"/><path fill-rule="evenodd" clip-rule="evenodd" fill="#4F392A" d="M76.2 179.6h-1.6c-.8 0-1.4.6-1.4 1.4v6.2c-.6.7-.9 1.6-.8 2.5 2.2-.4 1.3-.3 2.7-.3l-1 2.4c1 .4 2.2.2 3-.5 1.1-1 1.3-2.7.4-3.9v-6.5c.1-.7-.6-1.3-1.3-1.3zm-1.6-2h1.6c.9 0 1.8.4 2.4 1 .6.6 1 1.5 1 2.4v5.9c.5.9.7 1.9.6 2.8-.1 1.2-.7 2.3-1.6 3.2-.7.6-1.5 1-2.4 1.1-.9.1-1.8.1-2.6-.3l-1.8-.8.5-1.1-1.2.2-.4-2c-.1-.8-.1-1.6.1-2.3.1-.4.3-.9.6-1.3v-5.5c0-.9.4-1.8 1-2.4.4-.5 1.3-.9 2.2-.9z"/><path fill-rule="evenodd" clip-rule="evenodd" fill="#4F392A" d="M126.1 179.5l-1.5.3c-.8.1-1.3.9-1.1 1.6l1.1 6.1c-.5.8-.6 1.7-.3 2.6 2.1-.8 1.2-.5 2.6-.8l-.6 2.6c1.1.2 2.2-.2 2.9-1 .9-1.2.8-2.9-.3-3.9l-1.1-6.4c-.2-.7-.9-1.3-1.7-1.1zm-1.7-1.8l1.4-.2c.9-.2 1.8.1 2.5.6s1.2 1.3 1.4 2.2l1 5.8c.6.8 1 1.7 1 2.7.1 1.2-.3 2.4-1.1 3.4-.6.7-1.3 1.3-2.2 1.6-.8.3-1.8.4-2.7.2l-2-.4.3-1.2-1.2.4-.7-1.9c-.3-.7-.4-1.5-.3-2.3.1-.5.2-.9.4-1.4l-1-5.5v-.2c-.1-.8.1-1.7.6-2.3.5-.7 1.3-1.2 2.2-1.4l.4-.1z"/></g></g><g id="stroke"><path fill-rule="evenodd" clip-rule="evenodd" fill="#4F392A" d="M24.9 100.6c3.8 0 7.3 1.6 9.8 4.1 2.5 2.5 4.1 6 4.1 9.8 0 1.2-.2 2.4-.5 3.5-.1.4-.3.9-.4 1.3.7.4 1.3.9 1.7 1.4.9 1.1 1.2 2.3.6 3.4-.5 1-1.5 1.6-2.7 1.7H37c-.7 1.5-2 2.7-3.7 3.7-2.2 1.2-5.2 2-8.4 2-5.7 0-9.2-2-11.3-5.3-2-3.1-2.5-7.2-2.5-11.8 0-3.8 1.6-7.3 4.1-9.8 2.4-2.5 5.9-4 9.7-4zm0 2c6.6 0 11.9 5.3 11.9 11.9 0 2.1-.6 4.1-1.5 5.8.3.1.7.2 1.1.4 1.5.7 2.5 1.9 2.1 2.6-.3.6-1.5.7-2.8.2-.2 3.4-4.9 6-10.7 6-9.9 0-11.9-6.6-11.9-15.1 0-6.5 5.3-11.8 11.8-11.8z"/><path fill-rule="evenodd" clip-rule="evenodd" fill="#4F392A" d="M74.9 100.6c3.8 0 7.3 1.6 9.8 4.1 2.5 2.5 4.1 6 4.1 9.8 0 1.2-.2 2.4-.5 3.5-.1.4-.3.9-.4 1.3.7.4 1.3.9 1.7 1.4.9 1.1 1.2 2.3.6 3.4-.5 1-1.5 1.6-2.7 1.7H87c-.7 1.5-2 2.7-3.7 3.7-2.2 1.2-5.2 2-8.4 2-5.7 0-9.2-2-11.3-5.3-2-3.1-2.5-7.2-2.5-11.8 0-3.8 1.6-7.3 4.1-9.8 2.4-2.5 5.9-4 9.7-4zm0 2c6.6 0 11.9 5.3 11.9 11.9 0 2.1-.6 4.1-1.5 5.8.3.1.7.2 1.1.4 1.5.7 2.4 1.9 2.1 2.6-.3.6-1.5.7-2.8.2-.2 3.4-4.9 6-10.7 6-9.9 0-11.9-6.6-11.9-15.1 0-6.5 5.3-11.8 11.8-11.8z"/><path fill-rule="evenodd" clip-rule="evenodd" fill="#4F392A" d="M124.9 100.6c3.8 0 7.3 1.6 9.8 4.1 2.5 2.5 4.1 6 4.1 9.8 0 1.2-.2 2.4-.5 3.5-.1.4-.3.9-.4 1.3.7.4 1.3.9 1.7 1.4.9 1.1 1.2 2.3.6 3.4-.5 1-1.5 1.6-2.7 1.7h-.5c-.7 1.5-2 2.7-3.7 3.7-2.2 1.2-5.2 2-8.4 2-5.7 0-9.2-2-11.3-5.3-2-3.1-2.5-7.2-2.5-11.8 0-3.8 1.6-7.3 4.1-9.8 2.4-2.5 5.9-4 9.7-4zm0 2c6.6 0 11.9 5.3 11.9 11.9 0 2.1-.6 4.1-1.5 5.8.3.1.7.2 1.1.4 1.5.7 2.4 1.9 2.1 2.6-.3.6-1.5.7-2.8.2-.2 3.4-4.9 6-10.7 6-9.9 0-11.9-6.6-11.9-15.1 0-6.5 5.3-11.8 11.8-11.8z"/><path fill-rule="evenodd" clip-rule="evenodd" fill="#4F392A" d="M24.9 50.6c3.8 0 7.3 1.6 9.8 4.1 2.5 2.5 4.1 6 4.1 9.8 0 1.4-.2 2.7-.6 4-.3.9-.6 1.8-1.1 2.6.1.2.1.3.2.5.2.6.3 1.2.3 1.8 0 2.5-1.6 4.6-4.1 6.1-2.2 1.3-5.3 2.1-8.6 2.1s-6.3-.8-8.6-2.1c-2.6-1.5-4.1-3.7-4.1-6.1 0-.6.1-1.2.3-1.8.1-.2.1-.3.2-.5-.4-.8-.8-1.7-1.1-2.6-.4-1.3-.6-2.6-.6-4 0-3.8 1.6-7.3 4.1-9.8 2.5-2.6 6-4.1 9.8-4.1zm0 2c6.6 0 11.9 5.3 11.9 11.9 0 2.4-.7 4.6-1.9 6.5.5.7.8 1.5.8 2.3 0 3.4-4.8 6.2-10.7 6.2-5.9 0-10.7-2.8-10.7-6.2 0-.8.3-1.6.8-2.3-1.2-1.9-1.9-4.1-1.9-6.5-.1-6.6 5.2-11.9 11.7-11.9z"/><path fill-rule="evenodd" clip-rule="evenodd" fill="#4F392A" d="M74.9 50.6c3.8 0 7.3 1.6 9.8 4.1 2.5 2.5 4.1 6 4.1 9.8 0 1.4-.2 2.7-.6 4-.3.9-.6 1.8-1.1 2.6.1.2.1.3.2.5.2.6.3 1.2.3 1.8 0 2.5-1.6 4.6-4.1 6.1-2.2 1.3-5.3 2.1-8.6 2.1s-6.3-.8-8.6-2.1c-2.6-1.5-4.1-3.7-4.1-6.1 0-.6.1-1.2.3-1.8.1-.2.1-.3.2-.5-.4-.8-.8-1.7-1.1-2.6-.4-1.3-.6-2.6-.6-4 0-3.8 1.6-7.3 4.1-9.8 2.5-2.6 6-4.1 9.8-4.1zm0 2c6.6 0 11.9 5.3 11.9 11.9 0 2.4-.7 4.6-1.9 6.5.5.7.8 1.5.8 2.3 0 3.4-4.8 6.2-10.7 6.2s-10.7-2.8-10.7-6.2c0-.8.3-1.6.8-2.3-1.2-1.9-1.9-4.1-1.9-6.5-.1-6.6 5.2-11.9 11.7-11.9z"/><path fill-rule="evenodd" clip-rule="evenodd" fill="#4F392A" d="M124.9 50.6c3.8 0 7.3 1.6 9.8 4.1 2.5 2.5 4.1 6 4.1 9.8 0 1.4-.2 2.7-.6 4-.3.9-.6 1.8-1.1 2.6.1.2.1.3.2.5.2.6.3 1.2.3 1.8 0 2.5-1.6 4.6-4.1 6.1-2.2 1.3-5.2 2.1-8.6 2.1s-6.3-.8-8.6-2.1c-2.6-1.5-4.1-3.7-4.1-6.1 0-.6.1-1.2.3-1.8.1-.2.1-.3.2-.5-.4-.8-.8-1.7-1.1-2.6-.4-1.3-.6-2.6-.6-4 0-3.8 1.6-7.3 4.1-9.8 2.5-2.6 6-4.1 9.8-4.1zm0 2c6.6 0 11.9 5.3 11.9 11.9 0 2.4-.7 4.6-1.9 6.5.5.7.8 1.5.8 2.3 0 3.4-4.8 6.2-10.7 6.2s-10.7-2.8-10.7-6.2c0-.8.3-1.6.8-2.3-1.2-1.9-1.9-4.1-1.9-6.5-.1-6.6 5.2-11.9 11.7-11.9z"/><path fill-rule="evenodd" clip-rule="evenodd" fill="#4F392A" d="M74.9.6c3.8 0 7.3 1.6 9.8 4.1 2.5 2.5 4.1 6 4.1 9.8 0 1.4-.2 2.7-.6 4-.3.9-.6 1.8-1.1 2.6.1.2.1.3.2.5.2.6.3 1.2.3 1.8 0 2.5-1.6 4.6-4.1 6.1-2.2 1.3-5.3 2.1-8.6 2.1s-6.3-.8-8.6-2.1c-2.6-1.5-4.1-3.6-4.1-6.1 0-.6.1-1.2.3-1.8.1-.2.1-.3.2-.5-.4-.8-.8-1.7-1.1-2.6-.4-1.3-.6-2.6-.6-4 0-3.8 1.6-7.3 4.1-9.8 2.5-2.6 6-4.1 9.8-4.1zm0 2c6.6 0 11.9 5.3 11.9 11.9 0 2.4-.7 4.6-1.9 6.5.5.7.8 1.5.8 2.3 0 3.4-4.8 6.2-10.7 6.2s-10.7-2.8-10.7-6.2c0-.8.3-1.6.8-2.3-1.2-1.9-1.9-4.1-1.9-6.5-.1-6.6 5.2-11.9 11.7-11.9z"/><path fill-rule="evenodd" clip-rule="evenodd" fill="#4F392A" d="M124.9.6c3.8 0 7.3 1.6 9.8 4.1 2.5 2.5 4.1 6 4.1 9.8 0 1.4-.2 2.7-.6 4-.3.9-.6 1.8-1.1 2.6.1.2.1.3.2.5.2.6.3 1.2.3 1.8 0 2.5-1.6 4.6-4.1 6.1-2.2 1.3-5.2 2.1-8.6 2.1s-6.3-.8-8.6-2.1c-2.6-1.5-4.1-3.6-4.1-6.1 0-.6.1-1.2.3-1.8.1-.2.1-.3.2-.5-.4-.8-.8-1.7-1.1-2.6-.4-1.3-.6-2.6-.6-4 0-3.8 1.6-7.3 4.1-9.8 2.5-2.6 6-4.1 9.8-4.1zm0 2c6.6 0 11.9 5.3 11.9 11.9 0 2.4-.7 4.6-1.9 6.5.5.7.8 1.5.8 2.3 0 3.4-4.8 6.2-10.7 6.2s-10.7-2.8-10.7-6.2c0-.8.3-1.6.8-2.3-1.2-1.9-1.9-4.1-1.9-6.5-.1-6.6 5.2-11.9 11.7-11.9z"/><path fill-rule="evenodd" clip-rule="evenodd" fill="#4F392A" d="M24.9.6c3.8 0 7.3 1.6 9.8 4.1 2.5 2.5 4.1 6 4.1 9.8 0 1.4-.2 2.7-.6 4-.3.9-.6 1.8-1.1 2.6.1.2.1.3.2.5.2.6.3 1.2.3 1.8 0 2.5-1.6 4.6-4.1 6.1-2.2 1.3-5.3 2.1-8.6 2.1s-6.3-.8-8.6-2.1c-2.6-1.5-4.1-3.6-4.1-6.1 0-.6.1-1.2.3-1.8.1-.2.1-.3.2-.5-.4-.8-.8-1.7-1.1-2.6-.4-1.3-.6-2.6-.6-4 0-3.8 1.6-7.3 4.1-9.8 2.5-2.6 6-4.1 9.8-4.1zm0 2c6.6 0 11.9 5.3 11.9 11.9 0 2.4-.7 4.6-1.9 6.5.5.7.8 1.5.8 2.3 0 3.4-4.8 6.2-10.7 6.2-5.9 0-10.7-2.8-10.7-6.2 0-.8.3-1.6.8-2.3-1.2-1.9-1.9-4.1-1.9-6.5-.1-6.6 5.2-11.9 11.7-11.9z"/><path fill-rule="evenodd" clip-rule="evenodd" fill="#4F392A" d="M24.9 200.5c3.8 0 7.3 1.6 9.8 4.1 2.5 2.5 4.1 6 4.1 9.8 0 1.4-.2 2.7-.6 4-.3.9-.6 1.8-1.1 2.6.1.2.1.3.2.5.2.6.3 1.2.3 1.8 0 2.5-1.6 4.6-4.1 6.1-2.2 1.3-5.3 2.1-8.6 2.1s-6.3-.8-8.6-2.1c-2.6-1.5-4.1-3.6-4.1-6.1 0-.6.1-1.2.3-1.8.1-.2.1-.3.2-.5-.4-.8-.8-1.7-1.1-2.6-.4-1.3-.6-2.6-.6-4 0-3.8 1.6-7.3 4.1-9.8 2.5-2.5 6-4.1 9.8-4.1zm0 2.1c6.6 0 11.9 5.3 11.9 11.9 0 2.4-.7 4.6-1.9 6.5.5.7.8 1.5.8 2.3 0 3.4-4.8 6.2-10.7 6.2-5.9 0-10.7-2.8-10.7-6.2 0-.8.3-1.6.8-2.3-1.2-1.9-1.9-4.1-1.9-6.5-.1-6.6 5.2-11.9 11.7-11.9z"/><path fill-rule="evenodd" clip-rule="evenodd" fill="#4F392A" d="M74.9 200.5c3.8 0 7.3 1.6 9.8 4.1 2.5 2.5 4.1 6 4.1 9.8 0 1.4-.2 2.7-.6 4-.3.9-.6 1.8-1.1 2.6.1.2.1.3.2.5.2.6.3 1.2.3 1.8 0 2.5-1.6 4.6-4.1 6.1-2.2 1.3-5.3 2.1-8.6 2.1s-6.3-.8-8.6-2.1c-2.6-1.5-4.1-3.6-4.1-6.1 0-.6.1-1.2.3-1.8.1-.2.1-.3.2-.5-.4-.8-.8-1.7-1.1-2.6-.4-1.3-.6-2.6-.6-4 0-3.8 1.6-7.3 4.1-9.8 2.5-2.5 6-4.1 9.8-4.1zm0 2.1c6.6 0 11.9 5.3 11.9 11.9 0 2.4-.7 4.6-1.9 6.5.5.7.8 1.5.8 2.3 0 3.4-4.8 6.2-10.7 6.2s-10.7-2.8-10.7-6.2c0-.8.3-1.6.8-2.3-1.2-1.9-1.9-4.1-1.9-6.5-.1-6.6 5.2-11.9 11.7-11.9z"/><path fill-rule="evenodd" clip-rule="evenodd" fill="#4F392A" d="M124.9 200.5c3.8 0 7.3 1.6 9.8 4.1 2.5 2.5 4.1 6 4.1 9.8 0 1.4-.2 2.7-.6 4-.3.9-.6 1.8-1.1 2.6.1.2.1.3.2.5.2.6.3 1.2.3 1.8 0 2.5-1.6 4.6-4.1 6.1-2.2 1.3-5.2 2.1-8.6 2.1s-6.3-.8-8.6-2.1c-2.6-1.5-4.1-3.6-4.1-6.1 0-.6.1-1.2.3-1.8.1-.2.1-.3.2-.5-.4-.8-.8-1.7-1.1-2.6-.4-1.3-.6-2.6-.6-4 0-3.8 1.6-7.3 4.1-9.8 2.5-2.5 6-4.1 9.8-4.1zm0 2.1c6.6 0 11.9 5.3 11.9 11.9 0 2.4-.7 4.6-1.9 6.5.5.7.8 1.5.8 2.3 0 3.4-4.8 6.2-10.7 6.2s-10.7-2.8-10.7-6.2c0-.8.3-1.6.8-2.3-1.2-1.9-1.9-4.1-1.9-6.5-.1-6.6 5.2-11.9 11.7-11.9z"/><path fill-rule="evenodd" clip-rule="evenodd" fill="#4F392A" d="M24.9 226.8c1 0 1.8-.5 1.8-1.1 0-.6-.8-1.1-1.8-1.1s-1.8.5-1.8 1.1c0 .6.8 1.1 1.8 1.1z"/><path fill-rule="evenodd" clip-rule="evenodd" fill="#4F392A" d="M74.9 226.2c1.5 0 2.7-.2 2.7-.5s-1.2-.5-2.7-.5c-1.5 0-2.7.2-2.7.5s1.2.5 2.7.5z"/><path fill-rule="evenodd" clip-rule="evenodd" fill="#4F392A" d="M124.9 227.8c1 0 1.8-1 1.8-2.1s-.8-2.1-1.8-2.1-1.8 1-1.8 2.1.8 2.1 1.8 2.1z"/><path fill-rule="evenodd" clip-rule="evenodd" fill="#4F392A" d="M125.1 150.6c3.8 0 7.3 1.6 9.8 4.1 2.5 2.5 4.1 6 4.1 9.8 0 4.6-.6 8.7-2.5 11.8-2.1 3.3-5.6 5.3-11.3 5.3-3.2 0-6.2-.8-8.4-2-1.7-1-3-2.2-3.7-3.7h-.5c-1.2-.1-2.2-.7-2.7-1.7-.5-1.1-.2-2.3.6-3.4.4-.5 1-1 1.7-1.4-.2-.4-.3-.9-.4-1.3-.3-1.1-.5-2.3-.5-3.5 0-3.8 1.6-7.3 4.1-9.8 2.4-2.7 5.9-4.2 9.7-4.2zm11.9 13.8c0 8.5-1.9 15.1-11.9 15.1-5.8 0-10.5-2.7-10.7-6-1.3.5-2.5.4-2.8-.2-.3-.7.6-1.9 2.1-2.6.4-.2.7-.3 1.1-.4-1-1.7-1.5-3.7-1.5-5.8 0-6.6 5.3-11.9 11.9-11.9 6.4 0 11.8 5.3 11.8 11.8z"/><path fill-rule="evenodd" clip-rule="evenodd" fill="#4F392A" d="M75.1 150.6c3.8 0 7.3 1.6 9.8 4.1 2.5 2.5 4.1 6 4.1 9.8 0 4.6-.6 8.7-2.5 11.8-2.1 3.3-5.6 5.3-11.3 5.3-3.2 0-6.2-.8-8.4-2-1.7-1-3-2.2-3.7-3.7h-.5c-1.2-.1-2.2-.7-2.7-1.7-.5-1.1-.2-2.3.6-3.4.4-.5 1-1 1.7-1.4-.2-.4-.3-.9-.4-1.3-.3-1.1-.5-2.3-.5-3.5 0-3.8 1.6-7.3 4.1-9.8 2.4-2.7 5.9-4.2 9.7-4.2zM87 164.4c0 8.5-1.9 15.1-11.9 15.1-5.8 0-10.5-2.7-10.7-6-1.3.5-2.5.4-2.8-.2-.3-.7.6-1.9 2.1-2.6.4-.2.7-.3 1.1-.4-1-1.7-1.5-3.7-1.5-5.8 0-6.6 5.3-11.9 11.9-11.9 6.4 0 11.8 5.3 11.8 11.8z"/><path fill-rule="evenodd" clip-rule="evenodd" fill="#4F392A" d="M25.1 150.6c3.8 0 7.3 1.6 9.8 4.1 2.5 2.5 4.1 6 4.1 9.8 0 4.6-.6 8.7-2.5 11.8-2.1 3.3-5.6 5.3-11.3 5.3-3.2 0-6.2-.8-8.4-2-1.7-1-3-2.2-3.7-3.7h-.5c-1.2-.1-2.2-.7-2.7-1.7-.5-1.1-.2-2.3.6-3.4.4-.5 1-1 1.7-1.4-.2-.4-.3-.9-.4-1.3-.3-1.1-.5-2.3-.5-3.5 0-3.8 1.6-7.3 4.1-9.8 2.4-2.7 5.9-4.2 9.7-4.2zM37 164.4c0 8.5-1.9 15.1-11.9 15.1-5.8 0-10.5-2.7-10.7-6-1.3.5-2.5.4-2.8-.2-.3-.7.6-1.9 2.1-2.6.4-.2.7-.3 1.1-.4-1-1.7-1.5-3.7-1.5-5.8 0-6.6 5.3-11.9 11.9-11.9 6.4 0 11.8 5.3 11.8 11.8z"/><path fill="none" stroke="#4F392A" stroke-width="2" stroke-miterlimit="10" d="M24 116.4c-3.5-3.1-3.5 3.7-.5 3.8"/><path fill="none" stroke="#4F392A" stroke-width="2" stroke-miterlimit="10" d="M74 116.4c-3.5-3.1-3.5 3.7-.5 3.8"/><path fill="none" stroke="#4F392A" stroke-width="2" stroke-miterlimit="10" d="M124 116.4c-3.5-3.1-3.5 3.7-.5 3.8"/><path fill="none" stroke="#4F392A" stroke-width="2" stroke-miterlimit="10" d="M125.3 166.4c3.5-3.1 3.5 3.7.5 3.8"/><path fill="none" stroke="#4F392A" stroke-width="2" stroke-miterlimit="10" d="M75.3 166.4c3.5-3.1 3.5 3.7.5 3.8"/><path fill="none" stroke="#4F392A" stroke-width="2" stroke-miterlimit="10" d="M25.3 166.4c3.5-3.1 3.5 3.7.5 3.8"/></g></svg>