<svg version="1.1" id="Layer_3" xmlns="http://www.w3.org/2000/svg" x="0" y="0" width="150" height="250" viewBox="0 0 150 250" xml:space="preserve"><path fill-rule="evenodd" clip-rule="evenodd" fill="#4C4134" d="M115.9 186.8l-4.9-.1v4.3l4.9-.1v-4.1z"/><g><polygon fill-rule="evenodd" clip-rule="evenodd" fill="#A27556" points="12.7,39.3 12.7,36.8 26.8,36.4 26.8,39.7 	"/><g><path fill="#4C4134" d="M25.8 37.4v1.2l-12.1-.3v-.6l12.1-.3m2-2l-2.1.1-12.1.3-1.9.1v4.4l1.9.1 12.1.3 2.1.1v-5.4z"/></g></g><g><path fill-rule="evenodd" clip-rule="evenodd" fill="#BBB" d="M20.5 42.9c-1 0-1.8-.8-1.8-1.8v-6.2c0-1 .8-1.8 1.8-1.8h3.3c1 0 1.8.8 1.8 1.8v6.2c0 1-.8 1.8-1.8 1.8h-3.3z"/><g><path fill="#4C4C4C" d="M23.8 34.2c.4 0 .8.4.8.8v6.2c0 .4-.4.8-.8.8h-3.3c-.4 0-.8-.4-.8-.8V35c0-.4.4-.8.8-.8h3.3m0-2h-3.3c-1.5 0-2.8 1.2-2.8 2.8v6.2c0 1.5 1.2 2.8 2.8 2.8h3.3c1.5 0 2.8-1.2 2.8-2.8V35c0-1.6-1.3-2.8-2.8-2.8z"/></g></g><path opacity=".5" fill-rule="evenodd" clip-rule="evenodd" fill="#FFF" d="M23.9 40.6v-5.2c0-.2-.1-.3-.3-.3h-1.4c-.2 0-.3.1-.3.3v5.2c0 .2.1.3.3.3h1.4c.2 0 .3-.1.3-.3z"/><path fill-rule="evenodd" clip-rule="evenodd" fill="#89755D" d="M25.8 38.7v-1.2l-1.4.3v.6l1.4.3z"/><path fill-rule="evenodd" clip-rule="evenodd" fill="#BDA282" d="M25.8 37.4l-1.4.3v.6h.1v-.2l1.3-.7z"/><g><polygon fill-rule="evenodd" clip-rule="evenodd" fill="#A27556" points="27.6,139.9 27.6,137.4 41.7,137 41.7,140.3 	"/><g><path fill="#4C4134" d="M40.7 138v1.2l-12.1-.3v-.6l12.1-.3m2-2l-2.1.1-12.1.3-1.9.1v4.4l1.9.1 12.1.3 2.1.1V136z"/></g></g><g><path fill-rule="evenodd" clip-rule="evenodd" fill="#BBB" d="M35.4 143.5c-1 0-1.8-.8-1.8-1.8v-6.2c0-1 .8-1.8 1.8-1.8h3.3c1 0 1.8.8 1.8 1.8v6.2c0 1-.8 1.8-1.8 1.8h-3.3z"/><g><path fill="#4C4C4C" d="M38.7 134.8c.4 0 .8.3.8.8v6.2c0 .4-.4.8-.8.8h-3.3c-.4 0-.8-.3-.8-.8v-6.2c0-.4.4-.8.8-.8h3.3m0-2h-3.3c-1.5 0-2.8 1.2-2.8 2.8v6.2c0 1.5 1.2 2.8 2.8 2.8h3.3c1.5 0 2.8-1.2 2.8-2.8v-6.2c0-1.6-1.3-2.8-2.8-2.8z"/></g></g><path opacity=".5" fill-rule="evenodd" clip-rule="evenodd" fill="#FFF" d="M38.8 141.2V136c0-.2-.1-.3-.3-.3h-1.4c-.2 0-.3.1-.3.3v5.2c0 .2.1.3.3.3h1.4c.2 0 .3-.1.3-.3z"/><path fill-rule="evenodd" clip-rule="evenodd" fill="#89755D" d="M40.7 139.3V138l-1.4.3v.6l1.4.4z"/><path fill-rule="evenodd" clip-rule="evenodd" fill="#BDA282" d="M40.7 138l-1.4.3v.6h.1v-.2l1.3-.7z"/><path fill-rule="evenodd" clip-rule="evenodd" fill="#4C4C4C" d="M111.8 191.8v-6.2c0-1.3 1-2.3 2.3-2.3h3.3v3.8c0 1.1.5 2.2 1.2 2.9.3.3.7.6 1.1.8v1c0 1.3-1 2.3-2.3 2.3h-3.3c-1.3-.1-2.3-1.1-2.3-2.3z"/><path fill-rule="evenodd" clip-rule="evenodd" fill="#BBB" d="M113.3 191.8v-6.2c0-.4.3-.8.8-.8h3.3c0 1.7-.2 3.4.8 4.8v2.2c0 .4-.3.8-.8.8h-3.3c-.4-.1-.8-.4-.8-.8z"/><path opacity=".5" fill-rule="evenodd" clip-rule="evenodd" fill="#FFF" d="M114 191.2V186c0-.2.1-.3.3-.3h1.4c.2 0 .3.1.3.3v5.2c0 .2-.1.3-.3.3h-1.4c-.2 0-.3-.1-.3-.3z"/><path fill-rule="evenodd" clip-rule="evenodd" fill="#89755D" d="M112.1 189.3V188l1.4.3v.6l-1.4.4z"/><path fill-rule="evenodd" clip-rule="evenodd" fill="#BDA282" d="M112.1 188l1.4.3v.6h-.1v-.2l-1.3-.7z"/><g><polygon fill-rule="evenodd" clip-rule="evenodd" fill="#A27556" points="76.2,140.8 76.2,138.3 90.3,137.9 90.3,141.2 	"/><g><path fill="#4C4134" d="M89.3 139v1.2l-12.1-.3v-.6l12.1-.3m2-2.1l-2.1.1-12.1.3-1.9.1v4.4l1.9.1 12.1.3 2.1.1v-5.4z"/></g></g><g><path fill-rule="evenodd" clip-rule="evenodd" fill="#BBB" d="M84 144.5c-1 0-1.8-.8-1.8-1.8v-6.2c0-1 .8-1.8 1.8-1.8h3.3c1 0 1.8.8 1.8 1.8v6.2c0 1-.8 1.8-1.8 1.8H84z"/><g><path fill="#4C4C4C" d="M87.3 135.7c.4 0 .8.3.8.8v6.2c0 .4-.3.8-.8.8H84c-.4 0-.8-.4-.8-.8v-6.2c0-.4.4-.8.8-.8h3.3m0-2H84c-1.5 0-2.8 1.2-2.8 2.8v6.2c0 1.5 1.2 2.8 2.8 2.8h3.3c1.5 0 2.8-1.2 2.8-2.8v-6.2c0-1.6-1.3-2.8-2.8-2.8z"/></g></g><path opacity=".5" fill-rule="evenodd" clip-rule="evenodd" fill="#FFF" d="M87.5 142.2V137c0-.2-.1-.3-.3-.3h-1.4c-.2 0-.3.1-.3.3v5.2c0 .2.1.3.3.3h1.4c.1 0 .3-.2.3-.3z"/><path fill-rule="evenodd" clip-rule="evenodd" fill="#89755D" d="M89.3 140.2V139l-1.4.3v.6l1.4.3z"/><path fill-rule="evenodd" clip-rule="evenodd" fill="#BDA282" d="M89.3 139l-1.4.3v.6h.1v-.2l1.3-.7z"/><path fill-rule="evenodd" clip-rule="evenodd" fill="#4C4134" d="M59 187.4l8.4.2c.5 3.7 3.9 3.5 6.7 3.5v.1l-15.1.5v-4.3z"/><path fill-rule="evenodd" clip-rule="evenodd" fill="#E5C39B" d="M60.5 190.2V189l7.4.2c.2.3.4.6.6.8l-8 .2z"/><g><path fill-rule="evenodd" clip-rule="evenodd" fill="#BBB" d="M62.5 194.5c-1 0-1.8-.8-1.8-1.8v-6.2c0-1 .8-1.8 1.8-1.8h3.3c1 0 1.8.8 1.8 1.8v6.2c0 1-.8 1.8-1.8 1.8h-3.3z"/><g><path fill="#4C4C4C" d="M65.8 185.7c.4 0 .8.3.8.8v6.2c0 .4-.3.8-.8.8h-3.3c-.4 0-.8-.4-.8-.8v-6.2c0-.4.4-.8.8-.8h3.3m0-2h-3.3c-1.5 0-2.8 1.2-2.8 2.8v6.2c0 1.5 1.2 2.8 2.8 2.8h3.3c1.5 0 2.8-1.2 2.8-2.8v-6.2c0-1.6-1.3-2.8-2.8-2.8z"/></g></g><path opacity=".5" fill-rule="evenodd" clip-rule="evenodd" fill="#FFF" d="M62.3 192.2V187c0-.2.1-.3.3-.3H64c.2 0 .3.1.3.3v5.2c0 .2-.1.3-.3.3h-1.4c-.1 0-.3-.2-.3-.3z"/><path fill-rule="evenodd" clip-rule="evenodd" fill="#89755D" d="M60.5 190.2V189l1.4.3v.6l-1.4.3z"/><path fill-rule="evenodd" clip-rule="evenodd" fill="#BDA282" d="M60.5 189l1.4.3v.6h-.1v-.2l-1.3-.7z"/><g><polygon fill-rule="evenodd" clip-rule="evenodd" fill="#A27556" points="124.1,140.7 124.1,138.2 138.2,137.8 138.2,141.1 	"/><g><path fill="#4C4134" d="M137.2 138.8v1.2l-12.1-.3v-.6l12.1-.3m2-2l-2.1.1-12.1.3-1.9.1v4.4l1.9.1 12.1.3 2.1.1v-5.4z"/></g></g><g><path fill-rule="evenodd" clip-rule="evenodd" fill="#BBB" d="M131.9 144.3c-1 0-1.8-.8-1.8-1.8v-6.2c0-1 .8-1.8 1.8-1.8h3.3c1 0 1.8.8 1.8 1.8v6.2c0 1-.8 1.8-1.8 1.8h-3.3z"/><g><path fill="#4C4C4C" d="M135.2 135.5c.4 0 .8.3.8.8v6.2c0 .4-.4.8-.8.8h-3.3c-.4 0-.8-.3-.8-.8v-6.2c0-.4.3-.8.8-.8h3.3m0-2h-3.3c-1.5 0-2.8 1.2-2.8 2.8v6.2c0 1.5 1.2 2.8 2.8 2.8h3.3c1.5 0 2.8-1.2 2.8-2.8v-6.2c0-1.5-1.3-2.8-2.8-2.8z"/></g></g><path opacity=".5" fill-rule="evenodd" clip-rule="evenodd" fill="#FFF" d="M135.4 142v-5.2c0-.2-.1-.3-.3-.3h-1.4c-.2 0-.3.1-.3.3v5.2c0 .2.1.3.3.3h1.4c.1 0 .3-.1.3-.3z"/><path fill-rule="evenodd" clip-rule="evenodd" fill="#89755D" d="M137.2 140v-1.2l-1.4.3v.6l1.4.3z"/><path fill-rule="evenodd" clip-rule="evenodd" fill="#BDA282" d="M137.2 138.8l-1.4.3v.6h.1v-.2l1.3-.7z"/><path fill-rule="evenodd" clip-rule="evenodd" fill="#4C4134" d="M7.1 187.3l10.3.3c.3 2.4 2.2 3.6 4.5 3.6l-14.8.4v-4.3z"/><path fill-rule="evenodd" clip-rule="evenodd" fill="#A27556" d="M8.6 190v-1.2l9.3.2c.1.2.3.5.5.7l-9.8.3z"/><g><path fill-rule="evenodd" clip-rule="evenodd" fill="#BBB" d="M10.6 194.3c-1 0-1.8-.8-1.8-1.8v-6.2c0-1 .8-1.8 1.8-1.8h3.3c1 0 1.8.8 1.8 1.8v6.2c0 1-.8 1.8-1.8 1.8h-3.3z"/><g><path fill="#4C4C4C" d="M13.9 185.5c.4 0 .8.3.8.8v6.2c0 .4-.4.8-.8.8h-3.3c-.4 0-.8-.3-.8-.8v-6.2c0-.4.4-.8.8-.8h3.3m0-2h-3.3c-1.5 0-2.8 1.2-2.8 2.8v6.2c0 1.5 1.2 2.8 2.8 2.8h3.3c1.5 0 2.8-1.2 2.8-2.8v-6.2c0-1.5-1.3-2.8-2.8-2.8z"/></g></g><path opacity=".5" fill-rule="evenodd" clip-rule="evenodd" fill="#FFF" d="M10.4 192v-5.2c0-.2.1-.3.3-.3h1.4c.2 0 .3.1.3.3v5.2c0 .2-.1.3-.3.3h-1.4c-.1 0-.3-.1-.3-.3z"/><path fill-rule="evenodd" clip-rule="evenodd" fill="#89755D" d="M8.6 190v-1.2l1.4.3v.6l-1.4.3z"/><path fill-rule="evenodd" clip-rule="evenodd" fill="#BDA282" d="M8.6 188.8l1.4.3v.6h-.1v-.2l-1.3-.7z"/><g><polygon fill-rule="evenodd" clip-rule="evenodd" fill="#A27556" points="63,38.5 64.1,36.2 77,41.8 75.6,44.8 	"/><g><path fill="#4C4134" d="M64.6 37.5l11.1 4.8-.5 1.1L64.4 38l.2-.5m-1-2.6l-.8 1.8-.3.5-.8 1.8 1.8.9 10.8 5.4 1.8.9.9-1.9.5-1.1.9-1.9-1.9-.8-11.1-4.8-1.8-.8z"/></g></g><g><path fill-rule="evenodd" clip-rule="evenodd" fill="#BBB" d="M72.2 46.7c-.3 0-.5-.1-.8-.2l-3-1.4c-.4-.2-.8-.6-.9-1-.2-.4-.1-.9.1-1.4l2.6-5.6c.3-.6.9-1 1.6-1 .3 0 .5.1.8.2l3 1.4c.9.4 1.3 1.5.9 2.4l-2.6 5.6c-.3.6-1 1-1.7 1z"/><g><path fill="#4C4C4C" d="M71.9 37.1c.1 0 .2 0 .3.1l3 1.4c.4.2.6.6.4 1L73 45.2c-.1.3-.4.5-.7.5-.1 0-.2 0-.3-.1l-3-1.4c-.4-.2-.6-.6-.4-1l2.6-5.6c.1-.4.4-.5.7-.5m0-2c-1.1 0-2.1.6-2.5 1.6l-2.6 5.6c-.3.7-.3 1.4-.1 2.1.3.7.8 1.3 1.4 1.6l3 1.4c.4.2.8.3 1.2.3 1.1 0 2.1-.6 2.5-1.6l2.6-5.6c.6-1.4 0-3.1-1.3-3.7l-3-1.4c-.4-.3-.8-.3-1.2-.3z"/></g></g><path opacity=".5" fill-rule="evenodd" clip-rule="evenodd" fill="#FFF" d="M72.6 44.5l2.2-4.7c.1-.2 0-.3-.2-.4l-1.2-.6c-.2-.1-.3 0-.4.2l-2.2 4.7c-.1.2 0 .3.2.4l1.2.6c.1 0 .3-.1.4-.2z"/><path fill-rule="evenodd" clip-rule="evenodd" fill="#89755D" d="M75.1 43.5l.5-1.1-1.4-.4-.2.5 1.1 1z"/><path fill-rule="evenodd" clip-rule="evenodd" fill="#BDA282" d="M75.6 42.3l-1.4-.3-.2.5.1.1.1-.2 1.4-.1z"/><g><polygon fill-rule="evenodd" clip-rule="evenodd" fill="#A27556" points="113.3,34.8 115.6,33.6 122.9,45.6 120.1,47.2 	"/><g><path fill="#4C4134" d="M115.2 34.9l6.3 10.3-1.1.6-5.8-10.6.6-.3m.7-2.7l-1.7 1-.5.3-1.7 1 .9 1.7 5.8 10.6 1 1.8 1.8-1 1.1-.6 1.8-1-1.1-1.7L117 34l-1.1-1.8z"/></g></g><g><path fill-rule="evenodd" clip-rule="evenodd" fill="#BBB" d="M117.3 47.1c-.6 0-1.2-.3-1.5-.9l-1.7-2.9c-.2-.4-.3-.9-.2-1.3.1-.5.4-.8.8-1.1l5.4-3.1c.3-.2.6-.2.9-.2.6 0 1.2.3 1.5.9l1.7 2.9c.5.8.2 1.9-.7 2.4l-5.4 3.1c-.2.1-.5.2-.8.2z"/><g><path fill="#4C4C4C" d="M121 38.6c.3 0 .5.1.7.4l1.7 2.9c.2.4.1.9-.3 1.1l-5.4 3.1c-.1.1-.3.1-.4.1-.3 0-.5-.1-.7-.4l-1.7-2.9c-.2-.4-.1-.9.3-1.1l5.4-3.1c.1-.1.3-.1.4-.1m0-2c-.5 0-1 .1-1.4.4l-5.4 3.1c-1.3.8-1.8 2.5-1 3.8l1.7 2.9c.5.9 1.4 1.4 2.4 1.4.5 0 1-.1 1.4-.4l5.4-3.1c1.3-.8 1.8-2.5 1-3.8l-1.7-2.9c-.5-.9-1.4-1.4-2.4-1.4z"/></g></g><path opacity=".5" fill-rule="evenodd" clip-rule="evenodd" fill="#FFF" d="M117.8 45.2l4.5-2.6c.2-.1.2-.3.1-.4l-.7-1.2c-.1-.2-.3-.2-.4-.1l-4.5 2.6c-.2.1-.2.3-.1.4l.7 1.2c.1.2.3.2.4.1z"/><path fill-rule="evenodd" clip-rule="evenodd" fill="#89755D" d="M120.4 45.8l1.1-.6-1-1.1-.5.3.4 1.4z"/><path fill-rule="evenodd" clip-rule="evenodd" fill="#BDA282" d="M121.5 45.2l-1-1.1-.5.3v.1l.2-.1 1.3.8z"/><g><polygon fill-rule="evenodd" clip-rule="evenodd" fill="#A27556" points="111.5,236.6 113.7,235.4 121.1,247.3 118.2,249 	"/><g><path fill="#4C4134" d="M113.4 236.7l6.3 10.3-1.1.6-5.8-10.6.6-.3m.7-2.7l-1.7 1-.5.3-1.7 1 .9 1.7 5.8 10.6 1 1.8 1.8-1 1.1-.6 1.8-1-1.1-1.8-6.3-10.3-1.1-1.7z"/></g></g><g><path fill-rule="evenodd" clip-rule="evenodd" fill="#BBB" d="M115.5 248.9c-.6 0-1.2-.3-1.5-.9l-1.7-2.9c-.5-.9-.2-1.9.7-2.4l5.4-3.1c.3-.2.6-.2.9-.2.6 0 1.2.3 1.5.9l1.7 2.9c.5.9.2 1.9-.7 2.4l-5.4 3.1c-.3.1-.6.2-.9.2z"/><g><path fill="#4C4C4C" d="M119.2 240.4c.3 0 .5.1.7.4l1.7 2.9c.2.4.1.9-.3 1.1l-5.4 3.1c-.1.1-.3.1-.4.1-.3 0-.5-.1-.7-.4l-1.7-2.9c-.2-.4-.1-.9.3-1.1l5.4-3.1c.1-.1.3-.1.4-.1m0-2c-.5 0-1 .1-1.4.4l-5.4 3.1c-1.3.8-1.8 2.5-1 3.8l1.7 2.9c.5.9 1.4 1.4 2.4 1.4.5 0 1-.1 1.4-.4l5.4-3.1c1.3-.8 1.8-2.5 1-3.8l-1.7-2.9c-.5-.9-1.4-1.4-2.4-1.4z"/></g></g><path opacity=".5" fill-rule="evenodd" clip-rule="evenodd" fill="#FFF" d="M116 247l4.5-2.6c.2-.1.2-.3.1-.4l-.7-1.2c-.1-.2-.3-.2-.4-.1l-4.5 2.6c-.2.1-.2.3-.1.4l.7 1.2c0 .1.2.2.4.1z"/><path fill-rule="evenodd" clip-rule="evenodd" fill="#89755D" d="M118.6 247.6l1.1-.6-1-1.1-.5.3.4 1.4z"/><path fill-rule="evenodd" clip-rule="evenodd" fill="#BDA282" d="M119.7 247l-1-1.1-.5.3v.1l.2-.1 1.3.8z"/><g><polygon fill-rule="evenodd" clip-rule="evenodd" fill="#A27556" points="61.5,236.6 63.7,235.4 71.1,247.3 68.2,249 	"/><g><path fill="#4C4134" d="M63.4 236.7l6.3 10.3-1.1.6-5.7-10.6.5-.3m.7-2.7l-1.7 1-.5.3-1.7 1 .9 1.7 5.7 10.6 1 1.8 1.8-1 1.1-.6 1.8-1-1.1-1.8-6.3-10.3-1-1.7z"/></g></g><g><path fill-rule="evenodd" clip-rule="evenodd" fill="#BBB" d="M65.5 248.9c-.6 0-1.2-.3-1.5-.9l-1.7-2.9c-.2-.4-.3-.9-.2-1.4.1-.5.4-.8.8-1.1l5.4-3.1c.3-.2.6-.2.9-.2.6 0 1.2.3 1.5.9l1.7 2.9c.2.4.3.9.2 1.4-.1.5-.4.8-.8 1.1l-5.4 3.1c-.3.1-.6.2-.9.2z"/><g><path fill="#4C4C4C" d="M69.2 240.4c.3 0 .5.1.7.4l1.7 2.9c.2.4.1.9-.3 1.1l-5.4 3.1c-.1.1-.3.1-.4.1-.3 0-.5-.1-.7-.4l-1.7-2.9c-.2-.4-.1-.9.3-1.1l5.4-3.1c.1-.1.3-.1.4-.1m0-2c-.5 0-1 .1-1.4.4l-5.4 3.1c-.6.4-1.1 1-1.3 1.7-.2.7-.1 1.5.3 2.1l1.7 2.9c.5.9 1.4 1.4 2.4 1.4.5 0 1-.1 1.4-.4l5.4-3.1c.6-.4 1.1-1 1.3-1.7.2-.7.1-1.5-.3-2.1l-1.7-2.9c-.5-.9-1.4-1.4-2.4-1.4z"/></g></g><path opacity=".5" fill-rule="evenodd" clip-rule="evenodd" fill="#FFF" d="M66 247l4.5-2.6c.2-.1.2-.3.1-.4l-.7-1.2c-.1-.2-.3-.2-.4-.1l-4.5 2.6c-.2.1-.2.3-.1.4l.7 1.2c.1.1.2.2.4.1z"/><path fill-rule="evenodd" clip-rule="evenodd" fill="#89755D" d="M68.6 247.6l1.1-.6-1-1.1-.5.3.4 1.4z"/><path fill-rule="evenodd" clip-rule="evenodd" fill="#BDA282" d="M69.7 247l-1-1.1-.5.3v.1l.2-.1 1.3.8z"/><g><polygon fill-rule="evenodd" clip-rule="evenodd" fill="#A27556" points="11.5,236.6 13.7,235.4 21.1,247.3 18.2,249 	"/><g><path fill="#4C4134" d="M13.4 236.7l6.3 10.3-1.1.6-5.7-10.6.5-.3m.7-2.7l-1.7 1-.5.3-1.7 1 .9 1.7 5.7 10.6 1 1.8 1.8-1 1.1-.6 1.8-1-1.1-1.8-6.3-10.3-1-1.7z"/></g></g><g><path fill-rule="evenodd" clip-rule="evenodd" fill="#BBB" d="M15.5 248.9c-.6 0-1.2-.3-1.5-.9l-1.7-2.9c-.5-.9-.2-1.9.6-2.4l5.4-3.1c.3-.2.6-.2.9-.2.6 0 1.2.3 1.5.9l1.7 2.9c.5.9.2 1.9-.7 2.4l-5.4 3.1c-.2.1-.5.2-.8.2z"/><g><path fill="#4C4C4C" d="M19.2 240.4c.3 0 .5.1.7.4l1.7 2.9c.2.4.1.9-.3 1.1l-5.4 3.1c-.1.1-.3.1-.4.1-.3 0-.5-.1-.7-.4l-1.7-2.9c-.2-.4-.1-.9.3-1.1l5.4-3.1c.1-.1.3-.1.4-.1m0-2c-.5 0-1 .1-1.4.4l-5.4 3.1c-1.3.8-1.8 2.5-1 3.8l1.7 2.9c.5.9 1.4 1.4 2.4 1.4.5 0 1-.1 1.4-.4l5.4-3.1c1.3-.8 1.8-2.5 1-3.8l-1.7-2.9c-.5-.9-1.4-1.4-2.4-1.4z"/></g></g><path opacity=".5" fill-rule="evenodd" clip-rule="evenodd" fill="#FFF" d="M16 247l4.5-2.6c.2-.1.2-.3.1-.4l-.7-1.2c-.1-.2-.3-.2-.4-.1l-4.5 2.6c-.2.1-.2.3-.1.4l.7 1.2c0 .1.2.2.4.1z"/><path fill-rule="evenodd" clip-rule="evenodd" fill="#89755D" d="M18.6 247.6l1.1-.6-1-1.1-.5.3.4 1.4z"/><path fill-rule="evenodd" clip-rule="evenodd" fill="#BDA282" d="M19.7 247l-1-1.1-.5.3v.1l.2-.1 1.3.8z"/></svg>