<svg xmlns="http://www.w3.org/2000/svg" width="150" height="250" viewBox="0 0 150 250"><g id="Layer_3"><path fill-rule="evenodd" clip-rule="evenodd" fill="#484848" d="M120.52 80.548c-.043 1.473-2.852 5.646-3.539 6.836.029-2.995-2.873-6-6.621-3.279.74-1.282 3.125-5.866 3.992-6.618 1.632 1.611 3.959 2.575 6.168 3.061z"/><path fill-rule="evenodd" clip-rule="evenodd" fill="#484848" d="M134.441 77.887l2.424 4.218a4.057 4.057 0 00-3.85-.7l-1.102-1.921a11.146 11.146 0 002.528-1.597z"/><path fill-rule="evenodd" clip-rule="evenodd" fill="#484848" d="M66.979 87.384c.106-3.308-3.589-5.731-6.618-3.279.806-1.4 2.651-5.463 3.99-6.618 4.553 4.553 8.942-1.071 2.628 9.897z"/><path fill-rule="evenodd" clip-rule="evenodd" fill="#484848" d="M82.246 87.384c-.684-1.19-3.494-5.363-3.535-6.836 2.197-.484 4.537-1.452 6.164-3.06.928.81 3.223 5.284 3.992 6.616-2.633-2.14-6.726-.067-6.621 3.28z"/><path fill-rule="evenodd" clip-rule="evenodd" fill="#484848" d="M32.248 87.384c-.686-1.19-3.497-5.363-3.538-6.836 2.2-.484 4.535-1.452 6.163-3.06.93.81 3.225 5.284 3.994 6.616-2.588-2.101-6.733-.258-6.619 3.28z"/><path fill-rule="evenodd" clip-rule="evenodd" fill="#484848" d="M17.63 79.484l-1.107 1.921a4.067 4.067 0 00-3.847.698l2.425-4.216c.765.657 1.619 1.17 2.529 1.597z"/><path fill-rule="evenodd" clip-rule="evenodd" fill="#484848" d="M116.109 28.841l-.898 1.563a4.066 4.066 0 00-3.85.7l2.434-4.226c.601.736 1.387 1.397 2.314 1.963z"/><path fill-rule="evenodd" clip-rule="evenodd" fill="#484848" d="M132.248 37.386c-.684-1.19-3.496-5.365-3.537-6.836 2.197-.486 4.537-1.455 6.16-3.062.934.81 3.229 5.284 3.996 6.616-2.73-2.217-6.73-.163-6.619 3.282z"/><path fill-rule="evenodd" clip-rule="evenodd" fill="#484848" d="M34.929 25.458l3.25 5.646a4.068 4.068 0 00-3.85-.7l-1.646-2.861c.971-.596 1.74-1.302 2.246-2.085z"/><path fill-rule="evenodd" clip-rule="evenodd" fill="#484848" d="M20.83 30.55c-.045 1.479-2.846 5.635-3.538 6.836a4.038 4.038 0 00-.211-1.43l-.021-.063-.002-.008a4.05 4.05 0 00-1.304-1.813c2.635-4.578 2.342-6.875-1.231-.667a4.045 4.045 0 00-2.582.004l-.039.012-.024.01-.012.004h-.002a4.114 4.114 0 00-1.19.669c.806-1.398 2.651-5.461 3.99-6.618 1.633 1.609 3.959 2.576 6.166 3.064z"/><path fill-rule="evenodd" clip-rule="evenodd" fill="#484848" d="M82.246 37.386c-.684-1.19-3.494-5.365-3.535-6.836 2.197-.486 4.537-1.455 6.164-3.062.928.81 3.223 5.284 3.992 6.616-2.584-2.097-6.726-.034-6.621 3.282z"/><path fill-rule="evenodd" clip-rule="evenodd" fill="#484848" d="M82.56 237.382c-.684-1.188-3.495-5.363-3.536-6.836 2.197-.484 4.537-1.452 6.165-3.06.928.81 3.223 5.285 3.991 6.616-2.583-2.095-6.726-.033-6.62 3.28z"/><path fill-rule="evenodd" clip-rule="evenodd" fill="#484848" d="M132.561 237.382c-.684-1.188-3.495-5.363-3.536-6.836 2.197-.484 4.537-1.452 6.16-3.06.933.81 3.228 5.285 3.996 6.616-2.584-2.095-6.726-.033-6.62 3.28z"/><path fill-rule="evenodd" clip-rule="evenodd" fill="#484848" d="M32.561 237.382c-.686-1.188-3.497-5.363-3.538-6.836 2.2-.484 4.535-1.452 6.163-3.06.93.81 3.225 5.285 3.994 6.616-2.582-2.095-6.727-.033-6.619 3.28z"/><path fill-rule="evenodd" clip-rule="evenodd" fill="#484848" d="M70.518 30.55c-.044 1.479-2.846 5.635-3.538 6.836.118-3.672-4.057-5.355-6.618-3.282.732-1.273 3.131-5.876 3.99-6.618 1.633 1.609 3.958 2.576 6.166 3.064z"/><path fill-rule="evenodd" clip-rule="evenodd" fill="#484848" d="M70.831 230.546c-.044 1.481-2.846 5.64-3.538 6.836.118-3.67-4.057-5.351-6.618-3.279.732-1.273 3.131-5.876 3.99-6.616 1.633 1.607 3.958 2.575 6.166 3.059z"/><path fill-rule="evenodd" clip-rule="evenodd" fill="#484848" d="M120.833 230.546c-.044 1.481-2.848 5.64-3.54 6.836.118-3.67-4.057-5.351-6.62-3.279.736-1.273 3.134-5.876 3.992-6.616 1.632 1.607 3.959 2.575 6.168 3.059z"/><path fill-rule="evenodd" clip-rule="evenodd" fill="#484848" d="M20.83 230.546c-.045 1.481-2.846 5.64-3.538 6.836.118-3.67-4.057-5.351-6.618-3.279.732-1.273 3.131-5.876 3.99-6.616 1.633 1.607 3.959 2.575 6.166 3.059z"/><g><g><path fill-rule="evenodd" clip-rule="evenodd" fill="#BBB" d="M17.541 88.771V78.417l1.356.517c1.807.689 3.893 1.054 6.032 1.054h.001c2.142 0 4.229-.366 6.037-1.058l1.36-.521-.019 10.361H17.541z"/></g><g><path fill="#484848" d="M31.324 79.864l-.014 7.906H18.541v-7.902c1.956.746 4.172 1.119 6.388 1.119 2.22.001 4.438-.373 6.395-1.123m2.006-2.909l-2.721 1.042c-1.694.648-3.658.991-5.68.991-2.019 0-3.981-.341-5.675-.988l-2.713-1.035V89.77h16.766l.003-1.997.014-7.906.006-2.912z"/></g></g><g><g><path fill-rule="evenodd" clip-rule="evenodd" fill="#BBB" d="M67.542 88.771V78.417l1.356.518c1.806.689 3.892 1.053 6.032 1.053 2.144 0 4.231-.366 6.039-1.058l1.36-.521-.021 10.361H67.542z"/></g><g><path fill="#484848" d="M81.327 79.864l-.017 7.906H68.542v-7.902c1.955.746 4.171 1.119 6.388 1.119 2.22.001 4.44-.373 6.397-1.123m2.006-2.909l-2.721 1.042c-1.694.648-3.659.991-5.682.991-2.02 0-3.982-.341-5.675-.988l-2.713-1.036V89.77h16.765l.004-1.996.017-7.906.005-2.913z"/></g></g><g><g><path fill-rule="evenodd" clip-rule="evenodd" fill="#BBB" d="M117.543 88.771V78.417l1.356.518c1.807.689 3.893 1.053 6.032 1.053h.001c2.143 0 4.23-.366 6.037-1.058l1.36-.521-.021 10.361h-14.765z"/></g><g><path fill="#484848" d="M131.327 79.864l-.016 7.906h-12.769v-7.902c1.955.746 4.173 1.119 6.389 1.119 2.22.001 4.439-.373 6.396-1.123m2.006-2.909l-2.722 1.042c-1.693.648-3.657.991-5.68.991-2.019 0-3.981-.341-5.676-.988l-2.713-1.035v12.806h16.765l.004-1.996.016-7.906.006-2.914z"/></g></g><path fill-rule="evenodd" clip-rule="evenodd" fill="#959595" d="M21.811 87.771h-3.27v-7.902h.004l3.266 7.902z"/><path fill-rule="evenodd" clip-rule="evenodd" fill="#959595" d="M71.812 87.771h-3.27v-7.902h.002l3.268 7.902z"/><path fill-rule="evenodd" clip-rule="evenodd" fill="#959595" d="M121.81 87.771h-3.267v-7.902h.004l3.263 7.902z"/><path fill-rule="evenodd" clip-rule="evenodd" fill="#D5D5D5" d="M31.324 79.864l-.014 7.906-2.991-7.082a16.387 16.387 0 003.005-.824z"/><path fill-rule="evenodd" clip-rule="evenodd" fill="#D5D5D5" d="M81.327 79.864l-.017 7.906-2.99-7.082a16.497 16.497 0 003.007-.824z"/><path fill-rule="evenodd" clip-rule="evenodd" fill="#D5D5D5" d="M131.327 79.864l-.016 7.906-2.991-7.082a16.452 16.452 0 003.007-.824z"/><g><g><path fill-rule="evenodd" clip-rule="evenodd" fill="#BBB" d="M17.541 38.772V28.454l1.338.481c1.108.398 2.212.68 3.282.837l.398.058.247.318c.659.851 1.303 1.749 1.821 2.471l.264.367a69.136 69.136 0 012.049-2.824l.249-.32.402-.057a17.47 17.47 0 003.403-.859l1.34-.479-.026 10.324H17.541z"/></g><g><path fill="#484848" d="M31.33 29.869l-.02 7.904H18.541v-7.896c1.07.385 2.24.704 3.475.885 1.418 1.829 2.763 3.882 2.912 3.882.073 0 1.387-2.041 2.803-3.868 1.278-.181 2.5-.515 3.599-.907m2.007-2.842l-2.68.958a16.508 16.508 0 01-3.207.811l-.803.114-.497.641a58.735 58.735 0 00-1.268 1.711 65.453 65.453 0 00-1.286-1.726l-.492-.636-.797-.117a16.052 16.052 0 01-3.089-.789l-2.677-.962v12.74h16.764l.005-1.995.02-7.904.007-2.846z"/></g></g><path fill-rule="evenodd" clip-rule="evenodd" fill="#959595" d="M21.8 37.772h-3.259v-7.896h.006l3.253 7.896z"/><path fill-rule="evenodd" clip-rule="evenodd" fill="#D5D5D5" d="M27.652 30.882l.079-.106c1.278-.181 2.5-.515 3.599-.907l-.02 7.904-3.658-6.891z"/><g><g><path fill-rule="evenodd" clip-rule="evenodd" fill="#BBB" d="M67.542 38.772V28.454l1.338.481c1.109.399 2.213.68 3.281.837l.398.058.247.318a81.495 81.495 0 011.824 2.475l.261.364a68.499 68.499 0 012.052-2.825l.248-.32.401-.057c1.1-.156 2.244-.445 3.401-.859l1.341-.479-.027 10.324H67.542z"/></g><g><path fill="#484848" d="M81.331 29.869l-.021 7.904H68.542v-7.896c1.07.385 2.238.704 3.475.885 1.418 1.829 2.763 3.882 2.912 3.882.073 0 1.387-2.041 2.805-3.868a18.578 18.578 0 003.597-.907m2.008-2.842l-2.681.958a16.48 16.48 0 01-3.206.811l-.802.114-.497.64a54.26 54.26 0 00-1.27 1.712 67.757 67.757 0 00-1.286-1.726l-.494-.637-.797-.117a16.057 16.057 0 01-3.088-.788l-2.677-.963v12.741h16.764l.005-1.995.021-7.904.008-2.846z"/></g></g><g><g><path fill-rule="evenodd" clip-rule="evenodd" fill="#BBB" d="M67.542 238.769v-10.317l1.339.483c1.098.396 2.202.678 3.282.838l.397.059.246.317c.661.851 1.306 1.75 1.824 2.473l.261.363a68.533 68.533 0 012.052-2.824l.249-.32.402-.057a17.088 17.088 0 003.398-.858l1.342-.481-.027 10.325H67.542z"/></g><g><path fill="#484848" d="M81.331 229.866l-.021 7.902H68.542v-7.894c1.07.386 2.238.703 3.475.887 1.418 1.827 2.763 3.878 2.912 3.878.073 0 1.387-2.039 2.805-3.866a18.154 18.154 0 003.597-.907m2.008-2.845l-2.684.964a16.231 16.231 0 01-3.199.809l-.805.112-.498.642a55.527 55.527 0 00-1.271 1.713 63.924 63.924 0 00-1.287-1.725l-.492-.634-.794-.118a16.061 16.061 0 01-3.09-.79l-2.678-.966v12.742h16.764l.005-1.995.021-7.902.008-2.852z"/></g></g><g><g><path fill-rule="evenodd" clip-rule="evenodd" fill="#BBB" d="M117.543 238.769v-10.317l1.339.483c1.098.396 2.202.678 3.282.838l.397.059.246.318a81.994 81.994 0 011.819 2.467l.265.369a66.533 66.533 0 012.053-2.825l.249-.32.402-.057a17.157 17.157 0 003.398-.858l1.342-.481-.027 10.325h-14.765z"/></g><g><path fill="#484848" d="M131.332 229.866l-.021 7.902h-12.769v-7.894c1.069.386 2.237.703 3.475.887 1.416 1.827 2.763 3.878 2.909 3.878.077 0 1.388-2.039 2.808-3.866a18.164 18.164 0 003.598-.907m2.008-2.845l-2.684.964a16.188 16.188 0 01-3.2.809l-.803.112-.498.641a54.022 54.022 0 00-1.272 1.714 65.824 65.824 0 00-1.284-1.724l-.492-.635-.795-.118a16.074 16.074 0 01-3.09-.789l-2.679-.967v12.742h16.764l.005-1.995.021-7.902.007-2.852z"/></g></g><g><g><path fill-rule="evenodd" clip-rule="evenodd" fill="#BBB" d="M17.541 238.769v-10.317l1.339.483c1.098.396 2.203.678 3.283.838l.397.06.246.316c.659.85 1.303 1.747 1.821 2.469l.264.367a69.172 69.172 0 012.049-2.823l.249-.321.403-.057a17.088 17.088 0 003.4-.858l1.341-.481-.026 10.325H17.541z"/></g><g><path fill="#484848" d="M31.33 229.866l-.02 7.902H18.541v-7.894c1.07.386 2.24.703 3.475.887 1.418 1.827 2.763 3.878 2.912 3.878.073 0 1.387-2.039 2.803-3.866 1.278-.178 2.5-.512 3.599-.907m2.007-2.845l-2.683.964a16.17 16.17 0 01-3.2.809l-.806.112-.499.643a55.716 55.716 0 00-1.268 1.712 62.292 62.292 0 00-1.286-1.725l-.492-.634-.794-.118a16.052 16.052 0 01-3.091-.79l-2.678-.965v12.741h16.765l.005-1.995.02-7.902.007-2.852z"/></g></g><g><g><path fill-rule="evenodd" clip-rule="evenodd" fill="#BBB" d="M117.543 38.772V28.454l1.339.481c1.107.399 2.212.68 3.28.837l.399.058.247.319c.657.85 1.301 1.747 1.818 2.469l.265.37a67.148 67.148 0 012.053-2.826l.249-.319.4-.057a17.364 17.364 0 003.401-.859l1.341-.479-.027 10.324h-14.765z"/></g><g><path fill="#484848" d="M131.332 29.869l-.021 7.904h-12.769v-7.896a17.94 17.94 0 003.475.885c1.416 1.829 2.763 3.882 2.909 3.882.077 0 1.388-2.041 2.808-3.868a18.588 18.588 0 003.598-.907m2.008-2.842l-2.681.958a16.463 16.463 0 01-3.206.811l-.802.114-.496.639a54.415 54.415 0 00-1.272 1.713 63.647 63.647 0 00-1.284-1.725l-.493-.638-.798-.117a16.057 16.057 0 01-3.088-.788l-2.677-.963v12.741h16.764l.005-1.995.021-7.904.007-2.846z"/></g></g><g><g><path fill-rule="evenodd" clip-rule="evenodd" fill="#BBB" d="M78.165 138.772l-.237-.663a3.304 3.304 0 00-.425-.815l-.188-.261-.009-6.637 1.657-.712 3.36 3.361-.017 5.727h-4.141zm-10.623 0v-10.321l1.339.483c.894.322 1.717.643 2.446.951l.609.259.007 7.167-.135.232a3.172 3.172 0 00-.254.557l-.233.672h-3.779z"/></g><g><path fill="#484848" d="M68.542 129.875c.923.333 1.713.643 2.395.932l.006 6.237a4.203 4.203 0 00-.333.729h-2.067v-7.898m10.192.996l2.588 2.588-.013 4.313h-2.441a4.303 4.303 0 00-.554-1.062l-.008-5.656.428-.183m-12.193-3.844v12.745h5.49l.466-1.345c.045-.132.105-.261.176-.384l.269-.465v-.537l-.006-6.237-.001-1.323-1.218-.517a50.644 50.644 0 00-2.497-.972l-2.679-.965zm12.649 1.472l-1.245.534-.428.184-1.213.521.002 1.32.008 5.656.001.642.375.522c.121.169.22.359.295.568l.474 1.326h5.844l.006-1.994.013-4.313.003-.832-.589-.588-2.588-2.588-.958-.958z"/></g></g><g><g><path fill-rule="evenodd" clip-rule="evenodd" fill="#BBB" d="M78.555 188.769l-.239-.659a3.491 3.491 0 00-.259-.563l-.135-.233v-.269c0-.694.009-1.402.018-2.114.017-1.362.034-2.771-.013-4.087l-.025-.688.635-.269a47.72 47.72 0 012.448-.951l1.339-.483v10.317h-3.769zm-10.998 0l-.016-5.723 3.361-3.358 1.654.702-.008 6.641-.185.26a3.47 3.47 0 00-.428.819l-.239.659h-4.139z"/></g><g><path fill="#484848" d="M81.323 179.875v7.894h-2.067a4.514 4.514 0 00-.334-.725c0-2.046.077-4.215.004-6.237a47.366 47.366 0 012.397-.932m-10.191.996l.423.18-.006 5.66a4.434 4.434 0 00-.553 1.058h-2.441l-.012-4.31 2.589-2.588m12.191-3.843l-2.678.965c-.908.327-1.748.654-2.499.972l-1.27.537.05 1.377c.047 1.292.029 2.688.013 4.038-.009.716-.018 1.429-.018 2.127v.538l.27.465c.067.116.129.251.184.402l.479 1.319h5.469v-12.74zm-12.651 1.475l-.954.953-2.59 2.588-.589.589.002.832.012 4.31.006 1.994h5.837l.478-1.317c.076-.21.178-.405.304-.582l.369-.519.001-.638.006-5.66.001-1.325-1.22-.518-.423-.18-1.24-.527z"/></g></g><g><g><path fill-rule="evenodd" clip-rule="evenodd" fill="#BBB" d="M126.539 138.772l-.224-.691a3.78 3.78 0 00-.16-.402l-.131-.283.054-.309c.094-.534.224-1.149.359-1.796.303-1.435.645-3.062.655-4.152l.007-.649 1.857-.807 3.367 3.363-.016 5.727h-5.768zm-8.996 0V128.45l1.34.484c.837.303 1.572.588 2.215.854l.741.306-1.166 6.654-.173.206a3.31 3.31 0 00-.613 1.119l-.221.698h-2.123z"/></g><g><path fill="#484848" d="M118.543 129.875c.821.297 1.542.577 2.173.838l-.981 5.599a4.292 4.292 0 00-.801 1.461h-.391v-7.898m10.188.996l2.592 2.588-.012 4.313h-4.045a4.714 4.714 0 00-.203-.513c.309-1.758 1.013-4.415 1.029-6.111l.639-.277m-12.188-3.846v12.747h3.856l.441-1.396a2.29 2.29 0 01.426-.777l.346-.412.093-.529.981-5.599.277-1.581-1.483-.613a53.649 53.649 0 00-2.257-.87l-2.68-.97zm12.64 1.47l-1.248.541-.639.277-1.19.518-.013 1.298c-.01.992-.341 2.566-.634 3.956-.139.658-.27 1.285-.365 1.829l-.108.616.263.568c.044.095.084.191.116.29l.448 1.384h7.493l.006-1.994.012-4.313.002-.833-.589-.588-2.592-2.588-.962-.961z"/></g></g><g><g><path fill-rule="evenodd" clip-rule="evenodd" fill="#BBB" d="M130.203 188.769l-.223-.694a3.34 3.34 0 00-.615-1.119l-.173-.206-1.165-6.654.741-.306a50.407 50.407 0 012.215-.854l1.34-.484v10.318h-2.12zm-12.645 0l-.016-5.723 3.369-3.37 1.855.817.007.646c.011 1.084.351 2.705.649 4.135.138.653.268 1.276.361 1.815l.054.307-.131.283a3.79 3.79 0 00-.158.404l-.228.686h-5.762z"/></g><g><path fill="#484848" d="M131.323 179.875v7.894h-.391a4.322 4.322 0 00-.802-1.457l-.98-5.599a51.804 51.804 0 012.173-.838m-10.188.992l.639.281c.017 1.692.72 4.354 1.025 6.111a4.741 4.741 0 00-.199.509h-4.045l-.012-4.31 2.592-2.591m12.188-3.842l-2.68.969c-.799.288-1.558.581-2.257.87l-1.483.613.277 1.58.98 5.599.093.53.346.412c.188.224.336.493.429.781l.445 1.389h3.85v-12.743zm-12.635 1.46l-.968.968-2.592 2.592-.588.588.002.832.012 4.31.006 1.994h7.483l.454-1.371c.033-.101.071-.201.116-.299l.262-.566-.106-.615c-.096-.549-.229-1.183-.367-1.849-.291-1.385-.619-2.954-.629-3.939l-.013-1.291-1.182-.52-.639-.281-1.251-.553z"/></g></g><g><g><path fill-rule="evenodd" clip-rule="evenodd" fill="#BBB" d="M29.497 138.772l-.227-.686a3.035 3.035 0 00-.487-.906l-.153-.196-1.181-6.648 1.51-.652 3.365 3.362-.016 5.727h-2.811zm-11.956 0v-10.321l1.339.483c1.011.364 1.912.719 2.679 1.053l.654.285-.056.711c-.063.799.478 3.444.801 5.024.131.642.246 1.203.314 1.591l.207 1.174h-5.938z"/></g><g><path fill="#484848" d="M18.541 129.875c1.025.37 1.89.712 2.619 1.029-.1 1.262.863 5.371 1.127 6.868h-3.746v-7.897m10.191.996l2.59 2.588-.012 4.313h-1.091a3.998 3.998 0 00-.649-1.208l-.999-5.624.161-.069m-12.191-3.845v12.746h8.13l-.414-2.348c-.07-.395-.186-.965-.319-1.617-.249-1.217-.831-4.065-.784-4.746l.099-1.409-1.293-.582a46.88 46.88 0 00-2.738-1.076l-2.681-.968zm12.645 1.471l-1.246.538-.161.069-1.454.627.277 1.559.999 5.624.087.49.307.393a2 2 0 01.325.604l.454 1.372h4.53l.006-1.994.012-4.313.002-.832-.589-.589-2.59-2.588-.959-.96z"/></g></g><g><g><path fill-rule="evenodd" clip-rule="evenodd" fill="#BBB" d="M26.383 188.769l1.301-7.319c.027-.155.035-.309.022-.467l-.056-.71.653-.285a45.557 45.557 0 012.679-1.053l1.339-.483v10.317h-5.938zm-8.827 0l-.016-5.723 3.365-3.362 1.51.652-1.181 6.648-.153.196c-.212.271-.38.584-.488.905l-.229.683h-2.808z"/></g><g><path fill="#484848" d="M31.322 179.875v7.894h-3.746l1.092-6.145a2.87 2.87 0 00.035-.72 44.534 44.534 0 012.619-1.029m-10.191.996l.161.069-.999 5.624a4.048 4.048 0 00-.649 1.204h-1.091l-.012-4.31 2.59-2.587m12.191-3.844l-2.679.967a46.602 46.602 0 00-2.738 1.076l-1.307.569.112 1.421a.879.879 0 01-.011.217l-1.092 6.142-.417 2.35h8.133v-12.742h-.001zm-12.644 1.47l-.96.959-2.59 2.588-.589.589.002.832.012 4.31.006 1.994h4.524l.457-1.365c.072-.215.185-.425.328-.606l.307-.393.087-.49.999-5.624.277-1.559-1.454-.627-.161-.069-1.245-.539z"/></g></g><path fill-rule="evenodd" clip-rule="evenodd" fill="#959595" d="M71.801 37.772h-3.259v-7.896h.004l3.255 7.896z"/><path fill-rule="evenodd" clip-rule="evenodd" fill="#959595" d="M71.801 237.769h-3.259v-7.894h.004l3.255 7.894z"/><path fill-rule="evenodd" clip-rule="evenodd" fill="#959595" d="M121.802 237.769h-3.259v-7.894h.004l3.255 7.894z"/><path fill-rule="evenodd" clip-rule="evenodd" fill="#959595" d="M21.8 237.769h-3.259v-7.894h.006l3.253 7.894z"/><path fill-rule="evenodd" clip-rule="evenodd" fill="#959595" d="M121.802 37.772h-3.259v-7.896h.004l3.255 7.896z"/><path fill-rule="evenodd" clip-rule="evenodd" fill="#D5D5D5" d="M77.652 30.882l.081-.106a18.588 18.588 0 003.598-.907l-.021 7.904-3.658-6.891z"/><path fill-rule="evenodd" clip-rule="evenodd" fill="#D5D5D5" d="M77.652 230.88l.081-.106a18.303 18.303 0 003.598-.907l-.021 7.902-3.658-6.889z"/><path fill-rule="evenodd" clip-rule="evenodd" fill="#D5D5D5" d="M127.653 230.88l.081-.106a18.32 18.32 0 003.598-.907l-.021 7.902-3.658-6.889z"/><path fill-rule="evenodd" clip-rule="evenodd" fill="#D5D5D5" d="M27.652 230.88l.079-.106c1.278-.179 2.5-.513 3.599-.907l-.02 7.902-3.658-6.889z"/><path fill-rule="evenodd" clip-rule="evenodd" fill="#D5D5D5" d="M127.653 30.882l.081-.106a18.607 18.607 0 003.598-.907l-.021 7.904-3.658-6.891z"/><path fill-rule="evenodd" clip-rule="evenodd" fill="#BBB" d="M19.294 30.133c.083.34.041.71-.146 1.034l-3.113 5.41a2.884 2.884 0 00-3.723-2.051l-.202.078 3.237-5.624c.126-.218.301-.391.504-.511.244.171.499.333.765.488.794.462 1.696.861 2.678 1.176z"/><path fill-rule="evenodd" clip-rule="evenodd" fill="#BBB" d="M30.813 30.047l2.071 3.601a2.881 2.881 0 013.723-2.051l.201.078-2.14-3.719c-.429.36-.91.696-1.435 1.001-.723.421-1.537.79-2.42 1.09z"/><path fill-rule="evenodd" clip-rule="evenodd" fill="#BBB" d="M69.294 30.133c.083.34.041.71-.146 1.034l-3.113 5.41a2.884 2.884 0 00-3.723-2.051l-.201.078c.565-.981 3.094-5.752 3.741-6.134 1.046.731 2.23 1.275 3.442 1.663z"/><path fill-rule="evenodd" clip-rule="evenodd" fill="#BBB" d="M69.294 230.131c.083.342.041.708-.146 1.033l-3.113 5.412a2.88 2.88 0 00-3.723-2.051l-.201.077c.565-.98 3.094-5.753 3.741-6.136 1.046.733 2.23 1.274 3.442 1.665z"/><path fill-rule="evenodd" clip-rule="evenodd" fill="#BBB" d="M119.295 230.131a1.4 1.4 0 01-.146 1.033l-3.112 5.412a2.88 2.88 0 00-3.723-2.051l-.203.077c.565-.98 3.097-5.753 3.743-6.136 1.044.733 2.229 1.274 3.441 1.665z"/><path fill-rule="evenodd" clip-rule="evenodd" fill="#BBB" d="M19.294 230.131c.083.342.041.708-.146 1.033l-3.113 5.412a2.88 2.88 0 00-3.723-2.051l-.202.077c.566-.98 3.095-5.753 3.742-6.136 1.045.733 2.231 1.274 3.442 1.665z"/><path fill-rule="evenodd" clip-rule="evenodd" fill="#BBB" d="M69.294 80.133a1.4 1.4 0 01-.146 1.034l-3.113 5.41a2.884 2.884 0 00-3.723-2.051l-.201.078 3.237-5.624c.124-.218.301-.391.504-.511 1.046.73 2.23 1.273 3.442 1.664z"/><path fill-rule="evenodd" clip-rule="evenodd" fill="#BBB" d="M80.558 30.133c-.081.34-.04.71.146 1.034l3.113 5.41a2.88 2.88 0 013.722-2.051l.204.078-3.239-5.624a1.406 1.406 0 00-.505-.511c-1.049.732-2.228 1.271-3.441 1.664z"/><path fill-rule="evenodd" clip-rule="evenodd" fill="#BBB" d="M80.558 230.131a1.41 1.41 0 00.146 1.033l3.113 5.412c.021-.081.045-.163.073-.244a2.875 2.875 0 013.649-1.807l.204.077-3.239-5.623a1.412 1.412 0 00-.505-.513c-1.049.733-2.228 1.274-3.441 1.665z"/><path fill-rule="evenodd" clip-rule="evenodd" fill="#BBB" d="M130.559 230.131c-.081.342-.041.708.146 1.033l3.112 5.412a2.881 2.881 0 013.723-2.051l.203.077-3.238-5.623a1.428 1.428 0 00-.505-.513c-1.049.733-2.229 1.274-3.441 1.665z"/><path fill-rule="evenodd" clip-rule="evenodd" fill="#BBB" d="M30.559 230.131c-.083.342-.041.708.146 1.033l3.113 5.412a2.879 2.879 0 013.723-2.051l.202.077-3.237-5.623a1.417 1.417 0 00-.507-.513c-1.047.733-2.227 1.274-3.44 1.665z"/><path fill-rule="evenodd" clip-rule="evenodd" fill="#BBB" d="M80.558 80.133c-.081.34-.04.708.146 1.034l3.113 5.41a2.88 2.88 0 013.722-2.051l.204.078c-.566-.979-3.097-5.756-3.744-6.134-1.049.731-2.228 1.27-3.441 1.663z"/><path fill-rule="evenodd" clip-rule="evenodd" fill="#BBB" d="M119.06 30.056l-2.022 3.52a7.425 7.425 0 00-.069-.244 2.885 2.885 0 00-3.654-1.807l-.203.078 2.092-3.63c.423.354.899.684 1.416.985.727.424 1.548.794 2.44 1.098z"/><path fill-rule="evenodd" clip-rule="evenodd" fill="#BBB" d="M130.559 30.133c-.081.34-.041.71.146 1.034l3.112 5.41c.021-.081.045-.163.069-.244a2.885 2.885 0 013.654-1.807l.203.078-3.238-5.624a1.422 1.422 0 00-.505-.511c-.244.171-.496.333-.765.488-.793.462-1.692.858-2.676 1.176z"/><path fill-rule="evenodd" clip-rule="evenodd" fill="#BBB" d="M18.541 83.695l-.506.879a2.883 2.883 0 00-3.723-2.049l-.2.076 2.204-3.827.301.183c.586.342 1.233.647 1.924.912v3.826z"/><path fill-rule="evenodd" clip-rule="evenodd" fill="#BBB" d="M30.559 80.133a1.4 1.4 0 00.146 1.034l3.113 5.41a2.883 2.883 0 013.723-2.051l.202.078-3.237-5.624a1.412 1.412 0 00-.507-.511 10.08 10.08 0 01-.765.488c-.791.462-1.692.858-2.675 1.176z"/><path fill-rule="evenodd" clip-rule="evenodd" fill="#BBB" d="M118.543 82.218l-2.507 4.358a7.425 7.425 0 00-.069-.244 2.884 2.884 0 00-3.654-1.807l-.203.078 3.239-5.624c.126-.218.301-.391.504-.511.244.171.497.334.766.488.586.342 1.232.647 1.925.912v2.35z"/><path fill-rule="evenodd" clip-rule="evenodd" fill="#BBB" d="M131.319 83.706l.501.869a2.877 2.877 0 013.723-2.049l.199.076-2.201-3.827-.305.183c-.578.342-1.226.645-1.909.907l-.008 3.841z"/><path fill-rule="evenodd" clip-rule="evenodd" fill="#484848" d="M23.554 128.26l1.542-.277a2.926 2.926 0 013.363 2.356l.006.004 1.104 6.222a4.108 4.108 0 00-1.086-.969h-.003a4.078 4.078 0 00-2.23-.586l-.72-4.057-1.367.24.729 4.093a4.056 4.056 0 00-2.509 3.023l-1.188-6.686a2.904 2.904 0 01.486-2.164 2.905 2.905 0 011.868-1.196l.005-.003z"/><path fill-rule="evenodd" clip-rule="evenodd" fill="#BBB" d="M23.813 129.736l1.542-.276c.765-.135 1.479.382 1.634 1.139l1.275 6.206c-1.379-1.021-3.442-.732-4.354.765l-.195.216-1.043-6.417c-.123-.765.376-1.498 1.141-1.633z"/><path fill-rule="evenodd" clip-rule="evenodd" fill="#484848" d="M73.838 128.104l1.564-.004v-.004c.802 0 1.53.325 2.059.851l-.004.004c.525.524.851 1.253.851 2.051l.008 6.314a3.987 3.987 0 00-.895-1.135 4.07 4.07 0 00-2.094-.969l-.006-4.121h-1.397l.006 4.162a4.05 4.05 0 00-2.984 2.527l-.01-6.771h-.006c0-.797.326-1.521.851-2.051v-.008a2.92 2.92 0 012.057-.846zm1.564 2.988v.004c.006 0 .002-.004-.002-.004h.002zm-1.479-.082h.006c0-.004-.004 0-.006 0z"/><path fill-rule="evenodd" clip-rule="evenodd" fill="#BBB" d="M73.838 129.598h1.564a1.409 1.409 0 011.412 1.404l.008 6.242c-1.27-1.323-3.243-1.14-4.384.252l-.008-6.486a1.41 1.41 0 011.408-1.412z"/><path fill-rule="evenodd" clip-rule="evenodd" fill="#484848" d="M124.142 127.99l1.408.249.138.024a2.906 2.906 0 011.872 1.196c.398.565.599 1.273.513 2.006v.024l-.024.139-1.091 6.233a3.916 3.916 0 00-.691-1.282 4.038 4.038 0 00-1.896-1.322l.704-4.012.008-.045-1.367-.24-.716 4.094a4.08 4.08 0 00-3.394 1.995l1.172-6.694a2.912 2.912 0 011.2-1.871 2.886 2.886 0 012.161-.493h.003z"/><path fill-rule="evenodd" clip-rule="evenodd" fill="#BBB" d="M123.885 129.468l1.543.272a1.418 1.418 0 011.147 1.628l-1.046 6.12c-1.014-1.53-3.076-1.645-4.428-.484l1.152-6.389a1.42 1.42 0 011.632-1.147z"/><path fill-rule="evenodd" clip-rule="evenodd" fill="#484848" d="M25.837 181.193l-1.365-.244-.72 4.061a4.064 4.064 0 00-2.229.586h-.006a4.18 4.18 0 00-1.086.965l1.105-6.218.006-.004a2.926 2.926 0 013.363-2.356l1.542.277.006.004c.785.143 1.444.59 1.87 1.196.427.614.623 1.388.484 2.164l-1.188 6.686a3.945 3.945 0 00-.521-1.354 4.05 4.05 0 00-1.985-1.669l.724-4.094z"/><path fill-rule="evenodd" clip-rule="evenodd" fill="#BBB" d="M26.189 179.732l-1.542-.272c-.763-.135-1.481.382-1.636 1.139l-1.257 6.148c1.381-1.025 3.442-.646 4.337.822l1.239-6.201a1.417 1.417 0 00-1.141-1.636z"/><path fill-rule="evenodd" clip-rule="evenodd" fill="#484848" d="M76.076 181.092h-1.398l-.006 4.121a4.063 4.063 0 00-2.99 2.104l.008-6.314a2.904 2.904 0 01.853-2.051l-.002-.004a2.908 2.908 0 012.057-.851v.004l1.564.004c.808 0 1.536.325 2.057.847v.008c.525.529.851 1.254.851 2.051h-.004l-.012 6.771a4.046 4.046 0 00-2.983-2.527l.005-4.163zm-1.477 0c-.004 0-.008.004-.002.004v-.004h.002zm1.477-.082c-.003-.004-.007-.008-.007 0h.007z"/><path fill-rule="evenodd" clip-rule="evenodd" fill="#BBB" d="M76.161 179.598h-1.564c-.775-.004-1.386.631-1.412 1.404l-.222 6.201c1.2-1.249 3.506-1.038 4.6.293l.009-6.486a1.415 1.415 0 00-1.411-1.412z"/><path fill-rule="evenodd" clip-rule="evenodd" fill="#484848" d="M126.286 180.961l-1.367.24.008.041v.004l.7 4.012a4.047 4.047 0 00-1.896 1.322c-.31.387-.541.822-.691 1.282l-1.091-6.238-.021-.134v-.024c-.089-.732.11-1.44.513-2.006a2.904 2.904 0 011.872-1.196l.134-.024h.005l1.407-.249h.005a2.888 2.888 0 012.16.493 2.905 2.905 0 011.2 1.871l1.172 6.689a4.105 4.105 0 00-.96-1.099 4.047 4.047 0 00-2.434-.891l-.716-4.093z"/><path fill-rule="evenodd" clip-rule="evenodd" fill="#BBB" d="M126.115 179.468l-1.542.272c-.766.131-1.258.863-1.147 1.628l.895 6.107c.965-1.457 3.292-1.55 4.546-.472l-1.119-6.393a1.417 1.417 0 00-1.633-1.142z"/></g></svg>