<?xml version="1.0" encoding="utf-8"?>
<!-- Generator: Adobe Illustrator 16.0.0, SVG Export Plug-In . SVG Version: 6.00 Build 0)  -->
<!DOCTYPE svg PUBLIC "-//W3C//DTD SVG 1.1//EN" "http://www.w3.org/Graphics/SVG/1.1/DTD/svg11.dtd">
<svg version="1.1" id="Layer_3" xmlns="http://www.w3.org/2000/svg" xmlns:xlink="http://www.w3.org/1999/xlink" x="0px" y="0px"
	 width="150px" height="250px" viewBox="0 0 150 250" enable-background="new 0 0 150 250" xml:space="preserve">
<g>
	<path fill-rule="evenodd" clip-rule="evenodd" fill="#888888" d="M116.5,131.9c-1.6-0.4-3.4-0.9-6.3-1.7l-1-0.3l0.5-1.5
		c1.3-4,2.6-8.2,2.5-12.2l0-1h6.7l0,1c0.1,4.3-0.3,9-1.1,14.8l-0.2,1.1L116.5,131.9z"/>
	<g>
		<path fill="#484848" d="M117.9,116.2c0.1,4.9-0.4,9.8-1.1,14.7c-1.7-0.4-3.8-1-6.2-1.7c1.3-4.2,2.8-8.7,2.7-13H117.9 M119.8,114.2
			h-2h-4.6h-2.1l0.1,2.1c0.1,3.9-1.2,7.9-2.4,11.9l-0.2,0.5l-0.6,2l2,0.6c2.8,0.8,4.7,1.3,6.3,1.7l2.2,0.5l0.3-2.2
			c0.8-5.9,1.2-10.7,1.1-15L119.8,114.2L119.8,114.2z"/>
	</g>
</g>
<path fill-rule="evenodd" clip-rule="evenodd" fill="#484848" d="M11.8,21.2c0.3,1.3,0.8,2.6,1.4,3.8c-1.2,2.6-0.3,5.1,1.8,6.9
	c-2-0.5-3.9-1.1-5.8-1.6C10.2,27.3,11.2,24.2,11.8,21.2L11.8,21.2z M38,21.2c0.6,3.1,1.7,6.2,2.6,9.2c-1.9,0.4-3.7,0.9-5.6,1.3
	c1.9-1.8,2.7-4.3,1.6-6.7C37.3,23.8,37.7,22.5,38,21.2z"/>
<path fill-rule="evenodd" clip-rule="evenodd" fill="#484848" d="M11.8,221.2c0.3,1.3,0.8,2.6,1.4,3.8c-1.2,2.6-0.3,5.1,1.8,6.9
	c-2-0.5-3.9-1.1-5.8-1.6C10.2,227.3,11.2,224.2,11.8,221.2L11.8,221.2z M38,221.2c0.6,3.1,1.7,6.2,2.6,9.2c-1.9,0.4-3.7,0.9-5.6,1.3
	c1.9-1.8,2.7-4.3,1.6-6.7C37.3,223.8,37.7,222.5,38,221.2z"/>
<path fill-rule="evenodd" clip-rule="evenodd" fill="#484848" d="M61.8,21.2c0.3,1.3,0.8,2.6,1.4,3.8c-1.2,2.6-0.3,5.1,1.8,6.9
	c-2-0.5-3.9-1.1-5.8-1.6C60.2,27.3,61.2,24.2,61.8,21.2L61.8,21.2z M88,21.2c0.6,3.1,1.7,6.2,2.6,9.2c-1.9,0.4-3.7,0.9-5.6,1.3
	c1.9-1.8,2.7-4.3,1.6-6.7C87.3,23.8,87.7,22.5,88,21.2z"/>
<path fill-rule="evenodd" clip-rule="evenodd" fill="#484848" d="M61.8,221.2c0.3,1.3,0.8,2.6,1.4,3.8c-1.2,2.6-0.3,5.1,1.8,6.9
	c-2-0.5-3.9-1.1-5.8-1.6C60.2,227.3,61.2,224.2,61.8,221.2L61.8,221.2z M88,221.2c0.6,3.1,1.7,6.2,2.6,9.2c-1.9,0.4-3.7,0.9-5.6,1.3
	c1.9-1.8,2.7-4.3,1.6-6.7C87.3,223.8,87.7,222.5,88,221.2z"/>
<path fill-rule="evenodd" clip-rule="evenodd" fill="#484848" d="M111.8,21.2c0.3,1.3,0.8,2.6,1.4,3.8c-1.2,2.6-0.3,5.1,1.8,6.9
	c-1.9-0.5-3.9-1.1-5.8-1.6C110.2,27.3,111.2,24.2,111.8,21.2L111.8,21.2z M138,21.2c0.6,3.1,1.7,6.2,2.6,9.2
	c-1.9,0.4-3.7,0.9-5.6,1.3c1.9-1.8,2.7-4.3,1.6-6.7C137.3,23.8,137.7,22.5,138,21.2z"/>
<path fill-rule="evenodd" clip-rule="evenodd" fill="#484848" d="M111.8,221.2c0.3,1.3,0.8,2.6,1.4,3.8c-1.2,2.6-0.3,5.1,1.8,6.9
	c-1.9-0.5-3.9-1.1-5.8-1.6C110.2,227.3,111.2,224.2,111.8,221.2L111.8,221.2z M138,221.2c0.6,3.1,1.7,6.2,2.6,9.2
	c-1.9,0.4-3.7,0.9-5.6,1.3c1.9-1.8,2.7-4.3,1.6-6.7C137.3,223.8,137.7,222.5,138,221.2z"/>
<path fill-rule="evenodd" clip-rule="evenodd" fill="#BBBBBB" d="M11.1,29.2c0.5-1.7,1.1-3.5,1.6-5.3c0.2,0.4,0.3,0.7,0.5,1
	c-0.8,1.6-0.7,3.3,0.2,4.9L11.1,29.2L11.1,29.2z M37.1,23.9c0.5,1.8,1,3.6,1.6,5.3c-0.8,0.2-1.5,0.4-2.2,0.5
	c0.8-1.5,0.8-3.3,0.1-4.8C36.8,24.6,36.9,24.3,37.1,23.9z"/>
<path fill-rule="evenodd" clip-rule="evenodd" fill="#BBBBBB" d="M11.1,229.2c0.5-1.7,1.1-3.5,1.6-5.3c0.2,0.4,0.3,0.7,0.5,1
	c-0.8,1.6-0.7,3.3,0.2,4.9L11.1,229.2L11.1,229.2z M37.1,223.9c0.5,1.8,1,3.6,1.6,5.3c-0.8,0.2-1.5,0.4-2.2,0.5
	c0.8-1.5,0.8-3.3,0.1-4.8C36.8,224.6,36.9,224.3,37.1,223.9z"/>
<path fill-rule="evenodd" clip-rule="evenodd" fill="#BBBBBB" d="M61.2,29.2c0.5-1.7,1.1-3.5,1.6-5.3c0.2,0.4,0.3,0.7,0.5,1
	c-0.8,1.6-0.7,3.3,0.2,4.9L61.2,29.2L61.2,29.2z M87.1,23.9c0.5,1.8,1,3.6,1.6,5.3c-0.8,0.2-1.5,0.4-2.2,0.5
	c0.8-1.5,0.8-3.3,0.1-4.8C86.8,24.6,87,24.3,87.1,23.9z"/>
<path fill-rule="evenodd" clip-rule="evenodd" fill="#BBBBBB" d="M61.2,229.2c0.5-1.7,1.1-3.5,1.6-5.3c0.2,0.4,0.3,0.7,0.5,1
	c-0.8,1.6-0.7,3.3,0.2,4.9L61.2,229.2L61.2,229.2z M87.1,223.9c0.5,1.8,1,3.6,1.6,5.3c-0.8,0.2-1.5,0.4-2.2,0.5
	c0.8-1.5,0.8-3.3,0.1-4.8C86.8,224.6,87,224.3,87.1,223.9z"/>
<path fill-rule="evenodd" clip-rule="evenodd" fill="#BBBBBB" d="M111.2,29.2c0.5-1.7,1.1-3.5,1.6-5.3c0.2,0.4,0.3,0.7,0.5,1
	c-0.8,1.6-0.7,3.3,0.2,4.9L111.2,29.2L111.2,29.2z M137.1,23.9c0.5,1.8,1,3.6,1.6,5.3c-0.8,0.2-1.5,0.4-2.2,0.5
	c0.8-1.5,0.8-3.3,0.1-4.8C136.8,24.6,137,24.3,137.1,23.9z"/>
<path fill-rule="evenodd" clip-rule="evenodd" fill="#BBBBBB" d="M111.2,229.2c0.5-1.7,1.1-3.5,1.6-5.3c0.2,0.4,0.3,0.7,0.5,1
	c-0.8,1.6-0.7,3.3,0.2,4.9L111.2,229.2L111.2,229.2z M137.1,223.9c0.5,1.8,1,3.6,1.6,5.3c-0.8,0.2-1.5,0.4-2.2,0.5
	c0.8-1.5,0.8-3.3,0.1-4.8C136.8,224.6,137,224.3,137.1,223.9z"/>
<g>
	<path fill-rule="evenodd" clip-rule="evenodd" fill="#BBBBBB" d="M11,12.4l0.5-1.4c2.2-5.7,7.4-9.3,13.4-9.3s11.2,3.5,13.4,9.3
		l0.5,1.4H11z"/>
	<g>
		<path fill="#484848" d="M24.9,2.8c5.1,0,10.3,2.9,12.5,8.6h-25C14.7,5.7,19.8,2.8,24.9,2.8 M24.9,0.8c-6.5,0-12,3.8-14.4,9.9
			l-1.1,2.7h2.9h25h2.9l-1.1-2.7C36.9,4.6,31.4,0.8,24.9,0.8L24.9,0.8z"/>
	</g>
</g>
<g>
	<path fill-rule="evenodd" clip-rule="evenodd" fill="#BBBBBB" d="M11,212.4l0.5-1.4c2.2-5.7,7.4-9.3,13.4-9.3s11.2,3.5,13.4,9.3
		l0.5,1.4H11z"/>
	<g>
		<path fill="#484848" d="M24.9,202.8c5.1,0,10.3,2.9,12.5,8.6h-25C14.7,205.7,19.8,202.8,24.9,202.8 M24.9,200.8
			c-6.5,0-12,3.8-14.4,9.9l-1.1,2.7h2.9h25h2.9l-1.1-2.7C36.9,204.6,31.4,200.8,24.9,200.8L24.9,200.8z"/>
	</g>
</g>
<g>
	<path fill-rule="evenodd" clip-rule="evenodd" fill="#BBBBBB" d="M61,12.4l0.5-1.4c2.2-5.7,7.4-9.3,13.4-9.3
		c6.1,0,11.2,3.5,13.4,9.3l0.5,1.4H61z"/>
	<g>
		<path fill="#484848" d="M74.9,2.8c5.1,0,10.3,2.9,12.5,8.6h-25C64.7,5.7,69.8,2.8,74.9,2.8 M74.9,0.8c-6.5,0-12,3.8-14.4,9.9
			l-1.1,2.7h2.9h25h2.9l-1.1-2.7C86.9,4.6,81.4,0.8,74.9,0.8L74.9,0.8z"/>
	</g>
</g>
<g>
	<path fill-rule="evenodd" clip-rule="evenodd" fill="#BBBBBB" d="M61,212.4l0.5-1.4c2.2-5.7,7.4-9.3,13.4-9.3
		c6.1,0,11.2,3.5,13.4,9.3l0.5,1.4H61z"/>
	<g>
		<path fill="#484848" d="M74.9,202.8c5.1,0,10.3,2.9,12.5,8.6h-25C64.7,205.7,69.8,202.8,74.9,202.8 M74.9,200.8
			c-6.5,0-12,3.8-14.4,9.9l-1.1,2.7h2.9h25h2.9l-1.1-2.7C86.9,204.6,81.4,200.8,74.9,200.8L74.9,200.8z"/>
	</g>
</g>
<g>
	<path fill-rule="evenodd" clip-rule="evenodd" fill="#BBBBBB" d="M111,12.4l0.5-1.4c2.2-5.7,7.4-9.3,13.4-9.3
		c6.1,0,11.2,3.5,13.4,9.3l0.5,1.4H111z"/>
	<g>
		<path fill="#484848" d="M124.9,2.8c5.1,0,10.3,2.9,12.5,8.6h-25C114.7,5.7,119.8,2.8,124.9,2.8 M124.9,0.8c-6.5,0-12,3.8-14.4,9.9
			l-1.1,2.7h2.9h25h2.9l-1.1-2.7C136.9,4.6,131.4,0.8,124.9,0.8L124.9,0.8z"/>
	</g>
</g>
<g>
	<path fill-rule="evenodd" clip-rule="evenodd" fill="#BBBBBB" d="M111,212.4l0.5-1.4c2.2-5.7,7.4-9.3,13.4-9.3
		c6.1,0,11.2,3.5,13.4,9.3l0.5,1.4H111z"/>
	<g>
		<path fill="#484848" d="M124.9,202.8c5.1,0,10.3,2.9,12.5,8.6h-25C114.7,205.7,119.8,202.8,124.9,202.8 M124.9,200.8
			c-6.5,0-12,3.8-14.4,9.9l-1.1,2.7h2.9h25h2.9l-1.1-2.7C136.9,204.6,131.4,200.8,124.9,200.8L124.9,200.8z"/>
	</g>
</g>
<path fill-rule="evenodd" clip-rule="evenodd" fill="#888888" d="M24.9,2.7c2.3,0,4.2,3.6,5,8.7h-10C20.7,6.3,22.7,2.7,24.9,2.7z"/>
<path fill-rule="evenodd" clip-rule="evenodd" fill="#888888" d="M24.9,202.7c2.3,0,4.2,3.6,5,8.7h-10
	C20.7,206.3,22.7,202.7,24.9,202.7z"/>
<path fill-rule="evenodd" clip-rule="evenodd" fill="#888888" d="M74.9,2.7c2.3,0,4.2,3.6,5,8.7h-10C70.7,6.3,72.7,2.7,74.9,2.7z"/>
<path fill-rule="evenodd" clip-rule="evenodd" fill="#888888" d="M74.9,202.7c2.3,0,4.2,3.6,5,8.7h-10
	C70.7,206.3,72.7,202.7,74.9,202.7z"/>
<path fill-rule="evenodd" clip-rule="evenodd" fill="#888888" d="M124.9,2.7c2.3,0,4.2,3.6,5,8.7h-10C120.7,6.3,122.7,2.7,124.9,2.7
	z"/>
<path fill-rule="evenodd" clip-rule="evenodd" fill="#888888" d="M124.9,202.7c2.3,0,4.2,3.6,5,8.7h-10
	C120.7,206.3,122.7,202.7,124.9,202.7z"/>
<g>
	<rect x="10.7" y="11.8" fill-rule="evenodd" clip-rule="evenodd" fill="#888888" width="28.5" height="5.4"/>
	<g>
		<path fill="#484848" d="M38.2,12.8v3.4H11.7v-3.4H38.2 M40.2,10.8h-2H11.7h-2v2v3.4v2h2h26.5h2v-2v-3.4V10.8L40.2,10.8z"/>
	</g>
</g>
<g>
	<rect x="10.7" y="211.8" fill-rule="evenodd" clip-rule="evenodd" fill="#888888" width="28.5" height="5.4"/>
	<g>
		<path fill="#484848" d="M38.2,212.8v3.4H11.7v-3.4H38.2 M40.2,210.8h-2H11.7h-2v2v3.4v2h2h26.5h2v-2v-3.4V210.8L40.2,210.8z"/>
	</g>
</g>
<g>
	<rect x="60.7" y="11.8" fill-rule="evenodd" clip-rule="evenodd" fill="#888888" width="28.5" height="5.4"/>
	<g>
		<path fill="#484848" d="M88.2,12.8v3.4H61.7v-3.4H88.2 M90.2,10.8h-2H61.7h-2v2v3.4v2h2h26.5h2v-2v-3.4V10.8L90.2,10.8z"/>
	</g>
</g>
<g>
	<rect x="60.7" y="211.8" fill-rule="evenodd" clip-rule="evenodd" fill="#888888" width="28.5" height="5.4"/>
	<g>
		<path fill="#484848" d="M88.2,212.8v3.4H61.7v-3.4H88.2 M90.2,210.8h-2H61.7h-2v2v3.4v2h2h26.5h2v-2v-3.4V210.8L90.2,210.8z"/>
	</g>
</g>
<g>
	<rect x="110.7" y="11.8" fill-rule="evenodd" clip-rule="evenodd" fill="#888888" width="28.5" height="5.4"/>
	<g>
		<path fill="#484848" d="M138.2,12.8v3.4h-26.5v-3.4H138.2 M140.2,10.8h-2h-26.5h-2v2v3.4v2h2h26.5h2v-2v-3.4V10.8L140.2,10.8z"/>
	</g>
</g>
<g>
	<rect x="110.7" y="211.8" fill-rule="evenodd" clip-rule="evenodd" fill="#888888" width="28.5" height="5.4"/>
	<g>
		<path fill="#484848" d="M138.2,212.8v3.4h-26.5v-3.4H138.2 M140.2,210.8h-2h-26.5h-2v2v3.4v2h2h26.5h2v-2v-3.4V210.8L140.2,210.8z
			"/>
	</g>
</g>
<g>
	<path fill-rule="evenodd" clip-rule="evenodd" fill="#888888" d="M24.6,83c-3.2,0-6.7-0.8-13.7-2.8l-1-0.3l0.5-1.5
		c1.3-4,2.6-8.2,2.5-12.2l0-1h24.3l0,1c-0.1,4,1.2,8.2,2.5,12.2L40,80l-1.1,0.2c-2,0.5-3.6,0.9-5.1,1.2C29.8,82.4,27.3,83,24.6,83z"
		/>
	<path fill="#484848" d="M36,66.2c-0.1,4.4,1.4,8.9,2.7,13C31.3,81,28.1,82,24.6,82c-3.1,0-6.5-0.8-13.4-2.8c1.3-4.2,2.8-8.7,2.7-13
		C21.2,66.2,28.6,66.2,36,66.2 M38.1,64.2H36H13.8h-2.1l0.1,2.1c0.1,3.9-1.2,7.9-2.4,11.9l-0.2,0.5l-0.6,2l2,0.6
		c7.2,2,10.7,2.9,14,2.9c2.8,0,5.3-0.6,9.5-1.6c1.5-0.4,3.1-0.8,5.1-1.2l2.1-0.5l-0.6-2.1l-0.2-0.5c-1.2-3.9-2.5-8-2.4-11.9
		L38.1,64.2L38.1,64.2z"/>
</g>
<g>
	<path fill-rule="evenodd" clip-rule="evenodd" fill="#888888" d="M74.6,83c-3.2,0-6.7-0.8-13.7-2.8l-1-0.3l0.5-1.5
		c1.3-4,2.6-8.2,2.5-12.2l0-1h24.3l0,1c-0.1,4,1.2,8.2,2.5,12.2L90,80l-1.1,0.2c-2,0.5-3.6,0.9-5.1,1.2C79.8,82.4,77.3,83,74.6,83z"
		/>
	<path fill="#484848" d="M86,66.2c-0.1,4.4,1.4,8.9,2.7,13C81.3,81,78.1,82,74.6,82c-3.1,0-6.5-0.8-13.4-2.8c1.3-4.2,2.8-8.7,2.7-13
		C71.2,66.2,78.6,66.2,86,66.2 M88.1,64.2H86H63.8h-2.1l0.1,2.1c0.1,3.9-1.2,7.9-2.4,11.9l-0.2,0.5l-0.6,2l2,0.6
		c7.1,2,10.7,2.9,14,2.9c2.8,0,5.3-0.6,9.5-1.6c1.5-0.4,3.1-0.8,5.1-1.2l2.1-0.5l-0.6-2.1l-0.2-0.5c-1.2-3.9-2.5-8-2.4-11.8
		L88.1,64.2L88.1,64.2z"/>
</g>
<g>
	<path fill-rule="evenodd" clip-rule="evenodd" fill="#888888" d="M124.6,83c-3.2,0-6.7-0.8-13.7-2.8l-1-0.3l0.5-1.5
		c1.3-4,2.6-8.2,2.5-12.2l0-1h24.3l0,1c-0.1,4,1.2,8.2,2.5,12.2L140,80l-1.1,0.2c-2,0.5-3.6,0.9-5.1,1.2
		C129.8,82.4,127.3,83,124.6,83z"/>
	<path fill="#484848" d="M136,66.2c-0.1,4.4,1.4,8.9,2.7,13c-7.5,1.7-10.6,2.8-14.1,2.8c-3.1,0-6.5-0.8-13.4-2.8
		c1.3-4.2,2.8-8.7,2.7-13C121.2,66.2,128.6,66.2,136,66.2 M138.1,64.2H136h-22.2h-2.1l0.1,2.1c0.1,3.8-1.2,7.9-2.4,11.9l-0.2,0.5
		l-0.6,2l2,0.6c7.1,2,10.7,2.9,14,2.9c2.8,0,5.3-0.6,9.5-1.6c1.5-0.4,3.1-0.8,5.1-1.2l2.1-0.5l-0.7-2.1l-0.1-0.5
		c-1.2-4-2.5-8-2.4-11.9L138.1,64.2L138.1,64.2z"/>
</g>
<path fill-rule="evenodd" clip-rule="evenodd" fill="#626262" d="M11.1,79.2c1.3-4.2,2.8-8.7,2.7-13c2.5,4.4,3.5,8.9,4.4,13
	c4.7,1.2,8,1.9,10.5,2.3C23.8,82.5,21.1,82.1,11.1,79.2z"/>
<path fill-rule="evenodd" clip-rule="evenodd" fill="#626262" d="M61.2,79.2c1.3-4.2,2.8-8.7,2.7-13c2.5,4.4,3.5,8.9,4.4,13
	c4.7,1.2,8,1.9,10.5,2.3C73.8,82.5,71.1,82.1,61.2,79.2z"/>
<path fill-rule="evenodd" clip-rule="evenodd" fill="#626262" d="M111.2,79.2c1.3-4.2,2.8-8.7,2.7-13c2.5,4.4,3.5,8.9,4.4,13
	c4.7,1.2,8,1.9,10.5,2.3C123.8,82.5,121.1,82.1,111.2,79.2z"/>
<g>
	<path fill-rule="evenodd" clip-rule="evenodd" fill="#BBBBBB" d="M10.8,62.4l0.5-1.4c2.2-5.7,7.5-9.3,13.4-9.3
		c6,0,11.2,3.7,13.4,9.3l0.5,1.4H10.8z"/>
	<g>
		<path fill="#484848" d="M24.8,52.7c5.7,0,10.5,3.6,12.5,8.7h-25C14.2,56.3,19.1,52.7,24.8,52.7 M24.8,50.7c-6.4,0-12,3.9-14.4,9.9
			l-1.1,2.7h2.9h25h2.9l-1.1-2.7C36.8,54.7,31.1,50.7,24.8,50.7L24.8,50.7z"/>
	</g>
</g>
<g>
	<path fill-rule="evenodd" clip-rule="evenodd" fill="#BBBBBB" d="M60.8,62.4l0.5-1.4c2.2-5.7,7.5-9.3,13.4-9.3
		c6,0,11.2,3.7,13.4,9.3l0.5,1.4H60.8z"/>
	<g>
		<path fill="#484848" d="M74.8,52.7c5.7,0,10.5,3.6,12.5,8.7h-25C64.2,56.3,69.1,52.7,74.8,52.7 M74.8,50.7c-6.4,0-12,3.9-14.4,9.9
			l-1.1,2.7h2.9h25h2.9l-1.1-2.7C86.8,54.7,81.1,50.7,74.8,50.7L74.8,50.7z"/>
	</g>
</g>
<g>
	<path fill-rule="evenodd" clip-rule="evenodd" fill="#BBBBBB" d="M111,62.4l0.5-1.4c2.2-5.7,7.5-9.3,13.4-9.3
		c6,0,11.2,3.7,13.4,9.3l0.5,1.4H111z"/>
	<g>
		<path fill="#484848" d="M124.9,52.7c5.7,0,10.5,3.6,12.5,8.7h-25C114.4,56.3,119.3,52.7,124.9,52.7 M124.9,50.7
			c-6.4,0-12,3.9-14.4,9.9l-1.1,2.7h2.9h25h2.9l-1.1-2.7C136.9,54.7,131.3,50.7,124.9,50.7L124.9,50.7z"/>
	</g>
</g>
<path fill-rule="evenodd" clip-rule="evenodd" fill="#888888" d="M24.9,52.7c2.3,0,4.2,3.6,5,8.7h-10C20.7,56.3,22.7,52.7,24.9,52.7
	z"/>
<path fill-rule="evenodd" clip-rule="evenodd" fill="#888888" d="M74.9,52.7c2.3,0,4.2,3.6,5,8.7h-10C70.7,56.3,72.7,52.7,74.9,52.7
	z"/>
<path fill-rule="evenodd" clip-rule="evenodd" fill="#888888" d="M124.9,52.7c2.3,0,4.2,3.6,5,8.7h-10
	C120.7,56.3,122.7,52.7,124.9,52.7z"/>
<g>
	<rect x="10.5" y="61.8" fill-rule="evenodd" clip-rule="evenodd" fill="#888888" width="28.5" height="5.4"/>
	<g>
		<path fill="#484848" d="M38,62.8v3.4H11.5v-3.4H38 M40,60.8h-2H11.5h-2v2v3.4v2h2H38h2v-2v-3.4V60.8L40,60.8z"/>
	</g>
</g>
<g>
	<rect x="60.7" y="61.8" fill-rule="evenodd" clip-rule="evenodd" fill="#888888" width="28.5" height="5.4"/>
	<g>
		<path fill="#484848" d="M88.2,62.8v3.4H61.7v-3.4H88.2 M90.2,60.8h-2H61.7h-2v2v3.4v2h2h26.5h2v-2v-3.4V60.8L90.2,60.8z"/>
	</g>
</g>
<g>
	<rect x="110.7" y="61.8" fill-rule="evenodd" clip-rule="evenodd" fill="#888888" width="28.5" height="5.4"/>
	<g>
		<path fill="#484848" d="M138.2,62.8v3.4h-26.5v-3.4H138.2 M140.2,60.8h-2h-26.5h-2v2v3.4v2h2h26.5h2v-2v-3.4V60.8L140.2,60.8z"/>
	</g>
</g>
<g>
	<path fill-rule="evenodd" clip-rule="evenodd" fill="#888888" d="M16.5,131.9c-1.6-0.4-3.4-0.9-6.3-1.7l-1-0.3l0.5-1.5
		c1.3-4,2.6-8.2,2.5-12.2l0-1h6.7l0,1c0.1,4.2-0.3,9-1.1,14.8l-0.1,1.1L16.5,131.9z"/>
	<g>
		<path fill="#484848" d="M17.9,116.2c0.1,4.9-0.4,9.8-1.1,14.7c-1.7-0.4-3.8-1-6.2-1.7c1.3-4.2,2.8-8.7,2.7-13H17.9 M19.8,114.2h-2
			h-4.6h-2.1l0.1,2.1c0.1,3.9-1.2,7.9-2.4,11.9l-0.1,0.5l-0.6,2l2,0.6c2.9,0.8,4.7,1.3,6.3,1.7l2.2,0.5l0.3-2.2
			c0.8-5.9,1.2-10.7,1.1-15L19.8,114.2L19.8,114.2z"/>
	</g>
</g>
<g>
	<path fill-rule="evenodd" clip-rule="evenodd" fill="#888888" d="M66.5,131.9c-1.6-0.4-3.4-0.9-6.3-1.7l-1-0.3l0.5-1.5
		c1.3-4,2.6-8.2,2.5-12.2l0-1h6.7l0,1c0.1,4.3-0.3,9-1.1,14.8l-0.1,1.1L66.5,131.9z"/>
	<g>
		<path fill="#484848" d="M67.9,116.2c0.1,4.9-0.4,9.8-1.1,14.7c-1.7-0.4-3.8-1-6.2-1.7c1.3-4.2,2.8-8.7,2.7-13H67.9 M69.8,114.2h-2
			h-4.6h-2.1l0.1,2.1c0.1,3.9-1.2,7.9-2.4,11.9l-0.2,0.5l-0.6,2l2,0.6c2.9,0.8,4.7,1.3,6.3,1.7l2.2,0.5l0.3-2.2
			c0.8-5.9,1.2-10.7,1.1-15L69.8,114.2L69.8,114.2z"/>
	</g>
</g>
<g>
	<path fill-rule="evenodd" clip-rule="evenodd" fill="#BBBBBB" d="M11.7,112.4c1.6-5.9,6.5-10,12.4-10.7c0.5-0.1,1-0.1,1.5-0.1
		c5.4,0,10.3,3,12.8,7.9l0.7,1.3l-27.8,2.9L11.7,112.4z"/>
	<g>
		<path fill="#484848" d="M25.6,102.7c5.1,0,9.7,3,12,7.4l-24.9,2.6c1.4-5.3,5.9-9.3,11.5-9.9C24.7,102.7,25.2,102.7,25.6,102.7
			 M25.6,100.7L25.6,100.7c-0.5,0-1.1,0-1.6,0.1c-6.3,0.7-11.5,5.1-13.3,11.4L10,115l2.9-0.3l24.9-2.6l2.9-0.3l-1.3-2.6
			C36.7,104,31.4,100.7,25.6,100.7L25.6,100.7z"/>
	</g>
</g>
<g>
	<path fill-rule="evenodd" clip-rule="evenodd" fill="#BBBBBB" d="M111.7,112.4c1.6-5.9,6.5-10,12.4-10.7c0.5-0.1,1-0.1,1.5-0.1
		c5.4,0,10.3,3,12.8,7.9l0.7,1.3l-27.8,2.9L111.7,112.4z"/>
	<g>
		<path fill="#484848" d="M125.6,102.7c5.1,0,9.7,3,12,7.4l-24.9,2.6c1.4-5.3,5.9-9.3,11.5-9.9C124.7,102.7,125.2,102.7,125.6,102.7
			 M125.6,100.7L125.6,100.7c-0.5,0-1.1,0-1.6,0.1c-6.3,0.7-11.5,5.1-13.3,11.4L110,115l2.9-0.3l24.9-2.6l2.9-0.3l-1.3-2.6
			C136.7,104,131.4,100.7,125.6,100.7L125.6,100.7z"/>
	</g>
</g>
<g>
	<path fill-rule="evenodd" clip-rule="evenodd" fill="#BBBBBB" d="M61.7,112.4c1.6-5.9,6.5-10,12.4-10.7c0.5-0.1,1-0.1,1.5-0.1
		c5.4,0,10.3,3,12.8,7.9l0.7,1.3l-27.8,2.9L61.7,112.4z"/>
	<g>
		<path fill="#484848" d="M75.6,102.7c5.1,0,9.7,3,12,7.4l-24.9,2.6c1.4-5.3,5.9-9.3,11.5-9.9C74.7,102.7,75.2,102.7,75.6,102.7
			 M75.6,100.7L75.6,100.7c-0.5,0-1.1,0-1.6,0.1c-6.3,0.7-11.5,5.1-13.3,11.4L60,115l2.9-0.3l24.9-2.6l2.9-0.3l-1.3-2.6
			C86.7,104,81.4,100.7,75.6,100.7L75.6,100.7z"/>
	</g>
</g>
<path fill-rule="evenodd" clip-rule="evenodd" fill="#888888" d="M24.2,102.8c2.3-0.2,4.6,3.1,5.9,8.1l-9.9,1
	C20.4,106.8,22,103,24.2,102.8z"/>
<path fill-rule="evenodd" clip-rule="evenodd" fill="#888888" d="M124.2,102.8c2.3-0.2,4.6,3.1,5.9,8.1l-9.9,1
	C120.4,106.8,122,103,124.2,102.8z"/>
<path fill-rule="evenodd" clip-rule="evenodd" fill="#888888" d="M74.2,102.8c2.3-0.2,4.6,3.1,5.9,8.1l-9.9,1
	C70.4,106.8,72,103,74.2,102.8z"/>
<g>
	
		<rect x="11.2" y="111.8" transform="matrix(-0.9946 0.1036 -0.1036 -0.9946 62.6446 225.7516)" fill-rule="evenodd" clip-rule="evenodd" fill="#888888" width="28.5" height="5.4"/>
	<g>
		<path fill="#484848" d="M38.5,111.4l0.4,3.4l-26.4,2.7l-0.4-3.4L38.5,111.4 M40.3,109.2l-2,0.2l-26.4,2.7l-2,0.2l0.2,2l0.4,3.4
			l0.2,2l2-0.2l26.4-2.7l2-0.2l-0.2-2l-0.4-3.4L40.3,109.2L40.3,109.2z"/>
	</g>
</g>
<g>
	<polygon fill-rule="evenodd" clip-rule="evenodd" fill="#888888" points="111,113.3 139.4,110.3 139.9,115.7 111.6,118.7 	"/>
	<g>
		<path fill="#484848" d="M138.5,111.4l0.4,3.4l-26.4,2.7l-0.4-3.4L138.5,111.4 M140.3,109.2l-2,0.2l-26.4,2.7l-2,0.2l0.2,2l0.4,3.4
			l0.2,2l2-0.2l26.4-2.7l2-0.2l-0.2-2l-0.4-3.4L140.3,109.2L140.3,109.2z"/>
	</g>
</g>
<g>
	
		<rect x="61.2" y="111.8" transform="matrix(-0.9946 0.1036 -0.1036 -0.9946 162.3754 220.5706)" fill-rule="evenodd" clip-rule="evenodd" fill="#888888" width="28.5" height="5.4"/>
	<g>
		<path fill="#484848" d="M88.5,111.4l0.4,3.4l-26.4,2.7l-0.4-3.4L88.5,111.4 M90.3,109.2l-2,0.2l-26.4,2.7l-2,0.2l0.2,2l0.4,3.4
			l0.2,2l2-0.2l26.4-2.7l2-0.2l-0.2-2l-0.4-3.4L90.3,109.2L90.3,109.2z"/>
	</g>
</g>
<g>
	<path fill-rule="evenodd" clip-rule="evenodd" fill="#888888" d="M32.6,181.1c-0.8-5.9-1.1-10.6-1.1-14.8l0-1h6.7l0,1
		c-0.1,4,1.2,8.2,2.5,12.2l0.5,1.5l-1,0.3c-2.7,0.8-4.6,1.3-6.3,1.7l-1.1,0.3L32.6,181.1z"/>
	<g>
		<path fill="#484848" d="M37.2,166.2c-0.1,4.4,1.4,8.9,2.7,13c-2.5,0.7-4.5,1.3-6.2,1.7c-0.7-4.9-1.1-9.8-1.1-14.7H37.2
			 M39.2,164.2h-2.1h-4.6h-2l0,2c-0.1,4.3,0.3,9.1,1.1,15l0.3,2.2l2.2-0.5c1.6-0.4,3.6-0.9,6.3-1.7l2-0.6l-0.6-2l-0.1-0.5
			c-1.2-3.9-2.5-8-2.4-11.9L39.2,164.2L39.2,164.2z"/>
	</g>
</g>
<g>
	<path fill-rule="evenodd" clip-rule="evenodd" fill="#888888" d="M82.6,181.1c-0.8-5.9-1.1-10.6-1.1-14.8l0-1h6.7l0,1
		c-0.1,4,1.2,8.2,2.5,12.2l0.5,1.4l-1,0.3c-2.7,0.8-4.6,1.3-6.3,1.7l-1.1,0.3L82.6,181.1z"/>
	<g>
		<path fill="#484848" d="M87.2,166.2c-0.1,4.4,1.4,8.9,2.7,13c-2.5,0.7-4.5,1.3-6.2,1.7c-0.7-4.9-1.1-9.8-1.1-14.7H87.2
			 M89.2,164.2h-2.1h-4.6h-2l0,2c-0.1,4.3,0.3,9.1,1.1,15l0.3,2.2l2.2-0.5c1.6-0.4,3.6-0.9,6.3-1.7l2-0.6l-0.6-2l-0.1-0.5
			c-1.2-4-2.5-8-2.4-11.9L89.2,164.2L89.2,164.2z"/>
	</g>
</g>
<g>
	<path fill-rule="evenodd" clip-rule="evenodd" fill="#888888" d="M132.6,181.1c-0.8-5.9-1.1-10.6-1.1-14.8l0-1h6.7l0,1
		c-0.1,4,1.2,8.2,2.5,12.2l0.5,1.4l-1,0.3c-2.7,0.8-4.6,1.3-6.3,1.7l-1.1,0.3L132.6,181.1z"/>
	<g>
		<path fill="#484848" d="M137.2,166.2c-0.1,4.4,1.4,8.9,2.7,13c-2.5,0.7-4.5,1.3-6.2,1.7c-0.7-4.9-1.1-9.8-1.1-14.7H137.2
			 M139.2,164.2h-2.1h-4.6h-2l0,2c-0.1,4.3,0.3,9.1,1.1,15l0.3,2.2l2.2-0.5c1.7-0.4,3.6-0.9,6.3-1.7l2-0.6l-0.6-2l-0.1-0.5
			c-1.2-4-2.5-8-2.4-11.9L139.2,164.2L139.2,164.2z"/>
	</g>
</g>
<path fill-rule="evenodd" clip-rule="evenodd" fill="#B3B3B3" d="M26.1,152.8c-5.6-0.6-10.8,2.5-13.3,7.3l24.9,2.6
	C36.2,157.4,31.8,153.4,26.1,152.8z"/>
<path fill-rule="evenodd" clip-rule="evenodd" fill="#B3B3B3" d="M76.1,152.8c-5.6-0.6-10.8,2.5-13.3,7.3l24.9,2.6
	C86.2,157.4,81.8,153.4,76.1,152.8z"/>
<path fill-rule="evenodd" clip-rule="evenodd" fill="#B3B3B3" d="M126.1,152.8c-5.6-0.6-10.8,2.5-13.3,7.3l24.9,2.6
	C136.2,157.4,131.8,153.4,126.1,152.8z"/>
<g>
	<g>
		<path fill-rule="evenodd" clip-rule="evenodd" fill="#BBBBBB" d="M11.3,160.8l0.7-1.3c2.5-4.9,7.4-7.9,12.8-7.9c0.5,0,1,0,1.5,0.1
			c5.9,0.6,10.8,4.8,12.4,10.7l0.4,1.4L11.3,160.8z"/>
	</g>
	<g>
		<path fill="#484848" d="M24.8,152.6c0.5,0,0.9,0,1.4,0.1c5.6,0.6,10.1,4.7,11.5,9.9L12.8,160C15.1,155.5,19.7,152.6,24.8,152.6
			 M24.8,150.6c-5.8,0-11,3.3-13.7,8.5l-1.3,2.6l2.9,0.3l24.9,2.6l2.9,0.3l-0.8-2.8c-1.7-6.3-6.9-10.7-13.3-11.4
			C25.8,150.6,25.3,150.6,24.8,150.6L24.8,150.6z"/>
	</g>
</g>
<g>
	<g>
		<path fill-rule="evenodd" clip-rule="evenodd" fill="#BBBBBB" d="M61.3,160.8l0.7-1.3c2.5-4.9,7.4-7.9,12.8-7.9c0.5,0,1,0,1.5,0.1
			c5.9,0.6,10.8,4.8,12.4,10.7l0.4,1.4L61.3,160.8z"/>
	</g>
	<g>
		<path fill="#484848" d="M74.8,152.6c0.5,0,0.9,0,1.4,0.1c5.6,0.6,10.1,4.7,11.5,9.9L62.8,160C65.1,155.5,69.7,152.6,74.8,152.6
			 M74.8,150.6c-5.8,0-11,3.3-13.7,8.5l-1.3,2.6l2.9,0.3l24.9,2.6l2.9,0.3l-0.8-2.8c-1.7-6.3-6.9-10.7-13.3-11.4
			C75.8,150.6,75.3,150.6,74.8,150.6L74.8,150.6z"/>
	</g>
</g>
<g>
	<g>
		<path fill-rule="evenodd" clip-rule="evenodd" fill="#BBBBBB" d="M111.3,160.8l0.7-1.3c2.5-4.9,7.4-7.9,12.8-7.9
			c0.5,0,1,0,1.5,0.1c5.9,0.6,10.8,4.8,12.4,10.7l0.4,1.4L111.3,160.8z"/>
	</g>
	<g>
		<path fill="#484848" d="M124.8,152.6c0.5,0,0.9,0,1.4,0.1c5.6,0.6,10.1,4.7,11.5,9.9l-24.9-2.6
			C115.1,155.5,119.7,152.6,124.8,152.6 M124.8,150.6c-5.8,0-11,3.3-13.7,8.5l-1.3,2.6l2.9,0.3l24.9,2.6l2.9,0.3l-0.8-2.8
			c-1.7-6.3-6.9-10.7-13.3-11.4C125.8,150.6,125.3,150.6,124.8,150.6L124.8,150.6z"/>
	</g>
</g>
<path fill-rule="evenodd" clip-rule="evenodd" fill="#888888" d="M26.1,152.8c-2.3-0.2-4.6,3.1-5.9,8.1l9.9,1
	C29.9,156.8,28.4,153,26.1,152.8z"/>
<path fill-rule="evenodd" clip-rule="evenodd" fill="#888888" d="M76.1,152.8c-2.3-0.2-4.6,3.1-5.9,8.1l9.9,1
	C79.9,156.8,78.4,153,76.1,152.8z"/>
<path fill-rule="evenodd" clip-rule="evenodd" fill="#888888" d="M126.1,152.8c-2.3-0.2-4.6,3.1-5.9,8.1l9.9,1
	C129.9,156.8,128.4,153,126.1,152.8z"/>
<g>
	
		<rect x="22.2" y="150.2" transform="matrix(-0.1035 0.9946 -0.9946 -0.1035 191.1008 156.7495)" fill-rule="evenodd" clip-rule="evenodd" fill="#888888" width="5.4" height="28.5"/>
	<g>
		<path fill="#484848" d="M11.9,161.4l26.4,2.8l-0.4,3.4l-26.4-2.8L11.9,161.4 M10.1,159.2l-0.2,2l-0.4,3.4l-0.2,2l2,0.2l26.4,2.8
			l2,0.2l0.2-2l0.4-3.4l0.2-2l-2-0.2l-26.4-2.8L10.1,159.2L10.1,159.2z"/>
	</g>
</g>
<g>
	<polygon fill-rule="evenodd" clip-rule="evenodd" fill="#888888" points="60.4,165.7 61,160.3 89.4,163.3 88.8,168.7 	"/>
	<g>
		<path fill="#484848" d="M61.9,161.4l26.4,2.8l-0.3,3.4l-26.4-2.8L61.9,161.4 M60.1,159.2l-0.2,2l-0.4,3.4l-0.2,2l2,0.2l26.4,2.8
			l2,0.2l0.2-2l0.3-3.4l0.2-2l-2-0.2l-26.4-2.8L60.1,159.2L60.1,159.2z"/>
	</g>
</g>
<g>
	<polygon fill-rule="evenodd" clip-rule="evenodd" fill="#888888" points="110.4,165.7 111,160.3 139.4,163.3 138.8,168.7 	"/>
	<g>
		<path fill="#484848" d="M111.9,161.4l26.4,2.8l-0.4,3.4l-26.4-2.8L111.9,161.4 M110.1,159.2l-0.2,2l-0.3,3.4l-0.2,2l2,0.2
			l26.4,2.8l2,0.2l0.2-2l0.4-3.4l0.2-2l-2-0.2l-26.4-2.8L110.1,159.2L110.1,159.2z"/>
	</g>
</g>
</svg>
