<?xml version="1.0" encoding="utf-8"?>
<!-- Generator: Adobe Illustrator 16.0.0, SVG Export Plug-In . SVG Version: 6.00 Build 0)  -->
<!DOCTYPE svg PUBLIC "-//W3C//DTD SVG 1.1//EN" "http://www.w3.org/Graphics/SVG/1.1/DTD/svg11.dtd">
<svg version="1.1" id="Layer_3" xmlns="http://www.w3.org/2000/svg" xmlns:xlink="http://www.w3.org/1999/xlink" x="0px" y="0px"
	 width="150px" height="250px" viewBox="0 0 150 250" enable-background="new 0 0 150 250" xml:space="preserve">
<g>
	<path fill-rule="evenodd" clip-rule="evenodd" fill="#6B60A7" d="M6.3,22.7c0.5-1.6,2.3-2.2,4-2.9c1.4-0.5,2.8-1.1,3.1-2
		c0.4-1.3,1.7-4.2,4-5.9c-1.6-2-2.1-3.5-0.8-5.5c-0.1,0-0.2,0-0.2,0c-2.3,0-3.5-0.4-4-1.2c-0.3-0.5-0.3-1,0-1.5c0.2-0.4,0.8-1,1.4-1
		h0.1l0.1,0l0.3,0.1c1,0.3,1.7,0.6,2.4,0.6c0.4,0,0.9-0.1,1.8-0.7c0.7-0.5,1.5-0.7,2.2-0.7c1.9,0,3.2,1.7,4.3,3.2
		c0.6,0.9,1.3,1.8,2,2.2c6.4,0.3,7.1,1.2,8.4,5.8c0.3,1.1,0.7,2.5,1.2,4.1c0.3,0.9,1.7,1.4,3.1,2c1.7,0.6,3.5,1.3,4,2.9l0.6,1.8
		l-1.8-0.6c-3.2-1-8.9-1.6-15.5-1.6c-7.7,0-15.3,0.8-19.3,2.1l-1.8,0.6L6.3,22.7z"/>
	<path fill="#413968" d="M20.7,3.1c2.5,0,3.8,4.3,6,5.4c8.1,0.4,6.2,1.4,8.9,9.2c0.9,2.6,6.4,2.5,7.1,4.8c-3.6-1.1-9.6-1.7-15.8-1.7
		c-7.5,0-15.3,0.8-19.6,2.1c0.7-2.3,6.2-2.2,7.1-4.8c0.7-1.9,2.1-4.8,4.5-6c-2.3-2.7-3-4-0.1-6.9c-1,0.1-1.8,0.1-2.5,0.1
		c-4.8,0-2.8-1.7-2.6-1.7c0,0,0,0,0,0c1.2,0.4,2.1,0.7,2.9,0.7c0.7,0,1.5-0.2,2.3-0.8C19.7,3.2,20.2,3.1,20.7,3.1 M20.7,1.1
		c-0.9,0-1.8,0.3-2.7,0.9c-0.6,0.4-1,0.5-1.2,0.5c-0.5,0-1.2-0.2-2.1-0.5l-0.2-0.1l0,0l0,0l-0.3-0.1l-0.3,0c-1.3,0-2.6,1.4-2.6,2.8
		c0,0.4,0.1,1.8,2,2.5c0.5,0.2,1.2,0.3,2,0.4c-0.5,1.6,0,3,1,4.4c-2,1.9-3.1,4.5-3.5,5.7c-0.2,0.4-1.7,1-2.6,1.3
		c-1.8,0.7-3.9,1.5-4.6,3.5L4.2,26l3.7-1.2c3.9-1.2,11.3-2,19-2c6.5,0,12.1,0.6,15.2,1.6l3.7,1.2l-1.2-3.7c-0.6-2-2.7-2.8-4.6-3.5
		c-0.8-0.3-2.4-0.9-2.6-1.3c-0.6-1.6-0.9-3-1.2-4.1c-1.3-4.9-2.3-6.1-9-6.5c-0.5-0.4-1-1.1-1.5-1.8C24.6,3.1,23.1,1.1,20.7,1.1
		L20.7,1.1z"/>
</g>
<g>
	<path fill-rule="evenodd" clip-rule="evenodd" fill="#6B60A7" d="M6.3,122.7c0.5-1.6,2.3-2.2,4-2.9c1.4-0.5,2.8-1.1,3.1-1.9
		c0.4-1.3,1.7-4.2,4-5.9c-1.6-2-2.1-3.5-0.8-5.5c-0.1,0-0.2,0-0.3,0c-2.3,0-3.5-0.4-4-1.2c-0.3-0.5-0.3-1,0-1.5c0.2-0.4,0.8-1,1.4-1
		h0.2l0.2,0l0.3,0.1c1,0.3,1.7,0.6,2.4,0.6c0.4,0,0.9-0.1,1.8-0.7c0.7-0.5,1.4-0.7,2.2-0.7c1.9,0,3.2,1.7,4.3,3.2
		c0.6,0.9,1.3,1.8,2,2.2c6.4,0.3,7.1,1.2,8.4,5.8c0.3,1.1,0.7,2.5,1.2,4.1c0.3,0.9,1.7,1.4,3.1,1.9c1.7,0.6,3.5,1.3,4,2.9l0.6,1.8
		l-1.8-0.6c-3.2-1-8.9-1.6-15.5-1.6c-7.7,0-15.3,0.8-19.3,2.1l-1.8,0.6L6.3,122.7z"/>
	<path fill="#413968" d="M20.7,103.1c2.5,0,3.8,4.3,6,5.4c8.1,0.4,6.2,1.4,8.9,9.2c0.9,2.6,6.4,2.5,7.1,4.8
		c-3.6-1.1-9.6-1.7-15.8-1.7c-7.5,0-15.3,0.8-19.6,2.1c0.7-2.3,6.2-2.2,7.1-4.8c0.7-1.9,2.1-4.8,4.5-6c-2.3-2.7-3-4-0.1-6.9
		c-1,0.1-1.8,0.1-2.5,0.1c-4.8,0-2.8-1.7-2.6-1.7c0,0,0,0,0,0c1.2,0.4,2.1,0.7,2.9,0.7c0.7,0,1.5-0.2,2.3-0.8
		C19.7,103.2,20.2,103.1,20.7,103.1 M20.7,101.1c-0.9,0-1.8,0.3-2.7,0.9c-0.6,0.4-1,0.5-1.2,0.5c-0.5,0-1.2-0.2-2.1-0.5l-0.2-0.1
		l-0.3-0.1l-0.3,0c-1.3,0-2.6,1.4-2.6,2.8c0,0.4,0.1,1.8,2,2.5c0.5,0.2,1.2,0.3,2,0.4c-0.5,1.6,0,3,1,4.4c-2,1.9-3.1,4.5-3.5,5.7
		c-0.2,0.4-1.7,1-2.6,1.3c-1.8,0.7-3.9,1.5-4.6,3.5L4.2,126l3.7-1.2c3.9-1.2,11.3-2,19-2c6.5,0,12.1,0.6,15.2,1.6l3.7,1.2l-1.2-3.7
		c-0.6-2-2.7-2.8-4.6-3.5c-0.8-0.3-2.4-0.9-2.6-1.3c-0.6-1.6-0.9-3-1.2-4.1c-1.3-4.9-2.3-6.1-9-6.5c-0.5-0.4-1-1.1-1.5-1.8
		C24.6,103.1,23.1,101.1,20.7,101.1L20.7,101.1z"/>
</g>
<g>
	<path fill-rule="evenodd" clip-rule="evenodd" fill="#6B60A7" d="M6.3,222.7c0.5-1.6,2.3-2.2,4-2.9c1.4-0.5,2.8-1.1,3.1-2
		c0.4-1.3,1.7-4.2,4-5.9c-1.6-2-2.1-3.5-0.8-5.5c-0.1,0-0.2,0-0.3,0c-2.3,0-3.5-0.4-4-1.2c-0.3-0.5-0.3-1,0-1.5c0.2-0.4,0.8-1,1.4-1
		h0.1l0.2,0l0.3,0.1c1,0.3,1.7,0.6,2.4,0.6c0.4,0,0.9-0.1,1.8-0.7c0.7-0.5,1.4-0.7,2.2-0.7c1.9,0,3.2,1.7,4.3,3.2
		c0.6,0.9,1.3,1.8,2,2.2c6.4,0.3,7.1,1.2,8.4,5.8c0.3,1.1,0.7,2.5,1.2,4.1c0.3,0.9,1.7,1.4,3.1,2c1.7,0.6,3.5,1.3,4,2.9l0.6,1.8
		l-1.8-0.6c-3.2-1-8.9-1.6-15.5-1.6c-7.7,0-15.3,0.8-19.3,2.1l-1.8,0.6L6.3,222.7z"/>
	<path fill="#413968" d="M20.7,203.1c2.5,0,3.8,4.3,6,5.4c8.1,0.4,6.2,1.4,8.9,9.2c0.9,2.6,6.4,2.5,7.1,4.8
		c-3.6-1.1-9.6-1.7-15.8-1.7c-7.5,0-15.3,0.8-19.6,2.1c0.7-2.3,6.2-2.2,7.1-4.8c0.7-1.9,2.1-4.8,4.5-6c-2.3-2.7-3-4-0.1-6.9
		c-1,0.1-1.8,0.1-2.5,0.1c-4.8,0-2.8-1.7-2.6-1.7c0,0,0,0,0,0c1.2,0.4,2.1,0.7,2.9,0.7c0.7,0,1.5-0.2,2.3-0.8
		C19.7,203.2,20.2,203.1,20.7,203.1 M20.7,201.1c-0.9,0-1.8,0.3-2.7,0.9c-0.6,0.4-1,0.5-1.2,0.5c-0.5,0-1.2-0.2-2.1-0.5l-0.2-0.1
		l0,0l0,0l-0.3-0.1l-0.3,0c-1.3,0-2.6,1.4-2.6,2.8c0,0.4,0.1,1.8,2,2.5c0.5,0.2,1.2,0.3,2,0.4c-0.5,1.6,0,3,1,4.4
		c-2,1.9-3.1,4.5-3.5,5.7c-0.2,0.4-1.7,1-2.6,1.3c-1.8,0.7-3.9,1.5-4.6,3.5L4.2,226l3.7-1.2c3.9-1.2,11.3-2,19-2
		c6.5,0,12.1,0.6,15.2,1.6l3.7,1.2l-1.2-3.7c-0.6-2-2.7-2.8-4.6-3.5c-0.8-0.3-2.4-0.9-2.6-1.3c-0.6-1.6-0.9-3-1.2-4.1
		c-1.3-4.9-2.3-6.1-9-6.5c-0.5-0.4-1-1.1-1.5-1.8C24.6,203.1,23.1,201.1,20.7,201.1L20.7,201.1z"/>
</g>
<g>
	<path fill-rule="evenodd" clip-rule="evenodd" fill="#6B60A7" d="M56.3,22.7c0.5-1.6,2.3-2.2,4-2.9c1.4-0.5,2.8-1.1,3.1-2
		c0.4-1.3,1.7-4.2,4-5.9c-1.6-2-2.1-3.5-0.8-5.5c-0.1,0-0.2,0-0.2,0c-2.3,0-3.5-0.4-4-1.2c-0.3-0.5-0.3-1,0-1.5c0.2-0.4,0.8-1,1.4-1
		h0.1l0.2,0l0.3,0.1c1,0.3,1.7,0.6,2.4,0.6c0.4,0,0.9-0.1,1.8-0.7c0.7-0.5,1.5-0.7,2.2-0.7c1.9,0,3.2,1.7,4.3,3.2
		c0.6,0.9,1.3,1.8,2,2.2c6.4,0.3,7.1,1.2,8.4,5.8c0.3,1.1,0.7,2.5,1.2,4.1c0.3,0.9,1.7,1.4,3.1,2c1.7,0.6,3.5,1.3,4,2.9l0.6,1.8
		l-1.8-0.6c-3.2-1-8.9-1.6-15.5-1.6c-7.7,0-15.3,0.8-19.3,2.1l-1.8,0.6L56.3,22.7z"/>
	<path fill="#413968" d="M70.7,3.1c2.5,0,3.8,4.3,6,5.4c8.1,0.4,6.2,1.4,8.9,9.2c0.9,2.6,6.4,2.5,7.1,4.8c-3.6-1.1-9.6-1.7-15.8-1.7
		c-7.5,0-15.3,0.8-19.6,2.1c0.7-2.3,6.2-2.2,7.1-4.8c0.7-1.9,2.1-4.8,4.5-6c-2.3-2.7-3-4-0.1-6.9c-1,0.1-1.8,0.1-2.5,0.1
		c-4.8,0-2.8-1.7-2.6-1.7c0,0,0,0,0,0c1.2,0.4,2.1,0.7,2.9,0.7c0.7,0,1.5-0.2,2.3-0.8C69.7,3.2,70.2,3.1,70.7,3.1 M70.7,1.1
		c-0.9,0-1.8,0.3-2.7,0.9c-0.6,0.4-1,0.5-1.2,0.5c-0.5,0-1.2-0.2-2.1-0.5l-0.2-0.1l0,0l0,0l-0.3-0.1l-0.3,0c-1.3,0-2.6,1.4-2.6,2.8
		c0,0.4,0.1,1.8,2,2.5c0.5,0.2,1.2,0.3,2,0.4c-0.5,1.6,0,3,1,4.4c-2,1.9-3.1,4.5-3.5,5.7c-0.2,0.4-1.7,1-2.6,1.3
		c-1.8,0.7-3.9,1.5-4.6,3.5L54.2,26l3.7-1.2c3.9-1.2,11.3-2,19-2c6.5,0,12.1,0.6,15.2,1.6l3.7,1.2l-1.2-3.7c-0.6-2-2.7-2.8-4.6-3.5
		c-0.8-0.3-2.4-0.9-2.6-1.3c-0.6-1.6-0.9-3-1.2-4.1c-1.3-4.9-2.3-6.1-9-6.5c-0.5-0.4-1-1.1-1.5-1.8C74.6,3.1,73.1,1.1,70.7,1.1
		L70.7,1.1z"/>
</g>
<g>
	<path fill-rule="evenodd" clip-rule="evenodd" fill="#6B60A7" d="M56.3,122.7c0.5-1.6,2.3-2.2,4-2.9c1.4-0.5,2.8-1.1,3.1-1.9
		c0.4-1.3,1.7-4.2,4-5.9c-1.6-2-2.1-3.5-0.8-5.5c-0.1,0-0.2,0-0.3,0c-2.3,0-3.5-0.4-4-1.2c-0.3-0.5-0.3-1,0-1.5c0.2-0.4,0.8-1,1.4-1
		h0.2l0.4,0.1c1,0.3,1.7,0.6,2.4,0.6c0.4,0,0.9-0.1,1.8-0.7c0.7-0.5,1.5-0.7,2.2-0.7c1.9,0,3.2,1.7,4.3,3.2c0.6,0.9,1.3,1.8,2,2.2
		c6.4,0.3,7.1,1.2,8.4,5.8c0.3,1.1,0.7,2.5,1.2,4.1c0.3,0.9,1.7,1.4,3.1,1.9c1.7,0.6,3.5,1.3,4,2.9l0.6,1.8l-1.8-0.6
		c-3.2-1-8.9-1.6-15.5-1.6c-7.7,0-15.3,0.8-19.3,2.1l-1.8,0.6L56.3,122.7z"/>
	<path fill="#413968" d="M70.7,103.1c2.5,0,3.8,4.3,6,5.4c8.1,0.4,6.2,1.4,8.9,9.2c0.9,2.6,6.4,2.5,7.1,4.8
		c-3.6-1.1-9.6-1.7-15.8-1.7c-7.5,0-15.3,0.8-19.6,2.1c0.7-2.3,6.2-2.2,7.1-4.8c0.7-1.9,2.1-4.8,4.5-6c-2.3-2.7-3-4-0.1-6.9
		c-1,0.1-1.8,0.1-2.5,0.1c-4.8,0-2.8-1.7-2.6-1.7c0,0,0,0,0,0c1.2,0.4,2.1,0.7,2.9,0.7c0.7,0,1.5-0.2,2.3-0.8
		C69.7,103.2,70.2,103.1,70.7,103.1 M70.7,101.1c-0.9,0-1.8,0.3-2.7,0.9c-0.6,0.4-1,0.5-1.2,0.5c-0.5,0-1.2-0.2-2.1-0.5l-0.2-0.1
		l-0.3-0.1l-0.3,0c-1.3,0-2.6,1.4-2.6,2.8c0,0.4,0.1,1.8,2,2.5c0.5,0.2,1.2,0.3,2,0.4c-0.5,1.6,0,3,1,4.4c-2,1.9-3.1,4.5-3.5,5.7
		c-0.2,0.4-1.7,1-2.6,1.3c-1.8,0.7-3.9,1.5-4.6,3.5l-1.2,3.7l3.7-1.2c3.9-1.2,11.3-2,19-2c6.5,0,12.1,0.6,15.2,1.6l3.7,1.2l-1.2-3.7
		c-0.6-2-2.7-2.8-4.6-3.5c-0.8-0.3-2.4-0.9-2.6-1.3c-0.6-1.6-0.9-3-1.2-4.1c-1.3-4.9-2.3-6.1-9-6.5c-0.5-0.4-1-1.1-1.5-1.8
		C74.6,103.1,73.1,101.1,70.7,101.1L70.7,101.1z"/>
</g>
<g>
	<path fill-rule="evenodd" clip-rule="evenodd" fill="#6B60A7" d="M56.3,222.7c0.5-1.6,2.3-2.2,4-2.9c1.4-0.5,2.8-1.1,3.1-2
		c0.4-1.3,1.7-4.2,4-5.9c-1.6-2-2.1-3.5-0.8-5.5c-0.1,0-0.2,0-0.3,0c-2.3,0-3.5-0.4-4-1.2c-0.3-0.5-0.3-1,0-1.5c0.2-0.4,0.8-1,1.4-1
		h0.1l0.2,0l0.3,0.1c1,0.3,1.7,0.6,2.4,0.6c0.4,0,0.9-0.1,1.8-0.7c0.7-0.5,1.5-0.7,2.2-0.7c1.9,0,3.2,1.7,4.3,3.2
		c0.6,0.9,1.3,1.8,2,2.2c6.4,0.3,7.1,1.2,8.4,5.8c0.3,1.1,0.7,2.5,1.2,4.1c0.3,0.9,1.7,1.4,3.1,2c1.7,0.6,3.5,1.3,4,2.9l0.6,1.8
		l-1.8-0.6c-3.2-1-8.9-1.6-15.5-1.6c-7.7,0-15.3,0.8-19.3,2.1l-1.8,0.6L56.3,222.7z"/>
	<path fill="#413968" d="M70.7,203.1c2.5,0,3.8,4.3,6,5.4c8.1,0.4,6.2,1.4,8.9,9.2c0.9,2.6,6.4,2.5,7.1,4.8
		c-3.6-1.1-9.6-1.7-15.8-1.7c-7.5,0-15.3,0.8-19.6,2.1c0.7-2.3,6.2-2.2,7.1-4.8c0.7-1.9,2.1-4.8,4.5-6c-2.3-2.7-3-4-0.1-6.9
		c-1,0.1-1.8,0.1-2.5,0.1c-4.8,0-2.8-1.7-2.6-1.7c0,0,0,0,0,0c1.2,0.4,2.1,0.7,2.9,0.7c0.7,0,1.5-0.2,2.3-0.8
		C69.7,203.2,70.2,203.1,70.7,203.1 M70.7,201.1c-0.9,0-1.8,0.3-2.7,0.9c-0.6,0.4-1,0.5-1.2,0.5c-0.5,0-1.2-0.2-2.1-0.5l-0.2-0.1
		l0,0l0,0l-0.3-0.1l-0.3,0c-1.3,0-2.6,1.4-2.6,2.8c0,0.4,0.1,1.8,2,2.5c0.5,0.2,1.2,0.3,2,0.4c-0.5,1.6,0,3,1,4.4
		c-2,1.9-3.1,4.5-3.5,5.7c-0.2,0.4-1.7,1-2.6,1.3c-1.8,0.7-3.9,1.5-4.6,3.5l-1.2,3.7l3.7-1.2c3.9-1.2,11.3-2,19-2
		c6.5,0,12.1,0.6,15.2,1.6l3.7,1.2l-1.2-3.7c-0.6-2-2.7-2.8-4.6-3.5c-0.8-0.3-2.4-0.9-2.6-1.3c-0.6-1.6-0.9-3-1.2-4.1
		c-1.3-4.9-2.3-6.1-9-6.5c-0.5-0.4-1-1.1-1.5-1.8C74.6,203.1,73.1,201.1,70.7,201.1L70.7,201.1z"/>
</g>
<g>
	<path fill-rule="evenodd" clip-rule="evenodd" fill="#6B60A7" d="M106.4,22.7c0.5-1.6,2.3-2.2,4-2.9c1.4-0.5,2.8-1.1,3.1-2
		c0.4-1.3,1.7-4.2,4-5.9c-1.6-2-2.1-3.5-0.8-5.5c-0.1,0-0.2,0-0.2,0c-2.3,0-3.5-0.4-4-1.2c-0.3-0.5-0.3-1,0-1.5c0.2-0.4,0.8-1,1.4-1
		h0.1l0.1,0l0.3,0.1c1,0.3,1.7,0.6,2.4,0.6c0.4,0,0.9-0.1,1.8-0.7c0.7-0.5,1.5-0.7,2.2-0.7c1.9,0,3.2,1.7,4.3,3.2
		c0.7,0.9,1.3,1.8,2,2.2c6.4,0.3,7.1,1.2,8.4,5.8c0.3,1.1,0.7,2.5,1.2,4.1c0.3,0.9,1.7,1.4,3.1,2c1.7,0.6,3.5,1.3,4,2.9l0.6,1.8
		l-1.8-0.6c-3.2-1-8.9-1.6-15.5-1.6c-7.7,0-15.3,0.8-19.3,2.1l-1.8,0.6L106.4,22.7z"/>
	<path fill="#413968" d="M120.7,3.1c2.5,0,3.8,4.3,6,5.4c8.1,0.4,6.2,1.4,8.9,9.2c0.9,2.6,6.4,2.5,7.1,4.8
		c-3.6-1.1-9.6-1.7-15.8-1.7c-7.5,0-15.3,0.8-19.6,2.1c0.7-2.3,6.2-2.2,7.1-4.8c0.7-1.9,2.1-4.8,4.5-6c-2.3-2.7-3-4-0.1-6.9
		c-1,0.1-1.8,0.1-2.5,0.1c-4.8,0-2.8-1.7-2.6-1.7c0,0,0,0,0,0c1.2,0.4,2.1,0.7,2.9,0.7c0.7,0,1.5-0.2,2.3-0.8
		C119.7,3.2,120.2,3.1,120.7,3.1 M120.7,1.1c-0.9,0-1.8,0.3-2.7,0.9c-0.6,0.4-1,0.5-1.2,0.5c-0.5,0-1.2-0.2-2.1-0.5l-0.2-0.1l0,0
		l0,0l-0.3-0.1l-0.3,0c-1.3,0-2.6,1.4-2.6,2.8c0,0.4,0.1,1.8,2,2.5c0.5,0.2,1.2,0.3,2,0.4c-0.5,1.6,0,3,1,4.4
		c-2,1.9-3.1,4.5-3.5,5.7c-0.2,0.4-1.7,1-2.6,1.3c-1.8,0.7-3.9,1.5-4.6,3.5l-1.2,3.7l3.7-1.2c3.9-1.2,11.3-2,19-2
		c6.5,0,12.1,0.6,15.2,1.6l3.7,1.2l-1.2-3.7c-0.6-2-2.7-2.8-4.6-3.5c-0.8-0.3-2.4-0.9-2.6-1.3c-0.6-1.6-0.9-3-1.2-4.1
		c-1.3-4.9-2.3-6.1-9-6.5c-0.5-0.4-1-1.1-1.5-1.8C124.6,3.1,123.1,1.1,120.7,1.1L120.7,1.1z"/>
</g>
<g>
	<path fill-rule="evenodd" clip-rule="evenodd" fill="#6B60A7" d="M106.4,122.7c0.5-1.6,2.3-2.2,4-2.9c1.4-0.5,2.8-1.1,3.1-1.9
		c0.4-1.3,1.7-4.2,4-5.9c-1.6-2-2.1-3.5-0.8-5.5c-0.1,0-0.2,0-0.3,0c-2.3,0-3.5-0.4-4-1.2c-0.3-0.5-0.3-1,0-1.5c0.2-0.4,0.8-1,1.4-1
		h0.2l0.2,0l0.3,0.1c1,0.3,1.7,0.6,2.4,0.6c0.4,0,0.9-0.1,1.8-0.7c0.7-0.5,1.5-0.7,2.2-0.7c1.9,0,3.2,1.7,4.3,3.2
		c0.6,0.9,1.3,1.8,2,2.2c6.4,0.3,7.1,1.2,8.4,5.8c0.3,1.1,0.7,2.5,1.2,4.1c0.3,0.9,1.7,1.4,3.1,1.9c1.7,0.6,3.5,1.3,4,2.9l0.6,1.8
		l-1.8-0.6c-3.2-1-8.9-1.6-15.5-1.6c-7.7,0-15.3,0.8-19.3,2.1l-1.8,0.6L106.4,122.7z"/>
	<path fill="#413968" d="M120.7,103.1c2.5,0,3.8,4.3,6,5.4c8.1,0.4,6.2,1.4,8.9,9.2c0.9,2.6,6.4,2.5,7.1,4.8
		c-3.6-1.1-9.6-1.7-15.8-1.7c-7.5,0-15.3,0.8-19.6,2.1c0.7-2.3,6.2-2.2,7.1-4.8c0.7-1.9,2.1-4.8,4.5-6c-2.3-2.7-3-4-0.1-6.9
		c-1,0.1-1.8,0.1-2.5,0.1c-4.8,0-2.8-1.7-2.6-1.7c0,0,0,0,0,0c1.2,0.4,2.1,0.7,2.9,0.7c0.7,0,1.5-0.2,2.3-0.8
		C119.7,103.2,120.2,103.1,120.7,103.1 M120.7,101.1c-0.9,0-1.8,0.3-2.7,0.9c-0.6,0.4-1,0.5-1.2,0.5c-0.5,0-1.2-0.2-2.1-0.5
		l-0.2-0.1l-0.3-0.1l-0.3,0c-1.3,0-2.6,1.4-2.6,2.8c0,0.4,0.1,1.8,2,2.5c0.5,0.2,1.2,0.3,2,0.4c-0.5,1.6,0,3,1,4.4
		c-2,1.9-3.1,4.5-3.5,5.7c-0.2,0.4-1.7,1-2.6,1.3c-1.8,0.7-3.9,1.5-4.6,3.5l-1.2,3.7l3.7-1.2c3.9-1.2,11.3-2,19-2
		c6.5,0,12.1,0.6,15.2,1.6l3.7,1.2l-1.2-3.7c-0.6-2-2.7-2.8-4.6-3.5c-0.8-0.3-2.4-0.9-2.5-1.3c-0.6-1.6-0.9-3-1.2-4.1
		c-1.3-4.9-2.3-6.1-9-6.5c-0.5-0.4-1-1.1-1.5-1.8C124.6,103.1,123.1,101.1,120.7,101.1L120.7,101.1z"/>
</g>
<g>
	<path fill-rule="evenodd" clip-rule="evenodd" fill="#6B60A7" d="M106.4,222.7c0.5-1.6,2.3-2.2,4-2.9c1.4-0.5,2.8-1.1,3.1-2
		c0.4-1.3,1.7-4.2,4-5.9c-1.6-2-2.1-3.5-0.8-5.5c-0.1,0-0.2,0-0.3,0c-2.3,0-3.5-0.4-4-1.2c-0.3-0.5-0.3-1,0-1.5c0.2-0.4,0.8-1,1.4-1
		h0.1l0.2,0l0.3,0.1c1,0.3,1.7,0.6,2.4,0.6c0.4,0,0.9-0.1,1.8-0.7c0.7-0.5,1.5-0.7,2.2-0.7c1.9,0,3.2,1.7,4.3,3.2
		c0.6,0.9,1.3,1.8,2,2.2c6.4,0.3,7.1,1.2,8.4,5.8c0.3,1.1,0.7,2.5,1.2,4.1c0.3,0.9,1.7,1.4,3.1,2c1.7,0.6,3.5,1.3,4,2.9l0.6,1.8
		l-1.8-0.6c-3.2-1-8.9-1.6-15.5-1.6c-7.7,0-15.3,0.8-19.3,2.1l-1.8,0.6L106.4,222.7z"/>
	<path fill="#413968" d="M120.7,203.1c2.5,0,3.8,4.3,6,5.4c8.1,0.4,6.2,1.4,8.9,9.2c0.9,2.6,6.4,2.5,7.1,4.8
		c-3.6-1.1-9.6-1.7-15.8-1.7c-7.5,0-15.3,0.8-19.6,2.1c0.7-2.3,6.2-2.2,7.1-4.8c0.7-1.9,2.1-4.8,4.5-6c-2.3-2.7-3-4-0.1-6.9
		c-1,0.1-1.8,0.1-2.5,0.1c-4.8,0-2.8-1.7-2.6-1.7c0,0,0,0,0,0c1.2,0.4,2.1,0.7,2.9,0.7c0.7,0,1.5-0.2,2.3-0.8
		C119.7,203.2,120.2,203.1,120.7,203.1 M120.7,201.1c-0.9,0-1.8,0.3-2.7,0.9c-0.6,0.4-1,0.5-1.2,0.5c-0.5,0-1.2-0.2-2.1-0.5
		l-0.2-0.1l0,0l0,0l-0.3-0.1l-0.3,0c-1.3,0-2.6,1.4-2.6,2.8c0,0.4,0.1,1.8,2,2.5c0.5,0.2,1.2,0.3,2,0.4c-0.5,1.6,0,3,1,4.4
		c-2,1.9-3.1,4.5-3.5,5.7c-0.2,0.4-1.7,1-2.6,1.3c-1.8,0.7-3.9,1.5-4.6,3.5l-1.2,3.7l3.7-1.2c3.9-1.2,11.3-2,19-2
		c6.5,0,12.1,0.6,15.2,1.6l3.7,1.2l-1.2-3.7c-0.6-2-2.7-2.8-4.6-3.5c-0.8-0.3-2.4-0.9-2.6-1.3c-0.6-1.6-0.9-3-1.2-4.1
		c-1.3-4.9-2.3-6.1-9-6.5c-0.5-0.4-1-1.1-1.5-1.8C124.6,203.1,123.1,201.1,120.7,201.1L120.7,201.1z"/>
</g>
<g>
	<path fill-rule="evenodd" clip-rule="evenodd" fill="#6B60A7" d="M42.4,73.9c-4-1.3-11.6-2.1-19.3-2.1c-6.6,0-12.3,0.6-15.5,1.6
		L5.8,74l0.6-1.8c0.5-1.6,2.3-2.2,4-2.9c1.4-0.5,2.8-1.1,3.1-1.9c0.6-1.7,1-3,1.2-4.1c1.2-4.6,2-5.5,8.4-5.8c0.7-0.4,1.3-1.3,2-2.2
		c1.1-1.5,2.4-3.2,4.3-3.2c0.7,0,1.4,0.2,2.1,0.7c0.9,0.6,1.4,0.7,1.8,0.7c0.7,0,1.4-0.3,2.4-0.6l0.4-0.1l0.2,0
		c0.7,0,1.6,0.9,1.6,1.8c0,0.3-0.1,1.1-1.3,1.6c-0.7,0.2-1.6,0.3-2.9,0.3c-0.1,0-0.2,0-0.2,0c1.3,2,0.8,3.6-0.8,5.5
		c2.3,1.7,3.5,4.6,4,5.9c0.3,0.9,1.7,1.4,3.1,1.9c1.7,0.6,3.5,1.3,4,2.9l0.6,1.8L42.4,73.9z"/>
	<path fill="#413968" d="M29.3,53.1c0.5,0,1,0.2,1.6,0.6c0.9,0.6,1.6,0.8,2.3,0.8c0.9,0,1.8-0.3,2.9-0.7c0,0,0,0,0,0
		c0.2,0,2.3,1.7-2.6,1.7c-0.7,0-1.5,0-2.5-0.1c2.9,2.9,2.3,4.2-0.1,6.9c2.4,1.2,3.8,4.1,4.5,6c0.9,2.6,6.4,2.5,7.1,4.8
		c-4.3-1.4-12.1-2.1-19.6-2.1c-6.2,0-12.2,0.5-15.8,1.7c0.7-2.3,6.2-2.2,7.1-4.8c2.7-7.8,0.8-8.9,8.9-9.2
		C25.5,57.4,26.9,53.1,29.3,53.1 M29.3,51.1c-2.4,0-3.9,2-5.1,3.6c-0.5,0.6-1.1,1.4-1.5,1.8c-6.6,0.4-7.7,1.6-9,6.5
		c-0.3,1.1-0.7,2.4-1.2,4.1c-0.2,0.4-1.7,1-2.6,1.3c-1.8,0.7-3.9,1.5-4.6,3.5l-1.2,3.7l3.7-1.2c3.1-1,8.7-1.6,15.2-1.6
		c7.6,0,15.1,0.8,19,2l3.7,1.2l-1.2-3.7c-0.6-2-2.7-2.8-4.6-3.5c-0.8-0.3-2.4-0.9-2.6-1.3c-0.4-1.2-1.5-3.8-3.5-5.7
		c1-1.4,1.5-2.8,1-4.4c1.7-0.1,3.9-0.7,3.9-2.9c0-1.4-1.3-2.8-2.6-2.8h-0.3l-0.3,0.1l-0.3,0.1c-0.9,0.3-1.6,0.5-2.1,0.5
		c-0.3,0-0.6-0.1-1.2-0.5C31.1,51.4,30.2,51.1,29.3,51.1L29.3,51.1C29.3,51.1,29.3,51.1,29.3,51.1L29.3,51.1z"/>
</g>
<g>
	<path fill-rule="evenodd" clip-rule="evenodd" fill="#6B60A7" d="M42.4,173.9c-4-1.3-11.5-2.1-19.3-2.1c-6.6,0-12.3,0.6-15.5,1.6
		L5.8,174l0.6-1.8c0.5-1.6,2.3-2.2,4-2.9c1.4-0.5,2.8-1.1,3.1-2c0.6-1.7,1-3,1.2-4.1c1.2-4.6,2-5.5,8.4-5.8c0.7-0.4,1.3-1.3,2-2.2
		c1.1-1.5,2.4-3.2,4.3-3.2c0.7,0,1.4,0.2,2.1,0.7c0.9,0.6,1.4,0.7,1.8,0.7c0.7,0,1.4-0.3,2.4-0.6l0.4-0.1l0.2,0
		c0.7,0,1.6,0.9,1.6,1.8c0,0.3-0.1,1.1-1.3,1.6c-0.7,0.2-1.6,0.3-2.9,0.3c-0.1,0-0.2,0-0.3,0c1.3,2,0.8,3.6-0.8,5.5
		c2.3,1.7,3.5,4.6,4,5.9c0.3,0.9,1.7,1.4,3.1,2c1.7,0.6,3.5,1.3,4,2.9l0.6,1.8L42.4,173.9z"/>
	<path fill="#413968" d="M29.3,153.1c0.5,0,1,0.2,1.6,0.6c0.9,0.6,1.6,0.8,2.3,0.8c0.9,0,1.8-0.3,2.9-0.7c0,0,0,0,0,0
		c0.2,0,2.3,1.7-2.6,1.7c-0.7,0-1.5,0-2.5-0.1c2.9,2.9,2.3,4.2-0.1,6.9c2.4,1.2,3.8,4.1,4.5,6c0.9,2.6,6.4,2.5,7.1,4.8
		c-4.3-1.4-12.1-2.1-19.6-2.1c-6.2,0-12.2,0.5-15.8,1.7c0.7-2.3,6.2-2.2,7.1-4.8c2.7-7.8,0.8-8.9,8.9-9.2
		C25.5,157.4,26.9,153.1,29.3,153.1 M29.3,151.1c-2.4,0-3.9,2-5.1,3.6c-0.5,0.6-1.1,1.4-1.5,1.8c-6.6,0.4-7.7,1.6-9,6.5
		c-0.3,1.1-0.7,2.4-1.2,4.1c-0.2,0.4-1.7,1-2.6,1.3c-1.8,0.7-3.9,1.5-4.6,3.5l-1.2,3.7l3.7-1.2c3.1-1,8.7-1.6,15.2-1.6
		c7.6,0,15.1,0.8,19,2l3.7,1.2l-1.2-3.7c-0.6-2-2.7-2.8-4.6-3.5c-0.8-0.3-2.4-0.9-2.6-1.3c-0.4-1.2-1.5-3.8-3.5-5.7
		c1-1.4,1.5-2.8,1-4.4c1.6-0.1,3.9-0.7,3.9-2.9c0-1.4-1.3-2.8-2.6-2.8h-0.3l-0.3,0.1l0,0l0,0l-0.2,0.1c-0.9,0.3-1.6,0.5-2.1,0.5
		c-0.3,0-0.6-0.1-1.2-0.5C31.1,151.4,30.2,151.1,29.3,151.1L29.3,151.1z"/>
</g>
<g>
	<path fill-rule="evenodd" clip-rule="evenodd" fill="#6B60A7" d="M92.4,73.9c-4-1.3-11.6-2.1-19.3-2.1c-6.6,0-12.3,0.6-15.5,1.6
		L55.8,74l0.6-1.8c0.5-1.6,2.3-2.2,4-2.9c1.4-0.5,2.8-1.1,3.1-1.9c0.6-1.7,1-3,1.2-4.1c1.2-4.6,2-5.5,8.4-5.8c0.7-0.4,1.3-1.3,2-2.2
		c1.1-1.5,2.4-3.2,4.3-3.2c0.7,0,1.4,0.2,2.1,0.7c0.9,0.6,1.4,0.7,1.8,0.7c0.7,0,1.4-0.3,2.4-0.6l0.4-0.1l0.2,0
		c0.7,0,1.6,0.9,1.6,1.8c0,0.3-0.1,1.1-1.3,1.6c-0.7,0.2-1.6,0.3-2.9,0.3c-0.1,0-0.2,0-0.2,0c1.3,2,0.8,3.6-0.8,5.5
		c2.3,1.7,3.5,4.6,4,5.9c0.3,0.9,1.7,1.4,3.1,2c1.7,0.6,3.5,1.3,4,2.9l0.6,1.8L92.4,73.9z"/>
	<path fill="#413968" d="M79.3,53.1c0.5,0,1,0.2,1.6,0.6c0.9,0.6,1.6,0.8,2.3,0.8c0.9,0,1.8-0.3,2.9-0.7c0,0,0,0,0,0
		c0.2,0,2.3,1.7-2.6,1.7c-0.7,0-1.5,0-2.5-0.1c2.9,2.9,2.3,4.2-0.1,6.9c2.4,1.2,3.8,4.1,4.5,6c0.9,2.6,6.4,2.5,7.1,4.8
		c-4.3-1.4-12.1-2.1-19.6-2.1c-6.2,0-12.2,0.5-15.8,1.7c0.7-2.3,6.2-2.2,7.1-4.8c2.7-7.8,0.8-8.9,8.9-9.2
		C75.5,57.4,76.9,53.1,79.3,53.1 M79.3,51.1c-2.4,0-3.9,2-5.1,3.6c-0.5,0.6-1.1,1.4-1.5,1.8c-6.6,0.4-7.7,1.6-9,6.5
		c-0.3,1.1-0.7,2.4-1.2,4.1c-0.2,0.4-1.7,1-2.6,1.3c-1.8,0.7-3.9,1.5-4.6,3.5l-1.2,3.7l3.7-1.2c3.1-1,8.7-1.6,15.2-1.6
		c7.6,0,15.1,0.8,19,2l3.7,1.2l-1.2-3.7c-0.6-2-2.7-2.8-4.6-3.5c-0.8-0.3-2.4-0.9-2.6-1.3c-0.4-1.2-1.5-3.8-3.5-5.7
		c1-1.4,1.5-2.8,1-4.4c1.7-0.1,3.9-0.7,3.9-2.9c0-1.4-1.3-2.8-2.6-2.8h-0.3l-0.3,0.1l-0.3,0.1c-0.9,0.3-1.6,0.5-2.1,0.5
		c-0.3,0-0.6-0.1-1.2-0.5C81.1,51.4,80.2,51.1,79.3,51.1L79.3,51.1L79.3,51.1L79.3,51.1z"/>
</g>
<g>
	<path fill-rule="evenodd" clip-rule="evenodd" fill="#6B60A7" d="M92.4,173.9c-4-1.3-11.5-2.1-19.3-2.1c-6.6,0-12.3,0.6-15.5,1.6
		l-1.8,0.6l0.6-1.8c0.5-1.6,2.3-2.2,4-2.9c1.4-0.5,2.8-1.1,3.1-2c0.6-1.7,1-3,1.2-4.1c1.2-4.6,2-5.5,8.4-5.8c0.7-0.4,1.3-1.3,2-2.2
		c1.1-1.5,2.4-3.2,4.3-3.2c0.7,0,1.4,0.2,2.1,0.7c0.9,0.6,1.4,0.7,1.8,0.7c0.7,0,1.4-0.3,2.4-0.6l0.4-0.1l0.2,0
		c0.7,0,1.6,0.9,1.6,1.8c0,1.9-3.1,1.9-4.2,1.9c-0.1,0-0.2,0-0.3,0c1.3,2,0.8,3.6-0.8,5.5c2.3,1.7,3.5,4.6,4,5.9
		c0.3,0.9,1.7,1.4,3.1,2c1.7,0.6,3.5,1.3,4,2.9l0.6,1.8L92.4,173.9z"/>
	<path fill="#413968" d="M79.3,153.1c0.5,0,1,0.2,1.6,0.6c0.9,0.6,1.6,0.8,2.3,0.8c0.9,0,1.8-0.3,2.9-0.7c0,0,0,0,0,0
		c0.2,0,2.3,1.7-2.6,1.7c-0.7,0-1.5,0-2.5-0.1c2.9,2.9,2.3,4.2-0.1,6.9c2.4,1.2,3.8,4.1,4.5,6c0.9,2.6,6.4,2.5,7.1,4.8
		c-4.3-1.4-12.1-2.1-19.6-2.1c-6.2,0-12.2,0.5-15.8,1.7c0.7-2.3,6.2-2.2,7.1-4.8c2.7-7.8,0.8-8.9,8.9-9.2
		C75.5,157.4,76.9,153.1,79.3,153.1 M79.3,151.1c-2.4,0-3.9,2-5.1,3.6c-0.5,0.6-1.1,1.4-1.5,1.8c-6.6,0.4-7.7,1.6-9,6.5
		c-0.3,1.1-0.7,2.4-1.2,4.1c-0.2,0.4-1.7,1-2.6,1.3c-1.8,0.7-3.9,1.5-4.6,3.5l-1.2,3.7l3.7-1.2c3.1-1,8.7-1.6,15.2-1.6
		c7.6,0,15.1,0.8,19,2l3.7,1.2l-1.2-3.7c-0.6-2-2.7-2.8-4.6-3.5c-0.8-0.3-2.4-0.9-2.6-1.3c-0.4-1.2-1.5-3.8-3.5-5.7
		c0.9-1.4,1.5-2.8,1-4.4c1.6-0.1,3.9-0.7,3.9-2.9c0-1.4-1.3-2.8-2.6-2.8h-0.3l-0.3,0.1l0,0l0,0l-0.2,0.1c-0.9,0.3-1.6,0.5-2.1,0.5
		c-0.3,0-0.6-0.1-1.2-0.5C81.1,151.4,80.2,151.1,79.3,151.1L79.3,151.1z"/>
</g>
<g>
	<path fill-rule="evenodd" clip-rule="evenodd" fill="#6B60A7" d="M142.4,73.9c-4-1.3-11.6-2.1-19.3-2.1c-6.6,0-12.3,0.6-15.5,1.6
		l-1.8,0.6l0.6-1.8c0.5-1.6,2.3-2.2,4-2.9c1.4-0.5,2.8-1.1,3.1-1.9c0.6-1.7,0.9-3,1.2-4.1c1.2-4.6,2-5.5,8.4-5.8
		c0.7-0.4,1.3-1.3,2-2.2c1.1-1.5,2.4-3.2,4.3-3.2c0.7,0,1.4,0.2,2.1,0.7c0.9,0.6,1.4,0.7,1.8,0.7c0.7,0,1.4-0.3,2.4-0.6l0.4-0.1
		l0.2,0c0.7,0,1.6,0.9,1.6,1.8c0,0.3-0.1,1.1-1.3,1.6c-0.7,0.2-1.6,0.3-2.9,0.3c-0.1,0-0.2,0-0.2,0c1.3,2,0.8,3.6-0.8,5.5
		c2.3,1.7,3.5,4.6,4,5.9c0.3,0.9,1.7,1.4,3.1,2c1.7,0.6,3.5,1.3,4,2.9l0.6,1.8L142.4,73.9z"/>
	<path fill="#413968" d="M129.3,53.1c0.5,0,1,0.2,1.6,0.6c0.9,0.6,1.6,0.8,2.3,0.8c0.9,0,1.8-0.3,2.9-0.7c0,0,0,0,0,0
		c0.2,0,2.3,1.7-2.6,1.7c-0.7,0-1.5,0-2.5-0.1c2.9,2.9,2.3,4.2-0.1,6.9c2.4,1.2,3.8,4.1,4.5,6c0.9,2.6,6.4,2.5,7.1,4.8
		c-4.3-1.4-12.1-2.1-19.6-2.1c-6.2,0-12.2,0.5-15.8,1.7c0.7-2.3,6.2-2.2,7.1-4.8c2.7-7.8,0.8-8.9,8.9-9.2
		C125.5,57.4,126.9,53.1,129.3,53.1 M129.3,51.1c-2.4,0-3.9,2-5.1,3.6c-0.5,0.6-1.1,1.4-1.5,1.8c-6.6,0.4-7.7,1.6-9,6.5
		c-0.3,1.1-0.7,2.4-1.2,4.1c-0.2,0.4-1.7,1-2.6,1.3c-1.8,0.7-3.9,1.5-4.6,3.5l-1.2,3.7l3.7-1.2c3.1-1,8.7-1.6,15.2-1.6
		c7.6,0,15.1,0.8,19,2l3.7,1.2l-1.2-3.7c-0.6-2-2.7-2.8-4.6-3.5c-0.8-0.3-2.4-0.9-2.5-1.3c-0.4-1.2-1.5-3.8-3.5-5.7
		c1-1.4,1.5-2.8,1-4.4c1.7-0.1,3.9-0.7,3.9-2.9c0-1.4-1.3-2.8-2.6-2.8h-0.3l-0.3,0.1l-0.3,0.1c-0.9,0.3-1.6,0.5-2.1,0.5
		c-0.3,0-0.6-0.1-1.2-0.5C131.1,51.4,130.2,51.1,129.3,51.1L129.3,51.1L129.3,51.1L129.3,51.1z"/>
</g>
<g>
	<path fill-rule="evenodd" clip-rule="evenodd" fill="#6B60A7" d="M142.4,173.9c-4-1.3-11.5-2.1-19.3-2.1c-6.6,0-12.3,0.6-15.5,1.6
		l-1.8,0.6l0.6-1.8c0.5-1.6,2.3-2.2,4-2.9c1.4-0.5,2.8-1.1,3.1-2c0.6-1.7,0.9-3,1.2-4.1c1.2-4.6,2-5.5,8.4-5.8
		c0.7-0.4,1.3-1.3,2-2.2c1.1-1.5,2.4-3.2,4.3-3.2c0.7,0,1.4,0.2,2.1,0.7c0.9,0.6,1.4,0.7,1.8,0.7c0.7,0,1.4-0.3,2.4-0.6l0.4-0.1
		l0.2,0c0.7,0,1.6,0.9,1.6,1.8c0,1.9-3,1.9-4.2,1.9c-0.1,0-0.2,0-0.3,0c1.3,2,0.8,3.6-0.8,5.5c2.3,1.7,3.5,4.6,4,5.9
		c0.3,0.9,1.7,1.4,3.1,2c1.7,0.6,3.5,1.3,4,2.9l0.6,1.8L142.4,173.9z"/>
	<path fill="#413968" d="M129.3,153.1c0.5,0,1,0.2,1.6,0.6c0.9,0.6,1.6,0.8,2.3,0.8c0.9,0,1.8-0.3,2.9-0.7c0,0,0,0,0,0
		c0.2,0,2.3,1.7-2.6,1.7c-0.7,0-1.5,0-2.5-0.1c2.9,2.9,2.3,4.2-0.1,6.9c2.4,1.2,3.8,4.1,4.5,6c0.9,2.6,6.4,2.5,7.1,4.8
		c-4.3-1.4-12.1-2.1-19.6-2.1c-6.2,0-12.2,0.5-15.8,1.7c0.7-2.3,6.2-2.2,7.1-4.8c2.7-7.8,0.8-8.9,8.9-9.2
		C125.5,157.4,126.9,153.1,129.3,153.1 M129.3,151.1c-2.4,0-3.9,2-5.1,3.6c-0.5,0.6-1.1,1.4-1.5,1.8c-6.6,0.4-7.7,1.6-9,6.5
		c-0.3,1.1-0.7,2.4-1.2,4.1c-0.2,0.4-1.7,1-2.6,1.3c-1.8,0.7-3.9,1.5-4.6,3.5l-1.2,3.7l3.7-1.2c3.1-1,8.7-1.6,15.2-1.6
		c7.6,0,15.1,0.8,19,2l3.7,1.2l-1.2-3.7c-0.6-2-2.7-2.8-4.6-3.5c-0.8-0.3-2.4-0.9-2.6-1.3c-0.4-1.2-1.5-3.8-3.5-5.7
		c1-1.4,1.5-2.8,1-4.4c1.6-0.1,3.9-0.7,3.9-2.9c0-1.4-1.3-2.8-2.6-2.8h-0.3l-0.3,0.1l-0.3,0.1c-0.9,0.3-1.6,0.5-2.1,0.5
		c-0.3,0-0.6-0.1-1.2-0.5C131.1,151.4,130.2,151.1,129.3,151.1L129.3,151.1z"/>
</g>
<path fill-rule="evenodd" clip-rule="evenodd" fill="#554C88" d="M14.4,67.7c-0.9,2.5-6.4,2.5-7.1,4.8c7.9-2.5,27.5-2,35.4,0.5
	C36.6,70.3,23.6,68,14.4,67.7z"/>
<path fill-rule="evenodd" clip-rule="evenodd" fill="#554C88" d="M14.4,167.7c-0.9,2.5-6.4,2.5-7.1,4.8c7.9-2.5,27.5-2,35.4,0.5
	C36.6,170.3,23.6,168,14.4,167.7z"/>
<path fill-rule="evenodd" clip-rule="evenodd" fill="#554C88" d="M64.4,67.7c-0.9,2.5-6.4,2.5-7.1,4.8c7.9-2.5,27.5-2,35.4,0.5
	C86.6,70.3,73.6,68,64.4,67.7z"/>
<path fill-rule="evenodd" clip-rule="evenodd" fill="#554C88" d="M64.4,167.7c-0.9,2.5-6.4,2.5-7.1,4.8c7.9-2.5,27.5-2,35.4,0.5
	C86.6,170.3,73.6,168,64.4,167.7z"/>
<path fill-rule="evenodd" clip-rule="evenodd" fill="#554C88" d="M114.4,67.7c-0.9,2.5-6.4,2.5-7.1,4.8c7.9-2.5,27.5-2,35.4,0.5
	C136.6,70.3,123.6,68,114.4,67.7z"/>
<path fill-rule="evenodd" clip-rule="evenodd" fill="#554C88" d="M114.4,167.7c-0.9,2.5-6.4,2.5-7.1,4.8c7.9-2.5,27.5-2,35.4,0.5
	C136.6,170.3,123.6,168,114.4,167.7z"/>
<path fill-rule="evenodd" clip-rule="evenodd" fill="#8A81B9" d="M42.7,73c-0.7-2.3-6.2-2.2-7.1-4.8c-0.7-1.9-2.1-4.8-4.5-6
	c2.3-2.7,3-4,0.1-6.9c8,0.6,5.3-1.6,5-1.6c-2.2,0.7-3.4,1.2-5.3-0.1c-1.7-1.3-3.6-0.4-5,2.2c1,0.9,2.4,2.4,2.7,3.2
	c2.6,7.8,0.1,1.3,5.4,9.1C35.8,70.7,41.2,70.7,42.7,73z"/>
<path fill-rule="evenodd" clip-rule="evenodd" fill="#8A81B9" d="M42.7,173c-0.7-2.3-6.2-2.2-7.1-4.8c-0.7-1.9-2.1-4.8-4.5-6
	c2.3-2.7,3-4,0.1-6.9c8,0.6,5.3-1.6,5-1.6c-2.2,0.7-3.4,1.2-5.3-0.1c-1.7-1.3-3.6-0.4-5,2.2c1,0.9,2.4,2.4,2.7,3.2
	c2.6,7.8,0.1,1.3,5.4,9.1C35.8,170.7,41.2,170.7,42.7,173z"/>
<path fill-rule="evenodd" clip-rule="evenodd" fill="#8A81B9" d="M92.7,73c-0.7-2.3-6.2-2.2-7.1-4.8c-0.7-1.9-2.1-4.8-4.5-6
	c2.3-2.7,3-4,0.1-6.9c8,0.6,5.3-1.6,5-1.6c-2.2,0.7-3.4,1.2-5.3-0.1c-1.7-1.3-3.6-0.4-5,2.2c1,0.9,2.4,2.4,2.7,3.2
	c2.6,7.8,0.1,1.3,5.4,9.1C85.8,70.7,91.2,70.7,92.7,73z"/>
<path fill-rule="evenodd" clip-rule="evenodd" fill="#8A81B9" d="M92.7,173c-0.7-2.3-6.2-2.2-7.1-4.8c-0.7-1.9-2.1-4.8-4.5-6
	c2.3-2.7,3-4,0.1-6.9c8,0.6,5.3-1.6,5-1.6c-2.2,0.7-3.4,1.2-5.3-0.1c-1.7-1.3-3.6-0.4-5,2.2c1,0.9,2.4,2.4,2.7,3.2
	c2.6,7.8,0.1,1.3,5.4,9.1C85.8,170.7,91.2,170.7,92.7,173z"/>
<path fill-rule="evenodd" clip-rule="evenodd" fill="#8A81B9" d="M142.7,73c-0.7-2.3-6.2-2.2-7.1-4.8c-0.7-1.9-2.1-4.8-4.5-6
	c2.3-2.7,3-4,0.1-6.9c8,0.6,5.2-1.6,5-1.6c-2.2,0.7-3.4,1.2-5.3-0.1c-1.7-1.3-3.6-0.4-5,2.2c1,0.9,2.4,2.4,2.7,3.2
	c2.6,7.8,0.1,1.3,5.4,9.1C135.8,70.7,141.2,70.7,142.7,73z"/>
<path fill-rule="evenodd" clip-rule="evenodd" fill="#8A81B9" d="M142.7,173c-0.7-2.3-6.2-2.2-7.1-4.8c-0.7-1.9-2.1-4.8-4.5-6
	c2.3-2.7,3-4,0.1-6.9c8,0.6,5.2-1.6,5-1.6c-2.2,0.7-3.4,1.2-5.3-0.1c-1.7-1.3-3.6-0.4-5,2.2c1,0.9,2.4,2.4,2.7,3.2
	c2.6,7.8,0.1,1.3,5.4,9.1C135.8,170.7,141.2,170.7,142.7,173z"/>
<path fill-rule="evenodd" clip-rule="evenodd" fill="#8A81B9" d="M18.5,5.3c-7.6,0.5-4.9-1.6-4.7-1.6c2.2,0.7,3.4,1.2,5.3-0.1
	c3.6-2.4,5,3.6,7.6,4.8c8.1,0.4,6.2,1.4,8.9,9.2c0.9,2.6,6.4,2.5,7.1,4.8c-2.6-0.8-13.4-1.2-13.2-4.3c0.5-7.9,2.9-9.2-5.1-8.8
	c-2.1-1-1-7.1-5.6-4.3L18.5,5.3z"/>
<path fill-rule="evenodd" clip-rule="evenodd" fill="#8A81B9" d="M18.5,105.3c-7.6,0.5-4.9-1.6-4.7-1.6c2.2,0.7,3.4,1.2,5.3-0.1
	c3.6-2.4,5,3.6,7.6,4.8c8.1,0.4,6.2,1.4,8.9,9.2c0.9,2.6,6.4,2.5,7.1,4.8c-2.6-0.8-13.4-1.2-13.2-4.3c0.5-7.9,2.9-9.1-5.1-8.8
	c-2.1-1-1-7.1-5.6-4.3L18.5,105.3z"/>
<path fill-rule="evenodd" clip-rule="evenodd" fill="#8A81B9" d="M18.5,205.3c-7.6,0.5-4.9-1.6-4.7-1.6c2.2,0.7,3.4,1.2,5.3-0.1
	c3.6-2.4,5,3.6,7.6,4.8c8.1,0.4,6.2,1.4,8.9,9.2c0.9,2.6,6.4,2.5,7.1,4.8c-2.6-0.8-13.4-1.2-13.2-4.3c0.5-7.9,2.9-9.1-5.1-8.8
	c-2.1-1-1-7.1-5.6-4.3L18.5,205.3z"/>
<path fill-rule="evenodd" clip-rule="evenodd" fill="#8A81B9" d="M68.5,5.3c-7.6,0.5-4.9-1.6-4.7-1.6c2.2,0.7,3.4,1.2,5.3-0.1
	c3.6-2.4,5,3.6,7.6,4.8c8.1,0.4,6.2,1.4,8.9,9.2c0.9,2.6,6.4,2.5,7.1,4.8c-2.6-0.8-13.4-1.2-13.2-4.3c0.5-7.9,2.9-9.2-5.1-8.8
	c-2.1-1-1-7.1-5.6-4.3L68.5,5.3z"/>
<path fill-rule="evenodd" clip-rule="evenodd" fill="#8A81B9" d="M68.5,105.3c-7.6,0.5-4.9-1.6-4.7-1.6c2.2,0.7,3.4,1.2,5.3-0.1
	c3.6-2.4,5,3.6,7.6,4.8c8.1,0.4,6.2,1.4,8.9,9.2c0.9,2.6,6.4,2.5,7.1,4.8c-2.6-0.8-13.4-1.2-13.2-4.3c0.5-7.9,2.9-9.1-5.1-8.8
	c-2.1-1-1-7.1-5.6-4.3L68.5,105.3z"/>
<path fill-rule="evenodd" clip-rule="evenodd" fill="#8A81B9" d="M68.5,205.3c-7.6,0.5-4.9-1.6-4.7-1.6c2.2,0.7,3.4,1.2,5.3-0.1
	c3.6-2.4,5,3.6,7.6,4.8c8.1,0.4,6.2,1.4,8.9,9.2c0.9,2.6,6.4,2.5,7.1,4.8c-2.6-0.8-13.4-1.2-13.2-4.3c0.5-7.9,2.9-9.1-5.1-8.8
	c-2.1-1-1-7.1-5.6-4.3L68.5,205.3z"/>
<path fill-rule="evenodd" clip-rule="evenodd" fill="#8A81B9" d="M118.5,5.3c-7.6,0.5-4.9-1.6-4.7-1.6c2.2,0.7,3.4,1.2,5.3-0.1
	c3.6-2.4,5,3.6,7.6,4.8c8.1,0.4,6.2,1.4,8.9,9.2c0.9,2.6,6.4,2.5,7.1,4.8c-2.6-0.8-13.4-1.2-13.2-4.3c0.5-7.9,2.9-9.2-5.1-8.8
	c-2.1-1-1-7.1-5.6-4.3L118.5,5.3z"/>
<path fill-rule="evenodd" clip-rule="evenodd" fill="#8A81B9" d="M118.5,105.3c-7.6,0.5-4.9-1.6-4.7-1.6c2.2,0.7,3.4,1.2,5.3-0.1
	c3.6-2.4,5,3.6,7.6,4.8c8.1,0.4,6.2,1.4,8.9,9.2c0.9,2.6,6.4,2.5,7.1,4.8c-2.6-0.8-13.4-1.2-13.2-4.3c0.5-7.9,2.9-9.1-5.1-8.8
	c-2.1-1-1-7.1-5.6-4.3L118.5,105.3z"/>
<path fill-rule="evenodd" clip-rule="evenodd" fill="#8A81B9" d="M118.5,205.3c-7.6,0.5-4.9-1.6-4.7-1.6c2.2,0.7,3.4,1.2,5.3-0.1
	c3.6-2.4,5,3.6,7.6,4.8c8.1,0.4,6.2,1.4,8.9,9.2c0.9,2.6,6.4,2.5,7.1,4.8c-2.6-0.8-13.4-1.2-13.2-4.3c0.5-7.9,2.9-9.1-5.1-8.8
	c-2.1-1-1-7.1-5.6-4.3L118.5,205.3z"/>
<path fill-rule="evenodd" clip-rule="evenodd" fill="#554C88" d="M7.3,23c0.7-2.2,6-2.2,7-4.7c9.3-0.1,22.3,1.6,28.4,4.2
	C34.8,20,15.2,20.5,7.3,23z"/>
<path fill-rule="evenodd" clip-rule="evenodd" fill="#554C88" d="M7.3,123c0.7-2.2,6-2.2,7-4.7c9.3-0.1,22.3,1.6,28.4,4.2
	C34.8,120,15.2,120.5,7.3,123z"/>
<path fill-rule="evenodd" clip-rule="evenodd" fill="#554C88" d="M7.3,223c0.7-2.2,6-2.2,7-4.7c9.3-0.1,22.3,1.6,28.4,4.2
	C34.8,220,15.2,220.5,7.3,223z"/>
<path fill-rule="evenodd" clip-rule="evenodd" fill="#554C88" d="M57.3,23c0.7-2.2,6-2.2,7-4.7c9.3-0.1,22.3,1.6,28.4,4.2
	C84.8,20,65.2,20.5,57.3,23z"/>
<path fill-rule="evenodd" clip-rule="evenodd" fill="#554C88" d="M57.3,123c0.7-2.2,6-2.2,7-4.7c9.3-0.1,22.3,1.6,28.4,4.2
	C84.8,120,65.2,120.5,57.3,123z"/>
<path fill-rule="evenodd" clip-rule="evenodd" fill="#554C88" d="M57.3,223c0.7-2.2,6-2.2,7-4.7c9.3-0.1,22.3,1.6,28.4,4.2
	C84.8,220,65.2,220.5,57.3,223z"/>
<path fill-rule="evenodd" clip-rule="evenodd" fill="#554C88" d="M107.3,23c0.7-2.2,6-2.2,7-4.7c9.3-0.1,22.3,1.6,28.4,4.2
	C134.8,20,115.2,20.5,107.3,23z"/>
<path fill-rule="evenodd" clip-rule="evenodd" fill="#554C88" d="M107.3,123c0.7-2.2,6-2.2,7-4.7c9.3-0.1,22.3,1.6,28.4,4.2
	C134.8,120,115.2,120.5,107.3,123z"/>
<path fill-rule="evenodd" clip-rule="evenodd" fill="#554C88" d="M107.3,223c0.7-2.2,6-2.2,7-4.7c9.3-0.1,22.3,1.6,28.4,4.2
	C134.8,220,115.2,220.5,107.3,223z"/>
</svg>
