<svg version="1.1" id="Layer_3" xmlns="http://www.w3.org/2000/svg" x="0" y="0" width="150" height="250" viewBox="0 0 150 250" xml:space="preserve"><g><path fill-rule="evenodd" clip-rule="evenodd" fill="#A27556" d="M17.5 88.8V78.4l1.4.5c1.8.7 3.9 1.1 6 1.1s4.2-.4 6-1.1l1.4-.5v10.4H17.5z"/><path fill="#4F392A" d="M31.3 79.9v7.9H18.5v-7.9c2 .7 4.2 1.1 6.4 1.1s4.5-.4 6.4-1.1m2-2.9l-2.7 1c-1.7.6-3.7 1-5.7 1s-4-.3-5.7-1l-2.7-1v12.8h16.8V77z"/></g><g><path fill-rule="evenodd" clip-rule="evenodd" fill="#A27556" d="M67.5 88.8V78.4l1.4.5c1.8.7 3.9 1.1 6 1.1s4.2-.4 6-1.1l1.4-.5v10.4H67.5z"/><path fill="#4F392A" d="M81.3 79.9v7.9H68.5v-7.9c2 .7 4.2 1.1 6.4 1.1 2.3 0 4.5-.4 6.4-1.1m2-2.9l-2.7 1c-1.7.6-3.7 1-5.7 1s-4-.3-5.7-1l-2.7-1v12.8h16.8V77z"/></g><g><path fill-rule="evenodd" clip-rule="evenodd" fill="#A27556" d="M117.5 88.8V78.4l1.4.5c1.8.7 3.9 1.1 6 1.1s4.2-.4 6-1.1l1.4-.5v10.4h-14.8z"/><path fill="#4F392A" d="M131.3 79.9v7.9h-12.8v-7.9c2 .7 4.2 1.1 6.4 1.1 2.3 0 4.5-.4 6.4-1.1m2-2.9l-2.7 1c-1.7.6-3.7 1-5.7 1s-4-.3-5.7-1l-2.7-1v12.8h16.8V77z"/></g><path fill-rule="evenodd" clip-rule="evenodd" fill="#91694D" d="M21.8 87.8h-3.3v-7.9l3.3 7.9z"/><path fill-rule="evenodd" clip-rule="evenodd" fill="#91694D" d="M71.8 87.8h-3.3v-7.9l3.3 7.9z"/><path fill-rule="evenodd" clip-rule="evenodd" fill="#91694D" d="M121.8 87.8h-3.3v-7.9l3.3 7.9z"/><path fill-rule="evenodd" clip-rule="evenodd" fill="#BF9D86" d="M31.3 79.9v7.9l-3-7.1c1.1-.2 2.1-.5 3-.8z"/><path fill-rule="evenodd" clip-rule="evenodd" fill="#BF9D86" d="M81.3 79.9v7.9l-3-7.1c1.1-.2 2.1-.5 3-.8z"/><path fill-rule="evenodd" clip-rule="evenodd" fill="#BF9D86" d="M131.3 79.9v7.9l-3-7.1c1.1-.2 2.1-.5 3-.8z"/><g><path fill-rule="evenodd" clip-rule="evenodd" fill="#A27556" d="M17.4 38.9V28.6l1.3.5c1.1.4 2.2.7 3.3.8l.4.1.2.3c.7.9 1.3 1.7 1.8 2.5.1.1.2.2.3.4.5-.8 1.3-1.8 2-2.8l.3-.4.4-.1c1.1-.2 2.2-.4 3.4-.9l1.3-.5v10.3H17.4z"/><path fill="#4F392A" d="M31.2 30v7.9H18.4V30c1.1.4 2.2.7 3.5.9 1.4 1.8 2.8 3.9 2.9 3.9.1 0 1.4-2 2.8-3.9 1.2-.1 2.5-.5 3.6-.9m2-2.8l-2.7 1c-1.1.4-2.2.7-3.2.8l-.8.1-.5.6c-.4.6-.9 1.2-1.3 1.7-.4-.5-.8-1.1-1.3-1.7l-.5-.6-.8-.1c-1-.1-2-.4-3.1-.8l-2.7-1v12.7h16.8V30l.1-2.8z"/></g><g><path fill-rule="evenodd" clip-rule="evenodd" fill="#A27556" d="M17.5 238.8v-10.3l1.3.5c1.1.4 2.2.7 3.3.8l.4.1.2.3c.7.8 1.3 1.7 1.8 2.5.1.1.2.2.3.4.5-.8 1.3-1.8 2-2.8l.2-.3.4-.1c1.1-.2 2.2-.4 3.4-.9l1.3-.5v10.3H17.5z"/><path fill="#4F392A" d="M31.3 229.9v7.9H18.5v-7.9c1.1.4 2.2.7 3.5.9 1.4 1.8 2.8 3.9 2.9 3.9.1 0 1.4-2 2.8-3.9 1.3-.2 2.5-.5 3.6-.9m2-2.9l-2.7 1c-1.1.4-2.2.7-3.2.8l-.8.1-.5.6c-.4.6-.9 1.2-1.3 1.7-.4-.5-.8-1.1-1.3-1.7l-.5-.6-.8-.1c-1-.2-2.1-.4-3.1-.8l-2.7-1v12.7h16.8v-9.9l.1-2.8z"/></g><path fill-rule="evenodd" clip-rule="evenodd" fill="#91694D" d="M21.8 37.8h-3.3v-7.9l3.3 7.9z"/><path fill-rule="evenodd" clip-rule="evenodd" fill="#91694D" d="M21.8 237.8h-3.3v-7.9l3.3 7.9z"/><path fill-rule="evenodd" clip-rule="evenodd" fill="#BF9D86" d="M27.7 30.9l.1-.1c1.3-.2 2.5-.5 3.6-.9v7.9l-3.7-6.9z"/><path fill-rule="evenodd" clip-rule="evenodd" fill="#BF9D86" d="M27.7 230.9l.1-.1c1.3-.2 2.5-.5 3.6-.9v7.9l-3.7-6.9z"/><g><path fill-rule="evenodd" clip-rule="evenodd" fill="#A27556" d="M67.4 38.9V28.6l1.3.5c1.1.4 2.2.7 3.3.8l.4.1.2.3c.7.9 1.3 1.8 1.8 2.5.1.1.2.2.3.4.5-.8 1.3-1.8 2.1-2.8l.2-.4.4-.1c1.1-.2 2.2-.4 3.4-.9l1.3-.5v10.3H67.4z"/><path fill="#4F392A" d="M81.2 30v7.9H68.4V30c1.1.4 2.2.7 3.5.9 1.4 1.8 2.8 3.9 2.9 3.9.1 0 1.4-2 2.8-3.9 1.2-.1 2.5-.5 3.6-.9m2-2.8l-2.7 1c-1.1.4-2.2.7-3.2.8l-.8.1-.5.6c-.4.6-.9 1.2-1.3 1.7-.4-.5-.8-1.1-1.3-1.7l-.5-.6-.8-.1c-1-.1-2-.4-3.1-.8l-2.7-1v12.7h16.8V30l.1-2.8z"/></g><g><path fill-rule="evenodd" clip-rule="evenodd" fill="#A27556" d="M67.5 238.8v-10.3l1.3.5c1.1.4 2.2.7 3.3.8l.4.1.2.3c.7.9 1.3 1.8 1.8 2.5.1.1.2.2.3.4.5-.8 1.3-1.8 2.1-2.8l.2-.3.4-.1c1.1-.2 2.2-.4 3.4-.9l1.3-.5v10.3H67.5z"/><path fill="#4F392A" d="M81.3 229.9v7.9H68.5v-7.9c1.1.4 2.2.7 3.5.9 1.4 1.8 2.8 3.9 2.9 3.9.1 0 1.4-2 2.8-3.9 1.3-.2 2.5-.5 3.6-.9m2-2.9l-2.7 1c-1.1.4-2.2.7-3.2.8l-.8.1-.5.6c-.4.6-.9 1.2-1.3 1.7-.4-.5-.8-1.1-1.3-1.7l-.5-.6-.8-.1c-1-.2-2.1-.4-3.1-.8l-2.7-1v12.7h16.8v-9.9l.1-2.8z"/></g><g><path fill-rule="evenodd" clip-rule="evenodd" fill="#A27556" d="M117.5 38.8V28.5l1.3.5c1.1.4 2.2.7 3.3.8l.4.1.2.3c.7.8 1.3 1.7 1.8 2.5.1.1.2.2.3.4.5-.8 1.3-1.8 2.1-2.8l.2-.3.4-.1c1.1-.2 2.2-.4 3.4-.9l1.3-.5v10.3h-14.7z"/><path fill="#4F392A" d="M131.3 29.9v7.9h-12.8v-7.9c1.1.4 2.2.7 3.5.9 1.4 1.8 2.8 3.9 2.9 3.9.1 0 1.4-2 2.8-3.9 1.3-.2 2.5-.5 3.6-.9m2-2.9l-2.7 1c-1.1.4-2.2.7-3.2.8l-.8.1-.5.6c-.4.6-.9 1.2-1.3 1.7-.4-.5-.8-1.1-1.3-1.7l-.5-.6-.8-.1c-1-.1-2-.4-3.1-.8l-2.7-1v12.7h16.8v-9.9l.1-2.8z"/></g><g><path fill-rule="evenodd" clip-rule="evenodd" fill="#A27556" d="M117.5 238.8v-10.3l1.3.5c1.1.4 2.2.7 3.3.8l.4.1.2.3c.7.8 1.3 1.7 1.8 2.5.1.1.2.2.3.4.5-.8 1.3-1.8 2.1-2.8l.2-.3.4-.1c1.1-.2 2.2-.4 3.4-.9l1.3-.5v10.3h-14.7z"/><path fill="#4F392A" d="M131.3 229.9v7.9h-12.8v-7.9c1.1.4 2.2.7 3.5.9 1.4 1.8 2.8 3.9 2.9 3.9.1 0 1.4-2 2.8-3.9 1.3-.2 2.5-.5 3.6-.9m2-2.9l-2.7 1c-1.1.4-2.2.7-3.2.8l-.8.1-.5.6c-.4.6-.9 1.2-1.3 1.7-.4-.5-.8-1.1-1.3-1.7l-.5-.6-.8-.1c-1-.2-2.1-.4-3.1-.8l-2.7-1v12.7h16.8v-9.9l.1-2.8z"/></g><g><path fill-rule="evenodd" clip-rule="evenodd" fill="#A27556" d="M78.2 138.8l-.2-.7c-.1-.3-.2-.6-.4-.8l-.2-.3v-6.6l1.7-.7 3.4 3.4v5.7h-4.3zm-10.7 0v-10.3l1.3.5c.9.3 1.7.6 2.4 1l.6.3v7.2l-.1.2-.3.6-.2.7h-3.7z"/><path fill="#4F392A" d="M68.5 129.9c.9.3 1.7.6 2.4.9v6.2c-.1.2-.2.5-.3.7h-2.1v-7.8m10.2 1l2.6 2.6v4.3h-2.4c-.1-.4-.3-.7-.6-1.1V131l.4-.1M66.5 127v12.7H72l.5-1.3c0-.1.1-.3.2-.4l.3-.5v-8.1l-1.3-.5c-.7-.3-1.6-.6-2.5-1l-2.7-.9zm12.7 1.5l-1.2.5-.4.2-1.2.5v7.6l.4.5.3.6.5 1.3h5.8v-7.1l-.6-.6-2.6-2.6-1-.9z"/></g><g><path fill-rule="evenodd" clip-rule="evenodd" fill="#A27556" d="M78.6 188.8l-.2-.7-.3-.6-.1-.2v-7.2l.6-.3c.7-.3 1.6-.6 2.4-1l1.3-.5v10.3h-3.7zm-11 0v-5.7l3.4-3.4 1.7.7v6.6l-.2.3c-.2.3-.3.5-.4.8l-.2.7h-4.3z"/><path fill="#4F392A" d="M81.3 179.9v7.9h-2.1c-.1-.2-.2-.5-.3-.7v-6.2c.7-.4 1.5-.7 2.4-1m-10.2 1l.4.2v5.7c-.2.3-.4.7-.6 1.1h-2.4v-4.3l2.6-2.7m12.2-3.9l-2.7 1c-.9.3-1.7.7-2.5 1l-1.2.5v8l.3.5c.1.1.1.3.2.4l.5 1.3h5.5V177h-.1zm-12.6 1.5l-1 1-2.6 2.6-.6.6v7.1h5.9l.5-1.3.3-.6.4-.5v-7.6l-1.2-.5-.4-.2-1.3-.6z"/></g><g><path fill-rule="evenodd" clip-rule="evenodd" fill="#A27556" d="M126.5 138.8l-.2-.7c0-.1-.1-.3-.2-.4l-.1-.3.1-.3c.1-.5.2-1.1.4-1.8.3-1.4.6-3.1.7-4.2v-.6l1.9-.8 3.4 3.4v5.7h-6zm-9 0v-10.3l1.3.5c.8.3 1.6.6 2.2.9l.7.3-1.2 6.7-.2.2c-.3.3-.5.7-.6 1.1l-.2.7h-2z"/><path fill="#4F392A" d="M118.5 129.9c.8.3 1.5.6 2.2.8l-1 5.6c-.4.4-.6.9-.8 1.5h-.4v-7.9m10.2 1l2.6 2.6v4.3h-4c-.1-.2-.1-.3-.2-.5.3-1.8 1-4.4 1-6.1l.6-.3m-12.2-3.9v12.7h3.9l.4-1.4c.1-.3.2-.6.4-.8l.3-.4.1-.5 1-5.6.3-1.6-1.5-.6c-.7-.3-1.5-.6-2.3-.9l-2.6-.9zm12.7 1.5l-1.2.5-.6.3-1.2.5v1.3c0 1-.3 2.6-.6 4-.1.7-.3 1.3-.4 1.8l-.1.6.3.6c0 .1.1.2.1.3l.4 1.4h7.5v-7.1l-.6-.6-2.6-2.6-1-1z"/></g><g><path fill-rule="evenodd" clip-rule="evenodd" fill="#A27556" d="M130.2 188.8l-.2-.7c-.1-.4-.3-.8-.6-1.1l-.2-.2-1.2-6.7.7-.3c.6-.3 1.4-.6 2.2-.9l1.3-.5v10.3h-2zm-12.6 0v-5.7l3.4-3.4 1.9.8v.6c0 1.1.4 2.7.6 4.1.1.7.3 1.3.4 1.8l.1.3-.1.3c-.1.1-.1.3-.2.4l-.2.7h-5.9z"/><path fill="#4F392A" d="M131.3 179.9v7.9h-.4c-.2-.5-.4-1-.8-1.5l-1-5.6c.7-.2 1.4-.5 2.2-.8m-10.2 1l.6.3c0 1.7.7 4.4 1 6.1-.1.2-.1.3-.2.5h-4v-4.3l2.6-2.6m12.2-3.9l-2.7 1c-.8.3-1.6.6-2.3.9l-1.5.6.3 1.6 1 5.6.1.5.3.4c.2.2.3.5.4.8l.4 1.4h3.9V177h.1zm-12.6 1.5l-1 1-2.6 2.6-.6.6v7.1h7.4l.5-1.4c0-.1.1-.2.1-.3l.3-.6-.1-.6c-.1-.5-.2-1.2-.4-1.8-.3-1.4-.6-3-.6-3.9v-1.3l-1.2-.5-.6-.3-1.2-.6z"/></g><g><path fill-rule="evenodd" clip-rule="evenodd" fill="#A27556" d="M29.5 138.8l-.2-.7c-.1-.3-.3-.7-.5-.9l-.2-.2-1.2-6.7 1.5-.7 3.4 3.4v5.7h-2.8zm-12 0v-10.3l1.3.5c1 .4 1.9.7 2.7 1.1l.7.3-.1.7c-.1.8.5 3.4.8 5 .1.6.2 1.2.3 1.6l.2 1.2h-5.9z"/><path fill="#4F392A" d="M18.5 129.9c1 .4 1.9.7 2.6 1-.1 1.3.9 5.4 1.1 6.9h-3.7v-7.9m10.2 1l2.6 2.6v4.3h-1.1c-.1-.4-.4-.9-.6-1.2l-1-5.6.1-.1M16.5 127v12.7h8.1l-.4-2.3c-.1-.4-.2-1-.3-1.6-.2-1.2-.8-4.1-.8-4.7l.1-1.4-1.3-.6c-.8-.3-1.7-.7-2.7-1.1l-2.7-1zm12.7 1.5l-1.2.5-.2.1-1.5.6.3 1.6 1 5.6.1.5.3.4c.1.1.3.4.3.6l.5 1.4h4.5v-7.1l-.6-.6-2.6-2.6-.9-1z"/></g><g><path fill-rule="evenodd" clip-rule="evenodd" fill="#A27556" d="M26.4 188.8l.2-1.2c.1-.4.2-.9.3-1.6.3-1.6.9-4.3.8-5.1l-.1-.7.7-.3c.8-.3 1.7-.7 2.7-1.1l1.3-.5v10.3h-5.9zm-8.8 0v-5.7l3.4-3.4 1.5.7-1.2 6.6-.2.2c-.2.3-.4.6-.5.9l-.2.7h-2.8z"/><path fill="#4F392A" d="M31.3 179.9v7.9h-3.7c.3-1.5 1.2-5.6 1.1-6.9.7-.3 1.6-.7 2.6-1m-10.2 1l.2.1-1 5.6c-.3.4-.5.8-.6 1.2h-1.1v-4.3l2.5-2.6m12.2-3.9l-2.7 1c-1 .4-2 .7-2.7 1.1l-1.3.6.1 1.4c0 .7-.5 3.6-.8 4.8-.1.6-.2 1.2-.3 1.6l-.4 2.4h8.1V177zm-12.6 1.5l-1 1-2.6 2.6-.6.6v7.1H21l.5-1.4.3-.6.3-.4.1-.5 1-5.6.3-1.6-1.5-.6-.2-.1-1.1-.5z"/></g><path fill-rule="evenodd" clip-rule="evenodd" fill="#91694D" d="M71.8 37.8h-3.3v-7.9l3.3 7.9z"/><path fill-rule="evenodd" clip-rule="evenodd" fill="#91694D" d="M71.8 237.8h-3.3v-7.9l3.3 7.9z"/><path fill-rule="evenodd" clip-rule="evenodd" fill="#91694D" d="M121.8 37.8h-3.3v-7.9l3.3 7.9z"/><path fill-rule="evenodd" clip-rule="evenodd" fill="#91694D" d="M121.8 237.8h-3.3v-7.9l3.3 7.9z"/><path fill-rule="evenodd" clip-rule="evenodd" fill="#BF9D86" d="M77.7 30.9l.1-.1c1.3-.2 2.5-.5 3.6-.9v7.9l-3.7-6.9z"/><path fill-rule="evenodd" clip-rule="evenodd" fill="#BF9D86" d="M77.7 230.9l.1-.1c1.3-.2 2.5-.5 3.6-.9v7.9l-3.7-6.9z"/><path fill-rule="evenodd" clip-rule="evenodd" fill="#BF9D86" d="M127.7 30.9l.1-.1c1.3-.2 2.5-.5 3.6-.9v7.9l-3.7-6.9z"/><path fill-rule="evenodd" clip-rule="evenodd" fill="#BF9D86" d="M127.7 230.9l.1-.1c1.3-.2 2.5-.5 3.6-.9v7.9l-3.7-6.9z"/></svg>