<?xml version="1.0" encoding="utf-8"?>
<!-- Generator: Adobe Illustrator 16.0.0, SVG Export Plug-In . SVG Version: 6.00 Build 0)  -->
<!DOCTYPE svg PUBLIC "-//W3C//DTD SVG 1.1//EN" "http://www.w3.org/Graphics/SVG/1.1/DTD/svg11.dtd">
<svg version="1.1" xmlns="http://www.w3.org/2000/svg" xmlns:xlink="http://www.w3.org/1999/xlink" x="0px" y="0px" width="150px"
	 height="250px" viewBox="0 0 150 250" enable-background="new 0 0 150 250" xml:space="preserve">
<g id="Layer_1" display="none">
	<rect x="-425" y="-375" display="inline" fill="#5AFF89" width="50" height="50"/>
</g>
<g id="Layer_2" display="none">
	
		<image display="inline" overflow="visible" width="1897" height="735" xlink:href="../../../color_palette.png"  transform="matrix(0.4639 0 0 0.4639 -376.5522 104)">
	</image>
</g>
<g id="Layer_3">
	<path fill-rule="evenodd" clip-rule="evenodd" fill="#4F392A" d="M120.8,80.5c0,1.5-2.9,5.6-3.5,6.8c0-3-2.9-6-6.6-3.3
		c0.7-1.3,3.1-5.9,4-6.6C116.3,79.1,118.6,80.1,120.8,80.5z"/>
	<path fill-rule="evenodd" clip-rule="evenodd" fill="#4F392A" d="M134.8,77.9l2.4,4.2c-1.1-0.9-2.5-1.1-3.8-0.7l-1.1-1.9
		C133.1,79.1,134,78.5,134.8,77.9z"/>
	<path fill-rule="evenodd" clip-rule="evenodd" fill="#4F392A" d="M67.3,87.4c0.1-3.3-3.6-5.7-6.6-3.3c0.8-1.4,2.7-5.5,4-6.6
		C69.2,82,73.6,76.4,67.3,87.4z"/>
	<path fill-rule="evenodd" clip-rule="evenodd" fill="#4F392A" d="M82.6,87.4c-0.7-1.2-3.5-5.4-3.5-6.8c2.2-0.5,4.5-1.5,6.2-3.1
		c0.9,0.8,3.2,5.3,4,6.6C86.5,82,82.5,84,82.6,87.4z"/>
	<path fill-rule="evenodd" clip-rule="evenodd" fill="#4F392A" d="M32.6,87.4c-0.7-1.2-3.5-5.4-3.5-6.8c2.2-0.5,4.5-1.5,6.2-3.1
		c0.9,0.8,3.2,5.3,4,6.6C36.6,82,32.4,83.8,32.6,87.4z"/>
	<path fill-rule="evenodd" clip-rule="evenodd" fill="#4F392A" d="M17.6,79.5l-1.1,1.9c-1.3-0.4-2.8-0.2-3.8,0.7l2.4-4.2
		C15.9,78.5,16.7,79.1,17.6,79.5z"/>
	<path fill-rule="evenodd" clip-rule="evenodd" fill="#4F392A" d="M116.4,28.8l-0.9,1.6c-1.3-0.4-2.8-0.2-3.8,0.7l2.4-4.2
		C114.7,27.6,115.5,28.3,116.4,28.8z"/>
	<path fill-rule="evenodd" clip-rule="evenodd" fill="#4F392A" d="M132.6,37.4c-0.7-1.2-3.5-5.4-3.5-6.8c2.2-0.5,4.5-1.5,6.2-3.1
		c0.9,0.8,3.2,5.3,4,6.6C136.5,31.9,132.5,33.9,132.6,37.4z"/>
	<path fill-rule="evenodd" clip-rule="evenodd" fill="#4F392A" d="M34.9,25.5l3.2,5.6c-1.1-0.9-2.5-1.1-3.8-0.7l-1.6-2.9
		C33.7,26.9,34.4,26.2,34.9,25.5z"/>
	<path fill-rule="evenodd" clip-rule="evenodd" fill="#4F392A" d="M20.8,30.6c0,1.5-2.8,5.6-3.5,6.8c0-0.5-0.1-1-0.2-1.4l0-0.1l0,0
		c-0.3-0.7-0.7-1.4-1.3-1.8c2.6-4.6,2.3-6.9-1.2-0.7c-0.8-0.3-1.7-0.3-2.6,0l0,0l0,0l0,0h0c-0.4,0.2-0.8,0.4-1.2,0.7
		c0.8-1.4,2.7-5.5,4-6.6C16.3,29.1,18.6,30.1,20.8,30.6z"/>
	<path fill-rule="evenodd" clip-rule="evenodd" fill="#4F392A" d="M82.6,37.4c-0.7-1.2-3.5-5.4-3.5-6.8c2.2-0.5,4.5-1.5,6.2-3.1
		c0.9,0.8,3.2,5.3,4,6.6C86.6,32,82.5,34.1,82.6,37.4z"/>
	<path fill-rule="evenodd" clip-rule="evenodd" fill="#4F392A" d="M82.6,237.4c-0.7-1.2-3.5-5.4-3.5-6.8c2.2-0.5,4.5-1.5,6.2-3.1
		c0.9,0.8,3.2,5.3,4,6.6C86.6,232,82.5,234.1,82.6,237.4z"/>
	<path fill-rule="evenodd" clip-rule="evenodd" fill="#4F392A" d="M132.6,237.4c-0.7-1.2-3.5-5.4-3.5-6.8c2.2-0.5,4.5-1.5,6.2-3.1
		c0.9,0.8,3.2,5.3,4,6.6C136.6,232,132.5,234.1,132.6,237.4z"/>
	<path fill-rule="evenodd" clip-rule="evenodd" fill="#4F392A" d="M32.6,237.4c-0.7-1.2-3.5-5.4-3.5-6.8c2.2-0.5,4.5-1.5,6.2-3.1
		c0.9,0.8,3.2,5.3,4,6.6C36.6,232,32.5,234.1,32.6,237.4z"/>
	<path fill-rule="evenodd" clip-rule="evenodd" fill="#4F392A" d="M70.8,30.6c0,1.5-2.8,5.6-3.5,6.8c0.1-3.7-4.1-5.4-6.6-3.3
		c0.7-1.3,3.1-5.9,4-6.6C66.3,29.1,68.6,30.1,70.8,30.6z"/>
	<path fill-rule="evenodd" clip-rule="evenodd" fill="#4F392A" d="M70.8,230.5c0,1.5-2.8,5.6-3.5,6.8c0.1-3.7-4.1-5.4-6.6-3.3
		c0.7-1.3,3.1-5.9,4-6.6C66.3,229.1,68.6,230.1,70.8,230.5z"/>
	<path fill-rule="evenodd" clip-rule="evenodd" fill="#4F392A" d="M120.8,230.5c0,1.5-2.8,5.6-3.5,6.8c0.1-3.7-4.1-5.4-6.6-3.3
		c0.7-1.3,3.1-5.9,4-6.6C116.3,229.1,118.6,230.1,120.8,230.5z"/>
	<path fill-rule="evenodd" clip-rule="evenodd" fill="#4F392A" d="M20.8,230.5c0,1.5-2.8,5.6-3.5,6.8c0.1-3.7-4.1-5.4-6.6-3.3
		c0.7-1.3,3.1-5.9,4-6.6C16.3,229.1,18.6,230.1,20.8,230.5z"/>
	<g>
		<path fill-rule="evenodd" clip-rule="evenodd" fill="#A27556" d="M17.5,88.8V78.4l1.4,0.5c1.8,0.7,3.9,1.1,6,1.1c0,0,0,0,0,0
			c2.1,0,4.2-0.4,6-1.1l1.4-0.5l0,10.4H17.5z"/>
		<g>
			<path fill="#4F392A" d="M31.3,79.9l0,7.9H18.5v-7.9c2,0.7,4.2,1.1,6.4,1.1C27.1,81,29.4,80.6,31.3,79.9 M33.3,77l-2.7,1
				c-1.7,0.6-3.7,1-5.7,1c-2,0-4-0.3-5.7-1l-2.7-1v2.9v7.9v2h2h12.8h2l0-2l0-7.9L33.3,77L33.3,77z"/>
		</g>
	</g>
	<g>
		<path fill-rule="evenodd" clip-rule="evenodd" fill="#A27556" d="M67.5,88.8V78.4l1.4,0.5c1.8,0.7,3.9,1.1,6,1.1h0
			c2.1,0,4.2-0.4,6-1.1l1.4-0.5l0,10.4H67.5z"/>
		<g>
			<path fill="#4F392A" d="M81.3,79.9l0,7.9H68.5v-7.9c2,0.7,4.2,1.1,6.4,1.1C77.2,81,79.4,80.6,81.3,79.9 M83.3,77l-2.7,1
				c-1.7,0.6-3.7,1-5.7,1c-2,0-4-0.3-5.7-1l-2.7-1v2.9v7.9v2h2h12.8h2l0-2l0-7.9L83.3,77L83.3,77z"/>
		</g>
	</g>
	<g>
		<path fill-rule="evenodd" clip-rule="evenodd" fill="#A27556" d="M117.5,88.8V78.4l1.4,0.5c1.8,0.7,3.9,1.1,6,1.1h0
			c2.1,0,4.2-0.4,6-1.1l1.4-0.5l0,10.4H117.5z"/>
		<g>
			<path fill="#4F392A" d="M131.3,79.9l0,7.9h-12.8v-7.9c2,0.7,4.2,1.1,6.4,1.1C127.2,81,129.4,80.6,131.3,79.9 M133.3,77l-2.7,1
				c-1.7,0.6-3.7,1-5.7,1c-2,0-4-0.3-5.7-1l-2.7-1v2.9v7.9v2h2h12.8h2l0-2l0-7.9L133.3,77L133.3,77z"/>
		</g>
	</g>
	<path fill-rule="evenodd" clip-rule="evenodd" fill="#91694D" d="M21.8,87.8h-3.3v-7.9h0L21.8,87.8z"/>
	<path fill-rule="evenodd" clip-rule="evenodd" fill="#91694D" d="M71.8,87.8h-3.3v-7.9h0L71.8,87.8z"/>
	<path fill-rule="evenodd" clip-rule="evenodd" fill="#91694D" d="M121.8,87.8h-3.3v-7.9h0L121.8,87.8z"/>
	<path fill-rule="evenodd" clip-rule="evenodd" fill="#BF9D86" d="M31.3,79.9l0,7.9l-3-7.1C29.4,80.5,30.4,80.2,31.3,79.9z"/>
	<path fill-rule="evenodd" clip-rule="evenodd" fill="#BF9D86" d="M81.3,79.9l0,7.9l-3-7.1C79.4,80.5,80.4,80.2,81.3,79.9z"/>
	<path fill-rule="evenodd" clip-rule="evenodd" fill="#BF9D86" d="M131.3,79.9l0,7.9l-3-7.1C129.4,80.5,130.4,80.2,131.3,79.9z"/>
	<g>
		<path fill-rule="evenodd" clip-rule="evenodd" fill="#A27556" d="M17.5,38.8V28.5l1.3,0.5c1.1,0.4,2.2,0.7,3.3,0.8l0.4,0.1
			l0.2,0.3c0.7,0.9,1.3,1.7,1.8,2.5c0.1,0.1,0.2,0.2,0.3,0.4c0.5-0.8,1.3-1.8,2-2.8l0.2-0.3l0.4-0.1c1.1-0.2,2.2-0.4,3.4-0.9
			l1.3-0.5l0,10.3H17.5z"/>
		<g>
			<path fill="#4F392A" d="M31.3,29.9l0,7.9H18.5v-7.9c1.1,0.4,2.2,0.7,3.5,0.9c1.4,1.8,2.8,3.9,2.9,3.9c0.1,0,1.4-2,2.8-3.9
				C29,30.6,30.2,30.3,31.3,29.9 M33.3,27l-2.7,1c-1.1,0.4-2.2,0.7-3.2,0.8l-0.8,0.1l-0.5,0.6c-0.4,0.6-0.9,1.2-1.3,1.7
				c-0.4-0.5-0.8-1.1-1.3-1.7l-0.5-0.6l-0.8-0.1c-1-0.1-2-0.4-3.1-0.8l-2.7-1v2.8v7.9v2h2h12.8h2l0-2l0-7.9L33.3,27L33.3,27z"/>
		</g>
	</g>
	<path fill-rule="evenodd" clip-rule="evenodd" fill="#91694D" d="M21.8,37.8h-3.3v-7.9h0L21.8,37.8z"/>
	<path fill-rule="evenodd" clip-rule="evenodd" fill="#BF9D86" d="M27.7,30.9l0.1-0.1c1.3-0.2,2.5-0.5,3.6-0.9l0,7.9L27.7,30.9z"/>
	<g>
		<path fill-rule="evenodd" clip-rule="evenodd" fill="#A27556" d="M67.5,38.8V28.5l1.3,0.5c1.1,0.4,2.2,0.7,3.3,0.8l0.4,0.1
			l0.2,0.3c0.7,0.9,1.3,1.8,1.8,2.5c0.1,0.1,0.2,0.2,0.3,0.4c0.5-0.8,1.3-1.8,2.1-2.8l0.2-0.3l0.4-0.1c1.1-0.2,2.2-0.4,3.4-0.9
			l1.3-0.5l0,10.3H67.5z"/>
		<g>
			<path fill="#4F392A" d="M81.3,29.9l0,7.9H68.5v-7.9c1.1,0.4,2.2,0.7,3.5,0.9c1.4,1.8,2.8,3.9,2.9,3.9c0.1,0,1.4-2,2.8-3.9
				C79,30.6,80.2,30.3,81.3,29.9 M83.3,27l-2.7,1c-1.1,0.4-2.2,0.7-3.2,0.8l-0.8,0.1l-0.5,0.6c-0.4,0.6-0.9,1.2-1.3,1.7
				c-0.4-0.5-0.8-1.1-1.3-1.7l-0.5-0.6l-0.8-0.1c-1-0.1-2-0.4-3.1-0.8l-2.7-1v2.8v7.9v2h2h12.8h2l0-2l0-7.9L83.3,27L83.3,27z"/>
		</g>
	</g>
	<g>
		<path fill-rule="evenodd" clip-rule="evenodd" fill="#A27556" d="M67.5,238.8v-10.3l1.3,0.5c1.1,0.4,2.2,0.7,3.3,0.8l0.4,0.1
			l0.2,0.3c0.7,0.9,1.3,1.8,1.8,2.5c0.1,0.1,0.2,0.2,0.3,0.4c0.5-0.8,1.3-1.8,2.1-2.8l0.2-0.3l0.4-0.1c1.1-0.2,2.2-0.4,3.4-0.9
			l1.3-0.5l0,10.3H67.5z"/>
		<g>
			<path fill="#4F392A" d="M81.3,229.9l0,7.9H68.5v-7.9c1.1,0.4,2.2,0.7,3.5,0.9c1.4,1.8,2.8,3.9,2.9,3.9c0.1,0,1.4-2,2.8-3.9
				C79,230.6,80.2,230.3,81.3,229.9 M83.3,227l-2.7,1c-1.1,0.4-2.2,0.7-3.2,0.8l-0.8,0.1l-0.5,0.6c-0.4,0.6-0.9,1.2-1.3,1.7
				c-0.4-0.5-0.8-1.1-1.3-1.7l-0.5-0.6l-0.8-0.1c-1-0.2-2.1-0.4-3.1-0.8l-2.7-1v2.8v7.9v2h2h12.8h2l0-2l0-7.9L83.3,227L83.3,227z"/>
		</g>
	</g>
	<g>
		<path fill-rule="evenodd" clip-rule="evenodd" fill="#A27556" d="M117.5,238.8v-10.3l1.3,0.5c1.1,0.4,2.2,0.7,3.3,0.8l0.4,0.1
			l0.2,0.3c0.7,0.8,1.3,1.7,1.8,2.5c0.1,0.1,0.2,0.2,0.3,0.4c0.5-0.8,1.3-1.8,2.1-2.8l0.2-0.3l0.4-0.1c1.1-0.2,2.2-0.4,3.4-0.9
			l1.3-0.5l0,10.3H117.5z"/>
		<g>
			<path fill="#4F392A" d="M131.3,229.9l0,7.9h-12.8v-7.9c1.1,0.4,2.2,0.7,3.5,0.9c1.4,1.8,2.8,3.9,2.9,3.9c0.1,0,1.4-2,2.8-3.9
				C129,230.6,130.2,230.3,131.3,229.9 M133.3,227l-2.7,1c-1.1,0.4-2.2,0.7-3.2,0.8l-0.8,0.1l-0.5,0.6c-0.4,0.6-0.9,1.2-1.3,1.7
				c-0.4-0.5-0.8-1.1-1.3-1.7l-0.5-0.6l-0.8-0.1c-1-0.2-2.1-0.4-3.1-0.8l-2.7-1v2.8v7.9v2h2h12.8h2l0-2l0-7.9L133.3,227L133.3,227z"
				/>
		</g>
	</g>
	<g>
		<path fill-rule="evenodd" clip-rule="evenodd" fill="#A27556" d="M17.5,238.8v-10.3l1.3,0.5c1.1,0.4,2.2,0.7,3.3,0.8l0.4,0.1
			l0.2,0.3c0.7,0.8,1.3,1.7,1.8,2.5c0.1,0.1,0.2,0.2,0.3,0.4c0.5-0.8,1.3-1.8,2-2.8l0.2-0.3l0.4-0.1c1.1-0.2,2.2-0.4,3.4-0.9
			l1.3-0.5l0,10.3H17.5z"/>
		<g>
			<path fill="#4F392A" d="M31.3,229.9l0,7.9H18.5v-7.9c1.1,0.4,2.2,0.7,3.5,0.9c1.4,1.8,2.8,3.9,2.9,3.9c0.1,0,1.4-2,2.8-3.9
				C29,230.6,30.2,230.3,31.3,229.9 M33.3,227l-2.7,1c-1.1,0.4-2.2,0.7-3.2,0.8l-0.8,0.1l-0.5,0.6c-0.4,0.6-0.9,1.2-1.3,1.7
				c-0.4-0.5-0.8-1.1-1.3-1.7l-0.5-0.6l-0.8-0.1c-1-0.2-2.1-0.4-3.1-0.8l-2.7-1v2.8v7.9v2h2h12.8h2l0-2l0-7.9L33.3,227L33.3,227z"/>
		</g>
	</g>
	<g>
		<path fill-rule="evenodd" clip-rule="evenodd" fill="#A27556" d="M117.5,38.8V28.5l1.3,0.5c1.1,0.4,2.2,0.7,3.3,0.8l0.4,0.1
			l0.2,0.3c0.7,0.8,1.3,1.7,1.8,2.5c0.1,0.1,0.2,0.2,0.3,0.4c0.5-0.8,1.3-1.8,2.1-2.8l0.2-0.3l0.4-0.1c1.1-0.2,2.2-0.4,3.4-0.9
			l1.3-0.5l0,10.3H117.5z"/>
		<g>
			<path fill="#4F392A" d="M131.3,29.9l0,7.9h-12.8v-7.9c1.1,0.4,2.2,0.7,3.5,0.9c1.4,1.8,2.8,3.9,2.9,3.9c0.1,0,1.4-2,2.8-3.9
				C129,30.6,130.2,30.3,131.3,29.9 M133.3,27l-2.7,1c-1.1,0.4-2.2,0.7-3.2,0.8l-0.8,0.1l-0.5,0.6c-0.4,0.6-0.9,1.2-1.3,1.7
				c-0.4-0.5-0.8-1.1-1.3-1.7l-0.5-0.6l-0.8-0.1c-1-0.1-2-0.4-3.1-0.8l-2.7-1v2.8v7.9v2h2h12.8h2l0-2l0-7.9L133.3,27L133.3,27z"/>
		</g>
	</g>
	<g>
		<path fill-rule="evenodd" clip-rule="evenodd" fill="#A27556" d="M78.2,138.8l-0.2-0.7c-0.1-0.3-0.2-0.6-0.4-0.8l-0.2-0.3l0-6.6
			l1.7-0.7l3.4,3.4l0,5.7H78.2z M67.5,138.8v-10.3l1.3,0.5c0.9,0.3,1.7,0.6,2.4,1l0.6,0.3l0,7.2l-0.1,0.2c-0.1,0.2-0.2,0.4-0.3,0.6
			l-0.2,0.7H67.5z"/>
		<g>
			<path fill="#4F392A" d="M68.5,129.9c0.9,0.3,1.7,0.6,2.4,0.9l0,6.2c-0.1,0.2-0.2,0.5-0.3,0.7h-2.1V129.9 M78.7,130.9l2.6,2.6
				l0,4.3h-2.4c-0.1-0.4-0.3-0.7-0.6-1.1l0-5.7L78.7,130.9 M66.5,127v2.8v7.9v2h2h2.1H72l0.5-1.3c0-0.1,0.1-0.3,0.2-0.4l0.3-0.5
				l0-0.5l0-6.2l0-1.3l-1.2-0.5c-0.7-0.3-1.6-0.6-2.5-1L66.5,127L66.5,127z M79.2,128.5l-1.2,0.5l-0.4,0.2l-1.2,0.5l0,1.3l0,5.7
				l0,0.6l0.4,0.5c0.1,0.2,0.2,0.4,0.3,0.6l0.5,1.3h1.4h2.4h2l0-2l0-4.3l0-0.8l-0.6-0.6l-2.6-2.6L79.2,128.5L79.2,128.5z"/>
		</g>
	</g>
	<g>
		<path fill-rule="evenodd" clip-rule="evenodd" fill="#A27556" d="M78.6,188.8l-0.2-0.7c-0.1-0.2-0.2-0.4-0.3-0.6l-0.1-0.2V187
			c0-0.7,0-1.4,0-2.1c0-1.4,0-2.8,0-4.1l0-0.7l0.6-0.3c0.7-0.3,1.6-0.6,2.4-1l1.3-0.5v10.3H78.6z M67.6,188.8l0-5.7l3.4-3.4l1.7,0.7
			l0,6.6l-0.2,0.3c-0.2,0.3-0.3,0.5-0.4,0.8l-0.2,0.7H67.6z"/>
		<g>
			<path fill="#4F392A" d="M81.3,179.9v7.9h-2.1c-0.1-0.2-0.2-0.5-0.3-0.7c0-2,0.1-4.2,0-6.2C79.6,180.5,80.4,180.2,81.3,179.9
				 M71.1,180.9l0.4,0.2l0,5.7c-0.2,0.3-0.4,0.7-0.6,1.1h-2.4l0-4.3L71.1,180.9 M83.3,177l-2.7,1c-0.9,0.3-1.7,0.7-2.5,1l-1.3,0.5
				l0,1.4c0,1.3,0,2.7,0,4c0,0.7,0,1.4,0,2.1v0.5l0.3,0.5c0.1,0.1,0.1,0.3,0.2,0.4l0.5,1.3h1.4h2.1h2v-2v-7.9V177L83.3,177z
				 M70.7,178.5l-1,1l-2.6,2.6l-0.6,0.6l0,0.8l0,4.3l0,2h2H71h1.4l0.5-1.3c0.1-0.2,0.2-0.4,0.3-0.6l0.4-0.5l0-0.6l0-5.7l0-1.3
				l-1.2-0.5l-0.4-0.2L70.7,178.5L70.7,178.5z"/>
		</g>
	</g>
	<g>
		<path fill-rule="evenodd" clip-rule="evenodd" fill="#A27556" d="M126.5,138.8l-0.2-0.7c0-0.1-0.1-0.3-0.2-0.4l-0.1-0.3l0.1-0.3
			c0.1-0.5,0.2-1.1,0.4-1.8c0.3-1.4,0.6-3.1,0.7-4.2l0-0.6l1.9-0.8l3.4,3.4l0,5.7H126.5z M117.5,138.8v-10.3l1.3,0.5
			c0.8,0.3,1.6,0.6,2.2,0.9l0.7,0.3l-1.2,6.7l-0.2,0.2c-0.3,0.3-0.5,0.7-0.6,1.1l-0.2,0.7H117.5z"/>
		<g>
			<path fill="#4F392A" d="M118.5,129.9c0.8,0.3,1.5,0.6,2.2,0.8l-1,5.6c-0.4,0.4-0.6,0.9-0.8,1.5h-0.4V129.9 M128.7,130.9l2.6,2.6
				l0,4.3h-4c-0.1-0.2-0.1-0.3-0.2-0.5c0.3-1.8,1-4.4,1-6.1L128.7,130.9 M116.5,127v2.8v7.9v2h2h0.4h1.5l0.4-1.4
				c0.1-0.3,0.2-0.6,0.4-0.8l0.3-0.4l0.1-0.5l1-5.6l0.3-1.6l-1.5-0.6c-0.7-0.3-1.5-0.6-2.3-0.9L116.5,127L116.5,127z M129.2,128.5
				l-1.2,0.5l-0.6,0.3l-1.2,0.5l0,1.3c0,1-0.3,2.6-0.6,4c-0.1,0.7-0.3,1.3-0.4,1.8l-0.1,0.6l0.3,0.6c0,0.1,0.1,0.2,0.1,0.3l0.4,1.4
				h1.5h4h2l0-2l0-4.3l0-0.8l-0.6-0.6l-2.6-2.6L129.2,128.5L129.2,128.5z"/>
		</g>
	</g>
	<g>
		<path fill-rule="evenodd" clip-rule="evenodd" fill="#A27556" d="M130.2,188.8l-0.2-0.7c-0.1-0.4-0.3-0.8-0.6-1.1l-0.2-0.2
			l-1.2-6.7l0.7-0.3c0.6-0.3,1.4-0.6,2.2-0.9l1.3-0.5v10.3H130.2z M117.6,188.8l0-5.7l3.4-3.4l1.9,0.8l0,0.6c0,1.1,0.4,2.7,0.6,4.1
			c0.1,0.7,0.3,1.3,0.4,1.8l0.1,0.3l-0.1,0.3c-0.1,0.1-0.1,0.3-0.2,0.4l-0.2,0.7H117.6z"/>
		<g>
			<path fill="#4F392A" d="M131.3,179.9v7.9h-0.4c-0.2-0.5-0.4-1-0.8-1.5l-1-5.6C129.8,180.5,130.5,180.2,131.3,179.9 M121.1,180.9
				l0.6,0.3c0,1.7,0.7,4.4,1,6.1c-0.1,0.2-0.1,0.3-0.2,0.5h-4l0-4.3L121.1,180.9 M133.3,177l-2.7,1c-0.8,0.3-1.6,0.6-2.3,0.9
				l-1.5,0.6l0.3,1.6l1,5.6l0.1,0.5l0.3,0.4c0.2,0.2,0.3,0.5,0.4,0.8l0.4,1.4h1.5h0.4h2v-2v-7.9V177L133.3,177z M120.7,178.5l-1,1
				l-2.6,2.6l-0.6,0.6l0,0.8l0,4.3l0,2h2h4h1.4l0.5-1.4c0-0.1,0.1-0.2,0.1-0.3l0.3-0.6l-0.1-0.6c-0.1-0.5-0.2-1.2-0.4-1.8
				c-0.3-1.4-0.6-3-0.6-3.9l0-1.3l-1.2-0.5l-0.6-0.3L120.7,178.5L120.7,178.5z"/>
		</g>
	</g>
	<g>
		<path fill-rule="evenodd" clip-rule="evenodd" fill="#A27556" d="M29.5,138.8l-0.2-0.7c-0.1-0.3-0.3-0.6-0.5-0.9l-0.2-0.2
			l-1.2-6.6l1.5-0.7l3.4,3.4l0,5.7H29.5z M17.5,138.8v-10.3l1.3,0.5c1,0.4,1.9,0.7,2.7,1.1l0.7,0.3l-0.1,0.7c-0.1,0.8,0.5,3.4,0.8,5
			c0.1,0.6,0.2,1.2,0.3,1.6l0.2,1.2H17.5z"/>
		<g>
			<path fill="#4F392A" d="M18.5,129.9c1,0.4,1.9,0.7,2.6,1c-0.1,1.3,0.9,5.4,1.1,6.9h-3.7V129.9 M28.7,130.9l2.6,2.6l0,4.3h-1.1
				c-0.1-0.4-0.4-0.8-0.6-1.2l-1-5.6L28.7,130.9 M16.5,127v2.8v7.9v2h2h3.7h2.4l-0.4-2.3c-0.1-0.4-0.2-1-0.3-1.6
				c-0.2-1.2-0.8-4.1-0.8-4.7l0.1-1.4l-1.3-0.6c-0.8-0.3-1.7-0.7-2.7-1.1L16.5,127L16.5,127z M29.2,128.5l-1.2,0.5l-0.2,0.1
				l-1.5,0.6l0.3,1.6l1,5.6l0.1,0.5l0.3,0.4c0.1,0.2,0.3,0.4,0.3,0.6l0.5,1.4h1.4h1.1h2l0-2l0-4.3l0-0.8l-0.6-0.6l-2.6-2.6
				L29.2,128.5L29.2,128.5z"/>
		</g>
	</g>
	<g>
		<path fill-rule="evenodd" clip-rule="evenodd" fill="#A27556" d="M26.4,188.8l1.3-7.3c0-0.2,0-0.3,0-0.5l-0.1-0.7l0.7-0.3
			c0.8-0.3,1.7-0.7,2.7-1.1l1.3-0.5v10.3H26.4z M17.6,188.8l0-5.7l3.4-3.4l1.5,0.7l-1.2,6.6l-0.2,0.2c-0.2,0.3-0.4,0.6-0.5,0.9
			l-0.2,0.7H17.6z"/>
		<g>
			<path fill="#4F392A" d="M31.3,179.9v7.9h-3.7l1.1-6.1c0-0.2,0.1-0.5,0-0.7C29.4,180.6,30.3,180.2,31.3,179.9 M21.1,180.9l0.2,0.1
				l-1,5.6c-0.3,0.4-0.5,0.8-0.6,1.2h-1.1l0-4.3L21.1,180.9 M33.3,177l-2.7,1c-1,0.4-2,0.7-2.7,1.1l-1.3,0.6l0.1,1.4
				c0,0.1,0,0.1,0,0.2l-1.1,6.1l-0.4,2.3h2.4h3.7h2v-2v-7.9V177L33.3,177z M20.7,178.5l-1,1l-2.6,2.6l-0.6,0.6l0,0.8l0,4.3l0,2h2
				h1.1h1.4l0.5-1.4c0.1-0.2,0.2-0.4,0.3-0.6l0.3-0.4l0.1-0.5l1-5.6l0.3-1.6l-1.5-0.6l-0.2-0.1L20.7,178.5L20.7,178.5z"/>
		</g>
	</g>
	<path fill-rule="evenodd" clip-rule="evenodd" fill="#91694D" d="M71.8,37.8h-3.3v-7.9h0L71.8,37.8z"/>
	<path fill-rule="evenodd" clip-rule="evenodd" fill="#91694D" d="M71.8,237.8h-3.3v-7.9h0L71.8,237.8z"/>
	<path fill-rule="evenodd" clip-rule="evenodd" fill="#91694D" d="M121.8,237.8h-3.3v-7.9h0L121.8,237.8z"/>
	<path fill-rule="evenodd" clip-rule="evenodd" fill="#91694D" d="M21.8,237.8h-3.3v-7.9h0L21.8,237.8z"/>
	<path fill-rule="evenodd" clip-rule="evenodd" fill="#91694D" d="M121.8,37.8h-3.3v-7.9h0L121.8,37.8z"/>
	<path fill-rule="evenodd" clip-rule="evenodd" fill="#BF9D86" d="M77.7,30.9l0.1-0.1c1.3-0.2,2.5-0.5,3.6-0.9l0,7.9L77.7,30.9z"/>
	<path fill-rule="evenodd" clip-rule="evenodd" fill="#BF9D86" d="M77.7,230.9l0.1-0.1c1.3-0.2,2.5-0.5,3.6-0.9l0,7.9L77.7,230.9z"
		/>
	<path fill-rule="evenodd" clip-rule="evenodd" fill="#BF9D86" d="M127.7,230.9l0.1-0.1c1.3-0.2,2.5-0.5,3.6-0.9l0,7.9L127.7,230.9z
		"/>
	<path fill-rule="evenodd" clip-rule="evenodd" fill="#BF9D86" d="M27.7,230.9l0.1-0.1c1.3-0.2,2.5-0.5,3.6-0.9l0,7.9L27.7,230.9z"
		/>
	<path fill-rule="evenodd" clip-rule="evenodd" fill="#BF9D86" d="M127.7,30.9l0.1-0.1c1.3-0.2,2.5-0.5,3.6-0.9l0,7.9L127.7,30.9z"
		/>
	<path fill-rule="evenodd" clip-rule="evenodd" fill="#A27556" d="M19.3,30.1c0.1,0.3,0,0.7-0.1,1L16,36.6c0-0.1,0-0.2-0.1-0.2
		c-0.5-1.5-2.1-2.3-3.7-1.8l-0.2,0.1l3.2-5.6c0.1-0.2,0.3-0.4,0.5-0.5c0.2,0.2,0.5,0.3,0.8,0.5C17.4,29.4,18.3,29.8,19.3,30.1z"/>
	<path fill-rule="evenodd" clip-rule="evenodd" fill="#A27556" d="M30.8,30l2.1,3.6c0-0.1,0-0.2,0.1-0.2c0.5-1.5,2.1-2.3,3.7-1.8
		l0.2,0.1L34.7,28c-0.4,0.4-0.9,0.7-1.4,1C32.5,29.4,31.7,29.7,30.8,30z"/>
	<path fill-rule="evenodd" clip-rule="evenodd" fill="#A27556" d="M69.3,30.1c0.1,0.3,0,0.7-0.1,1L66,36.6c0-0.1,0-0.2-0.1-0.2
		c-0.5-1.5-2.1-2.3-3.7-1.8l-0.2,0.1c0.6-1,3.1-5.8,3.7-6.1C66.9,29.2,68.1,29.7,69.3,30.1z"/>
	<path fill-rule="evenodd" clip-rule="evenodd" fill="#A27556" d="M69.3,230.1c0.1,0.3,0,0.7-0.1,1l-3.1,5.4c0-0.1,0-0.2-0.1-0.2
		c-0.5-1.5-2.1-2.3-3.7-1.8l-0.2,0.1c0.6-1,3.1-5.8,3.7-6.1C66.9,229.2,68.1,229.7,69.3,230.1z"/>
	<path fill-rule="evenodd" clip-rule="evenodd" fill="#A27556" d="M119.3,230.1c0.1,0.3,0,0.7-0.1,1l-3.1,5.4c0-0.1,0-0.2-0.1-0.2
		c-0.5-1.5-2.1-2.3-3.7-1.8l-0.2,0.1c0.6-1,3.1-5.8,3.7-6.1C116.9,229.2,118.1,229.7,119.3,230.1z"/>
	<path fill-rule="evenodd" clip-rule="evenodd" fill="#A27556" d="M19.3,230.1c0.1,0.3,0,0.7-0.1,1l-3.1,5.4c0-0.1,0-0.2-0.1-0.2
		c-0.5-1.5-2.1-2.3-3.7-1.8l-0.2,0.1c0.6-1,3.1-5.8,3.7-6.1C16.9,229.2,18.1,229.7,19.3,230.1z"/>
	<path fill-rule="evenodd" clip-rule="evenodd" fill="#A27556" d="M69.3,80.1c0.1,0.3,0,0.7-0.1,1L66,86.6c0-0.1,0-0.2-0.1-0.2
		c-0.5-1.5-2.1-2.3-3.7-1.8l-0.2,0.1l3.2-5.6c0.1-0.2,0.3-0.4,0.5-0.5C66.9,79.2,68.1,79.7,69.3,80.1z"/>
	<path fill-rule="evenodd" clip-rule="evenodd" fill="#A27556" d="M80.6,30.1c-0.1,0.3,0,0.7,0.1,1l3.1,5.4c0-0.1,0-0.2,0.1-0.2
		c0.5-1.5,2.1-2.3,3.6-1.8l0.2,0.1L84.5,29c-0.1-0.2-0.3-0.4-0.5-0.5C83,29.2,81.8,29.7,80.6,30.1z"/>
	<path fill-rule="evenodd" clip-rule="evenodd" fill="#A27556" d="M80.6,230.1c-0.1,0.3,0,0.7,0.1,1l3.1,5.4c0-0.1,0-0.2,0.1-0.2
		c0.5-1.5,2.1-2.3,3.6-1.8l0.2,0.1l-3.2-5.6c-0.1-0.2-0.3-0.4-0.5-0.5C83,229.2,81.8,229.7,80.6,230.1z"/>
	<path fill-rule="evenodd" clip-rule="evenodd" fill="#A27556" d="M130.6,230.1c-0.1,0.3,0,0.7,0.1,1l3.1,5.4c0-0.1,0-0.2,0.1-0.2
		c0.5-1.5,2.1-2.3,3.7-1.8l0.2,0.1l-3.2-5.6c-0.1-0.2-0.3-0.4-0.5-0.5C133,229.2,131.8,229.7,130.6,230.1z"/>
	<path fill-rule="evenodd" clip-rule="evenodd" fill="#A27556" d="M30.6,230.1c-0.1,0.3,0,0.7,0.1,1l3.1,5.4c0-0.1,0-0.2,0.1-0.2
		c0.5-1.5,2.1-2.3,3.7-1.8l0.2,0.1l-3.2-5.6c-0.1-0.2-0.3-0.4-0.5-0.5C33,229.2,31.8,229.7,30.6,230.1z"/>
	<path fill-rule="evenodd" clip-rule="evenodd" fill="#A27556" d="M80.6,80.1c-0.1,0.3,0,0.7,0.1,1l3.1,5.4c0-0.1,0-0.2,0.1-0.2
		c0.5-1.5,2.1-2.3,3.6-1.8l0.2,0.1c-0.6-1-3.1-5.8-3.7-6.1C83,79.2,81.8,79.7,80.6,80.1z"/>
	<path fill-rule="evenodd" clip-rule="evenodd" fill="#A27556" d="M119.1,30.1l-2,3.5c0-0.1,0-0.2-0.1-0.2c-0.5-1.5-2.1-2.3-3.7-1.8
		l-0.2,0.1l2.1-3.6c0.4,0.4,0.9,0.7,1.4,1C117.3,29.4,118.2,29.8,119.1,30.1z"/>
	<path fill-rule="evenodd" clip-rule="evenodd" fill="#A27556" d="M130.6,30.1c-0.1,0.3,0,0.7,0.1,1l3.1,5.4c0-0.1,0-0.2,0.1-0.2
		c0.5-1.5,2.1-2.3,3.7-1.8l0.2,0.1l-3.2-5.6c-0.1-0.2-0.3-0.4-0.5-0.5c-0.2,0.2-0.5,0.3-0.8,0.5C132.4,29.4,131.5,29.8,130.6,30.1z"
		/>
	<path fill-rule="evenodd" clip-rule="evenodd" fill="#A27556" d="M18.5,83.7L18,84.6c0-0.1,0-0.2-0.1-0.2c-0.5-1.5-2.1-2.3-3.7-1.8
		l-0.2,0.1l2.2-3.8l0.3,0.2c0.6,0.3,1.2,0.6,1.9,0.9V83.7z"/>
	<path fill-rule="evenodd" clip-rule="evenodd" fill="#A27556" d="M30.6,80.1c-0.1,0.3,0,0.7,0.1,1l3.1,5.4c0-0.1,0-0.2,0.1-0.2
		c0.5-1.5,2.1-2.3,3.7-1.8l0.2,0.1L34.5,79c-0.1-0.2-0.3-0.4-0.5-0.5c-0.2,0.2-0.5,0.3-0.8,0.5C32.4,79.4,31.5,79.8,30.6,80.1z"/>
	<path fill-rule="evenodd" clip-rule="evenodd" fill="#A27556" d="M118.5,82.2l-2.5,4.4c0-0.1,0-0.2-0.1-0.2
		c-0.5-1.5-2.1-2.3-3.7-1.8l-0.2,0.1l3.2-5.6c0.1-0.2,0.3-0.4,0.5-0.5c0.2,0.2,0.5,0.3,0.8,0.5c0.6,0.3,1.2,0.6,1.9,0.9V82.2z"/>
	<path fill-rule="evenodd" clip-rule="evenodd" fill="#A27556" d="M131.3,83.7l0.5,0.9c0.4-1.6,2.1-2.6,3.7-2l0.2,0.1l-2.2-3.8
		l-0.3,0.2c-0.6,0.3-1.2,0.6-1.9,0.9L131.3,83.7z"/>
	<path fill-rule="evenodd" clip-rule="evenodd" fill="#4F392A" d="M23.6,128.3l1.5-0.3c0.8-0.1,1.6,0.1,2.2,0.5
		c0.6,0.4,1.1,1.1,1.2,1.9l0,0l1.1,6.2c-0.3-0.4-0.7-0.7-1.1-1h0c-0.7-0.4-1.5-0.6-2.2-0.6l-0.7-4.1l-1.4,0.2l0.7,4.1
		c-0.8,0.3-1.5,0.9-2,1.7c-0.3,0.4-0.4,0.9-0.5,1.4l-1.2-6.7c-0.1-0.8,0.1-1.5,0.5-2.2C22.1,128.9,22.8,128.4,23.6,128.3L23.6,128.3
		z"/>
	<path fill-rule="evenodd" clip-rule="evenodd" fill="#A27556" d="M23.8,129.7l1.5-0.3c0.8-0.1,1.5,0.4,1.6,1.1l1.3,6.2
		c-1.4-1-3.4-0.7-4.4,0.8l-0.2,0.2l-1-6.4C22.5,130.6,23,129.9,23.8,129.7z"/>
	<path fill-rule="evenodd" clip-rule="evenodd" fill="#4F392A" d="M73.8,128.1l1.6,0v0c0.8,0,1.5,0.3,2.1,0.9l0,0
		c0.5,0.5,0.9,1.3,0.9,2.1l0,6.3c-0.2-0.4-0.5-0.8-0.9-1.1c-0.6-0.5-1.3-0.9-2.1-1l0-4.1h-1.4l0,4.2c-0.8,0.2-1.6,0.6-2.2,1.3
		c-0.3,0.4-0.6,0.8-0.7,1.2l0-6.8h0c0-0.8,0.3-1.5,0.9-2.1v0C72.3,128.4,73,128.1,73.8,128.1L73.8,128.1z M75.4,131.1L75.4,131.1
		C75.4,131.1,75.4,131.1,75.4,131.1L75.4,131.1L75.4,131.1z M73.9,131L73.9,131C73.9,131,73.9,131,73.9,131L73.9,131z"/>
	<path fill-rule="evenodd" clip-rule="evenodd" fill="#A27556" d="M73.8,129.6h1.6c0.8,0,1.4,0.6,1.4,1.4l0,6.2
		c-1.3-1.3-3.2-1.1-4.4,0.3l0-6.5C72.4,130.2,73.1,129.6,73.8,129.6z"/>
	<path fill-rule="evenodd" clip-rule="evenodd" fill="#4F392A" d="M124.1,128l1.4,0.2l0,0l0.1,0c0.8,0.1,1.4,0.6,1.9,1.2l0,0
		c0.4,0.6,0.6,1.3,0.5,2v0l0,0.1l-1.1,6.2c-0.1-0.5-0.4-0.9-0.7-1.3c-0.5-0.6-1.2-1.1-1.9-1.3l0.7-4l0,0l0,0l-1.4-0.2l-0.7,4.1
		c-0.9,0-1.7,0.3-2.4,0.9c-0.4,0.3-0.7,0.7-1,1.1l1.2-6.7c0.1-0.8,0.6-1.4,1.2-1.9C122.6,128.1,123.4,127.9,124.1,128L124.1,128z"/>
	<path fill-rule="evenodd" clip-rule="evenodd" fill="#A27556" d="M123.9,129.5l1.5,0.3c0.8,0.1,1.3,0.9,1.1,1.6l-1,6.1
		c-1-1.5-3.1-1.6-4.4-0.5l1.2-6.4C122.4,129.9,123.1,129.3,123.9,129.5z"/>
	<path fill-rule="evenodd" clip-rule="evenodd" fill="#4F392A" d="M25.8,181.2l-1.4-0.2l-0.7,4.1c-0.8,0-1.5,0.2-2.2,0.6h0
		c-0.4,0.3-0.8,0.6-1.1,1l1.1-6.2l0,0c0.1-0.8,0.6-1.4,1.2-1.9c0.6-0.4,1.4-0.6,2.2-0.5l1.5,0.3l0,0c0.8,0.1,1.4,0.6,1.9,1.2
		c0.4,0.6,0.6,1.4,0.5,2.2l-1.2,6.7c-0.1-0.5-0.3-0.9-0.5-1.4c-0.5-0.8-1.2-1.4-2-1.7L25.8,181.2z"/>
	<path fill-rule="evenodd" clip-rule="evenodd" fill="#A27556" d="M26.2,179.7l-1.5-0.3c-0.8-0.1-1.5,0.4-1.6,1.1l-1.3,6.1
		c1.4-1,3.4-0.6,4.3,0.8l1.2-6.2C27.5,180.6,27,179.9,26.2,179.7z"/>
	<path fill-rule="evenodd" clip-rule="evenodd" fill="#4F392A" d="M76.1,181.1h-1.4l0,4.1c-0.8,0.1-1.5,0.4-2.1,1
		c-0.4,0.3-0.7,0.7-0.9,1.1l0-6.3c0-0.8,0.3-1.5,0.9-2.1l0,0c0.5-0.5,1.3-0.9,2.1-0.9v0l1.6,0c0.8,0,1.5,0.3,2.1,0.8v0
		c0.5,0.5,0.9,1.3,0.9,2.1h0l0,6.8c-0.2-0.4-0.4-0.9-0.7-1.2c-0.6-0.7-1.4-1.1-2.2-1.3L76.1,181.1L76.1,181.1z M74.6,181.1
		C74.6,181.1,74.6,181.1,74.6,181.1L74.6,181.1L74.6,181.1L74.6,181.1z M76.1,181C76.1,181,76.1,181,76.1,181L76.1,181L76.1,181z"/>
	<path fill-rule="evenodd" clip-rule="evenodd" fill="#A27556" d="M76.2,179.6h-1.6c-0.8,0-1.4,0.6-1.4,1.4l-0.2,6.2
		c1.2-1.2,3.5-1,4.6,0.3l0-6.5C77.6,180.2,76.9,179.6,76.2,179.6z"/>
	<path fill-rule="evenodd" clip-rule="evenodd" fill="#4F392A" d="M126.3,181l-1.4,0.2l0,0v0l0.7,4c-0.7,0.2-1.4,0.7-1.9,1.3
		c-0.3,0.4-0.5,0.8-0.7,1.3l-1.1-6.2l0-0.1v0c-0.1-0.7,0.1-1.4,0.5-2l0,0c0.4-0.6,1.1-1.1,1.9-1.2l0.1,0h0l1.4-0.2h0
		c0.8-0.1,1.5,0.1,2.2,0.5c0.6,0.4,1.1,1.1,1.2,1.9l1.2,6.7c-0.2-0.4-0.6-0.8-1-1.1c-0.7-0.6-1.6-0.9-2.4-0.9L126.3,181z"/>
	<path fill-rule="evenodd" clip-rule="evenodd" fill="#A27556" d="M126.1,179.5l-1.5,0.3c-0.8,0.1-1.3,0.9-1.1,1.6l0.9,6.1
		c1-1.5,3.3-1.5,4.5-0.5l-1.1-6.4C127.6,179.9,126.9,179.3,126.1,179.5z"/>
</g>
</svg>
