<svg version="1.1" id="Layer_3" xmlns="http://www.w3.org/2000/svg" x="0" y="0" width="150" height="250" viewBox="0 0 150 250" xml:space="preserve"><path fill-rule="evenodd" clip-rule="evenodd" fill="#A27556" d="M35.8 28.2c4 0 7.2 3.2 7.2 7.2s-3.2 7.2-7.2 7.2-7.2-3.2-7.2-7.2 3.2-7.2 7.2-7.2z"/><path fill-rule="evenodd" clip-rule="evenodd" fill="#A27556" d="M35.8 228.2c4 0 7.2 3.2 7.2 7.2s-3.2 7.2-7.2 7.2-7.2-3.2-7.2-7.2 3.2-7.2 7.2-7.2z"/><path fill-rule="evenodd" clip-rule="evenodd" fill="#A27556" d="M85.8 228.2c4 0 7.2 3.2 7.2 7.2s-3.2 7.2-7.2 7.2-7.2-3.2-7.2-7.2 3.2-7.2 7.2-7.2z"/><path fill-rule="evenodd" clip-rule="evenodd" fill="#A27556" d="M135.8 228.2c4 0 7.2 3.2 7.2 7.2s-3.2 7.2-7.2 7.2-7.2-3.2-7.2-7.2 3.2-7.2 7.2-7.2z"/><path fill-rule="evenodd" clip-rule="evenodd" fill="#A27556" d="M14.1 78.3h.8L13 81.5c-.8.5-1.4 1.2-1.8 2-1.8 3.9 1.5 5.9 4.9 6.3l.2-1.5v-.2l1 .8c.1.2.1.5.2.7.1.2.2.4.3.7v1.4c-1.1.7-2.4 1.1-3.8 1.1-4 0-7.2-3.2-7.2-7.2s3.3-7.3 7.3-7.3z"/><g><path fill-rule="evenodd" clip-rule="evenodd" fill="#BBB" d="M14.1 93.8c-4.5 0-8.2-3.7-8.2-8.2 0-4.5 3.7-8.2 8.2-8.2h.9c.3 0 .6.2.8.5.2.3.1.7 0 1l-1.7 3c-.2.3-.5.5-.9.5h-.3c-.4-.1-.7-.5-.7-1v-.8c-1.3.5-2.4 1.6-2.9 2.9h1.8c.3 0 .6.1.8.3.2.2.3.5.2.8-.1.5 0 1 .1 1.5.1.3 0 .6-.1.9-.2.3-.5.4-.8.4H9.1c.5 1.3 1.6 2.4 2.9 2.9v-1.5c0-.4.2-.7.5-.9.2-.1.3-.1.5-.1s.3 0 .5.1c.5.3.9.4 1.6.5.5.1.9.5.9 1v.9c.4-.2.8-.4 1.2-.7.2-.1.4-.2.6-.2.2 0 .3 0 .4.1.3.2.6.5.6.9v1.1c0 .3-.2.7-.5.9-1.2 1-2.7 1.4-4.2 1.4z"/><path fill="#484848" d="M14.1 78.3h.8l-1.7 3v-2.1c-2.7.4-4.8 2.6-5.3 5.3H11c-.1.7-.1 1.3.2 2H7.8c.4 2.7 2.6 4.8 5.3 5.3V89c.7.4 1.2.5 2 .6v2.2c1-.2 2-.6 2.8-1.2v1.1c-1.1.7-2.4 1.1-3.8 1.1-4 0-7.2-3.2-7.2-7.2-.1-4 3.2-7.3 7.2-7.3m0-2c-5.1 0-9.2 4.1-9.2 9.2s4.1 9.2 9.2 9.2c1.7 0 3.4-.5 4.9-1.4.6-.4.9-1 .9-1.7v-1.1c0-.8-.4-1.5-1.1-1.8-.3-.1-.6-.2-.9-.2-.3 0-.7.1-1 .2-.3-.6-.9-1.1-1.6-1.2-.7-.1-.9-.2-1.3-.3-.3-.2-.6-.3-1-.3h-.1c.1-.4.1-.7 0-1.1-.1-.4-.1-.7-.1-1.1.1-.6-.1-1.1-.4-1.6h.1c.2 0 .3.1.5.1.7 0 1.4-.4 1.7-1l1.7-3c.3-.6.4-1.3 0-1.9s-.9-1-1.6-1.1c-.1.2-.4.1-.7.1zm-3.2 6.3l.3-.3c.1.1.2.3.3.4-.2-.1-.4-.1-.6-.1z"/></g><path fill-rule="evenodd" clip-rule="evenodd" fill="#A27556" d="M67.9 92.7c-1.2.9-2.7 1.4-4.3 1.4-4 0-7.2-3.2-7.2-7.2 0-3.9 3.1-7.1 6.9-7.2L61 83.5c-.8.5-1.4 1.2-1.8 2-.4 1-.5 2.1-.2 3.2.3.8.7 1.5 1.4 2 .6.5 1.4.9 2.2 1l1.5.2.2-1.5v-.2l.1.1 1.1 1 1-1.1c.3-.4.5-.8.7-1.2.1.3.1.5.2.8.1.2.2.4.3.7v2.2z"/><g><path fill-rule="evenodd" clip-rule="evenodd" fill="#BBB" d="M63.5 95.1c-5.5 0-8.1-4.2-8.1-8.1-.1-4 2.6-8.2 7.8-8.4.3 0 .7.2.9.5.2.3.2.7 0 1l-.7 1.2c-.2.3-.5.5-.9.5h-.3c-.1 0-.2-.1-.3-.1-.8.3-2.6 1.4-3.4 3.2h.4c.3 0 .6.2.8.4.2.3.2.6.1.9-.2.5-.2 1-.1 1.5 0 .3 0 .6-.2.8s-.5.3-.8.3h-.3c.5 1.3 1.6 2.4 2.9 2.9v-.3c0-.3.1-.6.3-.8.2-.2.4-.2.7-.2h.1l.6.1.1-.6c0-.4.3-.7.6-.8.1 0 .2-.1.4-.1s.5.1.6.2l.2.2c.2.2.4.5.4.8v1.5c.6-.2 1.2-.6 1.6-1.1.2-.2.4-.3.7-.3.1 0 .3 0 .4.1.4.2.6.5.6.9v1.2c0 .3-.1.6-.4.8-1.2 1.3-2.9 1.8-4.7 1.8z"/><path fill="#484848" d="M63.2 79.7l-.7 1.2c0-.2-.1-.2-.3-.2-1.1 0-4.4 2.1-4.9 5.3h1.8c-.2.6-.3 1.3-.2 2h-1.6c.4 2.7 2.6 4.8 5.3 5.3v-1.6l1.6.2.2-1.6.2.2v2.8c1.3-.2 2.4-.8 3.3-1.6v1.2c-1.2.9-2.7 1.4-4.3 1.4-9.4-.2-9.7-14.3-.4-14.6m0-2c-6 .2-8.9 4.9-8.8 9.4.1 4.5 3.3 9 9.1 9 2 0 3.9-.6 5.5-1.8.5-.4.8-1 .8-1.6v-1.2c0-.8-.5-1.5-1.2-1.8-.3-.1-.5-.2-.8-.2-.5 0-1 .2-1.4.5-.1-.5-.3-.9-.7-1.2l-.2-.2c-.4-.3-.8-.5-1.3-.5-.2 0-.5 0-.7.1-.6.2-1 .7-1.2 1.3-.4 0-.9.2-1.2.5l-.3.3c-.3-.2-.6-.5-.9-.9l.3-.3c.4-.4.6-1 .5-1.6-.1-.4 0-.7.1-1.1.2-.6.1-1.3-.3-1.8-.1-.2-.3-.3-.5-.5.6-.7 1.3-1.2 1.8-1.5.2 0 .3.1.5.1.7 0 1.4-.4 1.7-1l.7-1.2c.4-.6.4-1.4 0-2-.1-.5-.8-.8-1.5-.8z"/></g><path fill-rule="evenodd" clip-rule="evenodd" fill="#A27556" d="M112.8 79.6h.4l-2.2 3.8c-.8.5-1.4 1.2-1.8 2-.4 1-.5 2.1-.2 3.2.3.8.7 1.5 1.4 2 .6.5 1.4.9 2.2 1l1.5.2.2-1.5v-.2l.1.1 1.1 1 1-1.1c.3-.4.5-.8.7-1.2v1.8c-1.3 1.3-3.1 2.1-5.1 2.1-4 0-7.2-3.2-7.2-7.2.7-2.7 3.9-6 7.9-6z"/><g><path fill-rule="evenodd" clip-rule="evenodd" fill="#BBB" d="M112.8 95.1c-5.6 0-8.1-4.3-8.1-8.2 0-2.1.7-4.1 2-5.6 1.5-1.7 3.5-2.6 6-2.6h.6c.3 0 .7.2.8.5.2.3.2.7 0 1l-1.4 2.5c-.2.3-.5.5-.9.5h-.3c-.4-.1-.7-.5-.7-1V82c-1.3.5-2.4 1.6-3 2.9h1.2c.3 0 .6.1.8.4.2.3.2.6.2.9-.2.5-.2 1.1-.1 1.6 0 .3 0 .6-.2.8-.2.2-.5.3-.8.3h-1c.5 1.3 1.6 2.4 3 2.9v-.4c0-.3.2-.6.4-.8.2-.1.4-.2.6-.2.1 0 .2 0 .3.1.4.1.9.2 1.4.3l.4.1c.5.1.9.5.9 1v.1c.9-.4 1.7-1 2.3-1.7.2-.3.5-.4.8-.4.1 0 .2 0 .3.1.4.1.7.5.7.9v1.4c0 .3-.1.5-.3.7-1.7 1.3-3.7 2.1-5.9 2.1z"/><path fill="#484848" d="M112.7 79.6h.5l-1.4 2.5v-1.5c-2.7.4-4.8 2.6-5.3 5.3h2.5c-.2.6-.3 1.4-.2 2h-2.3c.4 2.7 2.6 4.8 5.3 5.3v-1.7c.6.2 1.4.3 2 .4v1.4c1.7-.3 3.1-1.2 4.1-2.4v1.4c-1.3 1.3-3.1 2.1-5.1 2.1-9.6-.3-9.3-14.8-.1-14.8m0-2c-5.9 0-9 4.7-9 9.3 0 4.6 3.1 9.2 9.1 9.2 2.4 0 4.7-.9 6.5-2.6.4-.4.6-.9.6-1.4v-1.4c0-.9-.5-1.6-1.4-1.9-.2-.1-.4-.1-.6-.1-.6 0-1.2.3-1.6.8-.3.4-.6.7-1 .9-.3-.4-.7-.6-1.2-.7-.1 0-.3 0-.4-.1-.4 0-.9-.1-1.2-.2-.2-.1-.5-.1-.7-.1-.4 0-.8.1-1.1.4-.2.1-.4.3-.5.5-.2-.2-.4-.3-.6-.5.3-.1.6-.3.8-.6.4-.4.5-1 .5-1.6 0-.3 0-.8.1-1v-.1c.2-.6.1-1.3-.3-1.8-.3-.4-.6-.6-1.1-.7.2-.2.4-.4.7-.6.3.3.6.6 1 .7.2 0 .3.1.5.1.7 0 1.4-.4 1.7-1l1.4-2.5c.3-.6.4-1.3 0-1.9-.3-.6-.9-1-1.6-1-.2-.1-.4-.1-.6-.1z"/></g><path fill-rule="evenodd" clip-rule="evenodd" fill="#A27556" d="M128 182.5c4 0 7.2 3.2 7.2 7.2s-3.2 7.2-7.2 7.2-7.2-3.2-7.2-7.2c-.1-3.9 3.2-7.2 7.2-7.2z"/><g><path fill-rule="evenodd" clip-rule="evenodd" fill="#BBB" d="M128 198c-1.4 0-2.9-.4-4.1-1.1-2.5-1.5-4.1-4.2-4.1-7.1 0-2.9 1.6-5.7 4.1-7.1 1.2-.7 2.7-1.1 4.1-1.1 1.4 0 2.9.4 4.1 1.1 2.5 1.5 4.1 4.2 4.1 7.1 0 2.9-1.6 5.7-4.1 7.1-1.2.7-2.7 1.1-4.1 1.1zm2-3.3c.4-.1.7-.3 1.1-.6.9-.6 1.5-1.4 1.9-2.4h-2.3c-.2.2-.4.5-.6.6v2.4zm-5.1-.6c.3.2.7.4 1.1.6v-2.3c-.2-.2-.5-.4-.6-.6H123c.4.9 1.1 1.7 1.9 2.3zm8-6.3c-.4-.9-1-1.8-1.9-2.4-.3-.2-.7-.4-1.1-.6v2.3c.2.2.5.4.6.6h2.4zm-7.6 0c.2-.2.4-.5.6-.6v-2.3c-.4.2-.7.3-1.1.6-.8.6-1.5 1.4-1.9 2.4h2.4z"/><path fill="#484848" d="M128 182.5c1.3 0 2.6.4 3.6 1v1.1c-.8-.5-1.7-.9-2.6-1.1v4.2c.5.2.9.6 1.1 1.1h1.5v2h-1.5c-.2.5-.6.9-1.1 1.1v4.2c1-.2 1.9-.5 2.6-1.1v1.1c-1.1.6-2.3 1-3.6 1-1.3 0-2.6-.4-3.6-1V195c.8.5 1.7.9 2.6 1.1v-4.2c-.5-.2-.9-.6-1.1-1.1h-1.5v-2h1.5c.2-.5.6-.9 1.1-1.1v-4.2c-1 .2-1.9.5-2.6 1.1v-1.1c1-.6 2.3-1 3.6-1m3.6 1c2.2 1.3 3.6 3.6 3.6 6.3 0 2.7-1.5 5-3.6 6.3V195c1.4-1 2.4-2.5 2.6-4.2h-2.6v-2h2.6c-.3-1.7-1.2-3.2-2.6-4.2v-1.1m-7.3 0v1.1c-1.4 1-2.4 2.5-2.6 4.2h2.6v2h-2.6c.3 1.7 1.2 3.2 2.6 4.2v1.1c-2.2-1.3-3.6-3.6-3.6-6.3 0-2.7 1.5-5.1 3.6-6.3m3.7-3c-1.6 0-3.2.4-4.6 1.2-2.8 1.7-4.6 4.7-4.6 8s1.8 6.3 4.6 8c1.4.8 3 1.2 4.6 1.2s3.2-.4 4.6-1.2c2.8-1.6 4.6-4.7 4.6-8s-1.8-6.3-4.6-8c-1.4-.8-3-1.2-4.6-1.2z"/></g><path fill-rule="evenodd" clip-rule="evenodd" fill="#A27556" d="M75 182.5c4 0 7.2 3.2 7.2 7.2s-3.2 7.2-7.2 7.2-7.2-3.2-7.2-7.2c-.1-3.9 3.2-7.2 7.2-7.2z"/><g><path fill-rule="evenodd" clip-rule="evenodd" fill="#BBB" d="M75 198c-1.5 0-2.9-.4-4.1-1.1-2.5-1.5-4.1-4.2-4.1-7.1s1.6-5.7 4.1-7.1c1.2-.7 2.7-1.1 4.1-1.1s2.9.4 4.1 1.1c2.5 1.5 4.1 4.2 4.1 7.1s-1.6 5.7-4.1 7.1c-1.2.7-2.7 1.1-4.1 1.1zm2-3.3c.4-.1.7-.3 1.1-.6.8-.6 1.5-1.4 1.9-2.4h-2.3c-.2.2-.4.5-.6.6v2.4zm-5.1-.6c.3.2.7.4 1.1.6v-2.3c-.2-.2-.5-.4-.6-.6H70c.4.9 1.1 1.7 1.9 2.3zm8-6.3c-.4-.9-1-1.8-1.9-2.4-.3-.2-.7-.4-1.1-.6v2.3c.2.2.5.4.6.6h2.4zm-7.6 0c.2-.2.4-.5.6-.6v-2.3c-.4.2-.7.3-1.1.6-.8.6-1.5 1.4-1.9 2.4h2.4z"/><path fill="#484848" d="M75 182.5c1.3 0 2.6.4 3.6 1v1.1c-.8-.5-1.7-.9-2.6-1.1v4.2c.5.2.9.6 1.1 1.1h1.5v2h-1.5c-.2.5-.6.9-1.1 1.1v4.2c1-.2 1.9-.5 2.6-1.1v1.1c-1.1.6-2.3 1-3.6 1-1.3 0-2.6-.4-3.6-1V195c.8.5 1.7.9 2.6 1.1v-4.2c-.5-.2-.9-.6-1.1-1.1h-1.5v-2h1.5c.2-.5.6-.9 1.1-1.1v-4.2c-1 .2-1.9.5-2.6 1.1v-1.1c1-.6 2.3-1 3.6-1m3.6 1c2.2 1.3 3.6 3.6 3.6 6.3 0 2.7-1.5 5-3.6 6.3V195c1.4-1 2.4-2.5 2.6-4.2h-2.6v-2h2.6c-.3-1.7-1.3-3.2-2.6-4.2v-1.1m-7.3 0v1.1c-1.4 1-2.4 2.5-2.6 4.2h2.6v2h-2.6c.3 1.7 1.3 3.2 2.6 4.2v1.1c-2.2-1.3-3.6-3.6-3.6-6.3 0-2.7 1.5-5.1 3.6-6.3m3.7-3c-1.6 0-3.2.4-4.6 1.2-2.8 1.7-4.6 4.7-4.6 8s1.8 6.3 4.6 8c1.4.8 3 1.2 4.6 1.2 1.6 0 3.2-.4 4.6-1.2 2.8-1.7 4.6-4.7 4.6-8s-1.8-6.3-4.6-8c-1.4-.8-3-1.2-4.6-1.2z"/></g><path fill-rule="evenodd" clip-rule="evenodd" fill="#A27556" d="M23 181.5c4 0 7.2 3.2 7.2 7.2s-3.2 7.2-7.2 7.2-7.2-3.2-7.2-7.2c-.1-3.9 3.2-7.2 7.2-7.2z"/><g><path fill-rule="evenodd" clip-rule="evenodd" fill="#BBB" d="M23 197c-1.4 0-2.9-.4-4.1-1.1-2.5-1.5-4.1-4.2-4.1-7.1s1.6-5.7 4.1-7.1c1.2-.7 2.7-1.1 4.1-1.1s2.9.4 4.1 1.1c2.5 1.5 4.1 4.2 4.1 7.1 0 2.9-1.6 5.7-4.1 7.1-1.2.7-2.7 1.1-4.1 1.1zm2-3.3c.4-.1.7-.3 1.1-.6.8-.6 1.5-1.4 1.9-2.4h-2.3c-.2.2-.4.5-.6.6v2.4zm-5.1-.6c.3.2.7.4 1.1.6v-2.3c-.2-.2-.5-.4-.6-.6H18c.4.9 1.1 1.7 1.9 2.3zm8-6.3c-.4-.9-1-1.8-1.9-2.4-.3-.2-.7-.4-1.1-.6v2.3c.2.2.5.4.6.6h2.4zm-7.6 0c.2-.2.4-.5.6-.6v-2.3c-.4.2-.7.3-1.1.6-.8.6-1.5 1.4-1.9 2.4h2.4z"/><path fill="#484848" d="M23 181.5c1.3 0 2.6.4 3.6 1v1.1c-.8-.5-1.7-.9-2.6-1.1v4.2c.5.2.9.6 1.1 1.1h1.5v2h-1.5c-.2.5-.6.9-1.1 1.1v4.2c1-.2 1.9-.5 2.6-1.1v1.1c-1.1.6-2.3 1-3.6 1-1.3 0-2.6-.4-3.6-1V194c.8.5 1.7.9 2.6 1.1v-4.2c-.5-.2-.9-.6-1.1-1.1h-1.5v-2h1.5c.2-.5.6-.9 1.1-1.1v-4.2c-1 .2-1.9.5-2.6 1.1v-1.1c1-.6 2.3-1 3.6-1m3.6 1c2.2 1.3 3.6 3.6 3.6 6.3 0 2.7-1.5 5-3.6 6.3V194c1.4-1 2.4-2.5 2.6-4.2h-2.6v-2h2.6c-.3-1.7-1.2-3.2-2.6-4.2v-1.1m-7.3 0v1.1c-1.4 1-2.4 2.5-2.6 4.2h2.6v2h-2.6c.3 1.7 1.3 3.2 2.6 4.2v1.1c-2.2-1.3-3.6-3.6-3.6-6.3 0-2.7 1.5-5.1 3.6-6.3m3.7-3c-1.6 0-3.2.4-4.6 1.2-2.8 1.6-4.6 4.7-4.6 8s1.8 6.3 4.6 8c1.4.8 3 1.2 4.6 1.2 1.6 0 3.2-.4 4.6-1.2 2.8-1.7 4.6-4.7 4.6-8s-1.8-6.4-4.6-8c-1.4-.8-3-1.2-4.6-1.2z"/></g><g><path fill-rule="evenodd" clip-rule="evenodd" fill="#BBB" d="M35.8 43.6c-1.5 0-2.9-.4-4.1-1.1-2.5-1.5-4.1-4.2-4.1-7.1s1.6-5.7 4.1-7.1c1.2-.7 2.7-1.1 4.1-1.1 1.4 0 2.9.4 4.1 1.1 2.5 1.5 4.1 4.2 4.1 7.1 0 2.9-1.6 5.7-4.1 7.1-1.2.8-2.6 1.1-4.1 1.1zm-3-3.8c.3.2.7.4 1.1.6V38c-.2-.2-.5-.4-.6-.6H31c.3.9.9 1.8 1.8 2.4zm5 .5c.4-.2.7-.3 1.1-.6.8-.6 1.5-1.4 1.9-2.4h-2.3c-.2.2-.4.5-.6.6v2.4zm3-6.9c-.4-.9-1-1.8-1.9-2.4-.3-.2-.7-.4-1.1-.6v2.3c.2.2.5.4.6.6h2.4zm-7.6 0c.2-.2.4-.5.6-.6v-2.3c-.4.1-.7.3-1.1.6-.9.6-1.5 1.4-1.9 2.4h2.4z"/><path fill="#484848" d="M35.8 28.2c1.3 0 2.6.4 3.6 1v1.1c-.8-.5-1.7-.9-2.6-1.1v4.2c.5.2.9.6 1.1 1.1h1.5v2h-1.5c-.2.5-.6.9-1.1 1.1v4.2c1-.2 1.9-.5 2.6-1.1v1.1c-1.1.6-2.3 1-3.6 1-1.3 0-2.6-.4-3.6-1v-1.1c.8.5 1.7.9 2.6 1.1v-4.2c-.5-.2-.9-.6-1.1-1.1h-1.5v-2h1.5c.2-.5.6-.9 1.1-1.1v-4.2c-1 .2-1.9.5-2.6 1.1v-1.1c1.1-.7 2.3-1 3.6-1m3.7.9c2.2 1.3 3.6 3.6 3.6 6.3 0 2.7-1.5 5-3.6 6.3v-1.1c1.4-1 2.4-2.5 2.6-4.2h-2.6v-2h2.6c-.3-1.7-1.2-3.2-2.6-4.2v-1.1m-7.3 0v1.1c-1.4 1-2.4 2.5-2.6 4.2h2.6v2h-2.6c.3 1.7 1.2 3.2 2.6 4.2v1.1c-2.2-1.3-3.6-3.6-3.6-6.3 0-2.7 1.4-5 3.6-6.3m3.6-2.9c-1.6 0-3.2.4-4.6 1.2-2.8 1.6-4.6 4.7-4.6 8s1.8 6.4 4.6 8c1.4.8 3 1.2 4.6 1.2 1.6 0 3.2-.4 4.6-1.2 2.8-1.6 4.6-4.7 4.6-8s-1.8-6.4-4.6-8c-1.3-.8-2.9-1.2-4.6-1.2z"/></g><g><path fill-rule="evenodd" clip-rule="evenodd" fill="#BBB" d="M35.8 243.6c-1.4 0-2.9-.4-4.1-1.1-2.5-1.5-4.1-4.2-4.1-7.1 0-2.9 1.6-5.7 4.1-7.1 1.3-.7 2.7-1.1 4.1-1.1 1.4 0 2.9.4 4.1 1.1 2.5 1.5 4.1 4.2 4.1 7.1 0 2.9-1.6 5.7-4.1 7.1-1.2.8-2.6 1.1-4.1 1.1zm-3-3.8c.3.2.7.4 1.1.6V238c-.2-.2-.5-.4-.6-.6H31c.3.9.9 1.8 1.8 2.4zm5 .5c.4-.2.7-.3 1.1-.6.9-.6 1.5-1.4 1.9-2.4h-2.3c-.2.2-.4.5-.6.6v2.4zm3-6.9c-.4-.9-1-1.8-1.9-2.4-.3-.2-.7-.4-1.1-.6v2.3c.2.2.5.4.6.6h2.4zm-7.6 0c.2-.2.4-.5.6-.6v-2.3c-.4.1-.7.3-1.1.6-.9.6-1.5 1.4-1.9 2.4h2.4z"/><path fill="#484848" d="M35.8 228.2c1.3 0 2.6.4 3.6 1v1.1c-.8-.5-1.7-.9-2.6-1.1v4.2c.5.2.9.6 1.1 1.1h1.5v2h-1.5c-.2.5-.6.9-1.1 1.1v4.2c1-.2 1.9-.5 2.6-1.1v1.1c-1.1.6-2.3 1-3.6 1-1.3 0-2.6-.4-3.6-1v-1.1c.8.5 1.7.9 2.6 1.1v-4.2c-.5-.2-.9-.6-1.1-1.1h-1.5v-2h1.5c.2-.5.6-.9 1.1-1.1v-4.2c-1 .2-1.9.5-2.6 1.1v-1.1c1.1-.7 2.3-1 3.6-1m3.7.9c2.2 1.3 3.6 3.6 3.6 6.3s-1.5 5-3.6 6.3v-1.1c1.4-1 2.4-2.5 2.6-4.2h-2.6v-2h2.6c-.3-1.7-1.2-3.2-2.6-4.2v-1.1m-7.3 0v1.1c-1.4 1-2.4 2.5-2.6 4.2h2.6v2h-2.6c.3 1.7 1.2 3.2 2.6 4.2v1.1c-2.2-1.3-3.6-3.6-3.6-6.3s1.4-5 3.6-6.3m3.6-2.9c-1.6 0-3.2.4-4.6 1.2-2.8 1.6-4.6 4.7-4.6 8s1.8 6.4 4.6 8c1.4.8 3 1.2 4.6 1.2 1.6 0 3.2-.4 4.6-1.2 2.8-1.6 4.6-4.7 4.6-8s-1.8-6.3-4.6-8c-1.3-.8-2.9-1.2-4.6-1.2z"/></g><g><path fill-rule="evenodd" clip-rule="evenodd" fill="#BBB" d="M85.8 243.6c-1.4 0-2.9-.4-4.1-1.1-2.5-1.5-4.1-4.2-4.1-7.1 0-2.9 1.6-5.7 4.1-7.1 1.3-.7 2.7-1.1 4.1-1.1 1.5 0 2.9.4 4.1 1.1 2.5 1.5 4.1 4.2 4.1 7.1 0 2.9-1.6 5.7-4.1 7.1-1.2.8-2.6 1.1-4.1 1.1zm-3-3.8c.3.2.7.4 1.1.6V238c-.2-.2-.5-.4-.6-.6H81c.3.9.9 1.8 1.8 2.4zm5 .5c.4-.1.7-.3 1.1-.6.8-.6 1.5-1.4 1.9-2.4h-2.3c-.2.2-.4.5-.6.6v2.4zm3-6.9c-.4-.9-1-1.8-1.9-2.4-.3-.2-.7-.4-1.1-.6v2.3c.2.2.5.4.6.6h2.4zm-7.6 0c.2-.2.4-.5.6-.6v-2.3c-.4.2-.7.3-1.1.6-.9.6-1.5 1.4-1.9 2.4h2.4z"/><path fill="#484848" d="M85.8 228.2c1.3 0 2.6.4 3.6 1v1.1c-.8-.5-1.7-.9-2.6-1.1v4.2c.5.2.9.6 1.1 1.1h1.5v2h-1.5c-.2.5-.6.9-1.1 1.1v4.2c1-.2 1.9-.5 2.6-1.1v1.1c-1.1.6-2.3 1-3.6 1-1.3 0-2.6-.4-3.6-1v-1.1c.8.5 1.7.9 2.6 1.1v-4.2c-.5-.2-.9-.6-1.1-1.1h-1.5v-2h1.5c.2-.5.6-.9 1.1-1.1v-4.2c-1 .2-1.9.5-2.6 1.1v-1.1c1.1-.7 2.3-1 3.6-1m3.7.9c2.2 1.3 3.6 3.6 3.6 6.3s-1.5 5-3.6 6.3v-1.1c1.4-1 2.4-2.5 2.6-4.2h-2.6v-2h2.6c-.3-1.7-1.3-3.2-2.6-4.2v-1.1m-7.3 0v1.1c-1.4 1-2.4 2.5-2.6 4.2h2.6v2h-2.6c.3 1.7 1.2 3.2 2.6 4.2v1.1c-2.2-1.3-3.6-3.6-3.6-6.3s1.4-5 3.6-6.3m3.6-2.9c-1.6 0-3.2.4-4.6 1.2-2.8 1.7-4.6 4.7-4.6 8s1.8 6.3 4.6 8c1.4.8 3 1.2 4.6 1.2s3.2-.4 4.6-1.2c2.8-1.7 4.6-4.7 4.6-8s-1.8-6.3-4.6-8c-1.3-.8-2.9-1.2-4.6-1.2z"/></g><g><path fill-rule="evenodd" clip-rule="evenodd" fill="#BBB" d="M135.8 243.6c-1.5 0-2.9-.4-4.1-1.1-2.5-1.5-4.1-4.2-4.1-7.1 0-2.9 1.6-5.7 4.1-7.1 1.3-.7 2.7-1.1 4.1-1.1 1.5 0 2.9.4 4.1 1.1 2.5 1.5 4.1 4.2 4.1 7.1 0 2.9-1.6 5.7-4.1 7.1-1.2.8-2.6 1.1-4.1 1.1zm-3-3.8c.3.2.7.4 1.1.6V238c-.2-.2-.5-.4-.6-.6H131c.3.9.9 1.8 1.8 2.4zm5 .5c.4-.1.7-.3 1.1-.6.8-.6 1.5-1.4 1.9-2.4h-2.3c-.2.2-.4.5-.6.6v2.4zm3-6.9c-.4-.9-1-1.8-1.9-2.4-.3-.2-.7-.4-1.1-.6v2.3c.2.2.5.4.6.6h2.4zm-7.6 0c.2-.2.4-.5.6-.6v-2.3c-.4.1-.7.3-1.1.6-.9.6-1.5 1.4-1.9 2.4h2.4z"/><path fill="#484848" d="M135.8 228.2c1.3 0 2.6.4 3.6 1v1.1c-.8-.5-1.7-.9-2.6-1.1v4.2c.5.2.9.6 1.1 1.1h1.5v2h-1.5c-.2.5-.6.9-1.1 1.1v4.2c1-.2 1.9-.5 2.6-1.1v1.1c-1.1.6-2.3 1-3.6 1-1.3 0-2.6-.4-3.6-1v-1.1c.8.5 1.7.9 2.6 1.1v-4.2c-.5-.2-.9-.6-1.1-1.1h-1.5v-2h1.5c.2-.5.6-.9 1.1-1.1v-4.2c-1 .2-1.9.5-2.6 1.1v-1.1c1.1-.7 2.3-1 3.6-1m3.7.9c2.2 1.3 3.6 3.6 3.6 6.3s-1.5 5-3.6 6.3v-1.1c1.4-1 2.4-2.5 2.6-4.2h-2.6v-2h2.6c-.3-1.7-1.3-3.2-2.6-4.2v-1.1m-7.3 0v1.1c-1.4 1-2.4 2.5-2.6 4.2h2.6v2h-2.6c.3 1.7 1.2 3.2 2.6 4.2v1.1c-2.2-1.3-3.6-3.6-3.6-6.3s1.4-5 3.6-6.3m3.6-2.9c-1.6 0-3.2.4-4.6 1.2-2.8 1.6-4.6 4.7-4.6 8s1.8 6.4 4.6 8c1.4.8 3 1.2 4.6 1.2 1.6 0 3.2-.4 4.6-1.2 2.8-1.7 4.6-4.7 4.6-8s-1.8-6.3-4.6-8c-1.3-.8-2.9-1.2-4.6-1.2z"/></g><path fill-rule="evenodd" clip-rule="evenodd" fill="#A27556" d="M136.2 30.6c4 0 7.2 3.2 7.2 7.2s-3.2 7.2-7.2 7.2-7.2-3.2-7.2-7.2c0-3.9 3.2-7.2 7.2-7.2z"/><g><path fill-rule="evenodd" clip-rule="evenodd" fill="#B3B3B3" d="M136.2 46.1c-1.5 0-2.9-.4-4.1-1.1-2.5-1.5-4.1-4.2-4.1-7.1 0-2.9 1.6-5.7 4.1-7.1 1.3-.7 2.7-1.1 4.1-1.1 1.5 0 2.9.4 4.1 1.1 2.5 1.5 4.1 4.2 4.1 7.1 0 2.9-1.6 5.7-4.1 7.1-1.2.7-2.6 1.1-4.1 1.1zm-3-3.9c.3.2.7.4 1.1.6v-2.3c-.2-.2-.5-.4-.6-.6h-2.3c.3.9.9 1.7 1.8 2.3zm5 .6c.4-.2.7-.3 1.1-.6.8-.6 1.5-1.4 1.9-2.4h-2.3c-.2.2-.4.5-.6.6v2.4zm3-6.9c-.4-.9-1-1.8-1.9-2.4-.3-.2-.7-.4-1.1-.6v2.3c.2.2.5.4.6.6h2.4zm-7.6 0c.2-.2.4-.5.6-.6V33c-.4.1-.7.3-1.1.6-.8.6-1.5 1.4-1.9 2.4h2.4z"/><path fill="#484848" d="M136.2 30.6c1.3 0 2.6.4 3.6 1v1.1c-.8-.5-1.7-.9-2.6-1.1v4.2c.5.2.9.6 1.1 1.1h1.5v2h-1.5c-.2.5-.6.9-1.1 1.1v4.2c1-.2 1.9-.5 2.6-1.1v1.1c-1.1.6-2.3 1-3.6 1-1.3 0-2.6-.4-3.6-1V43c.8.5 1.7.9 2.6 1.1v-4.2c-.5-.2-.9-.6-1.1-1.1h-1.5v-2h1.5c.2-.5.6-.9 1.1-1.1v-4.2c-1 .2-1.9.5-2.6 1.1v-1.1c1.1-.5 2.3-.9 3.6-.9m3.7 1c2.2 1.3 3.6 3.6 3.6 6.3 0 2.7-1.5 5-3.6 6.3V43c1.4-1 2.4-2.5 2.6-4.2h-2.6v-2h2.6c-.3-1.7-1.3-3.2-2.6-4.2v-1m-7.3 0v1.1c-1.4 1-2.4 2.5-2.6 4.2h2.6v2H130c.3 1.7 1.2 3.2 2.6 4.2v1.1c-2.2-1.3-3.6-3.6-3.6-6.3 0-2.7 1.5-5.1 3.6-6.3m3.6-3c-1.6 0-3.2.4-4.6 1.2-2.8 1.7-4.6 4.7-4.6 8s1.8 6.3 4.6 8c1.4.8 3 1.2 4.6 1.2 1.6 0 3.2-.4 4.6-1.2 2.8-1.7 4.6-4.7 4.6-8s-1.8-6.3-4.6-8c-1.3-.8-2.9-1.2-4.6-1.2z"/></g><path fill-rule="evenodd" clip-rule="evenodd" fill="#A27556" d="M86.2 30.6c4 0 7.2 3.2 7.2 7.2S90.2 45 86.2 45 79 41.8 79 37.9c0-4 3.2-7.3 7.2-7.3z"/><g><path fill-rule="evenodd" clip-rule="evenodd" fill="#B3B3B3" d="M86.2 46.1c-1.5 0-2.9-.4-4.1-1.1-2.5-1.5-4.1-4.2-4.1-7.1 0-2.9 1.6-5.7 4.1-7.1 1.2-.7 2.7-1.1 4.1-1.1 1.5 0 2.9.4 4.1 1.1 2.5 1.5 4.1 4.2 4.1 7.1s-1.6 5.7-4.1 7.1c-1.2.7-2.6 1.1-4.1 1.1zm-3-3.9c.3.2.7.4 1.1.6v-2.3c-.2-.2-.5-.4-.6-.6h-2.3c.3.9.9 1.7 1.8 2.3zm5 .6c.4-.2.7-.3 1.1-.6.8-.6 1.5-1.4 1.9-2.4h-2.3c-.2.2-.4.5-.6.6v2.4zm3-6.9c-.4-.9-1-1.8-1.9-2.4-.3-.2-.7-.4-1.1-.6v2.3c.2.2.5.4.6.6h2.4zm-7.6 0c.2-.2.4-.5.6-.6V33c-.4.1-.7.3-1.1.6-.8.6-1.5 1.4-1.9 2.4h2.4z"/><path fill="#484848" d="M86.2 30.6c1.3 0 2.6.4 3.6 1v1.1c-.8-.5-1.7-.9-2.6-1.1v4.2c.5.2.9.6 1.1 1.1h1.5v2h-1.5c-.2.5-.6.9-1.1 1.1v4.2c1-.2 1.9-.5 2.6-1.1v1.1c-1.1.6-2.3 1-3.6 1s-2.6-.4-3.6-1V43c.8.5 1.7.9 2.6 1.1v-4.2c-.5-.2-.9-.6-1.1-1.1h-1.5v-2h1.5c.2-.5.6-.9 1.1-1.1v-4.2c-1 .2-1.9.5-2.6 1.1v-1.1c1.1-.5 2.3-.9 3.6-.9m3.7 1c2.2 1.3 3.6 3.6 3.6 6.3 0 2.7-1.5 5-3.6 6.3V43c1.4-1 2.4-2.5 2.6-4.2h-2.6v-2h2.6c-.3-1.7-1.3-3.2-2.6-4.2v-1m-7.3 0v1.1c-1.4 1-2.4 2.5-2.6 4.2h2.6v2H80c.3 1.7 1.2 3.2 2.6 4.2v1.1c-2.2-1.3-3.6-3.6-3.6-6.3 0-2.7 1.5-5.1 3.6-6.3m3.6-3c-1.6 0-3.2.4-4.6 1.2-2.8 1.7-4.6 4.7-4.6 8s1.8 6.3 4.6 8c1.4.8 3 1.2 4.6 1.2 1.6 0 3.2-.4 4.6-1.2 2.8-1.7 4.6-4.7 4.6-8s-1.8-6.3-4.6-8c-1.3-.8-2.9-1.2-4.6-1.2z"/></g></svg>