<?xml version="1.0" encoding="utf-8"?>
<!-- Generator: Adobe Illustrator 16.0.0, SVG Export Plug-In . SVG Version: 6.00 Build 0)  -->
<!DOCTYPE svg PUBLIC "-//W3C//DTD SVG 1.1//EN" "http://www.w3.org/Graphics/SVG/1.1/DTD/svg11.dtd">
<svg version="1.1" id="Layer_3" xmlns="http://www.w3.org/2000/svg" xmlns:xlink="http://www.w3.org/1999/xlink" x="0px" y="0px"
	 width="150px" height="250px" viewBox="0 0 150 250" enable-background="new 0 0 150 250" xml:space="preserve">
<path fill-rule="evenodd" clip-rule="evenodd" fill="#4C4134" d="M82.8,186.8c1.9-0.4,3,2.1,3.9,3.4c-0.8-0.2-2.8-1-3.6-0.7
	c-1.6,0.6-1.5,2.5-4.3,2.6v-0.9C81.2,191.1,82.8,189.2,82.8,186.8L82.8,186.8z M71.4,191.9c-0.8-0.2-1.4-0.7-1.9-1.3
	c0.6,0.3,1.2,0.5,1.9,0.5V191.9L71.4,191.9z M68.1,189.4c-0.8-0.3-2.8,0.5-3.6,0.7c0.7-1,1.8-3,2.9-3.4v0.4
	C67.4,187.9,67.6,188.7,68.1,189.4z"/>
<path fill-rule="evenodd" clip-rule="evenodd" fill="#A27556" d="M82.7,187.9c0.6-0.2,1.2-0.1,1.7,0.7c-0.7-0.2-1.3-0.1-1.7,0l0,0
	l-0.1,0.1C82.6,188.4,82.6,188.1,82.7,187.9L82.7,187.9z M67.6,188.3c-0.2,0-0.5,0-0.8,0.1c0.2-0.3,0.4-0.5,0.7-0.6
	C67.5,188,67.5,188.2,67.6,188.3z"/>
<g>
	<path fill-rule="evenodd" clip-rule="evenodd" fill="#A27556" d="M78.6,142.1c-1.2,0-2.2-0.5-2.9-1.3c-0.1-0.1-0.1-0.1-0.2-0.2h0
		c-0.1,0.1-0.1,0.1-0.2,0.2c-0.7,0.8-1.7,1.2-2.9,1.2l-0.1,0c-1.3,0-2.5-0.7-3.3-1.9c-0.2-0.3-0.5-0.6-0.9-0.8
		c-0.2-0.1-0.4-0.1-0.6-0.1c-0.2,0-0.4,0-0.6,0.1l-2.6,0.7l1.5-2.2c0.7-1,1.5-1.2,2-1.2c1.1,0,2.1,0.8,3,1.6c0.4,0.4,1.2,1,1.5,1
		c0,0,0,0,0,0c0.4,0,0.7-0.1,0.9-0.3c0.6-0.7,1.3-1,2.2-1c0.8,0,2,0.4,2.4,1.1c0.2,0.1,0.5,0.2,0.8,0.2c0.3,0,1.1-0.6,1.5-1
		c0.9-0.8,1.9-1.6,3-1.6c0.6,0,1.4,0.2,2,1.2l1.4,2.2l-2.5-0.7c-0.2-0.1-0.4-0.1-0.6-0.1c-0.2,0-0.4,0-0.5,0.1
		c-0.4,0.2-0.7,0.5-0.9,0.8C81.2,141.4,80,142.1,78.6,142.1L78.6,142.1z"/>
	<path fill="#4C4134" d="M68,137.7c1.5,0,3.2,2.7,4.5,2.7c0,0,0,0,0.1,0c0.6,0,1.2-0.2,1.6-0.7c0.4-0.5,1-0.7,1.4-0.7
		c0.9,0,1.6,0.6,1.4,0.6h0c0,0,0.1,0.1,0.1,0.1c0.4,0.5,1,0.7,1.6,0.7c0,0,0,0,0,0c1.3,0,3-2.6,4.5-2.6c0.4,0,0.8,0.2,1.2,0.8
		c-0.3-0.1-0.6-0.1-0.9-0.1c-0.3,0-0.6,0.1-0.9,0.2c-0.7,0.2-1.1,0.7-1.4,1.1c-0.7,1-1.6,1.4-2.5,1.4c0,0,0,0,0,0
		c-0.8,0-1.6-0.3-2.1-0.9c-0.1-0.2-0.3-0.4-0.3-0.6l-1.2,0c-0.1,0.2-0.2,0.4-0.3,0.6c-0.5,0.6-1.3,0.9-2.1,0.9c0,0-0.1,0-0.1,0
		c-0.9,0-1.8-0.4-2.5-1.5c-0.3-0.4-0.7-0.9-1.4-1.1c-0.3-0.1-0.6-0.2-0.9-0.2c-0.3,0-0.5,0-0.8,0.1C67.1,137.9,67.5,137.7,68,137.7
		 M68,135.7c-0.6,0-1.9,0.2-2.8,1.6l-3,4.4l5.1-1.3c0.1,0,0.2,0,0.3,0c0.1,0,0.1,0,0.2,0c0.2,0.1,0.3,0.2,0.4,0.4
		c1,1.4,2.5,2.3,4.1,2.3l0.1,0c1.1,0,2.2-0.4,3-1c0.8,0.7,1.9,1.1,3.1,1.1h0h0.1c1.7,0,3.1-0.8,4.1-2.3c0.1-0.2,0.3-0.3,0.4-0.4
		c0.1,0,0.1,0,0.2,0c0.1,0,0.2,0,0.3,0.1l5.1,1.4l-2.9-4.4c-1-1.5-2.2-1.7-2.9-1.7c-1.5,0-2.6,1-3.7,1.8c-0.3,0.2-0.7,0.6-0.9,0.7
		c-0.7-0.9-2-1.3-3.1-1.3c-1.1,0-2.1,0.5-2.9,1.3c-0.2-0.2-0.7-0.5-1-0.8C70.6,136.7,69.5,135.7,68,135.7L68,135.7z"/>
</g>
<path fill-rule="evenodd" clip-rule="evenodd" fill="#4C4134" d="M18.9,190.6c-2.2-1.2-1.6-3-2.6-4c-0.6-0.6-2.8-0.7-3.7-0.8
	c1.3-0.9,3.3-2.7,4.8-1.7v3c0,1.3,0.6,2.5,1.7,3.3L18.9,190.6z"/>
<path fill-rule="evenodd" clip-rule="evenodd" fill="#A27556" d="M17.4,186.5c-0.4-0.8-1.2-1.2-2.1-1.3c0.9-0.6,1.5-0.3,2.1,0.3
	V186.5z"/>
<g>
	<path fill-rule="evenodd" clip-rule="evenodd" fill="#A27556" d="M130.8,142.9c-0.3-0.3-0.7-0.4-1-0.4c0,0,0,0,0,0
		c-0.4,0-0.8,0.1-1.1,0.3c-0.7,0.5-1.5,0.7-2.3,0.7c-0.5,0-1-0.1-1.5-0.3c-1.1-0.4-1.9-1.3-2.2-2.3c0-0.1,0-0.2-0.1-0.3l0,0
		c-0.1,0-0.2,0.1-0.2,0.1c-0.5,0.2-1,0.4-1.6,0.4c-0.6,0-1.2-0.1-1.7-0.4c-1.2-0.6-2-1.6-2.3-3c-0.1-0.3-0.2-0.7-0.5-1.1
		c-0.3-0.2-0.6-0.4-1-0.5l-2.6-0.4l2.2-1.4c0.5-0.3,1-0.5,1.5-0.5c1.6,0,2.4,1.6,3,2.9c0.3,0.5,0.7,1.4,1,1.5
		c0.2,0.1,0.4,0.1,0.6,0.1c0.1,0,0.3,0,0.3-0.1c0.4-0.2,0.9-0.3,1.3-0.3c1.5,0,2.8,1.4,2.9,2.2c0.1,0.2,0.4,0.4,0.6,0.5
		c0,0,0,0,0.2,0c0.4,0,1-0.2,1.6-0.4c0.8-0.2,1.6-0.5,2.4-0.5c1.3,0,2.2,0.8,2.4,2.1l0.5,2.6L130.8,142.9z"/>
	<path fill="#4C4134" d="M116.2,134.8c1.7,0,2.2,3.7,3.5,4.3c0.3,0.1,0.6,0.2,1,0.2c0.3,0,0.6-0.1,0.8-0.2c0.3-0.2,0.6-0.2,0.9-0.2
		c1.2,0,2,1.3,1.8,1.3c0,0,0,0,0,0c0,0,0,0.1,0,0.1c0.2,0.6,0.7,1,1.2,1.3c0.2,0.1,0.3,0.1,0.5,0.1c1.1,0,2.8-0.9,4-0.9
		c0.7,0,1.3,0.3,1.4,1.3c-0.6-0.5-1.1-0.6-1.6-0.7c0,0-0.1,0-0.1,0c-0.7,0-1.2,0.3-1.6,0.5c-0.6,0.4-1.2,0.5-1.8,0.5
		c-0.4,0-0.8-0.1-1.1-0.2c-0.7-0.3-1.4-0.9-1.7-1.7c-0.1-0.2-0.1-0.4-0.1-0.7l-1.1-0.5c-0.1,0.2-0.3,0.3-0.5,0.4
		c-0.3,0.2-0.7,0.2-1.1,0.2c-0.4,0-0.9-0.1-1.3-0.3c-0.8-0.4-1.5-1.1-1.7-2.3c-0.1-0.5-0.3-1.1-0.8-1.6c-0.4-0.3-0.9-0.6-1.6-0.7
		C115.7,134.9,116,134.8,116.2,134.8 M116.2,132.8c-0.7,0-1.4,0.2-2,0.7l-4.4,2.9l5.2,0.8c0.2,0,0.4,0.1,0.5,0.2
		c0.2,0.2,0.2,0.4,0.3,0.5c0.3,1.7,1.4,3.1,2.9,3.7c0.6,0.3,1.4,0.5,2.1,0.5c0.4,0,0.8-0.1,1.2-0.2c0.5,1,1.4,1.8,2.5,2.2
		c0.6,0.2,1.2,0.4,1.9,0.4c1,0,1.9-0.3,2.8-0.8c0.2-0.1,0.4-0.2,0.5-0.2c0.2,0,0.4,0.1,0.5,0.2l4.2,3.3l-0.9-5.2
		c-0.3-1.8-1.6-2.9-3.4-2.9c-0.9,0-1.8,0.3-2.7,0.5c-0.4,0.1-0.9,0.3-1.2,0.3c-0.4-1.3-2-2.7-3.8-2.7c-0.6,0-1.1,0.1-1.7,0.4
		c0,0,0,0,0,0c-0.2-0.2-0.4-0.7-0.6-1.1C119.5,134.9,118.4,132.8,116.2,132.8L116.2,132.8z"/>
</g>
<path fill-rule="evenodd" clip-rule="evenodd" fill="#4C4134" d="M132.8,185.4c1.9-2.2,3.8,0,5.5,1.3c-1.2,0.1-3.4-0.1-4.1,1
	c-0.5,0.8-0.3,1.4-1.2,2.4c-0.4,0.5-1,0.9-1.5,1.1l-0.5-0.7c0.2-0.1,0.4-0.3,0.5-0.5c0.7-0.7,1.2-1.7,1.2-2.8V185.4z"/>
<path fill-rule="evenodd" clip-rule="evenodd" fill="#A27556" d="M132.8,187.1c0.7-1.2,1.5-2.2,2.8-1.2c-3.1,0.2-2,3-4.1,4.2
	C132.3,189.2,132.8,188.2,132.8,187.1z"/>
<g>
	<path fill-rule="evenodd" clip-rule="evenodd" fill="#A27556" d="M18.1,141.5c0.3-1.3,1.1-1.9,2.3-1.9c0.8,0,1.7,0.3,2.6,0.7
		c0.6,0.2,1.3,0.5,1.7,0.5c0.4-0.1,0.7-0.4,0.8-0.6c0.4-1.2,1.5-1.9,2.9-1.9c0.5,0,1.1,0.1,1.5,0.5c0.1,0,0.2,0,0.3,0
		c0.2,0,0.3,0,0.5-0.1c0.3-0.1,0.8-1,1.1-1.5c0.7-1.3,1.5-2.7,3-2.7c0.5,0,1.1,0.2,1.6,0.6l2.1,1.6l-2.6,0.2c-0.4,0-0.8,0.2-1.1,0.4
		c-0.4,0.3-0.5,0.8-0.6,1c-0.4,1.4-1.3,2.4-2.5,2.9c-0.5,0.2-1,0.3-1.4,0.3c-0.6,0-1.3-0.2-1.8-0.5c-0.1,0-0.2-0.1-0.2-0.1l0,0
		c0,0.1-0.1,0.2-0.1,0.3c-0.4,1-1.3,1.8-2.4,2.2c-0.4,0.1-0.8,0.2-1.2,0.2c-0.9,0-1.7-0.3-2.5-0.9c-0.2-0.2-0.6-0.4-1.1-0.4
		c0,0,0,0,0,0c-0.4,0-0.7,0.1-1.1,0.4l-2.2,1.5L18.1,141.5z"/>
	<path fill="#4C4134" d="M34.6,135.5c0.3,0,0.6,0.1,1,0.4c-0.7,0.1-1.3,0.3-1.6,0.6c-0.5,0.5-0.8,1.1-0.9,1.5
		c-0.3,1.2-1.1,1.9-1.9,2.2c-0.3,0.1-0.7,0.2-1.1,0.2c-0.4,0-0.9-0.1-1.3-0.3c-0.2-0.1-0.4-0.3-0.5-0.4l-1.2,0.4
		c0,0.2,0,0.4-0.1,0.6c-0.3,0.8-1,1.3-1.8,1.6c-0.3,0.1-0.6,0.1-0.9,0.1c-0.6,0-1.3-0.2-1.9-0.7c-0.4-0.3-1-0.6-1.7-0.6c0,0,0,0,0,0
		c-0.5,0-1,0.1-1.6,0.5c0.2-0.9,0.7-1.2,1.4-1.2c1.3,0,3.1,1.2,4.2,1.2c0.1,0,0.3,0,0.4-0.1c0.6-0.2,1.1-0.6,1.3-1.2
		c0.4-1,1.3-1.3,1.9-1.3c0.5,0,0.9,0.1,0.7,0.2c0,0,0.1,0.1,0.1,0.1c0.3,0.2,0.6,0.2,0.9,0.2c0.3,0,0.6-0.1,0.8-0.2
		C32.2,139,33,135.5,34.6,135.5 M34.6,133.5c-2.1,0-3.1,1.8-3.9,3.2c-0.2,0.3-0.5,0.8-0.6,1c-0.4-0.3-1-0.5-1.8-0.5
		c-1.8,0-3.2,0.9-3.8,2.5c0,0,0,0,0,0c-0.3-0.1-0.8-0.3-1.2-0.4c-0.9-0.3-1.9-0.7-2.9-0.7c-1.6,0-2.9,1-3.3,2.7l-1.3,5.1l4.4-3
		c0.2-0.1,0.4-0.2,0.5-0.2c0.2,0,0.4,0.1,0.5,0.2c1,0.7,2,1,3.1,1c0.5,0,1-0.1,1.5-0.2c1.1-0.4,2.1-1.1,2.7-2.1
		c0.5,0.2,1,0.3,1.6,0.3c0.6,0,1.2-0.1,1.8-0.3c1.5-0.6,2.6-1.8,3.1-3.5c0-0.1,0.1-0.4,0.3-0.5c0.1-0.1,0.3-0.1,0.5-0.2l5.3-0.4
		l-4.2-3.2C36.1,133.7,35.4,133.5,34.6,133.5L34.6,133.5z"/>
</g>
<g>
	<path fill-rule="evenodd" clip-rule="evenodd" fill="#A27556" d="M19.8,243.1c-0.3-0.4-0.6-0.6-0.9-0.7c-0.2-0.1-0.3-0.1-0.5-0.1
		c-0.3,0-0.5,0.1-0.6,0.1c-0.4,0.1-0.9,0.2-1.3,0.2c-0.9,0-1.7-0.3-2.4-0.8c-0.9-0.7-1.5-1.8-1.5-2.8c0-0.1,0-0.2,0-0.3l0,0
		c-0.1,0-0.2,0-0.3,0.1c-0.2,0-0.4,0.1-0.6,0.1c-0.9,0-1.8-0.3-2.5-0.9c-1-0.9-1.5-2.1-1.4-3.5c0-0.3,0-0.8-0.2-1.2l0-0.1
		c-0.2-0.3-0.5-0.5-0.8-0.7l-2.4-1.1l2.5-0.8c0.3-0.1,0.6-0.2,0.9-0.2c2,0,2.5,2.2,2.7,3.6c0.1,0.6,0.3,1.6,0.5,1.7
		c0.2,0.2,0.5,0.3,0.8,0.3c0,0,0.1,0,0.1,0c0.2,0,0.4-0.1,0.6-0.1c1.9,0,3,1.9,3,2.7v0.4c0.1,0.2,0.2,0.4,0.4,0.5
		c0,0,0.2,0.1,1.1,0.1c0.2,0,0.5,0,0.7,0c0.3,0,0.6,0,0.8,0c1,0,2.1,0.1,2.8,0.9c0.5,0.5,0.6,1.2,0.6,2l-0.2,2.6L19.8,243.1z"/>
	<path fill="#4C4134" d="M7.5,231.4c2.1,0,1.4,4.1,2.6,5.1c0.4,0.3,0.9,0.5,1.4,0.5c0.1,0,0.2,0,0.3,0c0.1,0,0.3,0,0.4,0
		c1.5,0,2.1,1.8,1.9,1.8c0,0,0,0,0,0c0,0,0,0.1,0,0.1c0,0.6,0.4,1.2,0.9,1.5c0.4,0.3,1,0.3,1.7,0.3c0.5,0,1.1,0,1.6,0
		c1.3,0,2.5,0.2,2.4,1.8c-0.4-0.6-0.9-0.9-1.4-1.1c-0.3-0.1-0.6-0.1-0.8-0.1c-0.4,0-0.7,0.1-0.9,0.1c-0.4,0.1-0.7,0.2-1,0.2
		c-0.7,0-1.3-0.2-1.8-0.6c-0.6-0.5-1.1-1.3-1.1-2.1c0-0.2,0-0.4,0.1-0.6l-1-0.8c-0.2,0.1-0.4,0.2-0.6,0.2c-0.1,0-0.3,0-0.4,0
		c-0.7,0-1.4-0.3-1.9-0.7c-0.7-0.6-1.1-1.5-1.1-2.7c0-0.5,0-1.1-0.4-1.7v0c-0.3-0.4-0.7-0.8-1.3-1.1C7.1,231.4,7.4,231.4,7.5,231.4
		 M7.5,229.4c-0.4,0-0.8,0.1-1.2,0.2l-5,1.6l4.8,2.1c0.1,0.1,0.3,0.2,0.4,0.3l0,0c0.1,0.2,0.1,0.5,0.1,0.6c-0.1,1.7,0.5,3.3,1.8,4.4
		c0.9,0.7,2,1.2,3.1,1.2c0.2,1.1,0.9,2.1,1.8,2.8c0.9,0.7,1.9,1,3,1c0.5,0,1.1-0.1,1.6-0.2c0.1,0,0.3-0.1,0.4-0.1c0.1,0,0.2,0,0.2,0
		c0.1,0,0.3,0.2,0.4,0.4l3.1,4.2l0.5-5.2c0.1-1.4-0.4-2.3-0.8-2.7c-1.1-1.2-2.8-1.2-3.5-1.2c-0.3,0-0.6,0-0.9,0c-0.2,0-0.5,0-0.7,0
		c-0.2,0-0.4,0-0.5,0c0,0,0,0,0-0.1c0-0.8-0.5-1.7-0.9-2.2c-0.8-1-1.9-1.5-3-1.5c-0.2,0-0.5,0-0.7,0.1c-0.1-0.3-0.2-0.8-0.3-1.2
		C11,232.4,10.4,229.4,7.5,229.4L7.5,229.4z"/>
</g>
<g>
	<path fill-rule="evenodd" clip-rule="evenodd" fill="#A27556" d="M69.8,243.1c-0.3-0.4-0.6-0.6-0.9-0.7c-0.2-0.1-0.3-0.1-0.5-0.1
		c-0.3,0-0.5,0.1-0.6,0.1c-0.4,0.1-0.9,0.2-1.3,0.2c-0.9,0-1.7-0.3-2.4-0.8c-0.9-0.7-1.5-1.8-1.5-2.8c0-0.1,0-0.2,0-0.3l0,0
		c-0.1,0-0.2,0-0.3,0.1c-0.2,0-0.4,0.1-0.6,0.1c-0.9,0-1.8-0.3-2.5-0.9c-1-0.9-1.5-2.1-1.4-3.5c0-0.3,0-0.8-0.2-1.2l0-0.1
		c-0.2-0.3-0.5-0.5-0.8-0.7l-2.4-1.1l2.5-0.8c0.3-0.1,0.6-0.2,0.9-0.2c2,0,2.5,2.2,2.7,3.6c0.1,0.6,0.3,1.6,0.5,1.7
		c0.2,0.2,0.5,0.3,0.8,0.3c0,0,0.1,0,0.1,0c0.2,0,0.4-0.1,0.6-0.1c1.9,0,3,1.9,3,2.7v0.4c0.1,0.2,0.2,0.4,0.4,0.5
		c0,0,0.2,0.1,1.1,0.1c0.2,0,0.5,0,0.7,0c0.3,0,0.6,0,0.8,0c1,0,2.1,0.1,2.8,0.9c0.5,0.5,0.6,1.2,0.6,2l-0.2,2.6L69.8,243.1z"/>
	<path fill="#4C4134" d="M57.5,231.4c2.1,0,1.4,4.1,2.6,5.1c0.4,0.3,0.9,0.5,1.4,0.5c0.1,0,0.2,0,0.3,0c0.1,0,0.3,0,0.4,0
		c1.5,0,2.1,1.8,1.9,1.8c0,0,0,0,0,0c0,0,0,0.1,0,0.1c0,0.6,0.4,1.2,0.9,1.5c0.4,0.3,1,0.3,1.7,0.3c0.5,0,1.1,0,1.6,0
		c1.3,0,2.5,0.2,2.4,1.8c-0.4-0.6-0.9-0.9-1.4-1.1c-0.3-0.1-0.6-0.1-0.8-0.1c-0.4,0-0.7,0.1-0.9,0.1c-0.4,0.1-0.7,0.2-1,0.2
		c-0.7,0-1.3-0.2-1.8-0.6c-0.6-0.5-1.1-1.3-1.1-2.1c0-0.2,0-0.4,0.1-0.6l-1-0.8c-0.2,0.1-0.4,0.2-0.6,0.2c-0.1,0-0.3,0-0.4,0
		c-0.7,0-1.4-0.3-1.9-0.7c-0.7-0.6-1.1-1.5-1.1-2.7c0-0.5,0-1.1-0.4-1.7v0c-0.3-0.4-0.7-0.8-1.3-1.1
		C57.1,231.4,57.4,231.4,57.5,231.4 M57.5,229.4c-0.4,0-0.8,0.1-1.2,0.2l-5,1.6l4.8,2.1c0.2,0.1,0.3,0.2,0.4,0.3l0,0
		c0.1,0.2,0.1,0.5,0.1,0.6c-0.1,1.7,0.5,3.3,1.8,4.4c0.9,0.7,2,1.2,3.1,1.2c0.2,1.1,0.9,2.1,1.8,2.8c0.9,0.7,1.9,1,3,1
		c0.5,0,1.1-0.1,1.6-0.2c0.1,0,0.2-0.1,0.4-0.1c0.1,0,0.2,0,0.2,0c0.1,0,0.3,0.2,0.4,0.4l3.1,4.2l0.5-5.2c0.1-1.4-0.4-2.3-0.8-2.7
		c-1.1-1.2-2.8-1.2-3.5-1.2c-0.3,0-0.6,0-0.9,0c-0.2,0-0.5,0-0.7,0c-0.2,0-0.4,0-0.5,0c0,0,0,0,0-0.1c0-0.8-0.5-1.7-0.9-2.2
		c-0.8-1-1.9-1.5-3-1.5c-0.2,0-0.5,0-0.7,0.1c-0.1-0.3-0.2-0.8-0.3-1.2C61,232.4,60.4,229.4,57.5,229.4L57.5,229.4z"/>
</g>
<g>
	<path fill-rule="evenodd" clip-rule="evenodd" fill="#A27556" d="M119.8,243.1c-0.3-0.4-0.6-0.6-0.9-0.7c-0.2-0.1-0.3-0.1-0.5-0.1
		c-0.3,0-0.5,0.1-0.6,0.1c-0.4,0.1-0.9,0.2-1.3,0.2c-0.9,0-1.7-0.3-2.4-0.8c-0.9-0.7-1.5-1.8-1.5-2.9c0-0.1,0-0.2,0-0.3l0,0
		c-0.1,0-0.2,0-0.3,0.1c-0.2,0-0.4,0.1-0.6,0.1c-0.9,0-1.8-0.3-2.5-0.9c-1-0.9-1.5-2.1-1.4-3.5c0-0.3,0-0.8-0.2-1.2l0-0.1
		c-0.2-0.3-0.5-0.5-0.8-0.6l-2.4-1.1l2.5-0.8c0.3-0.1,0.6-0.2,0.9-0.2c2,0,2.5,2.2,2.7,3.6c0.1,0.6,0.3,1.6,0.5,1.7
		c0.2,0.2,0.5,0.3,0.8,0.3c0,0,0.1,0,0.1,0c0.2,0,0.4-0.1,0.6-0.1c2,0,3,1.9,3,2.7v0.4c0.1,0.2,0.2,0.4,0.4,0.6c0,0,0.2,0.1,1.1,0.1
		c0.2,0,0.5,0,0.7,0c0.3,0,0.6,0,0.8,0c1,0,2.1,0.1,2.8,0.9c0.5,0.5,0.6,1.2,0.6,2l-0.2,2.6L119.8,243.1z"/>
	<path fill="#4C4134" d="M107.5,231.4c2.1,0,1.4,4.1,2.6,5.1c0.4,0.3,0.9,0.5,1.4,0.5c0.1,0,0.2,0,0.3,0c0.1,0,0.3,0,0.4,0
		c1.5,0,2.1,1.8,1.9,1.8c0,0,0,0,0,0c0,0,0,0.1,0,0.1c0,0.6,0.4,1.2,0.9,1.5c0.4,0.3,1,0.3,1.7,0.3c0.5,0,1.1,0,1.6,0
		c1.3,0,2.5,0.2,2.4,1.8c-0.4-0.6-0.9-0.9-1.4-1.1c-0.3-0.1-0.6-0.1-0.8-0.1c-0.4,0-0.7,0.1-0.9,0.1c-0.4,0.1-0.7,0.2-1,0.2
		c-0.7,0-1.3-0.2-1.8-0.6c-0.6-0.5-1.1-1.3-1.1-2.1c0-0.2,0-0.4,0.1-0.6l-1-0.8c-0.2,0.1-0.4,0.2-0.6,0.2c-0.1,0-0.3,0-0.4,0
		c-0.7,0-1.4-0.3-1.9-0.7c-0.7-0.6-1.2-1.5-1.1-2.7c0-0.5,0-1.1-0.4-1.7v0c-0.3-0.4-0.7-0.8-1.3-1.1
		C107.1,231.4,107.4,231.4,107.5,231.4 M107.5,229.4c-0.4,0-0.8,0.1-1.2,0.2l-5,1.6l4.9,2.1c0.1,0.1,0.3,0.2,0.4,0.3l0,0
		c0.1,0.2,0.1,0.5,0.1,0.6c-0.1,1.7,0.5,3.3,1.8,4.4c0.9,0.7,2,1.2,3.1,1.2c0.2,1.1,0.9,2.1,1.8,2.8c0.9,0.7,1.9,1,3,1
		c0.5,0,1.1-0.1,1.6-0.2c0.1,0,0.2-0.1,0.4-0.1c0.1,0,0.2,0,0.2,0c0.1,0,0.3,0.2,0.4,0.4l3.1,4.3l0.5-5.3c0.1-1.4-0.4-2.3-0.8-2.7
		c-1.1-1.2-2.8-1.2-3.5-1.2c-0.3,0-0.6,0-0.9,0c-0.2,0-0.5,0-0.7,0c-0.2,0-0.4,0-0.5,0c0,0,0,0,0-0.1c0-0.8-0.5-1.7-0.9-2.2
		c-0.8-1-1.9-1.5-3-1.5c-0.2,0-0.5,0-0.7,0.1c-0.1-0.3-0.2-0.8-0.3-1.2C111,232.4,110.4,229.4,107.5,229.4L107.5,229.4z"/>
</g>
<path fill-rule="evenodd" clip-rule="evenodd" fill="#4C4134" d="M37.4,90.2c-1.3,2.8-3,2.2-5.5,2c0.1-0.7,0.1-1.8,0.1-2.6
	c2.7,0,1.8,0.5,3.8-1.2l0.3,1.9L37.4,90.2L37.4,90.2z M39.9,83.9c0.4-2,1-4.2,3.6-3.4l2.5,0.8c-0.8,0.3-2.8,1-3.3,1.8h0
	c-0.5,0.9-0.1,2-0.5,3.1c-0.3,0.6-0.7,1.2-1.1,1.6c-0.3,0.3-0.7,0.5-1.1,0.7c0.8-1.2,0.9-2.7,0.2-4C40.2,84.3,40,84.1,39.9,83.9z"/>
<path fill-rule="evenodd" clip-rule="evenodd" fill="#A27556" d="M35.9,89.5c-0.7,1.6-2.4,1.2-3.9,1.2v0.6c1.4,0.1,2.2,0.8,3.6-0.3
	c0.2-0.2,0.4-0.3,0.6-0.6l-0.1,0L35.9,89.5L35.9,89.5z M40.6,86.9c1.8-1.8-0.2-4.2,2.6-5.4c-2.2-0.7-2.1,2.2-2.7,4
	C40.7,85.9,40.7,86.4,40.6,86.9z"/>
<path fill-rule="evenodd" clip-rule="evenodd" fill="#4C4134" d="M138.1,82.2c0.1-0.7,0.3-1.5,0.5-2.2c0.5-1.5,1.3-2.5,3.3-1.9
	l2.5,0.8c-0.8,0.3-2.8,1-3.3,1.8l0,0c-0.9,1.5,0.6,4.2-2.9,5.4C138.9,84.8,138.8,83.5,138.1,82.2L138.1,82.2z M135.6,88.2
	c-0.6,1-1.6,1.7-2.8,1.9c-0.3,0-0.5,0.1-0.8,0c0-1.1,0-1.9-0.9-2.7l-0.1-0.1c0.3,0,0.6,0,0.9,0l0.4,0.4l1.5-1.2l0.3,1.9
	C134.5,88.4,135.1,88.3,135.6,88.2z"/>
<path fill-rule="evenodd" clip-rule="evenodd" fill="#A27556" d="M133.9,87.7c-0.6,0.7-1.3,0.7-2.2,0.7c0.1,0.3,0.2,0.5,0.2,0.8
	c0.9,0,1.5-0.2,2.2-0.7l-0.1,0L133.9,87.7L133.9,87.7z M138.6,84.8c0.1-0.1,0.1-0.1,0.2-0.2c0.7-0.6,1.1-1.5,1.1-2.7
	c-0.1-1.3,0.5-2.3,1.7-2.9c-2.6-0.8-2,3.3-3,4.8C138.7,84.1,138.7,84.5,138.6,84.8z"/>
<path fill-rule="evenodd" clip-rule="evenodd" fill="#4C4134" d="M85.2,89.2l0-0.2l0.6-0.5l0.3,1.9c0.5-0.1,1.2-0.1,1.7-0.3
	c-1.1,3.2-2.9,2.4-5.5,2.5l-0.2,0v-2.6C83,90.1,84.9,90.4,85.2,89.2L85.2,89.2z M89.7,83.6c0.6-4.7,2.5-3.7,5.9-2.8
	c-1.1,0.6-3.1,1.2-3.3,2.5v0c-0.1,0.9,0.2,1.4-0.1,2.6h0c-0.3,1.1-1.1,1.9-2.1,2.4C91,86.8,90.8,85,89.7,83.6z"/>
<path fill-rule="evenodd" clip-rule="evenodd" fill="#A27556" d="M85.9,89.9c-0.8,1.4-2.5,1.1-4,1.2v0.6c1.8-0.2,3.2,0.9,4.5-1.3
	L86,90.4L85.9,89.9L85.9,89.9z M90.7,86.7c1.7-1.9-0.6-4.1,2.2-5.6c-2.2-0.5-2,2.2-2.4,4C90.7,85.6,90.7,86.2,90.7,86.7z"/>
<g>
	<path fill-rule="evenodd" clip-rule="evenodd" fill="#A27556" d="M19.8,43.1c-0.3-0.4-0.6-0.6-0.9-0.7c-0.2-0.1-0.3-0.1-0.5-0.1
		c-0.3,0-0.5,0.1-0.6,0.1c-0.4,0.1-0.9,0.2-1.3,0.2c-0.9,0-1.7-0.3-2.4-0.8c-0.9-0.7-1.5-1.8-1.5-2.9c0-0.1,0-0.2,0-0.3l0,0
		c-0.1,0-0.2,0-0.3,0.1c-0.2,0-0.4,0.1-0.6,0.1c-0.9,0-1.8-0.3-2.5-0.9c-1-0.9-1.5-2.1-1.4-3.5c0-0.3,0-0.8-0.2-1.2
		c-0.2-0.3-0.5-0.5-0.9-0.7l-2.4-1.1l2.5-0.8c0.3-0.1,0.6-0.2,0.9-0.2c2,0,2.5,2.2,2.7,3.6c0.1,0.6,0.3,1.6,0.5,1.7
		c0.2,0.2,0.5,0.3,0.8,0.3c0,0,0.1,0,0.1,0c0.2,0,0.4-0.1,0.6-0.1c1.9,0,3,1.9,3,2.7l0,0.4c0.1,0.2,0.2,0.4,0.4,0.5
		c0,0,0.2,0.1,1.1,0.1c0.2,0,0.5,0,0.7,0c0.3,0,0.6,0,0.8,0c1,0,2.1,0.1,2.8,0.9c0.5,0.5,0.6,1.2,0.6,2l-0.2,2.6L19.8,43.1z"/>
	<path fill="#4C4134" d="M7.5,31.4c2.1,0,1.4,4.2,2.6,5.1c0.4,0.3,0.9,0.5,1.4,0.5c0.1,0,0.2,0,0.3,0c0.1,0,0.3,0,0.4,0
		c1.5,0,2.1,1.8,1.9,1.8c0,0,0,0,0,0c0,0,0,0.1,0,0.1c0,0.6,0.4,1.2,0.9,1.5c0.4,0.3,1,0.3,1.7,0.3c0.5,0,1,0,1.6,0
		c1.3,0,2.5,0.2,2.4,1.8c-0.4-0.6-0.9-0.9-1.4-1.1v0c-0.3-0.1-0.6-0.1-0.9-0.1c-0.4,0-0.7,0.1-0.9,0.1c-0.4,0.1-0.7,0.2-1,0.2
		c-0.7,0-1.3-0.2-1.8-0.6c-0.6-0.5-1.1-1.3-1.1-2.1c0-0.2,0-0.4,0.1-0.6l-1-0.8c-0.2,0.1-0.4,0.2-0.6,0.2c-0.1,0-0.3,0-0.4,0
		c-0.7,0-1.4-0.3-1.9-0.7c-0.7-0.6-1.1-1.5-1.1-2.7c0-0.5,0-1.1-0.4-1.7c-0.3-0.4-0.7-0.8-1.3-1.1C7.1,31.4,7.4,31.4,7.5,31.4
		 M7.5,29.4c-0.4,0-0.8,0.1-1.2,0.2l-5,1.6l4.8,2.1c0.1,0.1,0.3,0.2,0.4,0.3c0.1,0.2,0.1,0.5,0.1,0.6c-0.1,1.7,0.5,3.3,1.8,4.4
		c0.9,0.7,2,1.2,3.1,1.2c0,0,0,0,0,0c0.2,1.1,0.9,2.1,1.8,2.8c0.9,0.7,1.9,1,3,1c0.5,0,1.1-0.1,1.6-0.2c0.1,0,0.2-0.1,0.4-0.1
		c0.1,0,0.2,0,0.2,0l0,0c0.1,0.1,0.3,0.2,0.4,0.3l3.1,4.3l0.5-5.3c0.1-1.4-0.4-2.2-0.8-2.7c-1.1-1.2-2.8-1.2-3.5-1.2
		c-0.3,0-0.6,0-0.9,0c-0.2,0-0.5,0-0.7,0c-0.2,0-0.4,0-0.5,0c0,0,0,0,0-0.1c0-0.8-0.5-1.7-0.9-2.2c-0.8-1-1.9-1.5-3-1.5
		c-0.2,0-0.5,0-0.7,0.1c-0.1-0.3-0.2-0.8-0.3-1.2C11,32.4,10.4,29.4,7.5,29.4L7.5,29.4z"/>
</g>
<g>
	<path fill-rule="evenodd" clip-rule="evenodd" fill="#A27556" d="M69.4,43.6c-0.2-0.4-0.5-0.6-0.8-0.8c-0.2-0.1-0.4-0.1-0.7-0.1
		c-0.2,0-0.3,0-0.5,0.1c-0.4,0.1-0.7,0.1-1,0.1c-1,0-1.9-0.3-2.7-1c-0.9-0.8-1.4-1.9-1.3-2.9c0-0.1,0-0.2,0-0.3l0,0
		c-0.1,0-0.2,0-0.3,0c-0.1,0-0.3,0-0.4,0c-0.9,0-1.9-0.4-2.7-1.1c-1-0.9-1.4-2.2-1.2-3.6c0-0.3,0.1-0.7-0.2-1.2
		c-0.2-0.3-0.4-0.6-0.8-0.8l-2.3-1.2l2.6-0.6c0.3-0.1,0.5-0.1,0.8-0.1c2.2,0,2.5,2.3,2.7,3.8c0.1,0.6,0.2,1.6,0.4,1.8
		c0.2,0.2,0.5,0.4,0.8,0.4c0.2,0,0.3,0,0.5,0c2.1,0,3,2,3,2.8v0.5c0.1,0.2,0.2,0.4,0.4,0.5c0.2,0.2,1.2,0.2,1.8,0.2
		c1.3,0,2.7,0.1,3.5,1.1c0.4,0.5,0.6,1.2,0.5,2l-0.4,2.6L69.4,43.6z"/>
	<path fill="#4C4134" d="M57.8,31.1c2.2,0,1.2,4.2,2.3,5.3c0.4,0.4,0.9,0.6,1.5,0.6c0.1,0,0.1,0,0.2,0c0.1,0,0.2,0,0.3,0
		c1.6,0,2.1,1.9,1.9,1.9c0,0,0,0,0,0c0,0,0,0.1,0,0.1c0,0.6,0.3,1.2,0.8,1.6c1.3,1.1,5.9-0.5,5.5,2.4c-0.4-0.6-0.9-1-1.3-1.2
		c-0.4-0.1-0.7-0.2-1-0.2c-0.3,0-0.5,0-0.7,0.1c-0.3,0.1-0.6,0.1-0.8,0.1c-0.8,0-1.5-0.3-2-0.7c-0.6-0.5-1-1.3-1-2.2
		c0-0.2,0.1-0.4,0.1-0.6l-0.9-0.8c-0.2,0.1-0.4,0.2-0.6,0.2c-0.1,0-0.2,0-0.3,0c-0.7,0-1.4-0.3-2-0.8c-0.6-0.6-1-1.5-0.9-2.8
		c0.1-0.5,0.1-1.1-0.3-1.8v0c-0.2-0.4-0.6-0.9-1.3-1.2C57.5,31.1,57.6,31.1,57.8,31.1 M57.8,29.1c-0.3,0-0.7,0-1,0.1l-5.1,1.3
		l4.7,2.5c0.1,0.1,0.3,0.2,0.4,0.3l0,0c0.1,0.1,0.1,0.3,0.1,0.6c-0.2,1.7,0.3,3.3,1.5,4.5c0.8,0.8,1.9,1.3,3.1,1.4
		c0.2,1.1,0.7,2.2,1.6,2.9c0.9,0.8,2.1,1.2,3.3,1.2c0.4,0,0.8,0,1.3-0.1c0.1,0,0.2,0,0.3,0c0.1,0,0.2,0,0.3,0
		c0.2,0.1,0.3,0.2,0.4,0.4l2.8,4.5l0.8-5.2c0.2-1.4-0.2-2.3-0.7-2.8c-1.1-1.3-2.9-1.4-4.3-1.4c-0.4,0-0.9,0-1.2-0.1
		c0-0.1,0-0.1,0-0.2c0-0.7-0.3-1.5-0.9-2.2c-0.8-1-1.9-1.6-3.1-1.6c-0.1,0-0.3,0-0.4,0c0,0,0,0,0,0c-0.1-0.3-0.1-0.8-0.2-1.2
		C61.3,32.2,60.9,29.1,57.8,29.1L57.8,29.1z"/>
</g>
<g>
	<path fill-rule="evenodd" clip-rule="evenodd" fill="#A27556" d="M121.4,40.7c-0.3-0.4-0.6-0.6-0.9-0.7c-0.2-0.1-0.3-0.1-0.5-0.1
		c-0.2,0-0.4,0-0.7,0.1c-0.4,0.1-0.9,0.2-1.3,0.2c-0.9,0-1.7-0.3-2.4-0.8c-0.9-0.7-1.5-1.8-1.5-2.8c0-0.1,0-0.2,0-0.3l0,0
		c-0.1,0-0.2,0-0.3,0.1c-0.2,0-0.4,0.1-0.6,0.1c-0.9,0-1.8-0.3-2.5-0.9c-1-0.9-1.5-2.1-1.4-3.5c0-0.3,0-0.8-0.2-1.2
		c-0.2-0.3-0.5-0.5-0.9-0.7l-2.4-1.1l2.5-0.8c0.3-0.1,0.6-0.2,0.9-0.2c2,0,2.5,2.2,2.7,3.6c0.1,0.6,0.3,1.6,0.5,1.7
		c0.2,0.2,0.5,0.3,0.8,0.3c0,0,0.1,0,0.1,0c0.2,0,0.4-0.1,0.6-0.1c2,0,3,1.9,3,2.7v0.4c0.1,0.2,0.2,0.4,0.4,0.6c0,0,0.2,0.1,1.1,0.1
		c0.2,0,0.5,0,0.7,0c0.3,0,0.6,0,0.8,0c1,0,2.1,0.1,2.8,0.9c0.5,0.5,0.6,1.2,0.6,2l-0.2,2.6L121.4,40.7z"/>
	<path fill="#4C4134" d="M109.2,28.9c2.1,0,1.4,4.1,2.6,5.1c0.4,0.3,0.9,0.5,1.4,0.5c0.1,0,0.2,0,0.3,0c0.1,0,0.3,0,0.4,0
		c1.5,0,2.1,1.8,1.9,1.8c0,0,0,0,0,0c0,0,0,0.1,0,0.1c0,0.6,0.4,1.2,0.9,1.5c0.4,0.3,1,0.3,1.7,0.3c0.5,0,1,0,1.6,0
		c1.3,0,2.5,0.2,2.4,1.8c-0.4-0.6-0.9-0.9-1.4-1.1v0c-0.3-0.1-0.6-0.1-0.8-0.1c-0.4,0-0.7,0.1-0.9,0.1c-0.4,0.1-0.7,0.2-1,0.2
		c-0.7,0-1.3-0.2-1.8-0.6c-0.6-0.5-1.1-1.3-1.1-2.1c0-0.2,0-0.4,0.1-0.6l-1-0.8c-0.2,0.1-0.4,0.2-0.6,0.2c-0.1,0-0.3,0-0.4,0
		c-0.7,0-1.3-0.3-1.9-0.7c-0.7-0.6-1.1-1.5-1.1-2.7c0-0.5,0-1.1-0.4-1.7v0c-0.3-0.4-0.7-0.8-1.3-1.1C108.8,29,109,28.9,109.2,28.9
		 M109.2,26.9c-0.4,0-0.8,0.1-1.2,0.2l-5.1,1.6l4.9,2.1c0.3,0.1,0.4,0.2,0.4,0.3l0,0c0.1,0.2,0.1,0.5,0.1,0.6
		c-0.1,1.7,0.5,3.3,1.8,4.4c0.9,0.7,2,1.2,3.1,1.2c0,0,0,0,0,0c0.2,1.1,0.9,2.1,1.8,2.8c0.9,0.7,1.9,1,3,1c0.5,0,1.1-0.1,1.6-0.2
		c0.1,0,0.3-0.1,0.4-0.1c0.1,0,0.1,0,0.2,0l0.1,0c0.1,0.1,0.2,0.2,0.4,0.3l3.1,4.3l0.5-5.3c0.1-1.4-0.4-2.3-0.8-2.7
		c-1.1-1.2-2.8-1.2-3.5-1.2c-0.3,0-0.6,0-0.9,0c-0.2,0-0.5,0-0.7,0c-0.2,0-0.4,0-0.5,0c0,0,0,0,0-0.1c0-0.8-0.5-1.7-0.9-2.2
		c-0.8-1-1.9-1.5-3-1.5c-0.2,0-0.5,0-0.7,0.1c-0.1-0.3-0.2-0.8-0.3-1.2C112.6,29.9,112,26.9,109.2,26.9L109.2,26.9z"/>
</g>
</svg>
