<?xml version="1.0" encoding="utf-8"?>
<!-- Generator: Adobe Illustrator 16.0.0, SVG Export Plug-In . SVG Version: 6.00 Build 0)  -->
<!DOCTYPE svg PUBLIC "-//W3C//DTD SVG 1.1//EN" "http://www.w3.org/Graphics/SVG/1.1/DTD/svg11.dtd">
<svg version="1.1" xmlns="http://www.w3.org/2000/svg" xmlns:xlink="http://www.w3.org/1999/xlink" x="0px" y="0px" width="150px"
	 height="250px" viewBox="0 0 150 250" enable-background="new 0 0 150 250" xml:space="preserve">
<g id="Layer_1" display="none">
	<rect x="-425" y="-375" display="inline" fill="#5AFF89" width="50" height="50"/>
</g>
<g id="Layer_2" display="none">
	
		<image display="inline" overflow="visible" width="1897" height="735" xlink:href="../../../color_palette.png"  transform="matrix(0.4639 0 0 0.4639 -376.5522 104)">
	</image>
</g>
<g id="Layer_3">
	<g>
		
			<rect x="13.6" y="236.4" transform="matrix(-0.866 0.5001 -0.5001 -0.866 147.8562 440.5705)" fill-rule="evenodd" clip-rule="evenodd" fill="#A27556" width="2.6" height="7.4"/>
		<g>
			<path fill="#4C4134" d="M13.8,237.6l2.7,4.7l-0.5,0.3l-2.7-4.7L13.8,237.6 M14.5,234.9l-1.7,1l-0.5,0.3l-1.7,1l1,1.7l2.7,4.7
				l1,1.7l1.7-1l0.5-0.3l1.7-1l-1-1.7l-2.7-4.7L14.5,234.9L14.5,234.9z"/>
		</g>
	</g>
	<g>
		<path fill-rule="evenodd" clip-rule="evenodd" fill="#BBBBBB" d="M13.1,249c-2.6-1.2-3.7-4.1-3.7-6.4l0-0.8l3.7-1.1l0.7,1.2
			l4.1-2.4l2,3.4l-4.1,2.4l0.7,1.2l-2.7,2.7L13.1,249z"/>
		<g>
			<path fill="#484848" d="M17.5,241l1,1.7l-4.1,2.4l0.8,1.4l-1.7,1.6c-2-1-3.1-3.3-3.2-5.5l2.3-0.6l0.8,1.4L17.5,241 M18.3,238.3
				l-1.7,1l-2.4,1.4l-0.6-1l-1.5,0.4l-2.3,0.6l-1.5,0.4l0,1.5c0,3.1,1.7,6,4.3,7.3l1.3,0.6l1-1l1.7-1.6l1.1-1.1l-0.6-1l2.4-1.4
				l1.7-1l-1-1.7l-1-1.7L18.3,238.3L18.3,238.3z"/>
		</g>
	</g>
	<path fill-rule="evenodd" clip-rule="evenodd" fill="#FFFFFF" d="M13.8,247.9l-0.3,0.3c-2-1-3.1-3.3-3.2-5.5l2.3-0.6l0.2,0.4
		l-1.7,0.5C11,244.9,12,247,13.8,247.9z"/>
	<g>
		
			<rect x="63.6" y="236.4" transform="matrix(-0.8667 0.4988 -0.4988 -0.8667 240.8944 415.8253)" fill-rule="evenodd" clip-rule="evenodd" fill="#A27556" width="2.6" height="7.4"/>
		<g>
			<path fill="#4C4134" d="M63.8,237.6l2.7,4.7l-0.5,0.3l-2.7-4.7L63.8,237.6 M64.6,234.9l-1.7,1l-0.6,0.3l-1.7,1l1,1.7l2.7,4.7
				l1,1.7l1.7-1l0.5-0.3l1.7-1l-1-1.7l-2.7-4.7L64.6,234.9L64.6,234.9z"/>
		</g>
	</g>
	<g>
		<path fill-rule="evenodd" clip-rule="evenodd" fill="#BBBBBB" d="M63.1,249c-2.6-1.2-3.7-4.1-3.7-6.4l0-0.8l3.7-1.1l0.7,1.2
			l4.1-2.4l2,3.4l-4.1,2.4l0.7,1.2l-2.7,2.7L63.1,249z"/>
		<g>
			<path fill="#484848" d="M67.5,241l1,1.7l-4.1,2.4l0.8,1.4l-1.7,1.6c-2-1-3.1-3.3-3.2-5.5l2.3-0.6l0.8,1.4L67.5,241 M68.3,238.3
				l-1.7,1l-2.4,1.4l-0.6-1l-1.5,0.4l-2.3,0.6l-1.5,0.4l0,1.5c0,3.1,1.7,6,4.3,7.3l1.3,0.6l1-1l1.7-1.6l1.1-1.1l-0.6-1l2.4-1.4
				l1.7-1l-1-1.7l-1-1.7L68.3,238.3L68.3,238.3z"/>
		</g>
	</g>
	<path fill-rule="evenodd" clip-rule="evenodd" fill="#FFFFFF" d="M63.8,247.9l-0.3,0.3c-2-1-3.1-3.3-3.2-5.5l2.3-0.6l0.2,0.4
		l-1.7,0.5C61,244.9,62,247,63.8,247.9z"/>
	<g>
		
			<rect x="113.6" y="236.4" transform="matrix(-0.8661 0.4999 -0.4999 -0.8661 334.4286 390.6018)" fill-rule="evenodd" clip-rule="evenodd" fill="#A27556" width="2.6" height="7.4"/>
		<g>
			<path fill="#4C4134" d="M113.8,237.6l2.7,4.7l-0.5,0.3l-2.7-4.7L113.8,237.6 M114.6,234.9l-1.7,1l-0.5,0.3l-1.7,1l1,1.7l2.7,4.7
				l1,1.7l1.7-1l0.5-0.3l1.7-1l-1-1.7l-2.7-4.7L114.6,234.9L114.6,234.9z"/>
		</g>
	</g>
	<g>
		<path fill-rule="evenodd" clip-rule="evenodd" fill="#BBBBBB" d="M113.1,249c-2.6-1.2-3.7-4.1-3.7-6.4l0-0.8l3.7-1.1l0.7,1.2
			l4.1-2.4l2,3.4l-4.1,2.4l0.7,1.2l-2.7,2.7L113.1,249z"/>
		<g>
			<path fill="#484848" d="M117.5,241l1,1.7l-4.1,2.4l0.8,1.4l-1.7,1.6c-2-1-3.1-3.3-3.2-5.5l2.3-0.6l0.8,1.4L117.5,241
				 M118.3,238.3l-1.7,1l-2.4,1.4l-0.6-1l-1.5,0.4l-2.3,0.6l-1.5,0.4l0,1.5c0,3.1,1.7,6,4.3,7.3l1.3,0.6l1-1l1.7-1.6l1.1-1.1l-0.6-1
				l2.4-1.4l1.7-1l-1-1.7l-1-1.7L118.3,238.3L118.3,238.3z"/>
		</g>
	</g>
	<path fill-rule="evenodd" clip-rule="evenodd" fill="#FFFFFF" d="M113.8,247.9l-0.3,0.3c-2-1-3.1-3.3-3.2-5.5l2.3-0.6l0.2,0.4
		l-1.7,0.5C111,244.9,112,247,113.8,247.9z"/>
	<g>
		<rect x="27.3" y="137.5" fill-rule="evenodd" clip-rule="evenodd" fill="#A27556" width="7.4" height="2.6"/>
		<g>
			<path fill="#4C4134" d="M33.7,138.5v0.6h-5.4v-0.6H33.7 M35.7,136.5h-2h-5.4h-2v2v0.6v2h2h5.4h2v-2v-0.6V136.5L35.7,136.5z"/>
		</g>
	</g>
	<g>
		<path fill-rule="evenodd" clip-rule="evenodd" fill="#BBBBBB" d="M34.3,145.9c-1.3,0-2.7-0.4-3.8-1l-0.7-0.4l1-3.8h1.4V136h4v4.7
			h1.4l0.9,3.7l-0.6,0.4C36.8,145.5,35.6,145.9,34.3,145.9z"/>
		<g>
			<path fill="#484848" d="M35.1,137v4.7h1.6l0.6,2.3c-0.9,0.6-1.9,0.9-3,0.9c-1.2,0-2.3-0.3-3.3-0.9l0.6-2.3h1.6V137H35.1
				 M37.1,135h-2h-2h-2v2v2.7H30l-0.4,1.5l-0.6,2.3l-0.4,1.5l1.3,0.8c1.3,0.7,2.8,1.1,4.3,1.1c1.5,0,3-0.4,4.1-1.2l1.2-0.8l-0.3-1.4
				l-0.6-2.3l-0.4-1.5h-1.2V137V135L37.1,135z"/>
		</g>
	</g>
	<path fill-rule="evenodd" clip-rule="evenodd" fill="#FFFFFF" d="M37.2,143.6l0.1,0.4c-1.9,1.3-4.5,1.1-6.3,0l0.6-2.3H32l-0.4,1.8
		C33.3,144.5,35.6,144.8,37.2,143.6z"/>
	<path fill-rule="evenodd" clip-rule="evenodd" fill="#484848" d="M119.8,196c-2.2,0.2-3.4-0.3-5.2-1.5c0.3-1.3,0.7-2.7,1-4h1.3
		v-4.7h0.4c0,1.9,0,3.3,1.7,4.6C117.3,192.8,116.7,193.8,119.8,196z"/>
	<path fill-rule="evenodd" clip-rule="evenodd" fill="#BBBBBB" d="M116.6,191.7L116,194c0.7,0.5,1.5,0.8,2.4,0.8
		c-0.3-0.4-0.5-0.8-0.6-1.3c-0.1-0.6,0-1.3,0.3-1.9H116.6L116.6,191.7z M119,190.4c-0.3-0.2-0.6-0.5-0.8-0.8v2.1l0.2-0.3L119,190.4z
		"/>
	<g>
		<rect x="75.8" y="137.6" fill-rule="evenodd" clip-rule="evenodd" fill="#A27556" width="7.4" height="2.6"/>
		<g>
			<path fill="#4C4134" d="M82.2,138.6v0.6h-5.4v-0.6H82.2 M84.2,136.6h-2h-5.4h-2v2v0.6v2h2h5.4h2v-2v-0.6V136.6L84.2,136.6z"/>
		</g>
	</g>
	<g>
		<path fill-rule="evenodd" clip-rule="evenodd" fill="#BBBBBB" d="M82.7,146c-1.3,0-2.7-0.4-3.8-1l-0.7-0.4l1-3.8h1.4v-4.7h4v4.7
			h1.4l0.9,3.7l-0.6,0.4C85.3,145.7,84,146,82.7,146z"/>
		<g>
			<path fill="#484848" d="M83.5,137.1v4.7h1.6l0.6,2.3c-0.9,0.6-1.9,0.9-3,0.9c-1.2,0-2.3-0.3-3.3-0.9l0.6-2.3h1.6v-4.7H83.5
				 M85.5,135.1h-2h-2h-2v2v2.7h-1.2l-0.4,1.5l-0.6,2.3l-0.4,1.5l1.3,0.8c1.3,0.7,2.8,1.1,4.3,1.1c1.5,0,3-0.4,4.1-1.2L88,145
				l-0.3-1.4l-0.6-2.3l-0.4-1.5h-1.1v-2.7V135.1L85.5,135.1z"/>
		</g>
	</g>
	<path fill-rule="evenodd" clip-rule="evenodd" fill="#FFFFFF" d="M85.6,143.8l0.1,0.4c-1.9,1.3-4.5,1.1-6.3,0l0.6-2.3h0.5l-0.4,1.8
		C81.7,144.7,84,144.9,85.6,143.8z"/>
	<g>
		<path fill-rule="evenodd" clip-rule="evenodd" fill="#BBBBBB" d="M66.1,196c-1.3,0-2.6-0.4-3.6-1.1l-0.6-0.4l0.9-3.7h1.4v-4.7h4
			v4.7h1.4l1,3.8l-0.7,0.4C68.8,195.7,67.5,196,66.1,196z"/>
		<g>
			<path fill="#484848" d="M67.3,187.1v4.7h1.6l0.6,2.3c-1,0.6-2.1,0.9-3.3,0.9c-1.1,0-2.1-0.3-3-0.9l0.6-2.3h1.6v-4.7H67.3
				 M69.3,185.1h-2h-2h-2v2v2.7h-1.2l-0.4,1.5l-0.6,2.3l-0.3,1.4l1.2,0.8c1.2,0.8,2.6,1.2,4.1,1.2c1.5,0,3-0.4,4.3-1.1l1.3-0.8
				l-0.4-1.5l-0.6-2.3l-0.4-1.5h-1.2v-2.7V185.1L69.3,185.1z"/>
		</g>
	</g>
	<path fill-rule="evenodd" clip-rule="evenodd" fill="#FFFFFF" d="M63.2,193.8l-0.1,0.4c1.9,1.3,4.5,1.1,6.3,0l-0.6-2.3h-0.5
		l0.4,1.8C67.2,194.7,64.8,194.9,63.2,193.8z"/>
	<g>
		<rect x="124" y="137.7" fill-rule="evenodd" clip-rule="evenodd" fill="#A27556" width="7.4" height="2.6"/>
		<g>
			<path fill="#4C4134" d="M130.4,138.7v0.6H125v-0.6H130.4 M132.4,136.7h-2H125h-2v2v0.6v2h2h5.4h2v-2v-0.6V136.7L132.4,136.7z"/>
		</g>
	</g>
	<g>
		<path fill-rule="evenodd" clip-rule="evenodd" fill="#BBBBBB" d="M131,146.1c-1.3,0-2.7-0.4-3.8-1l-0.7-0.4l1-3.8h1.4v-4.7h4v4.7
			h1.4l0.9,3.7l-0.6,0.4C133.5,145.7,132.3,146.1,131,146.1z"/>
		<g>
			<path fill="#484848" d="M131.8,137.2v4.7h1.6l0.6,2.3c-0.9,0.6-1.9,0.9-3,0.9c-1.2,0-2.3-0.3-3.3-0.9l0.6-2.3h1.6v-4.7H131.8
				 M133.8,135.2h-2h-2h-2v2v2.7h-1.2l-0.4,1.5l-0.6,2.3l-0.4,1.5l1.3,0.8c1.3,0.7,2.8,1.1,4.3,1.1c1.5,0,3-0.4,4.1-1.2l1.2-0.8
				l-0.3-1.4l-0.6-2.3l-0.4-1.5h-1.1v-2.7V135.2L133.8,135.2z"/>
		</g>
	</g>
	<path fill-rule="evenodd" clip-rule="evenodd" fill="#FFFFFF" d="M133.9,143.9l0.1,0.4c-1.9,1.3-4.5,1.1-6.3,0l0.6-2.3h0.5
		l-0.4,1.8C129.9,144.8,132.3,145,133.9,143.9z"/>
	<path fill-rule="evenodd" clip-rule="evenodd" fill="#4C4134" d="M12.4,187.2h1.5h3.5c0.1,1.6,1,3,2.5,3.6h-6h-1.5
		C12.4,189.6,12.4,188.4,12.4,187.2z"/>
	<path fill-rule="evenodd" clip-rule="evenodd" fill="#A27556" d="M13.9,188.7v0.6h4.2c-0.1-0.2-0.3-0.4-0.4-0.6H13.9z"/>
	<g>
		<path fill-rule="evenodd" clip-rule="evenodd" fill="#BBBBBB" d="M13.3,196.1c-1.3,0-2.6-0.4-3.6-1.1l-0.6-0.4l0.9-3.7h1.4v-4.7h4
			v4.7h1.4l1,3.8l-0.7,0.4C16,195.7,14.6,196.1,13.3,196.1z"/>
		<g>
			<path fill="#484848" d="M14.5,187.2v4.7h1.6l0.6,2.3c-1,0.6-2.1,0.9-3.3,0.9c-1.1,0-2.1-0.3-3-0.9l0.6-2.3h1.6v-4.7H14.5
				 M16.5,185.2h-2h-2h-2v2v2.7H9.3L9,191.5l-0.6,2.3L8,195.1l1.2,0.8c1.2,0.8,2.6,1.2,4.1,1.2c1.5,0,3-0.4,4.3-1.1l1.3-0.8
				l-0.4-1.5l-0.6-2.3l-0.4-1.5h-1.2v-2.7V185.2L16.5,185.2z"/>
		</g>
	</g>
	<path fill-rule="evenodd" clip-rule="evenodd" fill="#FFFFFF" d="M10.4,193.9l-0.1,0.4c1.9,1.3,4.5,1.1,6.3,0l-0.6-2.3h-0.5
		l0.4,1.8C14.4,194.8,12,195,10.4,193.9z"/>
	<g>
		<rect x="13.5" y="37" fill-rule="evenodd" clip-rule="evenodd" fill="#A27556" width="7.4" height="2.6"/>
		<g>
			<path fill="#4C4134" d="M19.9,38v0.6h-5.4V38H19.9 M21.9,36h-2h-5.4h-2v2v0.6v2h2h5.4h2v-2V38V36L21.9,36z"/>
		</g>
	</g>
	<g>
		<path fill-rule="evenodd" clip-rule="evenodd" fill="#BBBBBB" d="M20.4,45.4c-1.3,0-2.7-0.4-3.8-1L16,44l1-3.8h1.4v-4.7h4v4.7h1.4
			l0.9,3.7L24,44.4C23,45,21.8,45.4,20.4,45.4z"/>
		<g>
			<path fill="#484848" d="M21.3,36.5v4.7h1.6l0.6,2.3c-0.9,0.6-1.9,0.9-3,0.9c-1.2,0-2.3-0.3-3.3-0.9l0.6-2.3h1.6v-4.7H21.3
				 M23.3,34.5h-2h-2h-2v2v2.7h-1.2l-0.4,1.5L15.2,43l-0.4,1.5l1.3,0.8c1.3,0.7,2.8,1.1,4.3,1.1c1.5,0,3-0.4,4.1-1.2l1.2-0.8
				L25.4,43l-0.6-2.3l-0.4-1.5h-1.2v-2.7V34.5L23.3,34.5z"/>
		</g>
	</g>
	<path fill-rule="evenodd" clip-rule="evenodd" fill="#FFFFFF" d="M23.4,43.2l0.1,0.4c-1.9,1.3-4.5,1.1-6.3,0l0.6-2.3h0.5L17.8,43
		C19.4,44.1,21.7,44.3,23.4,43.2z"/>
	<g>
		<polygon fill-rule="evenodd" clip-rule="evenodd" fill="#A27556" points="62.8,39.2 63.9,36.8 70.6,39.9 69.5,42.3 		"/>
		<g>
			<path fill="#4C4134" d="M64.4,38.1l4.9,2.3L69,41l-4.9-2.3L64.4,38.1 M63.4,35.5l-0.8,1.8l-0.3,0.6l-0.8,1.8l1.8,0.8l4.9,2.3
				l1.8,0.8l0.8-1.8l0.3-0.6l0.8-1.8l-1.8-0.8l-4.9-2.3L63.4,35.5L63.4,35.5z"/>
		</g>
	</g>
	<g>
		<path fill-rule="evenodd" clip-rule="evenodd" fill="#BBBBBB" d="M69.4,48c-2.2,0-4.4-1.2-5.8-3.2l-0.4-0.6l2.5-3l1.2,0.6l2-4.3
			l3.6,1.7l-2,4.3l1.2,0.6L71,47.8l-0.7,0.1C70,47.9,69.7,48,69.4,48z"/>
		<g>
			<path fill="#484848" d="M69.4,38.8l1.8,0.8l-2,4.3l1.4,0.7l-0.4,2.3c-0.3,0-0.5,0.1-0.8,0.1c-2,0-3.9-1.2-5-2.7l1.5-1.8l1.4,0.7
				L69.4,38.8 M68.4,36.1l-0.8,1.8l-1.2,2.5l-1-0.5l-1,1.2L62.9,43l-1,1.2l0.9,1.2c1.6,2.2,4.1,3.6,6.6,3.6c0.4,0,0.7,0,1.1-0.1
				l1.4-0.2l0.3-1.4l0.4-2.3l0.3-1.5l-1-0.5l1.2-2.5l0.8-1.8L72,37.8L70.3,37L68.4,36.1L68.4,36.1z"/>
		</g>
	</g>
	<path fill-rule="evenodd" clip-rule="evenodd" fill="#FFFFFF" d="M70.3,46.5l-0.1,0.4c-2.2,0.4-4.5-0.9-5.7-2.7l1.5-1.8l0.4,0.2
		L65.3,44C66.3,45.7,68.3,46.9,70.3,46.5z"/>
	<g>
		
			<rect x="114.5" y="33.5" transform="matrix(-0.8657 0.5005 -0.5005 -0.8657 234.6651 11.4195)" fill-rule="evenodd" clip-rule="evenodd" fill="#A27556" width="2.6" height="7.4"/>
		<g>
			<path fill="#4C4134" d="M114.7,34.7l2.7,4.7l-0.5,0.3l-2.7-4.7L114.7,34.7 M115.5,32l-1.7,1l-0.5,0.3l-1.7,1l1,1.7l2.7,4.7l1,1.7
				l1.7-1l0.5-0.3l1.7-1l-1-1.7l-2.7-4.7L115.5,32L115.5,32z"/>
		</g>
	</g>
	<g>
		<path fill-rule="evenodd" clip-rule="evenodd" fill="#BBBBBB" d="M114,46.1c-2.6-1.2-3.7-4.1-3.7-6.4l0-0.8l3.8-1.1l0.7,1.2
			l4.1-2.4l2,3.4l-4.1,2.4l0.7,1.2l-2.7,2.7L114,46.1z"/>
		<g>
			<path fill="#484848" d="M118.5,38.1l1,1.7l-4.1,2.4l0.8,1.4l-1.7,1.6c-2-1-3.2-3.3-3.2-5.5l2.3-0.6l0.8,1.4L118.5,38.1
				 M119.2,35.4l-1.7,1l-2.4,1.4l-0.6-1l-1.5,0.4l-2.3,0.6l-1.5,0.4l0,1.5c0,3.1,1.7,6,4.3,7.3l1.3,0.6l1-1l1.7-1.6l1.1-1.1l-0.6-1
				l2.4-1.4l1.7-1l-1-1.7l-1-1.7L119.2,35.4L119.2,35.4z"/>
		</g>
	</g>
	<path fill-rule="evenodd" clip-rule="evenodd" fill="#FFFFFF" d="M114.7,44.9l-0.3,0.3c-2-1-3.2-3.3-3.2-5.5l2.3-0.6l0.2,0.4
		l-1.7,0.5C112,42,112.9,44.1,114.7,44.9z"/>
</g>
</svg>
