<svg version="1.1" id="Layer_3" xmlns="http://www.w3.org/2000/svg" x="0" y="0" width="150" height="250" viewBox="0 0 150 250" xml:space="preserve"><path fill-rule="evenodd" clip-rule="evenodd" fill="#CCC" d="M67 187.5h-5.3l1.6 2.6h4.9l-.1-.1c-.5-.6-1-1.5-1.1-2.5z"/><path fill-rule="evenodd" clip-rule="evenodd" fill="#484848" d="M67 186.1c0 2.7.9 5.4 4.2 5.4h.2v.3h-8.9c-1.1-1.9-2.3-3.8-3.4-5.6H67z"/><path fill-rule="evenodd" clip-rule="evenodd" fill="#BBB" d="M68.2 190.1c-.2-.2-.3-.4-.4-.5-.1-.2-.2-.3-.3-.5 0-.1-.1-.1-.1-.2-.1-.1-.1-.3-.2-.5 0-.1 0-.1-.1-.2-.1-.2-.1-.4-.1-.7h-5.3l1.6 2.6h4.9z"/><path fill-rule="evenodd" clip-rule="evenodd" fill="#484848" d="M17 185.6c0 2.1 0 3.7 1.8 5l-.4.6h-7.6l-3.4-5.6H17z"/><path fill-rule="evenodd" clip-rule="evenodd" fill="#CCC" d="M17 187.2h-7l1.6 2.6H18c-.6-.8-1-1.7-1-2.6z"/><path fill-rule="evenodd" clip-rule="evenodd" fill="#BBB" d="M17.9 189.7l-.1-.1c-.3-.5-.6-1.1-.7-1.7 0-.2-.1-.4-.1-.6h-7l1.6 2.6 6.3-.2z"/><path fill-rule="evenodd" clip-rule="evenodd" fill="#484848" d="M117 186v1.1c0 1.2.5 2.2 1.2 3l.6.6c-.2.3-.5.6-.7 1h-3.5c-1.1-1.9-2.3-3.7-3.4-5.6h5.8z"/><path fill-rule="evenodd" clip-rule="evenodd" fill="#BBB" d="M118.2 190.1c-.3-.3-.5-.7-.7-1.1-.1-.2-.1-.3-.2-.5 0-.1-.1-.2-.1-.2-.1-.3-.1-.5-.1-.8H114l1.6 2.6h2.6z"/><g><rect x="60.8" y="35.4" transform="rotate(114.986 64.623 36.995)" fill-rule="evenodd" clip-rule="evenodd" fill="#A27556" width="7.7" height="3.1"/><path fill="#4C4134" d="M65.3 34.2l1 .5-2.4 5.2-1-.5 2.4-5.2m-.9-2.7l-.8 1.8-2.4 5.2-.8 1.8 1.8.8 1 .5 1.8.8.8-1.8 2.4-5.2.8-1.8-1.8-.8-1-.5-1.8-.8z"/></g><g><polygon fill-rule="evenodd" clip-rule="evenodd" fill="#BBB" points="65,39.7 67,35.5 77.6,40.5 73.1,43.5 	"/><path fill="#4C4C4C" d="M67.4 36.9l8.2 3.8-2.6 1.7-6.7-3.1 1.1-2.4m-.9-2.7l-.9 1.8-1.1 2.4-.8 1.8 1.8.8 6.7 3.1 1 .5.9-.6 2.6-1.7 3-2-3.2-1.5-8.2-3.8-1.8-.8z"/></g><g><rect x="60.3" y="236.9" transform="rotate(150.025 64.163 238.505)" fill-rule="evenodd" clip-rule="evenodd" fill="#A27556" width="7.7" height="3.1"/><path fill="#4C4134" d="M66.4 236.6l.5.9-5 2.9-.5-.9 5-2.9m.7-2.7l-1.7 1-5 2.9-1.7 1 1 1.7.5.9 1 1.7 1.7-1 5-2.9 1.7-1-1-1.7-.5-.9-1-1.7z"/></g><g><polygon fill-rule="evenodd" clip-rule="evenodd" fill="#BBB" points="67.4,248.7 62.9,240.9 66.9,238.6 72.8,248.8 	"/><path fill="#4C4C4C" d="M66.5 240l4.5 7.8-3.1-.1-3.7-6.4 2.3-1.3m.8-2.7l-1.7 1-2.3 1.3-1.7 1 1 1.7 3.7 6.4.6 1H68l3.1.1 3.6.1-1.8-3.1-4.5-7.8-1.1-1.7z"/></g><g><rect x="10.3" y="236.9" transform="rotate(150.012 14.163 238.503)" fill-rule="evenodd" clip-rule="evenodd" fill="#A27556" width="7.7" height="3.1"/><path fill="#4C4134" d="M16.4 236.6l.5.9-5 2.9-.5-.9 5-2.9m.7-2.7l-1.7 1-5 2.9-1.7 1 1 1.7.5.9 1 1.7 1.7-1 5-2.9 1.7-1-1-1.7-.5-.9-1-1.7z"/></g><g><polygon fill-rule="evenodd" clip-rule="evenodd" fill="#BBB" points="17.4,248.7 12.9,240.9 16.9,238.6 22.8,248.8 	"/><path fill="#4C4C4C" d="M16.5 240l4.5 7.8-3.1-.1-3.7-6.4 2.3-1.3m.8-2.7l-1.7 1-2.3 1.3-1.7 1 1 1.7 3.7 6.4.6 1H18l3.1.1 3.6.1-1.8-3.1-4.5-7.8-1.1-1.7z"/></g><g><polygon fill-rule="evenodd" clip-rule="evenodd" fill="#A27556" points="110,239.1 116.7,235.2 118.3,237.9 111.6,241.8 	"/><path fill="#4C4134" d="M116.4 236.6l.5.9-5 2.9-.5-.9 5-2.9m.7-2.7l-1.7 1-4.9 2.9-1.7 1 1 1.7.5.9 1 1.7 1.7-1 5-2.9 1.7-1-1-1.7-.5-.9-1.1-1.7z"/></g><g><polygon fill-rule="evenodd" clip-rule="evenodd" fill="#BBB" points="117.4,248.7 112.9,240.9 116.9,238.6 122.8,248.8 	"/><path fill="#4C4C4C" d="M116.5 240l4.5 7.8-3.1-.1-3.7-6.4 2.3-1.3m.8-2.7l-1.7 1-2.3 1.3-1.7 1 1 1.7 3.7 6.4.6 1h1.1l3.1.1 3.6.1-1.8-3.1-4.5-7.8-1.1-1.7z"/></g><g><rect x="13.2" y="32.8" fill-rule="evenodd" clip-rule="evenodd" fill="#A27556" width="3.1" height="7.7"/><path fill="#4C4134" d="M15.3 33.8v5.7h-1.1v-5.7h1.1m2-2h-5.1v9.7h5.1v-9.7z"/></g><g><polygon fill-rule="evenodd" clip-rule="evenodd" fill="#BBB" points="16.3,39 16.3,34.3 28.1,34.3 25.2,39 	"/><path fill="#4C4C4C" d="M26.3 35.3L24.7 38h-7.4v-2.6h9m3.5-2.1H15.2V40h10.5l.6-1 1.6-2.6 1.9-3.1z"/></g><g><polygon fill-rule="evenodd" clip-rule="evenodd" fill="#A27556" points="111,35.3 117.7,31.5 119.2,34.1 112.5,38 	"/><path fill="#4C4134" d="M117.3 32.8l.5.9-4.9 2.9-.5-.9 4.9-2.9m.7-2.7l-1.7 1-5 2.9-1.7 1 1 1.7.5.9 1 1.7 1.7-1 4.9-2.9 1.7-1-1-1.7-.5-.9-.9-1.7z"/></g><g><polygon fill-rule="evenodd" clip-rule="evenodd" fill="#BBB" points="118.3,45 113.8,37.2 117.8,34.9 123.7,45.1 	"/><path fill="#4C4C4C" d="M117.5 36.2L122 44l-3.1-.1-3.7-6.4 2.3-1.3m.7-2.7l-1.7 1-2.3 1.3-1.7 1 1 1.7 3.7 6.4.6 1h1.1l3.1.1 3.6.1-1.8-3.1-4.5-7.8-1.1-1.7z"/></g><g><rect x="75.2" y="135" fill-rule="evenodd" clip-rule="evenodd" fill="#A27556" width="3.1" height="7.7"/><path fill="#4C4134" d="M77.3 136v5.7h-1.1V136h1.1m2-2h-5.1v9.7h5.1V134z"/></g><g><polygon fill-rule="evenodd" clip-rule="evenodd" fill="#BBB" points="78.2,141.2 78.2,136.6 90,136.6 87.2,141.2 	"/><path fill="#4C4C4C" d="M88.3 137.6l-1.6 2.6h-7.4v-2.6h9m3.5-2H77.2v6.6h10.5l.6-1 1.6-2.6 1.9-3z"/></g><g><rect x="27" y="134.6" fill-rule="evenodd" clip-rule="evenodd" fill="#A27556" width="3.1" height="7.7"/><path fill="#4C4134" d="M29.1 135.6v5.7H28v-5.7h1.1m2-2H26v9.7h5.1v-9.7z"/></g><g><polygon fill-rule="evenodd" clip-rule="evenodd" fill="#BBB" points="30,140.8 30,136.2 41.8,136.2 39,140.8 	"/><path fill="#4C4C4C" d="M40 137.2l-1.6 2.6H31v-2.6h9m3.6-2H29v6.6h10.5l.6-1 1.6-2.6 1.9-3z"/></g><g><rect x="123" y="134.9" fill-rule="evenodd" clip-rule="evenodd" fill="#A27556" width="3.1" height="7.7"/><path fill="#4C4134" d="M125.1 135.9v5.7H124v-5.7h1.1m2-2H122v9.7h5.1v-9.7z"/></g><g><polygon fill-rule="evenodd" clip-rule="evenodd" fill="#BBB" points="126,141.1 126,136.5 137.8,136.5 135,141.1 	"/><path fill="#4C4C4C" d="M136.1 137.5l-1.6 2.6H127v-2.6h9.1m3.5-2H125v6.6h10.5l.6-1 1.6-2.6 1.9-3z"/></g></svg>