<svg version="1.1" id="Layer_3" xmlns="http://www.w3.org/2000/svg" x="0" y="0" width="150" height="250" viewBox="0 0 150 250" xml:space="preserve"><path fill-rule="evenodd" clip-rule="evenodd" d="M72.9 194.4c-5.5.2-9.7 1.3-9.7 2.8 0 1.5 5.3 2.8 11.9 2.8s11.9-1.3 11.9-2.8-4.2-2.5-9.7-2.8v.3c0 .8-.6 1.4-1.4 1.4h-1.6c-.8 0-1.4-.6-1.4-1.4v-.3z"/><path fill-rule="evenodd" clip-rule="evenodd" d="M122.9 194.4c-5.5.2-9.7 1.3-9.7 2.8 0 1.5 5.3 2.8 11.9 2.8s11.9-1.3 11.9-2.8-4.2-2.5-9.7-2.8v.3c0 .8-.6 1.4-1.4 1.4h-1.6c-.8 0-1.4-.6-1.4-1.4v-.3z"/><path fill-rule="evenodd" clip-rule="evenodd" d="M22.9 194.4c-5.5.2-9.7 1.3-9.7 2.8 0 1.5 5.3 2.8 11.9 2.8 6.6 0 11.9-1.3 11.9-2.8s-4.2-2.5-9.7-2.8v.3c0 .8-.6 1.4-1.4 1.4h-1.6c-.8 0-1.4-.6-1.4-1.4v-.3z"/><path fill-rule="evenodd" clip-rule="evenodd" fill="#FFF" d="M36.3 120.7c1.5.7 2.5 1.9 2.1 2.6-.3.6-1.5.7-2.8.2-.2 3.1-4.3 5.7-9.6 6 5.3-.3 8.5-3 7.3-6.2-.3-.8-.9-1.6-1.6-2.3.5-1.9.4-4.1-.5-6.5-1.8-4.8-6.2-9-11.1-10.9 1.5-.7 3.1-1 4.8-1 6.6 0 11.9 5.3 11.9 11.9 0 2.1-.6 4.1-1.5 5.8.3.1.7.2 1 .4z"/><path fill-rule="evenodd" clip-rule="evenodd" d="M34.8 125.7c-1.6 2.2-5.4 3.8-9.9 3.8-9.9 0-11.9-6.6-11.9-15.1 0-4.4 2.4-8.3 6-10.3-1.9 2.1-3.1 4.9-3.1 8 .1 11.8 7.5 19.3 18.9 13.6z"/><path fill-rule="evenodd" clip-rule="evenodd" fill="#FFF" d="M86.3 120.7c1.5.7 2.4 1.9 2.1 2.6-.3.6-1.5.7-2.8.2-.2 3.1-4.3 5.7-9.6 6 5.3-.3 8.5-3 7.3-6.2-.3-.8-.9-1.6-1.6-2.3.5-1.9.4-4.1-.5-6.5-1.8-4.8-6.2-9-11.1-10.9 1.5-.7 3.1-1 4.8-1 6.6 0 11.9 5.3 11.9 11.9 0 2.1-.6 4.1-1.5 5.8.3.1.7.2 1 .4z"/><path fill-rule="evenodd" clip-rule="evenodd" d="M84.8 125.7c-1.6 2.2-5.4 3.8-9.9 3.8-9.9 0-11.9-6.6-11.9-15.1 0-4.4 2.4-8.3 6-10.3-1.9 2.1-3.1 4.9-3.1 8 .1 11.8 7.5 19.3 18.9 13.6z"/><path fill-rule="evenodd" clip-rule="evenodd" fill="#FFF" d="M136.3 120.7c1.5.7 2.4 1.9 2.1 2.6-.3.6-1.5.7-2.8.2-.2 3.1-4.3 5.7-9.6 6 5.3-.3 8.5-3 7.3-6.2-.3-.8-.9-1.6-1.6-2.3.5-1.9.4-4.1-.5-6.5-1.8-4.8-6.2-9-11.1-10.9 1.5-.7 3.1-1 4.8-1 6.6 0 11.9 5.3 11.9 11.9 0 2.1-.6 4.1-1.5 5.8.3.1.7.2 1 .4z"/><path fill-rule="evenodd" clip-rule="evenodd" d="M134.8 125.7c-1.6 2.2-5.4 3.8-9.9 3.8-9.9 0-11.9-6.6-11.9-15.1 0-4.4 2.4-8.3 6-10.3-1.9 2.1-3.1 4.9-3.1 8 .1 11.8 7.5 19.3 18.9 13.6z"/><path fill-rule="evenodd" clip-rule="evenodd" fill="#FFF" d="M25.1 152.6c-2 0-3.8.5-5.4 1.3 11 1.2 16.3 13.8 13.1 23.5 3.4-2.6 4.2-7.4 4.2-12.9 0-4.8-2.9-9-7.1-10.9h-5.5.7v-1z"/><path fill-rule="evenodd" clip-rule="evenodd" fill="#FFF" d="M75.1 152.6c-2 0-3.8.5-5.4 1.3 11 1.2 16.3 13.8 13.1 23.5 3.4-2.6 4.2-7.4 4.2-12.9 0-4.8-2.9-9-7.1-10.9h-5.4.6v-1z"/><path fill-rule="evenodd" clip-rule="evenodd" fill="#FFF" d="M125.1 152.6c-2 0-3.8.5-5.4 1.3 11 1.2 16.3 13.8 13.1 23.5 3.4-2.6 4.2-7.4 4.2-12.9 0-4.8-2.9-9-7.1-10.9h-5.4.6v-1z"/><path fill-rule="evenodd" clip-rule="evenodd" d="M16 156.8c-3.2 3.8-3.6 9-1.4 13.2v.2c-.3.1-.7.2-1.1.4-1.5.7-2.5 1.9-2.1 2.6.3.6 1.5.7 2.8.2.5 7.1 17.5 8.8 20.9.7-10.9 9.3-22.4-5.2-19.1-17.3z"/><path fill-rule="evenodd" clip-rule="evenodd" d="M66 156.8c-3.2 3.8-3.6 9-1.4 13.2v.2c-.4.1-.7.2-1.1.4-1.5.7-2.5 1.9-2.1 2.6.3.6 1.5.7 2.8.2.5 7.1 17.5 8.8 20.9.7-10.9 9.3-22.4-5.2-19.1-17.3z"/><path fill-rule="evenodd" clip-rule="evenodd" d="M116 156.8c-3.2 3.8-3.6 9-1.4 13.2v.2c-.4.1-.7.2-1.1.4-1.5.7-2.4 1.9-2.1 2.6.3.6 1.5.7 2.8.2.5 7.1 17.5 8.8 20.9.7-10.9 9.3-22.4-5.2-19.1-17.3z"/><path fill-rule="evenodd" clip-rule="evenodd" fill="#FFF" d="M30.7 112.4h1.8c.9 0 1.7.7 1.7 1.7v6.2c0 .9-.7 1.7-1.7 1.7h-1.8c-.9 0-1.7-.7-1.7-1.7v-6.2c0-.9.8-1.7 1.7-1.7z"/><path fill-rule="evenodd" clip-rule="evenodd" fill="#FFF" d="M80.7 112.4h1.8c.9 0 1.7.7 1.7 1.7v6.2c0 .9-.7 1.7-1.7 1.7h-1.8c-.9 0-1.7-.7-1.7-1.7v-6.2c0-.9.8-1.7 1.7-1.7z"/><path fill-rule="evenodd" clip-rule="evenodd" fill="#FFF" d="M130.7 112.4h1.8c.9 0 1.7.7 1.7 1.7v6.2c0 .9-.7 1.7-1.7 1.7h-1.8c-.9 0-1.7-.7-1.7-1.7v-6.2c0-.9.8-1.7 1.7-1.7z"/><path fill-rule="evenodd" clip-rule="evenodd" fill="#FFF" d="M34.8 20.9c3.6 5.2-4.8 8.3-8.8 8.5 5.1-.3 10.6-3.8 5.7-8.5 2.1-7.2-1.6-17.1-11.6-17.4C30.8-1.2 41.4 11 34.8 20.9z"/><path fill-rule="evenodd" clip-rule="evenodd" fill="#FFF" d="M34.8 70.9c3.6 5.2-4.8 8.3-8.8 8.5 5.1-.3 10.6-3.8 5.7-8.5 2.1-7.2-1.6-17.1-11.6-17.4 10.7-4.7 21.3 7.5 14.7 17.4z"/><path fill-rule="evenodd" clip-rule="evenodd" fill="#FFF" d="M34.8 220.9c3.6 5.2-4.8 8.3-8.8 8.5 5.1-.3 10.6-3.8 5.7-8.5 2.1-7.2-1.6-17.1-11.6-17.4 10.7-4.7 21.3 7.5 14.7 17.4z"/><path fill-rule="evenodd" clip-rule="evenodd" fill="#FFF" d="M84.8 20.9c3.6 5.2-4.8 8.3-8.8 8.5 5.1-.3 10.6-3.8 5.7-8.5 2.1-7.2-1.6-17.1-11.6-17.4C80.8-1.2 91.4 11 84.8 20.9z"/><path fill-rule="evenodd" clip-rule="evenodd" fill="#FFF" d="M84.8 70.9c3.6 5.2-4.8 8.3-8.8 8.5 5.1-.3 10.6-3.8 5.7-8.5 2.1-7.2-1.6-17.1-11.6-17.4 10.7-4.7 21.3 7.5 14.7 17.4z"/><path fill-rule="evenodd" clip-rule="evenodd" fill="#FFF" d="M84.8 220.9c3.6 5.2-4.8 8.3-8.8 8.5 5.1-.3 10.6-3.8 5.7-8.5 2.1-7.2-1.6-17.1-11.6-17.4 10.7-4.7 21.3 7.5 14.7 17.4z"/><path fill-rule="evenodd" clip-rule="evenodd" fill="#FFF" d="M134.8 20.9c3.6 5.2-4.8 8.3-8.8 8.5 5.1-.3 10.6-3.8 5.7-8.5 2.1-7.2-1.6-17.1-11.6-17.4 10.7-4.7 21.3 7.5 14.7 17.4z"/><path fill-rule="evenodd" clip-rule="evenodd" fill="#FFF" d="M134.8 70.9c3.6 5.2-4.8 8.3-8.8 8.5 5.1-.3 10.6-3.8 5.7-8.5 2.1-7.2-1.6-17.1-11.6-17.4 10.7-4.7 21.3 7.5 14.7 17.4z"/><path fill-rule="evenodd" clip-rule="evenodd" fill="#FFF" d="M134.8 220.9c3.6 5.2-4.8 8.3-8.8 8.5 5.1-.3 10.6-3.8 5.7-8.5 2.1-7.2-1.6-17.1-11.6-17.4 10.7-4.7 21.3 7.5 14.7 17.4z"/><path fill-rule="evenodd" clip-rule="evenodd" d="M33.9 26.7c-5.9 6-23.8 2-18.8-5.8-4-6.1-1.8-14.5 5.3-17.4-4.8 3.8-5.8 10.7-2.5 15.8-5.2 7.3 10.1 9.8 16 7.4z"/><path fill-rule="evenodd" clip-rule="evenodd" d="M33.9 76.7c-5.9 6-23.8 2-18.8-5.7-4-6.1-1.8-14.5 5.3-17.4-4.8 3.8-5.8 10.7-2.5 15.8-5.2 7.2 10.1 9.7 16 7.3z"/><path fill-rule="evenodd" clip-rule="evenodd" d="M33.9 226.7c-5.9 6-23.8 2-18.8-5.7-4-6.1-1.8-14.5 5.3-17.4-4.8 3.8-5.8 10.7-2.5 15.8-5.2 7.2 10.1 9.7 16 7.3z"/><path fill-rule="evenodd" clip-rule="evenodd" d="M83.9 26.7c-5.9 6-23.8 2-18.8-5.8-4-6.1-1.8-14.5 5.3-17.4-4.8 3.8-5.8 10.7-2.5 15.8-5.2 7.3 10.1 9.8 16 7.4z"/><path fill-rule="evenodd" clip-rule="evenodd" d="M83.9 76.7c-5.9 6-23.8 2-18.8-5.7-4-6.1-1.8-14.5 5.3-17.4-4.8 3.8-5.8 10.7-2.5 15.8-5.2 7.2 10.1 9.7 16 7.3z"/><path fill-rule="evenodd" clip-rule="evenodd" d="M83.9 226.7c-5.9 6-23.8 2-18.8-5.7-4-6.1-1.8-14.5 5.3-17.4-4.8 3.8-5.8 10.7-2.5 15.8-5.2 7.2 10.1 9.7 16 7.3z"/><path fill-rule="evenodd" clip-rule="evenodd" d="M133.9 26.7c-5.9 6-23.8 2-18.8-5.8-4-6.1-1.8-14.5 5.3-17.4-4.8 3.8-5.8 10.7-2.5 15.8-5.2 7.3 10.1 9.8 16 7.4z"/><path fill-rule="evenodd" clip-rule="evenodd" d="M133.9 76.7c-5.9 6-23.8 2-18.8-5.7-4-6.1-1.8-14.5 5.3-17.4-4.8 3.8-5.8 10.7-2.5 15.8-5.2 7.2 10.1 9.7 16 7.3z"/><path fill-rule="evenodd" clip-rule="evenodd" d="M133.9 226.7c-5.9 6-23.8 2-18.8-5.7-4-6.1-1.8-14.5 5.3-17.4-4.8 3.8-5.8 10.7-2.5 15.8-5.2 7.2 10.1 9.7 16 7.3z"/><path fill-rule="evenodd" clip-rule="evenodd" d="M32.5 245c2.6.5 4.3 1.1 4.3 2.2 0 1.3-5.3 2.8-11.9 2.8-6.6 0-11.9-1.5-11.9-2.8 0-1.1 1.7-1.7 4.3-2.2v.8c0 .9.4 1.8 1 2.4.6.6 1.5 1 2.4 1h1.6c.9 0 1.8-.4 2.4-1l.2-.2.2.2c.6.6 1.5 1 2.4 1h1.6c.9 0 1.8-.4 2.4-1 .6-.6 1-1.5 1-2.4v-.8z"/><path fill-rule="evenodd" clip-rule="evenodd" d="M82.5 245c2.6.5 4.3 1.1 4.3 2.2 0 1.3-5.3 2.8-11.9 2.8S63 248.5 63 247.2c0-1.1 1.7-1.7 4.3-2.2v.8c0 .9.4 1.8 1 2.4.6.6 1.5 1 2.4 1h1.6c.9 0 1.8-.4 2.4-1l.2-.2.2.2c.6.6 1.5 1 2.4 1h1.6c.9 0 1.8-.4 2.4-1 .6-.6 1-1.5 1-2.4v-.8z"/><path fill-rule="evenodd" clip-rule="evenodd" d="M82.5 45c2.6.5 4.3 1.1 4.3 2.2 0 1.3-5.3 2.8-11.9 2.8S63 48.5 63 47.2c0-1.1 1.7-1.7 4.3-2.2v.8c0 .9.4 1.8 1 2.4.6.6 1.5 1 2.4 1h1.6c.9 0 1.8-.4 2.4-1l.2-.2.2.2c.6.6 1.5 1 2.4 1h1.6c.9 0 1.8-.4 2.4-1 .6-.6 1-1.5 1-2.4V45z"/><path fill-rule="evenodd" clip-rule="evenodd" d="M82.5 95c2.6.5 4.3 1.1 4.3 2.2 0 1.3-5.3 2.8-11.9 2.8S63 98.5 63 97.2c0-1.1 1.7-1.7 4.3-2.2v.8c0 .9.4 1.8 1 2.4.6.6 1.5 1 2.4 1h1.6c.9 0 1.8-.4 2.4-1l.2-.2.2.2c.6.6 1.5 1 2.4 1h1.6c.9 0 1.8-.4 2.4-1 .6-.6 1-1.5 1-2.4V95z"/><path fill-rule="evenodd" clip-rule="evenodd" d="M132.5 245c2.6.5 4.3 1.1 4.3 2.2 0 1.3-5.3 2.8-11.9 2.8s-11.9-1.5-11.9-2.8c0-1.1 1.7-1.7 4.3-2.2v.8c0 .9.4 1.8 1 2.4.6.6 1.5 1 2.4 1h1.6c.9 0 1.8-.4 2.4-1l.2-.2.2.2c.6.6 1.5 1 2.4 1h1.6c.9 0 1.8-.4 2.4-1 .6-.6 1-1.5 1-2.4v-.8z"/><path fill-rule="evenodd" clip-rule="evenodd" d="M32.5 45.1c2.3.5 3.7 1.1 3.7 2.1 0 1.3-5.3 2.8-11.9 2.8-6.6 0-11.9-1.3-11.9-2.8 0-.9 2.8-1.7 5.8-2.2l.2.2c.6.6 1.5 1 2.4 1h1.6c.6 0 1.2-.2 1.7-.5v.1c0 .9.4 1.8 1 2.4.6.6 1.5 1 2.4 1h1.6c.9 0 1.8-.4 2.4-1 .6-.6 1-1.5 1-2.4v-.7z"/><path fill-rule="evenodd" clip-rule="evenodd" d="M132.5 95.1c2.3.5 3.7 1.1 3.7 2.1 0 1.3-5.3 2.8-11.9 2.8-6.6 0-11.9-1.3-11.9-2.8 0-.9 2.8-1.7 5.8-2.2l.2.2c.6.6 1.5 1 2.4 1h1.6c.6 0 1.2-.2 1.7-.5v.1c0 .9.4 1.8 1 2.4.6.6 1.5 1 2.4 1h1.6c.9 0 1.8-.4 2.4-1 .6-.6 1-1.5 1-2.4v-.7z"/><path fill-rule="evenodd" clip-rule="evenodd" d="M23.8 40.7v2c0 .8-.6 1.4-1.4 1.4h-1.6c-.8 0-1.4-.6-1.4-1.4v-2.9c1 1.2 2.9.9 4.4.9z"/><path fill-rule="evenodd" clip-rule="evenodd" d="M123.8 90.7v2c0 .8-.6 1.4-1.4 1.4h-1.6c-.8 0-1.4-.6-1.4-1.4v-2.9c1 1.2 2.9.9 4.4.9z"/><path fill-rule="evenodd" clip-rule="evenodd" d="M131.6 45.1c2.8.5 5.2 1.3 5.2 2.1 0 1.5-5.3 2.8-11.9 2.8S113 48.5 113 47.2c0-1.1 1.7-1.7 4.3-2.2v.8c0 .9.4 1.8 1 2.4.6.6 1.5 1 2.4 1h1.6c.9 0 1.8-.4 2.4-1 .6-.6 1-1.5 1-2.4v-.1c.5.3 1.1.5 1.7.5h1.6c1-.1 1.9-.4 2.6-1.1z"/><path fill-rule="evenodd" clip-rule="evenodd" d="M31.6 95.1c2.8.5 5.2 1.3 5.2 2.1 0 1.5-5.3 2.8-11.9 2.8-6.6 0-11.9-1.5-11.9-2.8 0-1.1 1.7-1.7 4.3-2.2v.8c0 .9.4 1.8 1 2.4.6.6 1.5 1 2.4 1h1.6c.9 0 1.8-.4 2.4-1 .6-.6 1-1.5 1-2.4v-.1c.5.3 1.1.5 1.7.5H29c1-.1 1.9-.4 2.6-1.1z"/><path fill-rule="evenodd" clip-rule="evenodd" d="M126.1 40.7v2c0 .8.6 1.4 1.4 1.4h1.6c.8 0 1.4-.6 1.4-1.4v-2.9c-1.1 1.2-2.9.9-4.4.9z"/><path fill-rule="evenodd" clip-rule="evenodd" d="M26.1 90.7v2c0 .8.6 1.4 1.4 1.4h1.6c.8 0 1.4-.6 1.4-1.4v-2.9c-1.1 1.2-2.9.9-4.4.9z"/><path fill-rule="evenodd" clip-rule="evenodd" d="M72.9 193.5v2.2c0 .8.6 1.4 1.4 1.4h1.6c.8 0 1.4-.6 1.4-1.4v-2c-.4.2-.8.3-1.2.4-.9.1-1.8.1-2.6-.3l-.6-.3z"/><path fill-rule="evenodd" clip-rule="evenodd" d="M20.7 191.6l-1.2 1.7c-.4.6-.3 1.5.3 2l1.3.9c.6.4 1.5.3 2-.3l1.3-1.9-3.7-2.4z"/><path fill-rule="evenodd" clip-rule="evenodd" d="M129.4 191.6l1.2 1.7c.4.6.3 1.5-.3 2l-1.3.9c-.6.4-1.5.3-2-.3l-1.3-1.9 3.7-2.4z"/><path fill-rule="evenodd" clip-rule="evenodd" d="M124.9 144.4c6.6 0 11.9 1.3 11.9 2.8 0 1.5-5.3 2.8-11.9 2.8s-11.9-1.3-11.9-2.8c.1-1.6 5.4-2.8 11.9-2.8z"/><path fill-rule="evenodd" clip-rule="evenodd" d="M74.9 144.4c6.6 0 11.9 1.3 11.9 2.8 0 1.5-5.3 2.8-11.9 2.8S63 148.7 63 147.2c.1-1.6 5.4-2.8 11.9-2.8z"/><path fill-rule="evenodd" clip-rule="evenodd" d="M24.9 144.4c6.6 0 11.9 1.3 11.9 2.8 0 1.5-5.3 2.8-11.9 2.8-6.6 0-11.9-1.3-11.9-2.8.1-1.6 5.4-2.8 11.9-2.8z"/><path fill-rule="evenodd" clip-rule="evenodd" d="M77.1 143.5v2.2c0 .8-.6 1.4-1.4 1.4h-1.6c-.8 0-1.4-.6-1.4-1.4v-2c.4.2.8.3 1.2.4.9.1 1.8 0 2.6-.3l.6-.3z"/><path fill-rule="evenodd" clip-rule="evenodd" d="M20.5 141.7l-1.2 1.7c-.4.6-.3 1.5.3 2l1.3.9c.6.4 1.5.3 2-.3l1.3-1.9-3.7-2.4z"/><path fill-rule="evenodd" clip-rule="evenodd" d="M129.3 141.6l1.2 1.7c.4.6.3 1.5-.3 2l-1.3.9c-.6.4-1.5.3-2-.3l-1.3-1.9 3.7-2.4z"/></svg>