<svg version="1.1" id="Layer_3" xmlns="http://www.w3.org/2000/svg" x="0" y="0" width="150" height="250" viewBox="0 0 150 250" xml:space="preserve"><path fill-rule="evenodd" clip-rule="evenodd" fill="#4C4134" d="M82.8 186.8c1.9-.4 3 2.1 3.9 3.4-.8-.2-2.8-1-3.6-.7-1.6.6-1.5 2.5-4.3 2.6v-.9c2.4-.1 4-2 4-4.4zm-11.4 5.1c-.8-.2-1.4-.7-1.9-1.3.6.3 1.2.5 1.9.5v.8zm-3.3-2.5c-.8-.3-2.8.5-3.6.7.7-1 1.8-3 2.9-3.4v.4c0 .8.2 1.6.7 2.3z"/><path fill-rule="evenodd" clip-rule="evenodd" fill="#A27556" d="M82.7 187.9c.6-.2 1.2-.1 1.7.7-.7-.2-1.3-.1-1.7 0l-.1.1c0-.3 0-.6.1-.8zm-15.1.4c-.2 0-.5 0-.8.1.2-.3.4-.5.7-.6 0 .2 0 .4.1.5z"/><g><path fill-rule="evenodd" clip-rule="evenodd" fill="#A27556" d="M78.6 142.1c-1.2 0-2.2-.5-2.9-1.3l-.2-.2-.2.2c-.7.8-1.7 1.2-2.9 1.2h-.1c-1.3 0-2.5-.7-3.3-1.9-.2-.3-.5-.6-.9-.8-.2-.1-.4-.1-.6-.1-.2 0-.4 0-.6.1l-2.6.7 1.5-2.2c.7-1 1.5-1.2 2-1.2 1.1 0 2.1.8 3 1.6.4.4 1.2 1 1.5 1 .4 0 .7-.1.9-.3.6-.7 1.3-1 2.2-1 .8 0 2 .4 2.4 1.1.2.1.5.2.8.2.3 0 1.1-.6 1.5-1 .9-.8 1.9-1.6 3-1.6.6 0 1.4.2 2 1.2l1.4 2.2-2.5-.7c-.2-.1-.4-.1-.6-.1-.2 0-.4 0-.5.1-.4.2-.7.5-.9.8-.8 1.3-2 2-3.4 2z"/><path fill="#4C4134" d="M68 137.7c1.5 0 3.2 2.7 4.5 2.7h.1c.6 0 1.2-.2 1.6-.7.4-.5 1-.7 1.4-.7.9 0 1.6.6 1.4.6l.1.1c.4.5 1 .7 1.6.7 1.3 0 3-2.6 4.5-2.6.4 0 .8.2 1.2.8-.3-.1-.6-.1-.9-.1-.3 0-.6.1-.9.2-.7.2-1.1.7-1.4 1.1-.7 1-1.6 1.4-2.5 1.4-.8 0-1.6-.3-2.1-.9-.1-.2-.3-.4-.3-.6h-1.2l-.3.6c-.5.6-1.3.9-2.1.9h-.1c-.9 0-1.8-.4-2.5-1.5-.3-.4-.7-.9-1.4-1.1-.3-.1-.6-.2-.9-.2-.3 0-.5 0-.8.1.1-.6.5-.8 1-.8m0-2c-.6 0-1.9.2-2.8 1.6l-3 4.4 5.1-1.3h.5c.2.1.3.2.4.4 1 1.4 2.5 2.3 4.1 2.3h.1c1.1 0 2.2-.4 3-1 .8.7 1.9 1.1 3.1 1.1h.1c1.7 0 3.1-.8 4.1-2.3.1-.2.3-.3.4-.4h.2c.1 0 .2 0 .3.1l5.1 1.4-2.9-4.4c-1-1.5-2.2-1.7-2.9-1.7-1.5 0-2.6 1-3.7 1.8-.3.2-.7.6-.9.7-.7-.9-2-1.3-3.1-1.3s-2.1.5-2.9 1.3c-.2-.2-.7-.5-1-.8-.7-.9-1.8-1.9-3.3-1.9z"/></g><path fill-rule="evenodd" clip-rule="evenodd" fill="#4C4134" d="M18.9 190.6c-2.2-1.2-1.6-3-2.6-4-.6-.6-2.8-.7-3.7-.8 1.3-.9 3.3-2.7 4.8-1.7v3c0 1.3.6 2.5 1.7 3.3l-.2.2z"/><path fill-rule="evenodd" clip-rule="evenodd" fill="#A27556" d="M17.4 186.5c-.4-.8-1.2-1.2-2.1-1.3.9-.6 1.5-.3 2.1.3v1z"/><g><path fill-rule="evenodd" clip-rule="evenodd" fill="#A27556" d="M130.8 142.9c-.3-.3-.7-.4-1-.4-.4 0-.8.1-1.1.3-.7.5-1.5.7-2.3.7-.5 0-1-.1-1.5-.3-1.1-.4-1.9-1.3-2.2-2.3 0-.1 0-.2-.1-.3-.1 0-.2.1-.2.1-.5.2-1 .4-1.6.4-.6 0-1.2-.1-1.7-.4-1.2-.6-2-1.6-2.3-3-.1-.3-.2-.7-.5-1.1-.3-.2-.6-.4-1-.5l-2.6-.4 2.2-1.4c.5-.3 1-.5 1.5-.5 1.6 0 2.4 1.6 3 2.9.3.5.7 1.4 1 1.5.2.1.4.1.6.1.1 0 .3 0 .3-.1.4-.2.9-.3 1.3-.3 1.5 0 2.8 1.4 2.9 2.2.1.2.4.4.6.5h.2c.4 0 1-.2 1.6-.4.8-.2 1.6-.5 2.4-.5 1.3 0 2.2.8 2.4 2.1l.5 2.6-2.4-1.5z"/><path fill="#4C4134" d="M116.2 134.8c1.7 0 2.2 3.7 3.5 4.3.3.1.6.2 1 .2.3 0 .6-.1.8-.2.3-.2.6-.2.9-.2 1.2 0 2 1.3 1.8 1.3v.1c.2.6.7 1 1.2 1.3.2.1.3.1.5.1 1.1 0 2.8-.9 4-.9.7 0 1.3.3 1.4 1.3-.6-.5-1.1-.6-1.6-.7h-.1c-.7 0-1.2.3-1.6.5-.6.4-1.2.5-1.8.5-.4 0-.8-.1-1.1-.2-.7-.3-1.4-.9-1.7-1.7-.1-.2-.1-.4-.1-.7l-1.1-.5c-.1.2-.3.3-.5.4-.3.2-.7.2-1.1.2-.4 0-.9-.1-1.3-.3-.8-.4-1.5-1.1-1.7-2.3-.1-.5-.3-1.1-.8-1.6-.4-.3-.9-.6-1.6-.7.5-.1.8-.2 1-.2m0-2c-.7 0-1.4.2-2 .7l-4.4 2.9 5.2.8c.2 0 .4.1.5.2.2.2.2.4.3.5.3 1.7 1.4 3.1 2.9 3.7.6.3 1.4.5 2.1.5.4 0 .8-.1 1.2-.2.5 1 1.4 1.8 2.5 2.2.6.2 1.2.4 1.9.4 1 0 1.9-.3 2.8-.8.2-.1.4-.2.5-.2.2 0 .4.1.5.2l4.2 3.3-.9-5.2c-.3-1.8-1.6-2.9-3.4-2.9-.9 0-1.8.3-2.7.5-.4.1-.9.3-1.2.3-.4-1.3-2-2.7-3.8-2.7-.6 0-1.1.1-1.7.4-.2-.2-.4-.7-.6-1.1-.6-1.4-1.7-3.5-3.9-3.5z"/></g><path fill-rule="evenodd" clip-rule="evenodd" fill="#4C4134" d="M132.8 185.4c1.9-2.2 3.8 0 5.5 1.3-1.2.1-3.4-.1-4.1 1-.5.8-.3 1.4-1.2 2.4-.4.5-1 .9-1.5 1.1l-.5-.7c.2-.1.4-.3.5-.5.7-.7 1.2-1.7 1.2-2.8v-1.8z"/><path fill-rule="evenodd" clip-rule="evenodd" fill="#A27556" d="M132.8 187.1c.7-1.2 1.5-2.2 2.8-1.2-3.1.2-2 3-4.1 4.2.8-.9 1.3-1.9 1.3-3z"/><g><path fill-rule="evenodd" clip-rule="evenodd" fill="#A27556" d="M18.1 141.5c.3-1.3 1.1-1.9 2.3-1.9.8 0 1.7.3 2.6.7.6.2 1.3.5 1.7.5.4-.1.7-.4.8-.6.4-1.2 1.5-1.9 2.9-1.9.5 0 1.1.1 1.5.5h.3c.2 0 .3 0 .5-.1.3-.1.8-1 1.1-1.5.7-1.3 1.5-2.7 3-2.7.5 0 1.1.2 1.6.6l2.1 1.6-2.6.2c-.4 0-.8.2-1.1.4-.4.3-.5.8-.6 1-.4 1.4-1.3 2.4-2.5 2.9-.5.2-1 .3-1.4.3-.6 0-1.3-.2-1.8-.5-.1 0-.2-.1-.2-.1 0 .1-.1.2-.1.3-.4 1-1.3 1.8-2.4 2.2-.4.1-.8.2-1.2.2-.9 0-1.7-.3-2.5-.9-.2-.2-.6-.4-1.1-.4-.4 0-.7.1-1.1.4l-2.2 1.5.4-2.7z"/><path fill="#4C4134" d="M34.6 135.5c.3 0 .6.1 1 .4-.7.1-1.3.3-1.6.6-.5.5-.8 1.1-.9 1.5-.3 1.2-1.1 1.9-1.9 2.2-.3.1-.7.2-1.1.2-.4 0-.9-.1-1.3-.3-.2-.1-.4-.3-.5-.4l-1.2.4c0 .2 0 .4-.1.6-.3.8-1 1.3-1.8 1.6-.3.1-.6.1-.9.1-.6 0-1.3-.2-1.9-.7-.4-.3-1-.6-1.7-.6-.5 0-1 .1-1.6.5.2-.9.7-1.2 1.4-1.2 1.3 0 3.1 1.2 4.2 1.2.1 0 .3 0 .4-.1.6-.2 1.1-.6 1.3-1.2.4-1 1.3-1.3 1.9-1.3.5 0 .9.1.7.2l.1.1c.3.2.6.2.9.2.3 0 .6-.1.8-.2 1.4-.3 2.2-3.8 3.8-3.8m0-2c-2.1 0-3.1 1.8-3.9 3.2-.2.3-.5.8-.6 1-.4-.3-1-.5-1.8-.5-1.8 0-3.2.9-3.8 2.5-.3-.1-.8-.3-1.2-.4-.9-.3-1.9-.7-2.9-.7-1.6 0-2.9 1-3.3 2.7l-1.3 5.1 4.4-3c.2-.1.4-.2.5-.2.2 0 .4.1.5.2 1 .7 2 1 3.1 1 .5 0 1-.1 1.5-.2 1.1-.4 2.1-1.1 2.7-2.1.5.2 1 .3 1.6.3.6 0 1.2-.1 1.8-.3 1.5-.6 2.6-1.8 3.1-3.5 0-.1.1-.4.3-.5.1-.1.3-.1.5-.2l5.3-.4-4.2-3.2c-.8-.6-1.5-.8-2.3-.8z"/></g><g><path fill-rule="evenodd" clip-rule="evenodd" fill="#A27556" d="M19.8 243.1c-.3-.4-.6-.6-.9-.7-.2-.1-.3-.1-.5-.1-.3 0-.5.1-.6.1-.4.1-.9.2-1.3.2-.9 0-1.7-.3-2.4-.8-.9-.7-1.5-1.8-1.5-2.8v-.3c-.1 0-.2 0-.3.1-.2 0-.4.1-.6.1-.9 0-1.8-.3-2.5-.9-1-.9-1.5-2.1-1.4-3.5 0-.3 0-.8-.2-1.2v-.1c-.2-.3-.5-.5-.8-.7l-2.4-1.1 2.5-.8c.3-.1.6-.2.9-.2 2 0 2.5 2.2 2.7 3.6.1.6.3 1.6.5 1.7.2.2.5.3.8.3h.1c.2 0 .4-.1.6-.1 1.9 0 3 1.9 3 2.7v.4c.1.2.2.4.4.5 0 0 .2.1 1.1.1h1.5c1 0 2.1.1 2.8.9.5.5.6 1.2.6 2l-.2 2.6-1.9-2z"/><path fill="#4C4134" d="M7.5 231.4c2.1 0 1.4 4.1 2.6 5.1.4.3.9.5 1.4.5h.7c1.5 0 2.1 1.8 1.9 1.8v.1c0 .6.4 1.2.9 1.5.4.3 1 .3 1.7.3h1.6c1.3 0 2.5.2 2.4 1.8-.4-.6-.9-.9-1.4-1.1-.3-.1-.6-.1-.8-.1-.4 0-.7.1-.9.1-.4.1-.7.2-1 .2-.7 0-1.3-.2-1.8-.6-.6-.5-1.1-1.3-1.1-2.1 0-.2 0-.4.1-.6l-1-.8c-.2.1-.4.2-.6.2h-.4c-.7 0-1.4-.3-1.9-.7-.7-.6-1.1-1.5-1.1-2.7 0-.5 0-1.1-.4-1.7-.3-.4-.7-.8-1.3-1.1 0-.1.3-.1.4-.1m0-2c-.4 0-.8.1-1.2.2l-5 1.6 4.8 2.1c.1.1.3.2.4.3.1.2.1.5.1.6-.1 1.7.5 3.3 1.8 4.4.9.7 2 1.2 3.1 1.2.2 1.1.9 2.1 1.8 2.8.9.7 1.9 1 3 1 .5 0 1.1-.1 1.6-.2.1 0 .3-.1.4-.1h.2c.1 0 .3.2.4.4l3.1 4.2.5-5.2c.1-1.4-.4-2.3-.8-2.7-1.1-1.2-2.8-1.2-3.5-1.2h-2.1v-.1c0-.8-.5-1.7-.9-2.2-.8-1-1.9-1.5-3-1.5-.2 0-.5 0-.7.1-.1-.3-.2-.8-.3-1.2-.2-1.5-.8-4.5-3.7-4.5z"/></g><g><path fill-rule="evenodd" clip-rule="evenodd" fill="#A27556" d="M69.8 243.1c-.3-.4-.6-.6-.9-.7-.2-.1-.3-.1-.5-.1-.3 0-.5.1-.6.1-.4.1-.9.2-1.3.2-.9 0-1.7-.3-2.4-.8-.9-.7-1.5-1.8-1.5-2.8v-.3c-.1 0-.2 0-.3.1-.2 0-.4.1-.6.1-.9 0-1.8-.3-2.5-.9-1-.9-1.5-2.1-1.4-3.5 0-.3 0-.8-.2-1.2v-.1c-.2-.3-.5-.5-.8-.7l-2.4-1.1 2.5-.8c.3-.1.6-.2.9-.2 2 0 2.5 2.2 2.7 3.6.1.6.3 1.6.5 1.7.2.2.5.3.8.3h.1c.2 0 .4-.1.6-.1 1.9 0 3 1.9 3 2.7v.4c.1.2.2.4.4.5 0 0 .2.1 1.1.1h1.5c1 0 2.1.1 2.8.9.5.5.6 1.2.6 2l-.2 2.6-1.9-2z"/><path fill="#4C4134" d="M57.5 231.4c2.1 0 1.4 4.1 2.6 5.1.4.3.9.5 1.4.5h.7c1.5 0 2.1 1.8 1.9 1.8v.1c0 .6.4 1.2.9 1.5.4.3 1 .3 1.7.3h1.6c1.3 0 2.5.2 2.4 1.8-.4-.6-.9-.9-1.4-1.1-.3-.1-.6-.1-.8-.1-.4 0-.7.1-.9.1-.4.1-.7.2-1 .2-.7 0-1.3-.2-1.8-.6-.6-.5-1.1-1.3-1.1-2.1 0-.2 0-.4.1-.6l-1-.8c-.2.1-.4.2-.6.2h-.4c-.7 0-1.4-.3-1.9-.7-.7-.6-1.1-1.5-1.1-2.7 0-.5 0-1.1-.4-1.7-.3-.4-.7-.8-1.3-1.1 0-.1.3-.1.4-.1m0-2c-.4 0-.8.1-1.2.2l-5 1.6 4.8 2.1c.2.1.3.2.4.3.1.2.1.5.1.6-.1 1.7.5 3.3 1.8 4.4.9.7 2 1.2 3.1 1.2.2 1.1.9 2.1 1.8 2.8.9.7 1.9 1 3 1 .5 0 1.1-.1 1.6-.2.1 0 .2-.1.4-.1h.2c.1 0 .3.2.4.4l3.1 4.2.5-5.2c.1-1.4-.4-2.3-.8-2.7-1.1-1.2-2.8-1.2-3.5-1.2h-2.1v-.1c0-.8-.5-1.7-.9-2.2-.8-1-1.9-1.5-3-1.5-.2 0-.5 0-.7.1-.1-.3-.2-.8-.3-1.2-.2-1.5-.8-4.5-3.7-4.5z"/></g><g><path fill-rule="evenodd" clip-rule="evenodd" fill="#A27556" d="M119.8 243.1c-.3-.4-.6-.6-.9-.7-.2-.1-.3-.1-.5-.1-.3 0-.5.1-.6.1-.4.1-.9.2-1.3.2-.9 0-1.7-.3-2.4-.8-.9-.7-1.5-1.8-1.5-2.9v-.3c-.1 0-.2 0-.3.1-.2 0-.4.1-.6.1-.9 0-1.8-.3-2.5-.9-1-.9-1.5-2.1-1.4-3.5 0-.3 0-.8-.2-1.2v-.1c-.2-.3-.5-.5-.8-.6l-2.4-1.1 2.5-.8c.3-.1.6-.2.9-.2 2 0 2.5 2.2 2.7 3.6.1.6.3 1.6.5 1.7.2.2.5.3.8.3h.1c.2 0 .4-.1.6-.1 2 0 3 1.9 3 2.7v.4c.1.2.2.4.4.6 0 0 .2.1 1.1.1h1.5c1 0 2.1.1 2.8.9.5.5.6 1.2.6 2l-.2 2.6-1.9-2.1z"/><path fill="#4C4134" d="M107.5 231.4c2.1 0 1.4 4.1 2.6 5.1.4.3.9.5 1.4.5h.7c1.5 0 2.1 1.8 1.9 1.8v.1c0 .6.4 1.2.9 1.5.4.3 1 .3 1.7.3h1.6c1.3 0 2.5.2 2.4 1.8-.4-.6-.9-.9-1.4-1.1-.3-.1-.6-.1-.8-.1-.4 0-.7.1-.9.1-.4.1-.7.2-1 .2-.7 0-1.3-.2-1.8-.6-.6-.5-1.1-1.3-1.1-2.1 0-.2 0-.4.1-.6l-1-.8c-.2.1-.4.2-.6.2h-.4c-.7 0-1.4-.3-1.9-.7-.7-.6-1.2-1.5-1.1-2.7 0-.5 0-1.1-.4-1.7-.3-.4-.7-.8-1.3-1.1 0-.1.3-.1.4-.1m0-2c-.4 0-.8.1-1.2.2l-5 1.6 4.9 2.1c.1.1.3.2.4.3.1.2.1.5.1.6-.1 1.7.5 3.3 1.8 4.4.9.7 2 1.2 3.1 1.2.2 1.1.9 2.1 1.8 2.8.9.7 1.9 1 3 1 .5 0 1.1-.1 1.6-.2.1 0 .2-.1.4-.1h.2c.1 0 .3.2.4.4l3.1 4.3.5-5.3c.1-1.4-.4-2.3-.8-2.7-1.1-1.2-2.8-1.2-3.5-1.2h-2.1v-.1c0-.8-.5-1.7-.9-2.2-.8-1-1.9-1.5-3-1.5-.2 0-.5 0-.7.1-.1-.3-.2-.8-.3-1.2-.3-1.5-.9-4.5-3.8-4.5z"/></g><path fill-rule="evenodd" clip-rule="evenodd" fill="#4C4134" d="M37.4 90.2c-1.3 2.8-3 2.2-5.5 2 .1-.7.1-1.8.1-2.6 2.7 0 1.8.5 3.8-1.2l.3 1.9 1.3-.1zm2.5-6.3c.4-2 1-4.2 3.6-3.4l2.5.8c-.8.3-2.8 1-3.3 1.8-.5.9-.1 2-.5 3.1-.3.6-.7 1.2-1.1 1.6-.3.3-.7.5-1.1.7.8-1.2.9-2.7.2-4 0-.2-.2-.4-.3-.6z"/><path fill-rule="evenodd" clip-rule="evenodd" fill="#A27556" d="M35.9 89.5c-.7 1.6-2.4 1.2-3.9 1.2v.6c1.4.1 2.2.8 3.6-.3.2-.2.4-.3.6-.6h-.1l-.2-.9zm4.7-2.6c1.8-1.8-.2-4.2 2.6-5.4-2.2-.7-2.1 2.2-2.7 4 .2.4.2.9.1 1.4z"/><path fill-rule="evenodd" clip-rule="evenodd" fill="#4C4134" d="M138.1 82.2c.1-.7.3-1.5.5-2.2.5-1.5 1.3-2.5 3.3-1.9l2.5.8c-.8.3-2.8 1-3.3 1.8-.9 1.5.6 4.2-2.9 5.4.7-1.3.6-2.6-.1-3.9zm-2.5 6c-.6 1-1.6 1.7-2.8 1.9-.3 0-.5.1-.8 0 0-1.1 0-1.9-.9-2.7l-.1-.1h.9l.4.4 1.5-1.2.3 1.9c.4 0 1-.1 1.5-.2z"/><path fill-rule="evenodd" clip-rule="evenodd" fill="#A27556" d="M133.9 87.7c-.6.7-1.3.7-2.2.7.1.3.2.5.2.8.9 0 1.5-.2 2.2-.7h-.1l-.1-.8zm4.7-2.9l.2-.2c.7-.6 1.1-1.5 1.1-2.7-.1-1.3.5-2.3 1.7-2.9-2.6-.8-2 3.3-3 4.8.1.3.1.7 0 1z"/><path fill-rule="evenodd" clip-rule="evenodd" fill="#4C4134" d="M85.2 89.2V89l.6-.5.3 1.9c.5-.1 1.2-.1 1.7-.3-1.1 3.2-2.9 2.4-5.5 2.5h-.2V90c.9.1 2.8.4 3.1-.8zm4.5-5.6c.6-4.7 2.5-3.7 5.9-2.8-1.1.6-3.1 1.2-3.3 2.5-.1.9.2 1.4-.1 2.6-.3 1.1-1.1 1.9-2.1 2.4.9-1.5.7-3.3-.4-4.7z"/><path fill-rule="evenodd" clip-rule="evenodd" fill="#A27556" d="M85.9 89.9c-.8 1.4-2.5 1.1-4 1.2v.6c1.8-.2 3.2.9 4.5-1.3H86l-.1-.5zm4.8-3.2c1.7-1.9-.6-4.1 2.2-5.6-2.2-.5-2 2.2-2.4 4 .2.5.2 1.1.2 1.6z"/><g><path fill-rule="evenodd" clip-rule="evenodd" fill="#A27556" d="M19.8 43.1c-.3-.4-.6-.6-.9-.7-.2-.1-.3-.1-.5-.1-.3 0-.5.1-.6.1-.4.1-.9.2-1.3.2-.9 0-1.7-.3-2.4-.8-.9-.7-1.5-1.8-1.5-2.9v-.3c-.1 0-.2 0-.3.1-.2 0-.4.1-.6.1-.9 0-1.8-.3-2.5-.9-1-.9-1.5-2.1-1.4-3.5 0-.3 0-.8-.2-1.2-.2-.3-.5-.5-.9-.7l-2.4-1.1 2.5-.8c.3-.1.6-.2.9-.2 2 0 2.5 2.2 2.7 3.6.1.6.3 1.6.5 1.7.2.2.5.3.8.3h.1c.2 0 .4-.1.6-.1 1.9 0 3 1.9 3 2.7v.4c.1.2.2.4.4.5 0 0 .2.1 1.1.1h1.5c1 0 2.1.1 2.8.9.5.5.6 1.2.6 2l-.2 2.6-1.8-2z"/><path fill="#4C4134" d="M7.5 31.4c2.1 0 1.4 4.2 2.6 5.1.4.3.9.5 1.4.5h.7c1.5 0 2.1 1.8 1.9 1.8v.1c0 .6.4 1.2.9 1.5.4.3 1 .3 1.7.3h1.6c1.3 0 2.5.2 2.4 1.8-.4-.6-.9-.9-1.4-1.1-.3-.1-.6-.1-.9-.1-.4 0-.7.1-.9.1-.4.1-.7.2-1 .2-.7 0-1.3-.2-1.8-.6-.6-.5-1.1-1.3-1.1-2.1 0-.2 0-.4.1-.6l-1-.8c-.2.1-.4.2-.6.2h-.4c-.7 0-1.4-.3-1.9-.7-.7-.6-1.1-1.5-1.1-2.7 0-.5 0-1.1-.4-1.7-.3-.4-.7-.8-1.3-1.1.1-.1.4-.1.5-.1m0-2c-.4 0-.8.1-1.2.2l-5 1.6 4.8 2.1c.1.1.3.2.4.3.1.2.1.5.1.6-.1 1.7.5 3.3 1.8 4.4.9.7 2 1.2 3.1 1.2.2 1.1.9 2.1 1.8 2.8.9.7 1.9 1 3 1 .5 0 1.1-.1 1.6-.2.1 0 .2-.1.4-.1h.2c.1.1.3.2.4.3l3.1 4.3.5-5.3c.1-1.4-.4-2.2-.8-2.7-1.1-1.2-2.8-1.2-3.5-1.2h-2.1v-.1c0-.8-.5-1.7-.9-2.2-.8-1-1.9-1.5-3-1.5-.2 0-.5 0-.7.1-.1-.3-.2-.8-.3-1.2-.2-1.4-.8-4.4-3.7-4.4z"/></g><g><path fill-rule="evenodd" clip-rule="evenodd" fill="#A27556" d="M69.4 43.6c-.2-.4-.5-.6-.8-.8-.2-.1-.4-.1-.7-.1-.2 0-.3 0-.5.1-.4.1-.7.1-1 .1-1 0-1.9-.3-2.7-1-.9-.8-1.4-1.9-1.3-2.9v-.3h-.7c-.9 0-1.9-.4-2.7-1.1-1-.9-1.4-2.2-1.2-3.6 0-.3.1-.7-.2-1.2-.2-.3-.4-.6-.8-.8l-2.3-1.2 2.6-.6c.3-.1.5-.1.8-.1 2.2 0 2.5 2.3 2.7 3.8.1.6.2 1.6.4 1.8.2.2.5.4.8.4h.5c2.1 0 3 2 3 2.8v.5c.1.2.2.4.4.5.2.2 1.2.2 1.8.2 1.3 0 2.7.1 3.5 1.1.4.5.6 1.2.5 2l-.4 2.6-1.7-2.2z"/><path fill="#4C4134" d="M57.8 31.1c2.2 0 1.2 4.2 2.3 5.3.4.4.9.6 1.5.6h.5c1.6 0 2.1 1.9 1.9 1.9v.1c0 .6.3 1.2.8 1.6 1.3 1.1 5.9-.5 5.5 2.4-.4-.6-.9-1-1.3-1.2-.4-.1-.7-.2-1-.2-.3 0-.5 0-.7.1-.3.1-.6.1-.8.1-.8 0-1.5-.3-2-.7-.6-.5-1-1.3-1-2.2 0-.2.1-.4.1-.6l-.9-.8c-.2.1-.4.2-.6.2h-.3c-.7 0-1.4-.3-2-.8-.6-.6-1-1.5-.9-2.8.1-.5.1-1.1-.3-1.8-.2-.4-.6-.9-1.3-1.2h.5m0-2c-.3 0-.7 0-1 .1l-5.1 1.3 4.7 2.5c.1.1.3.2.4.3.1.1.1.3.1.6-.2 1.7.3 3.3 1.5 4.5.8.8 1.9 1.3 3.1 1.4.2 1.1.7 2.2 1.6 2.9.9.8 2.1 1.2 3.3 1.2.4 0 .8 0 1.3-.1h.6c.2.1.3.2.4.4l2.8 4.5.8-5.2c.2-1.4-.2-2.3-.7-2.8-1.1-1.3-2.9-1.4-4.3-1.4-.4 0-.9 0-1.2-.1V39c0-.7-.3-1.5-.9-2.2-.8-1-1.9-1.6-3.1-1.6h-.4c-.1-.3-.1-.8-.2-1.2-.2-1.8-.6-4.9-3.7-4.9z"/></g><g><path fill-rule="evenodd" clip-rule="evenodd" fill="#A27556" d="M121.4 40.7c-.3-.4-.6-.6-.9-.7-.2-.1-.3-.1-.5-.1s-.4 0-.7.1c-.4.1-.9.2-1.3.2-.9 0-1.7-.3-2.4-.8-.9-.7-1.5-1.8-1.5-2.8v-.3c-.1 0-.2 0-.3.1-.2 0-.4.1-.6.1-.9 0-1.8-.3-2.5-.9-1-.9-1.5-2.1-1.4-3.5 0-.3 0-.8-.2-1.2-.2-.3-.5-.5-.9-.7l-2.4-1.1 2.5-.8c.3-.1.6-.2.9-.2 2 0 2.5 2.2 2.7 3.6.1.6.3 1.6.5 1.7.2.2.5.3.8.3h.1c.2 0 .4-.1.6-.1 2 0 3 1.9 3 2.7v.4c.1.2.2.4.4.6 0 0 .2.1 1.1.1h1.5c1 0 2.1.1 2.8.9.5.5.6 1.2.6 2l-.2 2.6-1.7-2.2z"/><path fill="#4C4134" d="M109.2 28.9c2.1 0 1.4 4.1 2.6 5.1.4.3.9.5 1.4.5h.7c1.5 0 2.1 1.8 1.9 1.8v.1c0 .6.4 1.2.9 1.5.4.3 1 .3 1.7.3h1.6c1.3 0 2.5.2 2.4 1.8-.4-.6-.9-.9-1.4-1.1-.3-.1-.6-.1-.8-.1-.4 0-.7.1-.9.1-.4.1-.7.2-1 .2-.7 0-1.3-.2-1.8-.6-.6-.5-1.1-1.3-1.1-2.1 0-.2 0-.4.1-.6l-1-.8c-.2.1-.4.2-.6.2h-.4c-.7 0-1.3-.3-1.9-.7-.7-.6-1.1-1.5-1.1-2.7 0-.5 0-1.1-.4-1.7-.3-.4-.7-.8-1.3-1.1 0 0 .2-.1.4-.1m0-2c-.4 0-.8.1-1.2.2l-5.1 1.6 4.9 2.1c.3.1.4.2.4.3.1.2.1.5.1.6-.1 1.7.5 3.3 1.8 4.4.9.7 2 1.2 3.1 1.2.2 1.1.9 2.1 1.8 2.8.9.7 1.9 1 3 1 .5 0 1.1-.1 1.6-.2.1 0 .3-.1.4-.1h.3c.1.1.2.2.4.3l3.1 4.3.5-5.3c.1-1.4-.4-2.3-.8-2.7-1.1-1.2-2.8-1.2-3.5-1.2h-2.1v-.1c0-.8-.5-1.7-.9-2.2-.8-1-1.9-1.5-3-1.5-.2 0-.5 0-.7.1-.1-.3-.2-.8-.3-1.2-.4-1.4-1-4.4-3.8-4.4z"/></g></svg>