<?xml version="1.0" encoding="utf-8"?>
<!-- Generator: Adobe Illustrator 16.0.0, SVG Export Plug-In . SVG Version: 6.00 Build 0)  -->
<!DOCTYPE svg PUBLIC "-//W3C//DTD SVG 1.1//EN" "http://www.w3.org/Graphics/SVG/1.1/DTD/svg11.dtd">
<svg version="1.1" id="Layer_3" xmlns="http://www.w3.org/2000/svg" xmlns:xlink="http://www.w3.org/1999/xlink" x="0px" y="0px"
	 width="150px" height="250px" viewBox="0 0 150 250" enable-background="new 0 0 150 250" xml:space="preserve">
<path fill-rule="evenodd" clip-rule="evenodd" fill="#4C4134" d="M115.9,186.8l-4.9-0.1c0,1.4,0,2.9,0,4.3l4.9-0.1V186.8z"/>
<g>
	<polygon fill-rule="evenodd" clip-rule="evenodd" fill="#A27556" points="12.7,39.3 12.7,36.8 26.8,36.4 26.8,39.7 	"/>
	<g>
		<path fill="#4C4134" d="M25.8,37.4v1.2l-12.1-0.3v-0.6L25.8,37.4 M27.8,35.4l-2.1,0.1l-12.1,0.3l-1.9,0.1v1.9v0.6v1.9l1.9,0.1
			l12.1,0.3l2.1,0.1v-2.1v-1.2V35.4L27.8,35.4z"/>
	</g>
</g>
<g>
	<path fill-rule="evenodd" clip-rule="evenodd" fill="#BBBBBB" d="M20.5,42.9c-1,0-1.8-0.8-1.8-1.8v-6.2c0-1,0.8-1.8,1.8-1.8h3.3
		c1,0,1.8,0.8,1.8,1.8v6.2c0,1-0.8,1.8-1.8,1.8H20.5z"/>
	<g>
		<path fill="#4C4C4C" d="M23.8,34.2c0.4,0,0.8,0.4,0.8,0.8v6.2c0,0.4-0.4,0.8-0.8,0.8h-3.3c-0.4,0-0.8-0.4-0.8-0.8v-6.2
			c0-0.4,0.4-0.8,0.8-0.8H23.8 M23.8,32.2h-3.3c-1.5,0-2.8,1.2-2.8,2.8v6.2c0,1.5,1.2,2.8,2.8,2.8h3.3c1.5,0,2.8-1.2,2.8-2.8v-6.2
			C26.6,33.4,25.3,32.2,23.8,32.2L23.8,32.2z"/>
	</g>
</g>
<path opacity="0.5" fill-rule="evenodd" clip-rule="evenodd" fill="#FFFFFF" d="M23.9,40.6v-5.2c0-0.2-0.1-0.3-0.3-0.3h-1.4
	c-0.2,0-0.3,0.1-0.3,0.3v5.2c0,0.2,0.1,0.3,0.3,0.3h1.4C23.8,40.9,23.9,40.8,23.9,40.6z"/>
<path fill-rule="evenodd" clip-rule="evenodd" fill="#89755D" d="M25.8,38.7v-1.2l-1.4,0.3v0.6L25.8,38.7z"/>
<path fill-rule="evenodd" clip-rule="evenodd" fill="#BDA282" d="M25.8,37.4l-1.4,0.3v0.6l0.1,0v-0.2L25.8,37.4z"/>
<g>
	<polygon fill-rule="evenodd" clip-rule="evenodd" fill="#A27556" points="27.6,139.9 27.6,137.4 41.7,137 41.7,140.3 	"/>
	<g>
		<path fill="#4C4134" d="M40.7,138v1.2l-12.1-0.3v-0.6L40.7,138 M42.7,136l-2.1,0.1l-12.1,0.3l-1.9,0.1v1.9v0.6v1.9l1.9,0.1
			l12.1,0.3l2.1,0.1v-2.1V138V136L42.7,136z"/>
	</g>
</g>
<g>
	<path fill-rule="evenodd" clip-rule="evenodd" fill="#BBBBBB" d="M35.4,143.5c-1,0-1.8-0.8-1.8-1.8v-6.2c0-1,0.8-1.8,1.8-1.8h3.3
		c1,0,1.8,0.8,1.8,1.8v6.2c0,1-0.8,1.8-1.8,1.8H35.4z"/>
	<g>
		<path fill="#4C4C4C" d="M38.7,134.8c0.4,0,0.8,0.3,0.8,0.8v6.2c0,0.4-0.4,0.8-0.8,0.8h-3.3c-0.4,0-0.8-0.3-0.8-0.8v-6.2
			c0-0.4,0.4-0.8,0.8-0.8H38.7 M38.7,132.8h-3.3c-1.5,0-2.8,1.2-2.8,2.8v6.2c0,1.5,1.2,2.8,2.8,2.8h3.3c1.5,0,2.8-1.2,2.8-2.8v-6.2
			C41.5,134,40.2,132.8,38.7,132.8L38.7,132.8z"/>
	</g>
</g>
<path opacity="0.5" fill-rule="evenodd" clip-rule="evenodd" fill="#FFFFFF" d="M38.8,141.2v-5.2c0-0.2-0.1-0.3-0.3-0.3h-1.4
	c-0.2,0-0.3,0.1-0.3,0.3v5.2c0,0.2,0.1,0.3,0.3,0.3h1.4C38.7,141.5,38.8,141.4,38.8,141.2z"/>
<path fill-rule="evenodd" clip-rule="evenodd" fill="#89755D" d="M40.7,139.3V138l-1.4,0.3v0.6L40.7,139.3z"/>
<path fill-rule="evenodd" clip-rule="evenodd" fill="#BDA282" d="M40.7,138l-1.4,0.3v0.6l0.1,0v-0.2L40.7,138z"/>
<path fill-rule="evenodd" clip-rule="evenodd" fill="#4C4C4C" d="M111.8,191.8v-6.2c0-1.3,1-2.3,2.3-2.3h3.3v3.8
	c0,1.1,0.5,2.2,1.2,2.9c0.3,0.3,0.7,0.6,1.1,0.8v1c0,1.3-1,2.3-2.3,2.3h-3.3C112.8,194,111.8,193,111.8,191.8z"/>
<path fill-rule="evenodd" clip-rule="evenodd" fill="#BBBBBB" d="M113.3,191.8v-6.2c0-0.4,0.3-0.8,0.8-0.8h3.3
	c0,1.7-0.2,3.4,0.8,4.8v2.2c0,0.4-0.3,0.8-0.8,0.8h-3.3C113.7,192.5,113.3,192.2,113.3,191.8z"/>
<path opacity="0.5" fill-rule="evenodd" clip-rule="evenodd" fill="#FFFFFF" d="M114,191.2v-5.2c0-0.2,0.1-0.3,0.3-0.3h1.4
	c0.2,0,0.3,0.1,0.3,0.3v5.2c0,0.2-0.1,0.3-0.3,0.3h-1.4C114.1,191.5,114,191.4,114,191.2z"/>
<path fill-rule="evenodd" clip-rule="evenodd" fill="#89755D" d="M112.1,189.3V188l1.4,0.3v0.6L112.1,189.3z"/>
<path fill-rule="evenodd" clip-rule="evenodd" fill="#BDA282" d="M112.1,188l1.4,0.3v0.6l-0.1,0v-0.2L112.1,188z"/>
<g>
	<polygon fill-rule="evenodd" clip-rule="evenodd" fill="#A27556" points="76.2,140.8 76.2,138.3 90.3,137.9 90.3,141.2 	"/>
	<g>
		<path fill="#4C4134" d="M89.3,139v1.2l-12.1-0.3v-0.6L89.3,139 M91.3,136.9l-2.1,0.1l-12.1,0.3l-1.9,0.1v1.9v0.6v1.9l1.9,0.1
			l12.1,0.3l2.1,0.1v-2.1V139V136.9L91.3,136.9z"/>
	</g>
</g>
<g>
	<path fill-rule="evenodd" clip-rule="evenodd" fill="#BBBBBB" d="M84,144.5c-1,0-1.8-0.8-1.8-1.8v-6.2c0-1,0.8-1.8,1.8-1.8h3.3
		c1,0,1.8,0.8,1.8,1.8v6.2c0,1-0.8,1.8-1.8,1.8H84z"/>
	<g>
		<path fill="#4C4C4C" d="M87.3,135.7c0.4,0,0.8,0.3,0.8,0.8v6.2c0,0.4-0.3,0.8-0.8,0.8H84c-0.4,0-0.8-0.4-0.8-0.8v-6.2
			c0-0.4,0.4-0.8,0.8-0.8H87.3 M87.3,133.7H84c-1.5,0-2.8,1.2-2.8,2.8v6.2c0,1.5,1.2,2.8,2.8,2.8h3.3c1.5,0,2.8-1.2,2.8-2.8v-6.2
			C90.1,134.9,88.8,133.7,87.3,133.7L87.3,133.7z"/>
	</g>
</g>
<path opacity="0.5" fill-rule="evenodd" clip-rule="evenodd" fill="#FFFFFF" d="M87.5,142.2V137c0-0.2-0.1-0.3-0.3-0.3h-1.4
	c-0.2,0-0.3,0.1-0.3,0.3v5.2c0,0.2,0.1,0.3,0.3,0.3h1.4C87.3,142.5,87.5,142.3,87.5,142.2z"/>
<path fill-rule="evenodd" clip-rule="evenodd" fill="#89755D" d="M89.3,140.2V139l-1.4,0.3v0.6L89.3,140.2z"/>
<path fill-rule="evenodd" clip-rule="evenodd" fill="#BDA282" d="M89.3,139l-1.4,0.3v0.6l0.1,0v-0.2L89.3,139z"/>
<path fill-rule="evenodd" clip-rule="evenodd" fill="#4C4134" d="M59,187.4l8.4,0.2c0.5,3.7,3.9,3.5,6.7,3.5v0.1L59,191.7
	C59,190.3,59,188.9,59,187.4z"/>
<path fill-rule="evenodd" clip-rule="evenodd" fill="#E5C39B" d="M60.5,190.2V189l7.4,0.2c0.2,0.3,0.4,0.6,0.6,0.8L60.5,190.2z"/>
<g>
	<path fill-rule="evenodd" clip-rule="evenodd" fill="#BBBBBB" d="M62.5,194.5c-1,0-1.8-0.8-1.8-1.8v-6.2c0-1,0.8-1.8,1.8-1.8h3.3
		c1,0,1.8,0.8,1.8,1.8v6.2c0,1-0.8,1.8-1.8,1.8H62.5z"/>
	<g>
		<path fill="#4C4C4C" d="M65.8,185.7c0.4,0,0.8,0.3,0.8,0.8v6.2c0,0.4-0.3,0.8-0.8,0.8h-3.3c-0.4,0-0.8-0.4-0.8-0.8v-6.2
			c0-0.4,0.4-0.8,0.8-0.8H65.8 M65.8,183.7h-3.3c-1.5,0-2.8,1.2-2.8,2.8v6.2c0,1.5,1.2,2.8,2.8,2.8h3.3c1.5,0,2.8-1.2,2.8-2.8v-6.2
			C68.6,184.9,67.3,183.7,65.8,183.7L65.8,183.7z"/>
	</g>
</g>
<path opacity="0.5" fill-rule="evenodd" clip-rule="evenodd" fill="#FFFFFF" d="M62.3,192.2V187c0-0.2,0.1-0.3,0.3-0.3H64
	c0.2,0,0.3,0.1,0.3,0.3v5.2c0,0.2-0.1,0.3-0.3,0.3h-1.4C62.5,192.5,62.3,192.3,62.3,192.2z"/>
<path fill-rule="evenodd" clip-rule="evenodd" fill="#89755D" d="M60.5,190.2V189l1.4,0.3v0.6L60.5,190.2z"/>
<path fill-rule="evenodd" clip-rule="evenodd" fill="#BDA282" d="M60.5,189l1.4,0.3v0.6l-0.1,0v-0.2L60.5,189z"/>
<g>
	<polygon fill-rule="evenodd" clip-rule="evenodd" fill="#A27556" points="124.1,140.7 124.1,138.2 138.2,137.8 138.2,141.1 	"/>
	<g>
		<path fill="#4C4134" d="M137.2,138.8v1.2l-12.1-0.3v-0.6L137.2,138.8 M139.2,136.8l-2.1,0.1l-12.1,0.3l-1.9,0.1v1.9v0.6v1.9
			l1.9,0.1l12.1,0.3l2.1,0.1V140v-1.2V136.8L139.2,136.8z"/>
	</g>
</g>
<g>
	<path fill-rule="evenodd" clip-rule="evenodd" fill="#BBBBBB" d="M131.9,144.3c-1,0-1.8-0.8-1.8-1.8v-6.2c0-1,0.8-1.8,1.8-1.8h3.3
		c1,0,1.8,0.8,1.8,1.8v6.2c0,1-0.8,1.8-1.8,1.8H131.9z"/>
	<g>
		<path fill="#4C4C4C" d="M135.2,135.5c0.4,0,0.8,0.3,0.8,0.8v6.2c0,0.4-0.4,0.8-0.8,0.8h-3.3c-0.4,0-0.8-0.3-0.8-0.8v-6.2
			c0-0.4,0.3-0.8,0.8-0.8H135.2 M135.2,133.5h-3.3c-1.5,0-2.8,1.2-2.8,2.8v6.2c0,1.5,1.2,2.8,2.8,2.8h3.3c1.5,0,2.8-1.2,2.8-2.8
			v-6.2C138,134.8,136.7,133.5,135.2,133.5L135.2,133.5z"/>
	</g>
</g>
<path opacity="0.5" fill-rule="evenodd" clip-rule="evenodd" fill="#FFFFFF" d="M135.4,142v-5.2c0-0.2-0.1-0.3-0.3-0.3h-1.4
	c-0.2,0-0.3,0.1-0.3,0.3v5.2c0,0.2,0.1,0.3,0.3,0.3h1.4C135.2,142.3,135.4,142.2,135.4,142z"/>
<path fill-rule="evenodd" clip-rule="evenodd" fill="#89755D" d="M137.2,140v-1.2l-1.4,0.3v0.6L137.2,140z"/>
<path fill-rule="evenodd" clip-rule="evenodd" fill="#BDA282" d="M137.2,138.8l-1.4,0.3v0.6l0.1,0v-0.2L137.2,138.8z"/>
<path fill-rule="evenodd" clip-rule="evenodd" fill="#4C4134" d="M7.1,187.3l10.3,0.3c0.3,2.4,2.2,3.6,4.5,3.6l-14.8,0.4
	C7.1,190.1,7.1,188.7,7.1,187.3z"/>
<path fill-rule="evenodd" clip-rule="evenodd" fill="#A27556" d="M8.6,190v-1.2l9.3,0.2c0.1,0.2,0.3,0.5,0.5,0.7L8.6,190z"/>
<g>
	<path fill-rule="evenodd" clip-rule="evenodd" fill="#BBBBBB" d="M10.6,194.3c-1,0-1.8-0.8-1.8-1.8v-6.2c0-1,0.8-1.8,1.8-1.8h3.3
		c1,0,1.8,0.8,1.8,1.8v6.2c0,1-0.8,1.8-1.8,1.8H10.6z"/>
	<g>
		<path fill="#4C4C4C" d="M13.9,185.5c0.4,0,0.8,0.3,0.8,0.8v6.2c0,0.4-0.4,0.8-0.8,0.8h-3.3c-0.4,0-0.8-0.3-0.8-0.8v-6.2
			c0-0.4,0.4-0.8,0.8-0.8H13.9 M13.9,183.5h-3.3c-1.5,0-2.8,1.2-2.8,2.8v6.2c0,1.5,1.2,2.8,2.8,2.8h3.3c1.5,0,2.8-1.2,2.8-2.8v-6.2
			C16.7,184.8,15.4,183.5,13.9,183.5L13.9,183.5z"/>
	</g>
</g>
<path opacity="0.5" fill-rule="evenodd" clip-rule="evenodd" fill="#FFFFFF" d="M10.4,192v-5.2c0-0.2,0.1-0.3,0.3-0.3h1.4
	c0.2,0,0.3,0.1,0.3,0.3v5.2c0,0.2-0.1,0.3-0.3,0.3h-1.4C10.6,192.3,10.4,192.2,10.4,192z"/>
<path fill-rule="evenodd" clip-rule="evenodd" fill="#89755D" d="M8.6,190v-1.2l1.4,0.3v0.6L8.6,190z"/>
<path fill-rule="evenodd" clip-rule="evenodd" fill="#BDA282" d="M8.6,188.8l1.4,0.3v0.6l-0.1,0v-0.2L8.6,188.8z"/>
<g>
	<polygon fill-rule="evenodd" clip-rule="evenodd" fill="#A27556" points="63,38.5 64.1,36.2 77,41.8 75.6,44.8 	"/>
	<g>
		<path fill="#4C4134" d="M64.6,37.5l11.1,4.8l-0.5,1.1l-10.8-5.4L64.6,37.5 M63.6,34.9l-0.8,1.8l-0.3,0.5L61.7,39l1.8,0.9l10.8,5.4
			l1.8,0.9l0.9-1.9l0.5-1.1l0.9-1.9l-1.9-0.8l-11.1-4.8L63.6,34.9L63.6,34.9z"/>
	</g>
</g>
<g>
	<path fill-rule="evenodd" clip-rule="evenodd" fill="#BBBBBB" d="M72.2,46.7c-0.3,0-0.5-0.1-0.8-0.2l-3-1.4c-0.4-0.2-0.8-0.6-0.9-1
		c-0.2-0.4-0.1-0.9,0.1-1.4l2.6-5.6c0.3-0.6,0.9-1,1.6-1c0.3,0,0.5,0.1,0.8,0.2l3,1.4c0.9,0.4,1.3,1.5,0.9,2.4l-2.6,5.6
		C73.6,46.3,72.9,46.7,72.2,46.7L72.2,46.7z"/>
	<g>
		<path fill="#4C4C4C" d="M71.9,37.1c0.1,0,0.2,0,0.3,0.1l3,1.4c0.4,0.2,0.6,0.6,0.4,1l-2.6,5.6c-0.1,0.3-0.4,0.5-0.7,0.5
			c-0.1,0-0.2,0-0.3-0.1l-3-1.4c-0.4-0.2-0.6-0.6-0.4-1l2.6-5.6C71.3,37.2,71.6,37.1,71.9,37.1 M71.9,35.1c-1.1,0-2.1,0.6-2.5,1.6
			l-2.6,5.6c-0.3,0.7-0.3,1.4-0.1,2.1c0.3,0.7,0.8,1.3,1.4,1.6l3,1.4c0.4,0.2,0.8,0.3,1.2,0.3c1.1,0,2.1-0.6,2.5-1.6l2.6-5.6
			c0.6-1.4,0-3.1-1.3-3.7l-3-1.4C72.7,35.1,72.3,35.1,71.9,35.1L71.9,35.1z"/>
	</g>
</g>
<path opacity="0.5" fill-rule="evenodd" clip-rule="evenodd" fill="#FFFFFF" d="M72.6,44.5l2.2-4.7c0.1-0.2,0-0.3-0.2-0.4l-1.2-0.6
	c-0.2-0.1-0.3,0-0.4,0.2l-2.2,4.7c-0.1,0.2,0,0.3,0.2,0.4l1.2,0.6C72.3,44.7,72.5,44.6,72.6,44.5z"/>
<path fill-rule="evenodd" clip-rule="evenodd" fill="#89755D" d="M75.1,43.5l0.5-1.1L74.2,42l-0.2,0.5L75.1,43.5z"/>
<path fill-rule="evenodd" clip-rule="evenodd" fill="#BDA282" d="M75.6,42.3L74.2,42l-0.2,0.5l0.1,0.1l0.1-0.2L75.6,42.3z"/>
<g>
	<polygon fill-rule="evenodd" clip-rule="evenodd" fill="#A27556" points="113.3,34.8 115.6,33.6 122.9,45.6 120.1,47.2 	"/>
	<g>
		<path fill="#4C4134" d="M115.2,34.9l6.3,10.3l-1.1,0.6l-5.8-10.6L115.2,34.9 M115.9,32.2l-1.7,1l-0.5,0.3l-1.7,1l0.9,1.7l5.8,10.6
			l1,1.8l1.8-1l1.1-0.6l1.8-1l-1.1-1.7l-6.3-10.3L115.9,32.2L115.9,32.2z"/>
	</g>
</g>
<g>
	<path fill-rule="evenodd" clip-rule="evenodd" fill="#BBBBBB" d="M117.3,47.1c-0.6,0-1.2-0.3-1.5-0.9l-1.7-2.9
		c-0.2-0.4-0.3-0.9-0.2-1.3c0.1-0.5,0.4-0.8,0.8-1.1l5.4-3.1c0.3-0.2,0.6-0.2,0.9-0.2c0.6,0,1.2,0.3,1.5,0.9l1.7,2.9
		c0.5,0.8,0.2,1.9-0.7,2.4l-5.4,3.1C117.9,47,117.6,47.1,117.3,47.1z"/>
	<g>
		<path fill="#4C4C4C" d="M121,38.6c0.3,0,0.5,0.1,0.7,0.4l1.7,2.9c0.2,0.4,0.1,0.9-0.3,1.1l-5.4,3.1c-0.1,0.1-0.3,0.1-0.4,0.1
			c-0.3,0-0.5-0.1-0.7-0.4l-1.7-2.9c-0.2-0.4-0.1-0.9,0.3-1.1l5.4-3.1C120.7,38.6,120.9,38.6,121,38.6 M121,36.6
			c-0.5,0-1,0.1-1.4,0.4l-5.4,3.1c-1.3,0.8-1.8,2.5-1,3.8l1.7,2.9c0.5,0.9,1.4,1.4,2.4,1.4c0.5,0,1-0.1,1.4-0.4l5.4-3.1
			c1.3-0.8,1.8-2.5,1-3.8l-1.7-2.9C122.9,37.1,122,36.6,121,36.6L121,36.6z"/>
	</g>
</g>
<path opacity="0.5" fill-rule="evenodd" clip-rule="evenodd" fill="#FFFFFF" d="M117.8,45.2l4.5-2.6c0.2-0.1,0.2-0.3,0.1-0.4
	l-0.7-1.2c-0.1-0.2-0.3-0.2-0.4-0.1l-4.5,2.6c-0.2,0.1-0.2,0.3-0.1,0.4l0.7,1.2C117.5,45.3,117.7,45.3,117.8,45.2z"/>
<path fill-rule="evenodd" clip-rule="evenodd" fill="#89755D" d="M120.4,45.8l1.1-0.6l-1-1.1l-0.5,0.3L120.4,45.8z"/>
<path fill-rule="evenodd" clip-rule="evenodd" fill="#BDA282" d="M121.5,45.2l-1-1.1l-0.5,0.3l0,0.1l0.2-0.1L121.5,45.2z"/>
<g>
	<polygon fill-rule="evenodd" clip-rule="evenodd" fill="#A27556" points="111.5,236.6 113.7,235.4 121.1,247.3 118.2,249 	"/>
	<g>
		<path fill="#4C4134" d="M113.4,236.7l6.3,10.3l-1.1,0.6l-5.8-10.6L113.4,236.7 M114.1,234l-1.7,1l-0.5,0.3l-1.7,1l0.9,1.7
			l5.8,10.6l1,1.8l1.8-1l1.1-0.6l1.8-1l-1.1-1.8l-6.3-10.3L114.1,234L114.1,234z"/>
	</g>
</g>
<g>
	<path fill-rule="evenodd" clip-rule="evenodd" fill="#BBBBBB" d="M115.5,248.9c-0.6,0-1.2-0.3-1.5-0.9l-1.7-2.9
		c-0.5-0.9-0.2-1.9,0.7-2.4l5.4-3.1c0.3-0.2,0.6-0.2,0.9-0.2c0.6,0,1.2,0.3,1.5,0.9l1.7,2.9c0.5,0.9,0.2,1.9-0.7,2.4l-5.4,3.1
		C116.1,248.8,115.8,248.9,115.5,248.9L115.5,248.9z"/>
	<g>
		<path fill="#4C4C4C" d="M119.2,240.4c0.3,0,0.5,0.1,0.7,0.4l1.7,2.9c0.2,0.4,0.1,0.9-0.3,1.1l-5.4,3.1c-0.1,0.1-0.3,0.1-0.4,0.1
			c-0.3,0-0.5-0.1-0.7-0.4l-1.7-2.9c-0.2-0.4-0.1-0.9,0.3-1.1l5.4-3.1C118.9,240.4,119.1,240.4,119.2,240.4 M119.2,238.4
			c-0.5,0-1,0.1-1.4,0.4l-5.4,3.1c-1.3,0.8-1.8,2.5-1,3.8l1.7,2.9c0.5,0.9,1.4,1.4,2.4,1.4c0.5,0,1-0.1,1.4-0.4l5.4-3.1
			c1.3-0.8,1.8-2.5,1-3.8l-1.7-2.9C121.1,238.9,120.2,238.4,119.2,238.4L119.2,238.4z"/>
	</g>
</g>
<path opacity="0.5" fill-rule="evenodd" clip-rule="evenodd" fill="#FFFFFF" d="M116,247l4.5-2.6c0.2-0.1,0.2-0.3,0.1-0.4l-0.7-1.2
	c-0.1-0.2-0.3-0.2-0.4-0.1l-4.5,2.6c-0.2,0.1-0.2,0.3-0.1,0.4l0.7,1.2C115.6,247,115.8,247.1,116,247z"/>
<path fill-rule="evenodd" clip-rule="evenodd" fill="#89755D" d="M118.6,247.6l1.1-0.6l-1-1.1l-0.5,0.3L118.6,247.6z"/>
<path fill-rule="evenodd" clip-rule="evenodd" fill="#BDA282" d="M119.7,247l-1-1.1l-0.5,0.3l0,0.1l0.2-0.1L119.7,247z"/>
<g>
	<polygon fill-rule="evenodd" clip-rule="evenodd" fill="#A27556" points="61.5,236.6 63.7,235.4 71.1,247.3 68.2,249 	"/>
	<g>
		<path fill="#4C4134" d="M63.4,236.7l6.3,10.3l-1.1,0.6L62.9,237L63.4,236.7 M64.1,234l-1.7,1l-0.5,0.3l-1.7,1l0.9,1.7l5.7,10.6
			l1,1.8l1.8-1l1.1-0.6l1.8-1l-1.1-1.8l-6.3-10.3L64.1,234L64.1,234z"/>
	</g>
</g>
<g>
	<path fill-rule="evenodd" clip-rule="evenodd" fill="#BBBBBB" d="M65.5,248.9c-0.6,0-1.2-0.3-1.5-0.9l-1.7-2.9
		c-0.2-0.4-0.3-0.9-0.2-1.4c0.1-0.5,0.4-0.8,0.8-1.1l5.4-3.1c0.3-0.2,0.6-0.2,0.9-0.2c0.6,0,1.2,0.3,1.5,0.9l1.7,2.9
		c0.2,0.4,0.3,0.9,0.2,1.4c-0.1,0.5-0.4,0.8-0.8,1.1l-5.4,3.1C66.1,248.8,65.8,248.9,65.5,248.9C65.5,248.9,65.5,248.9,65.5,248.9z"
		/>
	<g>
		<path fill="#4C4C4C" d="M69.2,240.4c0.3,0,0.5,0.1,0.7,0.4l1.7,2.9c0.2,0.4,0.1,0.9-0.3,1.1l-5.4,3.1c-0.1,0.1-0.3,0.1-0.4,0.1
			c-0.3,0-0.5-0.1-0.7-0.4l-1.7-2.9c-0.2-0.4-0.1-0.9,0.3-1.1l5.4-3.1C68.9,240.4,69.1,240.4,69.2,240.4 M69.2,238.4
			c-0.5,0-1,0.1-1.4,0.4l-5.4,3.1c-0.6,0.4-1.1,1-1.3,1.7c-0.2,0.7-0.1,1.5,0.3,2.1l1.7,2.9c0.5,0.9,1.4,1.4,2.4,1.4
			c0.5,0,1-0.1,1.4-0.4l5.4-3.1c0.6-0.4,1.1-1,1.3-1.7c0.2-0.7,0.1-1.5-0.3-2.1l-1.7-2.9C71.1,238.9,70.2,238.4,69.2,238.4
			L69.2,238.4z"/>
	</g>
</g>
<path opacity="0.5" fill-rule="evenodd" clip-rule="evenodd" fill="#FFFFFF" d="M66,247l4.5-2.6c0.2-0.1,0.2-0.3,0.1-0.4l-0.7-1.2
	c-0.1-0.2-0.3-0.2-0.4-0.1l-4.5,2.6c-0.2,0.1-0.2,0.3-0.1,0.4l0.7,1.2C65.7,247,65.8,247.1,66,247z"/>
<path fill-rule="evenodd" clip-rule="evenodd" fill="#89755D" d="M68.6,247.6l1.1-0.6l-1-1.1l-0.5,0.3L68.6,247.6z"/>
<path fill-rule="evenodd" clip-rule="evenodd" fill="#BDA282" d="M69.7,247l-1-1.1l-0.5,0.3l0,0.1l0.2-0.1L69.7,247z"/>
<g>
	<polygon fill-rule="evenodd" clip-rule="evenodd" fill="#A27556" points="11.5,236.6 13.7,235.4 21.1,247.3 18.2,249 	"/>
	<g>
		<path fill="#4C4134" d="M13.4,236.7l6.3,10.3l-1.1,0.6L12.9,237L13.4,236.7 M14.1,234l-1.7,1l-0.5,0.3l-1.7,1l0.9,1.7l5.7,10.6
			l1,1.8l1.8-1l1.1-0.6l1.8-1l-1.1-1.8l-6.3-10.3L14.1,234L14.1,234z"/>
	</g>
</g>
<g>
	<path fill-rule="evenodd" clip-rule="evenodd" fill="#BBBBBB" d="M15.5,248.9c-0.6,0-1.2-0.3-1.5-0.9l-1.7-2.9
		c-0.5-0.9-0.2-1.9,0.6-2.4l5.4-3.1c0.3-0.2,0.6-0.2,0.9-0.2c0.6,0,1.2,0.3,1.5,0.9l1.7,2.9c0.5,0.9,0.2,1.9-0.7,2.4l-5.4,3.1
		C16.1,248.8,15.8,248.9,15.5,248.9L15.5,248.9z"/>
	<g>
		<path fill="#4C4C4C" d="M19.2,240.4c0.3,0,0.5,0.1,0.7,0.4l1.7,2.9c0.2,0.4,0.1,0.9-0.3,1.1l-5.4,3.1c-0.1,0.1-0.3,0.1-0.4,0.1
			c-0.3,0-0.5-0.1-0.7-0.4l-1.7-2.9c-0.2-0.4-0.1-0.9,0.3-1.1l5.4-3.1C18.9,240.4,19.1,240.4,19.2,240.4 M19.2,238.4
			c-0.5,0-1,0.1-1.4,0.4l-5.4,3.1c-1.3,0.8-1.8,2.5-1,3.8l1.7,2.9c0.5,0.9,1.4,1.4,2.4,1.4c0.5,0,1-0.1,1.4-0.4l5.4-3.1
			c1.3-0.8,1.8-2.5,1-3.8l-1.7-2.9C21.1,238.9,20.2,238.4,19.2,238.4L19.2,238.4z"/>
	</g>
</g>
<path opacity="0.5" fill-rule="evenodd" clip-rule="evenodd" fill="#FFFFFF" d="M16,247l4.5-2.6c0.2-0.1,0.2-0.3,0.1-0.4l-0.7-1.2
	c-0.1-0.2-0.3-0.2-0.4-0.1l-4.5,2.6c-0.2,0.1-0.2,0.3-0.1,0.4l0.7,1.2C15.6,247,15.8,247.1,16,247z"/>
<path fill-rule="evenodd" clip-rule="evenodd" fill="#89755D" d="M18.6,247.6l1.1-0.6l-1-1.1l-0.5,0.3L18.6,247.6z"/>
<path fill-rule="evenodd" clip-rule="evenodd" fill="#BDA282" d="M19.7,247l-1-1.1l-0.5,0.3l0,0.1l0.2-0.1L19.7,247z"/>
</svg>
