<?xml version="1.0" encoding="utf-8"?>
<!-- Generator: Adobe Illustrator 16.0.0, SVG Export Plug-In . SVG Version: 6.00 Build 0)  -->
<!DOCTYPE svg PUBLIC "-//W3C//DTD SVG 1.1//EN" "http://www.w3.org/Graphics/SVG/1.1/DTD/svg11.dtd">
<svg version="1.1" id="Layer_12" xmlns="http://www.w3.org/2000/svg" xmlns:xlink="http://www.w3.org/1999/xlink" x="0px" y="0px"
	 width="150px" height="250px" viewBox="0 0 150 250" enable-background="new 0 0 150 250" xml:space="preserve">
<line fill="none" stroke="#4F392A" stroke-width="2" stroke-miterlimit="10" x1="11.4" y1="17.4" x2="11.4" y2="17.4"/>
<g>
	<path fill-rule="evenodd" clip-rule="evenodd" fill="#35BFDC" d="M27.7,22.6c-1,0-1.8-0.8-1.8-1.8l0-3.1c0-0.5,0.2-0.9,0.6-1.3
		c0.3-0.3,0.8-0.5,1.2-0.5l3.1,0c1,0,1.8,0.8,1.8,1.7l0,3.1c0,1-0.8,1.8-1.8,1.8L27.7,22.6z"/>
	<g>
		<path fill="#484848" d="M30.8,17c0.5,0,0.8,0.3,0.8,0.7l0,3.1c0,0.5-0.3,0.8-0.8,0.8l-3.1,0c0,0,0,0,0,0c-0.4,0-0.8-0.3-0.8-0.8
			l0-3.1c0-0.4,0.4-0.7,0.8-0.7L30.8,17C30.8,17,30.8,17,30.8,17 M30.8,15L30.8,15l-3.1,0c-0.7,0-1.3,0.2-1.9,0.7
			c-0.6,0.5-0.9,1.3-0.9,2l0,3.1c0,1.5,1.3,2.8,2.8,2.8l3.1,0c1.6,0,2.8-1.2,2.8-2.8l0-3.1C33.6,16.2,32.4,15,30.8,15L30.8,15z"/>
	</g>
</g>
<line fill="#35BFDC" stroke="#484848" stroke-width="2" stroke-miterlimit="22.9256" x1="32.3" y1="19.6" x2="37.1" y2="18.1"/>
<g>
	<path fill-rule="evenodd" clip-rule="evenodd" fill="#35BFDC" d="M19,22.7c-1,0-1.8-0.8-1.8-1.8l0-3.1c0-1,0.8-1.7,1.8-1.7l3.1,0
		c0.4,0,0.9,0.2,1.2,0.5c0.4,0.3,0.6,0.8,0.6,1.3l0,3.1c0,1-0.8,1.8-1.8,1.8L19,22.7z"/>
	<g>
		<path fill="#484848" d="M19,17.1C19,17.1,19,17.1,19,17.1l3.1,0c0.4,0,0.8,0.3,0.8,0.7l0,3.1c0,0.5-0.4,0.8-0.8,0.8c0,0,0,0,0,0
			l-3.1,0c-0.5,0-0.8-0.3-0.8-0.8l0-3.1C18.3,17.4,18.6,17.1,19,17.1 M19.1,15.1L19.1,15.1L19.1,15.1L19.1,15.1
			c-1.6,0-2.8,1.2-2.8,2.7l0,3.1c0,1.6,1.2,2.8,2.8,2.8l3.1,0c1.5,0,2.8-1.3,2.8-2.8l0-3.1c0-0.8-0.3-1.5-0.9-2
			c-0.5-0.4-1.2-0.7-1.9-0.7L19.1,15.1L19.1,15.1z"/>
	</g>
</g>
<line fill="#35BFDC" stroke="#484848" stroke-width="2" stroke-miterlimit="22.9256" x1="17.4" y1="19.6" x2="12.7" y2="18.1"/>
<g>
	<g>
		<path fill-rule="evenodd" clip-rule="evenodd" fill="#35BFDC" d="M77.7,22.6c-1,0-1.8-0.8-1.8-1.8l0-3.1c0-0.5,0.2-0.9,0.6-1.3
			c0.3-0.3,0.8-0.5,1.2-0.5l3.1,0c1,0,1.8,0.8,1.8,1.7l0,3.1c0,1-0.8,1.8-1.8,1.8L77.7,22.6L77.7,22.6z"/>
		<g>
			<path fill="#484848" d="M80.8,17c0.5,0,0.8,0.3,0.8,0.7l0,3.1c0,0.5-0.3,0.8-0.8,0.8l-3.1,0c0,0,0,0,0,0c-0.4,0-0.8-0.3-0.8-0.8
				l0-3.1c0-0.4,0.4-0.7,0.8-0.7L80.8,17C80.8,17,80.8,17,80.8,17 M80.8,15L80.8,15l-3.1,0c-0.7,0-1.3,0.2-1.9,0.7
				c-0.6,0.5-0.9,1.3-0.9,2l0,3.1c0,1.5,1.3,2.8,2.8,2.8l3.1,0c1.6,0,2.8-1.2,2.8-2.8l0-3.1C83.6,16.2,82.4,15,80.8,15L80.8,15z"/>
		</g>
	</g>
	<line fill="#35BFDC" stroke="#484848" stroke-width="2" stroke-miterlimit="22.9256" x1="82.3" y1="19.6" x2="87.1" y2="18.1"/>
	<g>
		<path fill-rule="evenodd" clip-rule="evenodd" fill="#35BFDC" d="M69,22.7c-1,0-1.8-0.8-1.8-1.8l0-3.1c0-1,0.8-1.7,1.8-1.7l3.1,0
			c0.4,0,0.9,0.2,1.2,0.5c0.4,0.3,0.6,0.8,0.6,1.3l0,3.1c0,1-0.8,1.8-1.8,1.8L69,22.7z"/>
		<g>
			<path fill="#484848" d="M69,17.1C69,17.1,69,17.1,69,17.1l3.1,0c0.4,0,0.8,0.3,0.8,0.7l0,3.1c0,0.5-0.4,0.8-0.8,0.8c0,0,0,0,0,0
				l-3.1,0c-0.5,0-0.8-0.3-0.8-0.8l0-3.1C68.3,17.4,68.6,17.1,69,17.1 M69.1,15.1L69.1,15.1L69.1,15.1L69.1,15.1
				c-1.6,0-2.8,1.2-2.8,2.7l0,3.1c0,1.6,1.2,2.8,2.8,2.8l3.1,0c1.5,0,2.8-1.3,2.8-2.8l0-3.1c0-0.8-0.3-1.5-0.9-2
				c-0.5-0.4-1.2-0.7-1.9-0.7L69.1,15.1L69.1,15.1z"/>
		</g>
	</g>
	<line fill="#35BFDC" stroke="#484848" stroke-width="2" stroke-miterlimit="22.9256" x1="67.4" y1="19.6" x2="62.7" y2="18.1"/>
</g>
<g>
	<g>
		<path fill-rule="evenodd" clip-rule="evenodd" fill="#35BFDC" d="M127.7,22.6c-1,0-1.8-0.8-1.8-1.8l0-3.1c0-0.5,0.2-0.9,0.6-1.3
			c0.3-0.3,0.8-0.5,1.2-0.5l3.1,0c1,0,1.8,0.8,1.8,1.7l0,3.1c0,1-0.8,1.8-1.8,1.8L127.7,22.6L127.7,22.6z"/>
		<g>
			<path fill="#484848" d="M130.8,17c0.5,0,0.8,0.3,0.8,0.7l0,3.1c0,0.5-0.3,0.8-0.8,0.8l-3.1,0c0,0,0,0,0,0c-0.4,0-0.8-0.3-0.8-0.8
				l0-3.1c0-0.4,0.4-0.7,0.8-0.7L130.8,17C130.8,17,130.8,17,130.8,17 M130.8,15L130.8,15l-3.1,0c-0.7,0-1.3,0.2-1.9,0.7
				c-0.6,0.5-0.9,1.3-0.9,2l0,3.1c0,1.5,1.3,2.8,2.8,2.8l3.1,0c1.6,0,2.8-1.2,2.8-2.8l0-3.1C133.6,16.2,132.4,15,130.8,15L130.8,15z
				"/>
		</g>
	</g>
	<line fill="#35BFDC" stroke="#484848" stroke-width="2" stroke-miterlimit="22.9256" x1="132.3" y1="19.6" x2="137.1" y2="18.1"/>
	<g>
		<path fill-rule="evenodd" clip-rule="evenodd" fill="#35BFDC" d="M119,22.7c-1,0-1.8-0.8-1.8-1.8l0-3.1c0-1,0.8-1.7,1.8-1.7l3.1,0
			c0.4,0,0.9,0.2,1.2,0.5c0.4,0.3,0.6,0.8,0.6,1.3l0,3.1c0,1-0.8,1.8-1.8,1.8L119,22.7z"/>
		<g>
			<path fill="#484848" d="M119,17.1C119,17.1,119,17.1,119,17.1l3.1,0c0.4,0,0.8,0.3,0.8,0.7l0,3.1c0,0.5-0.4,0.8-0.8,0.8
				c0,0,0,0,0,0l-3.1,0c-0.5,0-0.8-0.3-0.8-0.8l0-3.1C118.3,17.4,118.6,17.1,119,17.1 M119.1,15.1L119.1,15.1L119.1,15.1L119.1,15.1
				c-1.6,0-2.8,1.2-2.8,2.7l0,3.1c0,1.6,1.2,2.8,2.8,2.8l3.1,0c1.5,0,2.8-1.3,2.8-2.8l0-3.1c0-0.8-0.3-1.5-0.9-2
				c-0.5-0.4-1.2-0.7-1.9-0.7L119.1,15.1L119.1,15.1z"/>
		</g>
	</g>
	<line fill="#35BFDC" stroke="#484848" stroke-width="2" stroke-miterlimit="22.9256" x1="117.4" y1="19.6" x2="112.7" y2="18.1"/>
</g>
<g>
	<g>
		<path fill-rule="evenodd" clip-rule="evenodd" fill="#35BFDC" d="M27.7,222.6c-1,0-1.8-0.8-1.8-1.8l0-3.1c0-0.5,0.2-0.9,0.6-1.3
			c0.3-0.3,0.8-0.5,1.2-0.5l3.1,0c1,0,1.8,0.8,1.8,1.7l0,3.1c0,1-0.8,1.8-1.8,1.8L27.7,222.6z"/>
		<g>
			<path fill="#484848" d="M30.8,217c0.5,0,0.8,0.3,0.8,0.7l0,3.1c0,0.5-0.3,0.8-0.8,0.8l-3.1,0c0,0,0,0,0,0c-0.4,0-0.8-0.3-0.8-0.8
				l0-3.1c0-0.4,0.4-0.7,0.8-0.7L30.8,217C30.8,217,30.8,217,30.8,217 M30.8,215L30.8,215l-3.1,0c-0.7,0-1.3,0.2-1.9,0.7
				c-0.6,0.5-0.9,1.3-0.9,2l0,3.1c0,1.5,1.3,2.8,2.8,2.8l3.1,0c1.6,0,2.8-1.2,2.8-2.8l0-3.1C33.6,216.2,32.4,215,30.8,215L30.8,215z
				"/>
		</g>
	</g>
	<line fill="#35BFDC" stroke="#484848" stroke-width="2" stroke-miterlimit="22.9256" x1="32.3" y1="219.6" x2="37.1" y2="218.1"/>
	<g>
		<path fill-rule="evenodd" clip-rule="evenodd" fill="#35BFDC" d="M19,222.7c-1,0-1.8-0.8-1.8-1.8l0-3.1c0-1,0.8-1.7,1.8-1.7l3.1,0
			c0.4,0,0.9,0.2,1.2,0.5c0.4,0.3,0.6,0.8,0.6,1.3l0,3.1c0,1-0.8,1.8-1.8,1.8L19,222.7z"/>
		<g>
			<path fill="#484848" d="M19,217.1C19,217.1,19,217.1,19,217.1l3.1,0c0.4,0,0.8,0.3,0.8,0.7l0,3.1c0,0.5-0.4,0.8-0.8,0.8
				c0,0,0,0,0,0l-3.1,0c-0.5,0-0.8-0.3-0.8-0.8l0-3.1C18.3,217.4,18.6,217.1,19,217.1 M19.1,215.1L19.1,215.1L19.1,215.1L19.1,215.1
				c-1.6,0-2.8,1.2-2.8,2.7l0,3.1c0,1.6,1.2,2.8,2.8,2.8l3.1,0c1.5,0,2.8-1.3,2.8-2.8l0-3.1c0-0.8-0.3-1.5-0.9-2
				c-0.5-0.4-1.2-0.7-1.9-0.7L19.1,215.1L19.1,215.1z"/>
		</g>
	</g>
	<line fill="#35BFDC" stroke="#484848" stroke-width="2" stroke-miterlimit="22.9256" x1="17.4" y1="219.6" x2="12.7" y2="218.1"/>
</g>
<g>
	<g>
		<path fill-rule="evenodd" clip-rule="evenodd" fill="#35BFDC" d="M77.7,222.6c-1,0-1.8-0.8-1.8-1.8l0-3.1c0-0.5,0.2-0.9,0.6-1.3
			c0.3-0.3,0.8-0.5,1.2-0.5l3.1,0c1,0,1.8,0.8,1.8,1.7l0,3.1c0,1-0.8,1.8-1.8,1.8L77.7,222.6L77.7,222.6z"/>
		<g>
			<path fill="#484848" d="M80.8,217c0.5,0,0.8,0.3,0.8,0.7l0,3.1c0,0.5-0.3,0.8-0.8,0.8l-3.1,0c0,0,0,0,0,0c-0.4,0-0.8-0.3-0.8-0.8
				l0-3.1c0-0.4,0.4-0.7,0.8-0.7L80.8,217C80.8,217,80.8,217,80.8,217 M80.8,215L80.8,215l-3.1,0c-0.7,0-1.3,0.2-1.9,0.7
				c-0.6,0.5-0.9,1.3-0.9,2l0,3.1c0,1.5,1.3,2.8,2.8,2.8l3.1,0c1.6,0,2.8-1.2,2.8-2.8l0-3.1C83.6,216.2,82.4,215,80.8,215L80.8,215z
				"/>
		</g>
	</g>
	<line fill="#35BFDC" stroke="#484848" stroke-width="2" stroke-miterlimit="22.9256" x1="82.3" y1="219.6" x2="87.1" y2="218.1"/>
	<g>
		<path fill-rule="evenodd" clip-rule="evenodd" fill="#35BFDC" d="M69,222.7c-1,0-1.8-0.8-1.8-1.8l0-3.1c0-1,0.8-1.7,1.8-1.7l3.1,0
			c0.4,0,0.9,0.2,1.2,0.5c0.4,0.3,0.6,0.8,0.6,1.3l0,3.1c0,1-0.8,1.8-1.8,1.8L69,222.7z"/>
		<g>
			<path fill="#484848" d="M69,217.1C69,217.1,69,217.1,69,217.1l3.1,0c0.4,0,0.8,0.3,0.8,0.7l0,3.1c0,0.5-0.4,0.8-0.8,0.8
				c0,0,0,0,0,0l-3.1,0c-0.5,0-0.8-0.3-0.8-0.8l0-3.1C68.3,217.4,68.6,217.1,69,217.1 M69.1,215.1L69.1,215.1L69.1,215.1L69.1,215.1
				c-1.6,0-2.8,1.2-2.8,2.7l0,3.1c0,1.6,1.2,2.8,2.8,2.8l3.1,0c1.5,0,2.8-1.3,2.8-2.8l0-3.1c0-0.8-0.3-1.5-0.9-2
				c-0.5-0.4-1.2-0.7-1.9-0.7L69.1,215.1L69.1,215.1z"/>
		</g>
	</g>
	<line fill="#35BFDC" stroke="#484848" stroke-width="2" stroke-miterlimit="22.9256" x1="67.4" y1="219.6" x2="62.7" y2="218.1"/>
</g>
<g>
	<g>
		<path fill-rule="evenodd" clip-rule="evenodd" fill="#35BFDC" d="M127.7,222.6c-1,0-1.8-0.8-1.8-1.8l0-3.1c0-0.5,0.2-0.9,0.6-1.3
			c0.3-0.3,0.8-0.5,1.2-0.5l3.1,0c1,0,1.8,0.8,1.8,1.7l0,3.1c0,1-0.8,1.8-1.8,1.8L127.7,222.6L127.7,222.6z"/>
		<g>
			<path fill="#484848" d="M130.8,217c0.5,0,0.8,0.3,0.8,0.7l0,3.1c0,0.5-0.3,0.8-0.8,0.8l-3.1,0c0,0,0,0,0,0
				c-0.4,0-0.8-0.3-0.8-0.8l0-3.1c0-0.4,0.4-0.7,0.8-0.7L130.8,217C130.8,217,130.8,217,130.8,217 M130.8,215L130.8,215l-3.1,0
				c-0.7,0-1.3,0.2-1.9,0.7c-0.6,0.5-0.9,1.3-0.9,2l0,3.1c0,1.5,1.3,2.8,2.8,2.8l3.1,0c1.6,0,2.8-1.2,2.8-2.8l0-3.1
				C133.6,216.2,132.4,215,130.8,215L130.8,215z"/>
		</g>
	</g>
	
		<line fill="#35BFDC" stroke="#484848" stroke-width="2" stroke-miterlimit="22.9256" x1="132.3" y1="219.6" x2="137.1" y2="218.1"/>
	<g>
		<path fill-rule="evenodd" clip-rule="evenodd" fill="#35BFDC" d="M119,222.7c-1,0-1.8-0.8-1.8-1.8l0-3.1c0-1,0.8-1.7,1.8-1.7
			l3.1,0c0.4,0,0.9,0.2,1.2,0.5c0.4,0.3,0.6,0.8,0.6,1.3l0,3.1c0,1-0.8,1.8-1.8,1.8L119,222.7z"/>
		<g>
			<path fill="#484848" d="M119,217.1C119,217.1,119,217.1,119,217.1l3.1,0c0.4,0,0.8,0.3,0.8,0.7l0,3.1c0,0.5-0.4,0.8-0.8,0.8
				c0,0,0,0,0,0l-3.1,0c-0.5,0-0.8-0.3-0.8-0.8l0-3.1C118.3,217.4,118.6,217.1,119,217.1 M119.1,215.1L119.1,215.1L119.1,215.1
				L119.1,215.1c-1.6,0-2.8,1.2-2.8,2.7l0,3.1c0,1.6,1.2,2.8,2.8,2.8l3.1,0c1.5,0,2.8-1.3,2.8-2.8l0-3.1c0-0.8-0.3-1.5-0.9-2
				c-0.5-0.4-1.2-0.7-1.9-0.7L119.1,215.1L119.1,215.1z"/>
		</g>
	</g>
	
		<line fill="#35BFDC" stroke="#484848" stroke-width="2" stroke-miterlimit="22.9256" x1="117.4" y1="219.6" x2="112.7" y2="218.1"/>
</g>
<g>
	<g>
		<path fill-rule="evenodd" clip-rule="evenodd" fill="#35BFDC" d="M34,121.7c-1,0-1.8-0.8-1.8-1.8l0-3.1c0-1,0.8-1.7,1.8-1.7l1.1,0
			c0.4,0,0.9,0.2,1.2,0.5c0.4,0.3,0.6,0.8,0.6,1.3l0,3.1c0,1-0.8,1.8-1.8,1.8L34,121.7z"/>
		<g>
			<path fill="#484848" d="M34,116.1C34,116.1,34,116.1,34,116.1l1.1,0c0.4,0,0.8,0.3,0.8,0.7l0,3.1c0,0.5-0.4,0.8-0.8,0.8
				c0,0,0,0,0,0l-1.1,0c-0.5,0-0.8-0.3-0.8-0.8l0-3.1C33.3,116.4,33.6,116.1,34,116.1 M34.1,114.1L34.1,114.1L34.1,114.1
				c-1.6,0-2.8,1.2-2.8,2.7l0,3.1c0,1.6,1.2,2.8,2.8,2.8l1.1,0c1.5,0,2.8-1.3,2.8-2.8l0-3.1c0-0.8-0.3-1.5-0.9-2
				c-0.5-0.4-1.2-0.7-1.9-0.7L34.1,114.1L34.1,114.1L34.1,114.1z"/>
		</g>
	</g>
	<line fill="#35BFDC" stroke="#484848" stroke-width="2" stroke-miterlimit="22.9256" x1="32.6" y1="117.9" x2="23.1" y2="115.7"/>
</g>
<g>
	<g>
		<path fill-rule="evenodd" clip-rule="evenodd" fill="#35BFDC" d="M84,121.7c-1,0-1.8-0.8-1.8-1.8l0-3.1c0-1,0.8-1.7,1.8-1.7l1.1,0
			c0.4,0,0.9,0.2,1.2,0.5c0.4,0.3,0.6,0.8,0.6,1.3l0,3.1c0,1-0.8,1.8-1.8,1.8L84,121.7z"/>
		<g>
			<path fill="#484848" d="M84,116.1C84,116.1,84,116.1,84,116.1l1.1,0c0.4,0,0.8,0.3,0.8,0.7l0,3.1c0,0.5-0.4,0.8-0.8,0.8
				c0,0,0,0,0,0l-1.1,0c-0.5,0-0.8-0.3-0.8-0.8l0-3.1C83.3,116.4,83.6,116.1,84,116.1 M84.1,114.1L84.1,114.1L84.1,114.1
				c-1.6,0-2.8,1.2-2.8,2.7l0,3.1c0,1.6,1.2,2.8,2.8,2.8l1.1,0c1.5,0,2.8-1.3,2.8-2.8l0-3.1c0-0.8-0.3-1.5-0.9-2
				c-0.5-0.4-1.2-0.7-1.9-0.7L84.1,114.1L84.1,114.1L84.1,114.1z"/>
		</g>
	</g>
	<line fill="#35BFDC" stroke="#484848" stroke-width="2" stroke-miterlimit="22.9256" x1="82.6" y1="117.9" x2="73.1" y2="115.7"/>
</g>
<g>
	<g>
		<path fill-rule="evenodd" clip-rule="evenodd" fill="#35BFDC" d="M134,121.7c-1,0-1.8-0.8-1.8-1.8l0-3.1c0-1,0.8-1.7,1.8-1.7
			l1.1,0c0.4,0,0.9,0.2,1.2,0.5c0.4,0.3,0.6,0.8,0.6,1.3l0,3.1c0,1-0.8,1.8-1.8,1.8L134,121.7z"/>
		<g>
			<path fill="#484848" d="M134,116.1C134,116.1,134,116.1,134,116.1l1.1,0c0.4,0,0.8,0.3,0.8,0.7l0,3.1c0,0.5-0.4,0.8-0.8,0.8
				c0,0,0,0,0,0l-1.1,0c-0.5,0-0.8-0.3-0.8-0.8l0-3.1C133.3,116.4,133.6,116.1,134,116.1 M134.1,114.1L134.1,114.1L134.1,114.1
				c-1.6,0-2.8,1.2-2.8,2.7l0,3.1c0,1.6,1.2,2.8,2.8,2.8l1.1,0c1.5,0,2.8-1.3,2.8-2.8l0-3.1c0-0.8-0.3-1.5-0.9-2
				c-0.5-0.4-1.2-0.7-1.9-0.7L134.1,114.1L134.1,114.1L134.1,114.1z"/>
		</g>
	</g>
	
		<line fill="#35BFDC" stroke="#484848" stroke-width="2" stroke-miterlimit="22.9256" x1="132.6" y1="117.9" x2="123.1" y2="115.7"/>
</g>
<g>
	<g>
		<path fill-rule="evenodd" clip-rule="evenodd" fill="#35BFDC" d="M114.9,171.7c-1,0-1.8-0.8-1.8-1.8l0-3.1c0-0.5,0.2-0.9,0.6-1.3
			c0.3-0.3,0.8-0.5,1.2-0.5l1.1,0c1,0,1.8,0.8,1.8,1.7l0,3.1c0,1-0.8,1.8-1.8,1.8L114.9,171.7L114.9,171.7z"/>
		<g>
			<path fill="#484848" d="M116,166.1c0.5,0,0.8,0.3,0.8,0.7l0,3.1c0,0.5-0.3,0.8-0.8,0.8l-1.1,0c0,0,0,0,0,0
				c-0.4,0-0.8-0.3-0.8-0.8l0-3.1c0-0.4,0.4-0.7,0.8-0.7L116,166.1C116,166.1,116,166.1,116,166.1 M116,164.1L116,164.1l-1.1,0
				c-0.7,0-1.3,0.2-1.9,0.7c-0.6,0.5-0.9,1.3-0.9,2l0,3.1c0,1.5,1.3,2.8,2.8,2.8l1.1,0c1.6,0,2.8-1.2,2.8-2.8l0-3.1
				C118.8,165.3,117.5,164.1,116,164.1L116,164.1z"/>
		</g>
	</g>
	<line fill="#35BFDC" stroke="#484848" stroke-width="2" stroke-miterlimit="22.9256" x1="117.4" y1="167.9" x2="127" y2="165.7"/>
</g>
<g>
	<g>
		<path fill-rule="evenodd" clip-rule="evenodd" fill="#35BFDC" d="M64.9,171.7c-1,0-1.8-0.8-1.8-1.8l0-3.1c0-0.5,0.2-0.9,0.6-1.3
			c0.3-0.3,0.8-0.5,1.2-0.5l1.1,0c1,0,1.8,0.8,1.8,1.7l0,3.1c0,1-0.8,1.8-1.8,1.8L64.9,171.7L64.9,171.7z"/>
		<g>
			<path fill="#484848" d="M66,166.1c0.5,0,0.8,0.3,0.8,0.7l0,3.1c0,0.5-0.3,0.8-0.8,0.8l-1.1,0c0,0,0,0,0,0c-0.4,0-0.8-0.3-0.8-0.8
				l0-3.1c0-0.4,0.4-0.7,0.8-0.7L66,166.1C66,166.1,66,166.1,66,166.1 M66,164.1L66,164.1l-1.1,0c-0.7,0-1.3,0.2-1.9,0.7
				c-0.6,0.5-0.9,1.3-0.9,2l0,3.1c0,1.5,1.3,2.8,2.8,2.8l1.1,0c1.6,0,2.8-1.2,2.8-2.8l0-3.1C68.8,165.3,67.5,164.1,66,164.1
				L66,164.1z"/>
		</g>
	</g>
	<line fill="#35BFDC" stroke="#484848" stroke-width="2" stroke-miterlimit="22.9256" x1="67.4" y1="167.9" x2="77" y2="165.7"/>
</g>
<g>
	<g>
		<path fill-rule="evenodd" clip-rule="evenodd" fill="#35BFDC" d="M14.9,171.7c-1,0-1.8-0.8-1.8-1.8l0-3.1c0-0.5,0.2-0.9,0.6-1.3
			c0.3-0.3,0.8-0.5,1.2-0.5l1.1,0c1,0,1.8,0.8,1.8,1.7l0,3.1c0,1-0.8,1.8-1.8,1.8L14.9,171.7z"/>
		<g>
			<path fill="#484848" d="M16,166.1c0.5,0,0.8,0.3,0.8,0.7l0,3.1c0,0.5-0.3,0.8-0.8,0.8l-1.1,0c0,0,0,0,0,0c-0.4,0-0.8-0.3-0.8-0.8
				l0-3.1c0-0.4,0.4-0.7,0.8-0.7L16,166.1C16,166.1,16,166.1,16,166.1 M16,164.1L16,164.1l-1.1,0c-0.7,0-1.3,0.2-1.9,0.7
				c-0.6,0.5-0.9,1.3-0.9,2l0,3.1c0,1.5,1.3,2.8,2.8,2.8l1.1,0c1.6,0,2.8-1.2,2.8-2.8l0-3.1C18.8,165.3,17.5,164.1,16,164.1
				L16,164.1z"/>
		</g>
	</g>
	<line fill="#35BFDC" stroke="#484848" stroke-width="2" stroke-miterlimit="22.9256" x1="17.4" y1="167.9" x2="27" y2="165.7"/>
</g>
</svg>
