<svg version="1.1" xmlns="http://www.w3.org/2000/svg" xmlns:xlink="http://www.w3.org/1999/xlink"
	x="0px" y="0px" width="100px"
	height="100px" viewBox="0 0 100 100" enable-background="new 0 0 100 100" xml:space="preserve">
<symbol id="home" viewBox="0 0 100 100">
	<g>
		<polygon fill-rule="evenodd" clip-rule="evenodd" points="69.55,12.59 82.382,12.59 82.382,35.103 94.585,45.943 82.382,45.943 
			50,17.186 17.618,45.943 5.415,45.943 50,6.354 69.55,23.708 		"/>
		<polygon fill-rule="evenodd" clip-rule="evenodd" points="82.382,52.253 82.382,93.646 60.775,93.646 60.775,65.142 
			39.225,65.142 39.225,93.646 17.618,93.646 17.618,52.253 50,23.503 		"/>
	</g>
</symbol>
<symbol id="plus" viewBox="0 0 100 100">
	<polygon fill-rule="evenodd" clip-rule="evenodd" points="5.864,57.053 5.864,42.947 42.947,42.947 42.947,5.864 57.053,5.864 
		57.053,42.947 94.137,42.947 94.137,57.053 57.053,57.053 57.053,94.137 42.947,94.137 42.947,57.053 	"/>
</symbol>
<symbol id="minus" viewBox="0 0 100 100">
	<rect x="5.872" y="42.947" fill-rule="evenodd" clip-rule="evenodd" width="88.256" height="14.105"/>
</symbol>
<symbol id="previous" viewBox="0 0 100 100">
	<polygon fill-rule="evenodd" clip-rule="evenodd" points="76.814,16.189 66.905,6.28 23.185,50 66.905,93.72 76.814,83.811 
		43.013,50 	"/>
</symbol>
<symbol id="triangle" viewBox="0 0 100 100">
	<polygon fill-rule="evenodd" clip-rule="evenodd" points="6.793,19.229 93.207,19.229 49.999,80.771 	"/>
</symbol>
<symbol id="menu" viewBox="0 0 100 100">
	<rect x="5.872" y="42.947" display="inline" fill-rule="evenodd" clip-rule="evenodd" width="88.256" height="14.105"/>
	<rect x="5.872" y="12.947" display="inline" fill-rule="evenodd" clip-rule="evenodd" width="88.256" height="14.105"/>
	<rect x="5.872" y="72.947" display="inline" fill-rule="evenodd" clip-rule="evenodd" width="88.256" height="14.105"/>
</symbol>
<symbol id="instagram" viewBox="0 0 100 100">
	<path d="M69.481,5.389H29.839c-13.451,0-24.356,10.905-24.356,24.355v39.642c0,13.454,10.905,24.357,24.356,24.357h39.643
		c13.451,0,24.355-10.903,24.355-24.357V29.745C93.837,16.294,82.933,5.389,69.481,5.389z M86.697,69.286
		c0,9.565-7.752,17.316-17.316,17.316H29.939c-9.564,0-17.316-7.751-17.316-17.316V29.845c0-9.564,7.752-17.316,17.316-17.316
		h39.441c9.564,0,17.316,7.752,17.316,17.316V69.286z"/>
	<path d="M49.659,26.282c-12.858,0-23.283,10.425-23.283,23.286c0,12.856,10.425,23.281,23.283,23.281
		c12.86,0,23.285-10.425,23.285-23.281C72.944,36.707,62.52,26.282,49.659,26.282z M49.659,64.752
		c-8.388,0-15.186-6.799-15.186-15.184c0-8.389,6.798-15.188,15.186-15.188s15.188,6.8,15.188,15.188
		C64.847,57.953,58.047,64.752,49.659,64.752z"/>
	<circle cx="73.735" cy="25.509" r="5.223"/>
</symbol>
<symbol id="facebook" viewBox="0 0 100 100">
	<path d="M63.795,53.111H50.896V94.62H31.773V53.111H22.68v-16.25h9.094V26.346c0-7.519,3.572-19.295,19.294-19.295l14.164,0.061
		v15.772H54.952c-1.685,0-4.057,0.842-4.057,4.429v9.564h14.569L63.795,53.111z M66.023,53.599"/>
</symbol>
<symbol id="twitter" viewBox="0 0 100 100">
	<path d="M95.157,26.082c-3.107,1.378-6.45,2.311-9.954,2.727c3.578-2.144,6.324-5.537,7.622-9.585
		c-3.349,1.986-7.058,3.428-11.006,4.204c-3.16-3.366-7.665-5.471-12.651-5.471c-9.569,0-17.331,7.76-17.331,17.33
		c0,1.358,0.155,2.68,0.452,3.95c-14.403-0.723-27.172-7.622-35.72-18.108c-1.491,2.559-2.346,5.538-2.346,8.712
		c0,6.012,3.061,11.317,7.709,14.424c-2.841-0.09-5.513-0.867-7.85-2.169c-0.002,0.073-0.002,0.148-0.002,0.221
		c0,8.396,5.976,15.399,13.902,16.99c-1.452,0.396-2.984,0.609-4.564,0.609c-1.121,0-2.204-0.108-3.261-0.311
		c2.204,6.884,8.602,11.893,16.188,12.035c-5.933,4.65-13.403,7.418-21.525,7.418c-1.396,0-2.777-0.082-4.131-0.243
		c7.667,4.919,16.779,7.788,26.563,7.788c31.876,0,49.308-26.404,49.308-49.309c0-0.751-0.017-1.498-0.05-2.241
		C89.898,32.609,92.834,29.558,95.157,26.082L95.157,26.082z M95.157,26.082"/>
</symbol>
<symbol id="youtube" viewBox="0 0 100 100">
	<path fill-rule="evenodd" clip-rule="evenodd" d="M91.949,33.736c0-7.044-5.706-12.753-12.748-12.753H19.4
		c-7.044,0-12.75,5.708-12.75,12.753v34.199c0,7.043,5.706,12.754,12.75,12.754h59.801c7.042,0,12.748-5.711,12.748-12.754V33.736z
		 M40.77,65.266V33.145l24.36,16.058L40.77,65.266z M40.77,65.266"/>
</symbol>
<symbol id="linkedin" viewBox="0 0 100 100">
	<g>
		<path d="M25.767,15.708c0,5.245-3.873,9.495-10.246,9.495c-5.992,0-9.866-4.25-9.866-9.495c0-5.373,3.998-9.495,10.118-9.495
			C21.894,6.213,25.643,10.334,25.767,15.708z M6.156,93.787v-61.09h18.985v61.09H6.156z"/>
		<path d="M36.377,52.028c0-7.619-0.252-13.991-0.5-19.491h16.488l0.877,8.496h0.376c2.5-3.998,8.62-9.87,18.866-9.87
			c12.492,0,21.861,8.372,21.861,26.36v36.108h-18.99V59.774c0-7.871-2.747-13.242-9.62-13.242c-5.247,0-8.368,3.625-9.745,7.118
			c-0.497,1.253-0.625,3-0.625,4.746v35.235H36.377V52.028z"/>
	</g>
</symbol>
<symbol id="discord" viewBox="0 0 25 25">
		<path d="M20.317 4.54101C18.7873 3.82774 17.147 3.30224 15.4319 3.00126C15.4007 2.99545 15.3695 3.00997 15.3534 3.039C15.1424 3.4203 14.9087 3.91774 14.7451 4.30873C12.9004 4.02808 11.0652 4.02808 9.25832 4.30873C9.09465 3.90905 8.85248 3.4203 8.64057 3.039C8.62448 3.01094 8.59328 2.99642 8.56205 3.00126C6.84791 3.30128 5.20756 3.82678 3.67693 4.54101C3.66368 4.54681 3.65233 4.5565 3.64479 4.56907C0.533392 9.29283 -0.31895 13.9005 0.0991801 18.451C0.101072 18.4733 0.11337 18.4946 0.130398 18.5081C2.18321 20.0401 4.17171 20.9701 6.12328 21.5866C6.15451 21.5963 6.18761 21.5847 6.20748 21.5585C6.66913 20.9179 7.08064 20.2424 7.43348 19.532C7.4543 19.4904 7.43442 19.441 7.39186 19.4246C6.73913 19.173 6.1176 18.8662 5.51973 18.5178C5.47244 18.4897 5.46865 18.421 5.51216 18.3881C5.63797 18.2923 5.76382 18.1926 5.88396 18.0919C5.90569 18.0736 5.93598 18.0697 5.96153 18.0813C9.88928 19.9036 14.1415 19.9036 18.023 18.0813C18.0485 18.0687 18.0788 18.0726 18.1015 18.091C18.2216 18.1916 18.3475 18.2923 18.4742 18.3881C18.5177 18.421 18.5149 18.4897 18.4676 18.5178C17.8697 18.8729 17.2482 19.173 16.5945 19.4236C16.552 19.4401 16.533 19.4904 16.5538 19.532C16.9143 20.2414 17.3258 20.9169 17.7789 21.5576C17.7978 21.5847 17.8319 21.5963 17.8631 21.5866C19.8241 20.9701 21.8126 20.0401 23.8654 18.5081C23.8834 18.4946 23.8948 18.4742 23.8967 18.452C24.3971 13.1911 23.0585 8.6212 20.3482 4.57004C20.3416 4.5565 20.3303 4.54681 20.317 4.54101ZM8.02002 15.6802C6.8375 15.6802 5.86313 14.577 5.86313 13.222C5.86313 11.8671 6.8186 10.7639 8.02002 10.7639C9.23087 10.7639 10.1958 11.8768 10.1769 13.222C10.1769 14.577 9.22141 15.6802 8.02002 15.6802ZM15.9947 15.6802C14.8123 15.6802 13.8379 14.577 13.8379 13.222C13.8379 11.8671 14.7933 10.7639 15.9947 10.7639C17.2056 10.7639 18.1705 11.8768 18.1516 13.222C18.1516 14.577 17.2056 15.6802 15.9947 15.6802Z"></path>
</symbol>
<symbol id="github" viewBox="0 0 100 100">
	<g>
		<defs>
			<rect id="SVGID_1_" x="6.539" y="7.208" width="86.923" height="85.584"/>
		</defs>
		<clipPath id="SVGID_2_">
			<use xlink:href="#SVGID_1_"  overflow="visible"/>
		</clipPath>
		<path clip-path="url(#SVGID_2_)" d="M88.22,50.928c0-21.104-17.113-38.216-38.218-38.216c-21.108,0-38.219,17.112-38.219,38.216
			c0,16.755,10.781,30.989,25.782,36.148c0.915-0.657,1.968-1.471,1.968-2.843c0-2.103-0.045-7.512-0.045-7.512
			s-1.661,0.283-4.027,0.283c-5.967,0-7.851-3.787-8.751-5.906c-1.168-2.761-2.683-4.055-4.292-5.088
			c-0.989-0.638-1.216-1.388-0.071-1.605c5.28-0.983,6.628,5.959,10.156,7.064c2.516,0.79,5.752,0.448,7.362-0.589
			c0.214-2.119,1.749-3.951,3.032-4.919c-8.972-0.858-14.288-3.955-17.046-8.937l-0.296-0.557l-0.693-1.582l-0.204-0.566
			c-0.865-2.527-1.245-5.423-1.245-8.657c0-5.74,1.799-7.907,4.213-10.967C25.779,28.151,28.29,23.68,28.29,23.68
			s3.881-0.803,11.219,4.426c3.977-1.698,14.583-1.838,19.598-0.378c3.08-2.023,8.713-4.896,10.986-4.092
			c0.619,0.986,1.941,3.858,0.803,10.166c0.777,1.385,4.784,4.333,4.801,12.665c-0.065,3.073-0.388,5.673-0.983,7.867l-0.332,1.119
			c0,0-0.188,0.53-0.392,1.037l-0.247,0.559c-2.659,5.808-8.117,7.979-16.936,8.881c2.859,1.79,3.675,4.034,3.675,10.108
			c0,6.077-0.079,6.891-0.059,8.289c0.016,1.237,1,2.122,1.892,2.793C77.375,81.996,88.22,67.729,88.22,50.928"/>
	</g>
</symbol>
<symbol id="eye_close" viewBox="0 0 100 100">
	<rect x="45.166" y="3.666" transform="matrix(0.7048 -0.7094 0.7094 0.7048 -20.7106 50.2321)" fill="evenodd" width="9.666" height="92.668"/>
	<g>
		<path fill="evenodd" d="M43.549,29.132c2.039-0.63,4.205-0.97,6.451-0.97c12.06,0,21.837,9.777,21.837,21.837
			c0,2.196-0.328,4.315-0.931,6.315l10.492,10.425C89.732,60.761,95.292,53.814,96.38,50c-2.331-7.205-22.199-27.667-46.366-27.667
			c-4.063,0-8,0.571-11.756,1.542L43.549,29.132z"/>
		<path fill="evenodd" d="M56.451,70.868c-2.039,0.63-4.205,0.97-6.451,0.97c-12.06,0-21.837-9.778-21.837-21.838
			c0-2.196,0.328-4.314,0.931-6.313L18.601,33.261C10.267,39.239,4.708,46.186,3.621,50H3.62c2.33,7.205,22.198,27.666,46.366,27.666
			c4.063,0,7.999-0.571,11.756-1.542L56.451,70.868z"/>
	</g>
</symbol>
<symbol id="eye_open" viewBox="0 0 100 100">
	<path fill="evenodd" d="M50.014,22.333C25.727,22.333,5.79,42.396,3.621,50H3.62c2.33,7.205,22.198,27.666,46.366,27.666
	c24.286,0,44.225-20.062,46.394-27.666C94.049,42.795,74.181,22.333,50.014,22.333z M50,71.838c-12.06,0-21.837-9.778-21.837-21.838
	S37.94,28.163,50,28.163S71.837,37.939,71.837,50S62.06,71.838,50,71.838z"/>
</symbol>
</svg>