<svg version="1.1" id="Layer_8" xmlns="http://www.w3.org/2000/svg" x="0" y="0" width="1101.334" height="1356" viewBox="0 0 1101.334 1356" xml:space="preserve"><style>.animation2{ animation: animation2 2s infinite linear; } @keyframes animation2 { 0%, 100%, 90%{ opacity: 1; transform: scaleY(1.0); } 95% { opacity: 0; transform: scaleY(0.2); } }</style><g><g><path fill-rule="evenodd" clip-rule="evenodd" fill="#BBB" d="M669.344 825.47c-82.553 0-172.896-21.529-357.143-73.03l-14.867-4.156 8.705-27.998c33.264-106.84 67.66-217.317 64.517-324.933l-.449-15.389 615.953-1.958-.352 15.391c-2.459 107.637 32.641 217.897 66.584 324.527l9.118 28.68-15.794 3.69c-51.727 12.086-95.292 22.919-133.729 32.478-107.074 26.626-171.705 42.698-242.543 42.698z"/><path fill="#464646" d="M970.712 393.055c-2.622 114.742 36.701 233.129 71.491 342.633-197.155 46.065-279.249 74.782-372.86 74.782-81.332 0-171.355-21.673-353.104-72.477C350.33 628.275 388.9 509.638 385.55 394.915l128.599-.41 361.7-1.149 94.863-.301m30.696-30.098l-30.791.098-94.863.301-361.7 1.149-128.599.41-30.791.098.899 30.777c3.069 105.112-30.948 214.373-63.846 320.037-1.381 4.436-2.757 8.857-4.127 13.265l-9.161 29.482 29.733 8.312c185.643 51.892 276.856 73.584 361.181 73.584 72.675 0 137.978-16.239 246.166-43.142 38.388-9.546 81.897-20.366 133.52-32.428l31.588-7.381-9.822-30.916c-1.396-4.396-2.801-8.806-4.209-13.229-33.57-105.456-68.284-214.503-65.882-319.634l.704-30.783z"/></g><g><path fill="#FCE4BF" d="M571.837 1338.551c-28.65 0-52.034-23.307-52.126-51.955l-.437-137.585a51.683 51.683 0 011.242-11.469c-12.117-14.859-18.728-33.226-18.789-52.63l-.387-121.803a52.348 52.348 0 01-20.301 4.099 51.966 51.966 0 01-25.736-6.832L317.47 881.625a90.983 90.983 0 01-15.638 1.356 90.95 90.95 0 01-58.567-21.394c-6.328-5.338-7.135-14.793-1.804-21.126l29.049-34.505c.322-.938.67-1.867 1.045-2.785l-46.981-6.221c-8.211-1.087-13.987-8.625-12.902-16.836 4.556-34.469 27.835-62.87 60.752-74.119a90.711 90.711 0 0129.385-4.901c34.729 0 66.137 19.638 81.42 50.455l118.333 67.609c2.265-18.252 10.439-35.182 23.588-48.508 15.726-15.937 36.62-24.753 58.833-24.824l190.807-.606c45.053 0 81.96 36.264 83.295 81.294l15.618-9.056a52.043 52.043 0 0126.073-7.016c18.588 0 35.899 9.943 45.178 25.948l81.638 140.797c44.672 17.604 68.282 67.44 52.884 113.456-11.033 32.985-39.284 56.444-73.727 61.221-.698.098-1.394.145-2.079.145-7.369 0-13.796-5.432-14.838-12.938l-6.685-48.109-36.937 31.498a14.943 14.943 0 01-9.726 3.587 14.965 14.965 0 01-11.41-5.255 90.771 90.771 0 01-21.404-67.133l-44.074-76.015.337 106.134c.061 19.404-6.436 37.813-18.46 52.749a51.638 51.638 0 011.314 11.462l.439 137.579c.092 28.738-23.217 52.195-51.959 52.289l-41.454.132c-28.654 0-52.038-23.308-52.126-51.958l-.376-117.928-31.434.101.375 117.927c.045 13.884-5.349 26.98-15.187 36.878-9.836 9.895-22.896 15.367-36.776 15.41l-41.452.132z"/><path fill="#4F392A" d="M301.809 716.094c29.765.001 57.681 17.652 69.816 46.101l144.34 82.468-.047-14.808c-.122-37.865 30.51-68.908 68.113-69.028l190.542-.606h.217c37.527.002 68.211 30.83 68.333 68.596l.075 23.8a36.767 36.767 0 012.324-1.478l35.706-20.704a36.872 36.872 0 0118.549-4.992c12.829 0 25.337 6.631 32.201 18.471l84.404 145.568c.317.103.635.187.953.292 39.764 13.307 61.223 56.346 47.917 96.11-9.146 27.34-32.975 47.158-61.563 51.123l-9.892-71.191-16.488 9.559-41.832 35.673c-14.43-16.885-20.57-39.046-17.322-60.584l-74.739-128.901.516 162.265c.06 19.172-7.783 36.597-20.419 49.147a36.763 36.763 0 013.273 15.062l.439 137.581c.065 20.426-16.596 37.175-37.008 37.241l-41.287.132h-.118c-20.36 0-37.063-16.621-37.126-37.004l-.424-132.93-61.434.196.423 132.927c.066 20.423-16.597 37.178-37.009 37.24l-41.288.131h-.118c-20.358 0-37.061-16.621-37.126-37.003l-.437-137.585a36.758 36.758 0 013.18-15.081c-12.71-12.466-20.666-29.835-20.727-49.017l-.497-156.317-2.836 4.962c-6.843 11.98-19.442 18.698-32.355 18.698a36.79 36.79 0 01-18.296-4.856l-142.77-81.571a75.825 75.825 0 01-18.143 2.201 75.813 75.813 0 01-48.896-17.859l31.015-36.84a36.835 36.835 0 013.614-8.8l7.607-13.315-68.63-9.087c3.783-28.616 23.45-52.567 50.732-61.891a75.766 75.766 0 0124.538-4.096m.002-30a105.683 105.683 0 00-34.236 5.706 105.892 105.892 0 00-47.676 33.076 105.807 105.807 0 00-23.098 53.273c-2.171 16.423 9.381 31.498 25.804 33.672l21.018 2.783-13.636 16.197c-10.664 12.667-9.049 31.577 3.606 42.253 19.057 16.075 43.292 24.928 68.239 24.928 4.241 0 8.481-.256 12.691-.765L447.862 973.4a66.993 66.993 0 0038.539 8.594l.327 102.967c.064 20.526 6.344 40.066 17.949 56.514a67.276 67.276 0 00-.402 7.583l.437 137.586c.118 36.894 30.23 66.907 67.125 66.907h.166-.047.095l41.288-.131c17.883-.055 34.706-7.1 47.365-19.836 12.664-12.74 19.606-29.609 19.548-47.502l-.327-102.926 1.434-.004.328 102.93c.114 36.893 30.228 66.908 67.127 66.908h.165-.047.096l41.287-.132c37.015-.121 67.031-30.328 66.912-67.338l-.438-137.58a67.166 67.166 0 00-.45-7.578c11.503-16.521 17.66-36.101 17.596-56.629l-.159-50.006 13.629 23.506a105.756 105.756 0 0025.269 73.305c5.933 6.942 14.352 10.511 22.821 10.511a29.876 29.876 0 0019.452-7.174l16.112-13.74 2.918 21.002c2.085 15.01 14.94 25.875 29.677 25.875 1.373 0 2.761-.095 4.159-.288a105.805 105.805 0 0053.122-23.437 105.872 105.872 0 0032.77-47.886c17.363-51.889-7.851-107.95-56.646-130.071L957.93 828.866c-11.951-20.615-34.234-33.423-58.153-33.423-10.5 0-20.87 2.483-30.221 7.209-11.533-41.704-49.693-72.43-94.764-72.432h-.332l-190.523.605c-26.24.083-50.908 10.485-69.462 29.288-10.292 10.43-17.996 22.731-22.792 36.122l-97.209-55.539c-8.328-15.067-20.191-27.849-34.754-37.348-17.306-11.286-37.33-17.253-57.909-17.254z"/></g><g><path fill-rule="evenodd" clip-rule="evenodd" fill="#FCE4BF" d="M678.048 873.08c-77.532 0-150.63-17.672-205.831-49.76-57.76-33.576-89.655-79.177-89.812-128.403-.069-21.141 5.741-41.725 17.291-61.318-31.93-51.471-48.857-110.529-49.051-171.442-.277-87.545 33.548-169.956 95.246-232.05 61.697-62.094 143.881-96.444 231.416-96.723l1.06-.001c87.314 0 169.463 33.951 231.315 95.598 61.867 61.662 96.091 143.732 96.368 231.093.194 60.913-16.358 120.077-47.96 171.749 11.673 19.52 17.614 40.066 17.682 61.208.156 49.396-31.642 95.311-89.539 129.286-55.354 32.484-128.717 50.511-206.576 50.761l-1.609.002z"/><path fill="#4F392A" d="M678.367 148.383c172.238-.001 312.136 139.347 312.683 311.738.202 63.378-18.496 122.4-50.755 171.781 13.107 18.873 20.408 39.531 20.477 61.177.287 90.637-125.581 164.5-281.162 164.999l-1.562.002c-154.876 0-280.355-72.872-280.642-163.211-.071-21.646 7.099-42.35 20.086-61.303-32.572-49.177-51.645-108.081-51.847-171.457-.547-172.729 139.008-313.176 311.709-313.725l1.013-.001m.002-30h-.004l-1.104.001c-46.253.147-91.108 9.355-133.321 27.369-40.758 17.393-77.326 42.216-108.689 73.781-31.363 31.566-55.953 68.294-73.085 109.165-17.744 42.33-26.667 87.248-26.52 133.505.193 60.735 16.3 119.715 46.743 171.734-10.021 19.55-15.051 40.004-14.982 61.029.09 28.524 9.49 55.836 27.939 81.173 16.622 22.829 39.949 43.065 69.333 60.147 57.454 33.398 133.23 51.792 213.369 51.792.542 0 1.111-.001 1.654-.003 80.474-.258 156.517-19.018 214.123-52.823 29.438-17.275 52.77-37.691 69.348-60.68 18.404-25.521 27.689-52.972 27.599-81.591-.066-21.024-5.228-41.446-15.372-60.932 30.113-52.21 45.844-111.291 45.65-172.026-.146-46.165-9.32-90.942-27.266-133.09-17.327-40.693-42.062-77.223-73.518-108.575-31.45-31.347-68.055-55.958-108.798-73.149-42.188-17.802-86.969-26.828-133.1-26.828h.001v.001z"/></g><g><path fill-rule="evenodd" clip-rule="evenodd" fill="#A27556" d="M537.929 1267.826a15 15 0 01-14.559-11.39c-1.077-4.344-1.608-8.479-1.623-12.641l-.313-98.293c-14.599-16.473-22.9-38.229-22.973-60.668l-.027-8.873c-.025-8.283 6.668-15.02 14.952-15.046l338.175-1.072c8.261 0 14.972 6.683 14.999 14.95l.029 8.869c.071 22.425-8.105 44.235-22.618 60.815l.313 98.283c.01 4.182-.494 8.32-1.543 12.661a15.002 15.002 0 01-14.532 11.478l-113.298.364a15.001 15.001 0 01-14.56-11.394c-1.061-4.283-1.606-8.535-1.621-12.639l-.218-69.374-31.433.1.219 69.368c.014 4.101-.504 8.361-1.54 12.658a14.999 14.999 0 01-14.535 11.483c.002.003-113.278.361-113.294.361z"/><path fill="#4F392A" d="M851.561 1074.844l.029 8.869c.068 21.567-8.678 41.106-22.637 54.843l.332 104.254c.008 3.145-.417 6.164-1.124 9.091l-113.25.364c-.725-2.926-1.17-6.036-1.181-9.085l-.266-84.369-61.433.195.267 84.367c.011 3.051-.415 6.163-1.122 9.095l-113.248.358c-.726-2.926-1.171-5.941-1.182-9.084l-.332-104.256c-14.015-13.618-22.884-33.101-22.954-54.699l-.027-8.871 338.128-1.072m.002-30h-.097l-338.126 1.072c-16.567.053-29.956 13.525-29.905 30.093l.028 8.871c.077 24.09 8.333 47.522 22.99 66.08l.295 92.878c.02 5.388.694 10.685 2.063 16.208 3.319 13.386 15.334 22.78 29.118 22.78h.096l113.248-.358c13.823-.044 25.827-9.527 29.069-22.966 1.317-5.464 1.977-10.926 1.958-16.233l-.172-54.358 1.433-.004.171 54.368c.019 5.309.712 10.757 2.061 16.202 3.316 13.389 15.333 22.788 29.119 22.788h.098l113.249-.364c13.819-.045 25.819-9.522 29.065-22.955 1.315-5.444 1.976-10.899 1.962-16.211l-.295-92.857c5.75-7.334 10.5-15.414 14.183-24.144 5.632-13.349 8.464-27.518 8.418-42.115l-.029-8.874c-.057-16.534-13.479-29.901-30-29.901z"/></g><g><path fill-rule="evenodd" clip-rule="evenodd" fill="#E8AD0B" d="M232.855 844.295c-3.151 0-6.245-.993-8.825-2.871l-23.308-16.958c-6.699-4.874-8.178-14.255-3.304-20.954l88.625-121.811a14.98 14.98 0 0112.142-6.176c3.061 0 6.148.933 8.812 2.871l23.309 16.957a15 15 0 013.305 20.955L244.984 838.12a14.995 14.995 0 01-12.129 6.175z"/><g><path fill="#4F392A" d="M298.172 690.526l23.309 16.957-88.626 121.813-23.308-16.958 88.625-121.812m.025-30.003c-9.271 0-18.412 4.283-24.283 12.353l-88.625 121.812c-9.748 13.397-6.789 32.16 6.609 41.908l23.308 16.958a30.005 30.005 0 0022.323 5.375 29.997 29.997 0 0019.585-11.984l88.626-121.813a30 30 0 00-6.61-41.91l-23.309-16.957a29.878 29.878 0 00-17.624-5.742z"/></g></g><g><polygon fill-rule="evenodd" clip-rule="evenodd" fill="#BBB" points="18.346,641.363 27.975,525.804 253.688,690.02 
			195.379,770.165 		"/><path fill="#464646" d="M40.709 553.619l192.024 139.706-40.659 55.886L33.995 634.199l6.714-80.58m-25.468-55.63l-4.428 53.138-6.715 80.58-1.401 16.82 13.648 9.93 158.08 115.012 24.259 17.65 17.649-24.259 40.66-55.886 17.649-24.259-24.259-17.649L58.359 529.359l-43.118-31.37z"/></g><path opacity=".1" fill-rule="evenodd" clip-rule="evenodd" fill="#000001" d="M914.581 783.529c-50.243 44.632-136.665 74.222-234.974 74.533-155.574.496-281.908-72.549-282.196-163.204-.07-21.629 7.085-42.347 20.096-61.277-32.584-49.193-51.663-108.108-51.863-171.468-.411-129.276 77.661-240.44 189.358-288.44-71.084 57.55-116.459 145.612-116.146 244.201.2 63.363 19.278 122.275 51.862 171.469-13.011 18.934-20.166 39.651-20.096 61.281.287 90.654 126.624 163.696 282.196 163.203 60.25-.192 116.015-11.389 161.763-30.298z"/><path opacity=".3" fill-rule="evenodd" clip-rule="evenodd" fill="#FFF" d="M677.354 148.384c172.672-.549 313.147 139.008 313.696 311.737.202 63.378-18.496 122.4-50.755 171.811 13.108 18.842 20.408 39.5 20.477 61.146.269 84.969-110.342 155.194-252.397 164.05 138.751-8.931 223.326-79.042 191.609-163.855-8.072-21.623-23.036-42.255-43.148-61.078 53.943-190.049-43.102-449.351-305.896-456.748 38.627-17.269 81.379-26.919 126.414-27.063z"/><path class="animation2" fill-rule="evenodd" clip-rule="evenodd" fill="#FFF" d="M557.351 409.457l48.623-.154c24.042-.075 43.787 19.526 43.864 43.579l.515 162.03c.077 24.054-19.544 43.782-43.584 43.857l-48.625.156c-24.039.075-43.784-19.528-43.86-43.583l-.517-162.027c-.077-24.052 19.544-43.781 43.584-43.858z"/><path class="animation2" fill-rule="evenodd" clip-rule="evenodd" fill="#FFF" d="M750.361 408.845l48.623-.154c24.041-.077 43.787 19.527 43.865 43.579l.511 162.03c.078 24.051-19.542 43.779-43.583 43.857l-48.623.154c-24.042.078-43.787-19.525-43.862-43.579l-.516-162.03c-.075-24.053 19.546-43.781 43.585-43.857z"/><path class="animation" fill-rule="evenodd" clip-rule="evenodd" fill="#C8AA96" d="M623.959 558.018l.156 49.792c.048 14.797-11.993 26.914-26.789 26.963l-29.886.093c-14.795.049-26.913-11.993-26.959-26.789l-.16-49.791 83.638-.268z"/><path class="animation" fill-rule="evenodd" clip-rule="evenodd" fill="#C8AA96" d="M816.969 557.405l.158 49.793c.049 14.793-11.994 26.913-26.789 26.959l-29.885.096c-14.794.046-26.914-11.995-26.96-26.788l-.158-49.794 83.634-.266z"/><path fill-rule="evenodd" clip-rule="evenodd" fill="#B2B1B1" d="M677.008 38.672c149.455-.474 277.554 93.782 330.119 227.532l-658.82 2.093c51.713-134.081 179.21-229.15 328.701-229.625z"/><g><path fill-rule="evenodd" clip-rule="evenodd" fill="#BBB" d="M334.299 258.953c26.812-69.515 72.796-128.901 132.982-171.738 61.697-43.912 134.199-67.25 209.667-67.49l1.171-.002c75.221 0 147.608 22.986 209.338 66.473 60.233 42.433 106.437 101.416 133.616 170.573l8.024 20.417-702.693 2.234 7.895-20.467z"/><path fill="#464646" d="M678.12 34.724c148.974 0 276.562 94.118 328.994 227.533l-658.819 2.095C400.009 130.27 527.506 35.201 676.997 34.726l1.123-.002m.003-30c-.001 0-.001 0 0 0h-.003l-1.223.002c-78.582.25-154.075 24.549-218.313 70.269-30.889 21.984-58.421 48.424-81.833 78.583a394.318 394.318 0 00-56.447 99.978l-15.789 40.935 43.874-.14 658.82-2.095 43.874-.139-16.048-40.833a394.322 394.322 0 00-56.903-99.389c-23.52-29.949-51.121-56.178-82.037-77.957C831.82 28.658 756.446 4.724 678.123 4.724z"/></g><g><path fill-rule="evenodd" clip-rule="evenodd" fill="#BBB" d="M531.17 265.409c10.439-68.48 28.592-127.18 52.495-169.753 26.378-46.981 58.639-71.873 93.295-71.983h.228c34.598 0 66.959 24.73 93.585 71.517 24.136 42.412 42.635 100.95 53.498 169.288l2.75 17.299-298.489.949 2.638-17.317z"/><path fill="#464646" d="M677.188 38.671c59.691-.005 111.014 94.443 132.269 228.16l-263.458.838c20.424-133.981 71.228-228.807 131.009-228.997l.18-.001m.007-29.999h-.289c-28.15.09-69.454 13.979-106.32 79.64-24.778 44.132-43.536 104.589-54.245 174.836l-5.279 34.632 35.032-.111 263.458-.838 35.032-.112-5.5-34.598c-11.142-70.096-30.255-130.385-55.273-174.349-37.205-65.377-78.515-79.1-106.618-79.1h.002z"/></g><g><rect x="313.547" y="289.323" transform="rotate(180 677.997 349.162)" fill-rule="evenodd" clip-rule="evenodd" fill="#B2B1B1" width="728.911" height="119.661"/><path fill="#464646" d="M1027.315 303.214l.284 89.661-698.909 2.219-.284-89.662 698.909-2.218m29.905-30.095l-30 .095-698.908 2.219-30 .096.095 29.999.284 89.662.095 30 30-.096 698.909-2.219 30-.096-.095-29.999-.284-89.662-.096-29.999z"/></g><path opacity=".5" fill-rule="evenodd" clip-rule="evenodd" fill="#FFF" d="M1027.439 341.959l.16 50.916-698.906 2.22-.163-50.916 698.909-2.22z"/><polyline fill-rule="evenodd" clip-rule="evenodd" fill="#FFF" points="40.709,553.619 33.995,634.199 192.074,749.211 	"/></g></svg>