<svg version="1.1" id="Layer_6" xmlns="http://www.w3.org/2000/svg" x="0" y="0" width="1251.125" height="1524.152" viewBox="0 0 1251.125 1524.152" xml:space="preserve"><style>.animation2{ animation: animation2 1.2s infinite linear; } @keyframes animation2 { 0%, 100%, 90%{ opacity: 1; transform: scaleY(1.0); } 95% { opacity: 0; transform: scaleY(0.2); } }</style><g><g><path fill="#FCE4BF" d="M403.296 1495.348c-28.73 0-52.116-23.37-52.131-52.097l-.078-137.58a51.678 51.678 0 011.273-11.469c-12.078-14.891-18.642-33.274-18.652-52.679l-.059-106.11-39.788 69.218c4.514 26.332-2.843 53.647-20.228 74.149a14.966 14.966 0 01-11.448 5.299 14.94 14.94 0 01-9.683-3.551l-34.426-29.138a51.36 51.36 0 01-2.786-1.053l-6.345 46.964c-1.018 7.527-7.454 12.992-14.847 12.993-.668 0-1.343-.045-2.022-.137-34.46-4.646-62.799-27.999-73.957-60.946-7.411-21.875-6.258-45.514 3.249-66.561 8.73-19.328 23.74-34.831 42.593-44.124l82.813-144.069c9.261-16.107 26.609-26.113 45.277-26.113 9.072 0 18.03 2.393 25.903 6.918l15.641 8.991c.552-21.458 9.15-41.6 24.358-56.931 15.768-15.895 36.685-24.656 58.896-24.668l190.542-.106c41.293 0 75.653 30.313 82.24 69.953l121.407-69.969a89.541 89.541 0 013.849-6.692c16.766-26.417 45.441-42.188 76.708-42.188.745 0 1.491.009 2.239.027 8.276.204 14.822 7.074 14.627 15.35l-1.148 48.533 41.551-25.156a14.931 14.931 0 017.754-2.171c5.074 0 10.023 2.574 12.845 7.231 18.015 29.74 17.626 66.459-1.013 95.83-16.774 26.429-45.504 42.208-76.848 42.208h-.007a90.7 90.7 0 01-16.989-1.604l-143.521 82.713a51.922 51.922 0 01-25.899 6.93c-4.882 0-9.709-.697-14.338-2.023l.068 119.801c.01 19.406-6.535 37.799-18.598 52.703a51.683 51.683 0 011.285 11.462l.076 137.584c.014 28.741-23.357 52.137-52.098 52.153l-41.289.02c-28.752 0-52.135-23.368-52.154-52.091l-.065-117.927-31.435.018.065 117.926c.009 13.885-5.419 26.968-15.281 36.838-9.86 9.868-22.936 15.308-36.816 15.315l-41.285.023c-.001.003-.023.003-.025.003z"/><g><path fill="#4F392A" d="M891.597 868.655c.621 0 1.246.007 1.87.023l-1.796 75.893 64.963-39.331c14.953 24.686 14.601 55.679-.848 80.021-14.463 22.787-39.055 35.246-64.188 35.246a75.64 75.64 0 01-19.401-2.526l-148.601 85.64a36.746 36.746 0 01-18.409 4.926c-11.2 0-22.173-5.06-29.354-14.231l.084 147.018c.01 19.174-7.879 36.579-20.549 49.098a36.789 36.789 0 013.236 15.069l.076 137.582c.01 20.424-16.691 37.133-37.106 37.145l-41.287.02h-.022c-20.401 0-37.111-16.685-37.125-37.101l-.073-132.925-61.436.033.074 132.927c.013 20.425-16.69 37.133-37.106 37.145l-41.285.023h-.018c-20.406 0-37.12-16.686-37.131-37.104l-.078-137.581a36.773 36.773 0 013.222-15.075c-12.679-12.499-20.59-29.891-20.601-49.072l-.089-162.241-70.595 122.81c5.708 23.441-.048 48.383-15.831 66.996l-36.757-31.11a36.834 36.834 0 01-8.792-3.637l-13.295-7.643-9.269 68.604c-28.604-3.856-52.506-23.586-61.754-50.893-12.84-37.9 5.988-78.885 42.251-94.242l85.201-148.225c6.845-11.906 19.393-18.589 32.272-18.588a36.875 36.875 0 0118.428 4.923l35.783 20.57c.799.46 1.565.954 2.318 1.463l-.014-23.799c-.023-37.864 30.689-68.825 68.292-68.846l190.542-.106h.043c37.605.002 68.307 30.949 68.328 68.771l.006 11.479 146.729-84.563a76.369 76.369 0 015.046-9.359c13.938-21.958 38.116-35.227 64.046-35.227m0-30a106.1 106.1 0 00-50.971 13.089 106.187 106.187 0 00-38.401 36.059 103.968 103.968 0 00-2.317 3.835L698.83 949.891c-14.475-36.481-49.988-62.337-91.383-62.34h-.062l-190.542.106c-26.239.015-50.935 10.351-69.538 29.104-12.245 12.345-20.854 27.337-25.287 43.666a67.095 67.095 0 00-29.965-7.082c-24.021-.002-46.353 12.887-58.282 33.636l-80.631 140.274c-20.004 10.99-35.927 28.156-45.441 49.221-11.075 24.521-12.42 52.063-3.785 77.55a105.877 105.877 0 0032.948 47.762 105.798 105.798 0 0053.211 23.236c1.36.183 2.712.272 4.047.272 14.784 0 27.657-10.931 29.692-25.987l2.838-21.011 16.163 13.68a29.88 29.88 0 0019.366 7.102c8.51 0 16.962-3.601 22.896-10.599 19.039-22.454 27.756-51.922 24.367-80.857l9.238-16.071.027 49.979c.012 20.528 6.239 40.084 17.802 56.562a67.447 67.447 0 00-.423 7.58l.078 137.587c.02 36.992 30.134 67.088 67.131 67.088l41.32-.023c17.887-.011 34.727-7.011 47.418-19.713 12.696-12.706 19.682-29.558 19.671-47.45l-.058-102.925h1.436l.057 102.925c.024 36.992 30.137 67.084 67.124 67.084l41.325-.02c37.014-.021 67.109-30.148 67.092-67.159l-.076-137.584a67.438 67.438 0 00-.431-7.581c11.546-16.492 17.754-36.055 17.743-56.585l-.059-102.773a66.934 66.934 0 0032.722-8.934l138.899-80.048c4.672.629 9.391.945 14.118.945 17.501 0 34.894-4.375 50.296-12.651 15.928-8.559 29.49-21.187 39.222-36.519a105.882 105.882 0 0016.493-55.633 105.798 105.798 0 00-15.315-56.007c-5.641-9.313-15.54-14.461-25.688-14.461a29.86 29.86 0 00-15.509 4.341l-18.139 10.982.5-21.171c.393-16.555-12.703-30.296-29.257-30.701a102.61 102.61 0 00-2.602-.033z"/></g></g><path fill-rule="evenodd" clip-rule="evenodd" fill="#333" d="M509.694 1141.358c1.959-.002 36.535-58.871 73.851-107.037 33.609-4.779 94.687-23.933 94.687-23.933l-2.32 141.34-327.565-3.18-1.042-140.375s53.063 21.119 85.648 25.86c37.371 48.153 72.85 107.329 76.741 107.325z"/><g><path fill-rule="evenodd" clip-rule="evenodd" fill="#FCE4BF" d="M511.903 1030.154c-77.803 0-151.167-17.771-206.575-50.038-57.958-33.752-89.893-79.527-89.92-128.895-.012-21.142 5.854-41.711 17.453-61.274-31.796-51.554-48.568-110.656-48.604-171.571-.049-87.545 33.991-169.867 95.852-231.8 61.858-61.932 144.133-96.067 231.667-96.115h.188c87.5 0 169.771 34.063 231.654 95.915 61.889 61.854 95.999 144.116 96.049 231.632.032 60.914-16.674 120.035-48.411 171.625 11.621 19.549 17.509 40.112 17.521 61.257.026 49.396-31.893 95.227-89.877 129.05-55.438 32.337-128.849 50.171-206.709 50.216h-.288z"/><g><path fill="#4F392A" d="M511.963 305.46c172.63-.011 312.604 139.879 312.703 312.555.034 63.381-18.818 122.353-51.206 171.649 13.057 18.905 20.304 39.583 20.316 61.232.049 90.638-126.01 164.167-281.595 164.257h-.279c-155.463 0-281.444-73.354-281.495-163.941-.012-21.649 7.213-42.333 20.248-61.253-32.444-49.261-51.362-108.214-51.398-171.592-.097-172.73 139.826-312.812 312.527-312.907h.179m.021-30v30l-.008-30h-.191c-46.269.026-91.147 9.116-133.406 27.019-40.804 17.286-77.437 42.013-108.883 73.497-31.445 31.483-56.131 68.147-73.37 108.974-17.854 42.283-26.894 87.178-26.868 133.436.035 60.736 15.987 119.759 46.295 171.856-10.071 19.523-15.156 39.965-15.145 60.988.016 28.604 9.393 56.006 27.87 81.446 16.645 22.917 40.028 43.24 69.501 60.403 57.665 33.582 133.709 52.076 214.124 52.076h.279c80.489-.046 156.581-18.605 214.275-52.259 29.483-17.198 52.868-37.551 69.507-60.496 18.471-25.472 27.828-52.898 27.813-81.518-.013-21.027-5.12-41.463-15.213-60.975 30.249-52.132 46.135-111.172 46.103-171.908-.026-46.241-9.11-91.11-26.998-133.36-17.272-40.795-41.981-77.423-73.44-108.869-31.46-31.445-68.098-56.136-108.896-73.386-42.253-17.865-87.119-26.924-133.349-26.924z"/></g></g><path opacity=".1" fill-rule="evenodd" clip-rule="evenodd" fill="#000001" d="M747.35 941.221c-50.358 44.501-136.859 73.866-235.171 73.92-155.571.089-281.717-73.287-281.768-163.942-.01-21.628 7.197-42.328 20.257-61.227-32.455-49.277-51.377-108.24-51.414-171.604-.071-129.275 78.29-240.235 190.113-287.944-71.234 57.366-116.84 145.308-116.785 243.897.036 63.364 18.959 122.328 51.414 171.605-13.06 18.896-20.269 39.597-20.255 61.227.05 90.653 126.191 164.03 281.766 163.941 60.25-.03 116.045-11.081 161.843-29.873z"/><path opacity=".3" fill-rule="evenodd" clip-rule="evenodd" fill="#FFF" d="M511.785 305.46c172.675-.097 312.783 139.826 312.882 312.555.034 63.381-18.818 122.353-51.206 171.678 13.057 18.876 20.304 39.555 20.316 61.204.046 84.97-110.749 154.903-252.822 163.384 138.771-8.564 223.529-78.456 192.035-163.351-8.017-21.644-22.926-42.315-42.989-61.189 54.44-189.91-41.924-449.465-304.7-457.549 38.673-17.169 81.451-26.707 126.484-26.732z"/><path class="animation2" fill-rule="evenodd" clip-rule="evenodd" fill="#FFF" d="M391.102 566.217l48.621-.026c24.042-.014 43.734 19.642 43.75 43.694l.09 162.031c.015 24.053-19.659 43.73-43.699 43.743l-48.623.027c-24.04.013-43.734-19.644-43.747-43.693l-.092-162.032c-.013-24.052 19.658-43.729 43.7-43.744z"/><path class="animation2" fill-rule="evenodd" clip-rule="evenodd" fill="#FFF" d="M584.111 566.11l48.625-.027c24.041-.013 43.732 19.642 43.748 43.694l.09 162.032c.014 24.05-19.657 43.728-43.699 43.743l-48.622.027c-24.041.013-43.735-19.644-43.75-43.696l-.089-162.03c-.014-24.052 19.656-43.73 43.697-43.743z"/><path class="animation" fill-rule="evenodd" clip-rule="evenodd" fill="#C8AA96" d="M457.319 714.953l.028 49.794c.008 14.793-12.065 26.881-26.86 26.89l-29.888.016c-14.793.009-26.879-12.067-26.889-26.859L373.682 715l83.637-.047z"/><path class="animation" fill-rule="evenodd" clip-rule="evenodd" fill="#C8AA96" d="M650.33 714.846l.027 49.791c.011 14.797-12.063 26.883-26.858 26.89l-29.886.017c-14.796.006-26.881-12.065-26.891-26.861l-.027-49.791 83.635-.046z"/><g><path fill-rule="evenodd" clip-rule="evenodd" fill="#A27556" d="M366.724 1424.776a15 15 0 01-14.567-11.424c-1.066-4.344-1.586-8.483-1.589-12.654l-.056-98.285c-14.575-16.526-22.833-38.308-22.845-60.734l-.007-8.865a14.998 14.998 0 0114.991-15.011l338.139-.188c8.28 0 14.994 6.709 15 14.99l.006 8.868c.011 22.443-8.211 44.232-22.747 60.758l.056 98.286c-.001 4.175-.516 8.308-1.572 12.647a15 15 0 01-14.566 11.451l-113.257.061a15 15 0 01-14.566-11.418c-1.053-4.283-1.588-8.542-1.591-12.659l-.038-69.369-31.434.017.038 69.371c.003 4.104-.527 8.363-1.576 12.655a14.997 14.997 0 01-14.563 11.44c0-.002-113.253.063-113.256.063z"/><path fill="#4F392A" d="M680.791 1232.613l.006 8.868c.011 21.601-8.786 41.119-22.75 54.787l.059 104.256c-.001 3.142-.434 6.162-1.146 9.09l-113.249.061c-.719-2.923-1.155-6.037-1.157-9.087l-.047-84.367-61.433.032.046 84.371c.002 3.051-.433 6.161-1.147 9.088l-113.247.064c-.719-2.928-1.154-5.944-1.156-9.088l-.059-104.254c-14.014-13.687-22.83-33.194-22.842-54.764l-.007-8.869 338.129-.188m0-30h-.017l-338.13.188a29.997 29.997 0 00-29.983 30.024l.007 8.869c.008 14.592 2.893 28.751 8.572 42.078 3.717 8.718 8.497 16.782 14.276 24.096l.052 92.837c.003 5.315.684 10.773 2.021 16.224 3.293 13.416 15.322 22.848 29.135 22.848h.018l113.246-.064c13.821-.008 25.848-9.456 29.127-22.883 1.333-5.458 2.008-10.916 2.004-16.224l-.029-54.368 1.433-.001.03 54.368c.004 5.323.685 10.784 2.025 16.234 3.297 13.409 15.324 22.836 29.132 22.836h.017l113.248-.061c13.829-.008 25.861-9.467 29.133-22.902 1.324-5.439 1.996-10.883 1.998-16.18l-.053-92.901c14.589-18.611 22.756-42.073 22.744-66.164l-.006-8.873c-.011-16.562-13.441-29.981-30-29.981z"/></g><path fill-rule="evenodd" clip-rule="evenodd" fill="#4F392A" d="M265.873 541.183a259.682 259.682 0 00-8.991 60.131c-.917 30.437 3.522 61.96 13.965 93.23l4.334 12.945-7.757 156.633-37.138-16.626-.092 3.704c.033 55.115 46.68 103.823 118.181 133.535l-.031 1.773.014 23.747-.561-.373-.125-.063-.436-.281-.373-.217-.218-.154-.591-.344-35.802-20.549c-17.714-10.196-40.521-4.056-50.688 13.659l-49.217 85.642L194 1072.333c-23.949-26.252-66.127-382.625-53.707-488.878l.092-.717v-.03l-.094-.341-50.327-8.841 69.545-75.352S327.647 262.306 499.87 257.76c2.01-.054 4.026-.089 6.041-.111 2.018.02 4.031.052 6.045.105 172.229 4.354 358.596 256.794 363.702 262.55l46.557 52.756-50.317 8.896-.093.341-.002.032.096.714c7.261 61.52-3.692 206.919-18.845 323.527-8.635-1.817-17.926-.604-26.125 4.12 0 0-162.104 93.438-162.62 93.773 0 0 118.018-98.46 117.987-153.573l-37.214 12.968 6.091-67.039c1.021-11.423-14.023-89.591-14.023-89.591s19.131-75.758 18.179-106.192a259.615 259.615 0 00-9.059-60.123l-6.567 1.001-473.83-.731z"/><g><g><path fill-rule="evenodd" clip-rule="evenodd" fill="#6B60A7" d="M36.135 583.66a15 15 0 01-14.307-19.515c11.438-36.236 55.167-52.817 97.458-68.852 39.167-14.851 79.667-30.208 89.442-58.29 11.965-34.389 45.461-114.321 109.478-155.958-25.266-28.631-47.104-56.176-47.119-79.753-.014-23.283 18.659-56.653 35.878-81.103-11.701.536-22.601.806-32.609.807-55.813.002-85.251-7.874-95.449-25.536-5.033-8.718-4.745-19.218.792-28.809 4.579-7.933 16.292-19.669 26.889-19.669a15.836 15.836 0 014.997.802l6.392 2.135c26.432 8.842 47.31 15.825 66.339 15.825 17.499 0 33.959-5.957 53.369-19.313l.178-.121c17.026-11.361 33.923-17.122 50.219-17.122 44.617 0 74.885 40.725 104.156 80.108 18.561 24.973 37.727 50.761 58.164 61.71 79.247 3.734 128.053 10.078 157.983 31.969 30.1 22.015 39.283 55.871 54.497 111.962 7.895 29.106 17.72 65.329 33.152 109.53 9.806 28.068 50.322 43.38 89.506 58.187 42.309 15.988 86.057 32.52 97.534 68.743a15 15 0 01-18.824 18.831c-85.976-27.205-235.53-42.809-410.317-42.809-205.593 0-407.058 21.799-513.256 55.536a15 15 0 01-4.542.705z"/><path fill="#413968" d="M388.081 44.188c65.14 0 100.923 114.482 158.438 141.653 214.21 9.809 163.174 36.825 235.354 243.57 23.622 67.618 167.849 66.38 186.902 126.517-94.069-29.767-251.482-43.508-414.844-43.508-197.646 0-404.024 20.097-517.797 56.24 18.989-60.158 163.217-59.082 186.762-126.726 17.387-49.972 55.481-125.368 118.694-157.051-15.721-18.401-55.486-58.83-55.502-83.601-.017-28.5 37.962-82.335 53.794-98.186-25.881 2.015-47.521 2.898-65.526 2.898-127.186 0-73.95-44.014-67.768-44.014a.86.86 0 01.257.034c30.913 10.297 54.386 18.729 77.471 18.729 19.483 0 38.688-6.002 61.872-21.957 15.332-10.23 29.177-14.598 41.893-14.598m0-30.001c-19.312 0-39.009 6.61-58.545 19.645l-.355.241c-21.346 14.689-34.658 16.67-44.865 16.67-16.588 0-35.461-6.313-61.583-15.051-2.101-.703-4.235-1.417-6.407-2.141a30.867 30.867 0 00-9.738-1.57c-12.896 0-23.723 8.188-30.535 15.057-10.154 10.24-15.747 22.691-15.747 35.062 0 9.432 3.573 32.653 36.679 44.533 17.556 6.3 42.864 9.363 77.371 9.363 1.516 0 3.05-.006 4.604-.018-15.395 26.328-22.883 47.728-22.872 65.323.01 15.993 7.111 33.384 22.35 54.733 5.523 7.739 11.678 15.378 17.624 22.402-20.293 15.798-38.997 36.318-55.874 61.339-23.064 34.192-37.542 69.067-45.626 92.302-7.472 21.466-46.318 36.196-80.592 49.191-20.77 7.875-42.245 16.018-60.311 26.524-24.538 14.271-39.628 31.227-46.134 51.837a29.997 29.997 0 007.415 30.263 30.005 30.005 0 0030.277 7.36c104.853-33.309 304.534-54.832 508.715-54.832 173.314 0 321.22 15.349 405.792 42.11a30 30 0 0030.268-7.393 29.998 29.998 0 007.382-30.271c-6.528-20.604-21.637-37.543-46.19-51.787-18.077-10.487-39.563-18.605-60.34-26.458-34.288-12.957-73.151-27.643-80.649-49.105-15.254-43.693-25.002-79.63-32.834-108.507-15.521-57.221-25.774-95.023-60.119-120.143-32.688-23.907-80.72-30.697-162.511-34.672-16.586-10.281-33.779-33.414-50.453-55.848-14.327-19.277-29.142-39.209-46.121-54.978-22.597-20.981-45.519-31.181-70.076-31.181z"/></g><path opacity=".2" fill-rule="evenodd" clip-rule="evenodd" fill="#FFF" d="M331.406 103.723c-201.094 14.241-129.859-43.311-124.568-41.695 57.023 18.983 88.713 31.6 139.359-3.252 93.854-62.636 131.569 94.596 200.331 127.08 214.212 9.807 163.158 36.817 235.351 243.543 23.625 67.644 167.84 66.381 186.888 126.527-59.482-18.827-144.355-31.196-239.993-37.803-40.002-21.139-111.18-27.76-107.908-75.812 14.198-208.176 76.516-241.137-133.545-230.905-55.161-27.199-27.21-187.146-147.2-113.012l-8.715 5.329z"/><path opacity=".2" fill-rule="evenodd" clip-rule="evenodd" fill="#000001" d="M36.142 568.647c18.609-58.954 157.533-59.094 185.195-122.782 244.328-2.688 587.43 41.031 747.429 110.062-207.861-65.768-724.836-53.279-932.624 12.72z"/></g><g><path fill-rule="evenodd" clip-rule="evenodd" fill="#E8AD0B" d="M849.641 1044.521c-2.573 0-5.179-.662-7.56-2.055l-14.745-8.624a15.005 15.005 0 01-5.375-20.523l281.248-480.726a15.005 15.005 0 0112.947-7.426c2.641 0 5.258.697 7.576 2.054l14.741 8.626c7.149 4.184 9.554 13.371 5.371 20.521L862.6 1037.091c-2.788 4.771-7.806 7.43-12.959 7.43z"/><g><path fill="#4F392A" d="M1116.158 540.168l14.741 8.626-281.244 480.723-14.745-8.624 281.248-480.725m0-30a30.005 30.005 0 00-25.895 14.851l-281.248 480.726a30 30 0 0010.748 41.045l14.745 8.624a29.872 29.872 0 0015.118 4.109c10.309 0 20.342-5.316 25.922-14.855l281.244-480.724c8.366-14.3 3.558-32.674-10.742-41.042l-14.74-8.626a30.002 30.002 0 00-15.152-4.108z"/></g></g><g><g><path fill-rule="evenodd" clip-rule="evenodd" fill="#E8AD0B" d="M1101.227 759.122a15.002 15.002 0 01-11.4-5.252l-52.722-61.663-79.605-15.753a15.001 15.001 0 01-9.719-22.804l41.156-64.259-12.83-77.134a15.002 15.002 0 0118.765-16.927l78.242 21.463 71.271-32.201a14.985 14.985 0 0113.751.723 15 15 0 017.367 11.634l6.84 77.886 57.059 57.705a15 15 0 01-5.561 24.652l-73.504 26.6-35.867 67.378a15 15 0 01-13.243 7.952z"/><path fill="#4F392A" d="M1150.561 498.261l7.313 83.274 60.862 61.552-78.929 28.563-38.579 72.472-56.104-65.619-84.711-16.764 44.269-69.118-13.776-82.826 83.458 22.895 76.197-34.429m-.001-30c-4.202 0-8.414.882-12.352 2.661l-66.341 29.974-73.026-20.033a29.996 29.996 0 00-28.031 6.655 29.994 29.994 0 00-9.499 27.198l11.883 71.442-38.045 59.4a30.002 30.002 0 0019.439 45.61l74.498 14.743 49.339 57.707a30 30 0 0049.284-5.4l33.157-62.285 68.078-24.637a30 30 0 0011.123-49.303l-53.256-53.859-6.366-72.498a30.003 30.003 0 00-14.733-23.269 30.003 30.003 0 00-15.152-4.106z"/></g><g><path fill-rule="evenodd" clip-rule="evenodd" fill="#E8AD0B" d="M1101.227 759.122a15.002 15.002 0 01-11.4-5.252l-52.722-61.663-79.605-15.753a15.001 15.001 0 01-9.719-22.804l41.156-64.259-12.83-77.134a15.002 15.002 0 0118.765-16.927l78.242 21.463 71.271-32.201a14.985 14.985 0 0113.751.723 15 15 0 017.367 11.634l6.84 77.886 57.059 57.705a15 15 0 01-5.561 24.652l-73.504 26.6-35.867 67.378a15 15 0 01-13.243 7.952z"/><path fill="#4F392A" d="M1150.561 498.261l7.313 83.274 60.862 61.552-78.929 28.563-38.579 72.472-56.104-65.619-84.711-16.764 44.269-69.118-13.776-82.826 83.458 22.895 76.197-34.429m-.001-30c-4.202 0-8.414.882-12.352 2.661l-66.341 29.974-73.026-20.033a29.996 29.996 0 00-28.031 6.655 29.994 29.994 0 00-9.499 27.198l11.883 71.442-38.045 59.4a30.002 30.002 0 0019.439 45.61l74.498 14.743 49.339 57.707a30 30 0 0049.284-5.4l33.157-62.285 68.078-24.637a30 30 0 0011.123-49.303l-53.256-53.859-6.366-72.498a30.003 30.003 0 00-14.733-23.269 30.003 30.003 0 00-15.152-4.106z"/></g></g><path opacity=".2" fill-rule="evenodd" clip-rule="evenodd" fill="#FFF" d="M1150.561 498.261l-76.202 34.439-83.466-22.91 6.865 41.218 87.693 24.064 69.111-31.236-4.001-45.575z"/><path opacity=".2" fill-rule="evenodd" clip-rule="evenodd" fill="#000001" d="M982.889 626.64l-22.484 35.106 84.708 16.755 56.113 65.632 38.569-72.48 78.95-28.556-32.593-32.957-62.99 22.813-32.354 60.783-47.064-55.057-60.855-12.039z"/></g></svg>