<svg version="1.1" id="Layer_13" xmlns="http://www.w3.org/2000/svg" x="0" y="0" width="1337" height="1040" viewBox="0 0 1337 1040" xml:space="preserve"><style>.animation{ animation: animation 10s infinite linear; }@keyframes animation { 0%, 2%, 4%, 60%, 62%, 64% { opacity: 1; } 1%, 61% { opacity: 0; } 0%, 100%, 4%, 16%, 36% { transform: translate(0px, 0px); } 8%, 12% { transform: translate(20px, 25px); } 48%, 52% { transform: translate(0px, -25px); } } @keyframes animation2 { 0%, 4%, 8%, 12%, 100% { transform: translate(0px, 0px); } 2% { transform: translate(0px, -75px); } 6% { transform: translate(0px, -50px); } 10% { transform: translate(0px, -25px); } }</style><g><path fill-rule="evenodd" clip-rule="evenodd" fill="#F49C14" d="M668.953 886.799c-115.595 0-224.386-33.283-306.331-93.72-40.138-29.603-71.691-64.144-93.782-102.664-23.032-40.16-34.71-82.866-34.71-126.931s11.678-86.771 34.71-126.931c22.091-38.521 53.644-73.062 93.782-102.664 81.945-60.436 190.735-93.719 306.331-93.719 115.595 0 224.385 33.283 306.329 93.719 40.139 29.603 71.691 64.144 93.782 102.664 23.032 40.16 34.71 82.866 34.71 126.931s-11.678 86.771-34.71 126.931c-22.091 38.521-53.644 73.062-93.782 102.664-81.944 60.437-190.734 93.72-306.329 93.72z"/><g><path fill="#9B6107" d="M668.953 250.171c234.622 0 424.821 140.274 424.821 313.313S903.575 876.799 668.953 876.799c-234.624 0-424.822-140.275-424.822-313.314s190.198-313.314 424.822-313.314m0-20c-59.373 0-117.012 8.589-171.316 25.529-52.717 16.444-100.14 40.044-140.95 70.142-41.261 30.432-73.736 66.006-96.521 105.736-23.911 41.694-36.035 86.073-36.035 131.906s12.124 90.212 36.035 131.906c22.785 39.73 55.26 75.306 96.521 105.736 40.81 30.099 88.232 53.698 140.95 70.143 54.305 16.94 111.943 25.529 171.316 25.529 59.372 0 117.012-8.589 171.315-25.529 52.717-16.444 100.14-40.044 140.949-70.143 41.262-30.431 73.736-66.006 96.521-105.736 23.911-41.694 36.035-86.073 36.035-131.906s-12.124-90.212-36.035-131.906c-22.785-39.73-55.26-75.305-96.521-105.736-40.81-30.098-88.232-53.697-140.949-70.142-54.303-16.94-111.943-25.529-171.315-25.529z"/></g></g><g><path fill-rule="evenodd" clip-rule="evenodd" fill="#F49C14" d="M668.953 915.269c-46.359 0-91.334-9.314-133.676-27.686-40.875-17.734-77.579-43.116-109.09-75.44-64.764-66.433-100.43-154.741-100.43-248.658s35.667-182.226 100.43-248.658c31.512-32.324 68.215-57.706 109.09-75.44 42.342-18.371 87.317-27.686 133.676-27.686 46.358 0 91.333 9.314 133.675 27.686 40.875 17.734 77.578 43.116 109.09 75.44 64.764 66.433 100.431 154.741 100.431 248.658S976.481 745.71 911.718 812.143c-31.512 32.324-68.215 57.706-109.09 75.44-42.342 18.371-87.316 27.686-133.675 27.686z"/><path fill="#CB7F0A" d="M668.953 221.7c184.018 0 333.195 153.021 333.195 341.784S852.971 905.269 668.953 905.269c-184.021 0-333.196-153.021-333.196-341.784S484.933 221.7 668.953 221.7m0-20c-47.736 0-94.051 9.593-137.656 28.512-42.073 18.254-79.847 44.374-112.271 77.634-32.389 33.224-57.816 71.907-75.575 114.977-18.377 44.567-27.694 91.893-27.694 140.662s9.317 96.095 27.694 140.662c17.759 43.069 43.186 81.753 75.575 114.977 32.424 33.26 70.197 59.38 112.271 77.634 43.605 18.919 89.92 28.512 137.656 28.512 47.735 0 94.05-9.593 137.654-28.512 42.074-18.254 79.847-44.374 112.271-77.634 32.39-33.224 57.817-71.907 75.576-114.977 18.377-44.567 27.694-91.893 27.694-140.662s-9.317-96.095-27.694-140.662c-17.759-43.069-43.187-81.753-75.576-114.977-32.424-33.26-70.196-59.38-112.271-77.634-43.604-18.919-89.919-28.512-137.654-28.512z"/></g><g><path fill-rule="evenodd" clip-rule="evenodd" fill="#F49C14" d="M668.953 898.688c-29.912 0-58.847-9.162-86.001-27.23-25.785-17.158-48.867-41.603-68.605-72.655-40.049-63.006-62.105-146.576-62.105-235.317 0-88.74 22.056-172.311 62.105-235.316 19.738-31.052 42.82-55.496 68.605-72.654 27.154-18.068 56.089-27.23 86.001-27.23s58.847 9.162 86.001 27.23c25.785 17.158 48.867 41.603 68.605 72.654 40.049 63.006 62.104 146.576 62.104 235.316 0 88.741-22.056 172.312-62.104 235.317-19.738 31.053-42.82 55.497-68.605 72.655-27.154 18.067-56.089 27.23-86.001 27.23z"/><path fill="#CB7F0A" d="M668.953 238.283c114.163 0 206.711 145.598 206.711 325.201 0 179.604-92.548 325.203-206.711 325.203-114.164 0-206.712-145.599-206.712-325.203 0-179.603 92.548-325.201 206.712-325.201m0-20c-31.918 0-62.717 9.726-91.541 28.905-26.956 17.937-51.013 43.377-71.505 75.615-41.055 64.589-63.666 150.064-63.666 240.681 0 90.617 22.61 176.093 63.666 240.682 20.492 32.238 44.55 57.68 71.505 75.616 28.824 19.181 59.623 28.905 91.541 28.905s62.717-9.725 91.541-28.905c26.955-17.937 51.013-43.378 71.505-75.616 41.055-64.589 63.665-150.064 63.665-240.682 0-90.616-22.61-176.092-63.666-240.681-20.491-32.238-44.549-57.679-71.504-75.615-28.824-19.179-59.623-28.905-91.541-28.905z"/></g><g><g><g><path fill-rule="evenodd" clip-rule="evenodd" fill="#4B9A49" d="M678.682 373.826c-6.242 0-11.809-2.706-15.674-7.62-6.145-7.811-10.354-14.878-14.066-21.112-8.37-14.054-13.422-22.536-34.406-28.618-12.91-3.741-25.566-5.638-37.618-5.638-21.512 0-41.561 6.032-59.59 17.928-.813.537-1.713 1.18-2.674 1.864-5.608 3.99-12.588 8.957-20.462 8.957-5.407 0-10.224-2.416-13.563-6.804-9.242-12.138.893-44.878.999-45.203 3.929-11.996 12.197-22.049 25.276-30.731 2.598-1.725 5.465-3.32 8.206-4.782-5.663-1.104-11.952-1.643-19.176-1.643-9.492 0-19.379.939-28.102 1.769-.47.059-2.202.422-3.466.688-4.625.972-10.96 2.303-16.339 2.303-4.768 0-8.452-1.069-11.262-3.269a10.26 10.26 0 01-3.754-10.182c1.141-5.608 5.873-8.238 12.961-11.61 4.116-1.958 9.673-4.366 16.518-7.157 10.514-4.288 23.904-9.376 26.531-10.082 23.964-6.439 44.958-9.569 64.184-9.569 10.807 0 21.168 1.021 30.817 3.035 3.025-.226 7.144-1.493 10.817-2.624 2.159-.665 4.392-1.352 6.543-1.885 3.436-.851 6.873-1.373 9.904-1.834 11.256-1.711 11.334-2.479 11.625-5.336 2.179-21.45 6.424-49.235 20.024-73.902 12.403-22.5 34.209-38.549 53.45-52.71 2.284-1.681 4.548-3.347 6.771-5.004 2.15-1.604 4.358-3.27 6.617-4.974 23.37-17.634 52.456-39.58 83.033-42.542.515-.05 1.043-.075 1.567-.075 9.817 0 20.543 8.397 35.863 28.077 13.295 17.077 25.276 36.81 29.811 44.5 3.148 5.342 5.836 10.15 7.771 13.907 2.79 5.416 5.2 10.093 2.33 15.28a10.04 10.04 0 01-1.679 2.229c-9.837 9.836-28.503 13.114-50.086 16.107-3.533.49-6.584.913-9.023 1.339-5.05.883-10.17 1.728-15.122 2.545-16.047 2.647-32.64 5.384-48.358 9.71-29.843 8.211-56.134 21.832-75.474 38.734 10.938-1.148 22.225-1.727 33.772-1.727 61.702 0 123.816 16.586 165.171 29.062.394.114 1.141.291 2.109.528 12.949 3.166 26.312 6.433 28.003 16.18.118.614.18 1.247.18 1.896v.265a10.055 10.055 0 01-.321 2.507c-2.124 8.509-11.458 8.509-16.511 8.509-7.192 0-18.587-.827-30.246-1.742 10.411 4.485 20.43 10.473 25.883 21.365 5.801 7.422 5.064 13.332 3.35 17.047-4.39 9.515-17.331 9.515-22.203 9.515-17.81 0-46.788-6.147-62.356-9.449-3.919-.831-7.972-1.691-8.952-1.817l-.472-.061c-3.233-.416-10.803-1.391-17.81-1.391a57.06 57.06 0 00-4.21.142c.423.873.807 1.938.995 3.189.104.217.247.503.363.732.997 1.982 2.505 4.979 2.505 8.955-.002 20.427-22.042 36.59-38.134 48.393-3.092 2.268-6.012 4.408-8.203 6.183-1.172.948-2.928 2.542-4.96 4.388-13.507 12.258-26.707 23.265-39.677 23.265z"/><path fill="#295528" d="M794.374 25.461c19.329 0 68.284 84.646 67.024 86.922-10.22 10.219-40.111 12.281-53.76 14.667-21.547 3.768-43.279 6.648-64.412 12.464-36.932 10.162-76.591 30.844-99.465 62.657 19.779-4.193 40.013-6.009 60.417-6.009 54.957.002 111.073 13.187 162.282 28.636 2.823.854 23.181 4.994 23.181 9.275-.158.742-2.719 1.034-6.832 1.034-15.45 0-52.782-4.132-66.815-4.132-3.847 0-5.944.311-5.358 1.103 13.287 17.948 49.538 16.455 59.303 38.042 7.145 8.377 1.087 11.172-10.346 11.172-22.119 0-64.356-10.459-70.041-11.186-2.996-.383-11.521-1.532-19.55-1.532-8.463 0-16.377 1.277-16.684 6.073-.155 2.438 2.539 4.539 2.434 6.574-.036.704 1.104 1.514 1.157 2.256.198 2.66 2.747 5.119 2.747 8.115-.002 18.852-29.8 36.419-42.628 46.802-7.064 5.719-25.662 25.431-38.347 25.431-3.018 0-5.701-1.116-7.814-3.803-19.812-25.186-18.66-43.041-53.548-53.152-13.616-3.945-27.139-6.033-40.401-6.033-22.748 0-44.729 6.142-65.098 19.581-4.649 3.068-11.822 9.168-17.629 9.168-2.112 0-4.043-.807-5.606-2.86-4.546-5.971.408-29.51 2.545-36.032 3.646-11.131 11.844-19.234 21.304-25.515 13.896-9.225 39.122-15.588 5.97-22.646-7.3-1.554-14.862-2.109-22.471-2.109-9.766 0-19.606.916-29.048 1.813-2.776.263-12.408 2.945-18.859 2.945-2.205 0-4.038-.313-5.099-1.144-2.914-2.281 45.374-20.608 48.688-21.499 19.698-5.292 40.771-9.226 61.589-9.226 10.097 0 20.134.925 29.925 3.069 6.548 0 14.417-3.292 20.657-4.837 13.129-3.25 27.581-1.188 29.074-15.865 2.438-23.997 7.064-48.741 18.833-70.086 12.723-23.081 36.797-39.129 57.441-54.526 23.651-17.642 54.067-42.618 84.636-45.579.199-.018.399-.028.604-.028m95.083 208.062l.122.182-.122-.182.002.002.006.006.002.002.002.002.002.001.003.003.001.002.002.001v.001l.002.001.001.001.001.001.001.001.001.001.002.003-.002-.003-.001-.001-.001-.001-.001-.001-.001-.001-.002-.001v-.001l-.002-.001-.001-.002-.003-.003-.002-.001a.002.002 0 00-.002-.002.002.002 0 00-.002-.002l-.006-.006-.002-.002c.001.001.001.001 0 0M794.374 5.461c-.846 0-1.698.041-2.533.122-33.383 3.234-63.717 26.122-88.091 44.513-2.244 1.693-4.437 3.348-6.573 4.941a1267.12 1267.12 0 01-6.718 4.966c-20.07 14.771-42.817 31.512-56.281 55.937-13.602 24.669-18.366 51.833-20.779 73.603-1.228.213-2.544.413-3.615.576-3.245.493-6.923 1.052-10.804 2.013-2.424.6-4.792 1.329-7.083 2.034-2.138.658-5.426 1.67-7.484 2.058-9.845-1.932-20.327-2.911-31.208-2.911-20.113 0-41.957 3.241-66.778 9.911-3.661.984-18.608 6.767-27.713 10.48-7.019 2.862-12.751 5.348-17.038 7.387-6.854 3.262-16.242 7.728-18.465 18.646-1.545 7.59 1.286 15.272 7.389 20.05 4.64 3.632 10.339 5.396 17.427 5.396 6.418 0 13.341-1.454 18.396-2.517.921-.193 2.148-.451 2.712-.553 5.533-.525 11.527-1.09 17.511-1.415-6.814 7.132-11.676 15.081-14.521 23.771-1.449 4.42-3.511 13.176-4.616 21.95-1.915 15.216-.322 25.215 5.164 32.422 5.198 6.828 13.042 10.745 21.52 10.745 11.069 0 20.211-6.505 26.261-10.81a93.547 93.547 0 012.386-1.666c16.364-10.798 34.561-16.273 54.08-16.273 11.109 0 22.829 1.764 34.835 5.243 17.194 4.983 20.532 10.588 28.597 24.129 3.869 6.496 8.253 13.858 14.798 22.179 5.802 7.375 14.16 11.438 23.534 11.438 16.538 0 31.385-12.235 46.399-25.866 1.84-1.67 3.578-3.248 4.531-4.02 2.005-1.623 4.831-3.695 7.823-5.89 17.817-13.067 42.218-30.963 42.221-56.455 0-.867-.045-1.705-.125-2.512 2.95.278 5.486.605 7.005.801l.375.048c1.09.175 4.891.981 8.25 1.693 22.05 4.677 47.03 9.667 64.432 9.667 5.988 0 24.212 0 31.283-15.324 2.326-5.041 4.716-14.956-3.938-26.592a45.27 45.27 0 00-2.563-4.281c2.414-.039 4.391-.177 6.132-.423 7.903-1.117 13.06-5.181 15.996-9.838a19.914 19.914 0 003.139-10.761v-.246c0-2.962-.644-5.772-1.799-8.301-1.623-3.763-4.662-7.922-10.292-11.275-2.5-1.489-5.529-2.843-9.26-4.139-5.244-1.822-11.012-3.232-14.458-4.075-.733-.179-1.331-.322-1.733-.429-41.799-12.604-104.45-29.309-167.153-29.445 13.075-7.115 27.791-13.02 43.586-17.366 15.213-4.186 30.813-6.76 47.331-9.485 4.977-.821 10.122-1.669 15.221-2.561 2.265-.396 5.378-.828 8.674-1.285 23.401-3.246 43.752-6.911 55.782-18.941a20.008 20.008 0 003.357-4.458c5.457-9.861.856-18.792-2.188-24.702-2.021-3.922-4.803-8.903-8.046-14.404-4.633-7.858-16.882-28.029-30.534-45.566-17.661-22.682-30.337-31.934-43.758-31.934z"/></g></g><g><g><path fill-rule="evenodd" clip-rule="evenodd" fill="#75BD73" d="M843.177 250.341c-12.415-4.821-25.605-8.894-32.541-18.262-3.293-4.447 78.091 6.286 79.006 1.995 0-4.281-20.357-8.422-23.181-9.275-57.02-17.201-120.113-31.598-180.932-28.11"/></g><g><path fill-rule="evenodd" clip-rule="evenodd" fill="#75BD73" d="M512.434 297.458c13.896-9.226 39.122-15.589 5.97-22.647-5.13-1.09-10.398-1.648-15.713-1.908-5.119 4.924-9.254 10.748-11.562 17.792-2.137 6.522-7.091 30.062-2.545 36.032.374.49.769.906 1.181 1.261.498-2.089.977-3.836 1.364-5.016 3.646-11.131 11.845-19.235 21.305-25.514z"/></g><g><path fill-rule="evenodd" clip-rule="evenodd" fill="#75BD73" d="M466.885 242.237c16.799-1.597 34.85-3.252 51.519.296 6.848 1.459 11.175 2.888 13.657 4.318 17.124-1.947 34.449-1.83 51.068 1.81 6.548 0 14.417-3.292 20.657-4.837 13.129-3.251 27.581-1.189 29.074-15.865 2.438-23.997 7.064-48.742 18.833-70.086 12.723-23.081 36.797-39.127 57.441-54.526 23.651-17.642 54.067-42.618 84.636-45.58 12.411-1.202 38.259 35.695 54.165 61.797 5.598-1.823 10.413-4.133 13.463-7.181 1.273-2.301-48.738-88.723-67.628-86.894-30.568 2.961-60.984 27.938-84.636 45.579-20.645 15.397-44.719 31.446-57.441 54.526-11.769 21.345-16.396 46.089-18.833 70.086-1.493 14.677-15.944 12.615-29.074 15.865-6.24 1.545-14.109 4.837-20.657 4.837-29.979-6.565-62.262-1.703-91.514 6.156-3.314.891-51.602 19.218-48.688 21.499 4.166 3.262 20.233-1.447 23.958-1.8z"/></g></g></g><g><path fill-rule="evenodd" clip-rule="evenodd" fill="#CB7F0A" d="M559.639 708.478c-37.529 0-75.901-18.331-100.142-47.84-21.648-26.352-30.055-58.628-23.671-90.884 6.875-34.744 31.027-81.769 61.529-119.802 21.5-26.807 64.794-71.777 113.198-71.777 53.527 0 67.417 92.58 70.905 132.384 2.16 24.685 2.758 61.652-6.664 97.593-9.842 37.545-28.269 65.345-54.77 82.627-17.756 11.578-38.637 17.699-60.385 17.699z"/><g><path fill="#9B6107" d="M610.553 388.175c46.052 0 58.224 92.227 60.943 123.257 5.102 58.289-3.123 135.877-56.935 170.971-17.014 11.095-35.993 16.075-54.923 16.075-64.108 0-127.805-57.044-114.003-126.782 12.52-63.27 91.23-183.521 164.918-183.521m0-20c-21.464 0-43.798 7.828-66.382 23.267-18.668 12.763-37.044 30.343-54.617 52.255-31.434 39.193-56.375 87.912-63.539 124.116-6.975 35.246 2.171 70.466 25.754 99.174 12.789 15.567 29.429 28.553 48.12 37.55 18.947 9.12 39.608 13.941 59.749 13.941 23.693 0 46.463-6.682 65.848-19.322 28.646-18.682 48.489-48.446 58.981-88.469 9.785-37.327 9.182-75.526 6.952-100.999-1.462-16.683-5.381-48.99-15.206-77.947-5.887-17.351-13.212-31.321-21.77-41.523-15.281-18.219-32.302-22.043-43.89-22.043z"/></g></g><g><path fill-rule="evenodd" clip-rule="evenodd" fill="#CB7F0A" d="M798.684 711.195c-16.422-.001-32.373-4.415-46.131-12.764-54.281-32.939-54.028-110.894-51.4-142.881 2.635-32.118 13.533-106.824 57.714-106.824 36.315 0 68.389 30.25 88.9 55.626 23.131 28.619 42.33 64.77 48.91 92.098 6.348 26.352.296 52.984-17.042 74.992-19.316 24.521-50.333 39.753-80.943 39.753h-.008z"/><g><path fill="#9B6107" d="M758.866 458.727c57.178 0 116.453 91.745 128.089 140.064 13.352 55.43-37.011 102.404-88.271 102.404-14.006 0-28.086-3.51-40.943-11.313-43.417-26.347-50.388-87.686-46.622-133.513 2.004-24.427 11.366-97.642 47.747-97.642m0-20c-17.295 0-41.003 9.251-55.733 53.321-7.846 23.474-10.853 49.351-11.946 62.688-1.681 20.447-1.957 51.101 6.267 81 8.972 32.622 25.766 56.593 49.912 71.245 15.323 9.3 33.069 14.215 51.319 14.215 16.742 0 33.861-4.101 49.508-11.859 15.376-7.626 28.967-18.592 39.302-31.712 19.271-24.464 25.984-54.124 18.904-83.517-6.9-28.658-26.863-66.357-50.855-96.041-13.834-17.116-28.282-30.842-42.942-40.796-18.123-12.305-36.203-18.544-53.736-18.544z"/></g></g><path class="animation" fill-rule="evenodd" clip-rule="evenodd" fill="#FACF8E" d="M581.66 607.989c72.229 0 72.242-112.106 0-112.106-72.251 0-72.238 112.106 0 112.106z"/><path fill-rule="evenodd" clip-rule="evenodd" fill="#F6B145" d="M539.915 484.853c21.121 0 21.132-32.716 0-32.716-21.072 0-21.063 32.716 0 32.716z"/><path class="animation" fill-rule="evenodd" clip-rule="evenodd" fill="#FACF8E" d="M763.619 617.063c56.454 0 56.454-87.581 0-87.581-56.449 0-56.453 87.581 0 87.581z"/><path fill-rule="evenodd" clip-rule="evenodd" fill="#F6B145" d="M796.194 520.873c16.551 0 16.539-25.596 0-25.596-16.526 0-16.542 25.596 0 25.596z"/><g><path fill-rule="evenodd" clip-rule="evenodd" fill="#B37008" d="M614.562 642.402c-63.403 41.346-153.875-2.268-168.715-71.707-.069.332-.146.671-.211 1-17.876 90.331 94.292 159.377 168.926 110.707 51.095-33.322 61.087-104.953 57.6-162-3.066 47.26-17.97 96.155-57.6 122z"/></g><g><path fill-rule="evenodd" clip-rule="evenodd" fill="#B37008" d="M886.426 596.695c-14.062 50.794-80.062 82.695-128.685 53.188-31.27-18.976-43.632-56.102-46.696-92.511-3.583 45.716 3.593 106.354 46.696 132.511 59.913 36.359 146.214-20.517 129.214-91.092a111.12 111.12 0 00-.529-2.096z"/></g><g><g><path fill-rule="evenodd" clip-rule="evenodd" fill="#CB7F0A" d="M634.181 757.108a10.001 10.001 0 01-7.233-16.905l49.349-51.687a9.997 9.997 0 0114.464 0l49.351 51.688a9.999 9.999 0 01-7.232 16.905l-98.699-.001z"/><path fill="#9B6107" d="M683.529 695.422l49.351 51.688-98.699-.001 49.348-51.687m0-20a20.004 20.004 0 00-14.466 6.188l-49.349 51.687a20 20 0 0014.466 33.812l98.699.001a20 20 0 0014.466-33.812l-49.352-51.688a19.995 19.995 0 00-14.464-6.188z"/></g><polygon fill-rule="evenodd" clip-rule="evenodd" fill="#B37008" points="683.529,713.361 727.623,747.109 732.88,747.109 
		683.529,695.422 634.181,747.108 639.437,747.108 	"/></g><g class="animation2"><g><path fill-rule="evenodd" clip-rule="evenodd" fill="#4B9A49" d="M399.185 1022.394c-5.538.001-10.279-1.962-13.709-5.676-3.456-3.742-5.208-8.855-5.208-15.196 0-10.235 2.926-19.56 5.755-28.576.938-2.992 1.85-5.897 2.623-8.737a44.22 44.22 0 01-2.613-1.482 10.19 10.19 0 01-.344.936c-4.006 9.405-11.399 10.422-14.392 10.422-2.513 0-5.08-.629-7.657-1.874.219 2.781.374 5.766.375 8.64.001 4.799-.42 8.607-1.288 11.646-2.917 10.215-10.685 11.013-12.996 11.014h-.006c-2.8 0-5.578-.904-8.258-2.688-9.914-6.594-7.958-19.971-6.231-31.773.287-1.963.653-4.465.922-6.895a84.116 84.116 0 01-17.058 1.759c-32.086.001-61.664-18.813-77.878-47.771-16.63 27.586-43.831 47.742-74.927 54.533-2.348.513-6.378.699-16.459 1.063-4.285.155-10.49.38-14.879.668.028 3.689.799 8.995 1.281 12.313 1.685 11.601 3.594 24.748-6.32 31.358-2.674 1.783-5.449 2.688-8.248 2.688h-.006c-4.658.001-8.744-2.448-11.211-6.72-1.895-3.278-3.909-9.034-2.685-24.572-2.35 2.149-5.305 3.428-8.584 3.698-.089 5.7-1.333 10.986-4.443 15.37-2.829 3.99-8.388 8.813-18.804 9.132-.481.015-.956.022-1.419.022-12.443 0-19.196-5.329-22.669-9.801-10.618-13.665-4.935-35.941-.369-53.841 1.226-4.804 2.592-10.162 2.938-13.115-1.767-4.729-7.341-11.308-12.306-17.165-6.679-7.882-13.586-16.031-17.044-25.042-11.552-30.112-11.554-66.113-.004-96.303 9.285-24.272 25.051-44.071 45.594-57.258 18.81-12.074 41.143-18.456 64.584-18.456 48.887 0 101.485 28.99 118.24 84.694 16.99-17.323 41.519-28.043 66.567-28.043 1.908 0 3.83.065 5.712.194 17.643.956 19.286 24.309 20.17 36.867.152 2.166.296 4.212.457 5.253.723 4.68 1.218 11.528-2.808 16.969-4.17 5.637-10.53 6.555-15.64 7.293-2.229.321-4.533.654-6.871 1.314-11.056 3.12-16.154 13.563-16.213 21.945-.03 4.237 1.256 14.496 13.807 18.229 3.09.938 5.866 1.405 8.306 1.405 6.156 0 9.603-2.79 14.718-7.343 4.288-3.816 9.623-8.566 17.276-8.566 3.649 0 7.048 1.117 10.221 2.962.199-4.406.059-8.58-.97-10.344-.257.014-.514.02-.768.02-5.282.001-14.581-2.635-17.514-20.287-1.066-6.414-1.247-14.345-.496-21.758.865-8.541 2.663-16.786 9.893-19.258 6.489-2.219 7.254-4.381 7.543-5.195.972-2.748.554-7.658.07-13.344-.351-4.127-.75-8.805-.75-13.993 0-17.435 10.969-27.843 29.341-27.843 15.666 0 33.298 7.264 39.092 9.65.233.097.432.179.595.245 4.042 1.283 6.971 5.066 6.971 9.533 0 5.862-.643 11.626-1.21 16.711-.668 5.988-1.678 15.039.051 16.972.484.54 2.593 1.456 7.431 1.456.674 0 1.373-.018 2.105-.053a68.74 68.74 0 012.766-.059c10.235 0 17.573 2.623 22.435 8.018 4.076 4.522 5.599 9.953 5.938 15.908 18.413-20.729 45.623-33.32 72.924-33.32 20.208 0 38.068 6.738 52.124 19.191-1.857-15.914-3.887-30.746-6.122-44.776-1.434-8.998-2.049-18.259 3.116-25.035 5.251-6.891 13.246-7.776 22.503-8.802 3.328-.368 7.099-.786 11.258-1.506 1.836-.321 3.585-.641 5.234-.942 6.406-1.171 11.466-2.096 15.991-2.096 20.842 0 21.142 20.24 21.285 29.968l.009 1.765c.096 23.596.817 37.288 1.564 45.187 5.005-4.308 9.756-8.314 14.686-9.997 7.435-2.536 15.622-3.822 24.338-3.822 6.923 0 13.799.814 20.437 2.422 19.177 4.644 35.446 17.207 46.109 34.969 15.466-23.143 41.794-37.226 71.859-37.226 22.653 0 42.898 8.176 57.748 22.325a17.78 17.78 0 011.043-1.672c4.888-6.95 13.892-9.433 30.971-12.036 1.879-.377 4.168-.943 6.586-1.542 6.589-1.63 14.057-3.477 20.633-3.477 4.933 0 10.885 2.893 12.797 11.012.445 1.891.634 3.897.726 5.851 1.964-1.038 4.019-2.237 5.888-3.328 8.301-4.844 17.71-10.335 28.471-10.335 5.501 0 10.211 2.057 13.621 5.946 7.692 8.776 5.768 23.341 4.069 36.189-.469 3.543-.953 7.205-.902 8.904.295 9.163-1.853 16.03-6.564 20.967-7.047 7.381-17.181 7.523-25.322 7.639-12.922.183-13.826.81-13.826 9.581 0 5.876-.137 12.012-.27 17.945-.47 21.059-.955 42.834 4.163 60.985 3.168 11.236 2.671 28.491-5.907 39.824-5.278 6.974-12.756 10.66-21.622 10.661h-.015c-.317 0-.634-.005-.957-.015-10.689-.327-16.284-5.204-19.097-9.237-3.632-5.21-4.537-11.555-4.041-18.138-3.454-.354-6.602-2.184-8.967-5.242-3.18-4.112-4.725-10.267-4.489-17.162-2.821-1.405-5.338-3.35-7.48-5.801a27.301 27.301 0 01-2.467-3.305c-1.834 4.339-3.668 14.811-4.509 19.608-.711 4.063-1.326 7.572-2.028 10.405-1.914 7.713-5.843 11.626-11.677 11.633h-.012a10.61 10.61 0 01-5.864-1.774c-8.489-5.608-8.192-16.457-6.483-26.792-8.375 2.061-17.152 3.124-26.003 3.125-19.294 0-38.464-5.113-53.977-14.4-10.922-6.538-19.906-14.965-26.616-24.87-13.354 19.727-34.676 32.435-59.179 34.409-.917.074-1.874.112-2.836.112-3.123 0-5.953-.398-8.227-.719-1.28-.18-2.5-.352-3.4-.397-.948 2.777.315 11.368.938 15.6 1.702 11.572 3.631 24.689-6.313 31.346-2.023 1.354-4.324 2.07-6.655 2.071-11.906.003-13.666-14.983-14.329-20.625-.718-6.11-1.045-14.071-.93-22.054-3.009 5.754-5.51 9.614-7.943 12.083 1.351 7.004.215 15.048-8.379 22.155-4.934 4.08-10.531 6.236-16.187 6.236-6.985 0-13.892-3.307-19.447-9.312-7.29-7.879-11.674-19.75-10.911-29.539.251-3.222.172-4.94.085-5.751-3.836-3.739-6.185-8.264-6.123-18.571.02-3.326-.005-6.658-.067-9.999-6.448 7.797-14.267 14.373-23.126 19.313.58 2.465 1.426 5.384 2.083 7.651 3.47 11.971 7.788 26.868-2.453 35.356-5.25 4.354-10.099 6.472-14.821 6.472-4.359 0-8.359-1.84-11.263-5.181-5.15-5.924-6.743-16.145-5.055-34.142a100.41 100.41 0 01-13.523.913c-27.49 0-52.202-11.057-68.55-29.559-2.45 6.429-5.92 11.692-10.477 15.991-8.569 8.084-20.619 12.311-37.615 13.123 2.604 8.817 4.356 18.863.625 29.159-4.12 11.373-20.655 22.531-33.38 22.532zm463.24-113.64a42.09 42.09 0 005.861.44c2.159 0 4.194-.251 6.138-.678-3.903.118-7.909.192-11.999.238zm-421.904-32.365c.036 2.051-.041 4.228-.123 6.53-.241 6.798-.604 17.07 3.217 18.638.469.192 1.179.293 2.055.293 2.584 0 6.063-.852 9.428-1.675 1.713-.42 3.451-.845 5.206-1.2-1.738-10.238-1.782-20.356-.17-30.118-.957-.047-1.937-.108-2.941-.171-2.193-.137-4.46-.277-6.626-.277-9.175-.001-10.037 2.07-10.046 7.98zm107.548-15.173c-8.163 0-17.694 5.196-17.694 19.841 0 14.802 9.519 20.056 17.669 20.058h.003c4.623 0 8.89-1.666 12.016-4.692 3.648-3.53 5.576-8.844 5.576-15.365.001-14.646-9.464-19.842-17.57-19.842zm158.192-1.485c-5.406 0-10.462 2.113-13.87 5.798-3.569 3.86-5.186 9.368-4.673 15.93 1.183 13.677 10.219 18.581 18.278 18.582h.003c5.365 0 10.392-2.114 13.792-5.802 3.603-3.907 5.221-9.479 4.681-16.112-1.087-13.566-10.12-18.396-18.211-18.396zM98.96 865.272a53.12 53.12 0 002.954 7.211c7.297 14.635 19.805 23.029 34.317 23.029 4.066 0 8.331-.651 12.675-1.937 20.347-6.019 29.102-25.204 30.509-41.152.649-7.356-.104-14.439-2.07-20.868-.073 7.739-1.684 15.132-6.104 20.96-3.47 4.575-10.17 10.029-22.385 10.029-.459 0-.924-.008-1.399-.022-10.204-.332-15.703-5.083-18.52-9.009-3.157-4.403-4.428-9.781-4.534-15.612-3.34-.306-6.374-1.686-8.758-3.98.236 2.892.407 6.022.408 9.029.001 4.792-.422 8.598-1.292 11.634-2.924 10.194-10.688 10.989-12.999 10.99h-.006c-.935 0-1.867-.1-2.796-.302zm742.88-5.782c.807.087 1.83.149 3.108.149 6.436 0 14.491-1.521 20.428-2.931-2.629-4.382-7.463-7.274-11.813-7.274-3.061 0-5.615 1.364-7.809 4.171-2.023 2.605-3.214 4.536-3.914 5.885z"/></g><g><path fill="#295528" d="M135.243 734.717c52.75 0 105.97 35.355 112.908 98.656 13.447-25.506 43.153-42.004 71.9-42.004 1.71 0 3.412.058 5.112.176 11.015.533 10.184 26.164 11.344 33.666 2.289 14.822-6.175 11.043-18.153 14.424-28.156 7.946-33.401 50.205-2.54 59.383 4.212 1.279 7.899 1.82 11.156 1.82 17.679 0 22.81-15.908 31.994-15.908 4.464 0 9.882 3.755 18.167 14.924.383-11.149 8.35-42.319-9.104-42.319-.197.022-.39.032-.58.032-11.609 0-9.229-40.354-4.882-41.84 21.042-7.196 13.63-20.749 13.63-41.995 0-13.715 8.755-17.843 19.341-17.843 16.003 0 36.192 9.433 36.65 9.433.005 0 .008-.001.008-.004 0 22.66-10.778 45.139 16.271 45.139.825 0 1.681-.021 2.578-.063a58.823 58.823 0 012.293-.048c26.906 0 16.456 21.036 16.456 45.319 0 2.648-2.586 3.283-6.428 3.283-3.542 0-8.153-.539-12.795-.539-9.953 0-20.045 2.479-20.045 18.073.202 10.32-3.144 29.225 9.301 34.327 1.823.748 3.795 1.041 5.849 1.041 7.35 0 15.757-3.748 22.242-3.748 1.898 0 3.63.321 5.124 1.151-19.157-61.614 32.5-108.302 81.596-108.302 26.704 0 52.651 13.812 66.034 46.546-2.554-27.99-5.734-55.944-10.156-83.705-3.968-24.897 5.548-19.909 28.707-23.916 8.532-1.491 14.88-2.892 19.521-2.892 8.167 0 11.053 4.331 11.286 20.115.052 8.57-.038 62.892 5.748 62.892l.057-.002c5.41-.638 16.92-14.311 23.684-16.619 6.6-2.252 13.861-3.286 21.107-3.286 6.178 0 12.344.751 18.084 2.141 24.115 5.84 41.029 25.708 47.994 48.865 11.104-33.623 41.889-50.841 72.327-50.841 30.158 0 59.975 16.896 69.987 51.479-2.701-33.939-15.718-37.357 21.503-43.01 7.106-1.399 17.806-4.871 25.49-4.871 6.571 0 .911 19.537 6.398 19.537 11.624 0 26.362-16.338 41.482-16.338 15.695 0 6.491 31.111 6.792 41.334 1.172 36.392-45.717-.174-45.717 37.893 0 26.474-2.793 56.599 4.269 81.645 3.651 12.951.903 37.771-17.905 37.771-.221 0-.441-.003-.666-.01-25.024-.766-8.339-34.866-5.43-46.872a941.268 941.268 0 01-13.68-.051c1.941 13.924-.454 19.606-3.091 19.606-3.138 0-6.618-8.037-3.552-19.803-27.265-1.048-14.911-54.242-14.911-74.207-8.193 18.071-79.77 13.538-95.515 14.715 3.208 14.968 20.563 20.126 33.807 20.126 17.09 0 27.226-11.391 36.39-11.391 4.779 0 9.293 3.095 14.395 12.521 7.11 13.139 11.295 18.196-1.219 27.724-7.457 5.68-8.814 40.389-12.264 40.389a.639.639 0 01-.352-.117c-7.136-4.714.916-26.89.597-33.253-11.946 5.305-25.264 7.928-38.598 7.928-34.418 0-68.974-17.472-80.538-51.427-9.359 26.363-32.086 44.347-60.035 46.599-.688.056-1.366.08-2.033.08-4.541 0-8.585-1.128-12.055-1.128-3.142 0-5.812.924-7.957 4.445-6.598 10.737 6.416 38.197-2.554 44.202-.385.258-.75.381-1.095.381-7.062 0-5.924-51.466-2.996-52.162a47.842 47.842 0 00-11.949-6.944.112.112 0 00-.092-.044l-.016.001.107.043c1.061 1.32-13.057 32.269-16.672 32.269-1.438 0-1.213-4.903 2.296-18.533-29.852 3.329 10.069 23.76-8.63 39.225-3.344 2.766-6.666 3.942-9.814 3.942-11.854 0-21.276-16.673-20.388-28.073 1.522-19.535-6.113-7.525-6.007-25.039.099-16.574-.89-33.167-1.961-49.695-4.706 23.147-20.028 43.41-41.779 53.047-1.487 9.943 12.325 34.141 3.796 41.21-3.524 2.923-6.289 4.171-8.44 4.171-11.817 0-5.155-37.641-4.705-41.986a89.827 89.827 0 01-25.136 3.577c-31.436 0-62.055-16.409-74.022-47.52-.552 34.848-14.78 47.221-48.942 47.221-2.387 0-4.867-.061-7.451-.178 3.469 11.298 9.369 23.719 4.997 35.784-2.537 6.996-15.135 15.934-23.982 15.934-5.076 0-8.916-2.939-8.916-10.873 0-14.824 7.693-28.917 9.939-43.404-13.482-3.942-22.313-13.792-23.522-27.949-9.734 7.571-.196 19.843-.196 29.575-1.232 2.894-2.963 4.34-5.192 4.34-1.389 0-2.972-.562-4.75-1.686-8.08-7.837-.399-15.953 0-24.554-15.867 10.998-14.662 2.479-14.662 21.062 0-.009.001-.013.002-.013.127 0 5.917 34.616-2.16 34.616-.773 0-1.673-.317-2.719-1.013-8.616-5.73 3.468-33.026-1.964-43.236-8.748 3.175-17.472 4.652-25.943 4.652-35.745 0-67.047-26.282-77.248-62.177-12.441 34.245-41.954 61.365-77.691 69.17-4.214.92-36.099.931-37.263 2.676-6.507 10.664 6.363 38.249-2.528 44.177-1.039.692-1.936 1.01-2.705 1.01-8.049 0-2.279-34.57-2.15-34.57.001 0 .002.004.002.013 0-17.491-4.262-11.63-18.305-16.19.846 3.43 5.854 23.208-3.357 23.208-1.048 0-2.28-.256-3.723-.821-4.804-3.486-5.233-8.075-1.285-13.768 5.844-11.44 1.251-17.807-13.779-19.102 1.31 13.094 24.178 57.296-3.438 58.143-.377.012-.75.018-1.113.018-35.114 0-10.015-52.962-10.015-67.951-3.34-13.639-24.19-29.204-30.097-44.596-10.705-27.903-10.675-61.242 0-89.146 18.126-47.396 59.337-69.29 100.835-69.29m-9.408 93.249c-10.968 0-3.054-29.482-3.266-34.156-16.246 5.335-18.65 10.276-18.65 27.212 0-.008 0-.012.002-.012.121 0 5.934 34.564-2.163 34.564-.773 0-1.672-.314-2.717-1.005-8.246-5.45 2.885-32.293-1.322-41.864-26.393 35.025-4.739 92.807 38.511 92.807 4.906 0 10.088-.742 15.511-2.347 46.134-13.646 51.385-85.362 8.914-106.601 3.734 14.067 17.94 55.98-11.799 55.98a32.6 32.6 0 01-1.074-.018c-27.739-.902-3.995-47.054-3.265-60.733-.99-.114-4.208-.565-7.092-.565-2.086 0-3.998.236-4.769 1.007-9.501 9.108 6.327 31.159-3.394 34.979-1.307.515-2.443.752-3.427.752m719.112 41.674c13.682 0 32.395-5.661 32.395-6.001 0-13.559-11.879-24.204-23.779-24.204-5.646 0-11.297 2.396-15.688 8.013-13.613 17.529-5.342 22.192 7.072 22.192m-138.952 40.401c15.075 0 30.179-11.417 28.443-32.726-1.498-18.698-14.814-27.584-28.178-27.584-15.056 0-30.171 11.278-28.513 32.507 1.633 18.885 14.93 27.803 28.248 27.803m-157.953 1.072c13.806 0 27.597-9.999 27.597-30.057 0-19.922-13.776-29.84-27.57-29.84-13.838 0-27.694 9.975-27.694 29.84 0 20.019 13.841 30.057 27.667 30.057m-115.85-145.796h.005m-296.954-50.6c-25.361 0-49.562 6.93-69.986 20.04-22.352 14.348-39.479 35.821-49.532 62.102-12.407 32.428-12.405 71.104.006 103.455 4.067 10.599 11.869 19.805 18.752 27.926 2.921 3.447 7.418 8.753 9.533 12.176-.559 2.633-1.485 6.264-2.226 9.168-4.836 18.955-11.459 44.916 2.161 62.446 4.843 6.235 14.078 13.667 30.565 13.667.563 0 1.139-.009 1.721-.027 12.679-.389 20.326-6.015 24.503-10.651 4.721 10.052 13.871 13.748 20.925 13.748 4.809 0 9.452-1.47 13.8-4.368 5.377-3.585 11.85-10.77 12.147-24.635.118-5.49-.693-11.078-1.478-16.48l-.202-1.393c1.567-.061 3.037-.114 4.267-.158 11.172-.405 15.05-.594 18.227-1.287 28.789-6.287 54.494-23.093 72.627-46.43 18.841 24.574 47.401 39.896 78.047 39.896 1.797 0 3.593-.053 5.388-.156-.433 3.492-.738 7.015-.682 10.493.229 14.067 6.72 21.306 12.125 24.9 4.346 2.892 8.988 4.359 13.794 4.359 6.868 0 15.725-3.503 20.549-12.964-.005.324-.007.65-.007.977 0 18.178 11.89 30.873 28.916 30.873 16.866 0 37.258-13.878 42.784-29.115 3.023-8.344 3.222-16.373 2.19-23.719 11.031-1.754 22.789-5.764 32.262-14.701a50.032 50.032 0 006.063-6.873 94.828 94.828 0 0011.363 8.141c16.091 9.83 35.019 15.026 54.739 15.026.958 0 1.917-.013 2.873-.037-.154 12.644 1.973 22.712 8.157 29.827 4.833 5.558 11.513 8.619 18.811 8.619 7.148 0 14.085-2.871 21.206-8.775 5.349-4.434 11.387-12.873 9.757-27.885-.67-6.175-2.484-12.432-4.084-17.951l-.083-.289a89.347 89.347 0 002.791-1.973c.983 4.004 2.597 7.395 4.944 10.455-.02.351-.046.74-.08 1.171-.981 12.588 4.333 27.153 13.539 37.104 7.47 8.075 16.983 12.522 26.788 12.522 8.01 0 15.811-2.949 22.559-8.528a38.193 38.193 0 004.31-4.16c5.714 13.782 17.346 14.893 20.897 14.893 4.32 0 8.548-1.301 12.223-3.763 5.373-3.597 11.842-10.79 12.139-24.626.118-5.502-.703-11.085-1.497-16.484a349.88 349.88 0 01-.438-3.043 45.157 45.157 0 004.883-.13c22.991-1.853 43.49-12.086 58.379-28.287 6.118 6.646 13.312 12.479 21.467 17.36 17.288 10.35 37.729 15.82 59.111 15.82 5.068 0 10.119-.32 15.099-.951.631 12.781 6.649 19.51 11.879 22.964a20.57 20.57 0 0011.375 3.43c8.167 0 15.503-4.828 19.144-12.602.88-1.878 1.595-3.982 2.249-6.622.302-1.213.586-2.525.862-3.91a27.394 27.394 0 002.491 3.866c1.96 2.536 4.314 4.604 6.924 6.131.479 5.901 2.176 11.663 5.796 16.856 3.375 4.842 11.37 13.036 26.993 13.514.43.014.854.02 1.277.02 11.945 0 22.456-5.193 29.595-14.623 10.699-14.133 11.506-34.58 7.56-48.576-4.711-16.711-4.242-37.726-3.789-58.048.13-5.819.264-11.83.271-17.659 1.341-.055 2.794-.075 3.967-.092 8.948-.126 22.471-.317 32.414-10.732 6.551-6.861 9.688-16.322 9.328-28.12.008-1.205.477-4.751.819-7.345 1.879-14.216 4.218-31.907-6.463-44.092-5.288-6.033-12.796-9.355-21.141-9.355-10.83 0-20.141 4.197-28.017 8.551-4.063-7.313-11.311-11.75-19.864-11.75-7.795 0-15.891 2.003-23.034 3.77-2.209.547-4.305 1.064-5.938 1.401-13.031 1.989-23.51 4.062-31.108 9.687a88.67 88.67 0 00-3.049-2.185c-15.537-10.646-34.159-16.271-53.852-16.271-19.632 0-38.454 5.574-54.432 16.12a92.033 92.033 0 00-16.999 14.43c-11.562-13.948-26.808-23.805-44.184-28.013a96.98 96.98 0 00-22.791-2.702c-9.816 0-19.092 1.466-27.566 4.357-.865.296-1.714.633-2.548 1.007-.249-6.947-.429-15.718-.474-26.778l-.008-1.69-.002-.176c-.178-11.997-1.731-19.447-5.363-25.712-3.055-5.269-10.484-14.107-25.921-14.107-5.431 0-11.158 1.047-17.789 2.259-1.626.297-3.35.612-5.176.932-3.824.661-7.278 1.044-10.62 1.415-10.082 1.116-21.509 2.383-29.356 12.679-7.466 9.796-6.736 22.013-5.037 32.671a993.874 993.874 0 013.365 22.901c-12.032-5.841-25.491-8.89-39.493-8.89-24.544 0-49.007 9.203-68.202 24.964a31.807 31.807 0 00-3.232-4.247c-6.771-7.514-16.818-11.323-29.864-11.323a78.12 78.12 0 00-3.096.063l-.038.002c.175-2.385.479-5.12.72-7.273.585-5.242 1.247-11.171 1.271-17.454.002-.121.003-.243.003-.365 0-8.789-5.668-16.255-13.549-18.938l-.21-.087c-16.995-7.001-31.028-10.404-42.901-10.404-23.898 0-39.341 14.854-39.341 37.843 0 5.613.417 10.517.786 14.842.211 2.482.48 5.64.487 7.713-.373.155-.828.329-1.375.517-.979.335-1.9.723-2.765 1.155a59.434 59.434 0 00-.402-1.574c-5.72-21.18-20.222-24.423-26.509-24.8a94.091 94.091 0 00-6.365-.215c-22.472 0-44.585 7.818-62.204 21.024a125.709 125.709 0 00-5.365-10.856c-7.854-14.134-18.301-26.514-31.048-36.797-23.998-19.364-54.608-30.026-86.188-30.026zM326.97 880.838c-1.434 0-3.282-.331-5.343-.957l-.112-.033c-5.942-1.768-6.68-5.51-6.658-8.574.033-4.763 2.842-10.672 8.93-12.391 1.704-.48 3.589-.753 5.584-1.041 3.2-.463 7.582-1.096 11.984-3.056 1.493 5.367 3.604 9.478 6.004 12.624-5.278 2.348-9.276 5.906-12.319 8.615-4.6 4.093-5.806 4.813-8.07 4.813zm-213.603-8.525c3.677-2.197 7.057-5.613 9.367-10.56 5.865 6.644 14.412 10.438 24.398 10.763.588.02 1.16.028 1.725.028 5.763 0 10.638-.949 14.746-2.457-3.766 6.267-9.46 11.511-17.533 13.898-3.423 1.013-6.733 1.525-9.838 1.525-11.711.002-18.984-7.428-22.865-13.197zm584.314 8.283c-.277-3.72.413-6.504 2.052-8.276 1.498-1.62 3.939-2.587 6.528-2.587 7.506 0 8.06 6.91 8.241 9.181.314 3.854-.38 6.721-2.062 8.545-1.491 1.617-3.9 2.583-6.445 2.583-4.955-.001-7.752-3.179-8.314-9.446zm-149.639 10.517c-3.498 0-7.667-1.744-7.667-10.057 0-8.133 4.184-9.84 7.694-9.84 3.454 0 7.57 1.707 7.57 9.84.001 8.313-4.131 10.057-7.597 10.057z"/></g></g><g class="animation2"><path fill-rule="evenodd" clip-rule="evenodd" fill="#FF3AFF" d="M1138.561 1020.097c-2.8 0-5.575-.904-8.252-2.688-13.917-9.282-9.607-24.73-7.033-33.961.874-3.131 2.499-8.959 1.871-10.497v.001c-.026 0-1.474-1.396-7.428-2.12l-.784-.095c-36.829-4.395-45.636-11.206-49.394-17.29-2.409-3.898-2.887-8.406-1.346-12.69l.037-.101c.463-1.244 1.239-4.285 1.99-7.227 4.173-16.347 9.367-36.692 24.311-36.692 1.726 0 3.444.311 5.11.921l.351.129c8.938 3.276 23.896 8.759 36.091 8.759 9.844 0 12.85-3.473 14.369-6.497.941-1.874 1.307-3.084 1.447-3.759-3.021-1.678-12.239-2.779-17.919-3.459-15.315-1.831-34.376-4.109-43.474-18.062-5.525-8.472-6.229-19.64-2.095-33.193.03-.1.062-.198.095-.297 1.351-3.978 4.521-8.546 11.858-10.409a26.86 26.86 0 01-1.866-8.145c-1.523.201-2.905.312-4.233.312-9.215 0-13.015-5.829-14.459-9.304-1.497-3.601-1.96-7.859-2.66-14.305-.304-2.792-.647-5.955-1.135-9.661-1.091-7.56.83-14.447 5.559-19.923 11.253-13.031 36.016-14.702 56.33-14.702 1.51 0 2.925.008 4.219.015 1.055.006 2.027.012 2.901.012 31.692 0 64.281 19.932 76.568 45.296 2.647-9.249 8.719-19.125 17.354-27.881 12.41-12.585 27.395-20.099 40.081-20.099 2.329 0 4.612.243 6.788.723 17.374 3.824 26.633 6.827 32.264 13.547 6.195 7.395 5.72 16.376 5.061 28.807-.232 4.403-.497 9.394-.577 15.309-.399 29.682-.215 59.916-.037 89.155.1 16.358.202 33.274.202 49.925 0 4.665-2.052 13.104-15.796 17.208-7.283 2.175-16.079 2.632-22.175 2.632-4.888 0-29.663-.406-37.439-8.415a12.135 12.135 0 01-2.581-3.941c-5.744-9.849-4.014-28.788-.558-57.728.572-4.79 1.126-9.43 1.498-13.279a11.728 11.728 0 01-4.795 1.022h-.006c-2.44 0-4.884-.768-7.066-2.22a10 10 0 01-4.442-7.723c-.195-1.558-1.169-7.993-2.111-14.227a4956.673 4956.673 0 01-3.796-25.464c-2.938 7.131-7.844 13.813-14.596 19.809 14.88 10.722 24.106 27.939 24.106 46.757 0 14.462-4.015 23.895-7.241 31.474-3.742 8.79-6.214 14.598-2.62 27.285 3.453 12.182-.278 30.745-8.317 41.379-6.365 8.42-13.687 10.188-18.707 10.188-5.825 0-11.623-2.357-17.233-7.006-3.276-2.716-5.363-5.971-6.574-9.545-.682.492-1.424.897-2.207 1.204-2.666 1.045-5.132 1.553-7.538 1.553h-.001c-2.822 0-5.451-.724-7.708-2.089-.073 4.16-.492 7.53-1.274 10.271-2.915 10.208-10.679 11.001-12.988 11.001zm-13.471-188.249c2.225.229 4.365.386 6.274.386 3.369 0 4.612-.491 4.891-.627l.049-.048c2.6-2.557 3.225-4.202 3.238-4.577-.585-1.938-6.185-5.021-12.706-6.688-.108 3.85-.572 7.986-1.746 11.554z"/><path fill="#870087" d="M1277.025 762.485c1.587 0 3.137.158 4.638.488 36.927 8.129 29.397 10.753 28.898 47.762-.624 46.398.164 92.813.164 139.215 0 7.218-13.763 9.84-27.971 9.84-15.214 0-30.938-3.005-30.833-6.593-7.662-9.398 2.215-59.066 2.215-73.912.171-14.782 0-29.578 0-44.363 0-3.325-2.01-8.428-5.598-8.428-1.664-.001-3.667 1.096-5.968 3.977-.218 3.614 3.603 46.979-3.696 46.979-.463 0-.971-.174-1.527-.545h.001c.246 0-9.142-58.762-9.245-66.265-.273-19.593 27.563-48.153 48.922-48.155m-141.122 2.658c2.744 0 5.171.026 7.119.026 50.154 0 106.151 58.8 44.73 93.792 19.704 6.57 33.217 24.313 33.217 45.42 0 28.471-17.565 32.953-9.482 61.484 3.431 12.104-3.266 38.841-17.403 38.841-3.238 0-6.867-1.403-10.854-4.706-11.301-9.366 2.595-35.205 4.916-46.016-13.35 6.268-28.685.061-23.054 20.158 4.86 6.55 4.638 11.854-.672 15.906-1.513.593-2.8.863-3.89.863-10.563 0-2.648-25.398-2.648-29.104a57.14 57.14 0 01-5.359.248c-2.849 0-5.016-.199-6.662-.199-4.644 0-5.152 1.584-5.152 13.68 0-.009.001-.013.002-.013.129.001 5.899 34.572-2.15 34.572-.77 0-1.666-.316-2.705-1.009-18.211-12.145 18.918-43.818-16.928-48.183-6.334-.772-47.469-5.236-43.322-16.764 2.773-7.46 7.565-37.407 16.928-37.403.54 0 1.097.1 1.667.309 9.359 3.43 25.738 9.499 39.886 9.499 9.939 0 18.778-2.997 23.305-12.01 19.7-39.229-79.605-.401-61.412-60.042 1.172-3.454 4.949-4.481 9.942-4.48 7.337 0 17.294 2.22 25.443 2.22 5.009 0 9.336-.839 11.952-3.546 19.104-18.791-10.525-29.559-24.997-29.559-.729 0-1.423.027-2.067.083.219 1.091 2.402 22.916-3.889 22.916-.727 0-1.565-.291-2.533-.938-4.354-6.31-4.479-13.323-.369-21.045-8.531 1.615-13.814 2.892-17.193 2.892-6.981 0-5.823-5.453-8.348-24.641-3.227-21.902 32.479-23.252 51.982-23.251m141.124-22.658h-.003c-15.536.002-32.741 8.414-47.203 23.081-4.592 4.656-8.53 9.564-11.741 14.572-5.405-6.358-12.009-12.216-19.631-17.339-16.917-11.369-36.602-17.631-55.427-17.631-.857 0-1.811-.006-2.845-.012-1.312-.007-2.745-.015-4.274-.015-23.84-.001-50.075 2.157-63.899 18.167-6.569 7.607-9.371 17.481-7.896 27.821.468 3.57.803 6.653 1.1 9.378.766 7.045 1.318 12.135 3.368 17.063 2.506 6.027 6.884 10.544 12.44 13.094a25.881 25.881 0 00-3.976 7.399c-.067.196-.131.395-.191.593-5.039 16.519-3.935 30.506 3.283 41.574a38.442 38.442 0 006.194 7.317c-4.35 1.142-9.586 3.771-14.255 9.558-2.612 3.238-4.884 7.263-6.944 12.304-2.913 7.125-4.954 15.12-6.594 21.545-.574 2.248-1.36 5.327-1.686 6.247l-.062.169c-2.557 7.106-1.737 14.881 2.247 21.331 7.146 11.566 22.555 17.712 54.705 21.719l-.095.34c-1.516 5.433-3.233 11.591-3.135 18.459.16 11.071 5.221 20.485 14.25 26.507 4.352 2.9 8.994 4.369 13.802 4.369 7.958 0 18.636-4.721 22.537-18.027.112-.384.219-.774.32-1.172a28.278 28.278 0 004.242-.471 31.214 31.214 0 004.808 4.972c7.455 6.177 15.399 9.308 23.616 9.308 10.306 0 19.783-5.028 26.684-14.157 9.858-13.04 14.234-35.063 9.962-50.137-1.449-5.116-1.702-8.352-1.049-11.606.716 5.185 2.04 9.504 4.128 13.202a22.25 22.25 0 004.332 6.334c4.631 4.77 11.441 7.728 22.083 9.593 6.826 1.196 14.828 1.855 22.531 1.855 9.837 0 18.26-1.026 25.036-3.05 21.281-6.354 22.935-22.111 22.935-26.79 0-16.681-.103-33.612-.202-49.986-.178-29.19-.361-59.376.036-88.96.077-5.717.336-10.602.564-14.912.721-13.601 1.343-25.346-7.382-35.76-8.178-9.759-20.816-13.156-37.779-16.891a41.735 41.735 0 00-8.934-.955z"/></g><g class="animation2"><g><path fill-rule="evenodd" clip-rule="evenodd" fill="#75BD73" d="M451.041 827.753c13.115-.527 18.31 3.356 20.021 9.993 1.693-16.441 2.242-28.248-20.021-27.354-13.191.624-18.465-3.417-20.219-10.102-1.759 16.048-2.262 28.524 20.219 27.463z"/></g><g><path fill-rule="evenodd" clip-rule="evenodd" fill="#75BD73" d="M430.903 782.178c.595-5.364 1.289-11.107 1.289-16.86 0 .367-55.999-26.273-55.999 8.414 0 4.219.291 8.126.595 11.746 5.393-23.468 46.331-6.504 54.115-3.3z"/></g><g><path fill-rule="evenodd" clip-rule="evenodd" fill="#75BD73" d="M439.822 928.17c10.262 4.211 25.192-6.015 33.214-1.559-1.963-6.311-3.161-12.459-3.716-18.423-8.368-.813-20.659 6.248-29.499 2.62-6.437-2.639-8.636-8.976-9.301-15.902-.009 10.506-2.735 28.325 9.302 33.264z"/></g><g><path fill-rule="evenodd" clip-rule="evenodd" fill="#75BD73" d="M315.813 899.018c-10.889-3.236-17.265-10.601-19.744-19.115-3.963 14.496 1.731 31.119 19.744 36.477 38.19 11.599 32.85-37.543 61.316.834.238-6.967 3.441-21.758 1.547-31.869-.593 5.738-1.429 11.075-1.547 14.51-28.465-38.381-23.125 10.763-61.316-.837z"/></g><g><path fill-rule="evenodd" clip-rule="evenodd" fill="#75BD73" d="M362.563 833.086c16.896-5.778 15.446-15.659 14.219-30.329-1.367 5.576-5.142 9.866-14.219 12.97-2.606.891-4.501 15.745-3.104 27.506.614-5.527 1.765-9.69 3.104-10.147z"/></g><g><path fill-rule="evenodd" clip-rule="evenodd" fill="#75BD73" d="M575.64 898.417a36.96 36.96 0 00-1.009-8.652c-6.752 28.465-46.458 28.387-53.237.009a36.558 36.558 0 00-1.019 8.644c0 40.007 55.265 40.144 55.265-.001z"/></g><g><path fill-rule="evenodd" clip-rule="evenodd" fill="#75BD73" d="M950.515 826.08c7.106-1.4 17.806-4.873 25.49-4.873 6.571 0 .911 19.537 6.398 19.537 11.624 0 26.362-16.338 41.482-16.338 4.962 0 7.432 3.115 8.503 7.695 1.381-11.982 1.671-25.055-8.503-25.055-15.12 0-29.858 16.338-41.482 16.338-5.487 0 .173-19.537-6.398-19.537-7.685 0-18.384 3.472-25.49 4.871-29.096 4.418-27.493 7.473-24.118 24.805 2.876-3.404 9.74-5.261 24.118-7.443z"/></g><g><path fill-rule="evenodd" clip-rule="evenodd" fill="#75BD73" d="M469.79 873.024c0 .526-.126.954-.319 1.331a79.677 79.677 0 00-.042 17.698c8.058-73.317 118.115-108.21 151.237-27.198a1683.083 1683.083 0 00-2.181-22.264c-34.996-73.566-138.209-40.657-148.677 29.076-.006.453-.018.905-.018 1.357z"/></g><g><path fill-rule="evenodd" clip-rule="evenodd" fill="#75BD73" d="M877.342 880.998c0-5.955-2.301-11.337-5.879-15.514-9.388 2.504-27.56 6.247-36.041 2.688-21.871 32.221 41.92 13.453 41.92 12.826z"/></g><g><path fill-rule="evenodd" clip-rule="evenodd" fill="#75BD73" d="M610.753 765.369c3.08-6.873 12.554-5.381 28.463-8.135 23.545-4.116 30.441-7.531 30.807 17.226.052 8.597-.039 63.243 5.805 62.89 5.41-.638 16.92-14.313 23.684-16.62 12.227-4.173 26.719-4.166 39.191-1.146 24.115 5.841 41.029 25.709 47.994 48.865 22.104-66.935 122.196-68.851 142.314.638-1.125-14.13-4.027-22.96-4.359-28.874-27.276-57.514-117.15-52.121-137.955 10.877-6.965-23.157-23.879-43.025-47.994-48.865-12.473-3.02-26.965-3.026-39.191 1.146-6.764 2.309-18.273 15.981-23.684 16.619-5.844.354-5.753-54.292-5.805-62.89-.366-24.755-7.262-21.34-30.807-17.224-23.159 4.007-32.674-.981-28.707 23.916.084.524.16 1.05.244 1.577z"/></g><g><path fill-rule="evenodd" clip-rule="evenodd" fill="#75BD73" d="M734.438 894.677c-.161-2.012-.494-3.88-.915-5.667-6.968 27.338-47.631 29.02-54.823-1.05-.9 3.473-1.288 7.338-.952 11.638 3.48 40.262 59.958 35.211 56.69-4.921z"/></g><g><path fill-rule="evenodd" clip-rule="evenodd" fill="#75BD73" d="M912.979 911.676c-7.891 1.98-17.628 3.093-27.612 3.71-4.884 2.097-10.457 3.809-17.08 3.809-5.493 0-11.688-.908-17.292-3.015-7.266.007-13.161-.002-16.515.248 3.208 14.967 20.563 20.127 33.807 20.127 26.003 0 35.901-26.367 50.784 1.13 1.249 2.309 2.397 4.354 3.392 6.23 6.5-7.142 2.622-12.48-3.392-23.591-2.112-3.899-4.122-6.686-6.092-8.648z"/></g><g><path fill-rule="evenodd" clip-rule="evenodd" fill="#75BD73" d="M151.742 920.525c27.884-8.248 40.802-37.703 37.307-64.412-2.752 21.027-15.417 40.577-37.307 47.052-35.547 10.515-60.807-15.962-64.92-46.327-5.045 36.433 22.673 76.183 64.92 63.687z"/></g><g><path fill-rule="evenodd" clip-rule="evenodd" fill="#75BD73" d="M34.404 821.362c41.174-107.636 201.351-83.729 213.747 29.37 14.247-27.023 46.74-43.933 77.012-41.827 8.286.399 9.87 14.999 10.639 25.403 1.097-1.793 1.404-4.576.706-9.098-1.16-7.502-.329-33.133-11.344-33.666-30.272-2.105-62.765 14.805-77.012 41.828-12.396-113.1-172.572-137.005-213.747-29.369-6.352 16.602-8.904 35.125-7.7 53.286.821-12.385 3.368-24.606 7.699-35.927z"/></g></g><g class="animation2"><g><path fill="#FF87FF" d="M1116.592 840.905c-.523 5.88-2.225 10.677-6.762 7.644-1.871-2.711-2.956-5.555-3.266-8.526-5.308-.09-9.363.872-10.586 4.472-2.764 9.06-2.805 15.836-.975 20.971.28-1.167.594-2.358.975-3.611 3.954-11.646 37.566 4.303 47.338-5.807 8.418-8.277 7.357-14.992 2.319-19.923a31.166 31.166 0 01-2.319 2.563c-5.028 5.201-16.361 3.505-26.724 2.217z"/></g><g><path fill="#FF87FF" d="M1084.961 797.17c7.218-15.952 44.359-14.641 58.062-14.641 30.91 0 64.027 22.334 70.522 47.665 8.551-31.49-32.646-65.025-70.522-65.025-15.798 0-62.782-1.759-59.103 23.228.439 3.327.764 6.227 1.041 8.773z"/></g><g><path fill="#FF87FF" d="M1281.663 780.332c21.343 4.7 27.822 7.571 29.406 16.291 1.243-23.763 2.134-26.707-29.406-33.649-21.708-4.779-53.854 26.618-53.56 47.666.022 1.526.431 5.194 1.061 10.038 5.666-20.249 33.195-44.593 52.499-40.346z"/></g><g><path fill="#FF87FF" d="M1109.461 827.504l-1.525.294c.206.475.439.942.689 1.411.257-.564.531-1.132.836-1.705z"/></g><g><path fill="#FF87FF" d="M1310.693 950.204c.004-.086.032-.165.032-.254 0-30.116-.328-60.237-.389-90.356-.063 30.202.252 60.408.357 90.61z"/></g><g><path fill="#FF87FF" d="M1078.56 950.736c3.192-12.364 8.017-29.127 15.641-26.331 15.935 5.842 52.222 19.333 63.19-2.511 4.045-8.053 3.067-12.813-.874-15.813-11.895 19.615-46.775 6.66-62.316.965-10.469-3.84-15.661 29.205-18.595 37.095-.911 2.527.356 4.713 2.954 6.595z"/></g></g></svg>