<svg xmlns="http://www.w3.org/2000/svg" width="150" height="250" viewBox="0 0 150 250"><g id="Layer_3"><g><polygon fill-rule="evenodd" clip-rule="evenodd" fill="#BBB" points="31.9,237.8 36.9,239.8 32.6,243.6 		"/><path fill="#484848" d="M33.1 239.4l1.9.8-1.7 1.5-.2-2.3m-2.3-3.2l.4 3.3.2 2.2.4 3.9 2.9-2.6 1.7-1.5 2.4-2.1-3-1.2-1.9-.8-3.1-1.2z"/></g><g><polygon fill-rule="evenodd" clip-rule="evenodd" fill="#BBB" points="81.9,237.8 86.9,239.8 82.6,243.6 		"/><path fill="#484848" d="M83.1 239.4l1.9.8-1.6 1.5-.3-2.3m-2.3-3.2l.4 3.4.2 2.2.4 3.9 2.9-2.6 1.6-1.5 2.4-2.1-3-1.2-1.9-.8-3-1.3z"/></g><g><polygon fill-rule="evenodd" clip-rule="evenodd" fill="#BBB" points="131.9,237.8 136.9,239.8 132.6,243.6 		"/><path fill="#484848" d="M133.1 239.4l1.9.8-1.7 1.5-.2-2.3m-2.3-3.2l.4 3.3.2 2.2.4 3.9 2.9-2.6 1.7-1.5 2.4-2.1-3-1.2-1.9-.8-3.1-1.2z"/></g><path fill-rule="evenodd" clip-rule="evenodd" fill="#214420" d="M39.2 227.7l1.9-.1c1.8-.1 2.1 2.5.5 2.9l-2 .6c-.8.2-1.6-.2-1.9-1-.3-.8.2-2.4 1.5-2.4z"/><path fill-rule="evenodd" clip-rule="evenodd" fill="#214420" d="M89.2 227.7l1.9-.1c1.8-.1 2.1 2.5.5 2.9l-2 .6c-.8.2-1.6-.2-1.9-1-.3-.8.2-2.4 1.5-2.4z"/><path fill-rule="evenodd" clip-rule="evenodd" fill="#214420" d="M139.2 227.7l1.9-.1c1.8-.1 2.1 2.5.5 2.9l-2 .6c-.8.2-1.6-.2-1.9-1-.3-.8.2-2.4 1.5-2.4z"/><polygon fill-rule="evenodd" clip-rule="evenodd" fill="#4B9A49" points="39.1,229.8 39.2,229.2 41.2,229.2 	"/><polygon fill-rule="evenodd" clip-rule="evenodd" fill="#4B9A49" points="89.1,229.8 89.2,229.2 91.2,229.2 	"/><polygon fill-rule="evenodd" clip-rule="evenodd" fill="#4B9A49" points="139.1,229.8 139.2,229.2 141.2,229.2 	"/><path fill-rule="evenodd" clip-rule="evenodd" fill="#214420" d="M38 230.6l-.2-.1-2.4-4.2c1.3-1.5 2.7.5 3.6 1.4.9.9 0 2.5-1 2.9z"/><path fill-rule="evenodd" clip-rule="evenodd" fill="#214420" d="M88 230.6l-.2-.1-2.4-4.2c1.3-1.5 2.7.5 3.6 1.4.9.9 0 2.5-1 2.9z"/><path fill-rule="evenodd" clip-rule="evenodd" fill="#214420" d="M138 230.6l-.2-.1-2.4-4.2c1.3-1.5 2.7.5 3.6 1.4.9.9 0 2.5-1 2.9z"/><polygon fill-rule="evenodd" clip-rule="evenodd" fill="#4B9A49" points="37.5,229.1 37.9,228.7 36.5,227.2 	"/><polygon fill-rule="evenodd" clip-rule="evenodd" fill="#4B9A49" points="87.5,229.1 87.9,228.7 86.5,227.2 	"/><polygon fill-rule="evenodd" clip-rule="evenodd" fill="#4B9A49" points="137.5,229.1 137.9,228.7 136.5,227.2 	"/><g><polygon fill-rule="evenodd" clip-rule="evenodd" fill="#BBB" points="65.3,189.3 70.6,186.7 70.4,192.1 		"/><path fill="#484848" d="M69.5 188.4l-.1 2-1.9-1 2-1m2.1-3.3l-3 1.5-2 1-3.5 1.7 3.4 1.8 1.9 1 2.8 1.5.1-3.2.1-2 .2-3.3z"/></g><g><path fill-rule="evenodd" clip-rule="evenodd" fill="#4B9A49" d="M81.9 193.4c-.3 0-.6-.1-.8-.4l-1.3-1.7c-.2-.3-.3-.6-.2-.9.1-.3.4-.6.7-.6l.6-.2h.3c.4 0 .8.2.9.6l.8 1.8c.2.5 0 1-.4 1.2-.3.2-.5.2-.6.2z"/><g><path fill="#214420" d="M81.1 190.6l.8 1.8-1.3-1.7.5-.1m0-2c-.2 0-.4 0-.5.1l-.6.2c-.6.2-1.2.7-1.4 1.3s-.1 1.3.3 1.9l1.3 1.7c.4.5 1 .8 1.6.8.3 0 .7-.1 1-.3.9-.5 1.2-1.6.8-2.5l-.8-1.8c-.2-1-.9-1.4-1.7-1.4z"/></g></g><g><path fill-rule="evenodd" clip-rule="evenodd" fill="#4B9A49" d="M81.2 190.2c-.1 0-.2 0-.3-.1l-.5-.2c-.3-.1-.6-.4-.6-.7-.1-.3 0-.7.2-.9l1.4-1.6c.2-.2.5-.3.7-.3.2 0 .4.1.6.2.4.3.6.8.3 1.3l-.9 1.8c-.2.2-.6.5-.9.5z"/><g><path fill="#214420" d="M82.1 187.4l-.9 1.8-.5-.2 1.4-1.6m0-2c-.5 0-1.1.2-1.5.7l-1.4 1.6c-.4.5-.6 1.2-.5 1.8.2.6.6 1.2 1.3 1.4l.5.2c.2.1.4.1.7.1.7 0 1.4-.4 1.8-1.1l.9-1.8c.4-.9.2-2-.7-2.5-.4-.3-.8-.4-1.1-.4z"/></g></g><g><polygon fill-rule="evenodd" clip-rule="evenodd" fill="#BBB" points="118,191.9 122.3,187.9 123.6,193.1 		"/><path fill="#484848" d="M121.8 189.8l.5 2-2.2-.5 1.7-1.5m1.1-3.8l-2.5 2.3-1.7 1.5-2.8 2.6 3.8.8 2.2.5 3.1.7-.8-3.1-.5-2-.8-3.3z"/></g><g><path fill-rule="evenodd" clip-rule="evenodd" fill="#4B9A49" d="M134.8 191.2c-.2 0-.4-.1-.6-.2l-1.7-1.3c-.3-.2-.4-.5-.4-.8 0-.3.2-.6.5-.8l.5-.3c.2-.1.3-.1.5-.1.3 0 .6.1.8.4l1.2 1.6c.3.4.3 1-.1 1.3-.2.1-.5.2-.7.2z"/><g><path fill="#214420" d="M133.5 188.7l1.2 1.6-1.7-1.3.5-.3m0-2c-.4 0-.7.1-1 .3l-.5.3c-.6.4-.9 1-1 1.6 0 .7.3 1.3.8 1.7l1.7 1.3c.4.3.8.4 1.2.4.5 0 1.1-.2 1.5-.6.7-.7.7-1.8.1-2.6l-1.2-1.6c-.4-.6-1-.8-1.6-.8z"/></g></g><g><path fill-rule="evenodd" clip-rule="evenodd" fill="#4B9A49" d="M132.5 188.2c-.3 0-.6-.2-.8-.5-.2-.3-.2-.6 0-.9l.9-1.9c.2-.4.5-.6.9-.6.1 0 .2 0 .3.1.5.2.8.6.7 1.1l-.4 2c-.1.5-.5.8-1 .8.1 0-.6-.1-.6-.1z"/><g><path fill="#214420" d="M133.5 185.3l-.4 2h-.6l1-2m0-2c-.7 0-1.5.4-1.8 1.1l-.9 1.9c-.3.6-.3 1.3.1 1.9s.9 1 1.6 1h.7c1 0 1.8-.7 2-1.6l.4-2c.2-1-.4-2-1.3-2.3-.3.1-.5 0-.8 0z"/></g></g><g><polygon fill-rule="evenodd" clip-rule="evenodd" fill="#A27556" points="12.3,89.8 14.2,85.2 17,86.4 15.1,90.9 		"/><path fill="#4C4134" d="M14.7 86.5l.9.4-1.1 2.7-.9-.4 1.1-2.7m-1.1-2.6l-.8 1.9-1.1 2.7-.7 1.8 1.8.8.9.4 1.9.8.8-1.9 1.1-2.7.8-1.8-1.9-.9-.9-.4-1.9-.7z"/></g><g><path fill-rule="evenodd" clip-rule="evenodd" fill="#4B9A49" d="M10.9 91.5c-.5 0-.9-.3-1-.8-.1-.5.2-1 .7-1.1l2-.6h.3c.2 0 .4.1.6.2.3.2.4.5.4.9v.6c0 .5-.5.9-1 .9 0-.2-2-.1-2-.1z"/><g><path fill="#214420" d="M12.9 89.8v.6l-2 .1 2-.7m0-2c-.2 0-.4 0-.6.1l-2 .6c-1 .3-1.5 1.3-1.4 2.3.2 1 1 1.7 2 1.7h.1l2-.1c1 0 1.8-.8 1.9-1.8V90c.1-.7-.2-1.3-.7-1.7-.4-.3-.8-.5-1.3-.5z"/></g></g><g><path fill-rule="evenodd" clip-rule="evenodd" fill="#4B9A49" d="M15.5 93.4c-.3 0-.5-.1-.7-.3l-1.4-1.5c-.3-.4-.4-.9 0-1.3l.4-.4c.2-.2.5-.4.8-.4h.1c.3 0 .6.2.8.5l1 1.9c.2.4.1 1-.3 1.3-.3.1-.5.2-.7.2z"/><g><path fill="#214420" d="M14.6 90.5l1 1.9-1.4-1.5.4-.4m0-2c-.6 0-1.2.3-1.5.7l-.4.4c-.6.8-.6 1.9.1 2.6l1.4 1.5c.4.4.9.6 1.5.6.4 0 .8-.1 1.2-.4.8-.6 1.1-1.7.6-2.6l-1-1.9c-.3-.6-.9-1-1.6-1.1-.2.2-.3.2-.3.2z"/></g></g><g><polygon fill-rule="evenodd" clip-rule="evenodd" fill="#A27556" points="60.9,91.7 62.8,87.1 65.6,88.3 63.7,92.8 		"/><path fill="#4C4134" d="M63.3 88.4l.9.4-1.1 2.7-.9-.4 1.1-2.7m-1.1-2.6l-.8 1.9-1.1 2.7-.8 1.8 1.8.8.9.4 1.9.8.8-1.9 1.1-2.7.8-1.8L65 87l-.9-.4-1.9-.8z"/></g><g><path fill-rule="evenodd" clip-rule="evenodd" fill="#4B9A49" d="M59.5 93.4c-.5 0-.9-.3-1-.8-.1-.5.2-1 .7-1.1l2-.6h.3c.2 0 .4.1.6.2.3.2.4.5.4.9v.6c0 .5-.5.9-1 .9 0-.2-2-.1-2-.1z"/><g><path fill="#214420" d="M61.5 91.7v.6l-2 .1 2-.7m0-2c-.2 0-.4 0-.6.1l-2 .6c-1 .3-1.5 1.3-1.4 2.3.2 1 1 1.7 2 1.7h.1l2-.1c1 0 1.8-.8 1.9-1.8v-.6c.1-.7-.2-1.3-.7-1.7-.4-.3-.8-.5-1.3-.5z"/></g></g><g><path fill-rule="evenodd" clip-rule="evenodd" fill="#4B9A49" d="M64.1 95.3c-.3 0-.5-.1-.7-.3L62 93.5c-.3-.4-.4-.9 0-1.3l.4-.4c.2-.2.5-.4.8-.4h.1c.3 0 .6.2.8.5l1 1.9c.2.4.1 1-.3 1.3-.3.2-.5.2-.7.2z"/><g><path fill="#214420" d="M63.1 92.4l1 1.9-1.4-1.5.4-.4m0-2c-.6 0-1.1.3-1.5.7l-.4.4c-.7.8-.6 1.9.1 2.6l1.4 1.5c.4.4.9.6 1.5.6.4 0 .8-.1 1.2-.4.8-.6 1.1-1.7.6-2.6l-1-1.9c-.3-.6-.9-1-1.6-1.1-.1.2-.2.2-.3.2z"/></g></g><g><polygon fill-rule="evenodd" clip-rule="evenodd" fill="#A27556" points="111.1,91.7 113,87.1 115.8,88.3 113.9,92.8 		"/><path fill="#4C4134" d="M113.6 88.4l.9.4-1.1 2.7-.9-.4 1.1-2.7m-1.1-2.6l-.8 1.9-1.1 2.7-.8 1.8 1.8.8.9.4 1.9.8.8-1.9 1.1-2.7.8-1.8-1.8-.8-.9-.4-1.9-.8z"/></g><g><path fill-rule="evenodd" clip-rule="evenodd" fill="#4B9A49" d="M109.7 93.4c-.5 0-.9-.3-1-.8-.1-.5.2-1 .7-1.1l2-.6h.3c.2 0 .4.1.6.2.3.2.4.5.4.9v.6c0 .5-.5.9-1 .9 0-.2-2-.1-2-.1z"/><g><path fill="#214420" d="M111.8 91.7v.6l-2 .1 2-.7m0-2c-.2 0-.4 0-.6.1l-2 .6c-1 .3-1.5 1.3-1.4 2.3.2 1 1 1.7 2 1.7h.1l2-.1c1 0 1.8-.8 1.9-1.8v-.6c.1-.7-.2-1.3-.7-1.7-.5-.3-.9-.5-1.3-.5z"/></g></g><g><path fill-rule="evenodd" clip-rule="evenodd" fill="#4B9A49" d="M114.4 95.3c-.3 0-.5-.1-.7-.3l-1.4-1.5c-.3-.4-.4-.9 0-1.3l.4-.4c.2-.2.5-.4.8-.4h.1c.3 0 .6.2.8.5l1 1.9c.2.4.1 1-.3 1.3-.3.2-.5.2-.7.2z"/><g><path fill="#214420" d="M113.4 92.4l1 1.9-1.4-1.5.4-.4m0-2c-.6 0-1.2.3-1.5.7l-.4.4c-.6.8-.6 1.9.1 2.6l1.4 1.5c.4.4.9.6 1.5.6.4 0 .8-.1 1.2-.4.8-.6 1.1-1.7.6-2.6l-1-1.9c-.3-.6-.9-1-1.6-1.1-.2.2-.2.2-.3.2z"/></g></g><g><polygon fill-rule="evenodd" clip-rule="evenodd" fill="#BBB" points="13.6,187.6 19.2,185.9 18.1,191.2 		"/><path fill="#484848" d="M17.9 187.4l-.4 2-1.7-1.4 2.1-.6m2.6-2.9l-3.2 1-2.2.7-3.7 1.1 3 2.4 1.7 1.4 2.5 2 .7-3.1.4-2 .8-3.5z"/></g><g><path fill-rule="evenodd" clip-rule="evenodd" fill="#4B9A49" d="M29.4 194.4c-.4 0-.7-.2-.9-.5l-1-1.9c-.2-.3-.2-.6 0-.9.2-.3.5-.5.8-.5l.6-.1h.1c.5 0 .9.3 1 .8l.4 1.9c.1.5-.2 1-.6 1.2h-.4z"/><g><path fill="#214420" d="M28.9 191.5l.4 1.9-1-1.9h.6m0-2h-.2l-.6.1c-.7.1-1.3.5-1.6 1-.3.6-.3 1.3 0 1.9l1 1.9c.4.7 1 1.1 1.8 1.1.2 0 .5 0 .7-.1.9-.4 1.5-1.3 1.2-2.3l-.4-1.9c-.1-1.1-1-1.7-1.9-1.7z"/></g></g><g><path fill-rule="evenodd" clip-rule="evenodd" fill="#4B9A49" d="M29.2 191.1c-.2 0-.3 0-.5-.1l-.5-.3c-.3-.2-.5-.5-.5-.8 0-.3.1-.7.4-.9l1.7-1.3c.2-.1.4-.2.6-.2.3 0 .5.1.7.3.4.3.4.9.1 1.3l-1.2 1.6c-.2.3-.5.4-.8.4z"/><g><path fill="#214420" d="M30.4 188.5l-1.2 1.6-.5-.3 1.7-1.3m0-2c-.4 0-.9.1-1.2.4l-1.7 1.3c-.5.4-.8 1.1-.8 1.7s.4 1.3 1 1.6l.5.3c.3.2.6.3 1 .3.6 0 1.2-.3 1.6-.8l1.2-1.6c.6-.8.5-1.9-.2-2.6-.4-.4-.9-.6-1.4-.6z"/></g></g><g><polygon fill-rule="evenodd" clip-rule="evenodd" fill="#BBB" points="82.7,40.1 87.7,42.1 83.4,45.9 		"/><path fill="#484848" d="M83.9 41.6l1.9.8-1.7 1.5-.2-2.3m-2.3-3.1l.4 3.3.2 2.2.4 3.8 2.9-2.6 1.7-1.5 2.4-2.1-3-1.2-1.9-.8-3.1-1.1z"/></g><path fill-rule="evenodd" clip-rule="evenodd" fill="#214420" d="M89.8 31.9l-.3.4c-.1.2-.3.3-.5.4-.2.1-.3.1-.5.2l-2.4-4.2c.1-.1.1-.2.2-.3.6-.6 1.5-.5 2.1.1l1.3 1.4c.6.6.6 1.5.1 2z"/><polygon fill-rule="evenodd" clip-rule="evenodd" fill="#4B9A49" points="88.3,31.4 88.7,31 87.3,29.5 	"/><g><polygon fill-rule="evenodd" clip-rule="evenodd" fill="#BBB" points="132.8,40.2 137.8,42.3 133.5,46.1 		"/><path fill="#484848" d="M134 41.8l1.9.8-1.7 1.5-.2-2.3m-2.3-3.1l.3 3.3.2 2.2.4 3.9 2.9-2.6 1.7-1.5 2.4-2.1-3-1.2-1.9-.8-3-1.2z"/></g><path fill-rule="evenodd" clip-rule="evenodd" fill="#214420" d="M139.9 32.1l-.3.4c-.1.2-.3.3-.5.4-.2.1-.3.1-.5.2l-2.4-4.2c.1-.1.1-.2.2-.3.6-.6 1.6-.5 2.1.1l1.3 1.4c.6.5.6 1.4.1 2z"/><polygon fill-rule="evenodd" clip-rule="evenodd" fill="#4B9A49" points="138.4,31.6 138.8,31.1 137.4,29.7 	"/><g><polygon fill-rule="evenodd" clip-rule="evenodd" fill="#BBB" points="31.9,37.8 36.9,39.8 32.6,43.6 		"/><path fill="#484848" d="M33.1 39.4l1.9.8-1.7 1.5-.2-2.3m-2.3-3.2l.4 3.3.2 2.2.4 3.9 2.9-2.6 1.7-1.5 2.4-2.1-3-1.2-1.9-.8-3.1-1.2z"/></g><path fill-rule="evenodd" clip-rule="evenodd" fill="#214420" d="M37.7 29.7v-.6c.1-.8.8-1.4 1.5-1.4l1.9-.1c.8 0 1.5.6 1.6 1.4 0 .7-.4 1.3-1.1 1.5l-2 .6c-.8.2-1.6-.2-1.9-1 0 0-.1-.2 0-.4z"/><polygon fill-rule="evenodd" clip-rule="evenodd" fill="#4B9A49" points="39.1,29.8 39.2,29.2 41.2,29.2 	"/><path fill-rule="evenodd" clip-rule="evenodd" fill="#214420" d="M39 29.7l-.3.3c-.1.2-.3.3-.5.4-.1 0-.2.1-.2.1l-.2-.1-2.4-4.2.1-.1c.6-.6 1.6-.5 2.1.1l1.3 1.4c.6.6.6 1.5.1 2.1z"/><polygon fill-rule="evenodd" clip-rule="evenodd" fill="#4B9A49" points="37.5,29.1 37.9,28.7 36.5,27.2 	"/></g></svg>