<svg xmlns="http://www.w3.org/2000/svg" xmlns:xlink="http://www.w3.org/1999/xlink" width="100" height="100" viewBox="0 0 100 100"><symbol id="home" viewBox="0 0 100 100"><g><polygon fill-rule="evenodd" clip-rule="evenodd" points="69.55,12.59 82.382,12.59 82.382,35.103 94.585,45.943 82.382,45.943 
			50,17.186 17.618,45.943 5.415,45.943 50,6.354 69.55,23.708 		"/><polygon fill-rule="evenodd" clip-rule="evenodd" points="82.382,52.253 82.382,93.646 60.775,93.646 60.775,65.142 
			39.225,65.142 39.225,93.646 17.618,93.646 17.618,52.253 50,23.503 		"/></g></symbol><symbol id="plus" viewBox="0 0 100 100"><polygon fill-rule="evenodd" clip-rule="evenodd" points="5.864,57.053 5.864,42.947 42.947,42.947 42.947,5.864 57.053,5.864 
		57.053,42.947 94.137,42.947 94.137,57.053 57.053,57.053 57.053,94.137 42.947,94.137 42.947,57.053 	"/></symbol><symbol id="minus" viewBox="0 0 100 100"><rect x="5.872" y="42.947" fill-rule="evenodd" clip-rule="evenodd" width="88.256" height="14.105"/></symbol><symbol id="previous" viewBox="0 0 100 100"><polygon fill-rule="evenodd" clip-rule="evenodd" points="76.814,16.189 66.905,6.28 23.185,50 66.905,93.72 76.814,83.811 
		43.013,50 	"/></symbol><symbol id="triangle" viewBox="0 0 100 100"><polygon fill-rule="evenodd" clip-rule="evenodd" points="6.793,19.229 93.207,19.229 49.999,80.771 	"/></symbol><symbol id="menu" viewBox="0 0 100 100"><rect x="5.872" y="42.947" fill-rule="evenodd" clip-rule="evenodd" width="88.256" height="14.105"/><rect x="5.872" y="12.947" fill-rule="evenodd" clip-rule="evenodd" width="88.256" height="14.105"/><rect x="5.872" y="72.947" fill-rule="evenodd" clip-rule="evenodd" width="88.256" height="14.105"/></symbol><symbol id="instagram" viewBox="0 0 100 100"><path d="M69.481 5.389H29.839c-13.451 0-24.356 10.905-24.356 24.355v39.642c0 13.454 10.905 24.357 24.356 24.357h39.643c13.451 0 24.355-10.903 24.355-24.357V29.745c0-13.451-10.904-24.356-24.356-24.356zm17.216 63.897c0 9.565-7.752 17.316-17.316 17.316H29.939c-9.564 0-17.316-7.751-17.316-17.316V29.845c0-9.564 7.752-17.316 17.316-17.316H69.38c9.564 0 17.316 7.752 17.316 17.316v39.441z"/><path d="M49.659 26.282c-12.858 0-23.283 10.425-23.283 23.286 0 12.856 10.425 23.281 23.283 23.281 12.86 0 23.285-10.425 23.285-23.281 0-12.861-10.424-23.286-23.285-23.286zm0 38.47c-8.388 0-15.186-6.799-15.186-15.184 0-8.389 6.798-15.188 15.186-15.188s15.188 6.8 15.188 15.188c0 8.385-6.8 15.184-15.188 15.184z"/><circle cx="73.735" cy="25.509" r="5.223"/></symbol><symbol id="facebook" viewBox="0 0 100 100"><path d="M63.795 53.111H50.896V94.62H31.773V53.111H22.68v-16.25h9.094V26.346c0-7.519 3.572-19.295 19.294-19.295l14.164.061v15.772h-10.28c-1.685 0-4.057.842-4.057 4.429v9.564h14.569l-1.669 16.234zm2.228.488"/></symbol><symbol id="twitter" viewBox="0 0 100 100"><path d="M95.157 26.082a34.572 34.572 0 01-9.954 2.727 17.39 17.39 0 007.622-9.585 34.674 34.674 0 01-11.006 4.204 17.312 17.312 0 00-12.651-5.471c-9.569 0-17.331 7.76-17.331 17.33 0 1.358.155 2.68.452 3.95-14.403-.723-27.172-7.622-35.72-18.108a17.258 17.258 0 00-2.346 8.712 17.325 17.325 0 007.709 14.424 17.215 17.215 0 01-7.85-2.169c-.002.073-.002.148-.002.221 0 8.396 5.976 15.399 13.902 16.99a17.334 17.334 0 01-7.825.298c2.204 6.884 8.602 11.893 16.188 12.035a34.764 34.764 0 01-21.525 7.418c-1.396 0-2.777-.082-4.131-.243a49.03 49.03 0 0026.563 7.788c31.876 0 49.308-26.404 49.308-49.309 0-.751-.017-1.498-.05-2.241a35.174 35.174 0 008.647-8.971zm0 0"/></symbol><symbol id="youtube" viewBox="0 0 100 100"><path fill-rule="evenodd" clip-rule="evenodd" d="M91.949 33.736c0-7.044-5.706-12.753-12.748-12.753H19.4c-7.044 0-12.75 5.708-12.75 12.753v34.199c0 7.043 5.706 12.754 12.75 12.754h59.801c7.042 0 12.748-5.711 12.748-12.754V33.736zM40.77 65.266V33.145l24.36 16.058-24.36 16.063zm0 0"/></symbol><symbol id="linkedin" viewBox="0 0 100 100"><g><path d="M25.767 15.708c0 5.245-3.873 9.495-10.246 9.495-5.992 0-9.866-4.25-9.866-9.495 0-5.373 3.998-9.495 10.118-9.495 6.121 0 9.87 4.121 9.994 9.495zM6.156 93.787v-61.09h18.985v61.09H6.156z"/><path d="M36.377 52.028c0-7.619-.252-13.991-.5-19.491h16.488l.877 8.496h.376c2.5-3.998 8.62-9.87 18.866-9.87 12.492 0 21.861 8.372 21.861 26.36v36.108h-18.99V59.774c0-7.871-2.747-13.242-9.62-13.242-5.247 0-8.368 3.625-9.745 7.118-.497 1.253-.625 3-.625 4.746v35.235H36.377V52.028z"/></g></symbol><symbol id="github" viewBox="0 0 100 100"><g><defs><rect id="SVGID_1_" x="6.539" y="7.208" width="86.923" height="85.584"/></defs><clipPath id="SVGID_2_"><use xlink:href="#SVGID_1_" overflow="visible"/></clipPath><path clip-path="url(#SVGID_2_)" d="M88.22 50.928c0-21.104-17.113-38.216-38.218-38.216-21.108 0-38.219 17.112-38.219 38.216 0 16.755 10.781 30.989 25.782 36.148.915-.657 1.968-1.471 1.968-2.843 0-2.103-.045-7.512-.045-7.512s-1.661.283-4.027.283c-5.967 0-7.851-3.787-8.751-5.906-1.168-2.761-2.683-4.055-4.292-5.088-.989-.638-1.216-1.388-.071-1.605 5.28-.983 6.628 5.959 10.156 7.064 2.516.79 5.752.448 7.362-.589.214-2.119 1.749-3.951 3.032-4.919-8.972-.858-14.288-3.955-17.046-8.937l-.296-.557-.693-1.582-.204-.566c-.865-2.527-1.245-5.423-1.245-8.657 0-5.74 1.799-7.907 4.213-10.967-1.847-6.544.664-11.015.664-11.015s3.881-.803 11.219 4.426c3.977-1.698 14.583-1.838 19.598-.378 3.08-2.023 8.713-4.896 10.986-4.092.619.986 1.941 3.858.803 10.166.777 1.385 4.784 4.333 4.801 12.665-.065 3.073-.388 5.673-.983 7.867l-.332 1.119s-.188.53-.392 1.037l-.247.559c-2.659 5.808-8.117 7.979-16.936 8.881 2.859 1.79 3.675 4.034 3.675 10.108 0 6.077-.079 6.891-.059 8.289.016 1.237 1 2.122 1.892 2.793 15.06-5.124 25.905-19.391 25.905-36.192"/></g></symbol><symbol id="eye_close" viewBox="0 0 100 100"><rect x="45.166" y="3.666" transform="rotate(-45.187 50.002 50.002)" fill="evenodd" width="9.666" height="92.668"/><g><path fill="evenodd" d="M43.549 29.132c2.039-.63 4.205-.97 6.451-.97 12.06 0 21.837 9.777 21.837 21.837a21.84 21.84 0 01-.931 6.315l10.492 10.425C89.732 60.761 95.292 53.814 96.38 50c-2.331-7.205-22.199-27.667-46.366-27.667-4.063 0-8 .571-11.756 1.542l5.291 5.257z"/><path fill="evenodd" d="M56.451 70.868c-2.039.63-4.205.97-6.451.97-12.06 0-21.837-9.778-21.837-21.838 0-2.196.328-4.314.931-6.313L18.601 33.261C10.267 39.239 4.708 46.186 3.621 50H3.62c2.33 7.205 22.198 27.666 46.366 27.666 4.063 0 7.999-.571 11.756-1.542l-5.291-5.256z"/></g></symbol><symbol id="eye_open" viewBox="0 0 100 100"><path fill="evenodd" d="M50.014 22.333C25.727 22.333 5.79 42.396 3.621 50H3.62c2.33 7.205 22.198 27.666 46.366 27.666 24.286 0 44.225-20.062 46.394-27.666-2.331-7.205-22.199-27.667-46.366-27.667zM50 71.838c-12.06 0-21.837-9.778-21.837-21.838S37.94 28.163 50 28.163 71.837 37.939 71.837 50 62.06 71.838 50 71.838z"/></symbol></svg>